<?xml version="1.0" encoding="UTF-8"?><svg id="b" xmlns="http://www.w3.org/2000/svg" viewBox="0 0 95.7273 9.3484"><g id="c"><g><polygon points="69.8296 9.3484 15.3949 9.3484 16.5547 0 70.9894 0 69.8296 9.3484" style="fill:#e2050d;"/><g><path d="M1.828,1.8207l-.7239,4.0921c-.0247,.1235-.0371,.2505-.0371,.3804,0,.3653,.1069,.6387,.3203,.8214,.2134,.1821,.5179,.2735,.9139,.2735,.4639,0,.8458-.1235,1.1458-.3711,.3001-.2471,.4932-.6153,.5799-1.1041l.7239-4.0921h1.0577l-.7237,4.0921c-.0928,.5259-.2864,.9713-.5801,1.336-.2937,.3653-.648,.6373-1.0623,.8165-.4143,.1797-.8536,.2691-1.3175,.2691-.6309,0-1.1429-.1607-1.5358-.4825-.3929-.3213-.5892-.7886-.5892-1.401,0-.2041,.0154-.3833,.0464-.5381L.7701,1.8207H1.828Zm.4407-.7794c-.0899-.0864-.1345-.1948-.1345-.3247,0-.1729,.0664-.3262,.1995-.459,.1328-.1333,.2891-.1997,.4685-.1997,.136,0,.2473,.0435,.334,.1299,.0867,.0869,.1299,.1948,.1299,.3247,0,.1797-.0664,.334-.1995,.4639s-.2862,.1948-.4593,.1948c-.1362,0-.249-.043-.3387-.1299Zm1.5958,0c-.0896-.0864-.1345-.1948-.1345-.3247,0-.1729,.0664-.3262,.1995-.459,.1331-.1333,.2891-.1997,.4685-.1997,.136,0,.2473,.0435,.3343,.1299,.0864,.0869,.1299,.1948,.1299,.3247,0,.1797-.0667,.334-.1995,.4639-.1333,.1299-.2864,.1948-.4595,.1948-.136,0-.249-.043-.3387-.1299Z" style="fill:#242424;"/><polygon points="8.3137 1.4032 7.098 8.2695 6.0403 8.2695 7.2557 1.4032 8.3137 1.4032" style="fill:#242424;"/><path d="M13.1339,3.6119c.3806,.3584,.5708,.8409,.5708,1.4474,0,.1421-.0156,.3125-.0464,.5103-.0249,.1362-.0684,.3032-.1299,.501h-3.9066c-.0061,.0435-.0093,.1084-.0093,.1948,0,.3653,.1128,.6558,.3387,.8721,.2258,.2168,.5213,.3247,.8863,.3247,.5752,0,1.0174-.2378,1.3268-.7144h1.1412c-.2351,.4703-.5813,.8551-1.0391,1.1554-.4578,.2998-.9867,.4497-1.5866,.4497-.4268,0-.8013-.0835-1.1229-.2505s-.5721-.4068-.7515-.7188c-.1795-.3125-.2691-.6788-.2691-1.0997,0-.1792,.0191-.371,.0557-.5752,.0942-.5257,.2815-.9884,.566-1.3873s.6387-.7066,1.0626-.9229c.4236-.2168,.8861-.3252,1.3871-.3252,.637,0,1.1458,.1797,1.5262,.5386Zm-.5149,1.4567c0-.3404-.1128-.6094-.3387-.8072-.2258-.1983-.5181-.2969-.8768-.2969-.3775,0-.7176,.1206-1.0206,.3618-.3032,.2412-.5105,.5689-.6219,.9835h2.8393c.0125-.1113,.0186-.1919,.0186-.2412Z" style="fill:#242424;"/><path d="M17.5271,6.7664c.6866-.501,1.2264-.9107,1.6193-1.2296,.3926-.3184,.733-.6475,1.0206-.9879s.4551-.6722,.5149-.9928c.0174-.093,.0278-.1826,.0278-.2691,0-.2232-.0635-.396-.1902-.5201-.1267-.1235-.3201-.1856-.5799-.1856-.3032,0-.5538,.1006-.7515,.3018-.198,.2012-.3372,.4873-.4175,.8585h-1.2528c.1484-.7427,.4671-1.3053,.9556-1.6891,.4888-.3833,1.0548-.5752,1.6981-.5752,.6124,0,1.0763,.1441,1.3917,.4317s.4734,.6695,.4734,1.1456c0,.1548-.0141,.2937-.0371,.418-.0858,.463-.2879,.9093-.6219,1.336s-.6959,.8023-1.0855,1.127-.8939,.7134-1.5123,1.1646h2.737l-.1948,1.0763h-4.5743l.167-.9649,.6124-.4453Z" style="fill:#fff;"/><path d="M23.739,2.4238c.492-.5997,1.1861-.9,2.0832-.9,1.3485,0,2.0229,.73,2.0229,2.1901,0,.3711-.0382,.7606-.1113,1.169-.4019,2.2442-1.4291,3.368-3.0991,3.368-1.3487,0-2.0229-.733-2.0229-2.1989,0-.3711,.0378-.7607,.1113-1.169,.1872-1.0389,.5242-1.859,1.016-2.4592Zm2.8254,1.4293c0-.3526-.0728-.628-.218-.8262-.1453-.1978-.3911-.2969-.7376-.2969-.4949,0-.8568,.189-1.0855,.5665-.229,.377-.4021,.9058-.5196,1.5866-.0742,.4146-.1113,.7579-.1113,1.0299,0,.3589,.0725,.6373,.218,.835,.1453,.1983,.3911,.2969,.7376,.2969,.3462,0,.6246-.0957,.835-.2876,.2102-.1914,.3711-.441,.4825-.7471s.2073-.6817,.2876-1.127c.0742-.4146,.1113-.7579,.1113-1.0299Z" style="fill:#fff;"/><path d="M29.7331,2.4238c.492-.5997,1.1861-.9,2.0832-.9,1.3485,0,2.0229,.73,2.0229,2.1901,0,.3711-.0382,.7606-.1113,1.169-.4019,2.2442-1.4291,3.368-3.0991,3.368-1.3487,0-2.0229-.733-2.0229-2.1989,0-.3711,.0378-.7607,.1113-1.169,.1872-1.0389,.5242-1.859,1.016-2.4592Zm2.8254,1.4293c0-.3526-.0728-.628-.218-.8262-.1453-.1978-.3911-.2969-.7376-.2969-.4949,0-.8568,.189-1.0855,.5665-.229,.377-.4021,.9058-.5196,1.5866-.0742,.4146-.1113,.7579-.1113,1.0299,0,.3589,.0725,.6373,.218,.835,.1453,.1983,.3911,.2969,.7376,.2969,.3462,0,.6246-.0957,.835-.2876,.2102-.1914,.3711-.441,.4825-.7471s.2073-.6817,.2876-1.127c.0742-.4146,.1113-.7579,.1113-1.0299Z" style="fill:#fff;"/><path d="M35.7273,2.4238c.492-.5997,1.1861-.9,2.0832-.9,1.3485,0,2.0229,.73,2.0229,2.1901,0,.3711-.0382,.7606-.1113,1.169-.4019,2.2442-1.4291,3.368-3.0991,3.368-1.3487,0-2.0229-.733-2.0229-2.1989,0-.3711,.0378-.7607,.1113-1.169,.1872-1.0389,.5242-1.859,1.016-2.4592Zm2.8254,1.4293c0-.3526-.0728-.628-.218-.8262-.1453-.1978-.3911-.2969-.7376-.2969-.4949,0-.8568,.189-1.0855,.5665-.229,.377-.4021,.9058-.5196,1.5866-.0742,.4146-.1113,.7579-.1113,1.0299,0,.3589,.0725,.6373,.218,.835,.1453,.1983,.3911,.2969,.7376,.2969,.3462,0,.6246-.0957,.835-.2876,.2102-.1914,.3711-.441,.4825-.7471s.2073-.6817,.2876-1.127c.0742-.4146,.1113-.7579,.1113-1.0299Z" style="fill:#fff;"/><path d="M43.4191,4.2985c.2752-.4024,.6109-.7115,1.0069-.9278,.3958-.2168,.8133-.3252,1.2525-.3252,.3833,0,.7066,.0776,.9696,.2324,.263,.1543,.4561,.3491,.5799,.5845l.1299-.733h1.3085l-.9093,5.1401h-1.3085l.1392-.7515c-.2041,.2412-.4685,.441-.7933,.5987s-.679,.2363-1.0623,.2363c-.3775,0-.7115-.085-1.0023-.2549-.2908-.1704-.5164-.4117-.6773-.7237-.1609-.3125-.2412-.6758-.2412-1.0904,0-.1919,.0183-.3927,.0557-.6031,.0922-.5197,.2769-.9805,.552-1.3824Zm3.5213,1.0484c0-.3648-.1067-.6495-.3201-.8536s-.481-.3062-.8026-.3062c-.2412,0-.4749,.0586-.7005,.1763-.2258,.1172-.4222,.2891-.5892,.5147-.167,.2261-.282,.4931-.3343,.8028-.0198,.1175-.0278,.229-.0278,.334,0,.3711,.1052,.6636,.3157,.877,.2102,.2134,.4761,.3199,.7979,.3199,.2412,0,.4761-.0601,.7051-.1807,.2288-.1206,.4253-.2954,.5892-.5245s.2737-.4981,.3294-.8072c.0247-.1607,.0371-.2783,.0371-.3526Z" style="fill:#fff;"/><path d="M51.8675,3.315c.2969-.1734,.6185-.2603,.9649-.2603l-.2412,1.3644h-.3433c-.3836,0-.6912,.0835-.9232,.2505s-.4007,.4517-.5057,.8536l-.4827,2.7463h-1.3082l.9093-5.1401h1.3085l-.1577,.9093c.2227-.3096,.4825-.5508,.7794-.7237Z" style="fill:#fff;"/><path d="M54.577,6.6829c-.0063,.0371-.0093,.0869-.0093,.1484,0,.124,.0354,.2119,.1067,.2647,.0711,.0523,.1902,.0786,.3572,.0786h.6124l-.1948,1.0948h-.8258c-.9281,0-1.392-.3863-1.392-1.1598,0-.1484,.0125-.2935,.0371-.4361l.4361-2.4773h-.6124l.1856-1.067h.6216l.2227-1.2716h1.3085l-.2227,1.2716h1.1412l-.1856,1.067h-1.1505l-.4361,2.4865Z" style="fill:#fff;"/><path d="M58.5944,3.1294l-.9095,5.1401h-1.3082l.9093-5.1401h1.3085Zm-1.0301-.7891c-.1238-.1172-.1856-.2656-.1856-.4453,0-.2471,.0942-.459,.283-.6353s.4097-.2647,.6636-.2647c.1978,0,.3587,.0591,.4825,.1763,.1235,.1177,.1856,.2661,.1856,.4453,0,.2476-.0928,.4595-.2783,.6358s-.4053,.2642-.6587,.2642c-.2044,0-.3682-.0586-.492-.1763Z" style="fill:#fff;"/><polygon points="61.8698 5.6994 63.6883 8.2695 62.009 8.2695 60.6544 6.0891 60.2644 8.2695 58.9562 8.2695 60.1717 1.4032 61.4801 1.4032 60.7935 5.3005 62.8904 3.1294 64.5885 3.1294 61.8698 5.6994" style="fill:#fff;"/><polygon points="66.899 1.4032 65.6833 8.2695 64.3751 8.2695 65.5906 1.4032 66.899 1.4032" style="fill:#fff;"/><path d="M69.1722,3.1294l-.9095,5.1401h-1.3082l.9093-5.1401h1.3085Zm-1.0301-.7891c-.1238-.1172-.1856-.2656-.1856-.4453,0-.2471,.0942-.459,.283-.6353s.4097-.2647,.6636-.2647c.1978,0,.3587,.0591,.4825,.1763,.1235,.1177,.1856,.2661,.1856,.4453,0,.2476-.0928,.4595-.2783,.6358s-.4053,.2642-.6587,.2642c-.2044,0-.3682-.0586-.492-.1763Z" style="fill:#fff;"/><polygon points="74.8413 5.718 76.7526 8.2695 75.3238 8.2695 73.8205 6.0706 73.4308 8.2695 72.3731 8.2695 73.5885 1.4032 74.6465 1.4032 73.9413 5.384 76.1866 3.1572 77.6528 3.1572 74.8413 5.718" style="fill:#242424;"/><path d="M83.0436,3.1572l-.9002,5.1122h-1.0577l.1021-.6031c-.2041,.2105-.45,.376-.7376,.4966s-.5831,.1807-.8861,.1807c-.5384,0-.9683-.145-1.2899-.4361-.3216-.2906-.4825-.7017-.4825-1.234,0-.1421,.0154-.312,.0464-.5103l.5289-3.0061h1.0487l-.5013,2.8484c-.0247,.1734-.0371,.2969-.0371,.3711,0,.3404,.0942,.6001,.2832,.7794,.1885,.1797,.45,.2691,.784,.2691,.3897,0,.7205-.1157,.9928-.3477s.4515-.5674,.5381-1.0069l.5103-2.9133h1.0579Z" style="fill:#242424;"/><path d="M89.0654,3.1572l-.9002,5.1122h-1.0577l.1021-.6031c-.2041,.2105-.45,.376-.7376,.4966s-.5831,.1807-.8861,.1807c-.5384,0-.9683-.145-1.2899-.4361-.3216-.2906-.4825-.7017-.4825-1.234,0-.1421,.0154-.312,.0464-.5103l.5289-3.0061h1.0487l-.5013,2.8484c-.0247,.1734-.0371,.2969-.0371,.3711,0,.3404,.0942,.6001,.2832,.7794,.1885,.1797,.45,.2691,.784,.2691,.3897,0,.7205-.1157,.9928-.3477s.4515-.5674,.5381-1.0069l.5103-2.9133h1.0579Z" style="fill:#242424;"/><path d="M90.4757,8.1723c-.2908-.1206-.5196-.291-.6866-.5103-.167-.2197-.2505-.4717-.2505-.7564,0-.0493,.0061-.1172,.0186-.2041h1.0299c-.0247,.2354,.0464,.4302,.2134,.5845,.167,.1548,.4021,.232,.7054,.232,.2969,0,.5411-.0523,.733-.1577,.1917-.105,.2876-.2598,.2876-.4639,0-.1729-.0789-.312-.2366-.4175-.1577-.105-.4099-.2227-.7562-.3526-.3282-.1299-.594-.2505-.7982-.3618s-.3804-.2647-.5289-.4595-.2227-.4375-.2227-.7281c0-.2969,.085-.5582,.2551-.7842,.1702-.2256,.4082-.4019,.7144-.5289,.3064-.1265,.6573-.1904,1.0533-.1904,.3587,0,.6788,.0606,.9603,.1812s.501,.291,.6587,.5103c.1577,.2197,.2366,.4717,.2366,.7564,0,.0864-.0032,.1514-.0093,.1948h-1.002c.0247-.2412-.0449-.4361-.2088-.5845-.1641-.1484-.3975-.2227-.7005-.2227-.2661,0-.481,.0557-.6448,.167-.1641,.1113-.2461,.2627-.2461,.4546s.0837,.3448,.2508,.459c.167,.1148,.4236,.2398,.7701,.376,.3155,.1235,.5721,.2412,.7701,.3526s.3679,.2598,.5103,.4453,.2134,.4175,.2134,.6959c0,.3032-.0913,.5674-.2737,.7935-.1824,.2256-.4346,.399-.7562,.5196-.3218,.1206-.6866,.1807-1.0948,.1807-.3526,0-.6744-.0601-.9652-.1807Z" style="fill:#242424;"/><path d="M94.5211,8.1767c-.1052-.105-.1577-.2378-.1577-.399,0-.2163,.082-.4034,.2459-.5611s.3511-.2368,.5613-.2368c.167,0,.3015,.0527,.4036,.1577,.1021,.1055,.1531,.2383,.1531,.399,0,.2168-.0803,.4038-.2412,.5616s-.3465,.2363-.5567,.2363c-.167,0-.303-.0527-.4082-.1577Z" style="fill:#242424;"/></g></g></g></svg>