<?xml version="1.0" encoding="UTF-8"?><svg id="b" xmlns="http://www.w3.org/2000/svg" viewBox="0 0 121.4861 10.803"><g id="c"><g><polygon points="120.3263 9.3484 67.5081 9.3484 68.6679 0 121.4861 0 120.3263 9.3484" style="fill:#e2050d;"/><g><path d="M4.6579,1.821l-.8165,4.6486c-.1052,.5755-.3633,1.0301-.7747,1.3641s-.8985,.501-1.4613,.501c-.4952,0-.8863-.1282-1.1739-.385-.2876-.2566-.4314-.6109-.4314-1.0623,0-.1484,.0125-.2876,.0371-.4178H1.1041c-.0125,.0557-.0186,.1362-.0186,.2415,0,.2102,.0571,.3772,.1716,.501s.2862,.1856,.5152,.1856c.272,0,.4932-.085,.6634-.2551,.1699-.1702,.283-.3943,.3387-.6729L3.5909,1.821h1.067Z" style="fill:#242424;"/><path d="M5.8965,4.3264c.2815-.3958,.6263-.7037,1.0348-.9232,.4082-.2195,.835-.3296,1.2804-.3296,.4021,0,.7391,.0791,1.0113,.2368s.4764,.354,.6124,.5892l.1299-.7422h1.0672l-.9002,5.1125h-1.067l.1392-.7608c-.2227,.2412-.5025,.4422-.8397,.6031-.3372,.1607-.7037,.2412-1.0995,.2412-.3838,0-.7254-.0864-1.0255-.2598-.3001-.1731-.535-.419-.7051-.7376s-.2551-.6851-.2551-1.0997c0-.1856,.0197-.3738,.0557-.566,.0959-.5127,.2798-.9679,.5613-1.3639Zm3.6605,1.002c0-.4143-.1221-.7408-.3665-.9788s-.5489-.3572-.9139-.3572c-.2722,0-.5381,.0664-.7979,.1995s-.4856,.3279-.6773,.5845c-.1919,.2569-.313,.5624-.3806,.9139-.0227,.1181-.0371,.2444-.0371,.3804,0,.4209,.1221,.7532,.3667,.9976,.2442,.2444,.5489,.3665,.9139,.3665,.272,0,.5381-.0681,.7979-.2041s.4856-.3355,.6773-.5984,.3127-.5719,.3804-.9234c.0227-.1178,.0371-.2442,.0371-.3804Z" style="fill:#242424;"/><path d="M15.5186,3.3104c.2815,.1577,.4839,.354,.6077,.5892l.1299-.7422h1.0672l-.9095,5.196c-.0867,.47-.2598,.8892-.5196,1.2572s-.597,.6573-1.0113,.8677c-.4146,.2102-.8814,.3155-1.401,.3155-.4517,0-.8477-.0728-1.1878-.218-.3401-.1455-.597-.3543-.7701-.6265-.1734-.2722-.2473-.5938-.2227-.9649h1.0484c.031,.2659,.1638,.481,.399,.6448s.5352,.2459,.9002,.2459c.4268,0,.7947-.1299,1.1041-.3897s.5071-.637,.5938-1.1319l.1484-.8536c-.2227,.2412-.501,.4439-.835,.6077s-.6959,.2459-1.0855,.2459-.7364-.0864-1.0394-.2598c-.303-.1731-.5396-.419-.7098-.7376s-.2551-.6851-.2551-1.0997c0-.1856,.0197-.3738,.0557-.566,.0959-.5127,.2798-.9679,.5613-1.3639,.2815-.3958,.6263-.7037,1.0348-.9232,.4082-.2195,.835-.3296,1.2804-.3296,.3958,0,.7344,.0791,1.016,.2368Zm.3294,2.018c0-.4143-.1221-.7408-.3665-.9788s-.5489-.3572-.9139-.3572c-.2722,0-.5381,.0664-.7979,.1995s-.4856,.3279-.6773,.5845c-.1919,.2569-.313,.5624-.3806,.9139-.0227,.1181-.0371,.2444-.0371,.3804,0,.4209,.1221,.7532,.3667,.9976,.2442,.2444,.5489,.3665,.9139,.3665,.272,0,.5381-.0681,.7979-.2041s.4856-.3355,.6773-.5984,.3127-.5719,.3804-.9234c.0227-.1178,.0371-.2442,.0371-.3804Z" style="fill:#242424;"/><path d="M18.4783,4.3264c.2815-.3958,.6263-.7037,1.0348-.9232,.4082-.2195,.835-.3296,1.2804-.3296,.4021,0,.7391,.0791,1.0113,.2368s.4764,.354,.6124,.5892l.1299-.7422h1.0672l-.9002,5.1125h-1.067l.1392-.7608c-.2227,.2412-.5025,.4422-.8397,.6031-.3372,.1607-.7037,.2412-1.0995,.2412-.3838,0-.7254-.0864-1.0255-.2598-.3001-.1731-.535-.419-.7051-.7376s-.2551-.6851-.2551-1.0997c0-.1856,.0197-.3738,.0557-.566,.0959-.5127,.2798-.9679,.5613-1.3639Zm3.6605,1.002c0-.4143-.1221-.7408-.3665-.9788s-.5489-.3572-.9139-.3572c-.2722,0-.5381,.0664-.7979,.1995s-.4856,.3279-.6773,.5845c-.1919,.2569-.313,.5624-.3806,.9139-.0227,.1181-.0371,.2444-.0371,.3804,0,.4209,.1221,.7532,.3667,.9976,.2442,.2444,.5489,.3665,.9139,.3665,.272,0,.5381-.0681,.7979-.2041s.4856-.3355,.6773-.5984,.3127-.5719,.3804-.9234c.0227-.1178,.0371-.2442,.0371-.3804Z" style="fill:#242424;"/><path d="M32.5031,3.5099c.3218,.2908,.4827,.702,.4827,1.234,0,.1423-.0156,.3125-.0464,.5103l-.5384,3.0156h-1.0484l.5103-2.8579c.0247-.1731,.0371-.2969,.0371-.3711,0-.3401-.0942-.5999-.283-.7794s-.45-.2691-.784-.2691c-.4021,0-.7408,.1221-1.016,.3665-.2754,.2444-.45,.5955-.5242,1.0531l-.5105,2.8579h-1.0484l.5103-2.8579c.0247-.1731,.0371-.2969,.0371-.3711,0-.3401-.0942-.5999-.283-.7794s-.45-.2691-.784-.2691c-.4021,0-.7408,.1221-1.016,.3665-.2754,.2444-.45,.5955-.5242,1.0531v-.0278l-.5105,2.8857h-1.0577l.9-5.1125h1.0579l-.1021,.5938c.2041-.2102,.45-.3758,.7376-.4964s.586-.1812,.8953-.1812c.4082,0,.7593,.0869,1.0531,.26s.4996,.4236,.6172,.7515c.2041-.3094,.4854-.5552,.8443-.7376,.3587-.1824,.7266-.2739,1.1041-.2739,.5381,0,.9681,.1455,1.2897,.4363Z" style="fill:#242424;"/><path d="M35.7043,3.1573l-.9002,5.1125h-1.0577l.9-5.1125h1.0579Zm-.8074-.8353c-.1052-.105-.1577-.2381-.1577-.399,0-.2163,.082-.4036,.2459-.5613s.3511-.2366,.5616-.2366c.167,0,.3015,.0525,.4036,.1577s.1531,.2383,.1531,.399c0,.2166-.0806,.4036-.2412,.5613-.1609,.1577-.3465,.2366-.5567,.2366-.1672,0-.3032-.0525-.4085-.1577Z" style="fill:#242424;"/><path d="M37.1146,8.1724c-.2908-.1206-.5196-.2908-.6866-.5103s-.2505-.4717-.2505-.7562c0-.0496,.0061-.1174,.0186-.2041h1.0299c-.0247,.2351,.0464,.43,.2134,.5845s.4021,.232,.7054,.232c.2969,0,.5411-.0525,.733-.1577,.1917-.1052,.2876-.2598,.2876-.4639,0-.1731-.0789-.3123-.2366-.4178-.1577-.105-.4099-.2227-.7562-.3526-.3282-.1299-.594-.2505-.7982-.3618s-.3804-.2644-.5289-.4593-.2227-.4375-.2227-.7283c0-.2969,.085-.5582,.2551-.784s.4082-.4021,.7144-.5289c.3064-.1267,.6573-.1904,1.0533-.1904,.3587,0,.6788,.0606,.9603,.1812s.501,.2908,.6587,.5103,.2366,.4717,.2366,.7562c0,.0867-.0032,.1516-.0093,.1948h-1.002c.0247-.2412-.0449-.4361-.2088-.5845-.1641-.1484-.3975-.2227-.7005-.2227-.2661,0-.481,.0557-.6448,.167-.1641,.1113-.2461,.263-.2461,.4546,0,.1919,.0837,.345,.2508,.4593,.167,.1145,.4236,.2398,.7701,.3758,.3155,.1238,.5721,.2412,.7701,.3526s.3679,.2598,.5103,.4453,.2134,.4178,.2134,.6961c0,.303-.0913,.5674-.2737,.7933s-.4346,.399-.7562,.5196c-.3218,.1206-.6866,.1809-1.0948,.1809-.3526,0-.6744-.0603-.9652-.1809Z" style="fill:#242424;"/><path d="M42.2456,8.0843c-.3279-.1795-.5831-.4329-.7654-.7608s-.2737-.702-.2737-1.1229c0-.5752,.1345-1.1009,.4036-1.5773s.6402-.8536,1.1136-1.1319c.4732-.2783,1.0003-.4178,1.5819-.4178,.4329,0,.8165,.0916,1.1505,.2739s.5953,.4361,.7842,.7608c.1885,.3247,.283,.7005,.283,1.1273,0,.5752-.1392,1.1012-.4178,1.5775-.2783,.4764-.6556,.8521-1.1319,1.1273-.4764,.2754-1.0052,.4129-1.5866,.4129-.4331,0-.8135-.0896-1.1415-.2691Zm2.2409-.9232c.2937-.2009,.5242-.4671,.6912-.7982,.167-.3308,.2505-.6849,.2505-1.0623,0-.4268-.1206-.7562-.3618-.9881s-.5442-.3479-.9093-.3479c-.3589,0-.679,.1006-.9603,.3015-.2815,.2009-.501,.4703-.659,.8072-.1577,.3372-.2366,.6976-.2366,1.0809,0,.4146,.1128,.7364,.3387,.9652s.5181,.3433,.877,.3433c.3526,0,.6756-.1006,.9696-.3015Zm-1.1041-5.4282c.2195-.1824,.4685-.2737,.7469-.2737,.1174,0,.2134,.0171,.2876,.051,.0742,.0342,.1731,.0913,.2969,.1716,.0803,.062,.1499,.1084,.2088,.1392,.0588,.031,.1284,.0464,.2088,.0464,.1052,0,.2009-.0325,.2876-.0974s.1484-.1624,.1856-.2923h.594c-.1116,.3589-.2771,.6294-.4966,.8118-.2195,.1826-.4685,.2737-.7469,.2737-.1174,0-.2166-.0186-.2969-.0557s-.1763-.0957-.2876-.1763c-.0928-.0679-.167-.116-.2227-.1438s-.1206-.0418-.1948-.0418c-.1052,0-.198,.0342-.2783,.1021-.0806,.0681-.1423,.167-.1856,.2969h-.5938c.105-.3587,.2674-.6292,.4871-.8118Z" style="fill:#242424;"/><path d="M49.0284,3.1573l-.9002,5.1125h-1.0577l.9-5.1125h1.0579Zm-.8074-.8353c-.1052-.105-.1577-.2381-.1577-.399,0-.2163,.082-.4036,.2459-.5613s.3511-.2366,.5616-.2366c.167,0,.3015,.0525,.4036,.1577s.1531,.2383,.1531,.399c0,.2166-.0806,.4036-.2412,.5613-.1609,.1577-.3465,.2366-.5567,.2366-.1672,0-.3032-.0525-.4085-.1577Z" style="fill:#242424;"/><path d="M53.5144,3.3104c.2815,.1577,.4839,.354,.6077,.5892l.1299-.7422h1.0672l-.9095,5.196c-.0867,.47-.2598,.8892-.5196,1.2572s-.597,.6573-1.0113,.8677c-.4146,.2102-.8814,.3155-1.401,.3155-.4517,0-.8477-.0728-1.1878-.218-.3401-.1455-.597-.3543-.7701-.6265-.1734-.2722-.2473-.5938-.2227-.9649h1.0484c.031,.2659,.1638,.481,.399,.6448s.5352,.2459,.9002,.2459c.4268,0,.7947-.1299,1.1041-.3897s.5071-.637,.5938-1.1319l.1484-.8536c-.2227,.2412-.501,.4439-.835,.6077s-.6959,.2459-1.0855,.2459-.7364-.0864-1.0394-.2598c-.303-.1731-.5396-.419-.7098-.7376s-.2551-.6851-.2551-1.0997c0-.1856,.0197-.3738,.0557-.566,.0959-.5127,.2798-.9679,.5613-1.3639,.2815-.3958,.6263-.7037,1.0348-.9232,.4082-.2195,.835-.3296,1.2804-.3296,.3958,0,.7344,.0791,1.016,.2368Zm.3294,2.018c0-.4143-.1221-.7408-.3665-.9788s-.5489-.3572-.9139-.3572c-.2722,0-.5381,.0664-.7979,.1995s-.4856,.3279-.6773,.5845c-.1919,.2569-.313,.5624-.3806,.9139-.0227,.1181-.0371,.2444-.0371,.3804,0,.4209,.1221,.7532,.3667,.9976,.2442,.2444,.5489,.3665,.9139,.3665,.272,0,.5381-.0681,.7979-.2041s.4856-.3355,.6773-.5984,.3127-.5719,.3804-.9234c.0227-.1178,.0371-.2442,.0371-.3804Z" style="fill:#242424;"/><path d="M61.3412,3.1573l-.9002,5.1125h-1.0577l.1021-.6031c-.2041,.2102-.45,.3758-.7376,.4964s-.5831,.1809-.8861,.1809c-.5384,0-.9683-.1453-1.2899-.4361s-.4825-.702-.4825-1.234c0-.1423,.0154-.3123,.0464-.5105l.5289-3.0061h1.0487l-.5013,2.8484c-.0247,.1734-.0371,.2969-.0371,.3711,0,.3404,.0942,.6001,.2832,.7796,.1885,.1795,.45,.2691,.784,.2691,.3897,0,.7205-.116,.9928-.3479s.4515-.5674,.5381-1.0069l.5103-2.9133h1.0579Z" style="fill:#242424;"/><path d="M62.7512,8.1724c-.2908-.1206-.5196-.2908-.6866-.5103s-.2505-.4717-.2505-.7562c0-.0496,.0061-.1174,.0186-.2041h1.0299c-.0247,.2351,.0464,.43,.2134,.5845s.4021,.232,.7054,.232c.2969,0,.5411-.0525,.733-.1577,.1917-.1052,.2876-.2598,.2876-.4639,0-.1731-.0789-.3123-.2366-.4178-.1577-.105-.4099-.2227-.7562-.3526-.3282-.1299-.594-.2505-.7982-.3618s-.3804-.2644-.5289-.4593-.2227-.4375-.2227-.7283c0-.2969,.085-.5582,.2551-.784s.4082-.4021,.7144-.5289c.3064-.1267,.6573-.1904,1.0533-.1904,.3587,0,.6788,.0606,.9603,.1812s.501,.2908,.6587,.5103,.2366,.4717,.2366,.7562c0,.0867-.0032,.1516-.0093,.1948h-1.002c.0247-.2412-.0449-.4361-.2088-.5845-.1641-.1484-.3975-.2227-.7005-.2227-.2661,0-.481,.0557-.6448,.167-.1641,.1113-.2461,.263-.2461,.4546,0,.1919,.0837,.345,.2508,.4593,.167,.1145,.4236,.2398,.7701,.3758,.3155,.1238,.5721,.2412,.7701,.3526s.3679,.2598,.5103,.4453,.2134,.4178,.2134,.6961c0,.303-.0913,.5674-.2737,.7933s-.4346,.399-.7562,.5196c-.3218,.1206-.6866,.1809-1.0948,.1809-.3526,0-.6744-.0603-.9652-.1809Z" style="fill:#242424;"/><path d="M69.5526,6.9523l.1763-1.0208,3.8043-4.3424h1.5033l-.7332,4.2311h.8074l-.1948,1.1322h-.8167l-.2412,1.3175h-1.2897l.232-1.3175h-3.2476Zm4.0269-3.9715l-2.3938,2.8393h1.8927l.501-2.8393Z" style="fill:#fff;"/><path d="M79.1234,8.1631c-.3062-.1267-.5474-.303-.7237-.5289s-.2644-.4839-.2644-.7747c0-.0432,.0061-.1145,.0186-.2134h1.2618c-.0186,.2166,.0464,.3911,.1948,.5242,.1487,.1331,.3589,.1995,.6312,.1995,.2473,0,.4529-.0449,.617-.1345,.1638-.0896,.2459-.2212,.2459-.3943,0-.1546-.0759-.2783-.2273-.3714-.1516-.0928-.3914-.1978-.7191-.3155-.3282-.1174-.6001-.232-.8167-.3433s-.4021-.2659-.5567-.4639c-.1546-.1978-.232-.4483-.232-.7515,0-.303,.0881-.5721,.2644-.8072s.4222-.4175,.7376-.5474c.3157-.1299,.6775-.1951,1.0858-.1951,.3897,0,.733,.0652,1.0299,.1951s.5274,.3108,.6912,.5428,.2459,.4964,.2459,.7933c0,.0742-.0032,.1299-.0093,.167h-1.2062c.0186-.2166-.0435-.3897-.1856-.5196-.1423-.1299-.3496-.1948-.6216-.1948-.2227,0-.4053,.0479-.5474,.1438-.1426,.096-.2134,.2241-.2134,.385s.0801,.2923,.2412,.3943c.1607,.1021,.4082,.2151,.7422,.3387,.334,.1299,.6014,.249,.8026,.3572,.2009,.1084,.3758,.2569,.5242,.4453,.1484,.1887,.2227,.4256,.2227,.71,0,.3155-.096,.5906-.2876,.8258s-.4546,.4143-.7886,.5381c-.334,.1235-.7115,.1856-1.1319,.1856-.3775,0-.7193-.0635-1.0255-.1902Z" style="fill:#fff;"/><path d="M84.3287,8.0843c-.3372-.1795-.5984-.4329-.784-.7608s-.2783-.7051-.2783-1.1322c0-.5813,.1377-1.1117,.4129-1.5912,.2752-.4793,.6526-.8582,1.1322-1.1366,.4793-.2783,1.0128-.4178,1.6005-.4178,.4392,0,.8304,.0916,1.1737,.2739s.6092,.4375,.7982,.7654c.1885,.3279,.283,.7051,.283,1.1319,0,.5877-.1392,1.1197-.4175,1.5961-.2786,.4764-.6605,.8521-1.1461,1.1273-.4856,.2754-1.0223,.4129-1.6098,.4129-.4392,0-.8275-.0896-1.1646-.2691Zm2.1852-1.1134c.2537-.1795,.4515-.4175,.5938-.7147,.1423-.2969,.2134-.6092,.2134-.9371,0-.3711-.1035-.6573-.3108-.8582s-.4685-.3015-.784-.3015-.5955,.0896-.8397,.2691c-.2444,.1795-.4348,.4192-.5706,.7191-.1362,.3001-.2044,.617-.2044,.951,0,.3653,.0974,.6465,.2925,.8446,.1948,.198,.45,.2969,.7654,.2969,.3091,0,.5906-.0896,.8443-.2691Zm-1.1273-5.3493c.2381-.2009,.5118-.3015,.8211-.3015,.1235,0,.232,.0203,.3247,.0603,.0928,.0403,.1917,.0974,.2969,.1716,.0867,.062,.1624,.1067,.2273,.1345s.1345,.0418,.2088,.0418c.2351,0,.3958-.1328,.4825-.399h.6961c-.1362,.4082-.3218,.7129-.5569,.9139-.2351,.2012-.5071,.3015-.8165,.3015-.1299,0-.2381-.02-.3247-.0603-.0867-.04-.1887-.0974-.3062-.1716-.0867-.0618-.1624-.1082-.2273-.1392-.0649-.0308-.1345-.0464-.2088-.0464-.2227,0-.3804,.1362-.4732,.4082h-.6959c.1299-.4082,.3137-.7127,.552-.9139Z" style="fill:#fff;"/><path d="M91.9882,3.278c.3216-.1546,.6712-.2322,1.0484-.2322,.3836,0,.7222,.0823,1.016,.2461,.294,.1638,.5213,.4004,.6822,.7098,.1607,.3094,.2412,.6712,.2412,1.0855,0,.1919-.0191,.3896-.0557,.5938-.0942,.5257-.2783,.9915-.5567,1.3966-.2786,.4051-.6158,.7191-1.0116,.9417s-.8104,.334-1.2433,.334c-.3836,0-.7083-.0759-.9742-.2273-.2661-.1516-.461-.3479-.5848-.5892l-.1299,.733h-1.3082l1.2154-6.8663h1.3085l-.4361,2.4775c.2041-.2473,.4668-.4485,.7886-.6031Zm1.6329,2.069c0-.3648-.1052-.6495-.3155-.8536s-.4793-.3062-.8072-.3062c-.2351,0-.4671,.0603-.6959,.1809-.229,.1206-.4268,.2954-.5938,.5242-.167,.229-.2783,.4981-.334,.8072-.0249,.1609-.0371,.2783-.0371,.3526,0,.3653,.1067,.6497,.3201,.8538s.4808,.3062,.8026,.3062c.2412,0,.4761-.0618,.7051-.1856,.2288-.1238,.4268-.3001,.5938-.5291,.167-.2288,.2824-.5003,.334-.8165,.0201-.1233,.0278-.2349,.0278-.334Z" style="fill:#fff;"/><path d="M98.2422,3.3151c.2969-.1731,.6185-.26,.9649-.26l-.2412,1.3641h-.3433c-.3836,0-.6912,.0835-.9232,.2505s-.4007,.4517-.5057,.8536l-.4827,2.7466h-1.3082l.9093-5.1403h1.3085l-.1577,.9093c.2227-.3094,.4825-.5506,.7794-.7237Z" style="fill:#fff;"/><path d="M99.8334,4.2985c.2752-.4021,.6109-.7112,1.0069-.9278,.3958-.2166,.8133-.325,1.2525-.325,.3833,0,.7066,.0776,.9696,.2322s.4561,.3494,.5799,.5845l.1299-.733h1.3085l-.9093,5.1403h-1.3085l.1392-.7515c-.2041,.2412-.4685,.4407-.7933,.5984s-.679,.2366-1.0623,.2366c-.3775,0-.7115-.085-1.0023-.2551s-.5164-.4114-.6773-.7237-.2412-.6758-.2412-1.0904c0-.1917,.0183-.3927,.0557-.6031,.0922-.5197,.2769-.9803,.552-1.3824Zm3.5213,1.0484c0-.3648-.1067-.6495-.3201-.8536s-.481-.3062-.8026-.3062c-.2412,0-.4749,.0588-.7005,.1763-.2258,.1174-.4222,.2891-.5892,.5149s-.282,.4929-.3343,.8026c-.0198,.1175-.0278,.229-.0278,.334,0,.3711,.1052,.6636,.3157,.877,.2102,.2134,.4761,.3201,.7979,.3201,.2412,0,.4761-.0603,.7051-.1809,.2288-.1206,.4253-.2954,.5892-.5245,.1638-.2288,.2737-.4978,.3294-.8072,.0247-.1607,.0371-.2783,.0371-.3526Z" style="fill:#fff;"/><path d="M109.3625,3.2733c.2691,.1516,.4593,.3479,.5706,.5892l.1299-.733h1.3085l-.9093,5.1774c-.0869,.4764-.26,.9014-.5198,1.2757s-.5999,.6712-1.0206,.8909c-.4207,.2195-.9031,.3294-1.4474,.3294-.7239,0-1.2884-.1702-1.6935-.5103-.4053-.3404-.5892-.8043-.552-1.392h1.2897c.0247,.2351,.1377,.4222,.3387,.5613s.4624,.2088,.7842,.2088c.3833,0,.7098-.1128,.9788-.3387s.4468-.5674,.5335-1.0252l.1392-.7979c-.2102,.2412-.4749,.4422-.7933,.6031-.3186,.1607-.6666,.2412-1.0438,.2412-.3775,0-.7132-.085-1.0069-.2551s-.5227-.4114-.6866-.7237-.2459-.6758-.2459-1.0904c0-.1917,.0183-.3927,.0557-.6031,.0922-.5197,.2769-.9803,.552-1.3824s.6109-.7112,1.0069-.9278c.3958-.2166,.8133-.325,1.2525-.325,.3833,0,.7098,.0759,.9788,.2276Zm.283,2.0737c0-.3648-.1067-.6495-.3201-.8536s-.481-.3062-.8026-.3062c-.2412,0-.4749,.0588-.7005,.1763-.2258,.1174-.4222,.2891-.5892,.5149s-.282,.4929-.3343,.8026c-.0198,.1175-.0278,.229-.0278,.334,0,.3711,.1052,.6636,.3157,.877,.2102,.2134,.4761,.3201,.7979,.3201,.2412,0,.4761-.0603,.7051-.1809,.2288-.1206,.4253-.2954,.5892-.5245,.1638-.2288,.2737-.4978,.3294-.8072,.0247-.1607,.0371-.2783,.0371-.3526Z" style="fill:#fff;"/><path d="M112.4152,4.2985c.2752-.4021,.6109-.7112,1.0069-.9278,.3958-.2166,.8133-.325,1.2525-.325,.3833,0,.7066,.0776,.9696,.2322s.4561,.3494,.5799,.5845l.1299-.733h1.3085l-.9093,5.1403h-1.3085l.1392-.7515c-.2041,.2412-.4685,.4407-.7933,.5984s-.679,.2366-1.0623,.2366c-.3775,0-.7115-.085-1.0023-.2551s-.5164-.4114-.6773-.7237-.2412-.6758-.2412-1.0904c0-.1917,.0183-.3927,.0557-.6031,.0922-.5197,.2769-.9803,.552-1.3824Zm3.5213,1.0484c0-.3648-.1067-.6495-.3201-.8536s-.481-.3062-.8026-.3062c-.2412,0-.4749,.0588-.7005,.1763-.2258,.1174-.4222,.2891-.5892,.5149s-.282,.4929-.3343,.8026c-.0198,.1175-.0278,.229-.0278,.334,0,.3711,.1052,.6636,.3157,.877,.2102,.2134,.4761,.3201,.7979,.3201,.2412,0,.4761-.0603,.7051-.1809,.2288-.1206,.4253-.2954,.5892-.5245,.1638-.2288,.2737-.4978,.3294-.8072,.0247-.1607,.0371-.2783,.0371-.3526Z" style="fill:#fff;"/><path d="M118.0983,8.1585c-.1238-.1174-.1856-.2659-.1856-.4453,0-.2473,.0942-.4593,.283-.6355s.4097-.2644,.6634-.2644c.2041,0,.3665,.0571,.4871,.1716s.1809,.2644,.1809,.45c0,.2473-.0928,.4593-.2783,.6355s-.4051,.2644-.6587,.2644c-.2041,0-.3679-.0588-.4917-.1763Z" style="fill:#fff;"/></g></g></g></svg>