<?xml version="1.0" encoding="UTF-8"?><svg id="Layer_2" xmlns="http://www.w3.org/2000/svg" viewBox="0 0 350 100"><defs><style>.cls-1{fill:#fff;}.cls-2{fill:#183188;}</style></defs><g id="main"><g><rect class="cls-1" width="350" height="100"/><g><polygon class="cls-2" points="57.61 30.91 81.32 30.91 81.32 37.59 65.83 37.59 65.83 46.72 78.75 46.72 78.75 53.39 65.83 53.39 65.83 69.03 57.61 69.03 57.61 30.91"/><path class="cls-2" d="M86.44,45.49c0-5.71,.85-8.81,3.2-11.27,2.56-2.78,5.82-3.9,11.21-3.9,5.77,0,9.34,1.33,11.85,4.54,1.87,2.4,2.62,5.34,2.62,10.62v8.97c0,5.71-.85,8.81-3.2,11.27-2.56,2.78-5.82,3.9-11.27,3.9-5.71,0-9.29-1.33-11.8-4.54-1.87-2.35-2.62-5.39-2.62-10.62v-8.97Zm20.66,.69c0-6.94-1.55-9.24-6.19-9.24s-6.25,2.3-6.25,9.24v7.58c0,6.94,1.55,9.24,6.19,9.24s6.25-2.3,6.25-9.24v-7.58Z"/><path class="cls-2" d="M131.24,69.03h-8.22V30.91h14.47c5.13,0,7.85,.75,9.88,2.78,1.92,1.92,2.78,4.48,2.78,8.44,0,6.57-1.98,9.72-6.89,11.1l8.22,15.8h-9.08l-7.15-15.16h-4v15.16Zm5.55-21.46c3.79,0,5.23-1.39,5.23-5.07s-1.44-5.07-5.34-5.07h-5.61v10.14h5.71Z"/><path class="cls-2" d="M160.66,59c1.71,2.78,4.22,4,8.33,4s5.98-1.55,5.98-4.54c0-1.5-.59-2.72-1.6-3.36q-1.07-.69-6.35-2.03c-7.9-1.98-10.89-5.13-10.89-11.48,0-7.26,4.65-11.26,12.97-11.26,6.14,0,10.25,2.03,12.71,6.19l-6.09,3.9c-1.71-2.46-3.79-3.52-6.83-3.52s-4.91,1.55-4.91,4.22c0,2.94,1.6,4.16,7.1,5.55,4.86,1.23,6.09,1.65,8.01,2.88,2.51,1.71,3.74,4.43,3.74,8.54,0,3.9-1.01,6.62-3.15,8.49-2.35,2.03-6.03,3.1-10.73,3.1-4.22,0-8.08-.93-10.68-2.56-1.67-1.05-2.67-2.19-3.84-4.16l6.25-3.95Z"/><path class="cls-2" d="M193.13,59c1.71,2.78,4.22,4,8.33,4s5.98-1.55,5.98-4.54c0-1.5-.59-2.72-1.6-3.36q-1.07-.69-6.35-2.03c-7.9-1.98-10.89-5.13-10.89-11.48,0-7.26,4.65-11.26,12.97-11.26,6.14,0,10.25,2.03,12.71,6.19l-6.09,3.9c-1.71-2.46-3.79-3.52-6.83-3.52s-4.91,1.55-4.91,4.22c0,2.94,1.6,4.16,7.1,5.55,4.86,1.23,6.09,1.65,8.01,2.88,2.51,1.71,3.74,4.43,3.74,8.54,0,3.9-1.01,6.62-3.15,8.49-2.35,2.03-6.03,3.1-10.73,3.1-4.22,0-8.08-.93-10.68-2.56-1.67-1.05-2.67-2.19-3.84-4.16l6.25-3.95Z"/><rect class="cls-2" x="220.73" y="61.56" width="8.22" height="7.47"/><polygon class="cls-2" points="237.02 30.91 261.1 30.91 261.1 37.59 245.14 37.59 245.14 46.45 258.64 46.45 258.64 53.12 245.14 53.12 245.14 62.36 261.31 62.36 261.31 69.03 237.02 69.03 237.02 30.91"/><polygon class="cls-2" points="268.1 30.91 292.17 30.91 292.17 37.59 276.21 37.59 276.21 46.45 289.72 46.45 289.72 53.12 276.21 53.12 276.21 62.36 292.39 62.36 292.39 69.03 268.1 69.03 268.1 30.91"/></g></g></g></svg>