<?xml version="1.0" encoding="UTF-8"?><svg id="Layer_2" xmlns="http://www.w3.org/2000/svg" viewBox="0 0 719.13 122.12"><defs><style>.cls-1{fill:#fff;}</style></defs><g id="main"><g><polygon class="cls-1" points="6.05 11.52 14.15 11.52 14.15 42.51 29.99 42.51 29.99 49.09 6.05 49.09 6.05 11.52"/><path class="cls-1" d="M34.72,25.89c0-5.63,.84-8.68,3.16-11.1,2.53-2.74,5.73-3.84,11.05-3.84,5.68,0,9.21,1.32,11.68,4.47,1.84,2.37,2.58,5.26,2.58,10.47v8.84c0,5.63-.84,8.68-3.16,11.1-2.53,2.74-5.73,3.84-11.1,3.84-5.63,0-9.15-1.31-11.63-4.47-1.84-2.31-2.58-5.31-2.58-10.47v-8.84Zm20.36,.68c0-6.84-1.53-9.1-6.1-9.1s-6.16,2.26-6.16,9.1v7.47c0,6.84,1.53,9.1,6.1,9.1s6.16-2.26,6.16-9.1v-7.47Z"/><polygon class="cls-1" points="70.71 11.52 78.81 11.52 78.81 26.83 89.86 26.83 89.86 11.52 97.97 11.52 97.97 49.09 89.86 49.09 89.86 33.41 78.81 33.41 78.81 49.09 70.71 49.09 70.71 11.52"/><rect class="cls-1" x="106.23" y="11.52" width="8.1" height="37.57"/><path class="cls-1" d="M125.27,39.2c1.68,2.74,4.16,3.95,8.21,3.95s5.89-1.53,5.89-4.47c0-1.47-.58-2.68-1.58-3.32q-1.05-.68-6.26-2c-7.79-1.95-10.73-5.05-10.73-11.31,0-7.16,4.58-11.1,12.79-11.1,6.05,0,10.1,2,12.52,6.1l-6,3.84c-1.68-2.42-3.74-3.47-6.73-3.47s-4.84,1.53-4.84,4.16c0,2.89,1.58,4.1,7,5.47,4.79,1.21,6,1.63,7.89,2.84,2.47,1.68,3.68,4.37,3.68,8.42,0,3.84-1,6.52-3.1,8.37-2.31,2-5.95,3.05-10.58,3.05-4.16,0-7.96-.92-10.52-2.53-1.64-1.03-2.63-2.16-3.79-4.1l6.16-3.89Z"/><polygon class="cls-1" points="161 18.1 151 18.1 151 11.52 179.04 11.52 179.04 18.1 169.1 18.1 169.1 49.09 161 49.09 161 18.1"/><path class="cls-1" d="M188.15,42.04l-2.21,7.05h-8.73l13.57-37.57h7.84l13.63,37.57h-8.79l-2.16-7.05h-13.15Zm6.63-21.04l-4.68,14.63h9.26l-4.58-14.63Z"/><polygon class="cls-1" points="221.5 11.52 229.61 11.52 237.71 38.35 245.81 11.52 253.91 11.52 241.23 49.09 234.13 49.09 221.5 11.52"/><path class="cls-1" d="M261.75,42.04l-2.21,7.05h-8.73l13.57-37.57h7.84l13.63,37.57h-8.79l-2.16-7.05h-13.15Zm6.63-21.04l-4.68,14.63h9.26l-4.58-14.63Z"/><path class="cls-1" d="M297.01,49.09h-8.1V11.52h14.26c5.05,0,7.73,.74,9.73,2.74,1.89,1.89,2.74,4.42,2.74,8.31,0,6.47-1.95,9.58-6.79,10.94l8.1,15.57h-8.94l-7.05-14.94h-3.95v14.94Zm5.47-21.15c3.74,0,5.16-1.37,5.16-5s-1.42-5-5.26-5h-5.52v10h5.63Z"/><path class="cls-1" d="M330.47,11.52v23.52c0,3.05,.2,4.53,.79,5.68,.88,1.74,2.26,2.42,5,2.42,2.95,0,4.3-.8,5.16-2.84,.47-1.11,.63-2.58,.63-5.26V11.52h8.1v23.52c0,5.63-.53,8.1-2.31,10.31-2.47,3.05-5.84,4.31-11.58,4.31-6.05,0-9.75-1.51-12.05-5-1.38-2.1-1.84-4.47-1.84-9.63V11.52h8.1Z"/><path class="cls-1" d="M357.57,25.89c0-5.63,.84-8.68,3.16-11.1,2.53-2.74,5.74-3.84,11.05-3.84,5.68,0,9.21,1.32,11.68,4.47,1.84,2.37,2.58,5.26,2.58,10.47v8.84c0,5.63-.84,8.68-3.16,11.1-2.53,2.74-5.73,3.84-11.1,3.84s-9.15-1.31-11.63-4.47c-1.84-2.31-2.58-5.31-2.58-10.47v-8.84Zm20.36,.68c0-6.84-1.53-9.1-6.1-9.1s-6.16,2.26-6.16,9.1v7.47c0,6.84,1.53,9.1,6.1,9.1s6.16-2.26,6.16-9.1v-7.47Z"/><path class="cls-1" d="M396.71,39.2c1.68,2.74,4.16,3.95,8.21,3.95s5.89-1.53,5.89-4.47c0-1.47-.58-2.68-1.58-3.32q-1.05-.68-6.26-2c-7.79-1.95-10.73-5.05-10.73-11.31,0-7.16,4.58-11.1,12.78-11.1,6.05,0,10.1,2,12.52,6.1l-6,3.84c-1.68-2.42-3.74-3.47-6.73-3.47s-4.84,1.53-4.84,4.16c0,2.89,1.58,4.1,7,5.47,4.79,1.21,6,1.63,7.89,2.84,2.47,1.68,3.68,4.37,3.68,8.42,0,3.84-1,6.52-3.1,8.37-2.32,2-5.95,3.05-10.58,3.05-4.16,0-7.96-.92-10.52-2.53-1.64-1.03-2.63-2.16-3.79-4.1l6.16-3.89Z"/><path class="cls-1" d="M431.75,42.04l-2.21,7.05h-8.73l13.57-37.57h7.84l13.63,37.57h-8.79l-2.16-7.05h-13.15Zm6.63-21.04l-4.68,14.63h9.26l-4.58-14.63Z"/><path class="cls-1" d="M458.85,11.52h13.1c10.15-.16,14.78,4.52,14.52,14.68v8.21c.26,10.15-4.31,14.78-14.52,14.68h-13.1V11.52Zm11.63,31.15c6.1,.05,7.79-1.79,7.89-8.89v-6.94c-.11-7.1-1.79-8.94-7.89-8.89h-3.52v24.73h3.52Z"/><path class="cls-1" d="M503.73,25.89c0-5.63,.84-8.68,3.16-11.1,2.53-2.74,5.73-3.84,11.05-3.84,5.68,0,9.21,1.32,11.68,4.47,1.84,2.37,2.58,5.26,2.58,10.47v8.84c0,5.63-.84,8.68-3.16,11.1-2.53,2.74-5.74,3.84-11.1,3.84-5.63,0-9.15-1.31-11.63-4.47-1.84-2.31-2.58-5.31-2.58-10.47v-8.84Zm4.47-17.68c.53-2.89,.79-3.74,1.37-4.89,1.11-2.21,2.79-3.32,5.16-3.32,1.58,0,2.89,.47,4.21,1.58,1.74,1.47,1.89,1.58,2.53,1.58,.95,0,1.42-.79,1.68-2.79h4.63c-.37,2.53-.61,3.74-1.05,4.84-.9,2.23-2.74,3.37-5.21,3.37-1.74,0-3.1-.53-4.47-1.79-1.37-1.21-1.63-1.37-2.26-1.37-.95,0-1.79,1.1-2,2.79h-4.58Zm15.89,18.36c0-6.84-1.53-9.1-6.1-9.1s-6.16,2.26-6.16,9.1v7.47c0,6.84,1.53,9.1,6.1,9.1s6.16-2.26,6.16-9.1v-7.47Z"/><rect class="cls-1" x="539.71" y="11.52" width="8.1" height="37.57"/><path class="cls-1" d="M570.12,28.04h13.68v6.47c0,5.52-.63,8.21-2.58,10.68-2.47,3.1-6,4.47-11.73,4.47s-9.15-1.37-11.57-4.52c-1.84-2.42-2.53-5.31-2.53-10.68v-8.16c0-5.84,.84-8.89,3.1-11.36,2.47-2.74,5.73-3.89,10.89-3.89,8.73,0,13,3.58,13.31,11.15l-7.42,.53c-.42-3.52-2.21-5.16-5.79-5.16-4.52,0-6,2.26-6,9.31v6.94c0,7.1,1.42,9.31,6.1,9.31,4.31,0,6.16-2.05,6.16-6.84v-2.1h-5.63v-6.16Z"/><polygon class="cls-1" points="590.91 11.52 614.64 11.52 614.64 18.1 598.91 18.1 598.91 26.83 612.22 26.83 612.22 33.41 598.91 33.41 598.91 42.51 614.85 42.51 614.85 49.09 590.91 49.09 590.91 11.52"/><path class="cls-1" d="M625.69,39.2c1.68,2.74,4.16,3.95,8.21,3.95s5.89-1.53,5.89-4.47c0-1.47-.58-2.68-1.58-3.32q-1.05-.68-6.26-2c-7.79-1.95-10.73-5.05-10.73-11.31,0-7.16,4.58-11.1,12.78-11.1,6.05,0,10.1,2,12.52,6.1l-6,3.84c-1.68-2.42-3.74-3.47-6.73-3.47s-4.84,1.53-4.84,4.16c0,2.89,1.58,4.1,7,5.47,4.79,1.21,6,1.63,7.89,2.84,2.47,1.68,3.68,4.37,3.68,8.42,0,3.84-1,6.52-3.1,8.37-2.31,2-5.94,3.05-10.57,3.05-4.16,0-7.96-.92-10.52-2.53-1.64-1.03-2.63-2.16-3.79-4.1l6.16-3.89Z"/><path class="cls-1" d="M657.67,39.2c1.68,2.74,4.16,3.95,8.21,3.95s5.89-1.53,5.89-4.47c0-1.47-.58-2.68-1.58-3.32q-1.05-.68-6.26-2c-7.79-1.95-10.73-5.05-10.73-11.31,0-7.16,4.58-11.1,12.78-11.1,6.05,0,10.1,2,12.52,6.1l-6,3.84c-1.68-2.42-3.74-3.47-6.73-3.47s-4.84,1.53-4.84,4.16c0,2.89,1.58,4.1,7,5.47,4.79,1.21,6,1.63,7.89,2.84,2.47,1.68,3.68,4.37,3.68,8.42,0,3.84-1,6.52-3.1,8.37-2.32,2-5.95,3.05-10.58,3.05-4.16,0-7.96-.92-10.52-2.53-1.64-1.03-2.63-2.16-3.79-4.1l6.16-3.89Z"/><polygon class="cls-1" points="685.4 11.52 709.13 11.52 709.13 18.1 693.4 18.1 693.4 26.83 706.71 26.83 706.71 33.41 693.4 33.41 693.4 42.51 709.34 42.51 709.34 49.09 685.4 49.09 685.4 11.52"/><polygon class="cls-1" points="0 74.66 8 74.66 8 89.81 19.05 74.66 28.52 74.66 16.1 90.13 29.09 112.22 19.68 112.22 10.84 95.6 8 99.33 8 112.22 0 112.22 0 74.66"/><path class="cls-1" d="M31.41,89.02c0-5.63,.84-8.68,3.16-11.1,2.53-2.74,5.73-3.84,11.05-3.84,5.68,0,9.21,1.32,11.68,4.47,1.84,2.37,2.58,5.26,2.58,10.47v8.84c0,5.63-.84,8.68-3.16,11.1-2.53,2.74-5.73,3.84-11.1,3.84-5.63,0-9.15-1.32-11.63-4.47-1.84-2.32-2.58-5.31-2.58-10.47v-8.84Zm20.36,.68c0-6.84-1.53-9.1-6.1-9.1s-6.16,2.26-6.16,9.1v7.47c0,6.84,1.53,9.1,6.1,9.1s6.16-2.26,6.16-9.1v-7.47Z"/><polygon class="cls-1" points="67.4 74.66 75.5 74.66 75.5 89.97 86.55 89.97 86.55 74.66 94.65 74.66 94.65 112.22 86.55 112.22 86.55 96.55 75.5 96.55 75.5 112.22 67.4 112.22 67.4 74.66"/><polygon class="cls-1" points="110.33 81.24 100.33 81.24 100.33 74.66 128.38 74.66 128.38 81.24 118.43 81.24 118.43 112.22 110.33 112.22 110.33 81.24"/><path class="cls-1" d="M137.48,105.17l-2.21,7.05h-8.73l13.57-37.56h7.84l13.63,37.56h-8.79l-2.16-7.05h-13.15Zm6.63-21.04l-4.68,14.63h9.26l-4.58-14.63Z"/><polygon class="cls-1" points="166.89 104.96 175.36 104.96 171.31 122.12 164.37 122.12 166.89 104.96"/><polygon class="cls-1" points="192.88 74.66 216.61 74.66 216.61 81.24 200.88 81.24 200.88 89.97 214.19 89.97 214.19 96.55 200.88 96.55 200.88 105.65 216.82 105.65 216.82 112.22 192.88 112.22 192.88 74.66"/><polygon class="cls-1" points="231.5 81.24 221.5 81.24 221.5 74.66 249.55 74.66 249.55 81.24 239.6 81.24 239.6 112.22 231.5 112.22 231.5 81.24"/><path class="cls-1" d="M270.59,105.17l-2.21,7.05h-8.73l13.57-37.56h7.84l13.63,37.56h-8.79l-2.16-7.05h-13.15Zm6.63-21.04l-4.68,14.63h9.26l-4.58-14.63Z"/><path class="cls-1" d="M306.05,74.66v23.52c0,3.05,.2,4.53,.79,5.68,.88,1.74,2.26,2.42,5,2.42,2.95,0,4.3-.8,5.16-2.84,.46-1.11,.63-2.58,.63-5.26v-23.52h8.1v23.52c0,5.63-.53,8.1-2.31,10.31-2.47,3.05-5.84,4.31-11.58,4.31-6.05,0-9.75-1.51-12.05-5-1.38-2.1-1.84-4.47-1.84-9.63v-23.52h8.1Z"/><polygon class="cls-1" points="341.31 81.24 331.31 81.24 331.31 74.66 359.35 74.66 359.35 81.24 349.41 81.24 349.41 112.22 341.31 112.22 341.31 81.24"/><path class="cls-1" d="M364.14,89.02c0-5.63,.84-8.68,3.16-11.1,2.53-2.74,5.74-3.84,11.05-3.84,5.68,0,9.21,1.32,11.68,4.47,1.84,2.37,2.58,5.26,2.58,10.47v8.84c0,5.63-.84,8.68-3.16,11.1-2.53,2.74-5.73,3.84-11.1,3.84s-9.15-1.32-11.63-4.47c-1.84-2.32-2.58-5.31-2.58-10.47v-8.84Zm20.36,.68c0-6.84-1.53-9.1-6.1-9.1s-6.16,2.26-6.16,9.1v7.47c0,6.84,1.53,9.1,6.1,9.1s6.16-2.26,6.16-9.1v-7.47Z"/><polygon class="cls-1" points="410.76 74.66 418.75 74.66 418.75 89.81 429.8 74.66 439.27 74.66 426.86 90.13 439.85 112.22 430.43 112.22 421.6 95.6 418.75 99.33 418.75 112.22 410.76 112.22 410.76 74.66"/><path class="cls-1" d="M442.17,89.02c0-5.63,.84-8.68,3.16-11.1,2.53-2.74,5.73-3.84,11.05-3.84,5.68,0,9.21,1.32,11.68,4.47,1.84,2.37,2.58,5.26,2.58,10.47v8.84c0,5.63-.84,8.68-3.16,11.1-2.53,2.74-5.74,3.84-11.1,3.84-5.63,0-9.15-1.32-11.63-4.47-1.84-2.32-2.58-5.31-2.58-10.47v-8.84Zm20.36,.68c0-6.84-1.53-9.1-6.1-9.1s-6.16,2.26-6.16,9.1v7.47c0,6.84,1.53,9.1,6.1,9.1s6.16-2.26,6.16-9.1v-7.47Z"/><path class="cls-1" d="M486.31,112.22h-8.1v-37.56h14.26c5.05,0,7.73,.74,9.73,2.74,1.89,1.89,2.74,4.42,2.74,8.31,0,6.47-1.95,9.58-6.79,10.94l8.1,15.57h-8.94l-7.05-14.94h-3.95v14.94Zm5.47-21.15c3.74,0,5.16-1.37,5.16-5s-1.42-5-5.26-5h-5.52v10h5.63Z"/><path class="cls-1" d="M512.3,74.66h13.1c10.15-.16,14.78,4.52,14.52,14.68v8.21c.26,10.15-4.31,14.78-14.52,14.68h-13.1v-37.56Zm11.63,31.15c6.1,.05,7.79-1.79,7.89-8.89v-6.95c-.11-7.1-1.79-8.94-7.89-8.89h-3.52v24.73h3.52Z"/><path class="cls-1" d="M553.6,105.17l-2.21,7.05h-8.73l13.57-37.56h7.84l13.63,37.56h-8.79l-2.16-7.05h-13.15Zm6.63-21.04l-4.68,14.63h9.26l-4.58-14.63Z"/><polygon class="cls-1" points="597.59 81.24 587.59 81.24 587.59 74.66 615.63 74.66 615.63 81.24 605.69 81.24 605.69 112.22 597.59 112.22 597.59 81.24"/><polygon class="cls-1" points="621.37 74.66 645.1 74.66 645.1 81.24 629.37 81.24 629.37 89.97 642.68 89.97 642.68 96.55 629.37 96.55 629.37 105.65 645.31 105.65 645.31 112.22 621.37 112.22 621.37 74.66"/><polygon class="cls-1" points="651.94 74.66 660.04 74.66 660.04 89.97 671.09 89.97 671.09 74.66 679.19 74.66 679.19 112.22 671.09 112.22 671.09 96.55 660.04 96.55 660.04 112.22 651.94 112.22 651.94 74.66"/><path class="cls-1" d="M695.03,105.17l-2.21,7.05h-8.73l13.57-37.56h7.84l13.63,37.56h-8.79l-2.16-7.05h-13.15Zm6.63-21.04l-4.68,14.63h9.26l-4.58-14.63Z"/></g></g></svg>