<?xml version="1.0" encoding="UTF-8"?><svg id="Layer_2" xmlns="http://www.w3.org/2000/svg" viewBox="0 0 839.91 159.58"><defs><style>.cls-1{fill:#fff;}</style></defs><g id="main"><g><polygon class="cls-1" points="95.57 9.46 102.86 9.46 102.86 23.29 112.95 9.46 121.59 9.46 110.26 23.58 122.12 43.75 113.53 43.75 105.46 28.57 102.86 31.98 102.86 43.75 95.57 43.75 95.57 9.46"/><path class="cls-1" d="M133.6,9.46V30.93c0,2.78,.19,4.13,.72,5.19,.81,1.59,2.07,2.21,4.56,2.21,2.69,0,3.92-.73,4.71-2.59,.42-1.01,.58-2.35,.58-4.8V9.46h7.4V30.93c0,5.14-.48,7.4-2.11,9.41-2.26,2.78-5.33,3.94-10.56,3.94-5.52,0-8.9-1.38-11-4.56-1.26-1.91-1.68-4.08-1.68-8.79V9.46h7.4Z"/><rect class="cls-1" x="159.1" y="9.46" width="7.4" height="34.29"/><polygon class="cls-1" points="179.89 9.46 187.29 9.46 194.68 33.95 202.08 9.46 209.47 9.46 197.9 43.75 191.42 43.75 179.89 9.46"/><path class="cls-1" d="M216.63,37.31l-2.02,6.43h-7.97l12.39-34.29h7.15l12.44,34.29h-8.02l-1.97-6.43h-12.01Zm6.05-19.21l-4.27,13.35h8.45l-4.18-13.35Z"/><path class="cls-1" d="M260.86,9.46V30.16c0,5.86-.26,7.94-1.25,9.8-1.54,2.9-4.51,4.32-8.88,4.32s-7.3-1.25-10.85-4.47l4.08-4.85c2.11,2.31,3.99,3.36,5.95,3.36,1.68,0,2.74-.86,3.22-2.69,.24-1.06,.34-2.21,.34-5.38V9.46h7.4Z"/><path class="cls-1" d="M274.02,37.31l-2.02,6.43h-7.97l12.39-34.29h7.15l12.44,34.29h-8.02l-1.97-6.43h-12.01Zm6.05-19.21l-4.27,13.35h8.45l-4.18-13.35Z"/><path class="cls-1" d="M298.75,9.46h11.96c9.27-.14,13.49,4.13,13.25,13.4v7.49c.24,9.27-3.94,13.49-13.25,13.4h-11.96V9.46Zm10.61,28.43c5.57,.05,7.11-1.63,7.2-8.12v-6.34c-.1-6.48-1.63-8.16-7.2-8.12h-3.22v22.57h3.22Z"/><path class="cls-1" d="M347.73,9.46V30.93c0,2.78,.19,4.13,.72,5.19,.81,1.59,2.07,2.21,4.56,2.21,2.69,0,3.92-.73,4.71-2.59,.42-1.01,.58-2.35,.58-4.8V9.46h7.4V30.93c0,5.14-.48,7.4-2.11,9.41-2.26,2.78-5.33,3.94-10.57,3.94-5.52,0-8.9-1.38-11-4.56-1.26-1.91-1.68-4.08-1.68-8.79V9.46h7.4Z"/><path class="cls-1" d="M375.92,34.72c1.54,2.5,3.79,3.6,7.49,3.6s5.38-1.39,5.38-4.08c0-1.35-.53-2.45-1.44-3.03q-.96-.62-5.71-1.82c-7.11-1.78-9.8-4.61-9.8-10.32,0-6.53,4.18-10.13,11.67-10.13,5.52,0,9.22,1.83,11.43,5.57l-5.47,3.51c-1.54-2.21-3.41-3.17-6.15-3.17s-4.42,1.39-4.42,3.79c0,2.64,1.44,3.75,6.39,4.99,4.37,1.1,5.47,1.49,7.2,2.59,2.26,1.54,3.36,3.99,3.36,7.68,0,3.51-.91,5.95-2.83,7.64-2.11,1.82-5.43,2.78-9.65,2.78-3.79,0-7.27-.84-9.6-2.31-1.5-.94-2.4-1.97-3.46-3.75l5.62-3.55Z"/><path class="cls-1" d="M407.9,37.31l-2.02,6.43h-7.97l12.39-34.29h7.15l12.44,34.29h-8.02l-1.97-6.43h-12.01Zm6.05-19.21l-4.27,13.35h8.45l-4.18-13.35Z"/><polygon class="cls-1" points="432.63 9.46 440.03 9.46 440.03 37.74 454.48 37.74 454.48 43.75 432.63 43.75 432.63 9.46"/><path class="cls-1" d="M458.85,9.46h11.96c9.27-.14,13.49,4.13,13.25,13.4v7.49c.24,9.27-3.94,13.49-13.25,13.4h-11.96V9.46Zm10.61,28.43c5.57,.05,7.11-1.63,7.2-8.12v-6.34c-.1-6.48-1.63-8.16-7.2-8.12h-3.22v22.57h3.22Z"/><path class="cls-1" d="M498.23,9.46V30.93c0,2.78,.19,4.13,.72,5.19,.81,1.59,2.07,2.21,4.56,2.21,2.69,0,3.92-.73,4.71-2.59,.42-1.01,.58-2.35,.58-4.8V9.46h7.39V30.93c0,5.14-.48,7.4-2.11,9.41-2.26,2.78-5.33,3.94-10.57,3.94-5.52,0-8.9-1.38-11-4.56-1.26-1.91-1.68-4.08-1.68-8.79V9.46h7.4Z"/><path class="cls-1" d="M526.42,34.72c1.54,2.5,3.79,3.6,7.49,3.6s5.38-1.39,5.38-4.08c0-1.35-.53-2.45-1.44-3.03q-.96-.62-5.71-1.82c-7.11-1.78-9.8-4.61-9.8-10.32,0-6.53,4.18-10.13,11.67-10.13,5.52,0,9.22,1.83,11.43,5.57l-5.47,3.51c-1.54-2.21-3.41-3.17-6.15-3.17s-4.42,1.39-4.42,3.79c0,2.64,1.44,3.75,6.39,4.99,4.37,1.1,5.47,1.49,7.2,2.59,2.26,1.54,3.36,3.99,3.36,7.68,0,3.51-.91,5.95-2.83,7.64-2.11,1.82-5.43,2.78-9.65,2.78-3.79,0-7.27-.84-9.6-2.31-1.5-.94-2.4-1.97-3.46-3.75l5.62-3.55Z"/><polygon class="cls-1" points="548.85 9.46 556.24 9.46 563.64 33.95 571.03 9.46 578.43 9.46 566.86 43.75 560.37 43.75 548.85 9.46"/><path class="cls-1" d="M585.59,37.31l-2.02,6.43h-7.97l12.39-34.29h7.16l12.44,34.29h-8.02l-1.97-6.43h-12Zm-2.02-37.31h6.19V6.43h-6.19V0Zm8.07,18.1l-4.27,13.35h8.45l-4.18-13.35Zm1.68-18.1h6.19V6.43h-6.19V0Z"/><path class="cls-1" d="M615.5,37.31l-2.02,6.43h-7.97l12.39-34.29h7.16l12.44,34.29h-8.02l-1.97-6.43h-12.01Zm-2.02-37.31h6.19V6.43h-6.19V0Zm8.07,18.1l-4.27,13.35h8.45l-4.18-13.35Zm1.68-18.1h6.19V6.43h-6.19V0Z"/><path class="cls-1" d="M647.68,43.75h-7.4V9.46h13.01c4.61,0,7.06,.67,8.88,2.5,1.73,1.73,2.5,4.03,2.5,7.59,0,5.91-1.78,8.74-6.19,9.99l7.39,14.21h-8.16l-6.44-13.64h-3.6v13.64Zm4.99-19.3c3.41,0,4.71-1.25,4.71-4.56s-1.3-4.56-4.8-4.56h-5.04v9.12h5.14Z"/><path class="cls-1" d="M674.14,34.72c1.54,2.5,3.79,3.6,7.49,3.6s5.38-1.39,5.38-4.08c0-1.35-.53-2.45-1.44-3.03q-.96-.62-5.71-1.82c-7.11-1.78-9.8-4.61-9.8-10.32,0-6.53,4.18-10.13,11.67-10.13,5.52,0,9.22,1.83,11.43,5.57l-5.47,3.51c-1.54-2.21-3.41-3.17-6.15-3.17s-4.42,1.39-4.42,3.79c0,2.64,1.44,3.75,6.39,4.99,4.37,1.1,5.47,1.49,7.2,2.59,2.26,1.54,3.36,3.99,3.36,7.68,0,3.51-.91,5.95-2.83,7.64-2.11,1.82-5.43,2.78-9.65,2.78-3.79,0-7.27-.84-9.6-2.31-1.5-.94-2.4-1.97-3.46-3.75l5.62-3.55Z"/><polygon class="cls-1" points="699.45 9.46 721.1 9.46 721.1 15.46 706.75 15.46 706.75 23.43 718.9 23.43 718.9 29.44 706.75 29.44 706.75 37.74 721.3 37.74 721.3 43.75 699.45 43.75 699.45 9.46"/><polygon class="cls-1" points="734.7 15.46 725.57 15.46 725.57 9.46 751.17 9.46 751.17 15.46 742.09 15.46 742.09 43.75 734.7 43.75 734.7 15.46"/><path class="cls-1" d="M9.99,94.94l-2.02,6.43H0l12.39-34.29h7.15l12.44,34.29h-8.02l-1.97-6.43H9.99Zm6.05-19.21l-4.27,13.35h8.45l-4.18-13.35Z"/><path class="cls-1" d="M39.43,92.35c1.54,2.5,3.79,3.6,7.49,3.6s5.38-1.39,5.38-4.08c0-1.35-.53-2.45-1.44-3.03q-.96-.62-5.71-1.82c-7.11-1.78-9.8-4.61-9.8-10.32,0-6.53,4.18-10.13,11.67-10.13,5.52,0,9.22,1.83,11.43,5.57l-5.47,3.51c-1.54-2.21-3.41-3.17-6.15-3.17s-4.42,1.39-4.42,3.79c0,2.64,1.44,3.75,6.39,4.99,4.37,1.1,5.47,1.49,7.2,2.59,2.26,1.54,3.36,3.99,3.36,7.68,0,3.51-.91,5.95-2.83,7.64-2.11,1.82-5.43,2.78-9.65,2.78-3.79,0-7.27-.84-9.6-2.31-1.5-.94-2.4-1.97-3.46-3.75l5.62-3.55Z"/><path class="cls-1" d="M82.98,67.09v20.7c0,5.86-.26,7.94-1.25,9.8-1.54,2.9-4.51,4.32-8.88,4.32s-7.3-1.25-10.85-4.47l4.08-4.85c2.11,2.31,3.99,3.36,5.95,3.36,1.68,0,2.74-.86,3.22-2.69,.24-1.06,.34-2.21,.34-5.38v-20.79h7.4Z"/><path class="cls-1" d="M96.14,94.94l-2.02,6.43h-7.97l12.39-34.29h7.15l12.44,34.29h-8.02l-1.97-6.43h-12.01Zm6.05-19.21l-4.27,13.35h8.45l-4.18-13.35Z"/><polygon class="cls-1" points="125.43 73.09 116.31 73.09 116.31 67.09 141.9 67.09 141.9 73.09 132.83 73.09 132.83 101.37 125.43 101.37 125.43 73.09"/><path class="cls-1" d="M154.44,67.09v21.47c0,2.78,.19,4.13,.72,5.19,.81,1.59,2.07,2.21,4.56,2.21,2.69,0,3.92-.73,4.71-2.59,.42-1.01,.58-2.35,.58-4.8v-21.47h7.4v21.47c0,5.14-.48,7.4-2.11,9.41-2.26,2.78-5.33,3.94-10.56,3.94-5.52,0-8.9-1.38-11-4.56-1.26-1.91-1.68-4.08-1.68-8.79v-21.47h7.4Z"/><polygon class="cls-1" points="179.94 67.09 187.09 67.09 199.24 89.03 199.24 67.09 206.4 67.09 206.4 101.37 199.24 101.37 187.09 79.43 187.09 101.37 179.94 101.37 179.94 67.09"/><path class="cls-1" d="M214.08,67.09h11.96c9.27-.14,13.49,4.13,13.25,13.4v7.49c.24,9.27-3.94,13.49-13.25,13.4h-11.96v-34.29Zm10.61,28.43c5.57,.05,7.11-1.63,7.2-8.12v-6.34c-.1-6.48-1.63-8.16-7.2-8.12h-3.22v22.57h3.22Z"/><path class="cls-1" d="M263.26,67.09v20.7c0,5.86-.26,7.94-1.25,9.8-1.54,2.9-4.51,4.32-8.88,4.32s-7.3-1.25-10.85-4.47l4.08-4.85c2.11,2.31,3.99,3.36,5.95,3.36,1.68,0,2.74-.86,3.22-2.69,.24-1.06,.34-2.21,.34-5.38v-20.79h7.4Z"/><path class="cls-1" d="M276.42,94.94l-2.02,6.43h-7.97l12.39-34.29h7.15l12.44,34.29h-8.02l-1.97-6.43h-12.01Zm6.05-19.21l-4.27,13.35h8.45l-4.18-13.35Z"/><polygon class="cls-1" points="305.71 73.09 296.59 73.09 296.59 67.09 322.18 67.09 322.18 73.09 313.11 73.09 313.11 101.37 305.71 101.37 305.71 73.09"/><path class="cls-1" d="M341.39,94.94l-2.02,6.43h-7.97l12.39-34.29h7.15l12.44,34.29h-8.02l-1.97-6.43h-12.01Zm6.05-19.21l-4.27,13.35h8.45l-4.18-13.35Z"/><path class="cls-1" d="M373.76,67.09v21.47c0,2.78,.19,4.13,.72,5.19,.81,1.59,2.07,2.21,4.56,2.21,2.69,0,3.92-.73,4.71-2.59,.42-1.01,.58-2.35,.58-4.8v-21.47h7.4v21.47c0,5.14-.48,7.4-2.11,9.41-2.26,2.78-5.33,3.94-10.57,3.94-5.52,0-8.9-1.38-11-4.56-1.26-1.91-1.68-4.08-1.68-8.79v-21.47h7.4Z"/><polygon class="cls-1" points="405.93 73.09 396.81 73.09 396.81 67.09 422.4 67.09 422.4 73.09 413.33 73.09 413.33 101.37 405.93 101.37 405.93 73.09"/><path class="cls-1" d="M426.78,80.2c0-5.14,.77-7.92,2.88-10.13,2.31-2.5,5.23-3.51,10.08-3.51,5.19,0,8.4,1.2,10.66,4.08,1.68,2.16,2.35,4.8,2.35,9.56v8.07c0,5.14-.77,7.92-2.88,10.13-2.31,2.5-5.23,3.51-10.13,3.51-5.14,0-8.36-1.2-10.61-4.08-1.68-2.11-2.35-4.85-2.35-9.56v-8.07Zm18.58,.62c0-6.24-1.39-8.31-5.57-8.31s-5.62,2.07-5.62,8.31v6.82c0,6.24,1.39,8.31,5.57,8.31s5.62-2.06,5.62-8.31v-6.82Z"/><path class="cls-1" d="M459.62,67.09h11.96c9.27-.14,13.49,4.13,13.25,13.4v7.49c.24,9.27-3.94,13.49-13.25,13.4h-11.96v-34.29Zm10.61,28.43c5.57,.05,7.11-1.63,7.2-8.12v-6.34c-.1-6.48-1.63-8.16-7.2-8.12h-3.22v22.57h3.22Z"/><polygon class="cls-1" points="491.66 67.09 513.31 67.09 513.31 73.09 498.95 73.09 498.95 81.06 511.1 81.06 511.1 87.06 498.95 87.06 498.95 95.37 513.5 95.37 513.5 101.37 491.66 101.37 491.66 67.09"/><path class="cls-1" d="M536.56,101.37h-7.4v-34.29h11.72c5,0,7.64,.77,9.56,2.74,1.82,1.92,2.59,4.37,2.59,8.4,0,4.32-.91,6.96-3.07,8.84-1.92,1.68-4.47,2.35-9.08,2.35h-4.32v11.96Zm4.37-17.86c3.46,0,4.75-1.44,4.75-5.28s-1.3-5.28-4.75-5.28h-4.51v10.56h4.51Z"/><path class="cls-1" d="M562.73,94.94l-2.02,6.43h-7.97l12.39-34.29h7.16l12.44,34.29h-8.02l-1.97-6.43h-12Zm6.05-19.21l-4.27,13.35h8.45l-4.18-13.35Z"/><path class="cls-1" d="M594.9,101.37h-7.4v-34.29h13.01c4.61,0,7.06,.67,8.88,2.5,1.73,1.73,2.5,4.03,2.5,7.59,0,5.91-1.78,8.74-6.19,9.99l7.4,14.21h-8.16l-6.43-13.64h-3.6v13.64Zm4.99-19.3c3.41,0,4.71-1.25,4.71-4.56s-1.3-4.56-4.8-4.56h-5.04v9.12h5.14Z"/><path class="cls-1" d="M626.21,94.94l-2.02,6.43h-7.97l12.39-34.29h7.16l12.44,34.29h-8.02l-1.97-6.43h-12.01Zm6.05-19.21l-4.27,13.35h8.45l-4.18-13.35Z"/><polygon class="cls-1" points="650.95 67.09 658.1 67.09 670.25 89.03 670.25 67.09 677.41 67.09 677.41 101.37 670.25 101.37 658.1 79.43 658.1 101.37 650.95 101.37 650.95 67.09"/><path class="cls-1" d="M685.09,67.09h11.96c9.27-.14,13.49,4.13,13.25,13.4v7.49c.24,9.27-3.94,13.49-13.25,13.4h-11.96v-34.29Zm10.61,28.43c5.57,.05,7.11-1.63,7.2-8.12v-6.34c-.1-6.48-1.63-8.16-7.2-8.12h-3.22v22.57h3.22Z"/><path class="cls-1" d="M724.47,67.09v21.47c0,2.78,.19,4.13,.72,5.19,.81,1.59,2.07,2.21,4.56,2.21,2.69,0,3.92-.73,4.71-2.59,.42-1.01,.58-2.35,.58-4.8v-21.47h7.39v21.47c0,5.14-.48,7.4-2.11,9.41-2.26,2.78-5.33,3.94-10.57,3.94-5.52,0-8.9-1.38-11-4.56-1.26-1.91-1.68-4.08-1.68-8.79v-21.47h7.4Z"/><path class="cls-1" d="M752.66,92.35c1.54,2.5,3.79,3.6,7.49,3.6s5.38-1.39,5.38-4.08c0-1.35-.53-2.45-1.44-3.03q-.96-.62-5.71-1.82c-7.11-1.78-9.8-4.61-9.8-10.32,0-6.53,4.18-10.13,11.67-10.13,5.52,0,9.22,1.83,11.43,5.57l-5.47,3.51c-1.54-2.21-3.41-3.17-6.15-3.17s-4.42,1.39-4.42,3.79c0,2.64,1.44,3.75,6.39,4.99,4.37,1.1,5.47,1.49,7.2,2.59,2.26,1.54,3.36,3.99,3.36,7.68,0,3.51-.91,5.95-2.83,7.64-2.11,1.82-5.43,2.78-9.65,2.78-3.79,0-7.27-.84-9.6-2.31-1.5-.94-2.4-1.97-3.46-3.75l5.62-3.55Z"/><polygon class="cls-1" points="777.97 67.09 799.62 67.09 799.62 73.09 785.26 73.09 785.26 81.06 797.41 81.06 797.41 87.06 785.26 87.06 785.26 95.37 799.82 95.37 799.82 101.37 777.97 101.37 777.97 67.09"/><polygon class="cls-1" points="805.87 67.09 813.26 67.09 813.26 95.37 827.72 95.37 827.72 101.37 805.87 101.37 805.87 67.09"/><polygon class="cls-1" points="832.18 94.75 839.91 94.75 836.22 110.4 829.88 110.4 832.18 94.75"/><path class="cls-1" d="M101.45,149.97c1.54,2.5,3.79,3.6,7.49,3.6s5.38-1.39,5.38-4.08c0-1.35-.53-2.45-1.44-3.03q-.96-.62-5.71-1.82c-7.11-1.78-9.8-4.61-9.8-10.32,0-6.53,4.18-10.13,11.67-10.13,5.52,0,9.22,1.83,11.43,5.57l-5.47,3.51c-1.54-2.21-3.41-3.17-6.15-3.17s-4.42,1.39-4.42,3.79c0,2.64,1.44,3.75,6.39,4.99,4.37,1.1,5.47,1.49,7.2,2.59,2.26,1.54,3.36,3.99,3.36,7.68,0,3.51-.91,5.95-2.83,7.64-2.11,1.82-5.43,2.78-9.65,2.78-3.79,0-7.27-.84-9.6-2.31-1.5-.94-2.4-1.97-3.46-3.75l5.62-3.55Z"/><rect class="cls-1" x="126.71" y="124.72" width="7.4" height="34.29"/><rect class="cls-1" x="141.79" y="124.72" width="7.4" height="34.29"/><path class="cls-1" d="M159.17,149.97c1.54,2.5,3.79,3.6,7.49,3.6s5.38-1.39,5.38-4.08c0-1.35-.53-2.45-1.44-3.03q-.96-.62-5.71-1.82c-7.11-1.78-9.8-4.61-9.8-10.32,0-6.53,4.18-10.13,11.67-10.13,5.52,0,9.22,1.83,11.43,5.57l-5.47,3.51c-1.54-2.21-3.41-3.17-6.15-3.17s-4.42,1.39-4.42,3.79c0,2.64,1.44,3.75,6.39,4.99,4.37,1.1,5.47,1.49,7.2,2.59,2.26,1.54,3.36,3.99,3.36,7.68,0,3.51-.91,5.95-2.83,7.64-2.11,1.82-5.43,2.78-9.65,2.78-3.79,0-7.27-.84-9.6-2.31-1.5-.94-2.4-1.97-3.46-3.75l5.62-3.55Z"/><polygon class="cls-1" points="190.14 124.72 197.54 124.72 204.93 149.21 212.33 124.72 219.73 124.72 208.15 159 201.67 159 190.14 124.72"/><path class="cls-1" d="M222.85,137.83c0-5.14,.77-7.92,2.88-10.13,2.31-2.5,5.23-3.51,10.08-3.51,5.19,0,8.4,1.2,10.66,4.08,1.68,2.16,2.35,4.8,2.35,9.56v8.07c0,5.14-.77,7.92-2.88,10.13-2.31,2.5-5.23,3.51-10.13,3.51-5.14,0-8.36-1.2-10.61-4.08-1.68-2.11-2.35-4.85-2.35-9.56v-8.07Zm4.08-16.14c.48-2.64,.72-3.41,1.25-4.47,1.01-2.02,2.55-3.03,4.71-3.03,1.44,0,2.64,.43,3.84,1.44,1.58,1.34,1.73,1.44,2.31,1.44,.86,0,1.3-.72,1.54-2.54h4.23c-.34,2.31-.56,3.42-.96,4.42-.82,2.03-2.5,3.07-4.75,3.07-1.58,0-2.83-.48-4.08-1.63-1.25-1.1-1.49-1.25-2.07-1.25-.86,0-1.63,1.01-1.82,2.54h-4.18Zm14.5,16.76c0-6.24-1.39-8.31-5.57-8.31s-5.62,2.07-5.62,8.31v6.82c0,6.24,1.39,8.31,5.57,8.31s5.62-2.06,5.62-8.31v-6.82Z"/><polygon class="cls-1" points="262.27 130.72 253.15 130.72 253.15 124.72 278.74 124.72 278.74 130.72 269.67 130.72 269.67 159 262.27 159 262.27 130.72"/><path class="cls-1" d="M287.05,152.57l-2.02,6.43h-7.97l12.39-34.29h7.15l12.44,34.29h-8.02l-1.97-6.43h-12.01Zm6.05-19.21l-4.27,13.35h8.45l-4.18-13.35Z"/><polygon class="cls-1" points="321.39 124.72 328.26 124.72 337.14 143.16 346.03 124.72 352.89 124.72 352.89 159 345.83 159 345.83 138.5 339.49 151.51 334.79 151.51 328.45 138.5 328.45 159 321.39 159 321.39 124.72"/><polygon class="cls-1" points="360.63 124.72 382.28 124.72 382.28 130.72 367.92 130.72 367.92 138.69 380.07 138.69 380.07 144.69 367.92 144.69 367.92 153 382.47 153 382.47 159 360.63 159 360.63 124.72"/><rect class="cls-1" x="388.53" y="124.72" width="7.4" height="34.29"/><polygon class="cls-1" points="403.65 124.72 425.31 124.72 425.31 130.72 410.95 130.72 410.95 138.69 423.1 138.69 423.1 144.69 410.95 144.69 410.95 153 425.5 153 425.5 159 403.65 159 403.65 124.72"/><path class="cls-1" d="M444.23,139.79h12.49v5.91c0,5.04-.58,7.49-2.35,9.75-2.26,2.83-5.47,4.08-10.71,4.08s-8.36-1.25-10.56-4.13c-1.68-2.21-2.31-4.85-2.31-9.75v-7.44c0-5.33,.77-8.12,2.83-10.37,2.26-2.5,5.23-3.55,9.94-3.55,7.97,0,11.86,3.27,12.15,10.18l-6.77,.48c-.38-3.22-2.02-4.71-5.28-4.71-4.13,0-5.47,2.06-5.47,8.5v6.34c0,6.48,1.3,8.5,5.57,8.5,3.94,0,5.62-1.87,5.62-6.24v-1.92h-5.14v-5.62Z"/><path class="cls-1" d="M469.06,152.57l-2.02,6.43h-7.97l12.39-34.29h7.16l12.44,34.29h-8.02l-1.97-6.43h-12Zm6.05-19.21l-4.27,13.35h8.45l-4.18-13.35Z"/><path class="cls-1" d="M510.65,124.72v21.47c0,2.78,.19,4.13,.72,5.19,.81,1.59,2.07,2.21,4.56,2.21,2.69,0,3.92-.73,4.71-2.59,.42-1.01,.58-2.35,.58-4.8v-21.47h7.39v21.47c0,5.14-.48,7.4-2.11,9.41-2.26,2.78-5.33,3.94-10.57,3.94-5.52,0-8.9-1.38-11-4.56-1.26-1.91-1.68-4.08-1.68-8.79v-21.47h7.4Zm-2.69-9.46h6.19v6.43h-6.19v-6.43Zm9.75,0h6.19v6.43h-6.19v-6.43Z"/><polygon class="cls-1" points="536.15 124.72 543.54 124.72 543.54 138.69 553.63 138.69 553.63 124.72 561.02 124.72 561.02 159 553.63 159 553.63 144.69 543.54 144.69 543.54 159 536.15 159 536.15 124.72"/><polygon class="cls-1" points="568.8 124.72 590.46 124.72 590.46 130.72 576.1 130.72 576.1 138.69 588.25 138.69 588.25 144.69 576.1 144.69 576.1 153 590.65 153 590.65 159 568.8 159 568.8 124.72"/><polygon class="cls-1" points="596.7 124.72 603.86 124.72 616.01 146.66 616.01 124.72 623.16 124.72 623.16 159 616.01 159 603.86 137.06 603.86 159 596.7 159 596.7 124.72"/><path class="cls-1" d="M630.85,124.72h11.96c9.27-.14,13.49,4.13,13.25,13.4v7.49c.24,9.27-3.94,13.49-13.25,13.4h-11.96v-34.29Zm10.61,28.43c5.57,.05,7.11-1.63,7.2-8.12v-6.34c-.1-6.48-1.63-8.16-7.2-8.12h-3.22v22.57h3.22Z"/><path class="cls-1" d="M670.22,124.72v21.47c0,2.78,.19,4.13,.72,5.19,.81,1.59,2.07,2.21,4.56,2.21,2.69,0,3.92-.73,4.71-2.59,.42-1.01,.58-2.35,.58-4.8v-21.47h7.39v21.47c0,5.14-.48,7.4-2.11,9.41-2.26,2.78-5.33,3.94-10.57,3.94-5.52,0-8.9-1.38-11-4.56-1.26-1.91-1.68-4.08-1.68-8.79v-21.47h7.4Z"/><path class="cls-1" d="M698.41,149.97c1.54,2.5,3.79,3.6,7.49,3.6s5.38-1.39,5.38-4.08c0-1.35-.53-2.45-1.44-3.03q-.96-.62-5.71-1.82c-7.11-1.78-9.8-4.61-9.8-10.32,0-6.53,4.18-10.13,11.67-10.13,5.52,0,9.22,1.83,11.43,5.57l-5.47,3.51c-1.54-2.21-3.41-3.17-6.15-3.17s-4.42,1.39-4.42,3.79c0,2.64,1.44,3.75,6.39,4.99,4.37,1.1,5.47,1.49,7.2,2.59,2.26,1.54,3.36,3.99,3.36,7.68,0,3.51-.91,5.95-2.83,7.64-2.11,1.82-5.43,2.78-9.65,2.78-3.79,0-7.27-.84-9.6-2.31-1.5-.94-2.4-1.97-3.46-3.75l5.62-3.55Z"/><polygon class="cls-1" points="731.02 130.72 721.9 130.72 721.9 124.72 747.49 124.72 747.49 130.72 738.42 130.72 738.42 159 731.02 159 731.02 130.72"/></g></g></svg>