<?xml version="1.0" encoding="UTF-8"?><svg id="Layer_2" xmlns="http://www.w3.org/2000/svg" viewBox="0 0 416 160"><defs><style>.cls-1{fill:#f7c931;}.cls-2{fill:#624f15;}</style></defs><g id="main"><g><path class="cls-2" d="M336,0c74.19,0,80,5.81,80,80s-5.81,80-80,80H80C5.81,160,0,154.19,0,80S5.81,0,80,0H336Z"/><g><path class="cls-1" d="M92.8,103.14l-16.25-46.27h11.38l6.69,21.12c2.04,6.41,3.51,11.7,4.59,16.5h.13c.94-4.4,2.62-9.83,4.79-16.36l7.03-21.26h10.8l-16.66,46.27h-12.5Z"/><path class="cls-1" d="M167.43,79.86c0,12.9-7.82,23.95-22.92,23.95s-22.26-10.56-22.26-23.81,8.49-23.81,22.92-23.81c13.61,0,22.26,9.44,22.26,23.67Zm-35.02-27.47v-2.49c0-5.6,2.6-7.28,6.6-7.28,4.55,0,8.02,2.99,10.13,2.99,.96,0,1.71-.48,1.71-2.26v-.55h6.37v1.73c0,6.5-2.66,8.31-6.85,8.31-3.64,0-7.81-2.93-9.88-2.93-.95,0-1.57,.42-1.57,1.53v.95h-6.51Zm.77,27.41c0,8.89,3.79,15.42,11.73,15.42,8.62,0,11.6-7.24,11.6-15.23,0-8.57-3.39-15.21-11.78-15.21s-11.54,6.14-11.54,15.02Z"/><path class="cls-1" d="M185.09,84.9v18.24h-10.34V56.86h20.68c10.18,0,15.67,5.62,15.67,12.75,0,6.24-3.37,9.56-6.55,10.96,2.06,.82,5.55,3.14,5.55,11.46v2.33c0,3.1,.05,6.57,.67,8.77h-10.02c-.81-2.02-.99-5.46-.99-10.46v-.63c0-4.83-1.19-7.15-8.52-7.15h-6.14Zm0-8.39h8.13c5.23,0,7.19-1.99,7.19-5.66s-2.34-5.59-7.02-5.59h-8.3v11.25Z"/><path class="cls-1" d="M218.23,56.86h18.63c13.55,0,22.36,8.88,22.36,22.54s-8.54,23.73-22.81,23.73h-18.17V56.86Zm10.6,37.75h7.16c8.56,0,12.29-6.41,12.29-15.2,0-7.32-3.51-14.03-12.23-14.03h-7.23v29.23Z"/><polygon class="cls-1" points="266.4 56.86 277 56.86 277 94.49 299.89 94.49 298.7 103.14 266.4 103.14 266.4 56.86"/><polygon class="cls-1" points="337.17 83.44 315.17 83.44 315.17 94.49 339.45 94.49 338.2 103.14 304.9 103.14 304.9 56.86 338.12 56.86 338.12 65.51 315.17 65.51 315.17 74.78 337.17 74.78 337.17 83.44"/></g></g></g></svg>