<svg xmlns="http://www.w3.org/2000/svg" width="146" height="32" viewBox="0 0 146 32">
    <path style="fill:#262729" d="M61.2 17.1h-7.4v-6.5h-3.3v16h3.3v-6.5h7.4v6.5h3.2v-16h-3.2zM79.5 19.8c0 2.6-1.3 4-3.7 4s-3.7-1.4-3.7-4.1v-9.1h-3.2v9.2c0 4.5 2.5 7.1 6.9 7.1s6.9-2.6 6.9-7.2v-9.1h-3.2v9.2zM117.1 21.6l-3.6-11h-2.6l-3.7 11-3.6-11h-3.4l5.6 16h2.7l3.7-10.5 3.5 10.5h2.9l5.5-16h-3.4zM129.9 19.7h5.9v-2.9h-5.9v-3.3h8.6v-2.9h-11.8v16h12.2v-2.9h-9zM142.8 10.6h3.2v16h-3.2zM94.2 10.5h-2.8l-7 16.1h3.4l1.4-3.1.1-.2h7.2l1.4 3.3h3.5l-7-16-.2-.1zm1 9.8h-5l.1-.3 2.5-5.4 2.3 5.4.1.3z" />
    <path style="fill:#cf0a2c" d="M6.4 5.7s-3.7 3.5-3.5 7c.2 2.8 2.2 4.3 2.2 4.3 3.2 3.1 11 7.1 12.9 8h.2s.1-.1 0-.1C13.2 14 6.4 5.7 6.4 5.7zM16.9 27.7c0-.1-.2-.1-.2-.1l-13 .4c1.4 2.5 3.8 4.4 6.3 3.9 1.7-.4 5.6-3.1 6.8-4 .2-.2.1-.2.1-.2zM.4 16.5c-1 3.1.3 5.6.3 5.6 1.4 3 4.1 3.9 4.1 3.9 1.2.5 2.5.5 2.5.5H17c.1 0 .1-.1.1-.1.1-.1 0-.2 0-.2C11.4 22.4.4 16.5.4 16.5zM15.9.5c-3.5.9-4.2 4-4.2 4-.6 1.9 0 4.1 0 4.1 1.2 5.1 6.8 13.5 8 15.2l.1.1c.1 0 .1-.1.1-.1C21.9 5 18 .1 18 .1c-.6 0-2.1.4-2.1.4zM30.5 4.4s-.9-3.1-4.3-4L24.1 0s-3.9 5-1.9 23.7c0 .2.1.2.1.2.1 0 .2-.1.2-.1 1.3-1.8 6.8-10.2 8-15.2 0-.1.7-2.5 0-4.2zM25.2 27.7v.2c1.3.9 5 3.6 6.8 4 0 0 3.3 1.2 6.3-3.9l-13-.4s-.1 0-.1.1zM41.9 16.4s-11 5.9-16.8 9.8c0 0-.1.1-.1.2 0 0 0 .1.1.1H35s1 0 2.3-.5c0 0 2.7-.9 4.2-4 0-.1 1.3-2.5.4-5.6zM39.3 12.8c.2-3.7-3.5-7-3.5-7S29 13.8 24 24.7c0 0-.1.1 0 .2 0 0 .1.1.2 0 1.8-1 9.6-4.9 12.9-8 0 .1 2.1-1.6 2.2-4.1z" />
</svg>