<?xml version="1.0" encoding="utf-8"?>
<!-- Generator: Adobe Illustrator 27.0.1, SVG Export Plug-In . SVG Version: 6.00 Build 0)  -->
<svg version="1.1" id="b" xmlns="http://www.w3.org/2000/svg" xmlns:xlink="http://www.w3.org/1999/xlink" x="0px" y="0px"
	 viewBox="0 0 300 200" style="enable-background:new 0 0 300 200;" xml:space="preserve">
<style type="text/css">
	.st0{fill:#016CD1;}
	.st1{fill:#F3F9FF;}
	.st2{fill:#F7F8FA;}
</style>
<g>
	<g>
		<path class="st0" d="M203,57.8c65.1,5.7,69.8,11.2,64.1,76.4s-11.2,69.8-76.4,64.1L65.9,187.3c-65.1-5.7-69.8-11.2-64.1-76.4
			S13,41.2,78.2,46.8L203,57.8z"/>
		<g>
			<path class="st1" d="M37.7,139.5c-0.5,0-0.9-0.2-1.2-0.6c-0.3-0.4-0.4-0.8-0.4-1.3l0.4-4.2c0-0.4,0.2-0.9,0.4-1.5
				c0.3-0.6,0.8-1.2,1.6-1.7l10-8.4c3.6-2.3,6.6-4.3,8.9-5.9s4-3.2,5.2-4.6c1.2-1.4,1.8-2.8,1.9-4.2c0.2-1.8-0.2-3.4-1.1-4.6
				c-0.9-1.3-2.5-2-4.7-2.2c-1.5-0.1-2.8,0.1-3.8,0.6c-1.1,0.5-1.9,1.3-2.6,2.3c-0.7,1-1.1,2.1-1.4,3.3c-0.2,0.6-0.5,1-1,1.2
				c-0.5,0.2-0.9,0.3-1.4,0.2l-7.4-0.6c-0.5,0-0.8-0.2-1.1-0.6c-0.3-0.3-0.4-0.7-0.3-1.1c0.2-2.1,0.9-4.1,1.9-6
				c1-1.8,2.4-3.4,4.1-4.8c1.7-1.4,3.7-2.4,6.1-3c2.3-0.7,4.9-0.9,7.7-0.6c3.9,0.3,7.2,1.3,9.7,2.8c2.5,1.5,4.4,3.5,5.6,5.8
				c1.2,2.4,1.6,5,1.4,8c-0.2,2.2-0.8,4.3-1.9,6.1s-2.6,3.6-4.4,5.2c-1.9,1.6-4.1,3.2-6.6,4.9l-9,7.5l19.1,1.7
				c0.5,0,0.9,0.2,1.2,0.6c0.3,0.4,0.4,0.8,0.4,1.3l-0.5,6c0,0.5-0.2,0.9-0.6,1.2c-0.4,0.3-0.8,0.4-1.3,0.4L37.7,139.5z"/>
			<path class="st1" d="M98,145.5c-3.4-0.3-6.2-1-8.5-2.2c-2.3-1.2-4.2-2.7-5.6-4.5c-1.4-1.8-2.4-3.9-3-6.3
				c-0.6-2.3-0.8-4.8-0.7-7.4c0.1-1.3,0.2-2.7,0.3-4.2c0.1-1.6,0.2-3.1,0.4-4.7c0.2-1.6,0.3-3,0.5-4.3c0.3-2.6,1-4.9,2-7.1
				c1-2.2,2.4-4,4.1-5.6c1.7-1.5,3.8-2.7,6.3-3.4s5.4-1,8.6-0.7c3.3,0.3,6.1,1,8.3,2.2c2.3,1.2,4.2,2.7,5.6,4.5
				c1.4,1.8,2.5,3.9,3.1,6.2c0.6,2.3,0.9,4.8,0.8,7.3c-0.1,1.3-0.2,2.8-0.3,4.4c-0.1,1.6-0.3,3.2-0.4,4.7c-0.2,1.6-0.3,3-0.5,4.2
				c-0.4,2.6-1,4.9-2,7.1c-1,2.2-2.3,4.1-4.1,5.6c-1.7,1.6-3.8,2.7-6.3,3.5C104.2,145.6,101.3,145.8,98,145.5z M98.8,136.4
				c2.7,0.2,4.8-0.5,6.2-2.1c1.4-1.7,2.3-4,2.7-7c0.2-1.4,0.3-2.7,0.5-4.2c0.1-1.4,0.3-2.9,0.4-4.3c0.1-1.4,0.2-2.8,0.2-4.1
				c0.2-2.9-0.3-5.3-1.4-7.3c-1.1-1.9-3-3-5.7-3.3c-2.8-0.2-4.8,0.6-6.2,2.3c-1.4,1.7-2.3,4-2.6,6.9c-0.2,1.3-0.3,2.6-0.5,4.1
				c-0.2,1.4-0.3,2.9-0.4,4.3c-0.1,1.4-0.2,2.9-0.3,4.2c-0.2,3,0.3,5.5,1.4,7.4C94.2,135.1,96.1,136.2,98.8,136.4z"/>
			<path class="st1" d="M123.7,147.1c-0.5,0-0.9-0.2-1.2-0.6c-0.3-0.4-0.4-0.8-0.4-1.3l0.4-4.2c0-0.4,0.2-0.9,0.4-1.5
				c0.3-0.6,0.8-1.2,1.6-1.7l10-8.4c3.6-2.3,6.6-4.3,8.9-5.9c2.3-1.6,4-3.2,5.2-4.6c1.2-1.4,1.8-2.8,1.9-4.2
				c0.2-1.8-0.2-3.4-1.1-4.6c-0.9-1.3-2.5-2-4.7-2.2c-1.5-0.1-2.8,0.1-3.8,0.6c-1.1,0.5-1.9,1.3-2.6,2.3c-0.7,1-1.1,2.1-1.4,3.3
				c-0.2,0.6-0.5,1-1,1.2c-0.5,0.2-0.9,0.3-1.4,0.2l-7.4-0.6c-0.5,0-0.8-0.2-1.1-0.6c-0.3-0.3-0.4-0.7-0.3-1.1
				c0.2-2.1,0.9-4.1,1.9-6c1-1.8,2.4-3.4,4.1-4.8c1.7-1.4,3.7-2.4,6.1-3c2.3-0.7,4.9-0.9,7.7-0.6c3.9,0.3,7.2,1.3,9.7,2.8
				s4.4,3.5,5.6,5.8c1.2,2.4,1.6,5,1.4,8c-0.2,2.2-0.8,4.3-1.9,6.1c-1.1,1.8-2.6,3.6-4.4,5.2c-1.9,1.6-4.1,3.2-6.6,4.9l-9,7.5
				l19.1,1.7c0.5,0,0.9,0.2,1.2,0.6c0.3,0.4,0.4,0.8,0.4,1.3l-0.5,6c0,0.5-0.2,0.9-0.6,1.2c-0.4,0.3-0.8,0.4-1.3,0.4L123.7,147.1z"
				/>
			<path class="st1" d="M183.4,131.7c-0.5,0-0.9-0.2-1.1-0.6c-0.3-0.4-0.4-0.8-0.4-1.3l0.4-4.7c0-0.5,0.2-0.9,0.6-1.2
				c0.4-0.3,0.8-0.4,1.2-0.4l26.8,2.3c0.5,0,0.9,0.2,1.2,0.6c0.3,0.4,0.4,0.8,0.4,1.3l-0.4,4.7c0,0.5-0.2,0.9-0.6,1.2
				c-0.4,0.3-0.8,0.4-1.3,0.4L183.4,131.7z M207,155.1c-4.5-0.4-8.2-1.5-11.3-3.3s-5.2-4.3-6.6-7.4c-1.4-3.1-1.9-6.8-1.5-11.1
				l0.9-10.5c0.4-4.3,1.6-7.9,3.5-10.7c1.9-2.8,4.5-4.9,7.7-6.1c3.3-1.2,7.1-1.7,11.6-1.3c3.2,0.3,6.1,0.9,8.6,2
				c2.5,1,4.7,2.3,6.4,3.9c1.7,1.6,3,3.3,3.9,5.3s1.2,4.1,1,6.3c0,0.4-0.1,0.8-0.5,1s-0.7,0.4-1.1,0.3l-8-0.7c-0.6,0-1-0.2-1.3-0.5
				c-0.3-0.3-0.6-0.8-0.8-1.4c-0.5-2.3-1.5-4.1-3-5.1c-1.6-1.1-3.5-1.7-6-1.9c-3-0.3-5.5,0.4-7.3,2c-1.8,1.6-2.9,4.4-3.2,8.5
				l-0.9,9.7c-0.4,4.1,0.2,7.1,1.7,9c1.5,1.9,3.8,2.9,6.8,3.2c2.4,0.2,4.5-0.1,6.2-0.9c1.7-0.8,3-2.3,3.9-4.5c0.3-0.6,0.6-1.1,1-1.3
				c0.4-0.2,0.8-0.3,1.4-0.3l8,0.7c0.4,0,0.8,0.2,1,0.5c0.3,0.3,0.4,0.7,0.3,1.1c-0.2,2.2-0.9,4.2-2,6c-1.2,1.8-2.8,3.3-4.7,4.6
				c-2,1.2-4.3,2.1-7,2.7C213.2,155.2,210.2,155.3,207,155.1z"/>
		</g>
	</g>
	<g>
		<path class="st2" d="M258.8,0.9c34.4-3,37.3-0.6,40.3,33.8s0.6,37.3-33.8,40.3l-62.4,5.5c-34.4,3-37.3,0.6-40.3-33.8
			c-3-34.4-0.6-37.3,33.8-40.3L258.8,0.9z"/>
		<g>
			<path class="st0" d="M178.4,50c-0.3,0-0.6-0.1-0.8-0.2c-0.2-0.2-0.4-0.4-0.4-0.7l-0.3-3.6c0-0.3,0.1-0.6,0.2-0.8
				c0.2-0.2,0.4-0.4,0.7-0.4l13.9-1.2c0.3,0,0.6,0.1,0.8,0.2c0.2,0.2,0.4,0.4,0.4,0.7l0.3,3.6c0,0.3-0.1,0.6-0.2,0.8
				c-0.2,0.2-0.4,0.4-0.7,0.4L178.4,50z"/>
			<path class="st0" d="M209.4,58.4c-2.2,0.2-4.1,0.1-5.7-0.3c-1.6-0.4-3-1-4.1-1.7c-1.1-0.7-1.9-1.6-2.5-2.5c-0.6-1-1-1.9-1.1-2.8
				c0-0.3,0-0.5,0.2-0.7c0.2-0.2,0.4-0.3,0.6-0.3l4.9-0.4c0.3,0,0.6,0,0.8,0.1c0.2,0.1,0.4,0.3,0.6,0.6c0.3,0.7,0.7,1.2,1.3,1.5
				s1.2,0.6,2,0.7s1.5,0.1,2.4,0c1.7-0.1,2.9-0.6,3.8-1.5c0.9-0.9,1.3-2,1.1-3.4c-0.1-1.4-0.7-2.4-1.6-3s-2.2-0.7-3.9-0.6l-4.8,0.4
				c-0.3,0-0.6-0.1-0.8-0.2s-0.4-0.4-0.4-0.7l-0.2-2.2c0-0.4,0-0.7,0.1-0.9c0.1-0.2,0.2-0.4,0.4-0.6l7.1-7.7l-12.6,1.1
				c-0.3,0-0.6-0.1-0.8-0.2s-0.4-0.4-0.4-0.7l-0.3-3.6c0-0.3,0.1-0.6,0.2-0.8c0.2-0.2,0.4-0.4,0.8-0.4l19.8-1.7
				c0.3,0,0.6,0.1,0.8,0.2c0.2,0.2,0.4,0.4,0.4,0.8l0.3,3.2c0,0.3,0,0.6-0.1,0.8c-0.1,0.2-0.2,0.4-0.4,0.6l-6.6,7.8l0.5,0
				c1.8,0,3.4,0.3,4.8,0.9c1.4,0.6,2.6,1.4,3.5,2.6c0.9,1.2,1.4,2.8,1.6,4.7c0.2,2-0.2,3.8-1.2,5.4c-1,1.6-2.4,2.8-4.2,3.8
				C214,57.6,211.9,58.2,209.4,58.4z"/>
			<path class="st0" d="M238,55.9c-2.1,0.2-4,0-5.6-0.4s-2.9-1.2-4-2.2c-1.1-1-1.9-2.2-2.6-3.6c-0.6-1.4-1-2.9-1.3-4.5
				c-0.1-0.8-0.2-1.7-0.3-2.7c-0.1-1-0.2-2-0.3-3s-0.1-1.9-0.2-2.8c-0.1-1.6,0.1-3.2,0.5-4.7c0.4-1.5,1.1-2.8,2-3.9
				c0.9-1.2,2.1-2.1,3.6-2.9s3.3-1.2,5.3-1.4c2.1-0.2,3.9,0,5.5,0.4c1.6,0.5,2.9,1.2,4,2.2c1.1,1,2,2.2,2.6,3.5
				c0.6,1.4,1.1,2.9,1.3,4.5c0.1,0.8,0.2,1.8,0.3,2.8s0.2,2,0.3,3c0.1,1,0.1,1.9,0.2,2.7c0.1,1.6-0.1,3.2-0.5,4.7
				c-0.4,1.5-1,2.8-1.9,4c-0.9,1.2-2.1,2.1-3.6,2.9C241.9,55.2,240.1,55.7,238,55.9z M237.5,50.1c1.7-0.2,2.9-0.8,3.6-2
				c0.7-1.2,1-2.8,0.9-4.7c0-0.9-0.1-1.8-0.2-2.7c-0.1-0.9-0.1-1.8-0.2-2.8c-0.1-0.9-0.2-1.8-0.3-2.6c-0.2-1.8-0.8-3.3-1.7-4.4
				c-0.9-1.1-2.2-1.6-3.9-1.5c-1.8,0.2-3,0.9-3.7,2.1c-0.7,1.2-1,2.8-0.9,4.6c0,0.8,0.1,1.7,0.2,2.6c0.1,0.9,0.1,1.8,0.2,2.8
				s0.2,1.8,0.3,2.7c0.2,1.9,0.8,3.4,1.7,4.5S235.7,50.2,237.5,50.1z"/>
			<path class="st0" d="M259.1,38c-2,0.2-3.7-0.2-4.9-1.2c-1.3-1-2-2.3-2.3-4.1c-0.1-0.8-0.2-1.4-0.2-2c0-0.6-0.1-1.3-0.1-2.1
				c-0.1-1.8,0.4-3.3,1.5-4.5c1-1.2,2.6-1.9,4.7-2.1c2.1-0.2,3.8,0.2,5,1.2s2,2.4,2.2,4.2c0.1,0.8,0.2,1.5,0.3,2.1s0.1,1.3,0.1,2
				c0.1,1.8-0.4,3.3-1.5,4.4S261.2,37.8,259.1,38z M256.9,53.8c-0.7,0.1-1-0.2-1.1-0.8c0-0.2,0-0.3,0.1-0.5l19.5-30.9
				c0.2-0.3,0.4-0.5,0.6-0.7c0.2-0.2,0.5-0.3,0.9-0.3l2.8-0.2c0.7-0.1,1,0.2,1.1,0.8c0,0.2,0,0.3-0.1,0.5l-19.5,30.9
				c-0.2,0.3-0.4,0.5-0.5,0.7c-0.2,0.2-0.5,0.3-0.9,0.3L256.9,53.8z M258.8,34.4c0.6,0,1-0.2,1.3-0.5c0.3-0.3,0.5-0.6,0.7-1
				c0.1-0.4,0.2-0.8,0.2-1.2c0-0.7,0-1.4-0.1-1.9c0-0.5-0.1-1.1-0.2-1.8c-0.1-0.6-0.3-1.2-0.7-1.7c-0.4-0.5-1-0.7-1.9-0.6
				c-0.8,0.1-1.4,0.4-1.7,0.9c-0.3,0.5-0.4,1.1-0.5,1.8c0,0.7,0.1,1.3,0.1,1.8s0.1,1.2,0.2,1.9c0.1,0.4,0.2,0.8,0.4,1.1
				c0.2,0.4,0.4,0.7,0.8,0.9S258.3,34.4,258.8,34.4z M278.8,52.1c-2,0.2-3.7-0.2-4.9-1.2c-1.3-1-2-2.3-2.3-4.1
				c-0.1-0.8-0.2-1.4-0.2-2c0-0.6-0.1-1.3-0.1-2.1c-0.1-1.8,0.4-3.3,1.5-4.5c1-1.2,2.6-1.9,4.7-2.1c2.1-0.2,3.8,0.2,5,1.2
				c1.2,1,2,2.4,2.2,4.2c0.1,0.8,0.2,1.5,0.3,2.1s0.1,1.3,0.1,2.1c0.1,1.8-0.5,3.3-1.6,4.5C282.4,51.2,280.8,51.9,278.8,52.1z
				 M278.5,48.4c0.6,0,1-0.2,1.3-0.5c0.3-0.3,0.5-0.6,0.7-1c0.1-0.4,0.2-0.8,0.2-1.2c0-0.7,0-1.3-0.1-1.9c0-0.5-0.1-1.2-0.3-1.8
				c-0.1-0.6-0.3-1.2-0.7-1.6c-0.4-0.5-1-0.7-1.8-0.6c-0.8,0.1-1.4,0.4-1.7,0.9c-0.3,0.5-0.4,1.1-0.5,1.7c0,0.7,0.1,1.3,0.1,1.9
				c0,0.6,0.1,1.2,0.2,1.8c0.1,0.4,0.2,0.8,0.4,1.2c0.2,0.4,0.4,0.7,0.8,0.9C277.5,48.4,278,48.5,278.5,48.4z"/>
		</g>
	</g>
</g>
</svg>
