<?xml version="1.0" encoding="utf-8"?>
<!-- Generator: Adobe Illustrator 27.0.1, SVG Export Plug-In . SVG Version: 6.00 Build 0)  -->
<svg version="1.1" id="b" xmlns="http://www.w3.org/2000/svg" xmlns:xlink="http://www.w3.org/1999/xlink" x="0px" y="0px"
	 viewBox="0 0 300 200" style="enable-background:new 0 0 300 200;" xml:space="preserve">
<style type="text/css">
	.st0{fill:#016CD1;}
	.st1{fill:#F3F9FF;}
	.st2{fill:#F7F8FA;}
</style>
<g>
	<g>
		<path class="st0" d="M203,57.8c65.1,5.7,69.8,11.2,64.1,76.4s-11.2,69.8-76.4,64.1L65.9,187.3c-65.1-5.7-69.8-11.2-64.1-76.4
			S13,41.2,78.2,46.8L203,57.8z"/>
		<g>
			<path class="st1" d="M28.2,138.7c-0.5,0-0.9-0.2-1.2-0.6c-0.3-0.4-0.4-0.8-0.4-1.3l0.4-4.2c0-0.4,0.2-0.9,0.4-1.5
				c0.3-0.6,0.8-1.2,1.6-1.7l10-8.4c3.6-2.3,6.6-4.3,8.9-5.9s4-3.2,5.2-4.6c1.2-1.4,1.8-2.8,1.9-4.2c0.2-1.8-0.2-3.4-1.1-4.6
				c-0.9-1.3-2.5-2-4.7-2.2c-1.5-0.1-2.8,0.1-3.8,0.6c-1.1,0.5-1.9,1.3-2.6,2.3c-0.7,1-1.1,2.1-1.4,3.3c-0.2,0.6-0.5,1-1,1.2
				c-0.5,0.2-0.9,0.3-1.4,0.2l-7.4-0.6c-0.5,0-0.8-0.2-1.1-0.6c-0.3-0.3-0.4-0.7-0.3-1.1c0.2-2.1,0.9-4.1,1.9-6
				c1-1.8,2.4-3.4,4.1-4.8c1.7-1.4,3.7-2.4,6.1-3s4.9-0.9,7.7-0.6c3.9,0.3,7.2,1.3,9.7,2.8c2.5,1.5,4.4,3.5,5.6,5.8
				c1.2,2.4,1.6,5,1.4,8c-0.2,2.2-0.8,4.3-1.9,6.1c-1.1,1.8-2.6,3.6-4.4,5.2c-1.9,1.6-4.1,3.2-6.6,4.9l-9,7.5l19.1,1.7
				c0.5,0,0.9,0.2,1.2,0.6c0.3,0.4,0.4,0.8,0.4,1.3l-0.5,6c0,0.5-0.2,0.9-0.6,1.2c-0.4,0.3-0.8,0.4-1.3,0.4L28.2,138.7z"/>
			<path class="st1" d="M93.5,144.4c-0.5,0-0.9-0.2-1.1-0.6c-0.3-0.4-0.4-0.8-0.4-1.3l0.7-8.4l-22.1-1.9c-0.5,0-0.9-0.2-1.1-0.6
				c-0.3-0.4-0.4-0.8-0.4-1.3l0.5-5.7c0-0.3,0.1-0.7,0.3-1c0.2-0.4,0.4-0.7,0.7-1l23-26.4c0.7-0.7,1.6-1.1,2.7-1l8.9,0.8
				c0.5,0,0.8,0.2,1.1,0.6c0.3,0.4,0.4,0.8,0.4,1.3l-2.4,27.8l6.2,0.5c0.6,0,1,0.3,1.3,0.6c0.3,0.4,0.4,0.8,0.4,1.2l-0.5,5.9
				c0,0.5-0.2,0.9-0.6,1.2c-0.4,0.3-0.8,0.4-1.2,0.4l-6.3-0.6l-0.7,8.4c0,0.5-0.2,0.9-0.6,1.2c-0.4,0.3-0.8,0.4-1.2,0.4L93.5,144.4z
				 M80.6,124l13.1,1.1l1.6-18.4L80.6,124z"/>
			<path class="st1" d="M116.8,146.5c-0.5,0-0.9-0.2-1.2-0.6c-0.3-0.4-0.4-0.8-0.4-1.3l0.7-7.8c0-0.5,0.2-0.9,0.6-1.2
				c0.4-0.3,0.8-0.4,1.3-0.4l7.8,0.7c0.5,0,0.9,0.2,1.2,0.6c0.3,0.4,0.4,0.8,0.4,1.3l-0.7,7.8c0,0.5-0.2,0.9-0.6,1.2
				c-0.4,0.3-0.8,0.4-1.3,0.4L116.8,146.5z"/>
			<path class="st1" d="M150.5,150.2c-4.2-0.4-7.7-1.4-10.4-3s-4.7-3.6-6-5.9c-1.3-2.3-1.9-4.7-1.7-7.2c0-0.4,0.2-0.8,0.5-1
				s0.7-0.4,1.1-0.3l7.9,0.7c0.6,0,1,0.2,1.3,0.5c0.3,0.3,0.6,0.6,0.7,1.1c0.4,1.3,0.9,2.4,1.6,3.2c0.7,0.9,1.5,1.5,2.5,2
				c1,0.5,2.1,0.7,3.2,0.8c1.5,0.1,2.9-0.1,4.2-0.6c1.3-0.5,2.4-1.4,3.3-2.5c0.9-1.1,1.4-2.6,1.5-4.4c0.1-1.5-0.1-2.9-0.7-4.2
				c-0.6-1.2-1.5-2.2-2.7-3c-1.2-0.8-2.6-1.2-4.2-1.4c-1.2-0.1-2.2-0.1-3,0.2s-1.5,0.5-2,0.8c-0.5,0.4-1,0.7-1.5,0.9
				c-0.4,0.3-0.9,0.4-1.4,0.3l-7.8-0.7c-0.4,0-0.8-0.2-1-0.5c-0.3-0.3-0.4-0.7-0.4-1.1l4.6-24c0.2-0.6,0.4-1.1,0.9-1.4
				c0.4-0.3,0.9-0.4,1.5-0.4l27.2,2.4c0.5,0,0.9,0.2,1.2,0.6c0.3,0.4,0.4,0.8,0.4,1.3l-0.5,5.6c0,0.5-0.2,0.8-0.6,1.1
				s-0.8,0.4-1.3,0.4l-20.2-1.8l-2,10.2c1-0.5,2.2-1,3.6-1.3c1.4-0.4,3.4-0.4,5.8-0.2c2.2,0.2,4.3,0.7,6.3,1.6
				c2,0.9,3.7,2.1,5.1,3.7c1.5,1.5,2.6,3.3,3.3,5.3c0.7,2,1,4.3,0.8,6.7c-0.3,3.4-1.3,6.2-3.2,8.7c-1.8,2.4-4.2,4.2-7.3,5.4
				C158.1,150.1,154.6,150.5,150.5,150.2z"/>
			<path class="st1" d="M193,132.5c-0.5,0-0.9-0.2-1.1-0.6c-0.3-0.4-0.4-0.8-0.4-1.3l0.4-4.7c0-0.5,0.2-0.9,0.6-1.2
				c0.4-0.3,0.8-0.4,1.2-0.4l26.8,2.3c0.5,0,0.9,0.2,1.2,0.6c0.3,0.4,0.4,0.8,0.4,1.3l-0.4,4.7c0,0.5-0.2,0.9-0.6,1.2
				c-0.4,0.3-0.8,0.4-1.3,0.4L193,132.5z M216.6,155.9c-4.5-0.4-8.2-1.5-11.3-3.3c-3-1.8-5.2-4.3-6.6-7.4c-1.4-3.1-1.9-6.8-1.5-11.1
				l0.9-10.5c0.4-4.3,1.6-7.9,3.5-10.7c1.9-2.8,4.5-4.9,7.7-6.1c3.3-1.2,7.1-1.7,11.6-1.3c3.2,0.3,6.1,0.9,8.6,2
				c2.5,1,4.7,2.3,6.4,3.9c1.7,1.6,3,3.3,3.9,5.3c0.8,2,1.2,4.1,1,6.3c0,0.4-0.1,0.8-0.5,1s-0.7,0.4-1.1,0.3l-8-0.7
				c-0.6,0-1-0.2-1.3-0.5c-0.3-0.3-0.6-0.8-0.8-1.4c-0.5-2.3-1.5-4.1-3-5.1c-1.6-1.1-3.5-1.7-6-1.9c-3-0.3-5.5,0.4-7.3,2
				c-1.8,1.6-2.9,4.4-3.2,8.5l-0.9,9.7c-0.4,4.1,0.2,7.1,1.7,9c1.5,1.9,3.8,2.9,6.8,3.2c2.4,0.2,4.5-0.1,6.2-0.9
				c1.7-0.8,3-2.3,3.9-4.5c0.3-0.6,0.6-1.1,1-1.3c0.4-0.2,0.8-0.3,1.4-0.3l8,0.7c0.4,0,0.8,0.2,1,0.5s0.4,0.7,0.3,1.1
				c-0.2,2.2-0.9,4.2-2,6c-1.2,1.8-2.8,3.3-4.7,4.6c-2,1.2-4.3,2.1-7,2.7C222.7,156,219.8,156.2,216.6,155.9z"/>
		</g>
	</g>
	<g>
		<path class="st2" d="M258.8,0.9c34.4-3,37.3-0.6,40.3,33.8s0.6,37.3-33.8,40.3l-62.4,5.5c-34.4,3-37.3,0.6-40.3-33.8
			c-3-34.4-0.6-37.3,33.8-40.3L258.8,0.9z"/>
		<g>
			<path class="st0" d="M182.6,49.7c-0.3,0-0.6-0.1-0.8-0.2c-0.2-0.2-0.4-0.4-0.4-0.7l-0.3-3.6c0-0.3,0.1-0.6,0.2-0.8
				c0.2-0.2,0.4-0.4,0.7-0.4l13.9-1.2c0.3,0,0.6,0.1,0.8,0.2c0.2,0.2,0.4,0.4,0.4,0.7l0.3,3.6c0,0.3-0.1,0.6-0.2,0.8
				c-0.2,0.2-0.4,0.4-0.7,0.4L182.6,49.7z"/>
			<path class="st0" d="M210.8,57.8c-0.3,0-0.6-0.1-0.8-0.2c-0.2-0.2-0.4-0.4-0.4-0.8l-1.9-22.2l-6,5.5c-0.2,0.2-0.5,0.3-0.8,0.3
				c-0.3,0-0.5-0.2-0.8-0.4l-2.5-2.7c-0.2-0.3-0.3-0.5-0.3-0.8c0-0.3,0.2-0.6,0.4-0.8l9.5-8.7c0.2-0.1,0.3-0.2,0.5-0.3
				c0.2-0.1,0.3-0.1,0.6-0.1l4.7-0.4c0.3,0,0.6,0.1,0.8,0.2c0.2,0.2,0.4,0.4,0.4,0.8l2.5,29c0,0.3-0.1,0.6-0.2,0.8
				c-0.2,0.2-0.4,0.4-0.7,0.4L210.8,57.8z"/>
			<path class="st0" d="M233.8,56.3c-2.1,0.2-4,0-5.6-0.4c-1.6-0.5-2.9-1.2-4-2.2c-1.1-1-1.9-2.2-2.6-3.6c-0.6-1.4-1-2.9-1.3-4.5
				c-0.1-0.8-0.2-1.7-0.3-2.7c-0.1-1-0.2-2-0.3-3c-0.1-1-0.1-1.9-0.2-2.8c-0.1-1.6,0.1-3.2,0.5-4.7c0.4-1.5,1.1-2.8,2-3.9
				c0.9-1.2,2.1-2.1,3.6-2.9c1.5-0.7,3.3-1.2,5.3-1.4c2.1-0.2,3.9,0,5.5,0.4c1.6,0.5,2.9,1.2,4,2.2c1.1,1,2,2.2,2.6,3.5
				c0.6,1.4,1.1,2.9,1.3,4.5c0.1,0.8,0.2,1.8,0.3,2.8c0.1,1,0.2,2,0.3,3c0.1,1,0.1,1.9,0.2,2.7c0.1,1.6-0.1,3.2-0.5,4.7
				c-0.4,1.5-1,2.8-1.9,4c-0.9,1.2-2.1,2.1-3.6,2.9C237.7,55.6,235.9,56.1,233.8,56.3z M233.3,50.5c1.7-0.2,2.9-0.8,3.6-2
				c0.7-1.2,1-2.8,0.9-4.7c0-0.9-0.1-1.8-0.2-2.7s-0.1-1.8-0.2-2.8c-0.1-0.9-0.2-1.8-0.3-2.6c-0.2-1.8-0.8-3.3-1.7-4.4
				s-2.2-1.6-3.9-1.5c-1.8,0.2-3,0.9-3.7,2.1c-0.7,1.2-1,2.8-0.9,4.6c0,0.8,0.1,1.7,0.2,2.6c0.1,0.9,0.1,1.8,0.2,2.8
				c0.1,0.9,0.2,1.8,0.3,2.7c0.2,1.9,0.8,3.4,1.7,4.5S231.5,50.6,233.3,50.5z"/>
			<path class="st0" d="M255,38.4c-2,0.2-3.7-0.2-4.9-1.2s-2-2.3-2.3-4.1c-0.1-0.8-0.2-1.4-0.2-2c0-0.6-0.1-1.3-0.1-2.1
				c-0.1-1.8,0.4-3.3,1.5-4.5c1-1.2,2.6-1.9,4.7-2.1c2.1-0.2,3.8,0.2,5,1.2s2,2.4,2.2,4.2c0.1,0.8,0.2,1.5,0.3,2.1
				c0.1,0.6,0.1,1.3,0.1,2c0.1,1.8-0.4,3.3-1.5,4.4C258.5,37.5,257,38.2,255,38.4z M252.7,54.1c-0.7,0.1-1-0.2-1.1-0.8
				c0-0.2,0-0.3,0.1-0.5l19.5-30.9c0.2-0.3,0.4-0.5,0.6-0.7c0.2-0.2,0.5-0.3,0.9-0.3l2.8-0.2c0.7-0.1,1,0.2,1.1,0.8
				c0,0.2,0,0.3-0.1,0.5l-19.5,30.9c-0.2,0.3-0.4,0.5-0.5,0.7c-0.2,0.2-0.5,0.3-0.9,0.3L252.7,54.1z M254.7,34.8
				c0.6,0,1-0.2,1.3-0.5c0.3-0.3,0.5-0.6,0.7-1c0.1-0.4,0.2-0.8,0.2-1.2c0-0.7,0-1.4-0.1-1.9c0-0.5-0.1-1.1-0.2-1.8
				c-0.1-0.6-0.3-1.2-0.7-1.7c-0.4-0.5-1-0.7-1.9-0.6c-0.8,0.1-1.4,0.4-1.7,0.9s-0.4,1.1-0.5,1.8c0,0.7,0.1,1.3,0.1,1.8
				c0,0.6,0.1,1.2,0.2,1.9c0.1,0.4,0.2,0.8,0.4,1.1c0.2,0.4,0.4,0.7,0.8,0.9C253.6,34.7,254.1,34.8,254.7,34.8z M274.7,52.5
				c-2,0.2-3.7-0.2-4.9-1.2c-1.3-1-2-2.3-2.3-4.1c-0.1-0.8-0.2-1.4-0.2-2c0-0.6-0.1-1.3-0.1-2.1c-0.1-1.8,0.4-3.3,1.5-4.5
				s2.6-1.9,4.7-2.1c2.1-0.2,3.8,0.2,5,1.2c1.2,1,2,2.4,2.2,4.2c0.1,0.8,0.2,1.5,0.3,2.1c0.1,0.6,0.1,1.3,0.1,2.1
				c0.1,1.8-0.5,3.3-1.6,4.5C278.2,51.6,276.7,52.3,274.7,52.5z M274.3,48.8c0.6,0,1-0.2,1.3-0.5c0.3-0.3,0.5-0.6,0.7-1
				c0.1-0.4,0.2-0.8,0.2-1.2c0-0.7,0-1.3-0.1-1.9c0-0.5-0.1-1.2-0.3-1.8c-0.1-0.6-0.3-1.2-0.7-1.6c-0.4-0.5-1-0.7-1.8-0.6
				c-0.8,0.1-1.4,0.4-1.7,0.9c-0.3,0.5-0.4,1.1-0.5,1.7c0,0.7,0.1,1.3,0.1,1.9s0.1,1.2,0.2,1.8c0.1,0.4,0.2,0.8,0.4,1.2
				c0.2,0.4,0.4,0.7,0.8,0.9C273.3,48.8,273.8,48.8,274.3,48.8z"/>
		</g>
	</g>
</g>
</svg>
