<?xml version="1.0" encoding="UTF-8"?><svg id="b" xmlns="http://www.w3.org/2000/svg" viewBox="0 0 115.8497 16.0013"><g id="c"><g><path d="M71.5087,2.9476c.5212,0,1.0113,.3457,1.0113,.8805,0,1.0885-.9147,1.6602-1.8584,1.6602-.5216,0-1.0118-.3455-1.0118-.8807,0-1.0886,.9147-1.66,1.8588-1.66Z" style="fill:#242424;"/><path d="M80.6355,2.9476c.5212,0,1.0113,.3457,1.0113,.8805,0,1.0885-.9147,1.6602-1.8582,1.6602-.5216,0-1.0118-.3455-1.0118-.8807,0-1.0886,.9147-1.66,1.8587-1.66Z" style="fill:#242424;"/><path d="M8.2758,11.6725c-1.0129,.9141-2.2943,1.3715-3.8449,1.3715-1.5774,0-2.7534-.4888-3.5289-1.4653C.1269,10.6011-.1487,9.405,.0754,7.9887c.2152-1.3442,.829-2.4731,1.842-3.3876,1.0124-.9143,2.2945-1.3712,3.8445-1.3712,1.022,0,1.8934,.2352,2.615,.7058,.7215,.4706,1.228,1.0866,1.5194,1.8485,.2908,.7614,.365,1.5955,.2217,2.5004-.2152,1.3441-.8292,2.4738-1.8421,3.388Zm-5.3506-1.6268c.3406,.4747,.8922,.7125,1.6536,.7125,.8246,0,1.5037-.2465,2.0369-.7398,.533-.4928,.8623-1.1472,.9881-1.962,.1166-.7442,.0046-1.3533-.3362-1.8289-.3403-.4746-.8918-.7119-1.6537-.7119-.8244,0-1.5012,.2464-2.0298,.7392-.5286,.4928-.8604,1.1472-.9947,1.9626-.1165,.7438-.0047,1.3537,.3359,1.8283Z" style="fill:#242424;"/><path d="M5.7642,2.1957c1.2209,0,2.2908,.294,3.1799,.8737,.2602,.1699,.4928,.3607,.7097,.5627,.0188-.0141,.0376-.0296,.0563-.0416,.5985-.3929,1.0176-1.0862,1.0176-2.3206,0-.4259-.1917-1.0103-.4299-1.27-.1936,.1919-.392,.3258-.7021,.4481-.1819,.0736-.4304,.1116-.7,.1116H4.7928c-.5933,0-1.0196,.0739-1.262,.1686-.722,.2905-.9859,.7938-.9859,1.4288,0,.2692,.0471,.5067,.1232,.7056,.9114-.4421,1.9464-.667,3.0962-.667Z" style="fill:#e2050d;"/><path d="M22.4717,4.0362l-.3762,2.3529h1.7475l-.2959,1.8824h-1.7475l-.3495,2.1641c-.0449,.26-.0135,.4459,.094,.5579,.1076,.1121,.309,.1682,.6049,.1682,.3852,0,.7528-.0586,1.1023-.1747l-.2823,1.8015c-.4211,.1697-.9811,.2555-1.6803,.2555-.708,0-1.2771-.1838-1.7072-.5514-.4303-.3676-.5828-.9457-.4574-1.7344l.3902-2.4867h-1.0219l.2959-1.8824h1.0215l.2959-1.8147,2.3661-.5382Z" style="fill:#242424;"/><path d="M31.5321,6.3891l-1.0215,6.4529h-2.0167l.1212-.7392c-.5736,.6271-1.2728,.9412-2.0975,.9412-.8154,0-1.4248-.2626-1.8282-.7866-.4029-.5241-.5463-1.1675-.4303-1.9294l.6186-3.9389h2.2852l-.5913,3.7643c-.0984,.6276,.1435,.9406,.7261,.9406,.5105,0,.9452-.206,1.3036-.6181l.6453-4.0868h2.2853Z" style="fill:#242424;"/><polygon points="35.7397 3.0284 34.1805 12.8421 31.8947 12.8421 33.4545 3.0284 35.7397 3.0284" style="fill:#242424;"/><path d="M36.2771,7.9352c.2599-.4394,.5716-.7795,.9346-1.022,.3631-.2418,.7372-.4231,1.1225-.5443,.3854-.1211,.7751-.1818,1.1694-.1818,.5201,0,.9772,.0808,1.3715,.2425,.3944,.1616,.7058,.3786,.9346,.6518,.2282,.2733,.3944,.5853,.4973,.9347,.1031,.3494,.1409,.719,.1141,1.1088-.0267,.3897-.1121,.782-.2554,1.1765h-4.2479c.1343,.6634,.7392,.9946,1.8146,.9946,.8247,0,1.4967-.1251,2.0167-.3766l-.2692,1.748c-.6094,.2511-1.389,.3768-2.3387,.3768-1.1028,0-1.9808-.3271-2.6352-.9815s-.9008-1.5279-.7392-2.6216c.0803-.5644,.2508-1.0666,.5105-1.5057Zm3.9395,.2686c-.1345-.242-.3943-.3625-.7802-.3625-.3312,0-.6205,.103-.8668,.309-.2464,.206-.3963,.4661-.4504,.7796h2.1777c.0808-.2419,.0544-.484-.0802-.7261Z" style="fill:#242424;"/><path d="M46.6414,3.4313l-.5514,3.4285c.6003-.4484,1.2098-.6726,1.8283-.6726,.8154,0,1.4209,.2626,1.8152,.7866,.3944,.5241,.5333,1.1674,.4165,1.9294l-.6317,3.9389h-2.2858l.5918-3.7643c.0985-.6276-.1389-.9406-.7125-.9406-.4574,0-.8962,.21-1.3178,.6311l-.6452,4.0737h-2.2853l1.4926-9.4108h2.2853Z" style="fill:#242424;"/><path d="M54.9225,4.0362l-.3762,2.3529h1.7475l-.2958,1.8824h-1.7476l-.3495,2.1641c-.0449,.26-.0136,.4459,.094,.5579,.1076,.1121,.309,.1682,.6049,.1682,.3852,0,.7528-.0586,1.1022-.1747l-.2822,1.8015c-.4211,.1697-.9811,.2555-1.6804,.2555-.7079,0-1.2769-.1838-1.7072-.5514-.4301-.3676-.5827-.9457-.4574-1.7344l.3903-2.4867h-1.022l.296-1.8824h1.0215l.2959-1.8147,2.3661-.5382Z" style="fill:#242424;"/><polygon points="68.5433 12.8421 69.5647 6.3892 71.8504 6.3892 70.8284 12.8421 68.5433 12.8421" style="fill:#242424;"/><path d="M77.8465,6.2679l-.35,2.1913c-.5105-.1252-.9811-.1121-1.4112,.0405-.4301,.1525-.7756,.4079-1.035,.7665l-.565,3.5759h-2.2853l1.022-6.4529h2.016l-.1343,.8603c.5827-.7795,1.4966-1.1068,2.7428-.9815Z" style="fill:#242424;"/><path d="M78.9556,15.5242c-.4524,.3181-1.069,.4771-1.8486,.4771-.4928,0-.932-.0762-1.3173-.2287l.2953-1.855c.1707,.0625,.3812,.0938,.6323,.0938,.2777,0,.4908-.0646,.6387-.1949,.1474-.1297,.2438-.3514,.2889-.6655l1.0754-6.7619h2.2853l-1.1693,7.4209c-.1343,.8244-.4282,1.3961-.8806,1.7142Z" style="fill:#242424;"/><path d="M84.2313,13.044c-1.0124,0-1.7475-.3585-2.2044-1.0754-.457-.7171-.6095-1.5511-.457-2.5011,.1435-.8871,.522-1.6555,1.1361-2.3055,.6134-.6498,1.4138-.9749,2.3993-.9749,.5286,0,.9724,.1211,1.3309,.3635,.3585,.2414,.6141,.5373,.7666,.8868l.161-1.0483h2.0167l-1.022,6.453h-2.0161l.1343-.8735c-.4928,.7168-1.2417,1.0754-2.2454,1.0754Zm-.1949-2.3327c.175,.3,.4731,.4504,.8943,.4504,.6361,0,1.1516-.2868,1.546-.8604l.2418-1.4652c-.0535-.2242-.1767-.408-.3695-.5515-.1928-.1433-.4328-.2151-.7195-.2151-.4837,0-.88,.1566-1.1896,.4706-.309,.3141-.4994,.6947-.5711,1.1427-.0631,.3852-.0072,.7288,.1676,1.0285Z" style="fill:#242424;"/><path d="M90.617,7.1485c.2062-.2645,.4614-.4615,.766-.5913,.3049-.1298,.6094-.2242,.9143-.2823,.3045-.0586,.6272-.0879,.9679-.0879,.8964,0,1.7254,.1839,2.4867,.5515l-.2821,1.8147c-.6812-.4565-1.4028-.6858-2.1642-.6858-.4484,0-.6903,.1082-.726,.3232-.0268,.1616,.0691,.2978,.2888,.41,.2195,.1121,.4909,.2191,.8134,.3226,.3226,.1031,.6432,.2263,.9614,.3697,.3181,.1435,.5711,.3671,.7595,.672,.1883,.3049,.2464,.6816,.1746,1.129-.0627,.3858-.1903,.713-.3833,.9815-.1923,.2692-.4457,.4706-.7594,.6049-.3135,.1343-.6406,.2287-.9815,.2828-.3403,.0535-.7301,.0808-1.1695,.0808-1.1113,0-1.9807-.1974-2.6079-.5918l.2822-1.8147c.6094,.4565,1.3981,.6858,2.366,.6858,.5646,0,.865-.1082,.9009-.3233,.0267-.1525-.0697-.2842-.2893-.3963-.2192-.1121-.4927-.2197-.82-.3226-.3271-.1031-.6473-.2309-.9609-.3833-.3141-.1519-.567-.3812-.7598-.6851-.1924-.305-.253-.6726-.1813-1.1028,.0626-.3766,.1971-.6966,.4035-.9614Z" style="fill:#242424;"/><path d="M100.4164,4.0362l-.3767,2.3529h1.7476l-.2954,1.8824h-1.7481l-.3494,2.1641c-.045,.26-.0136,.4459,.0938,.5579,.1076,.1121,.3096,.1682,.6055,.1682,.3852,0,.7528-.0586,1.1023-.1747l-.2823,1.8015c-.4216,.1697-.9815,.2555-1.6803,.2555-.7085,0-1.2775-.1838-1.7078-.5514-.43-.3676-.5826-.9457-.4569-1.7344l.3898-2.4867h-1.0215l.2954-1.8824h1.022l.2959-1.8147,2.3661-.5382Z" style="fill:#242424;"/><path d="M109.4778,6.3891l-1.0215,6.4529h-2.0167l.1212-.7392c-.5736,.6271-1.2728,.9412-2.0975,.9412-.8154,0-1.4248-.2626-1.8282-.7866-.4029-.5241-.5464-1.1675-.4303-1.9294l.6186-3.9389h2.2852l-.5913,3.7643c-.0984,.6276,.1435,.9406,.7261,.9406,.5105,0,.9452-.206,1.3036-.6181l.6453-4.0868h2.2853Z" style="fill:#242424;"/><path d="M110.7142,7.1485c.2061-.2647,.4614-.4615,.7665-.5913,.3046-.1298,.6095-.2242,.9139-.2823,.3049-.0586,.6277-.0879,.9679-.0879,.8963,0,1.7253,.1839,2.4872,.5515l-.2822,1.8147c-.6811-.4565-1.4027-.6858-2.1645-.6858-.4479,0-.6903,.1082-.7261,.3232-.0267,.1616,.0697,.2978,.2893,.41,.2197,.1121,.4909,.2191,.8134,.3226,.3226,.1031,.6427,.2263,.9609,.3697,.318,.1435,.5716,.3671,.7599,.672,.1877,.3049,.2464,.6816,.1746,1.129-.0631,.3858-.1903,.713-.3833,.9815-.1928,.2692-.4457,.4706-.7594,.6049-.3141,.1343-.6412,.2287-.9815,.2828-.3409,.0535-.7306,.0808-1.1694,.0808-1.1114,0-1.9808-.1974-2.6085-.5918l.2824-1.8147c.6094,.4565,1.3981,.6858,2.366,.6858,.565,0,.8649-.1082,.9009-.3233,.0273-.1525-.0692-.2842-.2889-.3963-.2197-.1121-.4928-.2197-.82-.3226-.3271-.1031-.6477-.2309-.9614-.3833-.3135-.1519-.5671-.3812-.7595-.6851-.1927-.305-.2534-.6726-.1817-1.1028,.0631-.3766,.1975-.6968,.4035-.9614Z" style="fill:#242424;"/><path d="M14.1905,3.4313l-.5509,3.4285c.6005-.4484,1.2099-.6726,1.8283-.6726,.8156,0,1.4204,.2626,1.8147,.7866,.3944,.5241,.5333,1.1674,.4166,1.9294l-.6317,3.9389h-2.2852l.5913-3.7643c.0989-.6276-.1389-.9406-.7125-.9406-.457,0-.8963,.21-1.3174,.6311l-.6452,4.0737h-2.2853l1.4921-9.4108h2.2852Z" style="fill:#242424;"/><polygon points="69.3236 3.4313 65.6534 8.2311 67.9119 12.8421 65.2635 12.8421 63.5565 9.2127 62.3062 9.2127 61.7282 12.8421 59.2409 12.8421 60.7334 3.4313 63.2201 3.4313 62.6557 6.9941 63.9059 6.9941 66.5946 3.4313 69.3236 3.4313" style="fill:#242424;"/></g></g></svg>