<?xml version="1.0" encoding="UTF-8"?>
<svg id="b" xmlns="http://www.w3.org/2000/svg" version="1.1" viewBox="0 0 191.9 51.2">
  <defs>
    <style>
      .cls-1 {
        fill: #f70000;
      }

      .cls-1, .cls-2 {
        stroke-width: 0px;
      }

      .cls-2 {
        fill: #fff;
      }
    </style>
  </defs>
  <path class="cls-1" d="M166.3,51.2H25.6C11.5,51.2,0,39.7,0,25.6S11.5,0,25.6,0h140.7C180.4,0,191.9,11.5,191.9,25.6s-11.5,25.6-25.6,25.6Z"/>
  <g>
    <polygon class="cls-2" points="38.9 26.8 32.8 26.8 32.8 30.6 40 30.6 40 33.5 29 33.5 29 17.6 40 17.6 40 20.6 32.8 20.6 32.8 23.9 38.9 23.9 38.9 26.8"/>
    <polygon class="cls-2" points="55.1 33.5 51.3 33.5 45.7 23.6 45.7 33.5 41.8 33.5 41.8 17.6 45.7 17.6 51.3 27.5 51.3 17.6 55.1 17.6 55.1 33.5"/>
    <polygon class="cls-2" points="70.9 33.5 67.1 33.5 61.5 23.6 61.5 33.5 57.6 33.5 57.6 17.6 61.5 17.6 67.1 27.5 67.1 17.6 70.9 17.6 70.9 33.5"/>
    <path class="cls-2" d="M85.9,17.6v10.4c0,1.2-.3,2.2-.8,3.1s-1.2,1.5-2.2,2-2.1.7-3.3.7c-1.9,0-3.5-.5-4.6-1.5s-1.7-2.4-1.7-4.1v-10.5h3.9v10.6c0,1.7.9,2.6,2.4,2.6s1.4-.2,1.8-.7.6-1.1.6-2.1v-10.4h3.8Z"/>
    <path class="cls-2" d="M96.3,29.3c0-.6-.2-1-.6-1.3s-1.1-.6-2.1-1-1.8-.7-2.4-1c-2.1-1-3.1-2.4-3.1-4.2s.3-1.7.8-2.3,1.2-1.2,2.2-1.6,2-.6,3.2-.6,2.2.2,3.1.6,1.6,1,2.1,1.7.8,1.6.8,2.6h-3.8c0-.6-.2-1.2-.6-1.5s-.9-.5-1.6-.5-1.2.2-1.6.5-.6.7-.6,1.2.2.8.7,1.1,1.2.7,2.3,1,2,.7,2.7,1.1c1.7,1,2.6,2.4,2.6,4.1s-.5,2.5-1.6,3.3-2.5,1.2-4.3,1.2-2.5-.2-3.5-.7-1.8-1.1-2.4-1.9-.8-1.7-.8-2.8h3.8c0,.9.2,1.5.7,1.9.4.4,1.2.6,2.1.6s1.1-.1,1.5-.4.6-.7.6-1.2Z"/>
    <polygon class="cls-2" points="114.5 20.6 109.7 20.6 109.7 33.5 105.9 33.5 105.9 20.6 101.2 20.6 101.2 17.6 114.5 17.6 114.5 20.6"/>
    <path class="cls-2" d="M123.2,30.6h-5.3l-.9,3h-4.1l5.8-15.9h3.6l5.9,15.9h-4.1l-.9-3ZM118.9,27.6h3.4l-1.7-5.5-1.7,5.5Z"/>
    <polygon class="cls-2" points="134.5 17.6 138 28.7 141.6 17.6 146.6 17.6 146.6 33.5 142.8 33.5 142.8 29.8 143.2 22.2 139.3 33.5 136.8 33.5 132.9 22.2 133.3 29.8 133.3 33.5 129.4 33.5 129.4 17.6 134.5 17.6"/>
    <path class="cls-2" d="M158.1,30.6h-5.3l-.9,3h-4.1l5.8-15.9h3.6l5.9,15.9h-4.1l-.9-3ZM153.8,27.6h3.4l-1.7-5.5-1.7,5.5Z"/>
  </g>
</svg>