<?xml version="1.0" encoding="UTF-8"?>
<svg id="b" data-name="Layer 2" xmlns="http://www.w3.org/2000/svg" viewBox="0 0 160 160">
  <g id="c" data-name="main">
    <g>
      <circle cx="80" cy="80" r="80" style="fill: #e3000f; stroke-width: 0px;"/>
      <g>
        <path d="M32.3989,57.666c1.0767.4912,1.8984,1.1523,2.4639,1.9844.5649.832.8481,1.7598.8481,2.7832,0,1.3018-.3682,2.3896-1.104,3.2646-.7363.875-1.7764,1.5039-3.1201,1.8877,1.4507.1494,2.6343.667,3.5518,1.5518.917.8857,1.376,2.1396,1.376,3.7607,0,1.2158-.3198,2.3311-.96,3.3438-.6396,1.0137-1.584,1.8184-2.832,2.416-1.2476.5967-2.7358.8955-4.4639.8955-3.1572,0-5.6318-1.0879-7.4238-3.2637l2.7197-2.6562c.7251.7256,1.4346,1.2539,2.1284,1.584.6929.3311,1.4556.4961,2.2876.4961,1.0029,0,1.813-.2773,2.4321-.832.6187-.5547.9282-1.3223.9282-2.3037,0-1.1094-.2935-1.9043-.8804-2.3838-.5869-.4805-1.4668-.7207-2.6396-.7207h-1.792l.5439-3.4873h1.248c.96,0,1.7168-.2451,2.272-.7363.5542-.4902.832-1.1836.832-2.0801,0-.7891-.2563-1.4023-.7681-1.8398-.5122-.4375-1.2163-.6562-2.1123-.6562-1.5146,0-2.9229.6299-4.2236,1.8877l-2.4961-2.7197c2.0479-1.9404,4.48-2.9121,7.2959-2.9121,1.5146,0,2.8105.2461,3.8882.7363Z" style="fill: #ffce1f; stroke-width: 0px;"/>
        <polygon points="53.0864 62.6904 55.8701 65.4736 52.1582 69.1221 55.8701 72.9297 53.0864 75.7139 49.4062 71.8418 45.6303 75.7139 42.8461 72.9297 46.5263 69.2822 42.8461 65.4736 45.6303 62.6904 49.2783 66.5615 53.0864 62.6904" style="fill: #ffce1f; stroke-width: 0px;"/>
        <polygon points="73.4384 57.3779 73.4384 79.0098 68.4785 79.0098 68.4785 62.3057 63.8383 65.1543 61.6303 61.794 68.9262 57.3779 73.4384 57.3779" style="fill: #ffce1f; stroke-width: 0px;"/>
        <path d="M90.8427,59.8418c1.397,1.9414,2.0962,4.7363,2.0962,8.3838,0,3.627-.6992,6.4219-2.0962,8.3848-1.3975,1.9629-3.4189,2.9434-6.064,2.9434s-4.667-.9805-6.064-2.9434c-1.3975-1.9629-2.0962-4.7578-2.0962-8.3848,0-3.6475.6987-6.4424,2.0962-8.3838,1.397-1.9404,3.4185-2.9121,6.064-2.9121s4.6665.9717,6.064,2.9121ZM83.0507,61.3779c-.4268.4697-.7412,1.248-.9438,2.3359-.2031,1.0879-.3042,2.5918-.3042,4.5117,0,1.9209.1011,3.4297.3042,4.5283.2026,1.0986.5171,1.8828.9438,2.3525.4268.4688,1.0024.7031,1.728.7031.7251,0,1.3008-.2285,1.728-.6875.4263-.459.7412-1.2373.9438-2.3359s.3042-2.6182.3042-4.5605c0-1.9404-.1016-3.4609-.3042-4.5596s-.5176-1.8721-.9438-2.3203c-.4272-.4473-1.0029-.6719-1.728-.6719-.7256,0-1.3013.2354-1.728.7041Z" style="fill: #ffce1f; stroke-width: 0px;"/>
        <path d="M109.2202,59.8418c1.397,1.9414,2.0962,4.7363,2.0962,8.3838,0,3.627-.6992,6.4219-2.0962,8.3848-1.3975,1.9629-3.4189,2.9434-6.064,2.9434s-4.667-.9805-6.064-2.9434c-1.3975-1.9629-2.0962-4.7578-2.0962-8.3848,0-3.6475.6987-6.4424,2.0962-8.3838,1.397-1.9404,3.4185-2.9121,6.064-2.9121s4.6665.9717,6.064,2.9121ZM101.4282,61.3779c-.4268.4697-.7412,1.248-.9438,2.3359-.2031,1.0879-.3042,2.5918-.3042,4.5117,0,1.9209.1011,3.4297.3042,4.5283.2026,1.0986.5171,1.8828.9438,2.3525.4268.4688,1.0024.7031,1.728.7031.7251,0,1.3008-.2285,1.728-.6875.4263-.459.7412-1.2373.9438-2.3359s.3042-2.6182.3042-4.5605c0-1.9404-.1016-3.4609-.3042-4.5596s-.5176-1.8721-.9438-2.3203c-.4272-.4473-1.0029-.6719-1.728-.6719-.7256,0-1.3013.2354-1.728.7041Z" style="fill: #ffce1f; stroke-width: 0px;"/>
        <path d="M129.5556,74.9297c.7681.6299,1.7812.9443,3.04.9443,1.5361,0,3.0928-.459,4.6719-1.376v3.8721c-.896.4053-1.7441.7041-2.5439.8955-.7998.1924-1.6694.2881-2.6079.2881-2.4751,0-4.5176-.6611-6.1279-1.9834-1.6113-1.3232-2.6724-3.1895-3.1841-5.6006h-2.752l.7041-2.624h1.9199v-2.2715h-2.624l.7041-2.6562h2.1118c.6187-2.3252,1.7759-4.1543,3.4722-5.4883,1.6958-1.333,3.6743-2,5.936-2,2.2397,0,4.2769.6191,6.1118,1.8564l-1.792,3.0723c-.6616-.4482-1.3232-.7734-1.9839-.9766-.6616-.2021-1.376-.3037-2.144-.3037-1.0454,0-1.9575.3203-2.7363.96s-1.3599,1.5996-1.7437,2.8799h7.7759l-.7041,2.6562h-7.2959v2.2715h6.8159l-.6719,2.624h-5.9839c.3198,1.3447.8638,2.3311,1.6318,2.96Z" style="fill: #ffce1f; stroke-width: 0px;"/>
        <path d="M27.8212,97.2715c0,1.3936-.2407,2.6162-.7227,3.667-.4819,1.0518-1.1704,1.8594-2.0654,2.4219-.895.5635-1.9253.8447-3.0908.8447-1.1523,0-2.1792-.2812-3.0811-.8447-.9019-.5625-1.5981-1.3652-2.0898-2.4072-.4917-1.041-.7407-2.2422-.7471-3.6035v-.8008c0-1.3867.2456-2.6104.7373-3.6719.4917-1.0605,1.1851-1.873,2.0801-2.4365.895-.5625,1.9224-.8447,3.0811-.8447s2.186.2783,3.0811.835,1.5869,1.3574,2.0752,2.4023.7358,2.2607.7422,3.6475v.791ZM25.5263,86.1973c0,.7168-.2065,1.3125-.6201,1.7871-.4136.4756-.9326.7129-1.5576.7129-.2539,0-.4736-.0273-.6592-.083-.1855-.0547-.4492-.1807-.791-.376s-.5825-.3125-.7227-.3516-.2944-.0586-.4639-.0586c-.2476,0-.4575.0928-.6299.2783s-.2588.4287-.2588.7275l-1.4551-.0781c0-.7158.2065-1.3184.6201-1.8066s.9292-.7324,1.5479-.7324c.3711,0,.8188.1465,1.3428.4395s.9556.4395,1.2939.4395c.2476,0,.459-.0928.6348-.2783s.2637-.4307.2637-.7373l1.4551.1172ZM25.3505,96.5293c0-1.5752-.2979-2.7832-.8936-3.623s-1.4404-1.2598-2.5342-1.2598c-1.0679,0-1.9028.4189-2.5049,1.2549-.6021.8369-.9097,2.0205-.9229,3.5498v.8203c0,1.5625.3042,2.7705.9131,3.623.6089.8535,1.4536,1.2793,2.5342,1.2793,1.0938,0,1.9351-.416,2.5244-1.25.5894-.833.8838-2.0508.8838-3.6523v-.7422Z" style="fill: #fff; stroke-width: 0px;"/>
        <path d="M32.3916,94.5957c.7749-.8984,1.7544-1.3477,2.9395-1.3477,2.2524,0,3.395,1.2861,3.4277,3.8574v6.9043h-2.373v-6.8164c0-.7285-.1577-1.2451-.4736-1.5479s-.7798-.4541-1.3916-.4541c-.9507,0-1.6602.4238-2.1289,1.2695v7.5488h-2.373v-15h2.373v5.5859Z" style="fill: #fff; stroke-width: 0px;"/>
        <path d="M44.0219,90.875v2.5684h1.8652v1.7578h-1.8652v5.8984c0,.4043.0796.6953.2393.874.1597.1797.4443.2686.8545.2686.2734,0,.5503-.0322.8301-.0977v1.8359c-.5405.1504-1.061.2246-1.5625.2246-1.8228,0-2.7344-1.0059-2.7344-3.0176v-5.9863h-1.7383v-1.7578h1.7383v-2.5684h2.373Z" style="fill: #fff; stroke-width: 0px;"/>
        <path d="M53.8481,102.9746c-.6968.8203-1.686,1.2305-2.9688,1.2305-1.146,0-2.0132-.335-2.6025-1.0059-.5894-.6699-.8838-1.6406-.8838-2.9102v-6.8457h2.373v6.8164c0,1.3418.5566,2.0117,1.6699,2.0117,1.1523,0,1.9302-.4131,2.334-1.2402v-7.5879h2.373v10.5664h-2.2363l-.0586-1.0352Z" style="fill: #fff; stroke-width: 0px;"/>
        <rect x="58.5351" y="89.0098" width="2.373" height="15" style="fill: #fff; stroke-width: 0px;"/>
        <path d="M67.9428,104.2051c-1.5039,0-2.7231-.4736-3.6572-1.4209s-1.4014-2.208-1.4014-3.7842v-.293c0-1.0547.2036-1.9971.6104-2.8271s.978-1.4756,1.7139-1.9385c.7358-.4619,1.5562-.6934,2.4609-.6934,1.439,0,2.5503.459,3.335,1.377s1.1768,2.2168,1.1768,3.8965v.957h-6.9043c.0718.873.3628,1.5625.874,2.0703s1.1538.7617,1.9287.7617c1.0874,0,1.9727-.4395,2.6562-1.3184l1.2793,1.2207c-.4233.6318-.9878,1.1221-1.6943,1.4697-.7065.3486-1.499.5225-2.3779.5225ZM67.6596,95.1524c-.6509,0-1.1768.2285-1.5771.6836-.4004.4561-.6558,1.0908-.7666,1.9043h4.5215v-.1758c-.0522-.7939-.2637-1.3945-.6348-1.8018-.3711-.4062-.8853-.6104-1.543-.6104Z" style="fill: #fff; stroke-width: 0px;"/>
        <path d="M76.3486,94.5957c.7749-.8984,1.7544-1.3477,2.9395-1.3477,2.2524,0,3.395,1.2861,3.4277,3.8574v6.9043h-2.373v-6.8164c0-.7285-.1577-1.2451-.4736-1.5479s-.7798-.4541-1.3916-.4541c-.9507,0-1.6602.4238-2.1289,1.2695v7.5488h-2.373v-15h2.373v5.5859Z" style="fill: #fff; stroke-width: 0px;"/>
        <path d="M89.6044,104.2051c-1.5039,0-2.7231-.4736-3.6572-1.4209s-1.4014-2.208-1.4014-3.7842v-.293c0-1.0547.2036-1.9971.6104-2.8271s.978-1.4756,1.7139-1.9385c.7358-.4619,1.5562-.6934,2.4609-.6934,1.439,0,2.5503.459,3.335,1.377s1.1768,2.2168,1.1768,3.8965v.957h-6.9043c.0718.873.3628,1.5625.874,2.0703s1.1538.7617,1.9287.7617c1.0874,0,1.9727-.4395,2.6562-1.3184l1.2793,1.2207c-.4233.6318-.9878,1.1221-1.6943,1.4697-.7065.3486-1.499.5225-2.3779.5225ZM89.3212,95.1524c-.6509,0-1.1768.2285-1.5771.6836-.4004.4561-.6558,1.0908-.7666,1.9043h4.5215v-.1758c-.0522-.7939-.2637-1.3945-.6348-1.8018-.3711-.4062-.8853-.6104-1.543-.6104Z" style="fill: #fff; stroke-width: 0px;"/>
        <path d="M109.7172,98.834c0,1.6348-.3711,2.9385-1.1133,3.9111-.7422.9736-1.7383,1.46-2.9883,1.46-1.1587,0-2.0864-.3809-2.7832-1.1426v5.0098h-2.373v-14.6289h2.1875l.0977,1.0742c.6968-.8457,1.644-1.2695,2.8418-1.2695,1.2891,0,2.2998.4805,3.0322,1.4404.7324.9609,1.0986,2.2939,1.0986,3.999v.1465ZM107.354,98.6289c0-1.0547-.21-1.8906-.6299-2.5098-.4199-.6182-1.0205-.9277-1.8018-.9277-.9702,0-1.6665.4004-2.0898,1.2012v4.6875c.4297.8203,1.1328,1.2305,2.1094,1.2305.7554,0,1.3462-.3037,1.7725-.9131.4263-.6084.6396-1.5312.6396-2.7686Z" style="fill: #fff; stroke-width: 0px;"/>
        <path d="M111.1796,98.6289c0-1.0352.2051-1.9678.6152-2.7979s.9863-1.4678,1.7285-1.9141c.7422-.4453,1.5952-.6689,2.5586-.6689,1.4258,0,2.583.459,3.4717,1.377s1.3687,2.1357,1.4404,3.6523l.0098.5566c0,1.042-.2002,1.9727-.6006,2.793s-.9731,1.4551-1.7188,1.9043-1.6064.6738-2.583.6738c-1.4907,0-2.6841-.4961-3.5791-1.4893-.895-.9922-1.3428-2.3154-1.3428-3.9697v-.1172ZM113.5527,98.834c0,1.0879.2246,1.9385.6738,2.5537s1.0742.9229,1.875.9229,1.4243-.3125,1.8701-.9375.6689-1.5391.6689-2.7441c0-1.0674-.2295-1.9141-.6885-2.5391s-1.0825-.9375-1.8701-.9375c-.7749,0-1.3901.3076-1.8457.9229s-.6836,1.5352-.6836,2.7588Z" style="fill: #fff; stroke-width: 0px;"/>
        <path d="M122.4165,98.6289c0-1.0352.2051-1.9678.6152-2.7979s.9863-1.4678,1.7285-1.9141c.7422-.4453,1.5952-.6689,2.5586-.6689,1.4258,0,2.583.459,3.4717,1.377s1.3687,2.1357,1.4404,3.6523l.0098.5566c0,1.042-.2002,1.9727-.6006,2.793s-.9731,1.4551-1.7188,1.9043-1.6064.6738-2.583.6738c-1.4907,0-2.6841-.4961-3.5791-1.4893-.895-.9922-1.3428-2.3154-1.3428-3.9697v-.1172ZM124.7895,98.834c0,1.0879.2246,1.9385.6738,2.5537s1.0742.9229,1.875.9229,1.4243-.3125,1.8701-.9375.6689-1.5391.6689-2.7441c0-1.0674-.2295-1.9141-.6885-2.5391s-1.0825-.9375-1.8701-.9375c-.7749,0-1.3901.3076-1.8457.9229s-.6836,1.5352-.6836,2.7588Z" style="fill: #fff; stroke-width: 0px;"/>
        <rect x="134.1967" y="89.0098" width="2.373" height="15" style="fill: #fff; stroke-width: 0px;"/>
        <path d="M142.0483,90.875v2.5684h1.8652v1.7578h-1.8652v5.8984c0,.4043.0796.6953.2393.874.1597.1797.4443.2686.8545.2686.2734,0,.5503-.0322.8301-.0977v1.8359c-.5405.1504-1.061.2246-1.5625.2246-1.8228,0-2.7344-1.0059-2.7344-3.0176v-5.9863h-1.7383v-1.7578h1.7383v-2.5684h2.373Z" style="fill: #fff; stroke-width: 0px;"/>
      </g>
    </g>
  </g>
</svg>