<?xml version="1.0" encoding="UTF-8"?>
<svg id="b" data-name="Layer 2" xmlns="http://www.w3.org/2000/svg" viewBox="0 0 667.1123 211.3809">
  <g id="c" data-name="main">
    <g>
      <polygon points="31.4399 6.6602 30.48 13.0801 15.48 13.0801 15.48 23.8809 28.5596 23.8809 28.5596 30.2402 15.48 30.2402 15.48 41.7002 31.5596 41.7002 31.5596 48.1807 6.6597 48.1807 6.6597 6.6602 31.4399 6.6602" style="fill: #fff; stroke-width: 0px;"/>
      <path d="M60.5762,17.9707c1.5601,1.7002,2.3398,4.0498,2.3398,7.0498v23.1602h-8.52v-21.7207c0-1.7188-.2905-2.9297-.8696-3.6299-.5806-.6992-1.4507-1.0498-2.6104-1.0498-1.1997,0-2.29.3701-3.27,1.1104-.9805.7402-1.9302,1.8506-2.8496,3.3301v21.96h-8.52v-31.7998h7.3799l.6602,4.0195c1.3198-1.6396,2.769-2.8799,4.3496-3.7197,1.5801-.8398,3.3696-1.2598,5.3701-1.2598,2.7993,0,4.98.8496,6.54,2.5498Z" style="fill: #fff; stroke-width: 0px;"/>
      <path d="M93.6777,17.9707c1.5601,1.7002,2.3398,4.0498,2.3398,7.0498v23.1602h-8.52v-21.7207c0-1.7188-.2905-2.9297-.8696-3.6299-.5806-.6992-1.4507-1.0498-2.6104-1.0498-1.1997,0-2.29.3701-3.27,1.1104-.9805.7402-1.9302,1.8506-2.8496,3.3301v21.96h-8.52v-31.7998h7.3799l.6602,4.0195c1.3198-1.6396,2.769-2.8799,4.3496-3.7197,1.5801-.8398,3.3696-1.2598,5.3701-1.2598,2.7993,0,4.98.8496,6.54,2.5498Z" style="fill: #fff; stroke-width: 0px;"/>
      <path d="M128.6157,48.1807h-7.3804l-.4199-4.2598c-1.1201,1.7598-2.4805,3.0703-4.0801,3.9297-1.6001.8594-3.46,1.29-5.5801,1.29-2.8799,0-5.0801-.8701-6.5996-2.6104-1.521-1.7402-2.2803-4.1699-2.2803-7.29v-22.8594h8.52v21.7793c0,1.6807.2793,2.8711.8398,3.5703.5601.7002,1.4404,1.0498,2.6401,1.0498,2.2803,0,4.2197-1.3799,5.8203-4.1396v-22.2598h8.52v31.7998Z" style="fill: #fff; stroke-width: 0px;"/>
      <path d="M157.7925,19.2607l-3.2397,4.8594c-2.6802-1.6797-5.3203-2.5195-7.9199-2.5195-1.4009,0-2.481.2607-3.2402.7803-.7603.5195-1.1396,1.2197-1.1396,2.0996,0,.6406.1694,1.1807.5098,1.6201.3394.4404.9795.8604,1.9199,1.2598.9395.4004,2.3496.8809,4.23,1.4404,3.3599.9199,5.8594,2.1504,7.5,3.6895,1.6396,1.54,2.46,3.6504,2.46,6.3301,0,2.1211-.6104,3.96-1.8301,5.5205-1.2202,1.5596-2.8706,2.75-4.9497,3.5693-2.0806.8193-4.4009,1.2305-6.96,1.2305-2.6807,0-5.1206-.4111-7.3203-1.2305-2.2002-.8193-4.0796-1.9502-5.6396-3.3896l4.1997-4.6797c2.6797,2.0801,5.52,3.1191,8.52,3.1191,1.5996,0,2.8696-.3086,3.8101-.9297.9395-.6191,1.4102-1.4697,1.4102-2.5498,0-.8398-.1802-1.5-.54-1.9805-.3599-.4795-1.02-.9297-1.98-1.3496s-2.46-.9092-4.5-1.4697c-3.2007-.8799-5.5708-2.1299-7.1099-3.75-1.5405-1.6201-2.3101-3.6299-2.3101-6.0303,0-1.7998.519-3.4199,1.5601-4.8604,1.0396-1.4395,2.5093-2.5693,4.4097-3.3896,1.8994-.8193,4.1104-1.2295,6.6299-1.2295,4.4795,0,8.3198,1.2803,11.52,3.8398Z" style="fill: #fff; stroke-width: 0px;"/>
      <path d="M183.3706,46.6807c-1.1606.8008-2.4707,1.4102-3.9302,1.8301-1.4604.4199-2.9102.6299-4.3501.6299-3.2803-.04-5.7598-.9795-7.4399-2.8203-1.6802-1.8389-2.52-4.5391-2.52-8.0996v-15.8398h-4.7397v-6h4.7397v-6.96l8.52-1.0205v7.9805h7.3198l-.8398,6h-6.48v15.6592c0,1.5215.2598,2.6211.7798,3.3008.5195.6807,1.3203,1.0195,2.4004,1.0195s2.2798-.3604,3.5996-1.0801l2.9404,5.4004Z" style="fill: #fff; stroke-width: 0px;"/>
      <path d="M211.5938,42.0908c.3599.5801.96,1.0098,1.7998,1.29l-1.7998,5.6396c-1.8809-.1602-3.4106-.5996-4.5898-1.3203-1.1807-.7197-2.0908-1.8389-2.73-3.3594-2.0806,3.2002-5.2607,4.7998-9.54,4.7998-3.1606,0-5.6704-.9102-7.5303-2.7305-1.8599-1.8193-2.79-4.1895-2.79-7.1094,0-3.4805,1.2603-6.1396,3.7803-7.9805,2.52-1.8389,6.1396-2.7598,10.8599-2.7598h3.6602v-1.5605c0-1.959-.4409-3.3193-1.3203-4.0791-.8804-.7598-2.3398-1.1406-4.3799-1.1406-2.2407,0-5.04.5605-8.3999,1.6797l-1.9199-5.6992c3.96-1.5605,7.8794-2.3398,11.7598-2.3398,4.3203,0,7.5.9297,9.54,2.7891,2.04,1.8604,3.0601,4.6309,3.0601,8.3105v12.8398c0,1.2402.1802,2.1504.54,2.7305ZM202.7139,39.4805v-6.0596h-2.8203c-4.6001,0-6.8999,1.7197-6.8999,5.1592,0,1.4014.3496,2.4902,1.0503,3.2705.6992.7803,1.71,1.1699,3.0298,1.1699,2.3999,0,4.2798-1.1797,5.6401-3.54Z" style="fill: #fff; stroke-width: 0px;"/>
      <path d="M225.8735,40.3506c.9795.9805,1.4697,2.1895,1.4697,3.6299,0,.8008-.1299,1.6299-.3896,2.4902-.2607.8604-.6899,1.9893-1.29,3.3896l-3.8999,8.7598h-4.98l2.5195-10.4395c-.6802-.4395-1.2202-1.0293-1.6196-1.7705-.4004-.7393-.6001-1.5498-.6001-2.4297,0-1.4404.4893-2.6494,1.4697-3.6299.98-.9795,2.1904-1.4697,3.6304-1.4697,1.479,0,2.7095.4902,3.6899,1.4697Z" style="fill: #fff; stroke-width: 0px;"/>
      <path d="M256.2021,2.7607v45.4199h-8.52V3.7207l8.52-.96ZM275.522,16.3809l-10.1401,13.9795,11.04,17.8203h-9.6602l-10.2598-17.4004,10.2002-14.3994h8.8198Z" style="fill: #fff; stroke-width: 0px;"/>
      <path d="M304.6753,34.8604h-19.8599c.2793,2.8799,1.0596,4.9199,2.3398,6.1201,1.2798,1.2002,3.02,1.7998,5.2202,1.7998,1.3594,0,2.6401-.2188,3.8398-.6602,1.2002-.4395,2.4995-1.1396,3.8999-2.0996l3.54,4.7998c-3.5605,2.8799-7.5806,4.3203-12.0601,4.3203-5.0005,0-8.8403-1.5-11.52-4.5-2.6802-3-4.02-7.0596-4.02-12.1807,0-3.2393.5703-6.1494,1.7104-8.7295,1.1396-2.5801,2.7993-4.6094,4.98-6.0898,2.1797-1.4795,4.77-2.2197,7.77-2.2197,4.5195,0,8.0396,1.4199,10.5596,4.2598,2.52,2.8408,3.7803,6.8008,3.7803,11.8799,0,.4004-.0601,1.5-.1802,3.2998ZM296.3955,29.1602c0-5.2793-1.9004-7.9199-5.7002-7.9199-1.7607,0-3.1304.6504-4.1099,1.9502-.9805,1.3008-1.5703,3.4102-1.77,6.3301h11.5801v-.3604Z" style="fill: #fff; stroke-width: 0px;"/>
      <path d="M332.3887,19.2607l-3.2397,4.8594c-2.6802-1.6797-5.3203-2.5195-7.9199-2.5195-1.4009,0-2.481.2607-3.2402.7803-.7603.5195-1.1396,1.2197-1.1396,2.0996,0,.6406.1694,1.1807.5098,1.6201.3394.4404.9795.8604,1.9199,1.2598.9395.4004,2.3496.8809,4.23,1.4404,3.3599.9199,5.8594,2.1504,7.5,3.6895,1.6396,1.54,2.46,3.6504,2.46,6.3301,0,2.1211-.6104,3.96-1.8301,5.5205-1.2202,1.5596-2.8706,2.75-4.9497,3.5693-2.0806.8193-4.4009,1.2305-6.96,1.2305-2.6807,0-5.1206-.4111-7.3203-1.2305-2.2002-.8193-4.0796-1.9502-5.6396-3.3896l4.1997-4.6797c2.6797,2.0801,5.52,3.1191,8.52,3.1191,1.5996,0,2.8696-.3086,3.8101-.9297.9395-.6191,1.4102-1.4697,1.4102-2.5498,0-.8398-.1802-1.5-.54-1.9805-.3599-.4795-1.02-.9297-1.98-1.3496s-2.46-.9092-4.5-1.4697c-3.2007-.8799-5.5708-2.1299-7.1099-3.75-1.5405-1.6201-2.3101-3.6299-2.3101-6.0303,0-1.7998.519-3.4199,1.5601-4.8604,1.0396-1.4395,2.5093-2.5693,4.4097-3.3896,1.8994-.8193,4.1104-1.2295,6.6299-1.2295,4.4795,0,8.3198,1.2803,11.52,3.8398Z" style="fill: #fff; stroke-width: 0px;"/>
      <polygon points="379.4873 16.3809 369.2871 48.1807 359.147 48.1807 348.7671 16.3809 358.0073 16.3809 364.3071 41.5205 370.7271 16.3809 379.4873 16.3809" style="fill: #fff; stroke-width: 0px;"/>
      <path d="M406.3789,19.8906c2.6792,2.9805,4.0195,7.1094,4.0195,12.3896,0,3.3604-.6099,6.3105-1.8296,8.8506-1.2207,2.54-2.9805,4.5098-5.2803,5.9092-2.3003,1.4004-5.0098,2.1006-8.1299,2.1006-4.7607,0-8.4902-1.4902-11.1899-4.4697-2.7002-2.9795-4.0503-7.1104-4.0503-12.3906,0-3.3594.6094-6.3096,1.8301-8.8496,1.2197-2.54,2.9795-4.5098,5.2803-5.9102,2.2993-1.3994,5.0298-2.0996,8.1899-2.0996,4.7598,0,8.4795,1.4902,11.1602,4.4697ZM396.4487,9.3604c-.6206-.2793-1.3501-.6797-2.1899-1.2002-.5205-.3994-.9702-.6895-1.3501-.8701-.3809-.1797-.7705-.2695-1.1699-.2695-.6406,0-1.2002.2207-1.6802.6602-.48.4404-.9805,1.1201-1.5,2.04l-4.3799-2.1602c.7998-1.96,1.8394-3.5596,3.1201-4.7998,1.2793-1.2393,2.7197-1.8604,4.3198-1.8604.9199,0,1.6997.1504,2.3398.4502.6396.2998,1.3677.6983,2.1602,1.2295.5252.3521.96.6299,1.3198.8105.3604.1797.7397.2695,1.1401.2695.6396,0,1.1899-.21,1.6499-.6299.4595-.4199.9697-1.0889,1.5303-2.0098l4.3799,2.1602c-.8008,2.04-1.8403,3.6504-3.1201,4.8301-1.2803,1.1797-2.7402,1.7695-4.3799,1.7695-.8398,0-1.5703-.1396-2.1899-.4199ZM390.3887,24.3301c-1.0605,1.7012-1.5898,4.3506-1.5898,7.9502s.5293,6.25,1.5898,7.9502c1.0596,1.7002,2.6494,2.5498,4.77,2.5498s3.7095-.8496,4.77-2.5498c1.0596-1.7002,1.5898-4.3496,1.5898-7.9502s-.52-6.249-1.5601-7.9502c-1.0405-1.6992-2.6201-2.5498-4.7397-2.5498-2.1602,0-3.7705.8506-4.8301,2.5498Z" style="fill: #fff; stroke-width: 0px;"/>
      <path d="M423.167,1.4102c.98.9404,1.4702,2.1299,1.4702,3.5703s-.4902,2.6309-1.4702,3.5703c-.9805.9404-2.23,1.4092-3.75,1.4092s-2.7598-.4688-3.7197-1.4092c-.96-.9395-1.4399-2.1299-1.4399-3.5703s.48-2.6299,1.4399-3.5703c.96-.9395,2.1992-1.4102,3.7197-1.4102s2.7695.4707,3.75,1.4102ZM423.7373,16.3809v31.7998h-8.52v-31.7998h8.52Z" style="fill: #fff; stroke-width: 0px;"/>
      <path d="M457.9849,3.7207v44.46h-7.5l-.4805-3.9004c-2.2402,3.2402-5.2798,4.8604-9.1196,4.8604-3.9209,0-6.9106-1.5098-8.9702-4.5303-2.0605-3.0195-3.0898-7.1299-3.0898-12.3301,0-3.2793.5298-6.1895,1.5898-8.7295,1.0596-2.54,2.5698-4.5303,4.5303-5.9707,1.959-1.4395,4.2197-2.1592,6.7798-2.1592,2.9595,0,5.5396,1.0596,7.7402,3.1797V2.7607l8.52.96ZM446.7046,41.8506c.96-.6201,1.8799-1.5898,2.7603-2.9102v-14.2197c-.8403-1-1.6904-1.75-2.5503-2.25-.8604-.5-1.8506-.75-2.9697-.75-1.9604,0-3.4907.8604-4.5903,2.5801-1.1006,1.7197-1.6499,4.3799-1.6499,7.9795,0,3.8008.4893,6.501,1.4702,8.1006.9795,1.5996,2.3896,2.3994,4.23,2.3994,1.2393,0,2.3398-.3096,3.2998-.9297Z" style="fill: #fff; stroke-width: 0px;"/>
      <path d="M489.6826,42.0908c.3599.5801.96,1.0098,1.7998,1.29l-1.7998,5.6396c-1.8809-.1602-3.4106-.5996-4.5898-1.3203-1.1807-.7197-2.0908-1.8389-2.73-3.3594-2.0806,3.2002-5.2607,4.7998-9.54,4.7998-3.1606,0-5.6704-.9102-7.5303-2.7305-1.8599-1.8193-2.79-4.1895-2.79-7.1094,0-3.4805,1.2603-6.1396,3.7803-7.9805,2.52-1.8389,6.1396-2.7598,10.8599-2.7598h3.6602v-1.5605c0-1.959-.4409-3.3193-1.3203-4.0791-.8804-.7598-2.3398-1.1406-4.3799-1.1406-2.2407,0-5.04.5605-8.3999,1.6797l-1.9199-5.6992c3.96-1.5605,7.8794-2.3398,11.7598-2.3398,4.3203,0,7.5.9297,9.54,2.7891,2.04,1.8604,3.0601,4.6309,3.0601,8.3105v12.8398c0,1.2402.1802,2.1504.54,2.7305ZM480.8027,39.4805v-6.0596h-2.8203c-4.6001,0-6.8999,1.7197-6.8999,5.1592,0,1.4014.3496,2.4902,1.0503,3.2705.6992.7803,1.71,1.1699,3.0298,1.1699,2.3999,0,4.2798-1.1797,5.6401-3.54Z" style="fill: #fff; stroke-width: 0px;"/>
      <path d="M521.9146,19.8604c2.0601,2.9609,3.0903,7.1006,3.0903,12.4199,0,3.2803-.5103,6.1904-1.5303,8.7305s-2.4805,4.5293-4.3799,5.9697c-1.9004,1.4404-4.1309,2.1602-6.6899,2.1602-3.48,0-6.2607-1.3594-8.3398-4.0801l-.4805,3.1201h-7.5596V3.7207l8.52-.96v17.04c.999-1.3594,2.2593-2.4307,3.7798-3.21,1.5195-.7803,3.1592-1.1699,4.9199-1.1699,3.7202,0,6.6094,1.4795,8.6699,4.4395ZM516.1245,32.2803c0-3.8789-.4902-6.6094-1.4697-8.1895-.9805-1.5801-2.3906-2.3701-4.23-2.3701-2.2803,0-4.2402,1.3604-5.8799,4.0801v13.6201c1.3994,2.2793,3.2192,3.4199,5.46,3.4199,4.0796,0,6.1196-3.5195,6.1196-10.5605Z" style="fill: #fff; stroke-width: 0px;"/>
      <path d="M14.9399,120.001c0,3.1992-.4902,5.8291-1.4702,7.8896-.9805,2.0596-2.3306,3.7197-4.0498,4.9805-1.7202,1.2598-3.9209,2.4092-6.6001,3.4492l-2.8198-6.1797c1.5596-.7197,2.7793-1.4307,3.6597-2.1299.8794-.7002,1.5601-1.6406,2.04-2.8203s.7202-2.7295.7202-4.6494v-29.1602h8.52v28.6201ZM14.3696,76.4111c.98.9395,1.4702,2.1299,1.4702,3.5693,0,1.4404-.4902,2.6309-1.4702,3.5703-.9805.9404-2.23,1.4102-3.75,1.4102s-2.7598-.4697-3.7197-1.4102c-.96-.9395-1.4399-2.1299-1.4399-3.5703,0-1.4395.48-2.6299,1.4399-3.5693s2.1992-1.4102,3.7197-1.4102,2.7695.4707,3.75,1.4102Z" style="fill: #fff; stroke-width: 0px;"/>
      <path d="M46.457,117.0908c.3599.5801.96,1.0107,1.7998,1.29l-1.7998,5.6396c-1.8809-.1602-3.4106-.5996-4.5898-1.3203-1.1807-.7197-2.0908-1.8389-2.73-3.3594-2.0806,3.2002-5.2607,4.7998-9.54,4.7998-3.1606,0-5.6704-.9102-7.5303-2.7295-1.8599-1.8203-2.79-4.1904-2.79-7.1104,0-3.4805,1.2603-6.1396,3.7803-7.9805,2.52-1.8389,6.1396-2.7598,10.8599-2.7598h3.6602v-1.5596c0-1.96-.4409-3.3203-1.3203-4.0801-.8804-.7598-2.3398-1.1406-4.3799-1.1406-2.2407,0-5.04.5605-8.3999,1.6807l-1.9199-5.7002c3.96-1.5605,7.8794-2.3398,11.7598-2.3398,4.3203,0,7.5.9297,9.54,2.79,2.04,1.8594,3.0601,4.6299,3.0601,8.3096v12.8398c0,1.2402.1802,2.1514.54,2.7305ZM37.5771,114.4805v-6.0596h-2.8203c-4.6001,0-6.8999,1.7197-6.8999,5.1602,0,1.4004.3496,2.4893,1.0503,3.2695.6992.7803,1.71,1.1699,3.0298,1.1699,2.3999,0,4.2798-1.1797,5.6401-3.54Z" style="fill: #fff; stroke-width: 0px;"/>
      <path d="M54.5752,121.8906c-1.4399-1.5-2.1602-3.6299-2.1602-6.3896v-36.7803l8.52-.96v37.5c0,1.4004.5796,2.0996,1.7402,2.0996.6392,0,1.1997-.1201,1.6797-.3594l1.7402,6.0596c-1.6406.7197-3.4604,1.0801-5.46,1.0801-2.6006,0-4.6201-.75-6.0601-2.25Z" style="fill: #fff; stroke-width: 0px;"/>
      <path d="M97.3486,93.1211c-2.0806.7998-5.1406,1.1992-9.1802,1.1992,1.9995.8809,3.48,1.9707,4.4399,3.2705s1.4399,2.9307,1.4399,4.8896c0,2.04-.5303,3.8701-1.5898,5.4902-1.0605,1.6201-2.5801,2.8906-4.5601,3.8096-1.98.9209-4.29,1.3809-6.9302,1.3809-1.4004,0-2.6396-.1406-3.7197-.4209-.8008.5205-1.2002,1.2207-1.2002,2.1006,0,.6406.2495,1.1504.75,1.5303.5.3799,1.4702.5693,2.9102.5693h4.8599c2.3599,0,4.4297.3906,6.21,1.1699,1.7798.7803,3.1597,1.8604,4.1401,3.2402.9795,1.3799,1.4702,2.9492,1.4702,4.71,0,3.2402-1.3906,5.7695-4.1704,7.5898-2.7803,1.8203-6.79,2.7305-12.0298,2.7305-3.7603,0-6.7305-.3906-8.9102-1.1699-2.1807-.7803-3.7104-1.9111-4.5898-3.3906-.8804-1.4795-1.3198-3.3398-1.3198-5.5801h7.6196c0,1.04.1997,1.8701.6001,2.4902.3994.6201,1.1299,1.0801,2.1899,1.3799,1.0596.3008,2.5894.4502,4.5903.4502,2.7598,0,4.6895-.3398,5.79-1.0195,1.0996-.6807,1.6499-1.6406,1.6499-2.8799,0-1.1211-.4199-1.9805-1.2603-2.5801-.8398-.6006-2.0801-.9004-3.7197-.9004h-4.6802c-3.1602,0-5.52-.5898-7.0801-1.7695s-2.3398-2.6709-2.3398-4.4707c0-1.1191.3301-2.209.9897-3.2695.6602-1.0596,1.5698-1.9502,2.7305-2.6699-1.9604-1.0801-3.3901-2.3496-4.29-3.8105-.9004-1.459-1.3501-3.21-1.3501-5.25,0-2.3193.5698-4.3496,1.71-6.0898s2.7393-3.0801,4.7998-4.0195c2.0601-.9395,4.4102-1.4102,7.0503-1.4102,3.2793.0801,5.979-.2002,8.0996-.8398,2.1201-.6396,4.3804-1.6396,6.7803-3l2.1001,6.54ZM76.7383,97.6504c-.9399,1.0205-1.4097,2.4102-1.4097,4.1699,0,1.8008.4697,3.2207,1.4097,4.2607.9395,1.04,2.2295,1.5596,3.8701,1.5596,1.7192,0,3.02-.5,3.8999-1.5.8794-.999,1.3203-2.4795,1.3203-4.4404,0-3.7197-1.7607-5.5791-5.2803-5.5791-1.6001,0-2.8706.5098-3.8101,1.5293Z" style="fill: #fff; stroke-width: 0px;"/>
      <path d="M126.6699,94.8311c1.9395,2.9395,2.9102,7.0703,2.9102,12.3896,0,3.2402-.501,6.1406-1.5,8.7002-1.0005,2.5605-2.4507,4.5703-4.3501,6.0293-1.9004,1.46-4.1504,2.1904-6.75,2.1904-3.2402,0-5.8604-1.1396-7.8599-3.4199v14.7002l-8.52.96v-45h7.5l.4199,3.7197c1.1997-1.5596,2.6099-2.7295,4.23-3.5098s3.2896-1.1699,5.0098-1.1699c3.9995,0,6.9697,1.4697,8.9102,4.4102ZM120.6997,107.2803c0-3.8398-.46-6.5596-1.3799-8.1592-.9204-1.5996-2.3203-2.4004-4.1997-2.4004-1.2002,0-2.3101.3701-3.3301,1.1104s-1.9106,1.7305-2.6699,2.9697v13.8604c1.3594,2.0801,3.1396,3.1191,5.3398,3.1191,4.1597,0,6.2397-3.499,6.2397-10.5Z" style="fill: #fff; stroke-width: 0px;"/>
      <path d="M159.9277,117.0908c.3599.5801.96,1.0107,1.7998,1.29l-1.7998,5.6396c-1.8809-.1602-3.4106-.5996-4.5898-1.3203-1.1807-.7197-2.0908-1.8389-2.73-3.3594-2.0806,3.2002-5.2607,4.7998-9.54,4.7998-3.1606,0-5.6704-.9102-7.5303-2.7295-1.8599-1.8203-2.79-4.1904-2.79-7.1104,0-3.4805,1.2603-6.1396,3.7803-7.9805,2.52-1.8389,6.1396-2.7598,10.8599-2.7598h3.6602v-1.5596c0-1.96-.4409-3.3203-1.3203-4.0801-.8804-.7598-2.3398-1.1406-4.3799-1.1406-2.2407,0-5.04.5605-8.3999,1.6807l-1.9199-5.7002c3.96-1.5605,7.8794-2.3398,11.7598-2.3398,4.3203,0,7.5.9297,9.54,2.79,2.04,1.8594,3.0601,4.6299,3.0601,8.3096v12.8398c0,1.2402.1802,2.1514.54,2.7305ZM151.0479,114.4805v-6.0596h-2.8203c-4.6001,0-6.8999,1.7197-6.8999,5.1602,0,1.4004.3496,2.4893,1.0503,3.2695.6992.7803,1.71,1.1699,3.0298,1.1699,2.3999,0,4.2798-1.1797,5.6401-3.54Z" style="fill: #fff; stroke-width: 0px;"/>
      <path d="M168.0454,121.8906c-1.4399-1.5-2.1602-3.6299-2.1602-6.3896v-36.7803l8.52-.96v37.5c0,1.4004.5796,2.0996,1.7402,2.0996.6392,0,1.1997-.1201,1.6797-.3594l1.7402,6.0596c-1.6406.7197-3.4604,1.0801-5.46,1.0801-2.6006,0-4.6201-.75-6.0601-2.25Z" style="fill: #fff; stroke-width: 0px;"/>
      <path d="M184.2749,121.8906c-1.4399-1.5-2.1602-3.6299-2.1602-6.3896v-36.7803l8.52-.96v37.5c0,1.4004.5796,2.0996,1.7402,2.0996.6392,0,1.1997-.1201,1.6797-.3594l1.7402,6.0596c-1.6406.7197-3.4604,1.0801-5.46,1.0801-2.6006,0-4.6201-.75-6.0601-2.25Z" style="fill: #fff; stroke-width: 0px;"/>
      <path d="M207.0801,76.4111c.98.9395,1.4702,2.1299,1.4702,3.5693,0,1.4404-.4902,2.6309-1.4702,3.5703-.9805.9404-2.23,1.4102-3.75,1.4102s-2.7598-.4697-3.7197-1.4102c-.96-.9395-1.4399-2.1299-1.4399-3.5703,0-1.4395.48-2.6299,1.4399-3.5693s2.1992-1.4102,3.7197-1.4102,2.7695.4707,3.75,1.4102ZM207.6504,91.3809v31.7998h-8.52v-31.7998h8.52Z" style="fill: #fff; stroke-width: 0px;"/>
      <polygon points="255.0493 81.6611 254.0894 88.0811 239.0894 88.0811 239.0894 98.8809 252.1689 98.8809 252.1689 105.2402 239.0894 105.2402 239.0894 116.7002 255.1689 116.7002 255.1689 123.1807 230.269 123.1807 230.269 81.6611 255.0493 81.6611" style="fill: #fff; stroke-width: 0px;"/>
      <path d="M300.9316,123.1807h-8.6401l-.8999-16.8604c-.2803-5.04-.4199-9.3193-.4199-12.8398,0-1.8799.0195-3.2402.0601-4.0801l-7.02,29.3398h-8.3403l-7.5-29.3994c.1597,2.4404.2402,5.1807.2402,8.2197,0,3.2402-.0806,6.2207-.2402,8.9404l-.8999,16.6797h-8.5801l3.2402-41.5195h11.2197l6.8403,28.6191,6.4199-28.6191h11.3398l3.1802,41.5195Z" style="fill: #fff; stroke-width: 0px;"/>
      <path d="M314.3291,76.4111c.98.9395,1.4702,2.1299,1.4702,3.5693,0,1.4404-.4902,2.6309-1.4702,3.5703-.9805.9404-2.23,1.4102-3.75,1.4102s-2.7598-.4697-3.7197-1.4102c-.96-.9395-1.4399-2.1299-1.4399-3.5703,0-1.4395.48-2.6299,1.4399-3.5693s2.1992-1.4102,3.7197-1.4102,2.7695.4707,3.75,1.4102ZM314.8994,91.3809v31.7998h-8.52v-31.7998h8.52Z" style="fill: #fff; stroke-width: 0px;"/>
      <path d="M328.9214,115.3506c.9795.9805,1.4697,2.1904,1.4697,3.6299,0,.8008-.1299,1.6309-.3896,2.4902-.2607.8604-.6899,1.9893-1.29,3.3896l-3.8999,8.7607h-4.98l2.5195-10.4404c-.6802-.4395-1.2202-1.0293-1.6196-1.7695-.4004-.7402-.6001-1.5498-.6001-2.4307,0-1.4395.4893-2.6494,1.4697-3.6299.98-.9795,2.1904-1.4697,3.6304-1.4697,1.479,0,2.7095.4902,3.6899,1.4697Z" style="fill: #fff; stroke-width: 0px;"/>
      <path d="M359.1899,120.001c0,3.1992-.4902,5.8291-1.4702,7.8896-.9805,2.0596-2.3306,3.7197-4.0498,4.9805-1.7202,1.2598-3.9209,2.4092-6.6001,3.4492l-2.8198-6.1797c1.5596-.7197,2.7793-1.4307,3.6597-2.1299.8794-.7002,1.5601-1.6406,2.04-2.8203s.7202-2.7295.7202-4.6494v-29.1602h8.52v28.6201ZM358.6196,76.4111c.98.9395,1.4702,2.1299,1.4702,3.5693,0,1.4404-.4902,2.6309-1.4702,3.5703-.9805.9404-2.23,1.4102-3.75,1.4102s-2.7598-.4697-3.7197-1.4102c-.96-.9395-1.4399-2.1299-1.4399-3.5703,0-1.4395.48-2.6299,1.4399-3.5693s2.1992-1.4102,3.7197-1.4102,2.7695.4707,3.75,1.4102Z" style="fill: #fff; stroke-width: 0px;"/>
      <path d="M390.707,117.0908c.3599.5801.96,1.0107,1.7998,1.29l-1.7998,5.6396c-1.8809-.1602-3.4106-.5996-4.5898-1.3203-1.1807-.7197-2.0908-1.8389-2.73-3.3594-2.0806,3.2002-5.2607,4.7998-9.54,4.7998-3.1606,0-5.6704-.9102-7.5303-2.7295-1.8599-1.8203-2.79-4.1904-2.79-7.1104,0-3.4805,1.2603-6.1396,3.7803-7.9805,2.52-1.8389,6.1396-2.7598,10.8599-2.7598h3.6602v-1.5596c0-1.96-.4409-3.3203-1.3203-4.0801-.8804-.7598-2.3398-1.1406-4.3799-1.1406-2.2407,0-5.04.5605-8.3999,1.6807l-1.9199-5.7002c3.96-1.5605,7.8794-2.3398,11.7598-2.3398,4.3203,0,7.5.9297,9.54,2.79,2.04,1.8594,3.0601,4.6299,3.0601,8.3096v12.8398c0,1.2402.1802,2.1514.54,2.7305ZM381.8271,114.4805v-6.0596h-2.8203c-4.6001,0-6.8999,1.7197-6.8999,5.1602,0,1.4004.3496,2.4893,1.0503,3.2695.6992.7803,1.71,1.1699,3.0298,1.1699,2.3999,0,4.2798-1.1797,5.6401-3.54Z" style="fill: #fff; stroke-width: 0px;"/>
      <polygon points="439.1265 91.3809 428.9263 123.1807 418.7861 123.1807 408.4062 91.3809 417.6465 91.3809 423.9463 116.5205 430.3662 91.3809 439.1265 91.3809" style="fill: #fff; stroke-width: 0px;"/>
      <path d="M466.0186,94.8906c2.6792,2.9805,4.0195,7.1104,4.0195,12.3896,0,3.3604-.6099,6.3105-1.8296,8.8506-1.2207,2.54-2.9805,4.5098-5.2803,5.9102-2.3003,1.3994-5.0098,2.0996-8.1299,2.0996-4.7607,0-8.4902-1.4893-11.1899-4.4697-2.7002-2.9795-4.0503-7.1104-4.0503-12.3906,0-3.3594.6094-6.3086,1.8301-8.8496,1.2197-2.54,2.9795-4.5098,5.2803-5.9102,2.2993-1.3994,5.0298-2.0996,8.1899-2.0996,4.7598,0,8.4795,1.4902,11.1602,4.4697ZM456.0884,84.3604c-.6206-.2793-1.3501-.6797-2.1899-1.1992-.5205-.3994-.9702-.6904-1.3501-.8701-.3809-.1807-.7705-.2705-1.1699-.2705-.6406,0-1.2002.2207-1.6802.6602-.48.4404-.9805,1.1201-1.5,2.04l-4.3799-2.1602c.7998-1.959,1.8394-3.5596,3.1201-4.7998,1.2793-1.2393,2.7197-1.8604,4.3198-1.8604.9199,0,1.6997.1504,2.3398.4502.6396.2998,1.3672.6991,2.1602,1.2305.5248.3516.96.6299,1.3198.8096.3604.1797.7397.2705,1.1401.2705.6396,0,1.1899-.2109,1.6499-.6309.4595-.4199.9697-1.0889,1.5303-2.0098l4.3799,2.1602c-.8008,2.04-1.8403,3.6504-3.1201,4.8301-1.2803,1.1807-2.7402,1.7695-4.3799,1.7695-.8398,0-1.5703-.1396-2.1899-.4199ZM450.0283,99.3311c-1.0605,1.7002-1.5898,4.3496-1.5898,7.9492s.5293,6.251,1.5898,7.9502c1.0596,1.7012,2.6494,2.5498,4.77,2.5498s3.7095-.8486,4.77-2.5498c1.0596-1.6992,1.5898-4.3496,1.5898-7.9502s-.52-6.249-1.5601-7.9492c-1.0405-1.7002-2.6201-2.5508-4.7397-2.5508-2.1602,0-3.7705.8506-4.8301,2.5508Z" style="fill: #fff; stroke-width: 0px;"/>
      <path d="M482.8062,76.4111c.98.9395,1.4702,2.1299,1.4702,3.5693,0,1.4404-.4902,2.6309-1.4702,3.5703-.9805.9404-2.23,1.4102-3.75,1.4102s-2.7598-.4697-3.7197-1.4102c-.96-.9395-1.4399-2.1299-1.4399-3.5703,0-1.4395.48-2.6299,1.4399-3.5693s2.1992-1.4102,3.7197-1.4102,2.7695.4707,3.75,1.4102ZM483.3765,91.3809v31.7998h-8.52v-31.7998h8.52Z" style="fill: #fff; stroke-width: 0px;"/>
      <path d="M517.6245,78.7207v44.46h-7.5l-.4805-3.9004c-2.2402,3.2402-5.2798,4.8604-9.1196,4.8604-3.9209,0-6.9106-1.5098-8.9702-4.5303-2.0605-3.0195-3.0898-7.1289-3.0898-12.3301,0-3.2793.5298-6.1895,1.5898-8.7295,1.0596-2.54,2.5698-4.5303,4.5303-5.9697,1.959-1.4404,4.2197-2.1602,6.7798-2.1602,2.9595,0,5.5396,1.0605,7.7402,3.1797v-15.8398l8.52.96ZM506.3442,116.8506c.96-.6191,1.8799-1.5898,2.7603-2.9102v-14.2197c-.8403-.999-1.6904-1.749-2.5503-2.25-.8604-.5-1.8506-.75-2.9697-.75-1.9604,0-3.4907.8604-4.5903,2.5801-1.1006,1.7197-1.6499,4.3799-1.6499,7.9795,0,3.8008.4893,6.501,1.4702,8.1006.9795,1.6006,2.3896,2.3994,4.23,2.3994,1.2393,0,2.3398-.3086,3.2998-.9297Z" style="fill: #fff; stroke-width: 0px;"/>
      <polygon points="566.4634 91.3809 556.2632 123.1807 546.123 123.1807 535.7432 91.3809 544.9834 91.3809 551.2832 116.5205 557.7031 91.3809 566.4634 91.3809" style="fill: #fff; stroke-width: 0px;"/>
      <path d="M593.355,94.8906c2.6782,2.9805,4.02,7.1104,4.02,12.3896,0,3.3604-.6113,6.3105-1.8301,8.8506-1.2207,2.54-2.9805,4.5098-5.2803,5.9102-2.3003,1.3994-5.0098,2.0996-8.1299,2.0996-4.7607,0-8.4902-1.4893-11.1899-4.4697-2.7002-2.9795-4.0503-7.1104-4.0503-12.3906,0-3.3594.6094-6.3086,1.8301-8.8496,1.2197-2.54,2.9795-4.5098,5.2803-5.9102,2.2993-1.3994,5.0298-2.0996,8.1899-2.0996,4.7598,0,8.4795,1.4902,11.1602,4.4697ZM583.4248,84.3604c-.6206-.2793-1.3501-.6797-2.1899-1.1992-.5205-.3994-.9702-.6904-1.3501-.8701-.3809-.1807-.7705-.2705-1.1699-.2705-.6406,0-1.2002.2207-1.6802.6602-.48.4404-.9805,1.1201-1.5,2.04l-4.3799-2.1602c.7998-1.959,1.8394-3.5596,3.1201-4.7998,1.2793-1.2393,2.7197-1.8604,4.3198-1.8604.9199,0,1.6997.1504,2.3398.4502.6396.2998,1.3672.6991,2.1602,1.2305.5248.3516.96.6299,1.3198.8096.3604.1797.7397.2705,1.1401.2705.6396,0,1.1899-.2109,1.6499-.6309.4595-.4199.9697-1.0889,1.5303-2.0098l4.3799,2.1602c-.8008,2.04-1.8403,3.6504-3.1201,4.8301-1.2803,1.1807-2.7402,1.7695-4.3799,1.7695-.8398,0-1.5703-.1396-2.1899-.4199ZM577.3647,99.3311c-1.0605,1.7002-1.5898,4.3496-1.5898,7.9492s.5293,6.251,1.5898,7.9502c1.0596,1.7012,2.6494,2.5498,4.77,2.5498s3.7095-.8486,4.77-2.5498c1.0596-1.6992,1.5898-4.3496,1.5898-7.9502s-.52-6.249-1.5601-7.9492c-1.0405-1.7002-2.6201-2.5508-4.7397-2.5508-2.1602,0-3.7705.8506-4.8301,2.5508Z" style="fill: #fff; stroke-width: 0px;"/>
      <path d="M610.1436,76.4111c.9795.9395,1.4697,2.1299,1.4697,3.5693,0,1.4404-.4902,2.6309-1.4697,3.5703-.9814.9404-2.2305,1.4102-3.75,1.4102-1.5215,0-2.7607-.4697-3.7207-1.4102-.96-.9395-1.4395-2.1299-1.4395-3.5703,0-1.4395.4795-2.6299,1.4395-3.5693s2.1992-1.4102,3.7207-1.4102c1.5195,0,2.7686.4707,3.75,1.4102ZM610.7129,91.3809v31.7998h-8.5195v-31.7998h8.5195Z" style="fill: #fff; stroke-width: 0px;"/>
      <path d="M637.0889,121.6807c-1.1602.8008-2.4697,1.4102-3.9297,1.8301-1.4609.4199-2.9102.6299-4.3496.6299-3.2803-.04-5.7607-.9795-7.4404-2.8203-1.6797-1.8389-2.5195-4.5391-2.5195-8.0996v-15.8398h-4.7402v-6h4.7402v-6.96l8.5195-1.0205v7.9805h7.3203l-.8398,6h-6.4805v15.6602c0,1.5205.2598,2.6201.7803,3.2998.5195.6807,1.3193,1.0195,2.3994,1.0195s2.2803-.3594,3.6006-1.0801l2.9395,5.4004Z" style="fill: #fff; stroke-width: 0px;"/>
      <path d="M665.3125,117.0908c.3604.5801.96,1.0107,1.7998,1.29l-1.7998,5.6396c-1.8809-.1602-3.4111-.5996-4.5898-1.3203-1.1807-.7197-2.0908-1.8389-2.7305-3.3594-2.0801,3.2002-5.2598,4.7998-9.54,4.7998-3.1602,0-5.6699-.9102-7.5293-2.7295-1.8604-1.8203-2.79-4.1904-2.79-7.1104,0-3.4805,1.2598-6.1396,3.7793-7.9805,2.5205-1.8389,6.1396-2.7598,10.8604-2.7598h3.6602v-1.5596c0-1.96-.4404-3.3203-1.3203-4.0801s-2.3398-1.1406-4.3799-1.1406c-2.2402,0-5.04.5605-8.4004,1.6807l-1.9199-5.7002c3.96-1.5605,7.8799-2.3398,11.7607-2.3398,4.3193,0,7.5.9297,9.54,2.79,2.04,1.8594,3.0596,4.6299,3.0596,8.3096v12.8398c0,1.2402.1797,2.1514.54,2.7305ZM656.4326,114.4805v-6.0596h-2.8203c-4.6006,0-6.8994,1.7197-6.8994,5.1602,0,1.4004.3496,2.4893,1.0498,3.2695.6992.7803,1.71,1.1699,3.0293,1.1699,2.4004,0,4.2803-1.1797,5.6406-3.54Z" style="fill: #fff; stroke-width: 0px;"/>
      <polygon points="32.8799 166.3809 22.6797 198.1807 12.5396 198.1807 2.1597 166.3809 11.3999 166.3809 17.6997 191.5205 24.1196 166.3809 32.8799 166.3809" style="fill: #fff; stroke-width: 0px;"/>
      <path d="M60.8516,192.0908c.3599.5801.96,1.0107,1.7998,1.29l-1.7998,5.6396c-1.8809-.1602-3.4106-.5996-4.5898-1.3203-1.1807-.7197-2.0908-1.8389-2.73-3.3594-2.0806,3.2002-5.2607,4.7998-9.54,4.7998-3.1606,0-5.6704-.9102-7.5303-2.7295-1.8599-1.8203-2.79-4.1904-2.79-7.1104,0-3.4805,1.2603-6.1396,3.7803-7.9805,2.52-1.8389,6.1396-2.7598,10.8599-2.7598h3.6602v-1.5596c0-1.96-.4409-3.3203-1.3203-4.0801-.8804-.7598-2.3398-1.1406-4.3799-1.1406-2.2407,0-5.04.5605-8.3999,1.6807l-1.9199-5.7002c3.96-1.5605,7.8794-2.3398,11.7598-2.3398,4.3203,0,7.5.9297,9.54,2.79,2.04,1.8594,3.0601,4.6299,3.0601,8.3096v12.8398c0,1.2402.1802,2.1514.54,2.7305ZM44.3213,151.9502c.8599.8613,1.29,1.9111,1.29,3.1504,0,1.2402-.4302,2.29-1.29,3.1504-.8604.8604-1.9302,1.29-3.21,1.29-1.2402,0-2.3003-.4297-3.1797-1.29-.8804-.8604-1.3203-1.9102-1.3203-3.1504,0-1.2393.4399-2.2891,1.3203-3.1504.8794-.8594,1.9395-1.2891,3.1797-1.2891,1.2798,0,2.3496.4297,3.21,1.2891ZM51.9717,189.4805v-6.0596h-2.8203c-4.6001,0-6.8999,1.7197-6.8999,5.1602,0,1.4004.3496,2.4893,1.0503,3.2695.6992.7803,1.71,1.1699,3.0298,1.1699,2.3999,0,4.2798-1.1797,5.6401-3.54ZM57.9116,151.9502c.8794.8613,1.3198,1.9111,1.3198,3.1504,0,1.2402-.4404,2.29-1.3198,3.1504-.8804.8604-1.9604,1.29-3.2402,1.29-1.2402,0-2.29-.4297-3.1499-1.29-.8604-.8604-1.29-1.9102-1.29-3.1504,0-1.2393.4297-2.2891,1.29-3.1504.8599-.8594,1.9097-1.2891,3.1499-1.2891,1.2798,0,2.3599.4297,3.2402,1.2891Z" style="fill: #fff; stroke-width: 0px;"/>
      <path d="M95.6758,168.1211c-2.0806.7998-5.1406,1.1992-9.1802,1.1992,1.9995.8809,3.48,1.9707,4.4399,3.2705s1.4399,2.9307,1.4399,4.8896c0,2.04-.5303,3.8701-1.5898,5.4902-1.0605,1.6201-2.5801,2.8906-4.5601,3.8096-1.98.9209-4.29,1.3809-6.9302,1.3809-1.4004,0-2.6396-.1406-3.7197-.4209-.8008.5205-1.2002,1.2207-1.2002,2.1006,0,.6406.2495,1.1504.75,1.5303.5.3799,1.4702.5693,2.9102.5693h4.8599c2.3599,0,4.4297.3906,6.21,1.1699,1.7798.7803,3.1597,1.8604,4.1401,3.2402.9795,1.3799,1.4702,2.9492,1.4702,4.71,0,3.2402-1.3906,5.7695-4.1704,7.5898-2.7803,1.8203-6.79,2.7305-12.0298,2.7305-3.7603,0-6.7305-.3906-8.9102-1.1699-2.1807-.7803-3.7104-1.9111-4.5898-3.3906-.8804-1.4795-1.3198-3.3398-1.3198-5.5801h7.6196c0,1.04.1997,1.8701.6001,2.4902.3994.6201,1.1299,1.0801,2.1899,1.3799,1.0596.3008,2.5894.4502,4.5903.4502,2.7598,0,4.6895-.3398,5.79-1.0195,1.0996-.6807,1.6499-1.6406,1.6499-2.8799,0-1.1211-.4199-1.9805-1.2603-2.5801-.8398-.6006-2.0801-.9004-3.7197-.9004h-4.6802c-3.1602,0-5.52-.5898-7.0801-1.7695s-2.3398-2.6709-2.3398-4.4707c0-1.1191.3301-2.209.9897-3.2695.6602-1.0596,1.5698-1.9502,2.7305-2.6699-1.9604-1.0801-3.3901-2.3496-4.29-3.8105-.9004-1.459-1.3501-3.21-1.3501-5.25,0-2.3193.5698-4.3496,1.71-6.0898s2.7393-3.0801,4.7998-4.0195c2.0601-.9395,4.4102-1.4102,7.0503-1.4102,3.2793.0801,5.979-.2002,8.0996-.8398,2.1201-.6396,4.3804-1.6396,6.7803-3l2.1001,6.54ZM75.0654,172.6504c-.9399,1.0205-1.4097,2.4102-1.4097,4.1699,0,1.8008.4697,3.2207,1.4097,4.2607.9395,1.04,2.2295,1.5596,3.8701,1.5596,1.7192,0,3.02-.5,3.8999-1.5.8794-.999,1.3203-2.4795,1.3203-4.4404,0-3.7197-1.7607-5.5791-5.2803-5.5791-1.6001,0-2.8706.5098-3.8101,1.5293Z" style="fill: #fff; stroke-width: 0px;"/>
      <path d="M124.8174,184.8604h-19.8599c.2793,2.8799,1.0596,4.9199,2.3398,6.1201,1.2798,1.2002,3.02,1.7998,5.2202,1.7998,1.3594,0,2.6401-.2188,3.8398-.6592,1.2002-.4404,2.4995-1.1406,3.8999-2.1006l3.54,4.7998c-3.5605,2.8799-7.5806,4.3203-12.0601,4.3203-5.0005,0-8.8403-1.5-11.52-4.5-2.6802-3-4.02-7.0596-4.02-12.1797,0-3.2402.5703-6.1504,1.7104-8.7305,1.1396-2.5801,2.7993-4.6094,4.98-6.0898,2.1797-1.4795,4.77-2.2197,7.77-2.2197,4.5195,0,8.0396,1.4199,10.5596,4.2598,2.52,2.8408,3.7803,6.8008,3.7803,11.8799,0,.4004-.0601,1.5-.1802,3.2998ZM116.5376,179.1611c0-5.2803-1.9004-7.9209-5.7002-7.9209-1.7607,0-3.1304.6514-4.1099,1.9502-.9805,1.3008-1.5703,3.4111-1.77,6.3301h11.5801v-.3594Z" style="fill: #fff; stroke-width: 0px;"/>
      <polygon points="156.1431 166.3809 145.9429 198.1807 135.8027 198.1807 125.4229 166.3809 134.6631 166.3809 140.9629 191.5205 147.3828 166.3809 156.1431 166.3809" style="fill: #fff; stroke-width: 0px;"/>
      <path d="M184.1147,192.0908c.3599.5801.96,1.0107,1.7998,1.29l-1.7998,5.6396c-1.8809-.1602-3.4106-.5996-4.5898-1.3203-1.1807-.7197-2.0908-1.8389-2.73-3.3594-2.0806,3.2002-5.2607,4.7998-9.54,4.7998-3.1606,0-5.6704-.9102-7.5303-2.7295-1.8599-1.8203-2.79-4.1904-2.79-7.1104,0-3.4805,1.2603-6.1396,3.7803-7.9805,2.52-1.8389,6.1396-2.7598,10.8599-2.7598h3.6602v-1.5596c0-1.96-.4409-3.3203-1.3203-4.0801-.8804-.7598-2.3398-1.1406-4.3799-1.1406-2.2407,0-5.04.5605-8.3999,1.6807l-1.9199-5.7002c3.96-1.5605,7.8794-2.3398,11.7598-2.3398,4.3203,0,7.5.9297,9.54,2.79,2.04,1.8594,3.0601,4.6299,3.0601,8.3096v12.8398c0,1.2402.1802,2.1514.54,2.7305ZM175.2349,189.4805v-6.0596h-2.8203c-4.6001,0-6.8999,1.7197-6.8999,5.1602,0,1.4004.3496,2.4893,1.0503,3.2695.6992.7803,1.71,1.1699,3.0298,1.1699,2.3999,0,4.2798-1.1797,5.6401-3.54Z" style="fill: #fff; stroke-width: 0px;"/>
      <path d="M198.2563,151.4111c.98.9395,1.4702,2.1299,1.4702,3.5693,0,1.4404-.4902,2.6309-1.4702,3.5703-.9805.9404-2.23,1.4102-3.75,1.4102s-2.7598-.4697-3.7197-1.4102c-.96-.9395-1.4399-2.1299-1.4399-3.5703,0-1.4395.48-2.6299,1.4399-3.5693s2.1992-1.4102,3.7197-1.4102,2.7695.4707,3.75,1.4102ZM198.8267,166.3809v31.7998h-8.52v-31.7998h8.52Z" style="fill: #fff; stroke-width: 0px;"/>
      <path d="M233.0747,153.7207v44.46h-7.5l-.4805-3.9004c-2.2402,3.2402-5.2798,4.8604-9.1196,4.8604-3.9209,0-6.9106-1.5098-8.9702-4.5303-2.0605-3.0195-3.0898-7.1289-3.0898-12.3301,0-3.2793.5298-6.1895,1.5898-8.7295,1.0596-2.54,2.5698-4.5303,4.5303-5.9697,1.959-1.4404,4.2197-2.1602,6.7798-2.1602,2.9595,0,5.5396,1.0605,7.7402,3.1797v-15.8398l8.52.96ZM221.7944,191.8506c.96-.6191,1.8799-1.5898,2.7603-2.9102v-14.2197c-.8403-.999-1.6904-1.749-2.5503-2.25-.8604-.5-1.8506-.75-2.9697-.75-1.9604,0-3.4907.8604-4.5903,2.5801-1.1006,1.7197-1.6499,4.3799-1.6499,7.9795,0,3.8008.4893,6.501,1.4702,8.1006.9795,1.6006,2.3896,2.3994,4.23,2.3994,1.2393,0,2.3398-.3086,3.2998-.9297Z" style="fill: #fff; stroke-width: 0px;"/>
      <path d="M280.3535,192.0908c.3599.5801.96,1.0107,1.7998,1.29l-1.7998,5.6396c-1.8809-.1602-3.4106-.5996-4.5898-1.3203-1.1807-.7197-2.0908-1.8389-2.73-3.3594-2.0806,3.2002-5.2607,4.7998-9.54,4.7998-3.1606,0-5.6704-.9102-7.5303-2.7295-1.8599-1.8203-2.79-4.1904-2.79-7.1104,0-3.4805,1.2603-6.1396,3.7803-7.9805,2.52-1.8389,6.1396-2.7598,10.8599-2.7598h3.6602v-1.5596c0-1.96-.4409-3.3203-1.3203-4.0801-.8804-.7598-2.3398-1.1406-4.3799-1.1406-2.2407,0-5.04.5605-8.3999,1.6807l-1.9199-5.7002c3.96-1.5605,7.8794-2.3398,11.7598-2.3398,4.3203,0,7.5.9297,9.54,2.79,2.04,1.8594,3.0601,4.6299,3.0601,8.3096v12.8398c0,1.2402.1802,2.1514.54,2.7305ZM271.4736,189.4805v-6.0596h-2.8203c-4.6001,0-6.8999,1.7197-6.8999,5.1602,0,1.4004.3496,2.4893,1.0503,3.2695.6992.7803,1.71,1.1699,3.0298,1.1699,2.3999,0,4.2798-1.1797,5.6401-3.54Z" style="fill: #fff; stroke-width: 0px;"/>
      <path d="M312.6519,198.1807h-7.3804l-.4199-4.2598c-1.1201,1.7607-2.4805,3.0703-4.0801,3.9297-1.6001.8594-3.46,1.29-5.5801,1.29-2.8799,0-5.0801-.8701-6.5996-2.6104-1.521-1.7393-2.2803-4.1699-2.2803-7.29v-22.8594h8.52v21.7803c0,1.6797.2793,2.8701.8398,3.5693.5601.7002,1.4404,1.0498,2.6401,1.0498,2.2803,0,4.2197-1.3799,5.8203-4.1396v-22.2598h8.52v31.7998Z" style="fill: #fff; stroke-width: 0px;"/>
      <path d="M343.5332,167.9707c1.5796,1.7002,2.3696,4.0498,2.3696,7.0498v23.1602h-8.52v-21.7197c0-1.7197-.2998-2.9297-.8999-3.6299s-1.4604-1.0508-2.5801-1.0508c-2.2402,0-4.2803,1.4609-6.1196,4.3809v22.0195h-8.52v-44.46l8.52-.9004v17.1602c1.2793-1.5195,2.6699-2.6592,4.1699-3.4199,1.5-.7588,3.1895-1.1396,5.0698-1.1396,2.7603,0,4.9292.8496,6.5103,2.5498Z" style="fill: #fff; stroke-width: 0px;"/>
      <path d="M360.2065,151.4111c.98.9395,1.4702,2.1299,1.4702,3.5693,0,1.4404-.4902,2.6309-1.4702,3.5703-.9805.9404-2.23,1.4102-3.75,1.4102s-2.7598-.4697-3.7197-1.4102c-.96-.9395-1.4399-2.1299-1.4399-3.5703,0-1.4395.48-2.6299,1.4399-3.5693s2.1992-1.4102,3.7197-1.4102,2.7695.4707,3.75,1.4102ZM360.7769,166.3809v31.7998h-8.52v-31.7998h8.52Z" style="fill: #fff; stroke-width: 0px;"/>
      <path d="M391.7368,167.9707c1.5601,1.7002,2.3398,4.0498,2.3398,7.0498v23.1602h-8.52v-21.7197c0-1.7197-.2905-2.9297-.8696-3.6299-.5806-.7002-1.4507-1.0508-2.6104-1.0508-1.1997,0-2.29.3711-3.27,1.1104-.9805.7402-1.9302,1.8506-2.8496,3.3301v21.96h-8.52v-31.7998h7.3799l.6602,4.0195c1.3198-1.6396,2.769-2.8799,4.3496-3.7197,1.5801-.8398,3.3696-1.2598,5.3701-1.2598,2.7993,0,4.98.8496,6.54,2.5498Z" style="fill: #fff; stroke-width: 0px;"/>
      <path d="M428.3306,153.7207v44.46h-7.5l-.4805-3.9004c-2.2402,3.2402-5.2798,4.8604-9.1196,4.8604-3.9209,0-6.9106-1.5098-8.9702-4.5303-2.0605-3.0195-3.0898-7.1289-3.0898-12.3301,0-3.2793.5298-6.1895,1.5898-8.7295,1.0596-2.54,2.5698-4.5303,4.5303-5.9697,1.959-1.4404,4.2197-2.1602,6.7798-2.1602,2.9595,0,5.5396,1.0605,7.7402,3.1797v-15.8398l8.52.96ZM417.0503,191.8506c.96-.6191,1.8799-1.5898,2.7603-2.9102v-14.2197c-.8403-.999-1.6904-1.749-2.5503-2.25-.8604-.5-1.8506-.75-2.9697-.75-1.9604,0-3.4907.8604-4.5903,2.5801-1.1006,1.7197-1.6499,4.3799-1.6499,7.9795,0,3.8008.4893,6.501,1.4702,8.1006.9795,1.6006,2.3896,2.3994,4.23,2.3994,1.2393,0,2.3398-.3086,3.2998-.9297Z" style="fill: #fff; stroke-width: 0px;"/>
      <path d="M461.1445,198.1807h-7.3804l-.4199-4.2598c-1.1201,1.7607-2.4805,3.0703-4.0801,3.9297-1.6001.8594-3.46,1.29-5.5801,1.29-2.8799,0-5.0801-.8701-6.5996-2.6104-1.521-1.7393-2.2803-4.1699-2.2803-7.29v-22.8594h8.52v21.7803c0,1.6797.2793,2.8701.8398,3.5693.5601.7002,1.4404,1.0498,2.6401,1.0498,2.2803,0,4.2197-1.3799,5.8203-4.1396v-22.2598h8.52v31.7998Z" style="fill: #fff; stroke-width: 0px;"/>
      <path d="M475.1118,190.3809c.9995,1,1.5,2.2002,1.5,3.5996,0,1.4004-.5005,2.6104-1.5,3.6299-1,1.0205-2.2197,1.5303-3.6597,1.5303-1.4009,0-2.6006-.5098-3.6001-1.5303-1.0005-1.0195-1.5-2.2295-1.5-3.6299,0-1.3994.4995-2.5996,1.5-3.5996.9995-1,2.1992-1.5,3.6001-1.5,1.4399,0,2.6597.5,3.6597,1.5ZM475.9521,156.6611l-1.02,26.5791h-6.96l-1.1401-26.5791h9.1201Z" style="fill: #fff; stroke-width: 0px;"/>
    </g>
  </g>
</svg>