<?xml version="1.0" encoding="UTF-8"?>
<svg id="b" data-name="Layer 2" xmlns="http://www.w3.org/2000/svg" viewBox="0 0 69.001 13.1484">
  <g id="c" data-name="main">
    <g>
      <polygon points="10.1514 1.9688 6.1611 1.9688 6.1611 12.9727 3.9551 12.9727 3.9551 1.9688 0 1.9688 0 .1758 10.1514 .1758 10.1514 1.9688" style="fill: #fff; stroke-width: 0px;"/>
      <path d="M21.6289,6.9082c0,1.2539-.2168,2.3545-.6504,3.3008s-1.0537,1.6729-1.8594,2.1797-1.7324.7598-2.7812.7598c-1.0371,0-1.9619-.2529-2.7734-.7598s-1.4385-1.2295-1.8809-2.167-.666-2.0186-.6719-3.2432v-.7207c0-1.248.2207-2.3496.6641-3.3047.4414-.9551,1.0654-1.6855,1.8711-2.1934.8057-.5059,1.7305-.7598,2.7734-.7598s1.9668.25,2.7734.752c.8047.5,1.4277,1.2207,1.8672,2.1621.4395.9395.6621,2.0342.668,3.2822v.7119ZM19.4053,6.2402c0-1.418-.2686-2.5049-.8037-3.2607-.5371-.7559-1.2969-1.1338-2.2812-1.1338-.9609,0-1.7129.377-2.2539,1.1289-.543.7539-.8193,1.8184-.8311,3.1953v.7383c0,1.4062.2734,2.4932.8213,3.2607s1.3086,1.1514,2.2812,1.1514c.9844,0,1.7412-.375,2.2715-1.125s.7959-1.8457.7959-3.2871v-.668Z" style="fill: #fff; stroke-width: 0px;"/>
      <polygon points="31.2783 7.2598 26.0225 7.2598 26.0225 11.1973 32.166 11.1973 32.166 12.9727 23.7988 12.9727 23.7988 .1758 32.1045 .1758 32.1045 1.9688 26.0225 1.9688 26.0225 5.502 31.2783 5.502 31.2783 7.2598" style="fill: #fff; stroke-width: 0px;"/>
      <polygon points="43.5234 1.9688 39.5332 1.9688 39.5332 12.9727 37.3271 12.9727 37.3271 1.9688 33.3721 1.9688 33.3721 .1758 43.5234 .1758 43.5234 1.9688" style="fill: #fff; stroke-width: 0px;"/>
      <path d="M50.8691,9.9932h-4.957l-1.0371,2.9795h-2.3115L47.3975.1758h1.9951l4.8428,12.7969h-2.3203l-1.0459-2.9795ZM46.5361,8.2002h3.709l-1.8545-5.3086-1.8545,5.3086Z" style="fill: #fff; stroke-width: 0px;"/>
      <path d="M55.7393,12.9727V.1758h4.3857c1.4473,0,2.5488.29,3.3047.8701s1.1338,1.4443,1.1338,2.5928c0,.5859-.1582,1.1133-.4746,1.582s-.7793.832-1.3887,1.0898c.6914.1875,1.2266.541,1.6035,1.0586.3789.5195.5674,1.1416.5674,1.8682,0,1.2012-.3857,2.124-1.1553,2.7686-.7715.6445-1.874.9668-3.3096.9668h-4.667ZM57.9629,5.5635h2.1797c.6914,0,1.2314-.1562,1.6221-.4697.3887-.3135.584-.7578.584-1.332,0-.6328-.1797-1.0898-.541-1.3711-.3594-.2812-.9209-.4219-1.6826-.4219h-2.1621v3.5947ZM57.9629,7.1982v3.999h2.4697c.6973,0,1.2422-.1729,1.6348-.5186s.5889-.8262.5889-1.4414c0-1.3301-.6797-2.0098-2.0391-2.0391h-2.6543Z" style="fill: #fff; stroke-width: 0px;"/>
      <path d="M67.7529,3.2607c.3984,0,.7061.1133.9229.3389s.3252.5078.3252.8477c0,.334-.1084.6113-.3252.8301-.2168.2207-.5244.3301-.9229.3301-.3809,0-.6826-.1084-.9053-.3252s-.334-.4951-.334-.835.1084-.6221.3252-.8477.5215-.3389.9141-.3389ZM67.7529,10.7227c.3984,0,.7061.1133.9229.3379.2168.2266.3252.5088.3252.8486,0,.334-.1084.6104-.3252.8311-.2168.2188-.5244.3291-.9229.3291-.3809,0-.6826-.1084-.9053-.3252s-.334-.4951-.334-.835.1084-.6221.3252-.8486c.2168-.2246.5215-.3379.9141-.3379Z" style="fill: #fff; stroke-width: 0px;"/>
    </g>
  </g>
</svg>