<?xml version="1.0" encoding="UTF-8"?><svg id="Layer_2" xmlns="http://www.w3.org/2000/svg" viewBox="0 0 560 150"><defs><style>.cls-1{fill:#f5aa0c;}.cls-2{fill:#332004;}</style></defs><g id="bg"><g><path class="cls-1" d="M485,150H75c-41.42,0-75-33.58-75-75S33.58,0,75,0H485c41.42,0,75,33.58,75,75s-33.58,75-75,75Z"/><g><rect class="cls-2" x="64.76" y="54.2" width="8.67" height="41.74"/><polygon class="cls-2" points="115.32 95.94 106.59 95.94 89.54 66.29 89.54 95.94 81.42 95.94 81.42 54.2 90.56 54.2 107.19 83.34 107.19 54.2 115.32 54.2 115.32 95.94"/><polygon class="cls-2" points="120.36 54.2 129.67 54.2 138.74 85.89 147.88 54.2 156.95 54.2 142.7 95.94 134.46 95.94 120.36 54.2"/><polygon class="cls-2" points="191.19 77.7 170.91 77.7 170.91 88.44 194.02 88.44 194.02 95.94 162.38 95.94 162.38 54.2 193 54.2 193 61.59 170.91 61.59 170.91 70.45 191.19 70.45 191.19 77.7"/><path class="cls-2" d="M215.97,89.91c2.06,0,3.73-.22,5.01-.68,2.44-.86,3.65-2.48,3.65-4.84,0-1.38-.6-2.45-1.81-3.2-1.21-.74-3.11-1.39-5.69-1.95l-4.42-.99c-4.34-.98-7.34-2.05-9.01-3.2-2.81-1.93-4.22-4.94-4.22-9.03,0-3.74,1.36-6.84,4.08-9.32s6.71-3.71,11.98-3.71c4.4,0,8.15,1.17,11.26,3.5,3.11,2.33,4.73,5.72,4.88,10.15h-8.38c-.15-2.51-1.24-4.3-3.29-5.35-1.36-.7-3.05-1.05-5.07-1.05-2.25,0-4.04,.45-5.38,1.36s-2.01,2.17-2.01,3.79c0,1.49,.67,2.6,1.98,3.34,.85,.48,2.66,1.07,5.44,1.73l7.19,1.73c3.15,.75,5.53,1.77,7.14,3.03,2.49,1.96,3.74,4.8,3.74,8.52s-1.46,6.98-4.38,9.5c-2.92,2.52-7.04,3.78-12.36,3.78s-9.71-1.24-12.83-3.72c-3.12-2.48-4.67-5.89-4.67-10.24h8.33c.26,1.91,.78,3.33,1.56,4.28,1.41,1.72,3.84,2.58,7.28,2.58Z"/><polygon class="cls-2" points="269.83 54.2 269.83 61.59 257.34 61.59 257.34 95.94 248.56 95.94 248.56 61.59 236.02 61.59 236.02 54.2 269.83 54.2"/><polygon class="cls-2" points="303.99 77.7 283.71 77.7 283.71 88.44 306.82 88.44 306.82 95.94 275.18 95.94 275.18 54.2 305.8 54.2 305.8 61.59 283.71 61.59 283.71 70.45 303.99 70.45 303.99 77.7"/><polygon class="cls-2" points="342.67 77.7 322.39 77.7 322.39 88.44 345.5 88.44 345.5 95.94 313.87 95.94 313.87 54.2 344.48 54.2 344.48 61.59 322.39 61.59 322.39 70.45 342.67 70.45 342.67 77.7"/><path class="cls-2" d="M370.03,79.57h-9.01v16.37h-8.52V54.2h20.48c2.93,.06,5.18,.42,6.75,1.08,1.58,.66,2.91,1.63,4.01,2.92,.91,1.06,1.62,2.23,2.15,3.51s.79,2.75,.79,4.39c0,1.98-.5,3.93-1.5,5.85-1,1.92-2.65,3.27-4.96,4.06,1.93,.77,3.29,1.87,4.09,3.3,.8,1.43,1.2,3.6,1.2,6.53v2.8c0,1.91,.08,3.2,.23,3.88,.23,1.08,.75,1.87,1.59,2.38v1.05h-9.6c-.26-.92-.45-1.67-.57-2.24-.23-1.17-.35-2.37-.37-3.6l-.06-3.88c-.04-2.66-.52-4.44-1.46-5.32s-2.69-1.33-5.25-1.33Zm5.3-7.59c1.74-.8,2.61-2.36,2.61-4.7,0-2.53-.84-4.23-2.52-5.1-.95-.49-2.36-.74-4.25-.74h-10.14v11.21h9.88c1.96,0,3.44-.23,4.42-.68Z"/><rect class="cls-2" x="393.51" y="54.2" width="8.67" height="41.74"/><polygon class="cls-2" points="418.26 95.94 410.16 95.94 410.16 54.2 422.85 54.2 430.44 87.02 437.97 54.2 450.52 54.2 450.52 95.94 442.42 95.94 442.42 60.91 434.54 95.94 426.07 95.94 418.26 60.91 418.26 95.94"/><path class="cls-2" d="M483.06,87.36h-15.38l-2.89,8.58h-9.12l14.9-41.74h9.86l14.78,41.74h-9.46l-2.69-8.58Zm-2.44-7.19l-5.21-16.43-5.38,16.43h10.59Z"/></g></g></g></svg>