<?xml version="1.0" encoding="UTF-8"?><svg id="Layer_2" xmlns="http://www.w3.org/2000/svg" viewBox="0 0 157.82 155.4"><defs><style>.cls-1{fill:#f5aa0c;}.cls-2{fill:#fff;}</style></defs><g id="bg"><g><path class="cls-1" d="M127.76,76.66c-1.2-4.38-5.38-6.27-10.64-4.83-2.71,.74-5.66,2.78-7.54,4.23-.35-.78-.67-1.27-.97-1.6l1.92-.53-.8-2.94-1.42,.39,1.26-3.75-4.95-1.77-3.31,4.04,2.98,2.58-1.44,.4,.8,2.94,1.86-.51c-.1,.47-.1,1.1,0,1.86-2.36-.29-5.93-.52-8.62,.22-2.39,.66-4.29,1.8-5.5,3.31-1.41,1.77-1.82,3.94-1.18,6.28,.77,2.82,2.98,4.48,5.12,6.08,1.31,.98,2.63,2.02,3.68,3.31l.44,1.6,25.93-7.12-.42-1.51c.23-1.68,.88-3.28,1.51-4.82,1.02-2.47,2.07-5.03,1.29-7.84Zm-28.4,16.01c-.79-.69-1.59-1.3-2.35-1.87-1.91-1.44-3.57-2.68-4.09-4.57-.4-1.47-.19-2.71,.66-3.77,.6-.75,1.49-1.37,2.62-1.85-.31,1.19-.34,2.72,.2,4.67,.87,3.16,2.63,4.57,5.07,6.51,.09,.07,.19,.15,.28,.23l-2.38,.65Zm5.71-1.57c-.68-.57-1.3-1.07-1.86-1.51-2.24-1.79-3.48-2.78-4.11-5.06-.36-1.32-.69-3.63,.86-4.79,2.22-.14,4.64,.13,6.11,.35,.74,2.86,2,6.42,3.33,9.81l-4.34,1.19Zm12.84-5.55c-.25,.66-.53,1.41-.82,2.25l-4.4,1.21c-.77-4.67-1.48-7.9-2.12-10.13,1.15-.94,3.11-2.41,5.13-3.44,1.9,.21,2.8,2.35,3.16,3.67,.63,2.28,.07,3.76-.94,6.45Zm5.95-2.12c-.36,.87-.74,1.81-1.07,2.8l-2.38,.65c.04-.11,.09-.23,.13-.34,1.1-2.92,1.89-5.02,1.02-8.19-.54-1.95-1.34-3.25-2.21-4.11,2.04-.27,4.82,0,5.69,3.16,.52,1.89-.27,3.8-1.18,6.02Z"/><g><path class="cls-2" d="M35.27,92.14c-2.97-1.38-5.8-3.03-8.8-4.47-3.02-1.46-6.1-2.83-9.72-3.91,1.51,3.51,4.01,6.22,6.81,8.48,2.8,2.27,6.07,3.9,9.45,5.21,3.39,1.31,6.99,2.17,10.64,2.37,3.64,.2,7.36-.26,10.65-1.72-3.54-.55-6.78-1.3-9.93-2.31-3.13-1.01-6.14-2.27-9.1-3.65Z"/><path class="cls-2" d="M48.79,101.85c-1.98-.14-4,.28-5.84,1.09-3.68,1.63-6.6,4.86-7.42,8.65,1.68-1.01,3.12-1.99,4.6-2.79,1.48-.8,2.91-1.49,4.4-2.03,1.48-.54,2.99-1,4.58-1.44l5.19-1.44c-1.56-1.35-3.54-1.91-5.51-2.04Z"/><path class="cls-2" d="M22.24,134.77l-8.71,20.4h2.98l2.53-6.01h8.65l2.7,6.01h2.97l-9.09-20.4h-2.04Zm-2.04,11.8l3.04-7.35,3.27,7.35h-6.31Z"/><path class="cls-2" d="M128.41,66.88c2.28,2.09,5.04,3.45,7.91,4.07-2.27-1.87-4.37-3.73-5.96-5.86-1.59-2.13-2.65-4.48-3.1-6.99-.46-2.51-.41-5.17,0-7.85,.41-2.69,1.07-5.42,1.96-8.21-2.17,2.03-3.68,4.7-4.64,7.55-.96,2.85-1.33,6.03-.71,9.16,.61,3.11,2.27,6.04,4.54,8.12Z"/><path class="cls-2" d="M142.19,59.36c-.36-2.72-.71-5.24-.76-7.77-.04-2.52,.06-5.01,.53-7.49,.93-4.95,2.91-9.74,5.56-14.37-2.1,1.69-3.8,3.86-5.19,6.19-1.4,2.34-2.44,4.92-3.05,7.63-.6,2.7-.8,5.54-.32,8.28,.48,2.73,1.5,5.37,3.22,7.52Z"/><path class="cls-2" d="M137.96,65.58c-.67-2.83-1.31-5.51-1.71-8.22-.41-2.7-.64-5.4-.69-8.11-.09-5.44,.5-10.85,1.46-16.52-1.71,2.36-2.81,5.09-3.58,7.89-.78,2.81-1.14,5.74-1.1,8.68,.04,2.94,.51,5.87,1.44,8.66,.93,2.78,2.29,5.41,4.18,7.62Z"/><path class="cls-2" d="M122.36,68.28c-1.37-1.21-2.66-2.29-3.58-3.52-.92-1.23-1.4-2.54-1.41-3.98-.02-1.46,.43-3,1.04-4.53,.62-1.54,1.41-3.05,2.26-4.62-1.53,.95-2.82,2.25-3.86,3.76-1.03,1.51-1.78,3.33-1.87,5.36-.09,2.04,.85,4.16,2.33,5.44,1.49,1.28,3.27,1.96,5.09,2.1Z"/><path class="cls-2" d="M32.95,77.09c-10.48-9.78-19.42-21.47-24.74-34.86-2.65-6.67-4.41-13.72-5-20.88-.59-7.14-.22-14.45,1.81-21.35C3.01,3.16,1.85,6.78,1.04,10.43c-.41,1.83-.67,3.69-.84,5.56-.16,1.87-.24,3.76-.19,5.63,.21,7.55,2.07,14.99,4.94,21.9,2.88,6.93,6.89,13.33,11.65,18.97,4.76,5.65,10.29,10.55,16.34,14.59Z"/><path class="cls-2" d="M22.78,81.92c3.82,3.3,8.19,6.11,13.04,7.85,4.82,1.72,10.25,2.18,14.96,.59-4.93-.44-9.31-2.03-13.27-4.32-3.96-2.28-7.52-5.22-10.87-8.39-3.36-3.18-6.38-6.73-9.57-10.21-3.2-3.49-6.42-6.99-10.18-10.4,.97,5.02,3.18,9.56,5.89,13.72,2.72,4.17,6.17,7.87,9.99,11.17Z"/><path class="cls-2" d="M44.22,142.2c-.72-.43-1.49-.65-2.32-.65-1.5,0-2.84,.65-4.02,1.96v-1.7h-2.7v13.35h2.7v-9.54c.87-1.25,1.93-1.87,3.18-1.87,.98,0,1.68,.29,2.09,.88,.42,.59,.62,1.56,.62,2.92v7.61h2.64v-7.63c0-1.63-.19-2.81-.56-3.56-.37-.75-.92-1.34-1.63-1.77Z"/><path class="cls-2" d="M128.54,144.64l-.14,.23v-3.06h-2.66v13.35h2.66v-6.98c0-1.11,.31-2.08,.93-2.89,.62-.81,1.36-1.22,2.21-1.22,.79,0,1.64,.43,2.56,1.31l1.39-2.32c-1.09-1.01-2.12-1.51-3.12-1.51-1.28,0-2.56,1.03-3.83,3.09Z"/><path class="cls-2" d="M121.27,152.81v-5.68c0-1.12-.03-1.88-.1-2.29-.06-.4-.21-.8-.44-1.21-.23-.4-.49-.72-.79-.96-.87-.75-2.02-1.13-3.47-1.13-1.92,0-3.4,.61-4.43,1.81v2.89c1.37-1.49,2.77-2.24,4.21-2.24,1.6,0,2.41,.8,2.41,2.41v.71l-3.38,1.16c-1.11,.39-1.97,.91-2.57,1.57-.6,.66-.91,1.42-.91,2.26,0,.93,.31,1.7,.93,2.32,.62,.62,1.39,.92,2.32,.92,1.27,0,2.46-.44,3.58-1.31,.2,.89,.87,1.34,2,1.34,.39,0,.78-.07,1.14-.21,.37-.14,.85-.4,1.45-.79v-1.61c-.68,.47-1.18,.71-1.49,.71s-.47-.23-.47-.68Zm-2.6-.29c-.71,.69-1.49,1.03-2.34,1.03-.56,0-1.02-.17-1.37-.52-.35-.35-.53-.8-.53-1.35s.19-.99,.56-1.36c.37-.36,1.01-.72,1.91-1.08l1.77-.68v3.96Z"/><path class="cls-2" d="M113.6,127.68c1.34-1.15,2.79-2.16,4.38-2.82,.79-.34,1.61-.58,2.44-.7,.8-.12,1.71-.11,2.37,.08,0,0,5.3,1.05,7.95,1.51l.52,.08c.12,0,.11,.04,.44,.02,.26-.04,.27-.05,.38-.08l.99-.28c.65-.19,1.28-.4,1.92-.61,1.22-.42,2.44-.86,3.63-1.36,1.66,.04,3.26,.09,5.02-.04,1.81-.17,3.63-.78,5.19-1.86,.79-.54,1.51-1.2,2.11-2.01,.59-.81,1.09-1.78,1.23-2.94,.15-1.15-.21-2.5-.99-3.43-.68-.84-1.52-1.37-2.36-1.75l-14.55-11.73c-.02-.4-.1-.79-.2-1.14-.2-.66-.5-1.23-.83-1.73-.67-.99-1.45-1.76-2.26-2.44-.81-.68-1.65-1.28-2.51-1.82-.87-.55-2.12-1.33-3.09-1.81l-3.06,.84c-.38-.18-.61-.28-.61-.28l-14.27,3.87c-.03,.18-.05,.34-.08,.52-2.97-1.11-5.09-3.31-8.14-4.18-1.53-.43-3.06-.83-4.69-1.1-.82-.12-1.62-.25-2.62-.16-.25,.03-.54,.08-.83,.2-.34,.14-.69,.38-.91,.75-.45,.76-.29,1.41-.18,1.87,.28,.95,.73,1.64,1.19,2.33,.46,.68,.96,1.31,1.49,1.92,1.06,1.21,2.15,2.34,3.44,3.35,.17,.12,.33,.25,.53,.36,.27,.14,.41,.19,.62,.27,.39,.15,.78,.26,1.18,.35,.46,.11,.93,.18,1.4,.23-4.02,1.4-10.08,3.04-15.98,4.22-3.67-3.49-7.39-6.9-11.07-10.31-4.15-3.86-8.28-7.7-12.23-11.68-1.96-2-3.87-4.03-5.61-6.2-.88-1.08-1.7-2.2-2.41-3.39-.73-1.19-1.35-2.45-1.74-3.86-.21,1.46,0,2.98,.37,4.43,.39,1.45,.94,2.85,1.58,4.2,1.3,2.69,2.94,5.17,4.71,7.51,3.56,4.68,7.68,8.81,11.97,12.68,3.11,2.79,6.35,5.41,9.64,7.95l-.05,.02,17.02,13.89c3.34,2.72-2.44,3.74-3.54,6.41h14.22c0-3.5-5.41-3.87-5.63-8.37-.22-4.5-4.26-5.97-3.67-7.54,.57-1.51,5.03-4.87,8.5-6.31-1.34,8.96-1.16,10.1,2.71,12.19,4.91,2.65,4.84,9.84,4.84,9.84,.04,.05,.11,.05,.16,.01Zm-2.03-33.25c2.34-.27,3.88-1.11,5.59-1.33l-.38,.1c.82-.23,3,.17,5.12,.69,3.55,1.34,6.57,3.93,8,5.72,2.03,2.52,2.34,5.51,2.37,6.39,.03,.88,1.14,3.78,2.61,4.34,1.48,.56,2.73,1.46,3.75,2.67,1.32,1.58,.94,3.92,.49,5.14-.46,1.22-2.2,3.29-2.2,3.29,0,0-.62-1.16-1.58-2.03-.95-.87-1.23-1.38-5.91-1.1-1.73,.1-3.62,.32-5.44,.52-1.6,.18-3.12,.35-4.35,.42-1.96,.12-3.16,.01-3.55-.86-.36-.84,.41-1.57,.67-1.81,1.95-1.84-.29-5.81-3.96-7.81-3.15-1.72-1.21-14.34-1.21-14.34Z"/><path class="cls-2" d="M157.42,53.09c-.61-3.96-1.99-7.81-4.21-11.04,1.24,3.72,1.89,7.48,1.97,11.25,.09,3.76-.36,7.5-1.13,11.17-.77,3.68-1.97,7.25-3.24,10.82-1.27,3.58-2.58,7.15-3.83,10.94,2.94-2.74,5.1-6.14,6.77-9.74,1.67-3.61,2.79-7.47,3.47-11.42s.8-8.01,.19-11.98Z"/><path class="cls-2" d="M152.18,141.52c-1.54,0-3.02,.81-4.43,2.44-.93-1.61-2.24-2.41-3.93-2.41-1.29,0-2.6,.67-3.95,2.02v-1.76h-2.64v13.35h2.64v-9.7c.59-.64,1.12-1.08,1.58-1.33,.46-.25,.97-.38,1.52-.38,.99,0,1.68,.29,2.08,.88,.4,.59,.59,1.62,.59,3.1v7.43h2.66v-9.7c.95-1.1,1.97-1.65,3.07-1.65,.85,0,1.5,.3,1.96,.89,.45,.59,.68,1.44,.68,2.56v7.91h2.64v-7.88c0-1.95-.42-3.39-1.26-4.34-.84-.95-1.9-1.42-3.2-1.42Z"/><polygon class="cls-2" points="99.32 155.16 102.23 155.16 102.23 145.72 110.14 145.72 110.14 143.13 102.23 143.13 102.23 137.47 110.14 137.47 110.14 134.89 99.32 134.89 99.32 155.16"/><path class="cls-2" d="M122.9,104.84c-.68-.46-1.14-1.25-1.19-2.19-.04-.86,.26-1.65,.78-2.24-1.37,.23-2.38,1.12-2.38,2.19,0,1.18,1.23,2.14,2.8,2.24Z"/><path class="cls-2" d="M81.99,141.55c-1.84,0-3.33,.64-4.48,1.91-1.15,1.27-1.73,2.93-1.73,4.96,0,1.36,.27,2.55,.82,3.58,.55,1.03,1.28,1.85,2.18,2.46,.91,.61,2.1,.91,3.57,.91,1.07,0,2.01-.12,2.81-.35,.79-.23,1.6-.62,2.42-1.16v-2.58c-1.47,1.08-3.08,1.63-4.82,1.63-1.25,0-2.27-.38-3.06-1.13-.79-.76-1.22-1.77-1.28-3.05h9.39v-.33c0-2.08-.53-3.74-1.58-4.98-1.06-1.24-2.47-1.86-4.24-1.86Zm-3.51,5.59c.19-1.06,.58-1.87,1.18-2.44,.6-.57,1.38-.86,2.33-.86s1.7,.29,2.27,.86c.56,.57,.88,1.38,.94,2.44h-6.72Z"/><path class="cls-2" d="M68.23,144.64l-.15,.23v-3.06h-2.66v13.35h2.66v-6.98c0-1.11,.31-2.08,.94-2.89,.62-.81,1.36-1.22,2.21-1.22,.78,0,1.64,.43,2.56,1.31l1.39-2.32c-1.09-1.01-2.12-1.51-3.12-1.51-1.28,0-2.56,1.03-3.83,3.09Z"/><path class="cls-2" d="M62.69,101.73c-3.84-4.13-6.45-9.22-9.58-14.07-3.12-4.83-6.32-9.65-10-14.02-7.34-8.72-15.41-16.64-21.29-26.1-5.86-9.44-8.75-20.66-7.65-32.04-1.29,5.55-1.6,11.4-.73,17.15,.86,5.75,2.89,11.33,5.63,16.46,5.5,10.32,13.3,18.99,21.01,27.24,3.86,4.14,8.02,7.99,11.6,12.35,3.58,4.36,6.03,9.52,9.04,14.49,3,4.95,6.45,9.88,11.21,13.56,2.36,1.83,5,3.38,7.88,4.33,2.86,.94,5.98,1.49,8.99,.72-5.19-2.94-9.41-5.89-13.74-9.14-4.29-3.22-8.53-6.8-12.37-10.93Z"/><path class="cls-2" d="M59.01,142.09c-1.05-.38-2.01-.57-2.9-.57-1.92,0-3.49,.63-4.73,1.9-1.23,1.27-1.85,2.88-1.85,4.85,0,2.1,.59,3.77,1.77,5.02,1.18,1.25,2.75,1.87,4.73,1.87h5.64v-20.28h-2.66v7.2Zm0,10.81h-2.05c-1.18,0-2-.08-2.46-.23-.45-.15-.89-.45-1.29-.9-.68-.75-1.01-1.8-1.01-3.18,0-1.46,.39-2.62,1.17-3.48s1.83-1.29,3.14-1.29c.84,0,1.68,.21,2.5,.62v8.46Z"/></g></g></g></svg>