<?xml version="1.0" encoding="UTF-8"?><svg id="Layer_2" xmlns="http://www.w3.org/2000/svg" viewBox="0 0 474.99 63.85"><defs><style>.cls-1{fill:#fff;}</style></defs><g id="bg"><g><polygon class="cls-1" points=".57 .07 3.49 .07 3.49 19.03 14.28 19.03 14.28 21.59 .57 21.59 .57 .07"/><path class="cls-1" d="M19.54,5.9v10.42c0,.8,.12,1.46,.37,1.96,.46,.94,1.31,1.41,2.55,1.41,1.79,0,3-.82,3.65-2.46,.35-.88,.53-2.08,.53-3.62V5.9h2.64v15.69h-2.49l.03-2.31c-.34,.6-.75,1.1-1.25,1.51-.99,.82-2.19,1.23-3.59,1.23-2.19,0-3.69-.75-4.48-2.24-.43-.8-.65-1.87-.65-3.21V5.9h2.7Zm.01-5.48h2.74V3.47h-2.74V.42Zm4.83,0h2.74V3.47h-2.74V.42Z"/><path class="cls-1" d="M33.37,5.98h2.58v2.08c.53-.71,1.11-1.26,1.73-1.66,.9-.58,1.94-.88,3.14-.88,1.78,0,3.29,.68,4.54,2.04,1.24,1.36,1.87,3.31,1.87,5.84,0,3.42-.9,5.86-2.69,7.32-1.14,.93-2.46,1.39-3.97,1.39-1.19,0-2.18-.26-2.99-.78-.47-.3-1-.8-1.57-1.51v8.01h-2.64V5.98Zm9.92,12.3c.82-1.03,1.23-2.57,1.23-4.62,0-1.25-.18-2.32-.54-3.22-.69-1.73-1.94-2.59-3.76-2.59s-3.09,.91-3.76,2.74c-.36,.98-.54,2.22-.54,3.72,0,1.21,.18,2.24,.54,3.09,.69,1.62,1.94,2.43,3.76,2.43,1.23,0,2.26-.51,3.08-1.55Z"/><path class="cls-1" d="M51.84,16.67c.08,.88,.3,1.55,.67,2.02,.68,.85,1.85,1.27,3.53,1.27,1,0,1.87-.21,2.63-.64,.76-.42,1.14-1.08,1.14-1.97,0-.67-.3-1.19-.91-1.54-.39-.22-1.15-.46-2.29-.75l-2.13-.53c-1.36-.33-2.36-.71-3.01-1.11-1.15-.72-1.73-1.7-1.73-2.96,0-1.48,.54-2.69,1.62-3.6,1.08-.92,2.54-1.38,4.37-1.38,2.4,0,4.13,.69,5.18,2.08,.67,.88,.99,1.83,.97,2.84h-2.49c-.05-.59-.27-1.13-.64-1.62-.62-.69-1.7-1.03-3.22-1.03-1.02,0-1.79,.19-2.32,.57-.53,.38-.79,.88-.79,1.5,0,.68,.35,1.22,1.03,1.63,.4,.24,.99,.46,1.76,.64l1.78,.42c1.93,.46,3.22,.9,3.88,1.33,1.03,.67,1.54,1.73,1.54,3.18s-.54,2.6-1.61,3.62c-1.07,1.02-2.71,1.52-4.9,1.52-2.36,0-4.04-.53-5.02-1.59-.98-1.06-1.51-2.37-1.58-3.93h2.53Z"/><path class="cls-1" d="M73.68,12.1c.61-.08,1.01-.33,1.22-.76,.12-.24,.18-.57,.18-1.01,0-.9-.32-1.56-.96-1.96s-1.55-.61-2.74-.61c-1.37,0-2.35,.37-2.92,1.12-.32,.41-.53,1.03-.63,1.84h-2.46c.05-1.94,.67-3.29,1.88-4.05,1.2-.76,2.6-1.14,4.19-1.14,1.84,0,3.34,.35,4.49,1.05,1.14,.7,1.71,1.8,1.71,3.28v9.04c0,.27,.06,.49,.17,.66,.11,.17,.35,.25,.71,.25,.12,0,.25,0,.4-.02,.15-.02,.3-.04,.47-.07v1.95c-.41,.12-.72,.19-.94,.22s-.51,.04-.88,.04c-.91,0-1.57-.32-1.98-.97-.22-.34-.37-.83-.45-1.45-.54,.7-1.31,1.31-2.31,1.83s-2.11,.78-3.33,.78c-1.46,0-2.64-.44-3.57-1.32s-1.38-1.99-1.38-3.31c0-1.45,.45-2.58,1.36-3.38s2.1-1.29,3.57-1.48l4.2-.53Zm-5.55,7.12c.56,.44,1.22,.66,1.98,.66,.93,0,1.82-.22,2.7-.64,1.46-.72,2.2-1.88,2.2-3.5v-2.12c-.32,.21-.74,.38-1.24,.51-.51,.14-1,.24-1.49,.29l-1.59,.21c-.96,.13-1.67,.33-2.16,.6-.81,.46-1.22,1.19-1.22,2.19,0,.76,.28,1.36,.83,1.8Z"/><path class="cls-1" d="M90.29,0h2.64V8.03c.62-.79,1.19-1.35,1.68-1.67,.85-.55,1.91-.83,3.18-.83,2.28,0,3.82,.79,4.63,2.39,.44,.87,.66,2.08,.66,3.62v10.06h-2.71V11.7c0-1.15-.14-2-.44-2.53-.47-.86-1.38-1.29-2.7-1.29-1.09,0-2.08,.38-2.97,1.13s-1.33,2.17-1.33,4.26v8.32h-2.64V0Z"/><path class="cls-1" d="M106.98,.07h2.68V3.06h-2.68V.07Zm0,5.9h2.68v15.62h-2.68V5.98Z"/><path class="cls-1" d="M113.64,.07h2.68V3.06h-2.68V.07Zm0,5.9h2.68v15.62h-2.68V5.98Z"/><path class="cls-1" d="M120.38,5.9h2.5v2.71c.21-.53,.71-1.17,1.51-1.93s1.72-1.14,2.77-1.14c.05,0,.13,0,.25,.01s.32,.03,.6,.06v2.78c-.16-.03-.3-.05-.43-.06s-.28-.01-.43-.01c-1.33,0-2.35,.43-3.06,1.28s-1.07,1.84-1.07,2.95v9.02h-2.64V5.9Z"/><path class="cls-1" d="M139.99,6.34c1.04,.52,1.83,1.2,2.37,2.03,.52,.79,.87,1.71,1.05,2.77,.16,.72,.23,1.88,.23,3.46h-11.41c.05,1.6,.42,2.88,1.12,3.84,.7,.96,1.78,1.45,3.24,1.45,1.37,0,2.46-.45,3.27-1.37,.46-.53,.78-1.14,.97-1.84h2.59c-.07,.58-.3,1.22-.68,1.93-.39,.71-.82,1.28-1.29,1.74-.8,.77-1.78,1.31-2.95,1.58-.63,.16-1.34,.23-2.14,.23-1.94,0-3.59-.71-4.93-2.13-1.35-1.42-2.02-3.41-2.02-5.97s.68-4.57,2.04-6.14c1.36-1.57,3.13-2.36,5.33-2.36,1.11,0,2.18,.26,3.22,.78Zm.94,6.16c-.11-1.14-.35-2.06-.74-2.74-.72-1.27-1.91-1.9-3.59-1.9-1.2,0-2.21,.44-3.02,1.31-.81,.88-1.25,1.99-1.29,3.33h8.64Z"/><path class="cls-1" d="M155.7,6.53c.5,.34,1,.84,1.52,1.49v-1.98h2.43v14.27c0,1.99-.29,3.57-.88,4.72-1.09,2.13-3.15,3.19-6.18,3.19-1.68,0-3.1-.38-4.25-1.14s-1.79-1.94-1.93-3.55h2.68c.13,.7,.38,1.25,.76,1.63,.59,.59,1.52,.88,2.8,.88,2.01,0,3.32-.71,3.95-2.14,.37-.84,.54-2.34,.51-4.5-.53,.8-1.16,1.4-1.9,1.79-.74,.39-1.72,.59-2.93,.59-1.69,0-3.17-.6-4.44-1.81-1.27-1.21-1.9-3.2-1.9-5.98,0-2.63,.64-4.68,1.92-6.15,1.28-1.47,2.82-2.21,4.63-2.21,1.23,0,2.3,.29,3.21,.91Zm.32,2.83c-.8-.94-1.81-1.41-3.05-1.41-1.85,0-3.11,.87-3.79,2.61-.36,.93-.54,2.14-.54,3.65,0,1.77,.36,3.11,1.07,4.04,.71,.92,1.67,1.38,2.88,1.38,1.88,0,3.22-.85,3.98-2.56,.43-.97,.64-2.09,.64-3.38,0-1.94-.4-3.38-1.2-4.32Z"/><path class="cls-1" d="M172.08,12.1c.61-.08,1.01-.33,1.22-.76,.12-.24,.18-.57,.18-1.01,0-.9-.32-1.56-.96-1.96s-1.55-.61-2.74-.61c-1.37,0-2.35,.37-2.92,1.12-.32,.41-.53,1.03-.63,1.84h-2.46c.05-1.94,.67-3.29,1.88-4.05,1.2-.76,2.6-1.14,4.19-1.14,1.84,0,3.34,.35,4.49,1.05,1.14,.7,1.71,1.8,1.71,3.28v9.04c0,.27,.06,.49,.17,.66,.11,.17,.35,.25,.71,.25,.12,0,.25,0,.4-.02,.15-.02,.3-.04,.47-.07v1.95c-.41,.12-.72,.19-.94,.22s-.51,.04-.88,.04c-.91,0-1.57-.32-1.98-.97-.22-.34-.37-.83-.45-1.45-.54,.7-1.31,1.31-2.31,1.83s-2.11,.78-3.33,.78c-1.46,0-2.64-.44-3.57-1.32s-1.38-1.99-1.38-3.31c0-1.45,.45-2.58,1.36-3.38s2.1-1.29,3.57-1.48l4.2-.53Zm-5.55,7.12c.56,.44,1.22,.66,1.98,.66,.93,0,1.82-.22,2.7-.64,1.46-.72,2.2-1.88,2.2-3.5v-2.12c-.32,.21-.74,.38-1.24,.51-.51,.14-1,.24-1.49,.29l-1.59,.21c-.96,.13-1.67,.33-2.16,.6-.81,.46-1.22,1.19-1.22,2.19,0,.76,.28,1.36,.83,1.8Z"/><rect class="cls-1" x="188.76" y=".07" width="2.64" height="21.52"/><path class="cls-1" d="M205.04,6.34c1.04,.52,1.83,1.2,2.37,2.03,.52,.79,.87,1.71,1.05,2.77,.16,.72,.23,1.88,.23,3.46h-11.41c.05,1.6,.42,2.88,1.12,3.84,.7,.96,1.78,1.45,3.24,1.45,1.37,0,2.46-.45,3.27-1.37,.46-.53,.78-1.14,.97-1.84h2.59c-.07,.58-.3,1.22-.68,1.93-.39,.71-.82,1.28-1.29,1.74-.8,.77-1.78,1.31-2.95,1.58-.63,.16-1.34,.23-2.14,.23-1.94,0-3.59-.71-4.93-2.13-1.35-1.42-2.02-3.41-2.02-5.97s.68-4.57,2.04-6.14c1.36-1.57,3.13-2.36,5.33-2.36,1.11,0,2.18,.26,3.22,.78Zm.94,6.16c-.11-1.14-.35-2.06-.74-2.74-.72-1.27-1.91-1.9-3.59-1.9-1.2,0-2.21,.44-3.02,1.31-.81,.88-1.25,1.99-1.29,3.33h8.64Z"/><path class="cls-1" d="M212.04,0h2.64V8.03c.62-.79,1.19-1.35,1.68-1.67,.85-.55,1.91-.83,3.18-.83,2.28,0,3.82,.79,4.63,2.39,.44,.87,.66,2.08,.66,3.62v10.06h-2.71V11.7c0-1.15-.14-2-.44-2.53-.47-.86-1.38-1.29-2.7-1.29-1.09,0-2.08,.38-2.97,1.13s-1.33,2.17-1.33,4.26v8.32h-2.64V0Z"/><path class="cls-1" d="M228.72,5.9h2.61v2.23c.62-.77,1.19-1.33,1.7-1.68,.87-.6,1.86-.89,2.96-.89,1.25,0,2.26,.31,3.02,.92,.43,.35,.82,.87,1.17,1.55,.59-.84,1.27-1.46,2.07-1.87s1.68-.61,2.67-.61c2.11,0,3.54,.76,4.31,2.29,.41,.82,.62,1.92,.62,3.31v10.44h-2.74V10.69c0-1.04-.26-1.76-.78-2.15s-1.16-.59-1.91-.59c-1.04,0-1.93,.35-2.67,1.04s-1.12,1.85-1.12,3.47v9.13h-2.68V11.35c0-1.06-.12-1.84-.38-2.33-.39-.74-1.15-1.1-2.24-1.1-1,0-1.9,.39-2.72,1.16s-1.22,2.17-1.22,4.19v8.32h-2.64V5.9Z"/><path class="cls-1" d="M262.12,12.1c.61-.08,1.01-.33,1.22-.76,.12-.24,.18-.57,.18-1.01,0-.9-.32-1.56-.96-1.96s-1.55-.61-2.74-.61c-1.37,0-2.35,.37-2.92,1.12-.32,.41-.53,1.03-.63,1.84h-2.46c.05-1.94,.67-3.29,1.88-4.05,1.2-.76,2.6-1.14,4.19-1.14,1.84,0,3.34,.35,4.49,1.05,1.14,.7,1.71,1.8,1.71,3.28v9.04c0,.27,.06,.49,.17,.66,.11,.17,.35,.25,.71,.25,.12,0,.25,0,.4-.02,.15-.02,.3-.04,.47-.07v1.95c-.41,.12-.72,.19-.94,.22s-.51,.04-.88,.04c-.91,0-1.57-.32-1.98-.97-.22-.34-.37-.83-.45-1.45-.54,.7-1.31,1.31-2.31,1.83s-2.11,.78-3.33,.78c-1.46,0-2.64-.44-3.57-1.32s-1.38-1.99-1.38-3.31c0-1.45,.45-2.58,1.36-3.38s2.1-1.29,3.57-1.48l4.2-.53Zm-5.55,7.12c.56,.44,1.22,.66,1.98,.66,.93,0,1.82-.22,2.7-.64,1.46-.72,2.2-1.88,2.2-3.5v-2.12c-.32,.21-.74,.38-1.24,.51-.51,.14-1,.24-1.49,.29l-1.59,.21c-.96,.13-1.67,.33-2.16,.6-.81,.46-1.22,1.19-1.22,2.19,0,.76,.28,1.36,.83,1.8Z"/><path class="cls-1" d="M278.73,5.9h2.5v2.23c.74-.92,1.53-1.58,2.36-1.98s1.75-.6,2.77-.6c2.23,0,3.73,.78,4.51,2.33,.43,.85,.64,2.07,.64,3.65v10.06h-2.68V11.7c0-.96-.14-1.73-.42-2.31-.47-.98-1.32-1.46-2.55-1.46-.62,0-1.14,.07-1.54,.19-.72,.22-1.36,.64-1.9,1.29-.44,.52-.73,1.05-.86,1.6-.13,.55-.2,1.34-.2,2.37v8.22h-2.64V5.9Z"/><path class="cls-1" d="M295.42,.07h2.68V3.06h-2.68V.07Zm0,5.9h2.68v15.62h-2.68V5.98Z"/><path class="cls-1" d="M302.08,5.9h2.5v2.23c.74-.92,1.53-1.58,2.36-1.98s1.75-.6,2.77-.6c2.23,0,3.73,.78,4.51,2.33,.43,.85,.64,2.07,.64,3.65v10.06h-2.68V11.7c0-.96-.14-1.73-.42-2.31-.47-.98-1.32-1.46-2.55-1.46-.62,0-1.14,.07-1.54,.19-.72,.22-1.36,.64-1.9,1.29-.44,.52-.73,1.05-.86,1.6-.13,.55-.2,1.34-.2,2.37v8.22h-2.64V5.9Z"/><path class="cls-1" d="M327.49,6.53c.5,.34,1,.84,1.52,1.49v-1.98h2.43v14.27c0,1.99-.29,3.57-.88,4.72-1.09,2.13-3.15,3.19-6.18,3.19-1.68,0-3.1-.38-4.25-1.14s-1.79-1.94-1.93-3.55h2.68c.13,.7,.38,1.25,.76,1.63,.59,.59,1.52,.88,2.8,.88,2.01,0,3.32-.71,3.95-2.14,.37-.84,.54-2.34,.51-4.5-.53,.8-1.16,1.4-1.9,1.79-.74,.39-1.72,.59-2.93,.59-1.69,0-3.17-.6-4.44-1.81-1.27-1.21-1.9-3.2-1.9-5.98,0-2.63,.64-4.68,1.92-6.15,1.28-1.47,2.82-2.21,4.63-2.21,1.23,0,2.3,.29,3.21,.91Zm.32,2.83c-.8-.94-1.81-1.41-3.05-1.41-1.85,0-3.11,.87-3.79,2.61-.36,.93-.54,2.14-.54,3.65,0,1.77,.36,3.11,1.07,4.04,.71,.92,1.67,1.38,2.88,1.38,1.88,0,3.22-.85,3.98-2.56,.43-.97,.64-2.09,.64-3.38,0-1.94-.4-3.38-1.2-4.32Z"/><path class="cls-1" d="M352.19,12.1c.61-.08,1.01-.33,1.22-.76,.12-.24,.18-.57,.18-1.01,0-.9-.32-1.56-.96-1.96s-1.55-.61-2.74-.61c-1.37,0-2.35,.37-2.92,1.12-.32,.41-.53,1.03-.63,1.84h-2.46c.05-1.94,.67-3.29,1.88-4.05,1.2-.76,2.6-1.14,4.19-1.14,1.84,0,3.34,.35,4.49,1.05,1.14,.7,1.71,1.8,1.71,3.28v9.04c0,.27,.06,.49,.17,.66,.11,.17,.35,.25,.71,.25,.12,0,.25,0,.4-.02,.15-.02,.3-.04,.47-.07v1.95c-.41,.12-.72,.19-.94,.22s-.51,.04-.88,.04c-.91,0-1.57-.32-1.98-.97-.22-.34-.37-.83-.45-1.45-.54,.7-1.31,1.31-2.31,1.83s-2.11,.78-3.33,.78c-1.46,0-2.64-.44-3.57-1.32s-1.38-1.99-1.38-3.31c0-1.45,.45-2.58,1.36-3.38s2.1-1.29,3.57-1.48l4.2-.53Zm-5.55,7.12c.56,.44,1.22,.66,1.98,.66,.93,0,1.82-.22,2.7-.64,1.46-.72,2.2-1.88,2.2-3.5v-2.12c-.32,.21-.74,.38-1.24,.51-.51,.14-1,.24-1.49,.29l-1.59,.21c-.96,.13-1.67,.33-2.16,.6-.81,.46-1.22,1.19-1.22,2.19,0,.76,.28,1.36,.83,1.8Z"/><path class="cls-1" d="M360.47,5.9h2.5v2.23c.74-.92,1.53-1.58,2.36-1.98s1.75-.6,2.77-.6c2.23,0,3.73,.78,4.51,2.33,.43,.85,.64,2.07,.64,3.65v10.06h-2.68V11.7c0-.96-.14-1.73-.42-2.31-.47-.98-1.32-1.46-2.55-1.46-.62,0-1.14,.07-1.54,.19-.72,.22-1.36,.64-1.9,1.29-.44,.52-.73,1.05-.86,1.6-.13,.55-.2,1.34-.2,2.37v8.22h-2.64V5.9Z"/><path class="cls-1" d="M377.15,5.9h2.5v2.23c.74-.92,1.53-1.58,2.36-1.98s1.75-.6,2.77-.6c2.23,0,3.73,.78,4.51,2.33,.43,.85,.64,2.07,.64,3.65v10.06h-2.68V11.7c0-.96-.14-1.73-.42-2.31-.47-.98-1.32-1.46-2.55-1.46-.62,0-1.14,.07-1.54,.19-.72,.22-1.36,.64-1.9,1.29-.44,.52-.73,1.05-.86,1.6-.13,.55-.2,1.34-.2,2.37v8.22h-2.64V5.9Z"/><path class="cls-1" d="M402.25,12.1c.61-.08,1.01-.33,1.22-.76,.12-.24,.18-.57,.18-1.01,0-.9-.32-1.56-.96-1.96s-1.55-.61-2.74-.61c-1.37,0-2.35,.37-2.92,1.12-.32,.41-.53,1.03-.63,1.84h-2.46c.05-1.94,.67-3.29,1.88-4.05,1.2-.76,2.6-1.14,4.19-1.14,1.84,0,3.34,.35,4.49,1.05,1.14,.7,1.71,1.8,1.71,3.28v9.04c0,.27,.06,.49,.17,.66,.11,.17,.35,.25,.71,.25,.12,0,.25,0,.4-.02,.15-.02,.3-.04,.47-.07v1.95c-.41,.12-.72,.19-.94,.22s-.51,.04-.88,.04c-.91,0-1.57-.32-1.98-.97-.22-.34-.37-.83-.45-1.45-.54,.7-1.31,1.31-2.31,1.83s-2.11,.78-3.33,.78c-1.46,0-2.64-.44-3.57-1.32s-1.38-1.99-1.38-3.31c0-1.45,.45-2.58,1.36-3.38s2.1-1.29,3.57-1.48l4.2-.53Zm-5.55,7.12c.56,.44,1.22,.66,1.98,.66,.93,0,1.82-.22,2.7-.64,1.46-.72,2.2-1.88,2.2-3.5v-2.12c-.32,.21-.74,.38-1.24,.51-.51,.14-1,.24-1.49,.29l-1.59,.21c-.96,.13-1.67,.33-2.16,.6-.81,.46-1.22,1.19-1.22,2.19,0,.76,.28,1.36,.83,1.8Z"/><path class="cls-1" d="M430.23,7.47c1.39,1.35,2.08,3.33,2.08,5.94s-.61,4.62-1.83,6.26c-1.22,1.65-3.12,2.47-5.69,2.47-2.14,0-3.84-.73-5.11-2.19-1.26-1.46-1.89-3.42-1.89-5.88,0-2.63,.66-4.73,1.99-6.29,1.33-1.56,3.11-2.34,5.35-2.34,2.01,0,3.7,.67,5.09,2.02Zm-1.64,10.43c.64-1.32,.96-2.79,.96-4.41,0-1.46-.23-2.65-.7-3.57-.73-1.44-2-2.17-3.79-2.17-1.59,0-2.75,.61-3.48,1.84-.72,1.23-1.09,2.71-1.09,4.45s.36,3.06,1.09,4.17c.72,1.11,1.87,1.67,3.45,1.67,1.73,0,2.91-.66,3.56-1.98Z"/><path class="cls-1" d="M435.54,5.9h2.61v2.23c.62-.77,1.19-1.33,1.7-1.68,.87-.6,1.86-.89,2.96-.89,1.25,0,2.26,.31,3.02,.92,.43,.35,.82,.87,1.17,1.55,.59-.84,1.27-1.46,2.07-1.87s1.68-.61,2.67-.61c2.11,0,3.54,.76,4.31,2.29,.41,.82,.62,1.92,.62,3.31v10.44h-2.74V10.69c0-1.04-.26-1.76-.78-2.15s-1.16-.59-1.91-.59c-1.04,0-1.93,.35-2.67,1.04s-1.12,1.85-1.12,3.47v9.13h-2.68V11.35c0-1.06-.12-1.84-.38-2.33-.39-.74-1.15-1.1-2.24-1.1-1,0-1.9,.39-2.72,1.16s-1.22,2.17-1.22,4.19v8.32h-2.64V5.9Z"/><path class="cls-1" d="M468.94,12.1c.61-.08,1.01-.33,1.22-.76,.12-.24,.18-.57,.18-1.01,0-.9-.32-1.56-.96-1.96s-1.55-.61-2.74-.61c-1.37,0-2.35,.37-2.92,1.12-.32,.41-.53,1.03-.63,1.84h-2.46c.05-1.94,.67-3.29,1.88-4.05,1.2-.76,2.6-1.14,4.19-1.14,1.84,0,3.34,.35,4.49,1.05,1.14,.7,1.71,1.8,1.71,3.28v9.04c0,.27,.06,.49,.17,.66,.11,.17,.35,.25,.71,.25,.12,0,.25,0,.4-.02,.15-.02,.3-.04,.47-.07v1.95c-.41,.12-.72,.19-.94,.22s-.51,.04-.88,.04c-.91,0-1.57-.32-1.98-.97-.22-.34-.37-.83-.45-1.45-.54,.7-1.31,1.31-2.31,1.83s-2.11,.78-3.33,.78c-1.46,0-2.64-.44-3.57-1.32s-1.38-1.99-1.38-3.31c0-1.45,.45-2.58,1.36-3.38s2.1-1.29,3.57-1.48l4.2-.53Zm-5.55,7.12c.56,.44,1.22,.66,1.98,.66,.93,0,1.82-.22,2.7-.64,1.46-.72,2.2-1.88,2.2-3.5v-2.12c-.32,.21-.74,.38-1.24,.51-.51,.14-1,.24-1.49,.29l-1.59,.21c-.96,.13-1.67,.33-2.16,.6-.81,.46-1.22,1.19-1.22,2.19,0,.76,.28,1.36,.83,1.8Z"/><path class="cls-1" d="M0,41.98H2.58v2.08c.53-.71,1.11-1.26,1.73-1.66,.9-.58,1.94-.88,3.14-.88,1.78,0,3.29,.68,4.54,2.04,1.24,1.36,1.87,3.31,1.87,5.84,0,3.42-.9,5.86-2.69,7.32-1.14,.93-2.46,1.39-3.97,1.39-1.19,0-2.18-.26-2.99-.78-.47-.3-1-.8-1.57-1.51v8.01H0v-21.87Zm9.92,12.3c.82-1.03,1.23-2.57,1.23-4.62,0-1.25-.18-2.32-.54-3.22-.69-1.73-1.94-2.59-3.76-2.59s-3.09,.91-3.76,2.74c-.36,.98-.54,2.22-.54,3.72,0,1.21,.18,2.24,.54,3.09,.69,1.62,1.94,2.43,3.76,2.43,1.23,0,2.26-.51,3.08-1.55Z"/><path class="cls-1" d="M25.31,48.1c.61-.08,1.01-.33,1.22-.76,.12-.24,.18-.57,.18-1.01,0-.9-.32-1.56-.96-1.96-.64-.41-1.55-.61-2.74-.61-1.37,0-2.35,.37-2.92,1.12-.32,.41-.53,1.03-.63,1.84h-2.46c.05-1.94,.68-3.29,1.88-4.05,1.2-.76,2.6-1.14,4.19-1.14,1.84,0,3.34,.35,4.49,1.05,1.14,.7,1.71,1.8,1.71,3.28v9.04c0,.27,.06,.49,.17,.66,.11,.17,.35,.25,.71,.25,.12,0,.25,0,.4-.02,.15-.02,.3-.04,.47-.07v1.95c-.41,.12-.72,.19-.94,.22-.21,.03-.51,.04-.88,.04-.91,0-1.57-.32-1.98-.97-.22-.34-.37-.83-.45-1.45-.54,.7-1.31,1.31-2.31,1.83-1.01,.52-2.11,.78-3.33,.78-1.46,0-2.64-.44-3.57-1.32s-1.38-1.99-1.38-3.31c0-1.45,.45-2.58,1.36-3.38s2.1-1.29,3.57-1.48l4.2-.53Zm-5.55,7.12c.56,.44,1.22,.66,1.98,.66,.93,0,1.82-.22,2.7-.64,1.46-.72,2.2-1.88,2.2-3.5v-2.12c-.32,.21-.74,.38-1.24,.51-.51,.14-1,.24-1.49,.29l-1.59,.21c-.96,.13-1.67,.33-2.15,.6-.81,.46-1.22,1.19-1.22,2.19,0,.76,.28,1.36,.83,1.8Z"/><path class="cls-1" d="M33.59,41.9h2.5v2.23c.74-.92,1.53-1.58,2.36-1.98s1.75-.6,2.77-.6c2.23,0,3.73,.78,4.51,2.33,.43,.85,.64,2.07,.64,3.65v10.06h-2.68v-9.89c0-.96-.14-1.73-.42-2.31-.47-.98-1.32-1.46-2.55-1.46-.62,0-1.14,.07-1.54,.19-.72,.22-1.36,.64-1.9,1.29-.44,.52-.73,1.05-.86,1.6-.13,.55-.2,1.34-.2,2.37v8.22h-2.64v-15.69Z"/><path class="cls-1" d="M52.91,41.9v10.42c0,.8,.12,1.45,.37,1.96,.46,.94,1.31,1.41,2.55,1.41,1.79,0,3-.82,3.65-2.46,.35-.88,.53-2.08,.53-3.62v-7.71h2.64v15.69h-2.49l.03-2.31c-.34,.6-.75,1.1-1.25,1.51-.99,.82-2.18,1.23-3.59,1.23-2.19,0-3.69-.75-4.48-2.24-.43-.8-.65-1.87-.65-3.21v-10.66h2.7Z"/><path class="cls-1" d="M68.53,52.67c.08,.88,.3,1.55,.67,2.02,.68,.85,1.85,1.27,3.53,1.27,1,0,1.87-.21,2.63-.64,.76-.42,1.14-1.08,1.14-1.97,0-.67-.3-1.19-.91-1.54-.39-.22-1.15-.46-2.29-.75l-2.13-.53c-1.36-.33-2.36-.71-3.01-1.11-1.15-.72-1.73-1.7-1.73-2.96,0-1.48,.54-2.69,1.62-3.6,1.08-.92,2.54-1.38,4.37-1.38,2.4,0,4.13,.69,5.18,2.08,.67,.88,.99,1.83,.97,2.84h-2.49c-.05-.59-.27-1.13-.64-1.62-.62-.69-1.7-1.03-3.22-1.03-1.02,0-1.79,.19-2.32,.57-.53,.38-.79,.88-.79,1.5,0,.68,.35,1.22,1.03,1.63,.4,.24,.99,.46,1.76,.64l1.78,.42c1.93,.46,3.22,.9,3.88,1.33,1.03,.67,1.54,1.73,1.54,3.18s-.54,2.6-1.61,3.62c-1.07,1.02-2.71,1.52-4.9,1.52-2.36,0-4.04-.53-5.02-1.59-.98-1.06-1.51-2.37-1.58-3.93h2.53Z"/><path class="cls-1" d="M95.26,36.07h3.3l7.81,21.52h-3.19l-2.18-6.45h-8.51l-2.33,6.45h-2.99l8.1-21.52Zm4.79,12.7l-3.27-9.51-3.47,9.51h6.74Z"/><path class="cls-1" d="M108.66,41.9h2.5v2.23c.74-.92,1.53-1.58,2.36-1.98s1.75-.6,2.77-.6c2.23,0,3.73,.78,4.51,2.33,.43,.85,.64,2.07,.64,3.65v10.06h-2.68v-9.89c0-.96-.14-1.73-.42-2.31-.47-.98-1.32-1.46-2.55-1.46-.62,0-1.14,.07-1.54,.19-.72,.22-1.36,.64-1.9,1.29-.44,.52-.73,1.05-.86,1.6-.13,.55-.2,1.34-.2,2.37v8.22h-2.64v-15.69Z"/><path class="cls-1" d="M133.97,42.39c.47,.29,1,.81,1.59,1.54v-7.92h2.53v21.59h-2.37v-2.18c-.61,.97-1.34,1.67-2.17,2.09s-1.79,.64-2.88,.64c-1.74,0-3.25-.73-4.52-2.21-1.27-1.47-1.91-3.42-1.91-5.87,0-2.29,.58-4.26,1.74-5.94,1.16-1.67,2.82-2.51,4.98-2.51,1.2,0,2.2,.25,3.01,.76Zm-5.89,11.76c.71,1.13,1.85,1.7,3.41,1.7,1.21,0,2.21-.52,2.99-1.58,.78-1.05,1.17-2.56,1.17-4.52s-.4-3.45-1.21-4.4c-.81-.95-1.8-1.43-2.99-1.43-1.32,0-2.39,.51-3.21,1.52-.82,1.02-1.23,2.51-1.23,4.48,0,1.68,.35,3.09,1.06,4.22Z"/><path class="cls-1" d="M142.1,41.9h2.5v2.71c.21-.53,.71-1.17,1.51-1.93s1.72-1.14,2.77-1.14c.05,0,.13,0,.25,.01s.32,.03,.6,.06v2.78c-.16-.03-.3-.05-.43-.06s-.28-.01-.43-.01c-1.33,0-2.35,.43-3.06,1.28s-1.07,1.84-1.07,2.95v9.02h-2.64v-15.69Z"/><path class="cls-1" d="M161.71,42.34c1.04,.52,1.83,1.2,2.37,2.03,.52,.79,.87,1.71,1.05,2.77,.16,.72,.23,1.88,.23,3.46h-11.41c.05,1.6,.42,2.88,1.12,3.84,.7,.96,1.78,1.45,3.24,1.45,1.37,0,2.46-.45,3.27-1.37,.46-.53,.78-1.14,.97-1.84h2.59c-.07,.58-.3,1.22-.68,1.93-.39,.71-.82,1.28-1.29,1.74-.8,.77-1.78,1.31-2.95,1.58-.63,.16-1.34,.23-2.14,.23-1.94,0-3.59-.71-4.93-2.13-1.35-1.42-2.02-3.41-2.02-5.97s.68-4.57,2.04-6.14c1.36-1.57,3.13-2.36,5.33-2.36,1.11,0,2.18,.26,3.22,.78Zm.94,6.16c-.11-1.14-.35-2.06-.74-2.74-.72-1.27-1.91-1.9-3.59-1.9-1.2,0-2.21,.44-3.02,1.31-.81,.88-1.25,1.99-1.29,3.33h8.64Z"/><polygon class="cls-1" points="177.67 36.07 192.6 36.07 192.6 38.71 180.59 38.71 180.59 45.24 191.15 45.24 191.15 47.81 180.59 47.81 180.59 57.59 177.67 57.59 177.67 36.07"/><path class="cls-1" d="M203.77,48.1c.61-.08,1.01-.33,1.22-.76,.12-.24,.18-.57,.18-1.01,0-.9-.32-1.56-.96-1.96s-1.55-.61-2.74-.61c-1.37,0-2.35,.37-2.92,1.12-.32,.41-.53,1.03-.63,1.84h-2.46c.05-1.94,.67-3.29,1.88-4.05,1.2-.76,2.6-1.14,4.19-1.14,1.84,0,3.34,.35,4.49,1.05,1.14,.7,1.71,1.8,1.71,3.28v9.04c0,.27,.06,.49,.17,.66,.11,.17,.35,.25,.71,.25,.12,0,.25,0,.4-.02,.15-.02,.3-.04,.47-.07v1.95c-.41,.12-.72,.19-.94,.22s-.51,.04-.88,.04c-.91,0-1.57-.32-1.98-.97-.22-.34-.37-.83-.45-1.45-.54,.7-1.31,1.31-2.31,1.83s-2.11,.78-3.33,.78c-1.46,0-2.64-.44-3.57-1.32s-1.38-1.99-1.38-3.31c0-1.45,.45-2.58,1.36-3.38s2.1-1.29,3.57-1.48l4.2-.53Zm-5.55,7.12c.56,.44,1.22,.66,1.98,.66,.93,0,1.82-.22,2.7-.64,1.46-.72,2.2-1.88,2.2-3.5v-2.12c-.32,.21-.74,.38-1.24,.51-.51,.14-1,.24-1.49,.29l-1.59,.21c-.96,.13-1.67,.33-2.16,.6-.81,.46-1.22,1.19-1.22,2.19,0,.76,.28,1.36,.83,1.8Z"/><path class="cls-1" d="M212.12,41.9h2.5v2.71c.21-.53,.71-1.17,1.51-1.93s1.72-1.14,2.77-1.14c.05,0,.13,0,.25,.01s.32,.03,.6,.06v2.78c-.16-.03-.3-.05-.43-.06s-.28-.01-.43-.01c-1.33,0-2.35,.43-3.06,1.28s-1.07,1.84-1.07,2.95v9.02h-2.64v-15.69Z"/><path class="cls-1" d="M222.04,41.9h2.61v2.23c.62-.77,1.19-1.33,1.7-1.68,.87-.6,1.86-.89,2.96-.89,1.25,0,2.26,.31,3.02,.92,.43,.35,.82,.87,1.17,1.55,.59-.84,1.27-1.46,2.07-1.87s1.68-.61,2.67-.61c2.11,0,3.54,.76,4.31,2.29,.41,.82,.62,1.92,.62,3.31v10.44h-2.74v-10.9c0-1.04-.26-1.76-.78-2.15s-1.16-.59-1.91-.59c-1.04,0-1.93,.35-2.67,1.04s-1.12,1.85-1.12,3.47v9.13h-2.68v-10.24c0-1.06-.12-1.84-.38-2.33-.39-.74-1.15-1.1-2.24-1.1-1,0-1.9,.39-2.72,1.16s-1.22,2.17-1.22,4.19v8.32h-2.64v-15.69Z"/><path class="cls-1" d="M247.03,36.07h2.68v2.99h-2.68v-2.99Zm0,5.9h2.68v15.62h-2.68v-15.62Z"/><path class="cls-1" d="M261.81,41.98h2.58v2.08c.53-.71,1.11-1.26,1.73-1.66,.9-.58,1.94-.88,3.14-.88,1.78,0,3.29,.68,4.54,2.04,1.24,1.36,1.87,3.31,1.87,5.84,0,3.42-.9,5.86-2.69,7.32-1.14,.93-2.46,1.39-3.97,1.39-1.19,0-2.18-.26-2.99-.78-.47-.3-1-.8-1.57-1.51v8.01h-2.64v-21.87Zm9.92,12.3c.82-1.03,1.23-2.57,1.23-4.62,0-1.25-.18-2.32-.54-3.22-.69-1.73-1.94-2.59-3.76-2.59s-3.09,.91-3.76,2.74c-.36,.98-.54,2.22-.54,3.72,0,1.21,.18,2.24,.54,3.09,.69,1.62,1.94,2.43,3.76,2.43,1.23,0,2.26-.51,3.08-1.55Z"/><path class="cls-1" d="M278.72,36.07h2.68v2.99h-2.68v-2.99Zm0,5.9h2.68v15.62h-2.68v-15.62Z"/><path class="cls-1" d="M285.38,36.07h2.68v2.99h-2.68v-2.99Zm0,5.9h2.68v15.62h-2.68v-15.62Z"/><path class="cls-1" d="M292.05,41.9h2.61v2.23c.62-.77,1.19-1.33,1.7-1.68,.87-.6,1.86-.89,2.96-.89,1.25,0,2.26,.31,3.02,.92,.43,.35,.82,.87,1.17,1.55,.59-.84,1.27-1.46,2.07-1.87s1.68-.61,2.67-.61c2.11,0,3.54,.76,4.31,2.29,.41,.82,.62,1.92,.62,3.31v10.44h-2.74v-10.9c0-1.04-.26-1.76-.78-2.15s-1.16-.59-1.91-.59c-1.04,0-1.93,.35-2.67,1.04s-1.12,1.85-1.12,3.47v9.13h-2.68v-10.24c0-1.06-.12-1.84-.38-2.33-.39-.74-1.15-1.1-2.24-1.1-1,0-1.9,.39-2.72,1.16s-1.22,2.17-1.22,4.19v8.32h-2.64v-15.69Z"/><path class="cls-1" d="M325.44,48.1c.61-.08,1.01-.33,1.22-.76,.12-.24,.18-.57,.18-1.01,0-.9-.32-1.56-.96-1.96s-1.55-.61-2.74-.61c-1.37,0-2.35,.37-2.92,1.12-.32,.41-.53,1.03-.63,1.84h-2.46c.05-1.94,.67-3.29,1.88-4.05,1.2-.76,2.6-1.14,4.19-1.14,1.84,0,3.34,.35,4.49,1.05,1.14,.7,1.71,1.8,1.71,3.28v9.04c0,.27,.06,.49,.17,.66,.11,.17,.35,.25,.71,.25,.12,0,.25,0,.4-.02,.15-.02,.3-.04,.47-.07v1.95c-.41,.12-.72,.19-.94,.22s-.51,.04-.88,.04c-.91,0-1.57-.32-1.98-.97-.22-.34-.37-.83-.45-1.45-.54,.7-1.31,1.31-2.31,1.83s-2.11,.78-3.33,.78c-1.46,0-2.64-.44-3.57-1.32s-1.38-1.99-1.38-3.31c0-1.45,.45-2.58,1.36-3.38s2.1-1.29,3.57-1.48l4.2-.53Zm-5.55,7.12c.56,.44,1.22,.66,1.98,.66,.93,0,1.82-.22,2.7-.64,1.46-.72,2.2-1.88,2.2-3.5v-2.12c-.32,.21-.74,.38-1.24,.51-.51,.14-1,.24-1.49,.29l-1.59,.21c-.96,.13-1.67,.33-2.16,.6-.81,.46-1.22,1.19-1.22,2.19,0,.76,.28,1.36,.83,1.8Z"/><path class="cls-1" d="M334.25,37.52h2.67v4.38h2.5v2.15h-2.5v10.24c0,.55,.19,.91,.56,1.1,.21,.11,.55,.16,1.03,.16,.13,0,.26,0,.41,0,.15,0,.32-.02,.51-.05v2.09c-.3,.09-.62,.15-.95,.19s-.68,.06-1.06,.06c-1.23,0-2.07-.32-2.5-.94-.44-.63-.66-1.45-.66-2.45v-10.39h-2.12v-2.15h2.12v-4.38Z"/><path class="cls-1" d="M353.42,43.47c1.39,1.35,2.08,3.33,2.08,5.94s-.61,4.62-1.83,6.26c-1.22,1.65-3.12,2.47-5.69,2.47-2.14,0-3.84-.73-5.11-2.19-1.26-1.46-1.89-3.42-1.89-5.88,0-2.63,.66-4.73,1.99-6.29,1.33-1.56,3.11-2.34,5.35-2.34,2.01,0,3.7,.67,5.09,2.02Zm-1.64,10.43c.64-1.32,.96-2.79,.96-4.41,0-1.46-.23-2.65-.7-3.57-.73-1.44-2-2.17-3.79-2.17-1.59,0-2.75,.61-3.48,1.84-.72,1.23-1.09,2.71-1.09,4.45s.36,3.06,1.09,4.17c.72,1.11,1.87,1.67,3.45,1.67,1.73,0,2.91-.66,3.56-1.98Zm-7.09-17.47h2.74v3.05h-2.74v-3.05Zm4.83,0h2.74v3.05h-2.74v-3.05Z"/><path class="cls-1" d="M370.11,43.47c1.39,1.35,2.08,3.33,2.08,5.94s-.61,4.62-1.83,6.26c-1.22,1.65-3.12,2.47-5.69,2.47-2.14,0-3.84-.73-5.11-2.19-1.26-1.46-1.89-3.42-1.89-5.88,0-2.63,.66-4.73,1.99-6.29,1.33-1.56,3.11-2.34,5.35-2.34,2.01,0,3.7,.67,5.09,2.02Zm-1.64,10.43c.64-1.32,.96-2.79,.96-4.41,0-1.46-.23-2.65-.7-3.57-.73-1.44-2-2.17-3.79-2.17-1.59,0-2.75,.61-3.48,1.84-.72,1.23-1.09,2.71-1.09,4.45s.36,3.06,1.09,4.17c.72,1.11,1.87,1.67,3.45,1.67,1.73,0,2.91-.66,3.56-1.98Zm-7.09-17.47h2.74v3.05h-2.74v-3.05Zm4.83,0h2.74v3.05h-2.74v-3.05Z"/><path class="cls-1" d="M376.99,52.67c.08,.88,.3,1.55,.67,2.02,.68,.85,1.85,1.27,3.53,1.27,1,0,1.87-.21,2.63-.64,.76-.42,1.14-1.08,1.14-1.97,0-.67-.3-1.19-.91-1.54-.39-.22-1.15-.46-2.29-.75l-2.13-.53c-1.36-.33-2.36-.71-3.01-1.11-1.15-.72-1.73-1.7-1.73-2.96,0-1.48,.54-2.69,1.62-3.6,1.08-.92,2.54-1.38,4.37-1.38,2.4,0,4.13,.69,5.18,2.08,.67,.88,.99,1.83,.97,2.84h-2.49c-.05-.59-.27-1.13-.64-1.62-.62-.69-1.7-1.03-3.22-1.03-1.02,0-1.79,.19-2.32,.57-.53,.38-.79,.88-.79,1.5,0,.68,.35,1.22,1.03,1.63,.4,.24,.99,.46,1.76,.64l1.78,.42c1.93,.46,3.22,.9,3.88,1.33,1.03,.67,1.54,1.73,1.54,3.18s-.54,2.6-1.61,3.62c-1.07,1.02-2.71,1.52-4.9,1.52-2.36,0-4.04-.53-5.02-1.59-.98-1.06-1.51-2.37-1.58-3.93h2.53Z"/><path class="cls-1" d="M390.95,37.52h2.67v4.38h2.5v2.15h-2.5v10.24c0,.55,.19,.91,.56,1.1,.21,.11,.55,.16,1.03,.16,.13,0,.26,0,.41,0,.15,0,.32-.02,.51-.05v2.09c-.3,.09-.62,.15-.95,.19s-.68,.06-1.06,.06c-1.23,0-2.07-.32-2.5-.94-.44-.63-.66-1.45-.66-2.45v-10.39h-2.12v-2.15h2.12v-4.38Z"/><path class="cls-1" d="M401.4,41.9v10.42c0,.8,.12,1.45,.37,1.96,.46,.94,1.31,1.41,2.55,1.41,1.79,0,3-.82,3.65-2.46,.35-.88,.53-2.08,.53-3.62v-7.71h2.64v15.69h-2.49l.03-2.31c-.34,.6-.75,1.1-1.25,1.51-.99,.82-2.18,1.23-3.59,1.23-2.19,0-3.69-.75-4.48-2.24-.43-.8-.65-1.87-.65-3.21v-10.66h2.7Z"/><path class="cls-1" d="M417.01,52.67c.08,.88,.3,1.55,.67,2.02,.68,.85,1.85,1.27,3.53,1.27,1,0,1.87-.21,2.63-.64,.76-.42,1.14-1.08,1.14-1.97,0-.67-.3-1.19-.91-1.54-.39-.22-1.15-.46-2.29-.75l-2.13-.53c-1.36-.33-2.36-.71-3.01-1.11-1.15-.72-1.73-1.7-1.73-2.96,0-1.48,.54-2.69,1.62-3.6,1.08-.92,2.54-1.38,4.37-1.38,2.4,0,4.13,.69,5.18,2.08,.67,.88,.99,1.83,.97,2.84h-2.49c-.05-.59-.27-1.13-.64-1.62-.62-.69-1.7-1.03-3.22-1.03-1.02,0-1.79,.19-2.32,.57-.53,.38-.79,.88-.79,1.5,0,.68,.35,1.22,1.03,1.63,.4,.24,.99,.46,1.76,.64l1.78,.42c1.93,.46,3.22,.9,3.88,1.33,1.03,.67,1.54,1.73,1.54,3.18s-.54,2.6-1.61,3.62c-1.07,1.02-2.71,1.52-4.9,1.52-2.36,0-4.04-.53-5.02-1.59-.98-1.06-1.51-2.37-1.58-3.93h2.53Z"/><path class="cls-1" d="M440.14,42.34c1.04,.52,1.83,1.2,2.37,2.03,.52,.79,.87,1.71,1.05,2.77,.16,.72,.23,1.88,.23,3.46h-11.41c.05,1.6,.42,2.88,1.12,3.84,.7,.96,1.78,1.45,3.24,1.45,1.37,0,2.46-.45,3.27-1.37,.46-.53,.78-1.14,.97-1.84h2.59c-.07,.58-.3,1.22-.68,1.93-.39,.71-.82,1.28-1.29,1.74-.8,.77-1.78,1.31-2.95,1.58-.63,.16-1.34,.23-2.14,.23-1.94,0-3.59-.71-4.93-2.13-1.35-1.42-2.02-3.41-2.02-5.97s.68-4.57,2.04-6.14c1.36-1.57,3.13-2.36,5.33-2.36,1.11,0,2.18,.26,3.22,.78Zm.94,6.16c-.11-1.14-.35-2.06-.74-2.74-.72-1.27-1.91-1.9-3.59-1.9-1.2,0-2.21,.44-3.02,1.31-.81,.88-1.25,1.99-1.29,3.33h8.64Z"/><rect class="cls-1" x="447.2" y="36.07" width="2.64" height="21.52"/><path class="cls-1" d="M463.48,42.34c1.04,.52,1.83,1.2,2.37,2.03,.52,.79,.87,1.71,1.05,2.77,.16,.72,.23,1.88,.23,3.46h-11.41c.05,1.6,.42,2.88,1.12,3.84,.7,.96,1.78,1.45,3.24,1.45,1.37,0,2.46-.45,3.27-1.37,.46-.53,.78-1.14,.97-1.84h2.59c-.07,.58-.3,1.22-.68,1.93-.39,.71-.82,1.28-1.29,1.74-.8,.77-1.78,1.31-2.95,1.58-.63,.16-1.34,.23-2.14,.23-1.94,0-3.59-.71-4.93-2.13-1.35-1.42-2.02-3.41-2.02-5.97s.68-4.57,2.04-6.14c1.36-1.57,3.13-2.36,5.33-2.36,1.11,0,2.18,.26,3.22,.78Zm.94,6.16c-.11-1.14-.35-2.06-.74-2.74-.72-1.27-1.91-1.9-3.59-1.9-1.2,0-2.21,.44-3.02,1.31-.81,.88-1.25,1.99-1.29,3.33h8.64Z"/><path class="cls-1" d="M472.02,36.07h2.97v7.08l-.72,9.32h-1.49l-.76-9.32v-7.08Zm0,18.47h2.92v3.05h-2.92v-3.05Z"/></g></g></svg>