<?xml version="1.0" encoding="UTF-8"?><svg id="Layer_2" xmlns="http://www.w3.org/2000/svg" xmlns:xlink="http://www.w3.org/1999/xlink" viewBox="0 0 447.28 128"><defs><style>.cls-1{fill:none;}.cls-2{fill:url(#linear-gradient);}.cls-3{clip-path:url(#clippath);}.cls-4{fill:#fff;}.cls-5{fill:#624f15;}</style><linearGradient id="linear-gradient" x1="380.49" y1="221.98" x2="413.88" y2="221.98" gradientTransform="translate(0 -158)" gradientUnits="userSpaceOnUse"><stop offset="0" stop-color="#f7c931" stop-opacity=".5"/><stop offset="1" stop-color="#f8cf6e" stop-opacity="0"/></linearGradient></defs><g id="main"><g class="cls-3"><g><path class="cls-5" d="M21.62,60.33l14.96-16.45c1.7-1.91,1.28-2.87-1.26-2.87h-6.59c-.84,0-1.86,.61-3.05,1.91L9.62,60.59h-.16c.12-1.33,.16-2.63,.16-3.96v-13.14c0-1.65-.77-2.47-2.31-2.47H2.31C.77,41.02,0,41.81,0,43.46v42.4c0,1.68,.77,2.49,2.31,2.49H7.34c1.54,0,2.31-.84,2.31-2.49v-12.32l5.52-6.13,12.14,19.08c.58,1.12,1.7,1.84,2.96,1.91h6.15c2.05,0,2.47-.96,1.26-2.87l-16.05-25.21Z"/><path class="cls-5" d="M50.18,38.95c-.17-.02-.32-.02-.49,0h-2.31c-.77,.07-1.42,.56-1.72,1.26l-2.54,4.45c-.47,.82-.7,1.77-.7,2.7v39.02c-.14,.96,.54,1.84,1.49,1.98h2.82c.77-.07,1.42-.56,1.7-1.26l2.54-4.45c.47-.84,.7-1.77,.68-2.7V40.93c.14-.96-.51-1.85-1.47-1.98Z"/><path class="cls-5" d="M68.05,41.9c-.14-.98-1.03-1.65-1.98-1.51h-5.75c-.96,.14-1.63,1.02-1.49,1.98v4.22c-.02,.19-.02,.35,0,.51,.14,.96,1.02,1.63,1.98,1.49h5.26c.19,.02,.35,.02,.51,0,.96-.14,1.61-1.03,1.47-1.98v-4.71Z"/><path class="cls-5" d="M68.05,55.18c-.14-.98-1.03-1.65-1.98-1.51h-5.75c-.96,.14-1.63,1.03-1.49,1.98v31.22c.14,.98,1.02,1.65,1.98,1.51h5.75c.96-.14,1.63-1.03,1.49-1.98v-31.22Z"/><path class="cls-5" d="M89.55,53.02c-5.06,0-8.99,1.61-11.76,4.82-2.77,3.21-4.17,7.59-4.17,13.19v.05c-.02,5.57,1.33,9.97,4.01,13.19,2.68,3.21,7.18,4.82,13.47,4.82,3.87,0,6.69-.4,8.53-1.19,1.84-.79,3.46-2.04,4.71-3.59,.92-1.14,.72-2.07-.56-2.87l-3.31-2.03s-.07-.07-.12-.09c-.86-.56-2.05-.33-2.63,.56-.65,.84-1.48,1.54-2.45,1.98-1.29,.59-2.75,.79-4.17,.72-1.77,.05-3.59-.47-5.03-1.42-1.44-.96-2.35-3.26-2.7-6.92h21.73c1.21,0,1.84-.65,1.84-1.98,0-6.73-1.44-11.62-4.29-14.68s-7.22-4.57-13.09-4.57Zm8.13,14.61h-14.3l-.02,.02c-.05-2.14,.63-4.24,1.89-5.96,1.21-1.44,3.03-2.21,4.92-2.17,2.63,.06,4.56,.73,5.73,2.26,1.27,1.66,1.89,3.75,1.79,5.85Z"/><path class="cls-5" d="M142.92,68.11c0-5.71-1.07-9.62-3.38-11.81s-5.4-3.35-8.6-3.24c-1.93-.05-3.84,.28-5.66,.96-1.65,.72-3.01,2-3.87,3.59v-2.4c-.14-.98-1.03-1.65-1.98-1.51h-5.68c-.96,.14-1.63,1.02-1.49,1.98v31.15c.09,.96,.98,1.68,1.93,1.58h5.22c.16,.02,.33,.02,.49,0,.96-.14,1.61-1.03,1.47-1.98v-13.02c0-5.66,.58-9.39,1.72-11.18,1.14-1.79,3.14-2.84,5.26-2.73,2.19,0,3.66,.65,4.29,1.91,.63,1.26,.96,4.31,.96,9.09v15.93c-.05,.21-.04,.42,0,.63,.2,.95,1.12,1.56,2.07,1.35h5.75c.96-.14,1.63-1.03,1.49-1.98v-18.31Z"/><path class="cls-5" d="M180.47,41.58c0-1.33-.65-1.98-1.91-1.98h-5.03c-1.28,0-1.91,.65-1.91,1.98v13.35c0,.86,.05,1.75,.14,2.63h-.16c-.86-1.63-2.24-2.91-3.89-3.7-1.65-.61-3.4-.87-5.15-.86-5.27,.03-8.99,1.79-11.09,5.38-2.24,3.82-3.21,8.22-3.21,12.65s.95,8.83,3.19,12.65c2.12,3.61,5.85,5.31,11.09,5.38,1.75,.02,3.49-.26,5.15-.86,1.68-.79,3.03-2.07,3.89-3.7v1.91c0,1.3,.56,1.98,1.65,1.98h5.73c.96-.12,1.63-1,1.51-1.96V41.58Zm-10.69,38.18c-1.16,1.86-2.68,2.8-4.36,2.8-3.05,0-5.03-1.05-5.99-3.12-1.02-2.68-1.51-5.52-1.4-8.39-.12-2.87,.28-5.75,1.4-8.41,.88-2.1,2.94-3.12,5.99-3.12,1.7,0,3.18,.87,4.36,2.8,1.32,2.17,1.93,4.71,1.82,7.24v2.96c.12,2.54-.46,5.08-1.82,7.24Z"/><path class="cls-5" d="M234.63,53.02c-5.06,0-8.99,1.61-11.76,4.82-2.77,3.21-4.17,7.59-4.17,13.19l-.02,.05c-.02,5.57,1.33,9.97,4.01,13.19s7.18,4.82,13.46,4.82c3.87,0,6.69-.4,8.53-1.19,1.84-.79,3.46-2.04,4.71-3.59,.92-1.14,.72-2.07-.56-2.87l-3.28-2.03s-.07-.07-.12-.09c-.89-.58-2.05-.33-2.63,.56-.65,.84-1.48,1.54-2.45,1.98-1.29,.59-2.75,.79-4.17,.72-1.77,.05-3.59-.47-5.03-1.42-1.44-.96-2.35-3.26-2.7-6.92h21.74c1.23,0,1.84-.65,1.84-1.98,0-6.73-1.44-11.62-4.29-14.68s-7.22-4.57-13.09-4.57Zm8.13,14.61h-14.3l-.02,.02c-.05-2.14,.63-4.24,1.89-5.96,1.21-1.44,3.03-2.21,4.92-2.17,2.63,.06,4.56,.73,5.73,2.26,1.27,1.66,1.89,3.75,1.79,5.85Z"/><path class="cls-5" d="M287.96,68.07c0-5.71-1.09-9.62-3.38-11.81s-5.36-3.35-8.53-3.24c-1.91-.05-3.86,.23-5.64,.96-1.67,.68-3.01,2-3.87,3.59h-.14c.14-.86,.14-1.75,.14-2.63v-13.35c.02-.19,.02-.35,0-.51-.14-.96-1.03-1.63-1.98-1.49h-5.26c-.19-.02-.35-.02-.51,0-.96,.14-1.61,1.02-1.47,1.98v45.31c.14,.98,1.02,1.65,1.98,1.51v-.05h5.75c.96-.14,1.63-1.02,1.49-1.98v-13.02c0-5.66,.68-9.43,1.79-11.21,1.12-1.77,3.03-2.75,5.19-2.7s3.61,.65,4.24,1.91c.63,1.26,.96,4.31,.96,9.09v16.42c.14,.98,1.02,1.65,1.98,1.51h5.75c.96-.14,1.63-1.02,1.49-1.98v-18.31Z"/><path class="cls-5" d="M309.2,53.02c-5.06,0-8.99,1.61-11.76,4.82-2.77,3.21-4.17,7.59-4.17,13.19l-.05,.05c0,5.57,1.38,9.96,4.05,13.19,2.66,3.21,7.15,4.82,13.46,4.82,3.89,0,6.69-.4,8.53-1.19,1.84-.79,3.44-2.03,4.71-3.59,.91-1.12,.72-2.07-.56-2.87l-3.33-2.03s-.07-.07-.12-.09c-.89-.58-2.05-.33-2.63,.56-.65,.84-1.46,1.54-2.42,1.98-1.29,.59-2.75,.79-4.17,.72-1.77,.05-3.59-.47-5.03-1.42-1.44-.96-2.35-3.26-2.7-6.92h21.73c1.21,0,1.84-.65,1.84-1.98,0-6.73-1.44-11.62-4.29-14.68s-7.22-4.57-13.09-4.57Zm8.13,14.61h-14.3c-.04-2.14,.61-4.27,1.93-5.94,1.16-1.47,3.03-2.21,4.92-2.17,2.61,.06,4.52,.72,5.68,2.26,1.26,1.66,1.86,3.75,1.77,5.85Z"/><path class="cls-5" d="M362.6,41.58c0-1.33-.65-1.98-1.91-1.98h-5.01c-1.28,0-1.91,.65-1.91,1.98v13.35c0,.86,.05,1.75,.14,2.63h-.14c-.86-1.61-2.24-2.91-3.89-3.7-1.65-.61-3.4-.87-5.17-.86-5.24,.03-8.97,1.79-11.07,5.38-2.24,3.82-3.19,8.22-3.19,12.65s.96,8.83,3.19,12.67c2.1,3.61,5.82,5.31,11.07,5.38,1.77,.02,3.52-.26,5.17-.86,1.68-.79,3.03-2.07,3.89-3.7v1.91c0,1.3,.56,1.98,1.65,1.98h5.68c.96-.14,1.63-1.03,1.49-1.98V41.58Zm-10.67,38.18c-1.16,1.86-2.66,2.8-4.36,2.8-3.05,0-5.1-1.02-5.99-3.12-1.12-2.66-1.51-5.52-1.4-8.39-.12-2.87,.28-5.75,1.4-8.41,.88-2.1,2.94-3.12,5.99-3.12,1.7,0,3.17,.86,4.36,2.8,1.33,2.17,1.93,4.71,1.82,7.24v2.96c.12,2.54-.46,5.08-1.82,7.24Z"/><path class="cls-5" d="M195.29,40.41h-.49v-.02h-5.26c-.96-.14-1.84,.54-1.98,1.51v4.71c-.14,.96,.51,1.84,1.47,1.98,.16,.02,.33,.02,.51,0h5.26c.96,.14,1.84-.54,1.98-1.49v-4.71c.14-.96-.54-1.84-1.49-1.98Z"/><path class="cls-5" d="M195.26,53.67h-2.77c-.77,.07-1.42,.56-1.72,1.26l-2.54,4.47c-.47,.82-.7,1.77-.7,2.7v24.27c-.14,.96,.54,1.84,1.49,1.98h5.75c.96,.14,1.84-.54,1.98-1.49v-31.22c.14-.96-.54-1.84-1.49-1.98Z"/><path class="cls-5" d="M211.69,38.95c-.16-.02-.33-.02-.51,0h-2.33c-.77,.07-1.42,.56-1.7,1.26l-2.54,4.45c-.47,.84-.7,1.77-.68,2.7v39.02c-.14,.96,.54,1.84,1.49,1.98h2.8c.77-.07,1.42-.56,1.72-1.26l2.54-4.45c.47-.84,.7-1.77,.68-2.7V40.93c.14-.96-.51-1.84-1.47-1.98Z"/><path class="cls-5" d="M432.97,25.83h-14.3v43.31c0,4.17-1.82,8.15-5.01,10.88l-25.83,22.15h45.15c13.28,0,14.3-1.05,14.3-14.3V40.13c0-13.28-1.05-14.3-14.3-14.3Z"/></g><g><path class="cls-4" d="M410.56,115.05c1.21,.51,2.63-.04,3.12-1.26,.12-.3,.19-.61,.19-.93v-5.92h-22.27l18.96,8.11Z"/><path class="cls-4" d="M413.29,.83c-.84-1-2.35-1.12-3.35-.26l-29.47,25.23V102.15l30.09-25.77c2.1-1.79,3.33-4.45,3.33-7.22V2.39c0-.58-.22-1.12-.59-1.56Z"/></g><path class="cls-2" d="M380.49,25.81V102.15l30.06-25.77c2.12-1.82,3.33-4.45,3.33-7.22V25.81h-33.39Z"/></g></g></svg>