<?xml version="1.0" encoding="UTF-8"?><svg id="Layer_2" xmlns="http://www.w3.org/2000/svg" viewBox="0 0 384 192"><defs><style>.cls-1{fill:#f7c931;}.cls-2{fill:#624f15;}</style></defs><g id="backup"><g><path class="cls-1" d="M288,0c89.03,0,96,6.97,96,96,0,89.03-6.97,96-96,96H96C6.97,192,0,185.03,0,96S6.97,0,96,0h192Z"/><g><rect class="cls-2" x="55.08" y="96.64" width="33.7" height="15.79"/><path class="cls-2" d="M129.77,106.32c14.53-10.04,19.45-15.73,19.45-27.17s-6.96-24.13-27.64-24.13c-18.45,0-27.42,11.54-28.52,25.2h17.52c1-6.45,3.53-11.15,10.99-11.15,6.22,0,9.4,3.52,9.4,10.21s-3.37,9.4-14.28,17.31c-17.22,12.47-23.2,23.56-23.2,37.66v1.17h56.38l2.23-15.1h-36.79c1.25-3.19,4.87-7.41,14.44-14.01Z"/><path class="cls-2" d="M187.69,55.02c-22.94,0-31.11,19.07-31.11,40.92s7.35,40.92,30.75,40.92,30.75-19.37,30.75-41.41-8.26-40.44-30.39-40.44Zm-.13,67.44c-10.77,0-12.28-12.31-12.28-26.75,0-17.06,2.89-26.3,12.41-26.3s11.58,10.8,11.58,26.15-1.28,26.89-11.71,26.89Z"/><polygon class="cls-2" points="294.24 56.34 246.14 135.42 259.2 135.42 307.41 56.34 294.24 56.34"/><path class="cls-2" d="M267.64,77.69c0-15.05-8.92-22.67-21.39-22.67-13.99,0-21.61,9.87-21.61,22.68,0,15.25,8.66,22.9,21.49,22.9,13.55,0,21.52-9.28,21.52-22.91Zm-21.38,11.62c-4.96,0-7.68-3.97-7.68-11.62s2.97-11.38,7.66-11.38,7.8,2.92,7.8,11.38-2.84,11.62-7.78,11.62Z"/><path class="cls-2" d="M307.52,91.41c-13.99,0-21.61,9.87-21.61,22.68,0,15.23,8.65,22.9,21.49,22.9,13.56,0,21.52-9.29,21.52-22.91,0-15.05-8.91-22.67-21.39-22.67Zm0,34.29c-4.96,0-7.68-3.98-7.68-11.62s2.98-11.38,7.66-11.38,7.8,2.92,7.8,11.38-2.84,11.62-7.78,11.62Z"/></g></g></g></svg>