<?xml version="1.0" encoding="UTF-8"?><svg id="Layer_2" xmlns="http://www.w3.org/2000/svg" viewBox="0 0 384 192"><defs><style>.cls-1{fill:#f7c931;}.cls-2{fill:#624f15;}</style></defs><g id="backup"><g><path class="cls-1" d="M288,0c89.03,0,96,6.97,96,96,0,89.03-6.97,96-96,96H96C6.97,192,0,185.03,0,96,0,6.97,6.97,0,96,0h192Z"/><g><rect class="cls-2" x="51.24" y="96.64" width="33.7" height="15.79"/><path class="cls-2" d="M129.21,81.22c-6.58,0-10.95,1.63-13.86,3.88,.5-3.08,1.75-10.01,2.24-13.89h31.43l2.57-14.75h-48.83c-1.31,10.97-4.76,34.55-6.82,44.53l16.37,2.03c1.64-4.45,4.47-7.51,11.48-7.51,8.78,0,11.64,5.55,11.64,13.5s-3.71,14.03-11.46,14.03c-6.41,0-10-3.25-11.46-8.43h-18.11c1.7,14.23,13.37,22.25,29.21,22.25,21.67,0,30.05-14.12,30.05-29.37s-8.68-26.28-24.44-26.28Z"/><path class="cls-2" d="M191.54,55.02c-22.94,0-31.11,19.07-31.11,40.92s7.35,40.92,30.75,40.92,30.75-19.37,30.75-41.41-8.26-40.44-30.39-40.44Zm-.13,67.44c-10.77,0-12.28-12.31-12.28-26.75,0-17.06,2.89-26.3,12.41-26.3s11.58,10.8,11.58,26.15-1.28,26.89-11.71,26.89Z"/><path class="cls-2" d="M271.49,77.69c0-15.05-8.92-22.67-21.39-22.67-13.99,0-21.61,9.87-21.61,22.68,0,15.25,8.66,22.9,21.49,22.9,13.55,0,21.52-9.28,21.52-22.91Zm-21.38,11.62c-4.96,0-7.68-3.97-7.68-11.62s2.97-11.38,7.66-11.38,7.8,2.92,7.8,11.38-2.84,11.62-7.78,11.62Z"/><polygon class="cls-2" points="298.09 56.34 249.99 135.42 263.04 135.42 311.25 56.34 298.09 56.34"/><path class="cls-2" d="M311.37,91.41c-13.99,0-21.61,9.87-21.61,22.68,0,15.23,8.65,22.9,21.49,22.9,13.56,0,21.52-9.29,21.52-22.91,0-15.05-8.91-22.67-21.39-22.67Zm0,34.29c-4.96,0-7.68-3.98-7.68-11.62s2.98-11.38,7.66-11.38,7.8,2.92,7.8,11.38-2.84,11.62-7.78,11.62Z"/></g></g></g></svg>