<?xml version="1.0" encoding="UTF-8"?><svg id="Layer_2" xmlns="http://www.w3.org/2000/svg" viewBox="0 0 384 192"><defs><style>.cls-1{fill:#f7c931;}.cls-2{fill:#624f15;}</style></defs><g id="backup"><g><path class="cls-1" d="M288,0c89.03,0,96,6.97,96,96s-6.97,96-96,96H96C6.97,192,0,185.03,0,96S6.97,0,96,0h192Z"/><g><rect class="cls-2" x="56.81" y="96.64" width="33.7" height="15.79"/><path class="cls-2" d="M141.72,93v-.36c4.24-2.03,9.66-6.49,9.66-15.98,0-11.23-8.23-21.64-26.8-21.64-20.18,0-27.02,12.24-28.11,21.97h17.29c.77-3.54,2.45-7.91,10.24-7.91,6.51,0,9.5,3.46,9.5,8.63,0,6.37-2.98,8.76-10.49,8.76h-6.48v13.93h7.33c8.99,0,12.32,4.35,12.32,11.19s-3.78,11.46-11.24,11.46c-7.83,0-11.31-4.44-12.31-9.6h-17.64c.75,10.45,7.87,23.42,29.48,23.42,23.17,0,29.95-13.7,29.95-24.95,0-12.33-7.85-17.08-12.68-18.91Z"/><path class="cls-2" d="M195.14,81.22c-6.58,0-10.95,1.63-13.86,3.88,.5-3.08,1.75-10.01,2.24-13.89h31.43l2.57-14.75h-48.83c-1.31,10.97-4.76,34.55-6.82,44.53l16.37,2.03c1.64-4.45,4.47-7.51,11.48-7.51,8.78,0,11.64,5.55,11.64,13.5s-3.71,14.03-11.46,14.03c-6.41,0-10-3.25-11.46-8.43h-18.11c1.7,14.23,13.37,22.25,29.21,22.25,21.67,0,30.05-14.12,30.05-29.37s-8.68-26.28-24.44-26.28Z"/><path class="cls-2" d="M305.8,91.41c-13.99,0-21.61,9.87-21.61,22.68,0,15.23,8.65,22.9,21.49,22.9,13.56,0,21.52-9.29,21.52-22.91,0-15.05-8.91-22.67-21.39-22.67Zm0,34.29c-4.96,0-7.68-3.98-7.68-11.62s2.98-11.38,7.66-11.38,7.8,2.92,7.8,11.38-2.84,11.62-7.78,11.62Z"/><polygon class="cls-2" points="292.52 56.34 244.42 135.42 257.48 135.42 305.68 56.34 292.52 56.34"/><path class="cls-2" d="M265.92,77.69c0-15.05-8.92-22.67-21.39-22.67-13.99,0-21.61,9.87-21.61,22.68,0,15.25,8.66,22.9,21.49,22.9,13.55,0,21.52-9.28,21.52-22.91Zm-21.38,11.62c-4.96,0-7.68-3.97-7.68-11.62s2.97-11.38,7.66-11.38,7.8,2.92,7.8,11.38-2.84,11.62-7.78,11.62Z"/></g></g></g></svg>