<svg xmlns="http://www.w3.org/2000/svg" viewBox="0 0 26.8055 27.5"><path d="M9.0068,27.1251a.7844.7844,0,0,1-.5546-.229L.6055,19.0489a.7855.7855,0,0,1,.5556-1.3408H9.5273V1.16A.8015.8015,0,0,1,10.33.3751h1.5781a.7856.7856,0,0,1,.5752.2515L25.8047,14.9713a.7854.7854,0,0,1-.5752,1.32H12.4971l-.0352,1.3814,2.4649.0351a.7866.7866,0,0,1,.7851.7857V19.84l1.3809.0356.0351-1.3813a.7867.7867,0,0,1,.7852-.7857H19.26a.7866.7866,0,0,1,.7851.7857V19.84l1.3819.0356.0351-1.3813a.7867.7867,0,0,1,.7852-.7857h3.3974a.7858.7858,0,0,1,.7627.9756L24.4453,26.53a.7866.7866,0,0,1-.7627.5952Z" style="fill:#333"/><path d="M11.9077.75a.41.41,0,0,1,.3008.1311L25.53,15.2269a.41.41,0,0,1-.3007.69H12.4971a.41.41,0,0,0-.41.41v1.3461a.41.41,0,0,0,.41.41h2.4292a.41.41,0,0,1,.41.41V19.84a.41.41,0,0,0,.41.41h1.3457a.41.41,0,0,0,.41-.41v-1.346a.41.41,0,0,1,.41-.41H19.26a.41.41,0,0,1,.41.41V19.84a.41.41,0,0,0,.41.41h1.3462a.41.41,0,0,0,.41-.41v-1.346a.41.41,0,0,1,.41-.41h3.3975a.41.41,0,0,1,.3979.51l-1.9614,7.8461a.4105.4105,0,0,1-.3982.3108H9.0066a.41.41,0,0,1-.29-.12L.8709,18.7838a.41.41,0,0,1,.29-.7006H9.51a.41.41,0,0,0,.41-.41V1.16a.41.41,0,0,1,.41-.41Zm0-.75H10.33A1.1616,1.1616,0,0,0,9.17,1.16V17.3332H1.1609a1.16,1.16,0,0,0-.82,1.9809L8.1863,27.16a1.1678,1.1678,0,0,0,.82.34H23.6831a1.1583,1.1583,0,0,0,1.1257-.879L26.77,18.775a1.16,1.16,0,0,0-1.1255-1.4418H22.2473a1.1616,1.1616,0,0,0-1.16,1.16V19.5H20.42V18.4936a1.1617,1.1617,0,0,0-1.16-1.16H17.9136a1.1617,1.1617,0,0,0-1.16,1.16V19.5h-.6665V18.4936a1.1617,1.1617,0,0,0-1.16-1.16h-2.09v-.6667H25.2293a1.1605,1.1605,0,0,0,.8505-1.95L12.7581.3708A1.1643,1.1643,0,0,0,11.9077,0Z" style="fill:#fff"/></svg>