<?xml version="1.0" encoding="UTF-8"?><svg id="b" xmlns="http://www.w3.org/2000/svg" viewBox="0 0 224.0107 134.7554"><g id="c"><g><path d="M56.3574,22.1753h-3.7402l.6777-8.5991c.2061-2.9746,.5-5.9487,.8828-8.4229l-5.7129,14.8135h-3.6816l-1.8545-14.7544c-.1768,2.8271-.6777,5.7427-1.2666,8.6289l-1.6201,8.334h-3.7402L40.749,1.8257h4.7412l1.6494,14.4009L52.4697,1.8257h5.1543l-1.2666,20.3496Z" style="fill:#fff;"/><path d="M60.2109,17.6987l1.5605-11.1021h3.7109l-1.502,10.6313c-.2363,1.8257,.2354,2.3853,1.2949,2.3853,1.502,0,2.7686-1.4727,3.7998-3.0039l1.4131-10.0127h3.7109l-2.1797,15.5786h-3.21l.1475-2.562c-1.3838,1.8257-2.9746,3.0039-5.0361,3.0039-2.8271,0-4.1523-1.9146-3.71-4.9185Z" style="fill:#fff;"/><path d="M76.4951,17.6987l1.5605-11.1021h3.7109l-1.502,10.6313c-.2363,1.8257,.2354,2.3853,1.2949,2.3853,1.502,0,2.7686-1.4727,3.7998-3.0039l1.4131-10.0127h3.7109l-2.1797,15.5786h-3.21l.1475-2.562c-1.3838,1.8257-2.9746,3.0039-5.0361,3.0039-2.8271,0-4.1523-1.9146-3.71-4.9185Z" style="fill:#fff;"/><path d="M108.1953,.3828l-3.0625,21.7925h-3.2686l.0293-2.3853c-1.0605,1.6196-2.5918,2.8271-4.6826,2.8271-3.2393,0-4.918-2.415-4.918-6.2437,0-4.1523,2.0322-10.2188,7.3916-10.2188,1.6787,0,2.915,.7363,3.7402,1.708l1.1191-7.8628,3.6514,.3828Zm-12.0156,16.1089c0,2.3853,.8545,3.2686,2.1211,3.2686,1.5898,0,2.7676-1.3545,3.916-3.1802l.8545-6.1255c-.6777-.9424-1.4727-1.4727-2.6211-1.4727-3.3281,0-4.2705,4.6826-4.2705,7.5098Z" style="fill:#fff;"/><path d="M123.6729,7.6567l-1.502,10.4546c-.1465,1.0601-.0586,1.6196,.8252,1.9731l-1.0605,2.4736c-1.6494-.1768-2.8564-.9131-3.21-2.5913-1.1484,1.5605-2.6797,2.6504-4.6533,2.6504-3.2393,0-5.0059-2.415-5.0059-6.0962,0-4.3882,2.2969-10.3662,8.6582-10.3662,2.0615,0,4.0342,.5005,5.9482,1.502Zm-10.7197,8.8643c0,2.356,.8545,3.2393,2.1504,3.2393,1.4131,0,2.4736-1.001,3.5342-2.4736l1.1182-7.9512c-.6768-.2944-1.2363-.4126-2.0908-.4126-3.4453,0-4.7119,4.3589-4.7119,7.5981Z" style="fill:#fff;"/><path d="M132.7715,16.0498c0-4.123,2.0615-9.895,8.3936-9.895,4.0342,0,6.2725,2.5327,6.2725,6.5376,0,4.064-2.0322,9.9248-8.3936,9.9248-4.0342,0-6.2725-2.5034-6.2725-6.5674Zm10.8076-3.6519c.0303-2.356-.8828-3.3867-2.6201-3.3867-3.5049,0-4.3594,4.6826-4.3594,7.333,0,2.356,.9131,3.416,2.6504,3.416,3.5049,0,4.3291-4.7119,4.3291-7.3623Z" style="fill:#fff;"/><path d="M171.2461,10.9551l-1.5908,11.2202h-3.71l1.502-10.5723c.2646-1.9438-.3838-2.356-1.1787-2.356-1.3252,0-2.6211,1.7373-3.6807,3.8579l-1.2959,9.0703h-3.7109l1.502-10.5723c.2656-1.9438-.3828-2.356-1.1484-2.356-1.3545,0-2.6504,1.7964-3.7109,3.9756l-1.2363,8.9526h-3.7109l2.1797-15.5786h3.21l-.1475,2.7388c1.3252-1.9438,2.9746-3.1807,4.9766-3.1807,1.7676,0,3.1221,1.0601,3.416,3.0332,1.3252-1.9141,3.0635-3.0332,4.9189-3.0332,2.4141,0,3.8281,1.8257,3.416,4.8003Z" style="fill:#fff;"/><path d="M188.1191,7.6567l-1.502,10.4546c-.1465,1.0601-.0586,1.6196,.8252,1.9731l-1.0605,2.4736c-1.6494-.1768-2.8564-.9131-3.21-2.5913-1.1484,1.5605-2.6797,2.6504-4.6533,2.6504-3.2393,0-5.0059-2.415-5.0059-6.0962,0-4.3882,2.2969-10.3662,8.6582-10.3662,2.0615,0,4.0342,.5005,5.9482,1.502Zm-10.7197,8.8643c0,2.356,.8545,3.2393,2.1504,3.2393,1.4131,0,2.4736-1.001,3.5342-2.4736l1.1191-7.9512c-.6777-.2944-1.2373-.4126-2.0918-.4126-3.4453,0-4.7119,4.3589-4.7119,7.5981Z" style="fill:#fff;"/><path d="M17.2285,52.8301c-.2354,1.5317,.1768,2.0615,1.1777,2.0615,.6777,0,1.2666-.2061,2.0029-.5596l1.0596,2.5034c-1.2363,.7656-2.6504,1.1191-3.916,1.1191-3.0039,0-4.5059-1.8555-4.0352-5.1538l1.1484-8.1577h-2.415l.3828-2.709h2.5625l.9717-3.5342,3.1221-.3535-.5303,3.8877h3.5928l-.7949,2.709h-3.1807l-1.1484,8.187Z" style="fill:#fff;"/><path d="M37.2764,42.9941l-1.502,10.4546c-.1465,1.0601-.0586,1.6196,.8252,1.9731l-1.0605,2.4736c-1.6494-.1768-2.8564-.9131-3.21-2.5913-1.1484,1.5605-2.6797,2.6504-4.6533,2.6504-3.2393,0-5.0059-2.415-5.0059-6.0962,0-4.3882,2.2969-10.3662,8.6582-10.3662,2.0615,0,4.0342,.5005,5.9482,1.502Zm-10.7197,8.8643c0,2.356,.8545,3.2393,2.1504,3.2393,1.4131,0,2.4736-1.001,3.5342-2.4736l1.1182-7.9512c-.6768-.2944-1.2363-.4126-2.0908-.4126-3.4453,0-4.7119,4.3589-4.7119,7.5981Z" style="fill:#fff;"/><path d="M43.2422,53.8315c-.0889,.7949,.1172,1.0898,.6768,1.0898,.2949,0,.5889-.0884,.8838-.1768l.5596,2.6504c-.8242,.3828-1.7373,.5596-2.5918,.5596-2.3555,0-3.5928-1.4434-3.21-4.2705l2.5332-17.9937,3.7695-.4121-2.6211,18.5532Z" style="fill:#fff;"/><polygon points="54.4736 57.5127 50.0273 57.5127 47.1113 41.9341 51.1162 41.9341 52.6475 54.4795 57.6836 41.9341 61.6299 41.9341 54.4736 57.5127" style="fill:#fff;"/><path d="M64.9004,51.7993c.0889,2.415,1.3252,3.2397,3.0332,3.2397,1.4141,0,2.6504-.4419,4.0645-1.4434l1.4424,2.356c-1.708,1.2075-3.6514,2.0029-5.9189,2.0029-4.2402,0-6.4199-2.5327-6.4199-6.479,0-4.2407,2.209-9.9834,8.4814-9.9834,3.5635,0,5.3896,1.9141,5.3896,4.123,0,4.3877-4.9482,5.6543-10.0723,6.1841Zm6.2432-6.0371c0-.6772-.3828-1.5903-1.7666-1.5903-2.6797,0-3.8877,2.6211-4.2998,5.1245,4.1816-.3828,6.0664-1.5312,6.0664-3.5342Z" style="fill:#fff;"/><path d="M90.3672,46.3218l-1.5898,11.1909h-3.7109l1.502-10.5723c.2354-1.8555-.3242-2.356-1.207-2.356-1.5908,0-3.0342,1.7964-4.2119,4.0049l-1.207,8.9233h-3.7109l3.0625-21.7925,3.7402-.3828-1.3252,9.3354c1.208-1.8848,2.9746-3.1807,5.0361-3.1807,2.6211,0,4.0342,1.8257,3.6221,4.8296Z" style="fill:#fff;"/><path d="M92.7246,51.3872c0-4.123,2.0615-9.895,8.3936-9.895,4.0342,0,6.2725,2.5327,6.2725,6.5376,0,4.0645-2.0322,9.9248-8.3936,9.9248-4.0342,0-6.2725-2.5034-6.2725-6.5674Zm10.8076-3.6519c.0303-2.356-.8828-3.3867-2.6201-3.3867-3.5049,0-4.3594,4.6826-4.3594,7.333,0,2.356,.9131,3.416,2.6504,3.416,3.5049,0,4.3291-4.7119,4.3291-7.3623Z" style="fill:#fff;"/><path d="M131.2002,46.2925l-1.5908,11.2202h-3.71l1.501-10.5723c.2656-1.9438-.3828-2.356-1.1777-2.356-1.3252,0-2.6211,1.7373-3.6807,3.8579l-1.2959,9.0703h-3.7109l1.502-10.5723c.2656-1.9438-.3828-2.356-1.1484-2.356-1.3545,0-2.6504,1.7964-3.7109,3.9756l-1.2363,8.9526h-3.7109l2.1797-15.5786h3.21l-.1475,2.7388c1.3252-1.9438,2.9746-3.1807,4.9766-3.1807,1.7676,0,3.1221,1.0601,3.416,3.0332,1.3252-1.9141,3.0635-3.0332,4.9189-3.0332,2.4141,0,3.8281,1.8257,3.416,4.8003Z" style="fill:#fff;"/><path d="M155.4648,46.2925l-1.5908,11.2202h-3.71l1.502-10.5723c.2646-1.9438-.3838-2.356-1.1787-2.356-1.3252,0-2.6211,1.7373-3.6807,3.8579l-1.2959,9.0703h-3.7109l1.502-10.5723c.2656-1.9438-.3828-2.356-1.1484-2.356-1.3545,0-2.6504,1.7964-3.7109,3.9756l-1.2363,8.9526h-3.7109l2.1797-15.5786h3.21l-.1475,2.7388c1.3252-1.9438,2.9746-3.1807,4.9766-3.1807,1.7676,0,3.1221,1.0601,3.416,3.0332,1.3252-1.9141,3.0635-3.0332,4.9189-3.0332,2.4141,0,3.8281,1.8257,3.416,4.8003Z" style="fill:#fff;"/><path d="M161.4707,57.5127h-3.7109l2.1797-15.5786h3.71l-2.1787,15.5786Zm-1.2373-20.9385c0-1.4429,1.1191-2.5327,2.5625-2.5327,1.2959,0,2.1201,.8833,2.1201,2.0615,0,1.4136-1.1191,2.5029-2.5625,2.5029-1.2949,0-2.1201-.8833-2.1201-2.0317Z" style="fill:#fff;"/><path d="M170.9502,44.29c1.5312-1.9438,3.2979-2.7979,5.2119-2.7979,2.415,0,4.0059,1.502,4.0059,3.6519,0,2.4146-1.4434,4.3584-4.4766,5.4482l3.1504,6.9204h-4.0928l-3.2393-7.5684c3.5332-1.0605,4.8291-2.356,4.8291-4.2407,0-.9424-.5596-1.4727-1.502-1.4727-1.4131,0-3.1211,1.1484-4.417,3.7695l-1.3252,9.5122h-3.7109l3.0625-21.8223,3.7402-.4121-1.2363,9.0117Z" style="fill:#fff;"/><path d="M181.8838,53.0366l1.5605-11.1025h3.7109l-1.502,10.6309c-.2363,1.8262,.2354,2.3857,1.2949,2.3857,1.502,0,2.7686-1.4727,3.7998-3.0039l1.4131-10.0127h3.7109l-2.1797,15.5786h-3.21l.1475-2.562c-1.3838,1.8257-2.9746,3.0039-5.0361,3.0039-2.8271,0-4.1523-1.9146-3.71-4.918Z" style="fill:#fff;"/><path d="M213.584,35.7202l-3.0625,21.7925h-3.2686l.0293-2.3853c-1.0605,1.6196-2.5918,2.8271-4.6826,2.8271-3.2393,0-4.918-2.415-4.918-6.2437,0-4.1523,2.0322-10.2188,7.3916-10.2188,1.6787,0,2.915,.7363,3.7402,1.708l1.1191-7.8628,3.6514,.3828Zm-12.0156,16.1089c0,2.3853,.8545,3.2686,2.1211,3.2686,1.5898,0,2.7676-1.3545,3.916-3.1802l.8545-6.1255c-.6777-.9424-1.4727-1.4727-2.6211-1.4727-3.3281,0-4.2705,4.6826-4.2705,7.5098Z" style="fill:#fff;"/><path d="M13.6064,78.8022l-1.708,2.0918c-1.1494-.8252-2.4443-1.2666-3.7402-1.2666-1.6201,0-2.5332,.6182-2.5332,1.6494,0,1.001,.7949,1.3545,3.0635,2.0908,2.7676,.8828,4.2109,2.2383,4.2109,4.6826,0,3.1504-2.6504,5.2412-6.7734,5.2412-2.7393,0-4.8594-1.0889-6.126-2.4141l1.9443-2.0322c1.0898,.9424,2.5029,1.6191,4.2695,1.6191,2.1211,0,2.916-1.0596,2.916-2.002,0-1.2373-.707-1.6494-3.1807-2.4736-2.8271-.9131-4.0645-2.1797-4.0645-4.418,0-2.3848,2.0918-4.7412,6.2734-4.7412,2.2383,0,4.0635,.7656,5.4482,1.9727Z" style="fill:#fff;"/><path d="M18.5762,92.8501h-3.7109l2.1797-15.5791h3.71l-2.1787,15.5791Zm-1.2373-20.9385c0-1.4434,1.1191-2.5332,2.5625-2.5332,1.2959,0,2.1201,.8838,2.1201,2.0615,0,1.4141-1.1191,2.5039-2.5625,2.5039-1.2949,0-2.1201-.8838-2.1201-2.0322Z" style="fill:#fff;"/><path d="M34.8555,78.8022l-1.708,2.0918c-1.1494-.8252-2.4443-1.2666-3.7402-1.2666-1.6201,0-2.5332,.6182-2.5332,1.6494,0,1.001,.7959,1.3545,3.0635,2.0908,2.7676,.8828,4.2109,2.2383,4.2109,4.6826,0,3.1504-2.6504,5.2412-6.7734,5.2412-2.7393,0-4.8594-1.0889-6.126-2.4141l1.9443-2.0322c1.0898,.9424,2.5029,1.6191,4.2695,1.6191,2.1211,0,2.916-1.0596,2.916-2.002,0-1.2373-.707-1.6494-3.1807-2.4736-2.8271-.9131-4.0645-2.1797-4.0645-4.418,0-2.3848,2.0918-4.7412,6.2734-4.7412,2.2383,0,4.0635,.7656,5.4482,1.9727Z" style="fill:#fff;"/><path d="M36.6572,88.3735l1.5605-11.1025h3.7109l-1.502,10.6318c-.2363,1.8252,.2354,2.3848,1.2949,2.3848,1.502,0,2.7686-1.4717,3.7998-3.0039l1.4131-10.0127h3.7109l-2.1797,15.5791h-3.21l.1475-2.5625c-1.3838,1.8262-2.9746,3.0039-5.0361,3.0039-2.8271,0-4.1523-1.9141-3.71-4.918Z" style="fill:#fff;"/><path d="M57.9707,79.6274c1.5312-1.9434,3.2979-2.7979,5.2119-2.7979,2.415,0,4.0059,1.502,4.0059,3.6514,0,2.415-1.4434,4.3594-4.4766,5.4482l3.1514,6.9209h-4.0938l-3.2393-7.5684c3.5332-1.0605,4.8291-2.3564,4.8291-4.2412,0-.9424-.5596-1.4717-1.502-1.4717-1.4131,0-3.1211,1.1484-4.417,3.7695l-1.3252,9.5117h-3.7109l3.0625-21.8223,3.7402-.4121-1.2363,9.0117Z" style="fill:#fff;"/><path d="M83.0273,78.3315l-1.502,10.4541c-.1465,1.0605-.0586,1.6201,.8252,1.9736l-1.0605,2.4736c-1.6494-.1768-2.8564-.9131-3.21-2.5918-1.1484,1.5615-2.6797,2.6504-4.6533,2.6504-3.2393,0-5.0059-2.4141-5.0059-6.0957,0-4.3877,2.2969-10.3662,8.6582-10.3662,2.0615,0,4.0342,.501,5.9482,1.502Zm-10.7197,8.8643c0,2.3555,.8545,3.2393,2.1504,3.2393,1.4131,0,2.4736-1.001,3.5342-2.4736l1.1191-7.9512c-.6777-.2949-1.2373-.4121-2.0918-.4121-3.4453,0-4.7119,4.3584-4.7119,7.5977Z" style="fill:#fff;"/><path d="M106.8994,81.6294l-1.5908,11.2207h-3.71l1.501-10.5723c.2656-1.9434-.3828-2.3564-1.1777-2.3564-1.3252,0-2.6211,1.7383-3.6807,3.8584l-1.2959,9.0703h-3.7109l1.502-10.5723c.2656-1.9434-.3828-2.3564-1.1484-2.3564-1.3545,0-2.6504,1.7969-3.7109,3.9756l-1.2363,8.9531h-3.7109l2.1797-15.5791h3.21l-.1475,2.7393c1.3252-1.9434,2.9746-3.1807,4.9766-3.1807,1.7676,0,3.1221,1.0605,3.416,3.0332,1.3252-1.9141,3.0635-3.0332,4.9189-3.0332,2.4141,0,3.8281,1.8262,3.416,4.7998Z" style="fill:#fff;"/><path d="M123.7715,78.3315l-1.502,10.4541c-.1465,1.0605-.0586,1.6201,.8252,1.9736l-1.0605,2.4736c-1.6494-.1768-2.8564-.9131-3.21-2.5918-1.1484,1.5615-2.6797,2.6504-4.6533,2.6504-3.2393,0-5.0059-2.4141-5.0059-6.0957,0-4.3877,2.2969-10.3662,8.6582-10.3662,2.0615,0,4.0342,.501,5.9482,1.502Zm-10.7197,8.8643c0,2.3555,.8545,3.2393,2.1504,3.2393,1.4131,0,2.4736-1.001,3.5342-2.4736l1.1191-7.9512c-.6777-.2949-1.2373-.4121-2.0918-.4121-3.4453,0-4.7119,4.3584-4.7119,7.5977Z" style="fill:#fff;"/><path d="M131.2393,79.6274c1.5312-1.9434,3.2979-2.7979,5.2119-2.7979,2.415,0,4.0059,1.502,4.0059,3.6514,0,2.415-1.4434,4.3594-4.4766,5.4482l3.1504,6.9209h-4.0928l-3.2393-7.5684c3.5332-1.0605,4.8291-2.3564,4.8291-4.2412,0-.9424-.5596-1.4717-1.502-1.4717-1.4131,0-3.1211,1.1484-4.417,3.7695l-1.3252,9.5117h-3.7109l3.0625-21.8223,3.7402-.4121-1.2363,9.0117Z" style="fill:#fff;"/><path d="M154.0586,78.8022l-1.708,2.0918c-1.1494-.8252-2.4443-1.2666-3.7402-1.2666-1.6201,0-2.5332,.6182-2.5332,1.6494,0,1.001,.7959,1.3545,3.0635,2.0908,2.7676,.8828,4.2109,2.2383,4.2109,4.6826,0,3.1504-2.6504,5.2412-6.7734,5.2412-2.7393,0-4.8594-1.0889-6.126-2.4141l1.9443-2.0322c1.0898,.9424,2.5029,1.6191,4.2695,1.6191,2.1211,0,2.916-1.0596,2.916-2.002,0-1.2373-.707-1.6494-3.1807-2.4736-2.8271-.9131-4.0645-2.1797-4.0645-4.418,0-2.3848,2.0918-4.7412,6.2734-4.7412,2.2383,0,4.0635,.7656,5.4482,1.9727Z" style="fill:#fff;"/><path d="M168.0752,79.6274c1.5312-1.9434,3.2979-2.7979,5.2119-2.7979,2.415,0,4.0059,1.502,4.0059,3.6514,0,2.415-1.4434,4.3594-4.4766,5.4482l3.1504,6.9209h-4.0928l-3.2393-7.5684c3.5332-1.0605,4.8291-2.3564,4.8291-4.2412,0-.9424-.5596-1.4717-1.502-1.4717-1.4131,0-3.1211,1.1484-4.417,3.7695l-1.3252,9.5117h-3.7109l3.0625-21.8223,3.7402-.4121-1.2363,9.0117Z" style="fill:#fff;"/><path d="M178.5518,86.7251c0-4.123,2.0615-9.8955,8.3936-9.8955,4.0342,0,6.2725,2.5322,6.2725,6.5381,0,4.0635-2.0322,9.9238-8.3936,9.9238-4.0342,0-6.2725-2.5029-6.2725-6.5664Zm10.8076-3.6523c.0303-2.3555-.8828-3.3867-2.6201-3.3867-3.5049,0-4.3594,4.6826-4.3594,7.333,0,2.3564,.9131,3.416,2.6504,3.416,3.5049,0,4.3291-4.7119,4.3291-7.3623Z" style="fill:#fff;"/><path d="M195.21,86.7251c0-4.123,2.0615-9.8955,8.3936-9.8955,4.0342,0,6.2725,2.5322,6.2725,6.5381,0,4.0635-2.0322,9.9238-8.3936,9.9238-4.0342,0-6.2725-2.5029-6.2725-6.5664Zm10.8076-3.6523c.0303-2.3555-.8828-3.3867-2.6201-3.3867-3.5049,0-4.3594,4.6826-4.3594,7.333,0,2.3564,.9131,3.416,2.6504,3.416,3.5049,0,4.3291-4.7119,4.3291-7.3623Z" style="fill:#fff;"/><path d="M224.0107,78.8022l-1.708,2.0918c-1.1494-.8252-2.4443-1.2666-3.7402-1.2666-1.6201,0-2.5332,.6182-2.5332,1.6494,0,1.001,.7949,1.3545,3.0635,2.0908,2.7676,.8828,4.2109,2.2383,4.2109,4.6826,0,3.1504-2.6504,5.2412-6.7734,5.2412-2.7393,0-4.8594-1.0889-6.126-2.4141l1.9443-2.0322c1.0898,.9424,2.5029,1.6191,4.2695,1.6191,2.1211,0,2.916-1.0596,2.916-2.002,0-1.2373-.707-1.6494-3.1807-2.4736-2.8271-.9131-4.0645-2.1797-4.0645-4.418,0-2.3848,2.0918-4.7412,6.2734-4.7412,2.2383,0,4.0635,.7656,5.4482,1.9727Z" style="fill:#fff;"/><path d="M56.5508,115.6421c0,5.4775-2.5029,13.0469-10.6309,13.0469-4.9775,0-7.8047-3.0635-7.8047-8.3643,0-5.4482,2.5332-13.0459,10.6611-13.0459,4.9473,0,7.7744,3.0332,7.7744,8.3633Zm-13.5469,5.0361c0,3.2393,1.1484,4.4766,3.2393,4.4766,4.4473,0,5.4189-6.5088,5.4189-9.9248,0-3.1504-1.1191-4.417-3.2393-4.417-4.4473,0-5.4189,6.5078-5.4189,9.8652Zm4.7412-16.2266c-.7363,0-1.207,.501-1.7959,1.3545l-2.1504-1.2363c.9717-1.8555,2.4443-3.416,4.1523-3.416,1.6787,0,2.2676,1.3252,3.1514,1.3252,.707,0,1.1777-.4717,1.7666-1.3252l2.1504,1.207c-1.002,1.9727-2.5039,3.416-4.0938,3.416-1.502,0-2.2969-1.3252-3.1807-1.3252Z" style="fill:#ffe500;"/><path d="M72.334,116.8501l-1.5898,11.3379h-4.5645l1.4434-10.3369c.2354-1.5898-.207-2.002-.8838-2.002-1.208,0-2.3857,1.5312-3.5049,3.7393l-1.207,8.5996h-4.5645l3.0625-21.8516,4.623-.4707-1.2949,9.3057c1.1182-1.8555,2.9443-3.1221,4.9766-3.1221,2.5322,0,3.917,1.7969,3.5039,4.8008Z" style="fill:#ffe500;"/><path d="M79.54,123.0044c-.2061,1.502,.1768,2.0029,1.0605,2.0029,.6182,0,1.1182-.2061,1.7666-.501l1.207,3.0342c-1.2959,.7656-2.9443,1.1484-4.2695,1.1484-3.2402,0-4.8594-2.0322-4.3584-5.6846l1.0303-7.2148h-2.1494l.4414-3.2393h2.3555l.9727-3.4746,3.9463-.4424-.5596,3.917h3.5928l-.9727,3.2393h-3.0625l-1.001,7.2148Z" style="fill:#ffe500;"/><path d="M85.0254,123.7114l1.5908-11.1611h4.5645l-1.4434,10.4248c-.2354,1.5615,.2061,2.0322,1.0312,2.0322,1.0889,0,2.1494-1.1777,3.0029-2.4736l1.3848-9.9834h4.5645l-2.1797,15.6377h-3.9453l.0879-2.3262c-1.3252,1.708-2.9453,2.8271-4.9473,2.8271-2.8867,0-4.123-1.9443-3.7109-4.9775Z" style="fill:#ffe500;"/><path d="M105.7119,123.9771c-.0879,.7656,.1475,1.0303,.6182,1.0303,.2656,0,.501-.0586,.7656-.1475l.5596,3.2402c-.8535,.3828-1.9434,.5889-2.9443,.5889-2.6211,0-4.0049-1.5908-3.5635-4.5947l2.5029-17.7578,4.5947-.501-2.5332,18.1416Z" style="fill:#ffe500;"/><path d="M113.4688,122.5044c.1172,2.0908,1.2656,2.7686,2.7969,2.7686,1.3252,0,2.5332-.4717,3.9766-1.4434l1.6484,2.7686c-1.708,1.2363-3.7988,2.0908-6.2139,2.0908-4.5645,0-6.8027-2.6504-6.8027-6.626,0-4.2412,2.2969-10.0137,8.8643-10.0137,3.7988,0,5.7725,1.915,5.7725,4.2705,0,4.3877-5.124,5.6836-10.042,6.1846Zm5.418-5.9785c0-.6475-.3535-1.3838-1.502-1.3838-2.2383,0-3.2979,2.2969-3.71,4.5352,3.916-.2656,5.2119-1.6787,5.2119-3.1514Z" style="fill:#ffe500;"/><path d="M138.9863,116.8501l-1.5908,11.3379h-4.5645l1.4424-10.3369c.2363-1.5898-.2061-2.002-.8828-2.002-1.208,0-2.3857,1.5312-3.5049,3.7393l-1.207,8.5996h-4.5645l3.0625-21.8516,4.623-.4707-1.2959,9.3057c1.1191-1.8555,2.9453-3.1221,4.9775-3.1221,2.5322,0,3.917,1.7969,3.5049,4.8008Z" style="fill:#ffe500;"/><path d="M145.1309,122.5044c.1172,2.0908,1.2656,2.7686,2.7969,2.7686,1.3252,0,2.5332-.4717,3.9766-1.4434l1.6484,2.7686c-1.708,1.2363-3.7988,2.0908-6.2139,2.0908-4.5645,0-6.8027-2.6504-6.8027-6.626,0-4.2412,2.2969-10.0137,8.8643-10.0137,3.7988,0,5.7725,1.915,5.7725,4.2705,0,4.3877-5.124,5.6836-10.042,6.1846Zm5.418-5.9785c0-.6475-.3535-1.3838-1.502-1.3838-2.2383,0-3.2979,2.2969-3.71,4.5352,3.916-.2656,5.2119-1.6787,5.2119-3.1514Z" style="fill:#ffe500;"/><path d="M171.3154,113.6987l-1.9434,13.2822c-.7949,5.5068-3.2979,7.7744-8.2158,7.7744-1.9443,0-4.1826-.6777-5.8906-1.7373l1.5615-3.0332c1.4424,.7949,2.915,1.2363,4.2402,1.2363,1.708,0,3.3574-.501,3.7988-3.5635l.2061-1.502c-1.0303,1.1777-2.4443,2.0322-4.123,2.0322-3.3564,0-5.124-2.4736-5.124-6.0664,0-4.3291,2.3857-10.0723,9.1006-10.0723,2.1201,0,4.3584,.5303,6.3896,1.6494Zm-10.749,8.3047c0,2.1201,.8252,2.7393,1.8262,2.7393,1.1777,0,2.1797-.8838,3.0625-2.1797l1.0898-6.9209c-.6182-.2061-1.0898-.2939-1.7666-.2939-3.1221,0-4.2119,3.8867-4.2119,6.6553Z" style="fill:#ffe500;"/><path d="M187.7676,113.6987l-1.4424,10.0127c-.1182,1.0312-.0889,1.5615,.7656,1.8848l-1.3252,3.0039c-1.708-.1475-3.1514-.9131-3.6221-2.5918-1.0898,1.5615-2.5625,2.6807-4.6533,2.6807-3.2988,0-5.0654-2.4443-5.0654-6.2139,0-4.4766,2.3564-10.4258,8.9531-10.4258,2.1494,0,4.3584,.5303,6.3896,1.6494Zm-10.6016,8.7471c0,2.208,.7363,2.8271,1.7676,2.8271,1.1191,0,2.0908-.8252,2.9736-2.1797l1.0898-7.4512c-.5889-.2061-1.0596-.2939-1.7373-.2939-3.0332,0-4.0938,4.0635-4.0938,7.0977Z" style="fill:#ffe500;"/><path d="M188.6035,126.2739c0-1.5605,1.2656-2.916,2.915-2.916,1.3545,0,2.3262,1.002,2.3262,2.3857,0,1.5898-1.2656,2.9453-2.915,2.9453-1.3838,0-2.3262-1.002-2.3262-2.415Zm2.5908-18.4941h4.8594l-2.3857,12.8984h-3.71l1.2363-12.8984Z" style="fill:#ffe500;"/></g></g></svg>