<?xml version="1.0" encoding="UTF-8"?><svg id="b" xmlns="http://www.w3.org/2000/svg" viewBox="0 0 133 133"><g id="c"><g><circle cx="66.5" cy="66.5" r="66.5" style="fill:#e8ad00;"/><g><path d="M43.8351,46.8041c-.5828-.3892-.9026-.9031-.9026-1.375,0-1.0283,1.1941-1.0557,1.2087-.9726,.2914,.9305,1.1246,1.4307,2.2219,1.4307,1.0835,0,1.7642-.486,1.7642-1.2777,0-.8195-.5418-1.2366-1.5979-1.2366h-.4714c-.6806,0-.9447-.2499-.9447-.6943v-.111c0-.486,.3051-.6943,.9163-.6943h.6669c.8332,0,1.2782-.4029,1.2782-1.0557,0-.6948-.6112-1.1251-1.639-1.1251-1.1667,0-1.7368,.6249-2.0008,1.2918-.0137,.0831-1.1804,.0416-1.1804-.9584,0-.4723,.3198-.9447,.8752-1.306,.5555-.3609,1.3613-.6112,2.347-.6112,2.2639,0,3.5284,.8889,3.5284,2.4727,0,.9442-.5418,1.5696-1.5696,1.8752,1.1246,.375,1.7495,1.1804,1.7495,2.2776,0,1.7363-1.3466,2.7504-3.7083,2.7504-1.0972,0-1.9578-.2777-2.5416-.6806Z" style="fill:#fffad2;"/><path d="M53.5753,39.1787c0-.6254,.3051-.9305,.8606-.9305h.2924c.5965,0,.8889,.3051,.8889,.9305v3.1528l2.9445-3.4169c.3745-.5276,.7501-.6665,1.1109-.6665,.7638,0,1.2087,.708,1.153,.819l-3.1255,3.6394,3.236,3.8335c.0694,.1252-.4166,.8058-1.2077,.8058-.4029,0-.7784-.1667-1.1109-.6391l-3.0003-3.5279v3.236c0,.6112-.2924,.931-.8889,.931h-.2924c-.5555,0-.8606-.3198-.8606-.931v-7.2362Z" style="fill:#fffad2;"/><path d="M61.828,39.1787c0-.6254,.3335-.9305,.8889-.9305h.264c.5828,0,.8889,.3051,.8889,.9305v4.3195c0,1.4307,.6112,2.1666,1.8189,2.1666,1.2361,0,1.8199-.708,1.8199-2.1803v-4.3058c0-.6254,.3198-.9305,.8889-.9305h.2777c.5828,0,.8752,.3051,.8752,.9305v4.3195c0,2.5837-1.3339,3.9445-3.8755,3.9445-2.5279,0-3.8472-1.3334-3.8472-3.9308v-4.3332Z" style="fill:#fffad2;"/><path d="M71.1369,39.1787c0-.6254,.3335-.9305,.8889-.9305h.264c.5828,0,.8889,.3051,.8889,.9305v4.3195c0,1.4307,.6112,2.1666,1.8189,2.1666,1.2361,0,1.8199-.708,1.8199-2.1803v-4.3058c0-.6254,.3198-.9305,.8889-.9305h.2777c.5828,0,.8752,.3051,.8752,.9305v4.3195c0,2.5837-1.3339,3.9445-3.8755,3.9445-2.5279,0-3.8472-1.3334-3.8472-3.9308v-4.3332Z" style="fill:#fffad2;"/><path d="M80.5064,39.4423c0-.7222,.4577-1.1388,1.0689-1.1388h2.2786c3.0003,0,4.8192,1.6806,4.8192,4.4589,0,2.7915-1.861,4.5278-4.8887,4.5278h-2.1397c-.6386,0-1.1383-.5139-1.1383-1.1251v-6.7228Zm6.1248,3.3338c0-1.7363-1.0689-2.7226-2.8331-2.7226h-1.2645v5.4867h1.2371c1.7779,0,2.8604-.9999,2.8604-2.7641Z" style="fill:#fffad2;"/></g><g><path d="M30.261,92.0089v-24.1392c-.888,.7691-2.1294,1.2425-3.432,1.242-1.4786,0-2.8399-.5325-3.7865-1.3608-.9466-.8875-1.4786-2.1299-1.4786-3.5499,0-2.8991,2.0713-4.2599,2.3079-4.1415,1.064,.8283,2.1299,1.3016,3.6086,1.3021,2.5446,0,4.5552-1.8341,5.0285-4.4374h2.5446c2.4849,0,3.7861,1.3608,3.7861,4.0232v31.0615c0,2.6032-1.3021,4.0232-3.787,4.0232h-1.1246c-2.4253,0-3.6667-1.42-3.6667-4.0232Z" style="fill:#fff;"/><path d="M51.3334,92.0089v-24.1392c-.887,.7691-2.1294,1.2425-3.4301,1.2425-1.4796,0-2.8399-.5325-3.7865-1.3608-.9466-.8875-1.4796-2.1299-1.4796-3.5499,0-2.8991,2.0703-4.2599,2.3069-4.1415,1.0659,.8283,2.1299,1.3016,3.6095,1.3016,2.5436,0,4.5562-1.8341,5.0295-4.4374h2.5436c2.4849,0,3.7861,1.3608,3.7861,4.0232v31.0615c0,2.6032-1.3021,4.0232-3.787,4.0232h-1.1236c-2.4262,0-3.6687-1.42-3.6687-4.0232Z" style="fill:#fff;"/><path d="M109.903,88.459c0,1.7158-1.0053,3.4907-2.8986,4.9107-1.8933,1.5974-5.3248,3.0766-10.058,3.0766-9.2893,0-16.0928-6.3898-16.5055-17.1578h-2.0126c-2.0703,0-2.9573-1.1241-2.9573-2.6032v-.71c0-1.42,.887-2.6032,2.9573-2.6032h2.0126c.4137-10.7088,7.4538-16.8028,16.5661-16.8028,4.3185,0,7.6318,1.3016,9.5837,2.6624,2.0126,1.42,3.1959,3.1357,3.1362,5.029,0,3.0766-3.8462,4.4374-4.0829,4.1415-2.1299-3.0766-4.4965-4.7332-8.3417-4.7332-4.8515,0-8.2831,3.5499-8.5784,9.703h9.9983c2.1299,0,2.9582,1.1833,2.9582,2.6032v.71c0,1.4791-.8283,2.6032-2.9582,2.6032h-9.9983c.2944,6.449,3.9029,9.9988,8.6957,9.9988,4.0232,0,6.2677-1.8731,8.2831-5.029,.2296-.3596,4.2002,1.0058,4.2002,4.2007Z" style="fill:#fff;"/></g></g></g></svg>