<?xml version="1.0" encoding="UTF-8"?><svg id="Layer_2" xmlns="http://www.w3.org/2000/svg" viewBox="0 0 502.45 150.74"><defs><style>.cls-1{fill:#fffa05;}.cls-2{fill:#691e05;}</style></defs><g id="Layer_2-2"><g><path class="cls-1" d="M427.09,150.74H75.37C33.74,150.74,0,116.99,0,75.37S33.74,0,75.37,0H427.09c41.62,0,75.37,33.74,75.37,75.37s-33.74,75.37-75.37,75.37Z"/><g><polygon class="cls-2" points="116.87 53.16 116.87 98.91 108.04 98.91 108.04 79.38 87.29 79.38 87.29 98.91 78.39 98.91 78.39 53.16 87.29 53.16 87.29 71.65 108.04 71.65 108.04 53.16 116.87 53.16"/><path class="cls-2" d="M144.78,99.23c-3.35,0-6.39-.65-9.12-1.96-2.73-1.31-5.07-3.05-7.02-5.22-1.96-2.17-3.47-4.65-4.54-7.44-1.08-2.79-1.61-5.65-1.61-8.57s.57-5.97,1.71-8.77c1.14-2.79,2.71-5.26,4.7-7.41s4.37-3.86,7.12-5.12c2.75-1.27,5.74-1.9,8.96-1.9s6.33,.68,9.05,2.03c2.73,1.35,5.06,3.13,6.99,5.32,1.93,2.19,3.44,4.68,4.51,7.47,1.07,2.79,1.61,5.63,1.61,8.51,0,3.05-.56,5.96-1.67,8.73-1.12,2.77-2.67,5.22-4.64,7.35-1.98,2.13-4.34,3.82-7.09,5.09-2.75,1.27-5.74,1.9-8.96,1.9Zm-13.28-23.2c0,1.98,.3,3.89,.9,5.73,.6,1.85,1.47,3.48,2.61,4.9,1.14,1.42,2.54,2.56,4.19,3.42,1.65,.86,3.53,1.29,5.64,1.29s4.05-.44,5.7-1.32c1.65-.88,3.05-2.05,4.19-3.51,1.14-1.46,2-3.1,2.58-4.93,.58-1.83,.87-3.68,.87-5.57s-.31-3.89-.93-5.74c-.62-1.85-1.5-3.48-2.64-4.9-1.14-1.42-2.54-2.54-4.19-3.38s-3.51-1.26-5.57-1.26-4.06,.44-5.74,1.32-3.07,2.04-4.19,3.48-1.97,3.07-2.54,4.9c-.58,1.83-.87,3.69-.87,5.58Z"/><polygon class="cls-2" points="205.04 60.95 190.41 60.95 190.41 98.91 181.58 98.91 181.58 60.95 166.95 60.95 166.95 53.16 205.04 53.16 205.04 60.95"/><polygon class="cls-2" points="208.54 98.91 208.54 53.16 217.44 53.16 217.44 91.12 240.77 91.12 240.77 98.91 208.54 98.91"/><rect class="cls-2" x="244.15" y="53.16" width="8.89" height="45.76"/><path class="cls-2" d="M261.49,98.91V53.16h19.4c2.1,0,4.05,.44,5.83,1.32,1.78,.88,3.32,2.04,4.61,3.48s2.3,3.07,3.03,4.9,1.1,3.66,1.1,5.51-.34,3.81-1.03,5.64c-.69,1.83-1.65,3.45-2.9,4.87-1.25,1.42-2.75,2.56-4.51,3.42-1.76,.86-3.7,1.29-5.8,1.29h-10.83v15.34h-8.89Zm8.89-23.13h10.31c1.63,0,3-.67,4.09-2,1.09-1.33,1.64-3.14,1.64-5.41,0-1.16-.17-2.2-.52-3.12s-.79-1.71-1.35-2.35c-.56-.64-1.21-1.13-1.97-1.45-.75-.32-1.51-.48-2.29-.48h-9.92v14.82Z"/><path class="cls-2" d="M327.26,65.14c-.3-.3-.85-.71-1.64-1.22s-1.76-1.02-2.9-1.51c-1.14-.49-2.38-.91-3.71-1.26-1.33-.34-2.69-.52-4.06-.52-2.45,0-4.28,.45-5.48,1.35-1.2,.9-1.8,2.17-1.8,3.8,0,.95,.22,1.73,.68,2.35s1.11,1.17,1.97,1.64,1.94,.9,3.25,1.29c1.31,.39,2.82,.79,4.54,1.22,2.23,.6,4.26,1.25,6.09,1.93,1.83,.69,3.37,1.55,4.64,2.58,1.27,1.03,2.24,2.27,2.93,3.71,.69,1.44,1.03,3.21,1.03,5.32,0,2.45-.46,4.54-1.38,6.28-.92,1.74-2.17,3.15-3.74,4.22-1.57,1.08-3.37,1.86-5.41,2.35-2.04,.49-4.18,.74-6.41,.74-3.44,0-6.83-.52-10.18-1.55-3.35-1.03-6.36-2.49-9.02-4.38l3.93-7.67c.39,.39,1.08,.89,2.09,1.51,1.01,.62,2.2,1.25,3.58,1.87,1.37,.62,2.9,1.15,4.58,1.58s3.39,.64,5.16,.64c4.9,0,7.35-1.57,7.35-4.71,0-.99-.28-1.83-.84-2.51-.56-.69-1.35-1.29-2.38-1.8s-2.28-.99-3.74-1.42c-1.46-.43-3.09-.9-4.9-1.42-2.19-.6-4.09-1.26-5.7-1.96s-2.96-1.55-4.03-2.51c-1.07-.97-1.88-2.08-2.42-3.35-.54-1.27-.81-2.78-.81-4.54,0-2.32,.43-4.38,1.29-6.19,.86-1.8,2.05-3.31,3.58-4.51,1.52-1.2,3.3-2.12,5.32-2.74,2.02-.62,4.19-.93,6.51-.93,3.22,0,6.19,.51,8.89,1.51,2.71,1.01,5.07,2.2,7.09,3.58l-3.93,7.22Z"/><rect class="cls-2" x="338.29" y="89.63" width="7.09" height="9.28"/><polygon class="cls-2" points="385.08 91.12 385.08 98.91 353.31 98.91 353.31 53.16 384.5 53.16 384.5 60.95 362.21 60.95 362.21 71.97 381.48 71.97 381.48 79.19 362.21 79.19 362.21 91.12 385.08 91.12"/><polygon class="cls-2" points="423.12 91.12 423.12 98.91 391.35 98.91 391.35 53.16 422.54 53.16 422.54 60.95 400.24 60.95 400.24 71.97 419.51 71.97 419.51 79.19 400.24 79.19 400.24 91.12 423.12 91.12"/></g></g></g></svg>