<?xml version="1.0" encoding="UTF-8"?><svg id="Layer_2" xmlns="http://www.w3.org/2000/svg" viewBox="0 0 391.59 270.83"><defs><style>.cls-1{fill:#fff;}</style></defs><g id="Layer_2-2"><g><g><path class="cls-1" d="M19.83,6.53c-.16-.16-.45-.38-.87-.65s-.93-.54-1.54-.8-1.26-.48-1.96-.67c-.71-.18-1.42-.27-2.15-.27-1.3,0-2.27,.24-2.91,.72-.64,.48-.96,1.15-.96,2.02,0,.5,.12,.92,.36,1.25s.59,.62,1.04,.87c.46,.25,1.03,.48,1.72,.68s1.5,.42,2.41,.65c1.18,.32,2.26,.66,3.23,1.03,.97,.36,1.79,.82,2.46,1.37s1.19,1.2,1.55,1.96c.37,.76,.55,1.7,.55,2.82,0,1.3-.24,2.41-.73,3.33-.49,.92-1.15,1.67-1.98,2.24-.83,.57-1.79,.99-2.87,1.25s-2.21,.39-3.4,.39c-1.82,0-3.62-.27-5.4-.82s-3.37-1.32-4.79-2.32l2.09-4.07c.21,.21,.57,.47,1.11,.8,.54,.33,1.17,.66,1.9,.99,.73,.33,1.54,.61,2.43,.84,.89,.23,1.8,.34,2.73,.34,2.6,0,3.9-.83,3.9-2.5,0-.52-.15-.97-.44-1.33-.3-.37-.72-.68-1.27-.96s-1.21-.52-1.98-.75c-.77-.23-1.64-.48-2.6-.75-1.16-.32-2.17-.67-3.03-1.04-.85-.38-1.57-.82-2.13-1.33-.57-.51-1-1.11-1.28-1.78s-.43-1.47-.43-2.41c0-1.23,.23-2.32,.68-3.28,.46-.96,1.09-1.75,1.9-2.39,.81-.64,1.75-1.12,2.82-1.45s2.22-.5,3.45-.5c1.71,0,3.28,.27,4.72,.8s2.69,1.17,3.76,1.9l-2.08,3.83Z"/><rect class="cls-1" x="26.12" y=".17" width="4.71" height="24.26"/><polygon class="cls-1" points="40.31 8.89 40.31 24.44 35.59 24.44 35.59 .17 39.25 .17 51.89 16.1 51.89 .21 56.61 .21 56.61 24.44 52.78 24.44 40.31 8.89"/><path class="cls-1" d="M71.64,20.44c1.12,0,2.06-.23,2.82-.68,.76-.46,1.38-1.05,1.85-1.78,.47-.73,.8-1.57,.99-2.51s.29-1.92,.29-2.92V.17h4.68V12.54c0,1.66-.2,3.22-.6,4.68-.4,1.46-1.03,2.73-1.88,3.83-.86,1.09-1.96,1.96-3.3,2.6s-2.95,.96-4.82,.96-3.58-.34-4.94-1.01-2.46-1.56-3.3-2.67c-.84-1.11-1.45-2.39-1.83-3.85-.38-1.46-.56-2.97-.56-4.54V.17h4.72V12.54c0,1.03,.1,2.01,.29,2.96s.53,1.78,.99,2.51,1.08,1.31,1.83,1.76c.75,.44,1.67,.67,2.77,.67Z"/><path class="cls-1" d="M109.33,6.53c-.16-.16-.45-.38-.87-.65s-.94-.54-1.54-.8-1.26-.48-1.96-.67c-.71-.18-1.42-.27-2.15-.27-1.3,0-2.27,.24-2.9,.72-.64,.48-.96,1.15-.96,2.02,0,.5,.12,.92,.36,1.25,.24,.33,.59,.62,1.04,.87,.46,.25,1.03,.48,1.73,.68s1.5,.42,2.41,.65c1.19,.32,2.26,.66,3.23,1.03,.97,.36,1.79,.82,2.46,1.37s1.19,1.2,1.55,1.96c.36,.76,.55,1.7,.55,2.82,0,1.3-.25,2.41-.73,3.33-.49,.92-1.15,1.67-1.98,2.24-.83,.57-1.79,.99-2.87,1.25s-2.22,.39-3.4,.39c-1.82,0-3.62-.27-5.4-.82s-3.37-1.32-4.78-2.32l2.08-4.07c.21,.21,.57,.47,1.11,.8,.54,.33,1.17,.66,1.9,.99,.73,.33,1.54,.61,2.43,.84,.89,.23,1.8,.34,2.73,.34,2.6,0,3.9-.83,3.9-2.5,0-.52-.15-.97-.45-1.33s-.72-.68-1.26-.96-1.21-.52-1.98-.75c-.78-.23-1.64-.48-2.6-.75-1.16-.32-2.17-.67-3.02-1.04-.86-.38-1.57-.82-2.14-1.33-.57-.51-1-1.11-1.28-1.78s-.43-1.47-.43-2.41c0-1.23,.23-2.32,.68-3.28s1.09-1.75,1.9-2.39,1.75-1.12,2.82-1.45c1.07-.33,2.22-.5,3.45-.5,1.71,0,3.28,.27,4.72,.8s2.69,1.17,3.76,1.9l-2.08,3.83Z"/><path class="cls-1" d="M125.58,24.61c-1.78,0-3.39-.35-4.84-1.04s-2.69-1.62-3.72-2.77c-1.04-1.15-1.84-2.47-2.41-3.95s-.85-3-.85-4.54,.3-3.17,.9-4.65,1.44-2.79,2.5-3.93c1.06-1.14,2.32-2.04,3.78-2.72,1.46-.67,3.04-1.01,4.75-1.01s3.36,.36,4.8,1.08c1.45,.72,2.68,1.66,3.71,2.82s1.82,2.48,2.39,3.96c.57,1.48,.85,2.98,.85,4.51,0,1.62-.29,3.16-.89,4.63-.59,1.47-1.41,2.77-2.46,3.89-1.05,1.13-2.3,2.03-3.76,2.7-1.46,.67-3.04,1.01-4.75,1.01Zm-7.04-12.3c0,1.05,.16,2.06,.48,3.04,.32,.98,.78,1.85,1.38,2.6s1.34,1.36,2.22,1.81c.88,.46,1.88,.68,2.99,.68s2.15-.23,3.03-.7c.88-.47,1.62-1.09,2.22-1.86,.6-.78,1.06-1.65,1.37-2.62,.31-.97,.46-1.95,.46-2.96s-.16-2.06-.49-3.04c-.33-.98-.8-1.85-1.4-2.6-.6-.75-1.34-1.35-2.22-1.79-.88-.45-1.86-.67-2.96-.67s-2.15,.23-3.04,.7c-.89,.47-1.63,1.08-2.22,1.85-.59,.76-1.04,1.63-1.35,2.6-.31,.97-.46,1.95-.46,2.96Z"/><path class="cls-1" d="M151.03,24.61c-1.78,0-3.39-.35-4.84-1.04-1.45-.7-2.69-1.62-3.72-2.77s-1.84-2.47-2.41-3.95c-.57-1.48-.86-3-.86-4.54s.3-3.17,.91-4.65,1.44-2.79,2.49-3.93c1.06-1.14,2.32-2.04,3.78-2.72,1.46-.67,3.04-1.01,4.75-1.01s3.35,.36,4.8,1.08c1.45,.72,2.68,1.66,3.71,2.82s1.82,2.48,2.39,3.96c.57,1.48,.85,2.98,.85,4.51,0,1.62-.3,3.16-.89,4.63-.59,1.47-1.41,2.77-2.46,3.89-1.05,1.13-2.3,2.03-3.76,2.7-1.46,.67-3.04,1.01-4.75,1.01Zm-7.04-12.3c0,1.05,.16,2.06,.48,3.04,.32,.98,.78,1.85,1.38,2.6s1.35,1.36,2.22,1.81c.88,.46,1.87,.68,2.99,.68s2.15-.23,3.02-.7c.88-.47,1.62-1.09,2.22-1.86,.6-.78,1.06-1.65,1.37-2.62,.31-.97,.46-1.95,.46-2.96s-.17-2.06-.5-3.04c-.33-.98-.8-1.85-1.4-2.6-.61-.75-1.35-1.35-2.22-1.79-.88-.45-1.86-.67-2.96-.67s-2.15,.23-3.04,.7c-.89,.47-1.63,1.08-2.22,1.85-.59,.76-1.04,1.63-1.35,2.6-.31,.97-.46,1.95-.46,2.96Z"/><path class="cls-1" d="M166.17,24.44V.17h8.82c1.98,0,3.72,.32,5.21,.96s2.74,1.5,3.74,2.6,1.75,2.38,2.26,3.84c.5,1.47,.75,3.04,.75,4.7,0,1.85-.28,3.52-.84,5.01s-1.36,2.77-2.41,3.83c-1.05,1.06-2.31,1.88-3.78,2.46-1.47,.58-3.12,.87-4.94,.87h-8.82Zm16.03-12.17c0-1.16-.16-2.23-.48-3.21-.32-.98-.79-1.82-1.4-2.53-.62-.71-1.37-1.25-2.27-1.64-.9-.39-1.92-.58-3.06-.58h-4.1v15.99h4.1c1.16,0,2.19-.21,3.09-.62,.9-.41,1.65-.97,2.26-1.69s1.06-1.57,1.38-2.55c.32-.98,.48-2.04,.48-3.18Z"/><path class="cls-1" d="M200.54,20.44c1.12,0,2.06-.23,2.82-.68,.76-.46,1.38-1.05,1.85-1.78,.47-.73,.8-1.57,.99-2.51s.29-1.92,.29-2.92V.17h4.68V12.54c0,1.66-.2,3.22-.6,4.68-.4,1.46-1.03,2.73-1.88,3.83-.86,1.09-1.96,1.96-3.3,2.6s-2.95,.96-4.82,.96-3.58-.34-4.94-1.01-2.46-1.56-3.3-2.67c-.84-1.11-1.45-2.39-1.83-3.85-.38-1.46-.56-2.97-.56-4.54V.17h4.72V12.54c0,1.03,.1,2.01,.29,2.96s.53,1.78,.99,2.51,1.08,1.31,1.83,1.76c.75,.44,1.67,.67,2.77,.67Z"/><path class="cls-1" d="M229.77,6.53c-.16-.16-.45-.38-.87-.65s-.93-.54-1.54-.8-1.26-.48-1.96-.67c-.71-.18-1.42-.27-2.15-.27-1.3,0-2.27,.24-2.91,.72-.64,.48-.96,1.15-.96,2.02,0,.5,.12,.92,.36,1.25s.59,.62,1.04,.87c.46,.25,1.03,.48,1.72,.68s1.5,.42,2.41,.65c1.18,.32,2.26,.66,3.23,1.03,.97,.36,1.79,.82,2.46,1.37s1.19,1.2,1.55,1.96c.37,.76,.55,1.7,.55,2.82,0,1.3-.24,2.41-.73,3.33-.49,.92-1.15,1.67-1.98,2.24-.83,.57-1.79,.99-2.87,1.25s-2.21,.39-3.4,.39c-1.82,0-3.62-.27-5.4-.82s-3.37-1.32-4.79-2.32l2.09-4.07c.21,.21,.57,.47,1.11,.8,.54,.33,1.17,.66,1.9,.99,.73,.33,1.54,.61,2.43,.84,.89,.23,1.8,.34,2.73,.34,2.6,0,3.9-.83,3.9-2.5,0-.52-.15-.97-.44-1.33-.3-.37-.72-.68-1.27-.96s-1.21-.52-1.98-.75c-.77-.23-1.64-.48-2.6-.75-1.16-.32-2.17-.67-3.03-1.04-.85-.38-1.57-.82-2.13-1.33-.57-.51-1-1.11-1.28-1.78s-.43-1.47-.43-2.41c0-1.23,.23-2.32,.68-3.28,.46-.96,1.09-1.75,1.9-2.39,.81-.64,1.75-1.12,2.82-1.45s2.22-.5,3.45-.5c1.71,0,3.28,.27,4.72,.8s2.69,1.17,3.76,1.9l-2.08,3.83Z"/><polygon class="cls-1" points="236.01 24.44 236.01 .21 240.73 .21 240.73 11.72 250.91 .17 256.1 .17 246.81 10.94 256.69 24.44 251.39 24.44 243.84 13.94 240.73 17.19 240.73 24.44 236.01 24.44"/><path class="cls-1" d="M267.57,24.61c-1.78,0-3.39-.35-4.84-1.04-1.45-.7-2.69-1.62-3.72-2.77s-1.84-2.47-2.41-3.95c-.57-1.48-.86-3-.86-4.54s.3-3.17,.91-4.65,1.44-2.79,2.49-3.93c1.06-1.14,2.32-2.04,3.78-2.72,1.46-.67,3.04-1.01,4.75-1.01s3.35,.36,4.8,1.08c1.45,.72,2.68,1.66,3.71,2.82s1.82,2.48,2.39,3.96c.57,1.48,.85,2.98,.85,4.51,0,1.62-.3,3.16-.89,4.63-.59,1.47-1.41,2.77-2.46,3.89-1.05,1.13-2.3,2.03-3.76,2.7-1.46,.67-3.04,1.01-4.75,1.01Zm-7.04-12.3c0,1.05,.16,2.06,.48,3.04,.32,.98,.78,1.85,1.38,2.6s1.35,1.36,2.22,1.81c.88,.46,1.87,.68,2.99,.68s2.15-.23,3.02-.7c.88-.47,1.62-1.09,2.22-1.86,.6-.78,1.06-1.65,1.37-2.62,.31-.97,.46-1.95,.46-2.96s-.17-2.06-.5-3.04c-.33-.98-.8-1.85-1.4-2.6-.61-.75-1.35-1.35-2.22-1.79-.88-.45-1.86-.67-2.96-.67s-2.15,.23-3.04,.7c-.89,.47-1.63,1.08-2.22,1.85-.59,.76-1.04,1.63-1.35,2.6-.31,.97-.46,1.95-.46,2.96Z"/><path class="cls-1" d="M293.02,24.61c-1.78,0-3.39-.35-4.84-1.04s-2.69-1.62-3.72-2.77c-1.04-1.15-1.84-2.47-2.41-3.95s-.85-3-.85-4.54,.3-3.17,.9-4.65,1.44-2.79,2.5-3.93c1.06-1.14,2.32-2.04,3.78-2.72,1.46-.67,3.04-1.01,4.75-1.01s3.36,.36,4.8,1.08c1.45,.72,2.68,1.66,3.71,2.82s1.82,2.48,2.39,3.96c.57,1.48,.85,2.98,.85,4.51,0,1.62-.29,3.16-.89,4.63-.59,1.47-1.41,2.77-2.46,3.89-1.05,1.13-2.3,2.03-3.76,2.7-1.46,.67-3.04,1.01-4.75,1.01Zm-7.04-12.3c0,1.05,.16,2.06,.48,3.04,.32,.98,.78,1.85,1.38,2.6s1.34,1.36,2.22,1.81c.88,.46,1.88,.68,2.99,.68s2.15-.23,3.03-.7c.88-.47,1.62-1.09,2.22-1.86,.6-.78,1.06-1.65,1.37-2.62,.31-.97,.46-1.95,.46-2.96s-.16-2.06-.49-3.04c-.33-.98-.8-1.85-1.4-2.6-.6-.75-1.34-1.35-2.22-1.79-.88-.45-1.86-.67-2.96-.67s-2.15,.23-3.04,.7c-.89,.47-1.63,1.08-2.22,1.85-.59,.76-1.04,1.63-1.35,2.6-.31,.97-.46,1.95-.46,2.96Z"/><path class="cls-1" d="M308.16,24.44V.17h8.82c1.98,0,3.72,.32,5.21,.96s2.74,1.5,3.74,2.6c1,1.09,1.75,2.38,2.26,3.84,.5,1.47,.75,3.04,.75,4.7,0,1.85-.28,3.52-.84,5.01s-1.36,2.77-2.41,3.83c-1.05,1.06-2.31,1.88-3.78,2.46-1.47,.58-3.12,.87-4.94,.87h-8.82Zm16.03-12.17c0-1.16-.16-2.23-.48-3.21-.32-.98-.79-1.82-1.4-2.53-.62-.71-1.37-1.25-2.27-1.64-.9-.39-1.92-.58-3.06-.58h-4.1v15.99h4.1c1.16,0,2.19-.21,3.09-.62s1.65-.97,2.26-1.69,1.06-1.57,1.38-2.55c.32-.98,.48-2.04,.48-3.18Z"/><path class="cls-1" d="M350.84,24.61c-1.78,0-3.39-.35-4.84-1.04s-2.69-1.62-3.72-2.77c-1.04-1.15-1.84-2.47-2.41-3.95s-.85-3-.85-4.54,.3-3.17,.9-4.65,1.44-2.79,2.5-3.93c1.06-1.14,2.32-2.04,3.78-2.72,1.46-.67,3.04-1.01,4.75-1.01s3.36,.36,4.8,1.08c1.45,.72,2.68,1.66,3.71,2.82s1.82,2.48,2.39,3.96c.57,1.48,.85,2.98,.85,4.51,0,1.62-.29,3.16-.89,4.63-.59,1.47-1.41,2.77-2.46,3.89-1.05,1.13-2.3,2.03-3.76,2.7-1.46,.67-3.04,1.01-4.75,1.01Zm-7.04-12.3c0,1.05,.16,2.06,.48,3.04,.32,.98,.78,1.85,1.38,2.6s1.34,1.36,2.22,1.81c.88,.46,1.88,.68,2.99,.68s2.15-.23,3.03-.7c.88-.47,1.62-1.09,2.22-1.86,.6-.78,1.06-1.65,1.37-2.62,.31-.97,.46-1.95,.46-2.96s-.16-2.06-.49-3.04c-.33-.98-.8-1.85-1.4-2.6-.6-.75-1.34-1.35-2.22-1.79-.88-.45-1.86-.67-2.96-.67s-2.15,.23-3.04,.7c-.89,.47-1.63,1.08-2.22,1.85-.59,.76-1.04,1.63-1.35,2.6-.31,.97-.46,1.95-.46,2.96Z"/><polygon class="cls-1" points="370.7 8.89 370.7 24.44 365.99 24.44 365.99 .17 369.64 .17 382.29 16.1 382.29 .21 387 .21 387 24.44 383.17 24.44 370.7 8.89"/></g><g><polygon class="cls-1" points="0 242.57 0 224.11 2.91 224.11 2.91 240 12.82 240 12.82 242.57 0 242.57"/><path class="cls-1" d="M14.45,226.74v-3.15h2.86v3.15h-2.86Zm0,15.83v-13.6h2.86v13.6h-2.86Z"/><path class="cls-1" d="M25.45,242.83c-1.09,0-2.18-.18-3.26-.53-1.08-.35-2.01-.86-2.79-1.52l1.14-1.82c.81,.59,1.62,1.04,2.42,1.34,.8,.3,1.61,.46,2.44,.46s1.52-.16,2.02-.49c.49-.33,.74-.8,.74-1.4,0-.57-.28-.99-.83-1.25-.56-.26-1.42-.55-2.6-.86-.85-.22-1.58-.44-2.18-.65-.61-.21-1.1-.45-1.48-.73s-.66-.6-.83-.96c-.17-.36-.26-.81-.26-1.33,0-.69,.13-1.31,.4-1.85,.27-.54,.64-.99,1.12-1.37,.48-.37,1.04-.65,1.68-.84,.64-.19,1.33-.29,2.08-.29,1.02,0,1.98,.16,2.86,.47,.88,.31,1.67,.76,2.37,1.35l-1.22,1.72c-1.27-1-2.61-1.51-4.03-1.51-.73,0-1.34,.15-1.83,.46-.49,.3-.74,.78-.74,1.44,0,.28,.05,.51,.16,.7,.1,.19,.27,.36,.51,.49,.23,.14,.54,.26,.91,.38,.37,.11,.84,.24,1.39,.38,.92,.23,1.71,.45,2.38,.68,.67,.23,1.22,.49,1.65,.79,.43,.3,.75,.66,.96,1.07s.31,.9,.31,1.47c0,1.3-.49,2.33-1.47,3.08-.98,.75-2.31,1.13-3.99,1.13Z"/><path class="cls-1" d="M36.86,242.83c-.66,0-1.27-.11-1.83-.33-.56-.22-1.05-.51-1.46-.9-.41-.38-.73-.83-.96-1.35-.23-.52-.35-1.08-.35-1.69,0-.64,.14-1.22,.42-1.74,.28-.52,.67-.97,1.18-1.35,.51-.38,1.12-.68,1.82-.88,.7-.21,1.48-.31,2.33-.31,.64,0,1.27,.06,1.9,.17,.62,.11,1.19,.26,1.69,.46v-.94c0-1-.29-1.79-.86-2.35s-1.4-.84-2.47-.84c-.73,0-1.44,.13-2.15,.4-.7,.27-1.43,.66-2.17,1.16l-.88-1.82c1.75-1.18,3.57-1.77,5.46-1.77s3.33,.48,4.37,1.43c1.04,.95,1.56,2.32,1.56,4.11v4.91c0,.61,.25,.92,.75,.94v2.44c-.28,.05-.52,.09-.71,.1-.2,.02-.39,.03-.58,.03-.55,0-.98-.14-1.29-.42-.3-.28-.49-.63-.56-1.07l-.08-.86c-.61,.8-1.36,1.41-2.25,1.83s-1.85,.64-2.87,.64Zm.78-2.11c.69,0,1.35-.13,1.96-.38s1.1-.6,1.44-1.05c.36-.31,.55-.64,.55-.99v-1.79c-.49-.19-1-.34-1.55-.44s-1.08-.16-1.6-.16c-1.02,0-1.86,.22-2.51,.66-.65,.44-.98,1.03-.98,1.75,0,.68,.25,1.24,.75,1.7,.5,.46,1.14,.69,1.92,.69Z"/><path class="cls-1" d="M59.01,242.83c-1.09,0-2.18-.18-3.26-.53-1.08-.35-2.01-.86-2.79-1.52l1.14-1.82c.81,.59,1.62,1.04,2.42,1.34,.8,.3,1.61,.46,2.44,.46s1.52-.16,2.02-.49c.49-.33,.74-.8,.74-1.4,0-.57-.28-.99-.83-1.25-.56-.26-1.42-.55-2.6-.86-.85-.22-1.58-.44-2.18-.65-.61-.21-1.1-.45-1.48-.73s-.66-.6-.83-.96c-.17-.36-.26-.81-.26-1.33,0-.69,.13-1.31,.4-1.85,.27-.54,.64-.99,1.12-1.37,.48-.37,1.04-.65,1.68-.84,.64-.19,1.33-.29,2.08-.29,1.02,0,1.98,.16,2.86,.47,.88,.31,1.67,.76,2.37,1.35l-1.22,1.72c-1.27-1-2.61-1.51-4.03-1.51-.73,0-1.34,.15-1.83,.46-.49,.3-.74,.78-.74,1.44,0,.28,.05,.51,.16,.7,.1,.19,.27,.36,.51,.49,.23,.14,.54,.26,.91,.38,.37,.11,.84,.24,1.39,.38,.92,.23,1.71,.45,2.38,.68,.67,.23,1.22,.49,1.65,.79,.43,.3,.75,.66,.96,1.07s.31,.9,.31,1.47c0,1.3-.49,2.33-1.47,3.08-.98,.75-2.31,1.13-3.99,1.13Z"/><path class="cls-1" d="M72.75,242.83c-1.08,0-2.04-.19-2.9-.57-.86-.38-1.59-.89-2.2-1.53-.61-.64-1.08-1.39-1.4-2.25-.33-.86-.49-1.75-.49-2.69s.16-1.83,.49-2.69c.33-.86,.8-1.61,1.42-2.25,.62-.64,1.35-1.15,2.21-1.53,.86-.38,1.82-.57,2.87-.57s2.01,.19,2.87,.57c.86,.38,1.59,.89,2.21,1.53,.62,.64,1.09,1.39,1.42,2.25,.33,.86,.49,1.75,.49,2.69s-.17,1.83-.49,2.69c-.33,.86-.8,1.61-1.42,2.25s-1.35,1.15-2.21,1.53c-.86,.38-1.82,.57-2.87,.57Zm-4.06-7.02c0,.66,.1,1.27,.31,1.82,.21,.56,.49,1.04,.86,1.44,.36,.41,.79,.73,1.29,.96,.49,.23,1.03,.35,1.6,.35s1.1-.12,1.6-.35c.49-.23,.92-.56,1.29-.97s.65-.9,.86-1.46,.31-1.16,.31-1.82-.1-1.24-.31-1.81-.49-1.05-.86-1.47c-.36-.42-.79-.74-1.29-.98s-1.03-.35-1.6-.35-1.08,.12-1.57,.36c-.49,.24-.92,.57-1.29,.99s-.65,.91-.87,1.47c-.22,.56-.33,1.17-.33,1.81Z"/><path class="cls-1" d="M88.17,242.83c-1.08,0-2.04-.19-2.9-.57-.86-.38-1.59-.89-2.2-1.53-.61-.64-1.08-1.39-1.4-2.25-.33-.86-.49-1.75-.49-2.69s.16-1.83,.49-2.69c.33-.86,.8-1.61,1.42-2.25,.62-.64,1.35-1.15,2.21-1.53,.86-.38,1.82-.57,2.87-.57s2.01,.19,2.87,.57c.86,.38,1.59,.89,2.21,1.53,.62,.64,1.09,1.39,1.42,2.25,.33,.86,.49,1.75,.49,2.69s-.17,1.83-.49,2.69c-.33,.86-.8,1.61-1.42,2.25s-1.35,1.15-2.21,1.53c-.86,.38-1.82,.57-2.87,.57Zm-4.06-7.02c0,.66,.1,1.27,.31,1.82,.21,.56,.49,1.04,.86,1.44,.36,.41,.79,.73,1.29,.96,.49,.23,1.03,.35,1.6,.35s1.1-.12,1.6-.35c.49-.23,.92-.56,1.29-.97s.65-.9,.86-1.46,.31-1.16,.31-1.82-.1-1.24-.31-1.81-.49-1.05-.86-1.47c-.36-.42-.79-.74-1.29-.98s-1.03-.35-1.6-.35-1.08,.12-1.57,.36c-.49,.24-.92,.57-1.29,.99s-.65,.91-.87,1.47c-.22,.56-.33,1.17-.33,1.81Z"/><path class="cls-1" d="M103.06,242.83c-.92,0-1.77-.19-2.55-.56-.78-.37-1.46-.88-2.03-1.52-.57-.64-1.02-1.39-1.34-2.25-.32-.86-.48-1.78-.48-2.77s.15-1.85,.46-2.69c.3-.84,.73-1.58,1.27-2.22,.55-.64,1.19-1.15,1.92-1.52,.74-.37,1.55-.56,2.43-.56,1.09,0,2.05,.26,2.89,.79,.83,.53,1.48,1.2,1.95,2.01v-7.96h2.86v15.6c0,.33,.06,.56,.17,.7,.11,.14,.32,.22,.61,.23v2.44c-.29,.05-.53,.09-.71,.1-.18,.02-.33,.03-.46,.03-.57,0-1.04-.15-1.4-.44-.36-.29-.56-.68-.6-1.14l-.05-1.01c-.5,.85-1.19,1.52-2.05,2-.87,.48-1.83,.73-2.89,.73Zm.7-2.44c.42,0,.83-.07,1.25-.21s.8-.33,1.14-.57c.35-.24,.65-.53,.9-.86,.25-.33,.43-.68,.53-1.07v-3.56c-.16-.43-.38-.83-.66-1.2-.29-.36-.61-.68-.98-.94-.36-.26-.75-.46-1.16-.6-.41-.14-.82-.21-1.24-.21-.57,0-1.1,.13-1.57,.39s-.89,.61-1.23,1.04c-.35,.43-.62,.93-.82,1.48s-.3,1.13-.3,1.72c0,.62,.11,1.21,.33,1.77,.22,.55,.51,1.04,.9,1.46,.38,.42,.82,.75,1.31,.99,.49,.24,1.03,.36,1.6,.36Z"/><path class="cls-1" d="M117.89,242.83c-1.42,0-2.5-.46-3.22-1.39-.73-.93-1.09-2.31-1.09-4.15v-8.32h2.86v7.75c0,2.44,.87,3.67,2.6,3.67,.81,0,1.59-.25,2.31-.75,.73-.5,1.29-1.23,1.69-2.18v-8.48h2.86v10.22c0,.33,.06,.56,.17,.7,.11,.14,.32,.22,.61,.23v2.44c-.29,.05-.54,.09-.73,.1-.19,.02-.37,.03-.55,.03-.52,0-.96-.14-1.33-.43s-.55-.65-.57-1.11l-.05-1.35c-.61,.99-1.4,1.74-2.37,2.25s-2.04,.77-3.2,.77Z"/><path class="cls-1" d="M134.19,242.83c-1.09,0-2.18-.18-3.26-.53-1.08-.35-2.01-.86-2.79-1.52l1.14-1.82c.81,.59,1.62,1.04,2.42,1.34,.8,.3,1.61,.46,2.44,.46s1.52-.16,2.02-.49c.49-.33,.74-.8,.74-1.4,0-.57-.28-.99-.83-1.25-.56-.26-1.42-.55-2.6-.86-.85-.22-1.58-.44-2.18-.65-.61-.21-1.1-.45-1.48-.73s-.66-.6-.83-.96c-.17-.36-.26-.81-.26-1.33,0-.69,.13-1.31,.4-1.85,.27-.54,.64-.99,1.12-1.37,.48-.37,1.04-.65,1.68-.84,.64-.19,1.33-.29,2.08-.29,1.02,0,1.98,.16,2.86,.47,.88,.31,1.67,.76,2.37,1.35l-1.22,1.72c-1.27-1-2.61-1.51-4.03-1.51-.73,0-1.34,.15-1.83,.46-.49,.3-.74,.78-.74,1.44,0,.28,.05,.51,.16,.7,.1,.19,.27,.36,.51,.49,.23,.14,.54,.26,.91,.38,.37,.11,.84,.24,1.39,.38,.92,.23,1.71,.45,2.38,.68,.67,.23,1.22,.49,1.65,.79,.43,.3,.75,.66,.96,1.07s.31,.9,.31,1.47c0,1.3-.49,2.33-1.47,3.08-.98,.75-2.31,1.13-3.99,1.13Z"/><polygon class="cls-1" points="151.35 242.57 147.01 236.31 144.75 238.44 144.75 242.57 141.89 242.57 141.89 223.59 144.75 223.59 144.75 235.63 150.99 229 154.11 229 148.83 234.7 154.39 242.57 151.35 242.57"/><path class="cls-1" d="M161.33,242.83c-1.08,0-2.04-.19-2.9-.57-.86-.38-1.59-.89-2.2-1.53-.61-.64-1.08-1.39-1.4-2.25-.33-.86-.49-1.75-.49-2.69s.16-1.83,.49-2.69c.33-.86,.8-1.61,1.42-2.25,.62-.64,1.35-1.15,2.21-1.53,.86-.38,1.82-.57,2.87-.57s2.01,.19,2.87,.57c.86,.38,1.59,.89,2.21,1.53,.62,.64,1.09,1.39,1.42,2.25,.33,.86,.49,1.75,.49,2.69s-.17,1.83-.49,2.69c-.33,.86-.8,1.61-1.42,2.25s-1.35,1.15-2.21,1.53c-.86,.38-1.82,.57-2.87,.57Zm-4.06-7.02c0,.66,.1,1.27,.31,1.82,.21,.56,.49,1.04,.86,1.44,.36,.41,.79,.73,1.29,.96,.49,.23,1.03,.35,1.6,.35s1.1-.12,1.6-.35c.49-.23,.92-.56,1.29-.97s.65-.9,.86-1.46,.31-1.16,.31-1.82-.1-1.24-.31-1.81-.49-1.05-.86-1.47c-.36-.42-.79-.74-1.29-.98s-1.03-.35-1.6-.35-1.08,.12-1.57,.36c-.49,.24-.92,.57-1.29,.99s-.65,.91-.87,1.47c-.22,.56-.33,1.17-.33,1.81Z"/><path class="cls-1" d="M176.75,242.83c-1.08,0-2.04-.19-2.9-.57-.86-.38-1.59-.89-2.2-1.53-.61-.64-1.08-1.39-1.4-2.25-.33-.86-.49-1.75-.49-2.69s.16-1.83,.49-2.69c.33-.86,.8-1.61,1.42-2.25,.62-.64,1.35-1.15,2.21-1.53,.86-.38,1.82-.57,2.87-.57s2.01,.19,2.87,.57c.86,.38,1.59,.89,2.21,1.53,.62,.64,1.09,1.39,1.42,2.25,.33,.86,.49,1.75,.49,2.69s-.17,1.83-.49,2.69c-.33,.86-.8,1.61-1.42,2.25s-1.35,1.15-2.21,1.53c-.86,.38-1.82,.57-2.87,.57Zm-4.06-7.02c0,.66,.1,1.27,.31,1.82,.21,.56,.49,1.04,.86,1.44,.36,.41,.79,.73,1.29,.96,.49,.23,1.03,.35,1.6,.35s1.1-.12,1.6-.35c.49-.23,.92-.56,1.29-.97s.65-.9,.86-1.46,.31-1.16,.31-1.82-.1-1.24-.31-1.81-.49-1.05-.86-1.47c-.36-.42-.79-.74-1.29-.98s-1.03-.35-1.6-.35-1.08,.12-1.57,.36c-.49,.24-.92,.57-1.29,.99s-.65,.91-.87,1.47c-.22,.56-.33,1.17-.33,1.81Z"/><path class="cls-1" d="M191.64,242.83c-.92,0-1.77-.19-2.55-.56-.78-.37-1.46-.88-2.03-1.52-.57-.64-1.02-1.39-1.34-2.25-.32-.86-.48-1.78-.48-2.77s.15-1.85,.46-2.69c.3-.84,.73-1.58,1.27-2.22,.55-.64,1.19-1.15,1.92-1.52,.74-.37,1.55-.56,2.43-.56,1.09,0,2.05,.26,2.89,.79,.83,.53,1.48,1.2,1.95,2.01v-7.96h2.86v15.6c0,.33,.06,.56,.17,.7,.11,.14,.32,.22,.61,.23v2.44c-.29,.05-.53,.09-.71,.1-.18,.02-.33,.03-.46,.03-.57,0-1.04-.15-1.4-.44-.36-.29-.56-.68-.6-1.14l-.05-1.01c-.5,.85-1.19,1.52-2.05,2-.87,.48-1.83,.73-2.89,.73Zm.7-2.44c.42,0,.83-.07,1.25-.21s.8-.33,1.14-.57c.35-.24,.65-.53,.9-.86,.25-.33,.43-.68,.53-1.07v-3.56c-.16-.43-.38-.83-.66-1.2-.29-.36-.61-.68-.98-.94-.36-.26-.75-.46-1.16-.6-.41-.14-.82-.21-1.24-.21-.57,0-1.1,.13-1.57,.39s-.89,.61-1.23,1.04c-.35,.43-.62,.93-.82,1.48s-.3,1.13-.3,1.72c0,.62,.11,1.21,.33,1.77,.22,.55,.51,1.04,.9,1.46,.38,.42,.82,.75,1.31,.99,.49,.24,1.03,.36,1.6,.36Z"/><path class="cls-1" d="M214.94,242.83c-1.08,0-2.04-.19-2.9-.57-.86-.38-1.59-.89-2.2-1.53-.61-.64-1.08-1.39-1.4-2.25-.33-.86-.49-1.75-.49-2.69s.16-1.83,.49-2.69c.33-.86,.8-1.61,1.42-2.25,.62-.64,1.35-1.15,2.21-1.53,.86-.38,1.82-.57,2.87-.57s2.01,.19,2.87,.57c.86,.38,1.59,.89,2.21,1.53,.62,.64,1.09,1.39,1.42,2.25,.33,.86,.49,1.75,.49,2.69s-.17,1.83-.49,2.69c-.33,.86-.8,1.61-1.42,2.25s-1.35,1.15-2.21,1.53c-.86,.38-1.82,.57-2.87,.57Zm-4.06-7.02c0,.66,.1,1.27,.31,1.82,.21,.56,.49,1.04,.86,1.44,.36,.41,.79,.73,1.29,.96,.49,.23,1.03,.35,1.6,.35s1.1-.12,1.6-.35c.49-.23,.92-.56,1.29-.97s.65-.9,.86-1.46,.31-1.16,.31-1.82-.1-1.24-.31-1.81-.49-1.05-.86-1.47c-.36-.42-.79-.74-1.29-.98s-1.03-.35-1.6-.35-1.08,.12-1.57,.36c-.49,.24-.92,.57-1.29,.99s-.65,.91-.87,1.47c-.22,.56-.33,1.17-.33,1.81Z"/><path class="cls-1" d="M229.01,242.83c-1.09,0-2.18-.18-3.26-.53-1.08-.35-2.01-.86-2.79-1.52l1.14-1.82c.81,.59,1.62,1.04,2.42,1.34,.8,.3,1.61,.46,2.44,.46s1.52-.16,2.02-.49c.49-.33,.74-.8,.74-1.4,0-.57-.28-.99-.83-1.25-.56-.26-1.42-.55-2.6-.86-.85-.22-1.58-.44-2.18-.65-.61-.21-1.1-.45-1.48-.73s-.66-.6-.83-.96c-.17-.36-.26-.81-.26-1.33,0-.69,.13-1.31,.4-1.85,.27-.54,.64-.99,1.12-1.37,.48-.37,1.04-.65,1.68-.84,.64-.19,1.33-.29,2.08-.29,1.02,0,1.98,.16,2.86,.47,.88,.31,1.67,.76,2.37,1.35l-1.22,1.72c-1.27-1-2.61-1.51-4.03-1.51-.73,0-1.34,.15-1.83,.46-.49,.3-.74,.78-.74,1.44,0,.28,.05,.51,.16,.7,.1,.19,.27,.36,.51,.49,.23,.14,.54,.26,.91,.38,.37,.11,.84,.24,1.39,.38,.92,.23,1.71,.45,2.38,.68,.67,.23,1.22,.49,1.65,.79,.43,.3,.75,.66,.96,1.07s.31,.9,.31,1.47c0,1.3-.49,2.33-1.47,3.08-.98,.75-2.31,1.13-3.99,1.13Z"/><path class="cls-1" d="M244.2,241.87c-.36,.17-.87,.37-1.51,.58-.64,.22-1.33,.33-2.05,.33-.45,0-.88-.06-1.27-.18-.4-.12-.75-.3-1.05-.55-.3-.24-.54-.56-.71-.95-.17-.39-.26-.86-.26-1.42v-8.5h-1.79v-2.21h1.79v-4.47h2.86v4.47h2.96v2.21h-2.96v7.59c.03,.49,.19,.84,.46,1.05,.27,.22,.6,.33,1,.33s.78-.07,1.14-.21,.63-.25,.81-.34l.6,2.26Z"/><path class="cls-1" d="M249.82,242.83c-1.42,0-2.5-.46-3.22-1.39-.73-.93-1.09-2.31-1.09-4.15v-8.32h2.86v7.75c0,2.44,.87,3.67,2.6,3.67,.81,0,1.59-.25,2.31-.75,.73-.5,1.29-1.23,1.69-2.18v-8.48h2.86v10.22c0,.33,.06,.56,.17,.7,.11,.14,.32,.22,.61,.23v2.44c-.29,.05-.54,.09-.73,.1-.19,.02-.37,.03-.55,.03-.52,0-.96-.14-1.33-.43s-.55-.65-.57-1.11l-.05-1.35c-.61,.99-1.4,1.74-2.37,2.25s-2.04,.77-3.2,.77Z"/><path class="cls-1" d="M272.57,242.83c-1.09,0-2.18-.18-3.26-.53-1.08-.35-2.01-.86-2.79-1.52l1.14-1.82c.81,.59,1.62,1.04,2.42,1.34,.8,.3,1.61,.46,2.44,.46s1.52-.16,2.02-.49c.49-.33,.74-.8,.74-1.4,0-.57-.28-.99-.83-1.25-.56-.26-1.42-.55-2.6-.86-.85-.22-1.58-.44-2.18-.65-.61-.21-1.1-.45-1.48-.73s-.66-.6-.83-.96c-.17-.36-.26-.81-.26-1.33,0-.69,.13-1.31,.4-1.85,.27-.54,.64-.99,1.12-1.37,.48-.37,1.04-.65,1.68-.84,.64-.19,1.33-.29,2.08-.29,1.02,0,1.98,.16,2.86,.47,.88,.31,1.67,.76,2.37,1.35l-1.22,1.72c-1.27-1-2.61-1.51-4.03-1.51-.73,0-1.34,.15-1.83,.46-.49,.3-.74,.78-.74,1.44,0,.28,.05,.51,.16,.7,.1,.19,.27,.36,.51,.49,.23,.14,.54,.26,.91,.38,.37,.11,.84,.24,1.39,.38,.92,.23,1.71,.45,2.38,.68,.67,.23,1.22,.49,1.65,.79,.43,.3,.75,.66,.96,1.07s.31,.9,.31,1.47c0,1.3-.49,2.33-1.47,3.08-.98,.75-2.31,1.13-3.99,1.13Z"/><path class="cls-1" d="M286.31,242.83c-1.08,0-2.04-.19-2.9-.57-.86-.38-1.59-.89-2.2-1.53-.61-.64-1.08-1.39-1.4-2.25-.33-.86-.49-1.75-.49-2.69s.16-1.83,.49-2.69c.33-.86,.8-1.61,1.42-2.25,.62-.64,1.35-1.15,2.21-1.53,.86-.38,1.82-.57,2.87-.57s2.01,.19,2.87,.57c.86,.38,1.59,.89,2.21,1.53,.62,.64,1.09,1.39,1.42,2.25,.33,.86,.49,1.75,.49,2.69s-.17,1.83-.49,2.69c-.33,.86-.8,1.61-1.42,2.25s-1.35,1.15-2.21,1.53c-.86,.38-1.82,.57-2.87,.57Zm-4.06-7.02c0,.66,.1,1.27,.31,1.82,.21,.56,.49,1.04,.86,1.44,.36,.41,.79,.73,1.29,.96,.49,.23,1.03,.35,1.6,.35s1.1-.12,1.6-.35c.49-.23,.92-.56,1.29-.97s.65-.9,.86-1.46,.31-1.16,.31-1.82-.1-1.24-.31-1.81-.49-1.05-.86-1.47c-.36-.42-.79-.74-1.29-.98s-1.03-.35-1.6-.35-1.08,.12-1.57,.36c-.49,.24-.92,.57-1.29,.99s-.65,.91-.87,1.47c-.22,.56-.33,1.17-.33,1.81Z"/><path class="cls-1" d="M301.72,242.83c-1.08,0-2.04-.19-2.9-.57-.86-.38-1.59-.89-2.2-1.53-.61-.64-1.08-1.39-1.4-2.25-.33-.86-.49-1.75-.49-2.69s.16-1.83,.49-2.69c.33-.86,.8-1.61,1.42-2.25,.62-.64,1.35-1.15,2.21-1.53,.86-.38,1.82-.57,2.87-.57s2.01,.19,2.87,.57c.86,.38,1.59,.89,2.21,1.53,.62,.64,1.09,1.39,1.42,2.25,.33,.86,.49,1.75,.49,2.69s-.17,1.83-.49,2.69c-.33,.86-.8,1.61-1.42,2.25s-1.35,1.15-2.21,1.53c-.86,.38-1.82,.57-2.87,.57Zm-4.06-7.02c0,.66,.1,1.27,.31,1.82,.21,.56,.49,1.04,.86,1.44,.36,.41,.79,.73,1.29,.96,.49,.23,1.03,.35,1.6,.35s1.1-.12,1.6-.35c.49-.23,.92-.56,1.29-.97s.65-.9,.86-1.46,.31-1.16,.31-1.82-.1-1.24-.31-1.81-.49-1.05-.86-1.47c-.36-.42-.79-.74-1.29-.98s-1.03-.35-1.6-.35-1.08,.12-1.57,.36c-.49,.24-.92,.57-1.29,.99s-.65,.91-.87,1.47c-.22,.56-.33,1.17-.33,1.81Z"/><path class="cls-1" d="M318.62,231.45c-1.11,.04-2.09,.29-2.95,.77-.86,.48-1.47,1.16-1.83,2.04v8.32h-2.86v-13.6h2.65v3.04c.47-.94,1.08-1.69,1.83-2.25s1.56-.87,2.43-.92h.43c.11,0,.21,0,.3,.03v2.57Z"/><path class="cls-1" d="M320.24,226.74v-3.15h2.86v3.15h-2.86Zm0,15.83v-13.6h2.86v13.6h-2.86Z"/><path class="cls-1" d="M333.75,241.87c-.36,.17-.87,.37-1.51,.58-.64,.22-1.33,.33-2.05,.33-.45,0-.88-.06-1.27-.18-.4-.12-.75-.3-1.05-.55-.3-.24-.54-.56-.71-.95-.17-.39-.26-.86-.26-1.42v-8.5h-1.79v-2.21h1.79v-4.47h2.86v4.47h2.96v2.21h-2.96v7.59c.03,.49,.19,.84,.46,1.05,.27,.22,.6,.33,1,.33s.78-.07,1.14-.21,.63-.25,.81-.34l.6,2.26Z"/><path class="cls-1" d="M339.15,242.83c-.66,0-1.27-.11-1.83-.33-.56-.22-1.05-.51-1.46-.9-.41-.38-.73-.83-.96-1.35-.23-.52-.35-1.08-.35-1.69,0-.64,.14-1.22,.42-1.74,.28-.52,.67-.97,1.18-1.35,.51-.38,1.12-.68,1.82-.88,.7-.21,1.48-.31,2.33-.31,.64,0,1.27,.06,1.9,.17,.62,.11,1.19,.26,1.69,.46v-.94c0-1-.29-1.79-.86-2.35s-1.4-.84-2.47-.84c-.73,0-1.44,.13-2.15,.4-.7,.27-1.43,.66-2.17,1.16l-.88-1.82c1.75-1.18,3.57-1.77,5.46-1.77s3.33,.48,4.37,1.43c1.04,.95,1.56,2.32,1.56,4.11v4.91c0,.61,.25,.92,.75,.94v2.44c-.28,.05-.52,.09-.71,.1-.2,.02-.39,.03-.58,.03-.55,0-.98-.14-1.29-.42-.3-.28-.49-.63-.56-1.07l-.08-.86c-.61,.8-1.36,1.41-2.25,1.83s-1.85,.64-2.87,.64Zm.78-2.11c.69,0,1.35-.13,1.96-.38s1.1-.6,1.44-1.05c.36-.31,.55-.64,.55-.99v-1.79c-.49-.19-1-.34-1.55-.44s-1.08-.16-1.6-.16c-1.02,0-1.86,.22-2.51,.66-.65,.44-.98,1.03-.98,1.75,0,.68,.25,1.24,.75,1.7,.5,.46,1.14,.69,1.92,.69Z"/><path class="cls-1" d="M355.4,242.83c-.92,0-1.77-.19-2.55-.56-.78-.37-1.46-.88-2.03-1.52-.57-.64-1.02-1.39-1.34-2.25-.32-.86-.48-1.78-.48-2.77s.15-1.85,.46-2.69c.3-.84,.73-1.58,1.27-2.22,.55-.64,1.19-1.15,1.92-1.52,.74-.37,1.55-.56,2.43-.56,1.09,0,2.05,.26,2.89,.79,.83,.53,1.48,1.2,1.95,2.01v-7.96h2.86v15.6c0,.33,.06,.56,.17,.7,.11,.14,.32,.22,.61,.23v2.44c-.29,.05-.53,.09-.71,.1-.18,.02-.33,.03-.46,.03-.57,0-1.04-.15-1.4-.44-.36-.29-.56-.68-.6-1.14l-.05-1.01c-.5,.85-1.19,1.52-2.05,2-.87,.48-1.83,.73-2.89,.73Zm.7-2.44c.42,0,.83-.07,1.25-.21s.8-.33,1.14-.57c.35-.24,.65-.53,.9-.86,.25-.33,.43-.68,.53-1.07v-3.56c-.16-.43-.38-.83-.66-1.2-.29-.36-.61-.68-.98-.94-.36-.26-.75-.46-1.16-.6-.41-.14-.82-.21-1.24-.21-.57,0-1.1,.13-1.57,.39s-.89,.61-1.23,1.04c-.35,.43-.62,.93-.82,1.48s-.3,1.13-.3,1.72c0,.62,.11,1.21,.33,1.77,.22,.55,.51,1.04,.9,1.46,.38,.42,.82,.75,1.31,.99,.49,.24,1.03,.36,1.6,.36Z"/><path class="cls-1" d="M372.19,242.83c-1.06,0-2.02-.19-2.89-.56-.87-.37-1.61-.88-2.22-1.52-.62-.64-1.09-1.39-1.43-2.24s-.51-1.75-.51-2.7,.17-1.86,.51-2.72c.34-.86,.81-1.61,1.43-2.26,.62-.65,1.36-1.16,2.22-1.53,.87-.37,1.84-.56,2.91-.56s2.01,.19,2.87,.57c.86,.38,1.59,.89,2.2,1.52,.61,.63,1.07,1.37,1.39,2.21,.32,.84,.48,1.72,.48,2.64,0,.21,0,.4-.03,.58-.02,.18-.04,.33-.05,.46h-10.89c.05,.61,.2,1.15,.43,1.64,.23,.49,.54,.91,.91,1.26,.37,.36,.8,.63,1.27,.82,.48,.19,.97,.29,1.5,.29,.38,0,.76-.05,1.13-.14,.37-.09,.71-.23,1.03-.42,.31-.18,.59-.4,.83-.66,.24-.26,.43-.55,.57-.86l2.44,.7c-.47,1.02-1.24,1.86-2.33,2.51-1.08,.65-2.34,.97-3.78,.97Zm4.13-8.09c-.05-.57-.19-1.1-.43-1.59s-.53-.9-.9-1.24c-.36-.34-.79-.6-1.27-.79-.49-.19-1-.29-1.53-.29s-1.04,.09-1.52,.29c-.48,.19-.9,.46-1.26,.79-.36,.34-.66,.75-.88,1.24s-.36,1.01-.42,1.59h8.22Z"/><path class="cls-1" d="M386.13,242.83c-1.09,0-2.18-.18-3.26-.53-1.08-.35-2.01-.86-2.79-1.52l1.14-1.82c.81,.59,1.62,1.04,2.42,1.34,.8,.3,1.61,.46,2.44,.46s1.52-.16,2.02-.49c.49-.33,.74-.8,.74-1.4,0-.57-.28-.99-.83-1.25-.56-.26-1.42-.55-2.6-.86-.85-.22-1.58-.44-2.18-.65-.61-.21-1.1-.45-1.48-.73s-.66-.6-.83-.96c-.17-.36-.26-.81-.26-1.33,0-.69,.13-1.31,.4-1.85,.27-.54,.64-.99,1.12-1.37,.48-.37,1.04-.65,1.68-.84,.64-.19,1.33-.29,2.08-.29,1.02,0,1.98,.16,2.86,.47,.88,.31,1.67,.76,2.37,1.35l-1.22,1.72c-1.27-1-2.61-1.51-4.03-1.51-.73,0-1.34,.15-1.83,.46-.49,.3-.74,.78-.74,1.44,0,.28,.05,.51,.16,.7,.1,.19,.27,.36,.51,.49,.23,.14,.54,.26,.91,.38,.37,.11,.84,.24,1.39,.38,.92,.23,1.71,.45,2.38,.68,.67,.23,1.22,.49,1.65,.79,.43,.3,.75,.66,.96,1.07s.31,.9,.31,1.47c0,1.3-.49,2.33-1.47,3.08-.98,.75-2.31,1.13-3.99,1.13Z"/><polygon class="cls-1" points="87.79 270.57 83.45 264.31 81.19 266.44 81.19 270.57 78.33 270.57 78.33 251.59 81.19 251.59 81.19 263.63 87.43 257 90.55 257 85.27 262.7 90.83 270.57 87.79 270.57"/><path class="cls-1" d="M97.77,270.83c-1.08,0-2.04-.19-2.9-.57-.86-.38-1.59-.89-2.2-1.53-.61-.64-1.08-1.39-1.4-2.25-.33-.86-.49-1.75-.49-2.69s.16-1.83,.49-2.69c.33-.86,.8-1.61,1.42-2.25,.62-.64,1.35-1.15,2.21-1.53,.86-.38,1.82-.57,2.87-.57s2.01,.19,2.87,.57c.86,.38,1.59,.89,2.21,1.53,.62,.64,1.09,1.39,1.42,2.25,.33,.86,.49,1.75,.49,2.69s-.17,1.83-.49,2.69c-.33,.86-.8,1.61-1.42,2.25s-1.35,1.15-2.21,1.53c-.86,.38-1.82,.57-2.87,.57Zm-4.06-7.02c0,.66,.1,1.27,.31,1.82,.21,.56,.49,1.04,.86,1.44,.36,.41,.79,.73,1.29,.96,.49,.23,1.03,.35,1.6,.35s1.1-.12,1.6-.35c.49-.23,.92-.56,1.29-.97s.65-.9,.86-1.46,.31-1.16,.31-1.82-.1-1.24-.31-1.81-.49-1.05-.86-1.47c-.36-.42-.79-.74-1.29-.98s-1.03-.35-1.6-.35-1.08,.12-1.57,.36c-.49,.24-.92,.57-1.29,.99s-.65,.91-.87,1.47c-.22,.56-.33,1.17-.33,1.81Z"/><path class="cls-1" d="M127.82,270.57h-2.86v-7.62c0-1.26-.21-2.19-.62-2.78-.42-.59-1.02-.88-1.82-.88s-1.56,.3-2.22,.9c-.67,.6-1.15,1.37-1.44,2.33v8.06h-2.86v-7.62c0-1.28-.21-2.21-.62-2.79-.42-.58-1.01-.87-1.79-.87s-1.56,.29-2.24,.88c-.68,.59-1.16,1.36-1.46,2.31v8.09h-2.86v-13.6h2.6v2.73c.54-.95,1.24-1.69,2.12-2.2,.88-.51,1.88-.77,3-.77s2.01,.29,2.66,.88c.65,.59,1.05,1.33,1.21,2.21,.57-1,1.29-1.77,2.16-2.3,.87-.53,1.85-.79,2.96-.79,.8,0,1.46,.15,1.99,.46,.53,.3,.95,.71,1.26,1.21,.31,.5,.53,1.09,.65,1.75,.12,.67,.18,1.37,.18,2.12v8.29Z"/><path class="cls-1" d="M151.66,270.57h-2.86v-7.62c0-1.26-.21-2.19-.62-2.78-.42-.59-1.02-.88-1.82-.88s-1.56,.3-2.22,.9c-.67,.6-1.15,1.37-1.44,2.33v8.06h-2.86v-7.62c0-1.28-.21-2.21-.62-2.79-.42-.58-1.01-.87-1.79-.87s-1.56,.29-2.24,.88c-.68,.59-1.16,1.36-1.46,2.31v8.09h-2.86v-13.6h2.6v2.73c.54-.95,1.24-1.69,2.12-2.2,.88-.51,1.88-.77,3-.77s2.01,.29,2.66,.88c.65,.59,1.05,1.33,1.21,2.21,.57-1,1.29-1.77,2.16-2.3,.87-.53,1.85-.79,2.96-.79,.8,0,1.46,.15,1.99,.46,.53,.3,.95,.71,1.26,1.21,.31,.5,.53,1.09,.65,1.75,.12,.67,.18,1.37,.18,2.12v8.29Z"/><path class="cls-1" d="M160.91,270.83c-1.06,0-2.02-.19-2.89-.56-.87-.37-1.61-.88-2.22-1.52-.62-.64-1.09-1.39-1.43-2.24s-.51-1.75-.51-2.7,.17-1.86,.51-2.72c.34-.86,.81-1.61,1.43-2.26,.62-.65,1.36-1.16,2.22-1.53,.87-.37,1.84-.56,2.91-.56s2.01,.19,2.87,.57c.86,.38,1.59,.89,2.2,1.52,.61,.63,1.07,1.37,1.39,2.21,.32,.84,.48,1.72,.48,2.64,0,.21,0,.4-.03,.58-.02,.18-.04,.33-.05,.46h-10.89c.05,.61,.2,1.15,.43,1.64,.23,.49,.54,.91,.91,1.26,.37,.36,.8,.63,1.27,.82,.48,.19,.97,.29,1.5,.29,.38,0,.76-.05,1.13-.14,.37-.09,.71-.23,1.03-.42,.31-.18,.59-.4,.83-.66,.24-.26,.43-.55,.57-.86l2.44,.7c-.47,1.02-1.24,1.86-2.33,2.51-1.08,.65-2.34,.97-3.78,.97Zm4.13-8.09c-.05-.57-.19-1.1-.43-1.59s-.53-.9-.9-1.24c-.36-.34-.79-.6-1.27-.79-.49-.19-1-.29-1.53-.29s-1.04,.09-1.52,.29c-.48,.19-.9,.46-1.26,.79-.36,.34-.66,.75-.88,1.24s-.36,1.01-.42,1.59h8.22Z"/><path class="cls-1" d="M182.18,270.57h-2.86v-7.62c0-1.28-.2-2.21-.61-2.79-.41-.58-1.01-.87-1.81-.87-.42,0-.83,.08-1.25,.23s-.81,.38-1.17,.66-.69,.62-.97,1.01-.51,.82-.66,1.29v8.09h-2.86v-13.6h2.6v2.73c.52-.92,1.27-1.64,2.26-2.17,.99-.53,2.08-.79,3.28-.79,.82,0,1.48,.15,2,.44,.52,.29,.93,.7,1.23,1.21,.3,.51,.52,1.1,.64,1.77,.12,.67,.18,1.37,.18,2.12v8.29Z"/><path class="cls-1" d="M192.53,269.87c-.36,.17-.87,.37-1.51,.58-.64,.22-1.33,.33-2.05,.33-.45,0-.88-.06-1.27-.18-.4-.12-.75-.3-1.05-.55-.3-.24-.54-.56-.71-.95-.17-.39-.26-.86-.26-1.42v-8.5h-1.79v-2.21h1.79v-4.47h2.86v4.47h2.96v2.21h-2.96v7.59c.03,.49,.19,.84,.46,1.05,.27,.22,.6,.33,1,.33s.78-.07,1.14-.21,.63-.25,.81-.34l.6,2.26Z"/><path class="cls-1" d="M197.93,270.83c-.66,0-1.27-.11-1.83-.33-.56-.22-1.05-.51-1.46-.9-.41-.38-.73-.83-.96-1.35-.23-.52-.35-1.08-.35-1.69,0-.64,.14-1.22,.42-1.74,.28-.52,.67-.97,1.18-1.35,.51-.38,1.12-.68,1.82-.88,.7-.21,1.48-.31,2.33-.31,.64,0,1.27,.06,1.9,.17,.62,.11,1.19,.26,1.69,.46v-.94c0-1-.29-1.79-.86-2.35s-1.4-.84-2.47-.84c-.73,0-1.44,.13-2.15,.4-.7,.27-1.43,.66-2.17,1.16l-.88-1.82c1.75-1.18,3.57-1.77,5.46-1.77s3.33,.48,4.37,1.43c1.04,.95,1.56,2.32,1.56,4.11v4.91c0,.61,.25,.92,.75,.94v2.44c-.28,.05-.52,.09-.71,.1-.2,.02-.39,.03-.58,.03-.55,0-.98-.14-1.29-.42-.3-.28-.49-.63-.56-1.07l-.08-.86c-.61,.8-1.36,1.41-2.25,1.83s-1.85,.64-2.87,.64Zm.78-2.11c.69,0,1.35-.13,1.96-.38s1.1-.6,1.44-1.05c.36-.31,.55-.64,.55-.99v-1.79c-.49-.19-1-.34-1.55-.44s-1.08-.16-1.6-.16c-1.02,0-1.86,.22-2.51,.66-.65,.44-.98,1.03-.98,1.75,0,.68,.25,1.24,.75,1.7,.5,.46,1.14,.69,1.92,.69Z"/><path class="cls-1" d="M212.25,270.83c-.66,0-1.27-.11-1.83-.33-.56-.22-1.05-.51-1.46-.9-.41-.38-.73-.83-.96-1.35-.23-.52-.35-1.08-.35-1.69,0-.64,.14-1.22,.42-1.74,.28-.52,.67-.97,1.18-1.35,.51-.38,1.12-.68,1.82-.88,.7-.21,1.48-.31,2.33-.31,.64,0,1.27,.06,1.9,.17,.62,.11,1.19,.26,1.69,.46v-.94c0-1-.29-1.79-.86-2.35s-1.4-.84-2.47-.84c-.73,0-1.44,.13-2.15,.4-.7,.27-1.43,.66-2.17,1.16l-.88-1.82c1.75-1.18,3.57-1.77,5.46-1.77s3.33,.48,4.37,1.43c1.04,.95,1.56,2.32,1.56,4.11v4.91c0,.61,.25,.92,.75,.94v2.44c-.28,.05-.52,.09-.71,.1-.2,.02-.39,.03-.58,.03-.55,0-.98-.14-1.29-.42-.3-.28-.49-.63-.56-1.07l-.08-.86c-.61,.8-1.36,1.41-2.25,1.83s-1.85,.64-2.87,.64Zm.78-2.11c.69,0,1.35-.13,1.96-.38s1.1-.6,1.44-1.05c.36-.31,.55-.64,.55-.99v-1.79c-.49-.19-1-.34-1.55-.44s-1.08-.16-1.6-.16c-1.02,0-1.86,.22-2.51,.66-.65,.44-.98,1.03-.98,1.75,0,.68,.25,1.24,.75,1.7,.5,.46,1.14,.69,1.92,.69Z"/><path class="cls-1" d="M230.7,259.45c-1.11,.04-2.09,.29-2.95,.77-.86,.48-1.47,1.16-1.83,2.04v8.32h-2.86v-13.6h2.65v3.04c.47-.94,1.08-1.69,1.83-2.25s1.56-.87,2.43-.92h.43c.11,0,.21,0,.3,.03v2.57Z"/><path class="cls-1" d="M232.32,254.74v-3.15h2.86v3.15h-2.86Zm0,15.83v-13.6h2.86v13.6h-2.86Z"/><path class="cls-1" d="M243.92,270.83c-.92,0-1.77-.19-2.55-.56-.78-.37-1.46-.88-2.03-1.52-.57-.64-1.02-1.39-1.34-2.25-.32-.86-.48-1.78-.48-2.77s.15-1.85,.46-2.69c.3-.84,.73-1.58,1.27-2.22,.55-.64,1.19-1.15,1.92-1.52,.74-.37,1.55-.56,2.43-.56,1.09,0,2.05,.26,2.89,.79,.83,.53,1.48,1.2,1.95,2.01v-7.96h2.86v15.6c0,.33,.06,.56,.17,.7,.11,.14,.32,.22,.61,.23v2.44c-.29,.05-.53,.09-.71,.1-.18,.02-.33,.03-.46,.03-.57,0-1.04-.15-1.4-.44-.36-.29-.56-.68-.6-1.14l-.05-1.01c-.5,.85-1.19,1.52-2.05,2-.87,.48-1.83,.73-2.89,.73Zm.7-2.44c.42,0,.83-.07,1.25-.21s.8-.33,1.14-.57c.35-.24,.65-.53,.9-.86,.25-.33,.43-.68,.53-1.07v-3.56c-.16-.43-.38-.83-.66-1.2-.29-.36-.61-.68-.98-.94-.36-.26-.75-.46-1.16-.6-.41-.14-.82-.21-1.24-.21-.57,0-1.1,.13-1.57,.39s-.89,.61-1.23,1.04c-.35,.43-.62,.93-.82,1.48s-.3,1.13-.3,1.72c0,.62,.11,1.21,.33,1.77,.22,.55,.51,1.04,.9,1.46,.38,.42,.82,.75,1.31,.99,.49,.24,1.03,.36,1.6,.36Z"/><path class="cls-1" d="M260.71,270.83c-1.06,0-2.02-.19-2.89-.56-.87-.37-1.61-.88-2.22-1.52-.62-.64-1.09-1.39-1.43-2.24s-.51-1.75-.51-2.7,.17-1.86,.51-2.72c.34-.86,.81-1.61,1.43-2.26,.62-.65,1.36-1.16,2.22-1.53,.87-.37,1.84-.56,2.91-.56s2.01,.19,2.87,.57c.86,.38,1.59,.89,2.2,1.52,.61,.63,1.07,1.37,1.39,2.21,.32,.84,.48,1.72,.48,2.64,0,.21,0,.4-.03,.58-.02,.18-.04,.33-.05,.46h-10.89c.05,.61,.2,1.15,.43,1.64,.23,.49,.54,.91,.91,1.26,.37,.36,.8,.63,1.27,.82,.48,.19,.97,.29,1.5,.29,.38,0,.76-.05,1.13-.14,.37-.09,.71-.23,1.03-.42,.31-.18,.59-.4,.83-.66,.24-.26,.43-.55,.57-.86l2.44,.7c-.47,1.02-1.24,1.86-2.33,2.51-1.08,.65-2.34,.97-3.78,.97Zm4.13-8.09c-.05-.57-.19-1.1-.43-1.59s-.53-.9-.9-1.24c-.36-.34-.79-.6-1.27-.79-.49-.19-1-.29-1.53-.29s-1.04,.09-1.52,.29c-.48,.19-.9,.46-1.26,.79-.36,.34-.66,.75-.88,1.24s-.36,1.01-.42,1.59h8.22Z"/><path class="cls-1" d="M274.66,270.83c-1.09,0-2.18-.18-3.26-.53-1.08-.35-2.01-.86-2.79-1.52l1.14-1.82c.81,.59,1.62,1.04,2.42,1.34,.8,.3,1.61,.46,2.44,.46s1.52-.16,2.02-.49c.49-.33,.74-.8,.74-1.4,0-.57-.28-.99-.83-1.25-.56-.26-1.42-.55-2.6-.86-.85-.22-1.58-.44-2.18-.65-.61-.21-1.1-.45-1.48-.73s-.66-.6-.83-.96c-.17-.36-.26-.81-.26-1.33,0-.69,.13-1.31,.4-1.85,.27-.54,.64-.99,1.12-1.37,.48-.37,1.04-.65,1.68-.84,.64-.19,1.33-.29,2.08-.29,1.02,0,1.98,.16,2.86,.47,.88,.31,1.67,.76,2.37,1.35l-1.22,1.72c-1.27-1-2.61-1.51-4.03-1.51-.73,0-1.34,.15-1.83,.46-.49,.3-.74,.78-.74,1.44,0,.28,.05,.51,.16,.7,.1,.19,.27,.36,.51,.49,.23,.14,.54,.26,.91,.38,.37,.11,.84,.24,1.39,.38,.92,.23,1.71,.45,2.38,.68,.67,.23,1.22,.49,1.65,.79,.43,.3,.75,.66,.96,1.07s.31,.9,.31,1.47c0,1.3-.49,2.33-1.47,3.08-.98,.75-2.31,1.13-3.99,1.13Z"/><path class="cls-1" d="M287.31,270.83c-1.09,0-2.18-.18-3.26-.53-1.08-.35-2.01-.86-2.79-1.52l1.14-1.82c.81,.59,1.62,1.04,2.42,1.34,.8,.3,1.61,.46,2.44,.46s1.52-.16,2.02-.49c.49-.33,.74-.8,.74-1.4,0-.57-.28-.99-.83-1.25-.56-.26-1.42-.55-2.6-.86-.85-.22-1.58-.44-2.18-.65-.61-.21-1.1-.45-1.48-.73s-.66-.6-.83-.96c-.17-.36-.26-.81-.26-1.33,0-.69,.13-1.31,.4-1.85,.27-.54,.64-.99,1.12-1.37,.48-.37,1.04-.65,1.68-.84,.64-.19,1.33-.29,2.08-.29,1.02,0,1.98,.16,2.86,.47,.88,.31,1.67,.76,2.37,1.35l-1.22,1.72c-1.27-1-2.61-1.51-4.03-1.51-.73,0-1.34,.15-1.83,.46-.49,.3-.74,.78-.74,1.44,0,.28,.05,.51,.16,.7,.1,.19,.27,.36,.51,.49,.23,.14,.54,.26,.91,.38,.37,.11,.84,.24,1.39,.38,.92,.23,1.71,.45,2.38,.68,.67,.23,1.22,.49,1.65,.79,.43,.3,.75,.66,.96,1.07s.31,.9,.31,1.47c0,1.3-.49,2.33-1.47,3.08-.98,.75-2.31,1.13-3.99,1.13Z"/><path class="cls-1" d="M301.1,270.83c-1.06,0-2.02-.19-2.89-.56-.87-.37-1.61-.88-2.22-1.52-.62-.64-1.09-1.39-1.43-2.24s-.51-1.75-.51-2.7,.17-1.86,.51-2.72c.34-.86,.81-1.61,1.43-2.26,.62-.65,1.36-1.16,2.22-1.53,.87-.37,1.84-.56,2.91-.56s2.01,.19,2.87,.57c.86,.38,1.59,.89,2.2,1.52,.61,.63,1.07,1.37,1.39,2.21,.32,.84,.48,1.72,.48,2.64,0,.21,0,.4-.03,.58-.02,.18-.04,.33-.05,.46h-10.89c.05,.61,.2,1.15,.43,1.64,.23,.49,.54,.91,.91,1.26,.37,.36,.8,.63,1.27,.82,.48,.19,.97,.29,1.5,.29,.38,0,.76-.05,1.13-.14,.37-.09,.71-.23,1.03-.42,.31-.18,.59-.4,.83-.66,.24-.26,.43-.55,.57-.86l2.44,.7c-.47,1.02-1.24,1.86-2.33,2.51-1.08,.65-2.34,.97-3.78,.97Zm4.13-8.09c-.05-.57-.19-1.1-.43-1.59s-.53-.9-.9-1.24c-.36-.34-.79-.6-1.27-.79-.49-.19-1-.29-1.53-.29s-1.04,.09-1.52,.29c-.48,.19-.9,.46-1.26,.79-.36,.34-.66,.75-.88,1.24s-.36,1.01-.42,1.59h8.22Z"/><rect class="cls-1" x="309.73" y="267.25" width="2.37" height="3.33"/></g></g></g></svg>