<?xml version="1.0" encoding="UTF-8"?><svg id="b" xmlns="http://www.w3.org/2000/svg" viewBox="0 0 122.0813 10.7934"><g id="c"><g><polygon points="51.2601 9.3484 0 9.3484 1.1598 0 52.42 0 51.2601 9.3484" style="fill:#e2050d;"/><g><polygon points="2.2944 2.8878 2.5171 1.6816 4.7441 1.6816 3.575 8.2696 2.2387 8.2696 3.1851 2.8878 2.2944 2.8878" style="fill:#fff;"/><polygon points="5.6533 2.8878 5.876 1.6816 8.103 1.6816 6.9339 8.2696 5.5976 8.2696 6.544 2.8878 5.6533 2.8878" style="fill:#fff;"/><path d="M15.5814,3.5885c.3836,.3618,.5755,.8489,.5755,1.4613,0,.198-.0156,.3743-.0464,.5289-.0371,.1856-.0776,.3465-.1206,.4825h-3.7581c-.0061,.0435-.0093,.1052-.0093,.1856,0,.3218,.0942,.574,.2832,.7564,.1885,.1824,.4375,.2737,.7469,.2737,.2598,0,.4839-.0571,.6727-.1716,.1885-.1145,.3418-.2644,.4593-.45h1.401c-.2288,.4949-.5831,.9014-1.0623,1.2201-.4795,.3186-1.0223,.4778-1.6283,.4778-.6558,0-1.1817-.1856-1.5775-.5567s-.5938-.8753-.5938-1.5126c0-.1856,.0193-.3803,.0557-.5845,.0947-.5314,.283-.9989,.5706-1.401s.6448-.7112,1.0719-.9278c.4268-.2166,.8936-.325,1.401-.325,.6556,0,1.1751,.1812,1.5587,.543Zm-.7422,1.4706c0-.2969-.096-.5289-.2876-.6959s-.4424-.2505-.7515-.2505c-.3279,0-.6216,.1035-.8814,.3108s-.4424,.4903-.5477,.8489h2.4497c.0125-.0989,.0186-.1699,.0186-.2134Z" style="fill:#fff;"/><path d="M19.4135,3.3148c.2969-.1731,.6185-.26,.9649-.26l-.2412,1.3641h-.3433c-.3836,0-.6912,.0835-.9232,.2505s-.4007,.4517-.5057,.8536l-.4827,2.7466h-1.3082l.9093-5.1403h1.3085l-.1577,.9093c.2227-.3094,.4825-.5506,.7794-.7237Z" style="fill:#fff;"/><path d="M22.5404,3.1292l-.9095,5.1403h-1.3082l.9093-5.1403h1.3085Zm-1.0301-.7889c-.1238-.1174-.1856-.2659-.1856-.4453,0-.2473,.0942-.4593,.283-.6355s.4097-.2644,.6636-.2644c.1978,0,.3587,.0588,.4825,.1763,.1235,.1177,.1856,.2661,.1856,.4453,0,.2476-.0928,.4593-.2783,.6355s-.4053,.2644-.6587,.2644c-.2044,0-.3682-.0586-.492-.1763Z" style="fill:#fff;"/><path d="M27.9269,3.4865c.3062,.2876,.4593,.6973,.4593,1.2293,0,.198-.0156,.3775-.0464,.5381l-.5384,3.0156h-1.2897l.501-2.8393c.0186-.1113,.0278-.2195,.0278-.3247,0-.3091-.082-.5442-.2459-.7051s-.3975-.2412-.7005-.2412c-.3465,0-.6419,.1035-.8861,.3108-.2444,.2073-.4068,.5057-.4871,.8953l-.5105,2.9043h-1.3082l.9093-5.1403h1.3085l-.1113,.6309c.2102-.2166,.4607-.3882,.7515-.5149,.2906-.1267,.5938-.1904,.9093-.1904,.532,0,.951,.1441,1.2574,.4317Z" style="fill:#fff;"/><path d="M33.7677,3.5885c.3836,.3618,.5755,.8489,.5755,1.4613,0,.198-.0156,.3743-.0464,.5289-.0371,.1856-.0776,.3465-.1206,.4825h-3.7581c-.0061,.0435-.0093,.1052-.0093,.1856,0,.3218,.0942,.574,.2832,.7564,.1885,.1824,.4375,.2737,.7469,.2737,.2598,0,.4839-.0571,.6727-.1716,.1885-.1145,.3418-.2644,.4593-.45h1.401c-.2288,.4949-.5831,.9014-1.0623,1.2201-.4795,.3186-1.0223,.4778-1.6283,.4778-.6558,0-1.1817-.1856-1.5775-.5567s-.5938-.8753-.5938-1.5126c0-.1856,.0193-.3803,.0557-.5845,.0947-.5314,.283-.9989,.5706-1.401s.6448-.7112,1.0719-.9278c.4268-.2166,.8936-.325,1.401-.325,.6556,0,1.1751,.1812,1.5587,.543Zm-.7422,1.4706c0-.2969-.096-.5289-.2876-.6959s-.4424-.2505-.7515-.2505c-.3279,0-.6216,.1035-.8814,.3108s-.4424,.4903-.5477,.8489h2.4497c.0125-.0989,.0186-.1699,.0186-.2134Z" style="fill:#fff;"/><polygon points="37.1173 7.0727 39.1121 3.1292 40.5133 3.1292 37.7018 8.2696 36.1057 8.2696 35.1223 3.1292 36.5142 3.1292 37.1173 7.0727" style="fill:#fff;"/><path d="M41.0002,4.2983c.2752-.4021,.6109-.7112,1.0069-.9278,.3958-.2166,.8133-.325,1.2525-.325,.3833,0,.7066,.0776,.9696,.2322s.4561,.3494,.5799,.5845l.1299-.733h1.3085l-.9093,5.1403h-1.3085l.1392-.7515c-.2041,.2412-.4685,.4407-.7933,.5984s-.679,.2366-1.0623,.2366c-.3775,0-.7115-.085-1.0023-.2551s-.5164-.4114-.6773-.7237-.2412-.6758-.2412-1.0904c0-.1917,.0183-.3927,.0557-.6031,.0922-.5197,.2769-.9803,.552-1.3824Zm3.5213,1.0484c0-.3648-.1067-.6495-.3201-.8536s-.481-.3062-.8026-.3062c-.2412,0-.4749,.0588-.7005,.1763-.2258,.1174-.4222,.2891-.5892,.5149s-.282,.4929-.3343,.8026c-.0198,.1175-.0278,.229-.0278,.334,0,.3711,.1052,.6636,.3157,.877,.2102,.2134,.4761,.3201,.7979,.3201,.2412,0,.4761-.0603,.7051-.1809,.2288-.1206,.4253-.2954,.5892-.5245,.1638-.2288,.2737-.4978,.3294-.8072,.0247-.1607,.0371-.2783,.0371-.3526Z" style="fill:#fff;"/><path d="M48.4095,6.683c-.0063,.0371-.0093,.0867-.0093,.1484,0,.1238,.0354,.2119,.1067,.2644,.0711,.0525,.1902,.0789,.3572,.0789h.6124l-.1948,1.0948h-.8258c-.9281,0-1.392-.3865-1.392-1.1598,0-.1484,.0125-.2937,.0371-.4361l.4361-2.4775h-.6124l.1856-1.067h.6216l.2227-1.2713h1.3085l-.2227,1.2713h1.1412l-.1856,1.067h-1.1505l-.4361,2.4868Z" style="fill:#fff;"/><path d="M53.7119,4.3261c.2815-.3958,.6263-.7037,1.0348-.9232,.4082-.2195,.838-.3296,1.2897-.3296,.334,0,.6495,.073,.9464,.2183s.5227,.3387,.6773,.5799l.4363-2.4682h1.067l-1.2157,6.8663h-1.067l.1392-.7701c-.2227,.2537-.4996,.4593-.8304,.617-.3311,.1577-.6944,.2366-1.0902,.2366-.3897,0-.7364-.0864-1.0394-.2598-.303-.1731-.5396-.419-.7098-.7376s-.2551-.6851-.2551-1.0997c0-.1856,.0197-.3738,.0557-.566,.0959-.5127,.2798-.9679,.5613-1.3639Zm3.6605,1.002c0-.4143-.1221-.7408-.3665-.9788s-.5489-.3572-.9139-.3572c-.2722,0-.5381,.0664-.7979,.1995s-.4856,.3279-.6773,.5845c-.1919,.2569-.313,.5624-.3806,.9139-.0227,.1181-.0371,.2444-.0371,.3804,0,.4209,.1221,.7532,.3667,.9976,.2442,.2444,.5489,.3665,.9139,.3665,.272,0,.5381-.0681,.7979-.2041s.4856-.3355,.6773-.5984,.3127-.5719,.3804-.9234c.0227-.1178,.0371-.2442,.0371-.3804Z" style="fill:#242424;"/><path d="M61.2973,3.1571l-.9002,5.1125h-1.0577l.9-5.1125h1.0579Zm-.8074-.8353c-.1052-.105-.1577-.2381-.1577-.399,0-.2163,.082-.4036,.2459-.5613s.3511-.2366,.5616-.2366c.167,0,.3015,.0525,.4036,.1577s.1531,.2383,.1531,.399c0,.2166-.0806,.4036-.2412,.5613-.1609,.1577-.3465,.2366-.5567,.2366-.1672,0-.3032-.0525-.4085-.1577Z" style="fill:#242424;"/><path d="M65.7835,3.3102c.2815,.1577,.4839,.354,.6077,.5892l.1299-.7422h1.0672l-.9095,5.196c-.0867,.47-.2598,.8892-.5196,1.2572s-.597,.6573-1.0113,.8677c-.4146,.2102-.8814,.3155-1.401,.3155-.4517,0-.8477-.0728-1.1878-.218-.3401-.1455-.597-.3543-.7701-.6265-.1734-.2722-.2473-.5938-.2227-.9649h1.0484c.031,.2659,.1638,.481,.399,.6448s.5352,.2459,.9002,.2459c.4268,0,.7947-.1299,1.1041-.3897s.5071-.637,.5938-1.1319l.1484-.8536c-.2227,.2412-.501,.4439-.835,.6077s-.6959,.2459-1.0855,.2459-.7364-.0864-1.0394-.2598c-.303-.1731-.5396-.419-.7098-.7376s-.2551-.6851-.2551-1.0997c0-.1856,.0197-.3738,.0557-.566,.0959-.5127,.2798-.9679,.5613-1.3639,.2815-.3958,.6263-.7037,1.0348-.9232,.4082-.2195,.835-.3296,1.2804-.3296,.3958,0,.7344,.0791,1.016,.2368Zm.3294,2.018c0-.4143-.1221-.7408-.3665-.9788s-.5489-.3572-.9139-.3572c-.2722,0-.5381,.0664-.7979,.1995s-.4856,.3279-.6773,.5845c-.1919,.2569-.313,.5624-.3806,.9139-.0227,.1181-.0371,.2444-.0371,.3804,0,.4209,.1221,.7532,.3667,.9976,.2442,.2444,.5489,.3665,.9139,.3665,.272,0,.5381-.0681,.7979-.2041s.4856-.3355,.6773-.5984,.3127-.5719,.3804-.9234c.0227-.1178,.0371-.2442,.0371-.3804Z" style="fill:#242424;"/><path d="M70.0377,3.1571l-.9002,5.1125h-1.0577l.9-5.1125h1.0579Zm-.8074-.8353c-.1052-.105-.1577-.2381-.1577-.399,0-.2163,.082-.4036,.2459-.5613s.3511-.2366,.5616-.2366c.167,0,.3015,.0525,.4036,.1577s.1531,.2383,.1531,.399c0,.2166-.0806,.4036-.2412,.5613-.1609,.1577-.3465,.2366-.5567,.2366-.1672,0-.3032-.0525-.4085-.1577Z" style="fill:#242424;"/><polygon points="72.6729 7.3232 74.8533 3.1571 75.9947 3.1571 73.1461 8.2696 71.8655 8.2696 70.8264 3.1571 71.9583 3.1571 72.6729 7.3232" style="fill:#242424;"/><path d="M76.5373,4.3261c.2815-.3958,.6263-.7037,1.0348-.9232,.4082-.2195,.835-.3296,1.2804-.3296,.4021,0,.7391,.0791,1.0113,.2368s.4764,.354,.6124,.5892l.1299-.7422h1.0672l-.9002,5.1125h-1.067l.1392-.7608c-.2227,.2412-.5025,.4422-.8397,.6031-.3372,.1607-.7037,.2412-1.0995,.2412-.3838,0-.7254-.0864-1.0255-.2598-.3001-.1731-.535-.419-.7051-.7376s-.2551-.6851-.2551-1.0997c0-.1856,.0197-.3738,.0557-.566,.0959-.5127,.2798-.9679,.5613-1.3639Zm3.6605,1.002c0-.4143-.1221-.7408-.3665-.9788s-.5489-.3572-.9139-.3572c-.2722,0-.5381,.0664-.7979,.1995s-.4856,.3279-.6773,.5845c-.1919,.2569-.313,.5624-.3806,.9139-.0227,.1181-.0371,.2444-.0371,.3804,0,.4209,.1221,.7532,.3667,.9976,.2442,.2444,.5489,.3665,.9139,.3665,.272,0,.5381-.0681,.7979-.2041s.4856-.3355,.6773-.5984,.3127-.5719,.3804-.9234c.0227-.1178,.0371-.2442,.0371-.3804Zm-1.9902-2.9414c-.0899-.0864-.1345-.1948-.1345-.3247,0-.1731,.0664-.3262,.1995-.4593,.1328-.1328,.2891-.1995,.4685-.1995,.136,0,.2473,.0435,.334,.1299,.0864,.0867,.1299,.1948,.1299,.3247,0,.1795-.0667,.334-.1995,.4639-.1331,.1299-.2862,.1948-.4593,.1948-.1362,0-.249-.0432-.3387-.1299Zm1.5958,0c-.0896-.0864-.1345-.1948-.1345-.3247,0-.1731,.0664-.3262,.1995-.4593,.1331-.1328,.2891-.1995,.4685-.1995,.136,0,.2473,.0435,.334,.1299,.0867,.0867,.1299,.1948,.1299,.3247,0,.1795-.0664,.334-.1995,.4639s-.2862,.1948-.4593,.1948c-.136,0-.249-.0432-.3387-.1299Z" style="fill:#242424;"/><polygon points="84.4381 1.4033 83.2224 8.2696 82.1647 8.2696 83.3801 1.4033 84.4381 1.4033" style="fill:#242424;"/><path d="M85.4958,9.2716c-.0867,.501-.2752,.8643-.566,1.0904-.2908,.2256-.6741,.3387-1.1505,.3387h-.5474l.1577-.8909h.3618c.2166,0,.3772-.0418,.4825-.1253s.1731-.2212,.2041-.4129l1.0763-6.1145h1.0579l-1.0765,6.1145Zm.2691-6.9498c-.1052-.105-.1577-.2381-.1577-.399,0-.2163,.082-.4036,.2459-.5613s.3511-.2366,.5616-.2366c.167,0,.3015,.0525,.4036,.1577s.1531,.2383,.1531,.399c0,.2166-.0806,.4036-.2412,.5613-.1609,.1577-.3465,.2366-.5567,.2366-.1672,0-.3032-.0525-.4085-.1577Z" style="fill:#242424;"/><path d="M87.7272,4.3261c.2815-.3958,.6263-.7037,1.0348-.9232,.4082-.2195,.835-.3296,1.2804-.3296,.4021,0,.7391,.0791,1.0113,.2368s.4764,.354,.6124,.5892l.1299-.7422h1.0672l-.9002,5.1125h-1.067l.1392-.7608c-.2227,.2412-.5025,.4422-.8397,.6031-.3372,.1607-.7037,.2412-1.0995,.2412-.3838,0-.7254-.0864-1.0255-.2598-.3001-.1731-.535-.419-.7051-.7376s-.2551-.6851-.2551-1.0997c0-.1856,.0197-.3738,.0557-.566,.0959-.5127,.2798-.9679,.5613-1.3639Zm3.6605,1.002c0-.4143-.1221-.7408-.3665-.9788s-.5489-.3572-.9139-.3572c-.2722,0-.5381,.0664-.7979,.1995s-.4856,.3279-.6773,.5845c-.1919,.2569-.313,.5624-.3806,.9139-.0227,.1181-.0371,.2444-.0371,.3804,0,.4209,.1221,.7532,.3667,.9976,.2442,.2444,.5489,.3665,.9139,.3665,.272,0,.5381-.0681,.7979-.2041s.4856-.3355,.6773-.5984,.3127-.5719,.3804-.9234c.0227-.1178,.0371-.2442,.0371-.3804Z" style="fill:#242424;"/><path d="M94.0182,4.3261c.2815-.3958,.6263-.7037,1.0348-.9232,.4082-.2195,.835-.3296,1.2804-.3296,.4021,0,.7391,.0791,1.0113,.2368s.4764,.354,.6124,.5892l.1299-.7422h1.0672l-.9002,5.1125h-1.067l.1392-.7608c-.2227,.2412-.5025,.4422-.8397,.6031-.3372,.1607-.7037,.2412-1.0995,.2412-.3838,0-.7254-.0864-1.0255-.2598-.3001-.1731-.535-.419-.7051-.7376s-.2551-.6851-.2551-1.0997c0-.1856,.0197-.3738,.0557-.566,.0959-.5127,.2798-.9679,.5613-1.3639Zm3.6605,1.002c0-.4143-.1221-.7408-.3665-.9788s-.5489-.3572-.9139-.3572c-.2722,0-.5381,.0664-.7979,.1995s-.4856,.3279-.6773,.5845c-.1919,.2569-.313,.5624-.3806,.9139-.0227,.1181-.0371,.2444-.0371,.3804,0,.4209,.1221,.7532,.3667,.9976,.2442,.2444,.5489,.3665,.9139,.3665,.272,0,.5381-.0681,.7979-.2041s.4856-.3355,.6773-.5984,.3127-.5719,.3804-.9234c.0227-.1178,.0371-.2442,.0371-.3804Z" style="fill:#242424;"/><path d="M104.4287,3.505c.3186,.2876,.4781,.7005,.4781,1.2386,0,.1362-.0156,.3062-.0464,.5103l-.5384,3.0156h-1.0484l.5103-2.8579c.0247-.1731,.0371-.2969,.0371-.3711,0-.3401-.0942-.5999-.283-.7794s-.45-.2691-.784-.2691c-.4021,0-.7408,.1221-1.016,.3665-.2754,.2444-.45,.5955-.5242,1.0531v-.0278l-.5105,2.8857h-1.0577l.9-5.1125h1.0579l-.1021,.5938c.2102-.2102,.4593-.3758,.7469-.4964s.586-.1812,.8953-.1812c.5381,0,.9664,.1441,1.285,.4317Z" style="fill:#242424;"/><path d="M110.4504,3.505c.3186,.2876,.4781,.7005,.4781,1.2386,0,.1362-.0156,.3062-.0464,.5103l-.5384,3.0156h-1.0484l.5103-2.8579c.0247-.1731,.0371-.2969,.0371-.3711,0-.3401-.0942-.5999-.283-.7794s-.45-.2691-.784-.2691c-.4021,0-.7408,.1221-1.016,.3665-.2754,.2444-.45,.5955-.5242,1.0531v-.0278l-.5105,2.8857h-1.0577l.9-5.1125h1.0579l-.1021,.5938c.2102-.2102,.4593-.3758,.7469-.4964s.586-.1812,.8953-.1812c.5381,0,.9664,.1441,1.285,.4317Z" style="fill:#242424;"/><path d="M116.3333,3.6117c.3806,.3587,.5708,.8411,.5708,1.4474,0,.1423-.0156,.3125-.0464,.5103-.0249,.1362-.0684,.3032-.1299,.501h-3.9066c-.0061,.0435-.0093,.1084-.0093,.1948,0,.3653,.1128,.6558,.3387,.8724s.5213,.3247,.8863,.3247c.5752,0,1.0174-.2381,1.3268-.7144h1.1412c-.2351,.47-.5813,.8551-1.0391,1.1551s-.9867,.45-1.5866,.45c-.4268,0-.8013-.0835-1.1229-.2505s-.5721-.4068-.7515-.7191-.2691-.6788-.2691-1.0997c0-.1792,.0191-.371,.0557-.5752,.0941-.5254,.2815-.9881,.566-1.3871s.6387-.7066,1.0626-.9232c.4236-.2166,.8861-.325,1.3871-.325,.637,0,1.1458,.1797,1.5262,.5384Zm-.5149,1.4567c0-.3401-.1128-.6092-.3387-.8072s-.5181-.2969-.8768-.2969c-.3775,0-.7176,.1206-1.0206,.3618-.3032,.2412-.5105,.5691-.6219,.9835h2.8393c.0125-.1113,.0186-.1917,.0186-.2412Z" style="fill:#242424;"/><path d="M118.8986,6.85c-.0125,.0867-.0186,.1423-.0186,.167,0,.1299,.0403,.2241,.1209,.283,.0801,.0588,.2134,.0881,.399,.0881h.6495l-.1577,.8814h-.835c-.4085,0-.7208-.0818-.9373-.2459-.2166-.1638-.3247-.4253-.3247-.784,0-.136,.0125-.2659,.0371-.3897l.501-2.8301h-.6031l.1484-.8629h.6124l.2227-1.2713h1.0672l-.2227,1.2713h1.234l-.1484,.8629h-1.2433l-.5013,2.8301Z" style="fill:#242424;"/><path d="M120.8751,8.1768c-.1052-.1052-.1577-.2381-.1577-.399,0-.2166,.082-.4036,.2459-.5613s.3511-.2366,.5613-.2366c.167,0,.3015,.0525,.4036,.1577s.1531,.2381,.1531,.399c0,.2166-.0803,.4036-.2412,.5613s-.3465,.2366-.5567,.2366c-.167,0-.303-.0527-.4082-.1577Z" style="fill:#242424;"/></g></g></g></svg>