<?xml version="1.0" encoding="UTF-8"?><svg id="b" xmlns="http://www.w3.org/2000/svg" viewBox="0 0 105.9852 19.6808"><g id="c"><g><polygon points="76.8573 18.5793 45.0203 18.5793 46.0453 10.3176 77.8824 10.3176 76.8573 18.5793" style="fill:#e2050d;"/><g><path d="M4.3422,4.0179c-.1834,.2573-.4388,.4663-.7667,.6275-.3282,.1611-.7271,.2417-1.1974,.2417H1.3448l-.4099,2.3127H0L1.0086,1.5006h1.9682c.574,0,1.0086,.127,1.3038,.3814s.4429,.5865,.4429,.9962c0,.0713-.0112,.1777-.033,.3199-.0491,.2901-.1653,.563-.3484,.8199Zm-.9923-.1148c.2051-.169,.3269-.4052,.3814-.7051,.0149-.0823,.0244-.1611,.0244-.2378,0-.2295-.0752-.4087-.2254-.5372-.1504-.1284-.3787-.1924-.6846-.1924H1.8124l-.3362,1.9269h1.0333c.3553,0,.6353-.0845,.8404-.2544Z" style="fill:#242424;"/><path d="M7.1302,2.8371c.2542-.1528,.5369-.2295,.8487-.2295l-.1724,.9679h-.2378c-.3606,0-.6504,.0899-.8692,.2705-.2185,.1802-.3719,.4917-.459,.9346l-.4265,2.4191h-.9349l.7955-4.5184h.9349l-.1394,.7955c.1858-.273,.4058-.4864,.6602-.6397Z" style="fill:#242424;"/><path d="M8.9956,7.0357c-.2901-.1582-.5154-.3824-.6766-.6724-.1614-.2896-.242-.6202-.242-.9923,0-.5083,.1189-.9727,.3567-1.3937s.5657-.7545,.984-1.0006,.8843-.3692,1.3981-.3692c.3826,0,.7217,.0806,1.0169,.2422,.2952,.1611,.5262,.3853,.6929,.6724,.1668,.2866,.25,.6187,.25,.9962,0,.5083-.1231,.9732-.3689,1.3942-.2461,.4209-.5796,.753-1.0003,.9962-.4212,.2432-.8885,.3648-1.4025,.3648-.3826,0-.7188-.0791-1.0084-.2378Zm1.9801-.816c.2598-.1773,.4634-.4126,.6109-.7051,.1477-.2925,.2215-.6055,.2215-.939,0-.377-.1065-.668-.3199-.8731-.2132-.2051-.481-.3076-.8035-.3076-.3172,0-.5999,.0889-.8487,.2666s-.4429,.4156-.5823,.7134-.209,.6163-.209,.9552c0,.3662,.0996,.6509,.2993,.8531,.1995,.2022,.4578,.3032,.775,.3032,.3115,0,.5972-.0889,.8568-.2666Z" style="fill:#242424;"/><path d="M14.2272,7.0357c-.2901-.1582-.5154-.3824-.6766-.6724-.1614-.2896-.242-.6202-.242-.9923,0-.5083,.1189-.9727,.3567-1.3937s.5657-.7545,.984-1.0006,.8843-.3692,1.3981-.3692c.3826,0,.7217,.0806,1.0169,.2422,.2952,.1611,.5262,.3853,.6929,.6724,.1668,.2866,.25,.6187,.25,.9962,0,.5083-.1231,.9732-.3689,1.3942-.2461,.4209-.5796,.753-1.0003,.9962-.4212,.2432-.8885,.3648-1.4025,.3648-.3826,0-.7188-.0791-1.0084-.2378Zm1.9801-.816c.2598-.1773,.4634-.4126,.6109-.7051,.1477-.2925,.2215-.6055,.2215-.939,0-.377-.1065-.668-.3199-.8731-.2132-.2051-.481-.3076-.8035-.3076-.3172,0-.5999,.0889-.8487,.2666s-.4429,.4156-.5823,.7134-.209,.6163-.209,.9552c0,.3662,.0996,.6509,.2993,.8531,.1995,.2022,.4578,.3032,.775,.3032,.3115,0,.5972-.0889,.8568-.2666Z" style="fill:#242424;"/><polygon points="20.3855 6.3633 22.3124 2.6814 23.321 2.6814 20.8035 7.1998 19.672 7.1998 18.7535 2.6814 19.7541 2.6814 20.3855 6.3633" style="fill:#242424;"/><path d="M24.9444,2.6814l-.7955,4.5184h-.9349l.7955-4.5184h.9349Zm-.7134-.7379c-.093-.0928-.1394-.2105-.1394-.3526,0-.1914,.0725-.357,.2173-.4961,.1448-.1397,.3103-.209,.4961-.209,.1477,0,.2666,.0464,.3567,.1392,.0901,.0933,.1353,.2105,.1353,.3526,0,.1914-.0711,.357-.2132,.4961-.1423,.1397-.3062,.209-.492,.209-.1477,0-.2681-.0464-.3609-.1392Z" style="fill:#242424;"/><path d="M29.1921,6.9537c-.3662-.2022-.6507-.4864-.8529-.8526s-.3032-.7818-.3032-1.2467c0-.6504,.146-1.2364,.4385-1.7589,.2925-.522,.6971-.9307,1.2137-1.2257,.5166-.2954,1.0948-.4429,1.7343-.4429,.4866,0,.9129,.1011,1.2792,.3032,.3662,.2027,.6507,.4854,.8529,.8487,.2022,.3638,.3035,.7779,.3035,1.2423,0,.6509-.1463,1.2384-.4388,1.7633s-.6971,.9346-1.2135,1.2301c-.5166,.2949-1.0977,.4429-1.7426,.4429-.4812,0-.9049-.1011-1.2711-.3037Zm2.5954-.8853c.347-.23,.6177-.5372,.8118-.9229,.1939-.3853,.291-.8048,.291-1.2584,0-.4976-.1409-.8897-.4224-1.1769s-.6736-.4307-1.1766-.4307c-.4483,0-.846,.1138-1.1932,.3404-.3472,.2271-.6163,.5318-.8077,.9146-.1914,.3824-.2869,.8033-.2869,1.2628,0,.4976,.1406,.8912,.4222,1.1808s.671,.4346,1.1686,.4346c.4483,0,.846-.1148,1.1932-.3443ZM30.6065,.2417c.1941-.1611,.4143-.2417,.6602-.2417,.1038,0,.1887,.0151,.2542,.0449,.0657,.0303,.1531,.0811,.2625,.1519,.0711,.0547,.1326,.0957,.1846,.1231,.0518,.0273,.1133,.041,.1843,.041,.093,0,.1777-.0288,.2542-.0859,.0767-.0576,.1314-.1436,.1641-.2583h.5249c-.0984,.3169-.2449,.5562-.4388,.7173-.1941,.1611-.4141,.2417-.6602,.2417-.1038,0-.1914-.0161-.2625-.0488s-.1558-.085-.2542-.1558c-.082-.0601-.1475-.1025-.1968-.1275-.0491-.0244-.1065-.0366-.1721-.0366-.093,0-.1751,.0298-.2461,.0899-.0711,.0606-.1257,.148-.1638,.2627h-.5249c.093-.3169,.2363-.5562,.4305-.7178Z" style="fill:#242424;"/><path d="M38.5073,2.989c.2732,.2544,.4099,.6163,.4099,1.0865,0,.126-.0137,.2788-.041,.459l-.4756,2.6653h-.9266l.451-2.5256c.022-.1528,.033-.2622,.033-.3282,0-.3003-.0835-.5303-.2503-.6885-.1668-.1587-.3975-.2378-.6929-.2378-.3553,0-.6546,.1079-.8978,.3238-.2434,.2158-.3977,.5264-.4634,.9307v-.0166l-.451,2.5422h-.9349l1.0743-6.0684h.9349l-.3692,2.0749c.1914-.1914,.4182-.3389,.6807-.4429,.2625-.1035,.5384-.1558,.8282-.1558,.4537,0,.8172,.127,1.0907,.3814Z" style="fill:#242424;"/><path d="M40.9018,5.9453c-.011,.0767-.0164,.1255-.0164,.1475,0,.1148,.0354,.1983,.1067,.25,.0708,.0523,.1885,.0781,.3526,.0781h.574l-.1394,.7789h-.7381c-.3609,0-.637-.0723-.8282-.2173-.1914-.1445-.2871-.376-.2871-.6929,0-.1201,.011-.2349,.033-.3443l.4427-2.5012h-.533l.1314-.7628h.5411l.1968-1.1231h.9432l-.1968,1.1231h1.0904l-.1311,.7628h-1.0987l-.4429,2.5012Z" style="fill:#242424;"/><path d="M47.5273,2.6814l-.7955,4.5184h-.9346l.0901-.5332c-.1804,.1861-.3977,.3325-.6519,.439s-.5152,.1597-.783,.1597c-.4756,0-.8558-.1284-1.14-.3853s-.4263-.6202-.4263-1.0904c0-.126,.0137-.2764,.041-.4512l.4673-2.657h.9266l-.4427,2.5178c-.022,.1528-.033,.2622-.033,.3277,0,.3008,.0835,.5303,.2503,.689s.3977,.2378,.6929,.2378c.3443,0,.6368-.1025,.8773-.3076s.3992-.5015,.4756-.8897l.4512-2.5749h.9346Z" style="fill:#242424;"/><polygon points="49.9711 1.1314 48.8968 7.1998 47.9619 7.1998 49.0362 1.1314 49.9711 1.1314" style="fill:#242424;"/><path d="M54.231,3.0833c.3362,.3174,.5042,.7437,.5042,1.2794,0,.1255-.0137,.2759-.041,.4507-.0217,.1206-.0601,.2681-.1148,.4429h-3.4522c-.0056,.0386-.0083,.0957-.0083,.1724,0,.3223,.0999,.5796,.2993,.7706,.1995,.1914,.4605,.2871,.7833,.2871,.5083,0,.899-.2105,1.1725-.6314h1.0086c-.2078,.4156-.514,.7559-.9183,1.0211-.4048,.2652-.8721,.3975-1.4022,.3975-.3772,0-.7081-.0737-.9923-.2212-.2844-.148-.5059-.3594-.6644-.6358-.1585-.2759-.2378-.5997-.2378-.9718,0-.1582,.017-.3276,.0493-.5083,.083-.4642,.2486-.8731,.5003-1.2257,.2512-.3526,.5643-.6246,.9388-.816,.3743-.1914,.783-.2871,1.2259-.2871,.563,0,1.0128,.1587,1.349,.4756Zm-.4551,1.2877c0-.3008-.0999-.5386-.2993-.7134-.1997-.1753-.458-.2627-.775-.2627-.3335,0-.6341,.1069-.9019,.3199-.2678,.2134-.451,.503-.5494,.8692h2.5092c.0107-.0982,.0164-.1694,.0164-.2129Z" style="fill:#242424;"/><path d="M59.4255,2.989c.2732,.2544,.4099,.6163,.4099,1.0865,0,.126-.0137,.2788-.041,.459l-.4756,2.6653h-.9266l.451-2.5256c.022-.1528,.033-.2622,.033-.3282,0-.3003-.0835-.5303-.2503-.6885-.1668-.1587-.3975-.2378-.6929-.2378-.3553,0-.6546,.1079-.8978,.3238-.2434,.2158-.3977,.5264-.4634,.9307v-.0166l-.451,2.5422h-.9349l1.0743-6.0684h.9349l-.3692,2.0749c.1914-.1914,.4182-.3389,.6807-.4429,.2625-.1035,.5384-.1558,.8282-.1558,.4537,0,.8172,.127,1.0907,.3814Z" style="fill:#242424;"/><path d="M61.82,5.9453c-.011,.0767-.0164,.1255-.0164,.1475,0,.1148,.0354,.1983,.1067,.25,.0708,.0523,.1885,.0781,.3526,.0781h.574l-.1394,.7789h-.7381c-.3609,0-.637-.0723-.8282-.2173-.1914-.1445-.2871-.376-.2871-.6929,0-.1201,.011-.2349,.033-.3443l.4427-2.5012h-.533l.1314-.7628h.5411l.1968-1.1231h.9432l-.1968,1.1231h1.0904l-.1311,.7628h-1.0987l-.4429,2.5012Z" style="fill:#242424;"/><polygon points="68.3635 4.3544 70.3808 7.1998 69.159 7.1998 67.4039 4.6498 66.953 7.1998 66.0181 7.1998 67.0267 1.5006 67.9616 1.5006 67.5023 4.0999 70.1757 1.5006 71.3484 1.5006 68.3635 4.3544" style="fill:#242424;"/><path d="M72.9393,2.6814l-.7955,4.5184h-.9349l.7955-4.5184h.9349Zm-.7134-.7379c-.093-.0928-.1394-.2105-.1394-.3526,0-.1914,.0725-.357,.2173-.4961,.1448-.1397,.3103-.209,.4961-.209,.1477,0,.2666,.0464,.3567,.1392,.0901,.0933,.1353,.2105,.1353,.3526,0,.1914-.0711,.357-.2132,.4961-.1423,.1397-.3062,.209-.492,.209-.1477,0-.2681-.0464-.3609-.1392Z" style="fill:#242424;"/><path d="M75.6248,2.8371c.2542-.1528,.5369-.2295,.8487-.2295l-.1724,.9679h-.2378c-.3606,0-.6504,.0899-.8692,.2705-.2185,.1802-.3719,.4917-.459,.9346l-.4265,2.4191h-.9349l.7955-4.5184h.9349l-.1394,.7955c.1858-.273,.4058-.4864,.6602-.6397Z" style="fill:#242424;"/><path d="M77.3015,8.0856c-.0767,.4424-.2432,.7637-.5003,.9635-.2569,.1992-.5958,.2993-1.0167,.2993h-.4839l.1394-.7872h.3199c.1914,0,.3335-.0371,.4263-.1108,.093-.0737,.1531-.1958,.1804-.3648l.9512-5.4043h.9349l-.9512,5.4043Zm.2378-6.1421c-.093-.0928-.1394-.2105-.1394-.3526,0-.1914,.0725-.357,.2173-.4961,.1448-.1397,.3103-.209,.4961-.209,.1477,0,.2666,.0464,.3567,.1392,.0901,.0933,.1353,.2105,.1353,.3526,0,.1914-.0711,.357-.2132,.4961-.1423,.1397-.3062,.209-.492,.209-.1477,0-.2681-.0464-.3609-.1392Z" style="fill:#242424;"/><path d="M79.2736,3.7147c.2486-.3496,.5535-.6216,.9144-.816,.3606-.1939,.7379-.291,1.1314-.291,.3553,0,.6534,.0698,.8939,.209,.2405,.1397,.4209,.313,.5413,.521l.1148-.6563h.9429l-.7955,4.5184h-.9429l.1231-.6724c-.1968,.2134-.4441,.3911-.7422,.5332-.2979,.1421-.6219,.2129-.9715,.2129-.3391,0-.6412-.0767-.9063-.2295s-.4727-.3701-.6231-.6519-.2256-.6055-.2256-.9718c0-.1641,.0176-.3304,.0493-.5,.0847-.4532,.2473-.8555,.4961-1.2057Zm3.2349,.8858c0-.3662-.1079-.6548-.3238-.8653-.2161-.2105-.4854-.3155-.8079-.3155-.2405,0-.4756,.0586-.7051,.1763s-.4292,.2896-.5987,.5166c-.1694,.2266-.2764,.4971-.3362,.8077-.02,.1039-.0327,.2158-.0327,.336,0,.3721,.1079,.6656,.324,.8814,.2158,.2163,.4849,.3242,.8077,.3242,.2405,0,.4756-.0601,.7051-.1807,.2295-.1201,.4292-.2964,.5987-.5289s.2764-.5054,.3362-.816c.02-.1039,.0327-.2158,.0327-.336Z" style="fill:#242424;"/><path d="M85.0587,7.1139c-.2569-.1069-.459-.2569-.6067-.4512-.1475-.1939-.2215-.4165-.2215-.6685,0-.0435,.0054-.1035,.0164-.1802h.9102c-.0217,.208,.041,.3799,.1887,.5166,.1475,.1367,.3553,.2051,.6231,.2051,.2625,0,.4783-.0464,.648-.1397,.1692-.0928,.2542-.2295,.2542-.4097,0-.1533-.0698-.2759-.2092-.3692-.1394-.0928-.3621-.1968-.6683-.3115-.2898-.1148-.5247-.2212-.7051-.3199s-.3362-.2339-.4676-.4058c-.1311-.1724-.1968-.3868-.1968-.6436,0-.2627,.0752-.4937,.2256-.6929,.1504-.1997,.3609-.3555,.6314-.4678,.2705-.1118,.5809-.168,.9307-.168,.3169,0,.5999,.0532,.8487,.1602,.2488,.1065,.4429,.2569,.5823,.4507,.1394,.1944,.209,.417,.209,.6685,0,.0767-.0029,.1338-.0083,.1719h-.8856c.0217-.2129-.0396-.3853-.1843-.5162-.145-.1314-.3513-.1973-.6192-.1973-.2351,0-.4251,.0493-.5699,.148-.145,.0982-.2173,.2324-.2173,.4019s.0737,.3047,.2212,.4058c.1477,.1011,.3745,.2119,.6807,.3321,.2788,.1094,.5057,.2134,.6807,.3115,.1748,.0986,.325,.2295,.451,.3936,.1257,.1641,.1885,.3692,.1885,.6153,0,.2676-.0806,.5015-.242,.7007-.1611,.1997-.3841,.3526-.6683,.4595-.2842,.1065-.6067,.1597-.9676,.1597-.3115,0-.5958-.0532-.8529-.1597Z" style="fill:#242424;"/><path d="M89.9378,5.9453c-.011,.0767-.0164,.1255-.0164,.1475,0,.1148,.0354,.1983,.1067,.25,.0708,.0523,.1885,.0781,.3526,.0781h.574l-.1394,.7789h-.7381c-.3609,0-.637-.0723-.8282-.2173-.1914-.1445-.2871-.376-.2871-.6929,0-.1201,.011-.2349,.033-.3443l.4427-2.5012h-.533l.1314-.7628h.5411l.1968-1.1231h.9432l-.1968,1.1231h1.0904l-.1311,.7628h-1.0987l-.4429,2.5012Z" style="fill:#242424;"/><path d="M96.5636,2.6814l-.7955,4.5184h-.9346l.0901-.5332c-.1804,.1861-.3977,.3325-.6519,.439s-.5152,.1597-.783,.1597c-.4756,0-.8558-.1284-1.14-.3853s-.4263-.6202-.4263-1.0904c0-.126,.0137-.2764,.041-.4512l.4673-2.657h.9266l-.4427,2.5178c-.022,.1528-.033,.2622-.033,.3277,0,.3008,.0835,.5303,.2503,.689s.3977,.2378,.6929,.2378c.3443,0,.6368-.1025,.8773-.3076s.3992-.5015,.4756-.8897l.4512-2.5749h.9346Z" style="fill:#242424;"/><path d="M97.8097,7.1139c-.2569-.1069-.459-.2569-.6067-.4512-.1475-.1939-.2215-.4165-.2215-.6685,0-.0435,.0054-.1035,.0164-.1802h.9102c-.0217,.208,.041,.3799,.1887,.5166,.1475,.1367,.3553,.2051,.6231,.2051,.2625,0,.4783-.0464,.648-.1397,.1692-.0928,.2542-.2295,.2542-.4097,0-.1533-.0698-.2759-.2092-.3692-.1394-.0928-.3621-.1968-.6683-.3115-.2898-.1148-.5247-.2212-.7051-.3199s-.3362-.2339-.4676-.4058c-.1311-.1724-.1968-.3868-.1968-.6436,0-.2627,.0752-.4937,.2256-.6929,.1504-.1997,.3609-.3555,.6314-.4678,.2705-.1118,.5809-.168,.9307-.168,.3169,0,.5999,.0532,.8487,.1602,.2488,.1065,.4429,.2569,.5823,.4507,.1394,.1944,.209,.417,.209,.6685,0,.0767-.0029,.1338-.0083,.1719h-.8856c.0217-.2129-.0396-.3853-.1843-.5162-.145-.1314-.3513-.1973-.6192-.1973-.2351,0-.4251,.0493-.5699,.148-.145,.0982-.2173,.2324-.2173,.4019s.0737,.3047,.2212,.4058c.1477,.1011,.3745,.2119,.6807,.3321,.2788,.1094,.5057,.2134,.6807,.3115,.1748,.0986,.325,.2295,.451,.3936,.1257,.1641,.1885,.3692,.1885,.6153,0,.2676-.0806,.5015-.242,.7007-.1611,.1997-.3841,.3526-.6683,.4595-.2842,.1065-.6067,.1597-.9676,.1597-.3115,0-.5958-.0532-.8529-.1597Z" style="fill:#242424;"/><path d="M105.481,3.0833c.3362,.3174,.5042,.7437,.5042,1.2794,0,.1255-.0137,.2759-.041,.4507-.0217,.1206-.0601,.2681-.1148,.4429h-3.4522c-.0056,.0386-.0083,.0957-.0083,.1724,0,.3223,.0999,.5796,.2993,.7706,.1995,.1914,.4605,.2871,.7833,.2871,.5083,0,.899-.2105,1.1725-.6314h1.0086c-.2078,.4156-.514,.7559-.9183,1.0211-.4048,.2652-.8721,.3975-1.4022,.3975-.3772,0-.7081-.0737-.9923-.2212-.2844-.148-.5059-.3594-.6644-.6358-.1585-.2759-.2378-.5997-.2378-.9718,0-.1582,.017-.3276,.0493-.5083,.083-.4642,.2486-.8731,.5003-1.2257,.2512-.3526,.5643-.6246,.9388-.816,.3743-.1914,.783-.2871,1.2259-.2871,.563,0,1.0128,.1587,1.349,.4756Zm-.4551,1.2877c0-.3008-.0999-.5386-.2993-.7134-.1997-.1753-.458-.2627-.775-.2627-.3335,0-.6341,.1069-.9019,.3199-.2678,.2134-.451,.503-.5494,.8692h2.5092c.0107-.0982,.0164-.1694,.0164-.2129Z" style="fill:#242424;"/><path d="M.5865,13.965c.2486-.3496,.5535-.6216,.9144-.816,.3606-.1939,.7405-.291,1.1397-.291,.2952,0,.574,.0645,.8365,.1929,.2622,.1284,.4617,.2993,.5984,.5122l.3855-2.1813h.9429l-1.0743,6.0684h-.9429l.1231-.6807c-.1968,.2241-.4414,.4058-.7339,.5455-.2925,.1392-.6138,.209-.9635,.209-.3445,0-.6507-.0767-.9185-.2295s-.4768-.3701-.6272-.6519-.2256-.6055-.2256-.9718c0-.1641,.0176-.3304,.0493-.5,.0847-.4532,.2473-.8555,.4961-1.2057Zm3.2349,.8858c0-.3662-.1079-.6548-.3238-.8653-.2161-.2105-.4854-.3155-.8079-.3155-.2405,0-.4756,.0586-.7051,.1763s-.4292,.2896-.5987,.5166c-.1694,.2266-.2764,.4971-.3362,.8077-.02,.1039-.0327,.2158-.0327,.336,0,.3721,.1079,.6656,.324,.8814,.2158,.2163,.4849,.3242,.8077,.3242,.2405,0,.4756-.0601,.7051-.1807,.2295-.1201,.4292-.2964,.5987-.5289s.2764-.5054,.3362-.816c.02-.1039,.0327-.2158,.0327-.336Z" style="fill:#242424;"/><path d="M7.2901,12.9317l-.7955,4.5184h-.9349l.7955-4.5184h.9349Zm-.7134-.7379c-.093-.0928-.1394-.2105-.1394-.3526,0-.1914,.0725-.357,.2173-.4961,.1448-.1397,.3103-.209,.4961-.209,.1477,0,.2666,.0464,.3567,.1392,.0901,.0933,.1353,.2105,.1353,.3526,0,.1914-.0711,.357-.2132,.4961-.1423,.1397-.3062,.209-.492,.209-.1477,0-.2681-.0464-.3609-.1392Z" style="fill:#242424;"/><path d="M11.2548,13.067c.2486,.1397,.4278,.313,.5372,.521l.1148-.6563h.9429l-.8035,4.5922c-.0767,.4156-.2298,.7857-.4593,1.1114-.2295,.3247-.5276,.5806-.8939,.7667-.3662,.1856-.7789,.2788-1.2381,.2788-.3992,0-.7491-.0645-1.0496-.1929-.3008-.1284-.5276-.313-.6807-.5538-.1531-.2403-.2185-.5245-.1968-.8526h.9268c.0271,.2349,.1448,.4248,.3526,.5699,.2075,.145,.4727,.2173,.7952,.2173,.3772,0,.7024-.1148,.9759-.3443,.2732-.2295,.4483-.563,.5249-1.0006l.1311-.7545c-.1968,.2134-.4429,.3926-.7381,.5372-.2952,.145-.615,.2173-.9593,.2173-.3445,0-.6507-.0767-.9185-.2295s-.4768-.3701-.6272-.6519-.2256-.6055-.2256-.9718c0-.1641,.0176-.3304,.0493-.5,.0847-.4532,.2473-.8555,.4961-1.2057,.2486-.3496,.5535-.6216,.9144-.816,.3606-.1939,.7379-.291,1.1314-.291,.3499,0,.6492,.0698,.898,.209Zm.291,1.7838c0-.3662-.1079-.6548-.3238-.8653-.2161-.2105-.4854-.3155-.8079-.3155-.2405,0-.4756,.0586-.7051,.1763s-.4292,.2896-.5987,.5166c-.1694,.2266-.2764,.4971-.3362,.8077-.02,.1039-.0327,.2158-.0327,.336,0,.3721,.1079,.6656,.324,.8814,.2158,.2163,.4849,.3242,.8077,.3242,.2405,0,.4756-.0601,.7051-.1807,.2295-.1201,.4292-.2964,.5987-.5289s.2764-.5054,.3362-.816c.02-.1039,.0327-.2158,.0327-.336Z" style="fill:#242424;"/><path d="M15.0144,12.9317l-.7955,4.5184h-.9349l.7955-4.5184h.9349Zm-.7134-.7379c-.093-.0928-.1394-.2105-.1394-.3526,0-.1914,.0725-.357,.2173-.4961,.1448-.1397,.3103-.209,.4961-.209,.1477,0,.2666,.0464,.3567,.1392,.0901,.0933,.1353,.2105,.1353,.3526,0,.1914-.0711,.357-.2132,.4961-.1423,.1397-.3062,.209-.492,.209-.1477,0-.2681-.0464-.3609-.1392Z" style="fill:#242424;"/><path d="M17.8066,13.0714c.2979-.1421,.6192-.2134,.9635-.2134,.3445,0,.6507,.0737,.9185,.2217,.2678,.1475,.4756,.3579,.6231,.6314,.1477,.2735,.2215,.5928,.2215,.9591,0,.1587-.0169,.3256-.0491,.5005-.0834,.4534-.2476,.8594-.4961,1.2174-.2488,.3584-.5523,.6373-.9102,.8365-.3582,.1997-.7339,.2993-1.1275,.2993-.3445,0-.6382-.0698-.8814-.209-.2434-.1397-.4334-.313-.5701-.5206l-.492,2.8044h-.9346l1.1725-6.667h.9349l-.1148,.6641c.1968-.2075,.4441-.3824,.742-.5245Zm1.7589,1.7628c0-.3662-.1079-.6519-.3238-.857-.2161-.2046-.4881-.3072-.816-.3072-.2351,0-.4688,.0601-.7012,.1802s-.4331,.2954-.6026,.5249-.2763,.501-.3362,.8116c-.0201,.1044-.0327,.2163-.0327,.3365,0,.3662,.1077,.6558,.3238,.8692,.2158,.2129,.4851,.3199,.8077,.3199,.2405,0,.4768-.0615,.7093-.1846s.4334-.3023,.6028-.5372,.2765-.5093,.3362-.8199c.0201-.1043,.0327-.2158,.0327-.3365Z" style="fill:#242424;"/><path d="M21.595,13.965c.2486-.3496,.5535-.6216,.9144-.816,.3606-.1939,.7379-.291,1.1314-.291,.3553,0,.6534,.0698,.8939,.209,.2405,.1397,.4209,.313,.5413,.521l.1148-.6563h.9429l-.7955,4.5184h-.9429l.1231-.6724c-.1968,.2134-.4441,.3911-.7422,.5332-.2979,.1421-.6219,.2129-.9715,.2129-.3391,0-.6412-.0767-.9063-.2295s-.4727-.3701-.6231-.6519-.2256-.6055-.2256-.9718c0-.1641,.0176-.3304,.0493-.5,.0847-.4532,.2473-.8555,.4961-1.2057Zm3.2349,.8858c0-.3662-.1079-.6548-.3238-.8653-.2161-.2105-.4854-.3155-.8079-.3155-.2405,0-.4756,.0586-.7051,.1763s-.4292,.2896-.5987,.5166c-.1694,.2266-.2764,.4971-.3362,.8077-.02,.1039-.0327,.2158-.0327,.336,0,.3721,.1079,.6656,.324,.8814,.2158,.2163,.4849,.3242,.8077,.3242,.2405,0,.4756-.0601,.7051-.1807,.2295-.1201,.4292-.2964,.5987-.5289s.2764-.5054,.3362-.816c.02-.1039,.0327-.2158,.0327-.336Z" style="fill:#242424;"/><polygon points="28.7497 15.1951 30.439 17.4502 29.1762 17.4502 27.8477 15.5066 27.5032 17.4502 26.5683 17.4502 27.6426 11.3818 28.5775 11.3818 27.9542 14.9001 29.9387 12.9317 31.2342 12.9317 28.7497 15.1951" style="fill:#242424;"/><path d="M35.2153,13.3336c.3362,.3174,.5042,.7437,.5042,1.2794,0,.1255-.0137,.2759-.041,.4507-.0217,.1206-.0601,.2681-.1148,.4429h-3.4522c-.0056,.0386-.0083,.0957-.0083,.1724,0,.3223,.0999,.5796,.2993,.7706,.1995,.1914,.4605,.2871,.7833,.2871,.5083,0,.899-.2105,1.1725-.6314h1.0086c-.2078,.4156-.514,.7559-.9183,1.0211-.4048,.2652-.8721,.3975-1.4022,.3975-.3772,0-.7081-.0737-.9923-.2212-.2844-.148-.5059-.3594-.6644-.6358-.1585-.2759-.2378-.5997-.2378-.9718,0-.1582,.017-.3276,.0493-.5083,.083-.4642,.2486-.8731,.5003-1.2257,.2512-.3526,.5643-.6246,.9388-.816,.3743-.1914,.783-.2871,1.2259-.2871,.563,0,1.0128,.1587,1.349,.4756Zm-.4551,1.2877c0-.3008-.0999-.5386-.2993-.7134-.1997-.1753-.458-.2627-.775-.2627-.3335,0-.6341,.1069-.9019,.3199-.2678,.2134-.451,.503-.5494,.8692h2.5092c.0107-.0982,.0164-.1694,.0164-.2129Z" style="fill:#242424;"/><path d="M37.4826,16.1957c-.011,.0767-.0164,.1255-.0164,.1475,0,.1148,.0354,.1983,.1067,.25,.0708,.0523,.1885,.0781,.3526,.0781h.574l-.1394,.7789h-.7381c-.3609,0-.637-.0723-.8282-.2173-.1914-.1445-.2871-.376-.2871-.6929,0-.1201,.011-.2349,.033-.3443l.4427-2.5012h-.533l.1314-.7628h.5411l.1968-1.1231h.9432l-.1968,1.1231h1.0904l-.1311,.7628h-1.0987l-.4429,2.5012Z" style="fill:#242424;"/><path d="M40.5329,16.1957c-.011,.0767-.0164,.1255-.0164,.1475,0,.1148,.0354,.1983,.1067,.25,.0708,.0523,.1885,.0781,.3526,.0781h.574l-.1394,.7789h-.7381c-.3609,0-.637-.0723-.8282-.2173-.1914-.1445-.2871-.376-.2871-.6929,0-.1201,.011-.2349,.033-.3443l.4427-2.5012h-.533l.1314-.7628h.5411l.1968-1.1231h.9432l-.1968,1.1231h1.0904l-.1311,.7628h-1.0987l-.4429,2.5012Z" style="fill:#242424;"/><path d="M44.0016,12.9317l-.7955,4.5184h-.9349l.7955-4.5184h.9349Zm-.7134-.7379c-.093-.0928-.1394-.2105-.1394-.3526,0-.1914,.0725-.357,.2173-.4961,.1448-.1397,.3103-.209,.4961-.209,.1477,0,.2666,.0464,.3567,.1392,.0901,.0933,.1353,.2105,.1353,.3526,0,.1914-.0711,.357-.2132,.4961-.1423,.1397-.3062,.209-.492,.209-.1477,0-.2681-.0464-.3609-.1392Z" style="fill:#242424;"/><path d="M48.4376,16.0477c-.0054,.0332-.0081,.0767-.0081,.1314,0,.1094,.0313,.1875,.0942,.2339,.0627,.0464,.1682,.0693,.3157,.0693h.5413l-.1724,.9679h-.7298c-.8199,0-1.2298-.3418-1.2298-1.025,0-.1314,.0107-.2598,.0327-.3853l.3853-2.1896h-.5411l.1641-.9429h.5494l.1968-1.1236h1.1561l-.1968,1.1236h1.0086l-.1638,.9429h-1.0169l-.3855,2.1974Z" style="fill:#fff;"/><path d="M50.6311,13.9406c.2432-.3555,.5398-.6285,.8897-.8199s.7188-.2871,1.107-.2871c.3389,0,.6246,.0684,.857,.2051s.4031,.3086,.5125,.5166l.1148-.648h1.1563l-.8035,4.5429h-1.1563l.1231-.6641c-.1804,.2129-.4141,.3892-.7012,.5289-.2869,.1392-.5999,.209-.9388,.209-.3335,0-.6287-.0752-.8856-.2256-.2571-.1499-.4566-.3633-.5987-.6392-.1423-.2764-.2132-.5972-.2132-.9639,0-.169,.0161-.3468,.0491-.5328,.0814-.4596,.2446-.8663,.4878-1.2218Zm3.1121,.9263c0-.3223-.0942-.5738-.283-.7545-.1885-.1802-.4251-.2705-.7093-.2705-.2132,0-.4195,.0523-.6189,.1558-.1997,.104-.3733,.2559-.5208,.4551-.1477,.1997-.2491,.4356-.2952,.7095-.0175,.1038-.0247,.2022-.0247,.2949,0,.3282,.093,.5865,.2788,.775,.1858,.189,.4209,.2832,.7051,.2832,.2132,0,.4209-.0537,.6233-.1602,.2022-.1065,.3758-.2608,.5206-.4634,.1448-.2022,.242-.44,.2913-.7134,.0217-.1421,.0327-.2456,.0327-.3115Z" style="fill:#fff;"/><path d="M56.4614,17.3559c-.2708-.1118-.4839-.2676-.6397-.4673s-.2337-.4278-.2337-.6846c0-.0386,.0054-.1011,.0164-.189h1.1153c-.0164,.1914,.041,.3457,.1721,.4634s.3169,.1763,.5577,.1763c.2185,0,.4004-.0396,.5452-.1187,.1448-.0796,.2173-.1958,.2173-.3487,0-.1367-.0669-.2461-.2009-.3282s-.3457-.1748-.6353-.2788c-.2901-.1035-.5306-.2051-.7217-.3032-.1914-.0986-.3555-.2349-.492-.4102-.1367-.1748-.2051-.396-.2051-.6641,0-.2676,.0779-.5054,.2337-.7134,.156-.2075,.3733-.3687,.6519-.4839,.2788-.1148,.5987-.1719,.9596-.1719,.3445,0,.6478,.0571,.9102,.1719,.2625,.1152,.4659,.2749,.6109,.48,.1448,.2051,.2173,.4385,.2173,.7012,0,.0654-.0029,.1148-.0083,.1475h-1.066c.0166-.1914-.0383-.3443-.1638-.4595-.126-.1148-.3091-.1719-.5496-.1719-.1968,0-.3579,.0425-.4837,.127-.1257,.085-.1887,.1983-.1887,.3404s.0711,.2583,.2134,.3487c.1421,.0899,.3606,.19,.6558,.2993,.2954,.1148,.5318,.2197,.7095,.3155,.1775,.0957,.3321,.2271,.4632,.3936,.1314,.167,.1968,.376,.1968,.6275,0,.2788-.0847,.522-.2542,.7296-.1694,.208-.4019,.3662-.6971,.4756s-.6287,.1641-1.0003,.1641c-.3335,0-.6355-.0562-.9061-.168Z" style="fill:#fff;"/><path d="M65.1494,12.9073l-.8035,4.5429h-1.148l.0984-.5738c-.1751,.1968-.3909,.3511-.6478,.4629-.2571,.1123-.5276,.1685-.8118,.1685-.4703,0-.8419-.1275-1.1153-.3814-.2735-.2544-.4099-.6163-.4099-1.0865,0-.1748,.0137-.3311,.041-.4678l.4673-2.6648h1.148l-.4427,2.5012c-.0164,.0982-.0247,.1939-.0247,.2866,0,.2681,.0737,.4746,.2215,.6192,.1475,.145,.3553,.2173,.6231,.2173,.3115,0,.5767-.0967,.7955-.291,.2185-.1939,.3579-.4712,.4182-.8321l.4427-2.5012h1.148Z" style="fill:#fff;"/><path d="M67.0682,16.0477c-.0054,.0332-.0081,.0767-.0081,.1314,0,.1094,.0313,.1875,.0942,.2339,.0627,.0464,.1682,.0693,.3157,.0693h.5413l-.1724,.9679h-.7298c-.8199,0-1.2298-.3418-1.2298-1.025,0-.1314,.0107-.2598,.0327-.3853l.3853-2.1896h-.5411l.1641-.9429h.5494l.1968-1.1236h1.1561l-.1968,1.1236h1.0086l-.1638,.9429h-1.0169l-.3855,2.1974Z" style="fill:#fff;"/><path d="M69.2615,13.9406c.2432-.3555,.5398-.6285,.8897-.8199s.7188-.2871,1.107-.2871c.3389,0,.6246,.0684,.857,.2051s.4031,.3086,.5125,.5166l.1148-.648h1.1563l-.8035,4.5429h-1.1563l.1231-.6641c-.1804,.2129-.4141,.3892-.7012,.5289-.2869,.1392-.5999,.209-.9388,.209-.3335,0-.6287-.0752-.8856-.2256-.2571-.1499-.4566-.3633-.5987-.6392-.1423-.2764-.2132-.5972-.2132-.9639,0-.169,.0161-.3468,.0491-.5328,.0814-.4596,.2446-.8663,.4878-1.2218Zm3.1121,.9263c0-.3223-.0942-.5738-.283-.7545-.1885-.1802-.4251-.2705-.7093-.2705-.2132,0-.4195,.0523-.6189,.1558-.1997,.104-.3733,.2559-.5208,.4551-.1477,.1997-.2491,.4356-.2952,.7095-.0175,.1038-.0247,.2022-.0247,.2949,0,.3282,.093,.5865,.2788,.775,.1858,.189,.4209,.2832,.7051,.2832,.2132,0,.4209-.0537,.6233-.1602,.2022-.1065,.3758-.2608,.5206-.4634,.1448-.2022,.242-.44,.2913-.7134,.0217-.1421,.0327-.2456,.0327-.3115Z" style="fill:#fff;"/><path d="M74.2844,17.3515c-.1096-.1035-.1641-.2349-.1641-.3936,0-.2183,.0833-.4058,.25-.5616s.3621-.2334,.5865-.2334c.1802,0,.3238,.0503,.4305,.1514,.1065,.1016,.1599,.2339,.1599,.398,0,.2188-.082,.4058-.2461,.5616s-.3582,.2339-.5821,.2339c-.1804,0-.3255-.0523-.4346-.1563Z" style="fill:#fff;"/></g></g></g></svg>