<?xml version="1.0" encoding="UTF-8"?><svg id="b" xmlns="http://www.w3.org/2000/svg" viewBox="0 0 75 75"><g id="c"><g><circle cx="37.5" cy="37.5" r="37.5" style="fill:#8fa4c1;"/><g><path d="M21.7594,20.3489c0-.29,.36-.5503,.3955-.5158,.2752,.3255,.7974,.6144,1.3551,.6144,.5434,0,.8329-.1972,.8329-.5503,0-.4093-.4591-.4941-.9956-.6144-.7269-.1617-1.4749-.43-1.4749-1.3689,0-.8472,.6775-1.4044,1.7787-1.4044,.6139,0,1.0513,.1479,1.3127,.3383,.2189,.1489,.3176,.3324,.3176,.501,0,.3245-.3881,.5651-.4093,.5434-.2683-.3176-.7269-.5572-1.214-.5572-.4941,0-.7905,.2051-.7905,.5365,0,.3955,.4093,.4517,.9739,.5789,.826,.1834,1.5459,.5217,1.5459,1.3827,0,.9103-.6706,1.4399-1.8704,1.4399-.7056,0-1.1954-.1887-1.4749-.4162-.1948-.1585-.2826-.3393-.2826-.5079Z" style="fill:#eaf6fe;"/><path d="M25.7472,20.9061l1.5528-4.0297c.0636-.1903,.2115-.3107,.6844-.3107s.607,.1203,.6706,.3107l1.5878,4.0228c.0355,.0848-.254,.3245-.5646,.3245-.2258,0-.4586-.1203-.5996-.4941l-.2757-.713h-1.6583l-.2821,.7269c-.1272,.36-.3462,.4803-.5651,.4803-.2964,0-.5784-.2258-.5503-.3176Zm1.0094-5.1807c0-.3176,.1903-.4862,.4867-.4862,.3176,0,.5084,.1686,.5084,.4862s-.1834,.4941-.501,.4941c-.3038,0-.4941-.1765-.4941-.4941Zm1.828,3.508l-.6213-1.6588-.6208,1.6588h1.2422Zm-.3462-3.508c0-.3176,.1839-.4862,.4872-.4862,.3107,0,.501,.1686,.501,.4862s-.1834,.4941-.4941,.4941c-.3033,0-.4941-.1765-.4941-.4941Z" style="fill:#eaf6fe;"/><path d="M30.6493,20.9061l1.5528-4.0297c.0636-.1903,.2115-.3107,.6844-.3107s.607,.1203,.6706,.3107l1.5878,4.0228c.0355,.0848-.254,.3245-.5646,.3245-.2258,0-.4586-.1203-.5996-.4941l-.2757-.713h-1.6583l-.2826,.7269c-.1267,.36-.3457,.4803-.5641,.4803-.2969,0-.5789-.2258-.5508-.3176Zm1.0094-5.1807c0-.3176,.1903-.4862,.4867-.4862,.3176,0,.5084,.1686,.5084,.4862s-.1834,.4941-.501,.4941c-.3038,0-.4941-.1765-.4941-.4941Zm1.828,3.508l-.6213-1.6588-.6208,1.6588h1.2422Zm-.3462-3.508c0-.3176,.1839-.4862,.4872-.4862,.3107,0,.501,.1686,.501,.4862s-.1834,.4941-.4941,.4941c-.3033,0-.4941-.1765-.4941-.4941Z" style="fill:#eaf6fe;"/><path d="M35.5503,20.3489c0-.29,.36-.5503,.3955-.5158,.2752,.3255,.7974,.6144,1.3551,.6144,.5434,0,.8324-.1972,.8324-.5503,0-.4093-.4586-.4941-.9951-.6144-.7269-.1617-1.4749-.43-1.4749-1.3689,0-.8472,.6775-1.4044,1.7787-1.4044,.6139,0,1.0513,.1479,1.3127,.3383,.2189,.1489,.3176,.3324,.3176,.501,0,.3245-.3881,.5651-.4093,.5434-.2683-.3176-.7269-.5572-1.214-.5572-.4941,0-.7905,.2051-.7905,.5365,0,.3955,.4093,.4517,.9739,.5789,.826,.1834,1.5459,.5217,1.5459,1.3827,0,.9103-.6706,1.4399-1.8704,1.4399-.7056,0-1.1954-.1887-1.4749-.4162-.1948-.1585-.2826-.3393-.2826-.5079Z" style="fill:#eaf6fe;"/><path d="M41.1255,17.5184h-1.0306c-.3107,0-.4798-.1548-.4798-.4448v-.0355c0-.2821,.1691-.43,.4798-.43h3.0839c.3181,0,.4803,.1479,.4803,.43v.0355c0,.29-.1622,.4448-.4803,.4448h-1.0089v3.2112c0,.3107-.1696,.4734-.466,.4734h-.1479c-.2826,0-.4305-.1627-.4305-.4734v-3.2112Z" style="fill:#eaf6fe;"/><path d="M43.4451,20.9061l1.5528-4.0297c.0636-.1903,.2115-.3107,.6844-.3107s.607,.1203,.6706,.3107l1.5878,4.0228c.0355,.0848-.254,.3245-.5646,.3245-.2258,0-.4586-.1203-.5996-.4941l-.2757-.713h-1.6583l-.2821,.7269c-.1272,.36-.3462,.4803-.5651,.4803-.2964,0-.5784-.2258-.5503-.3176Zm2.8374-1.6726l-.6213-1.6588-.6208,1.6588h1.2422Z" style="fill:#eaf6fe;"/><path d="M48.5148,17.187c0-.3669,.2327-.5789,.5434-.5789h1.1573c1.5247,0,2.4493,.8541,2.4493,2.2654,0,1.4182-.9458,2.3009-2.4843,2.3009h-1.0868c-.325,0-.5789-.2614-.5789-.572v-3.4153Zm3.1125,1.6934c0-.8817-.5434-1.3827-1.4399-1.3827h-.642v2.7871h.6282c.9034,0,1.4537-.5079,1.4537-1.4044Z" style="fill:#eaf6fe;"/><path d="M15.4742,27.785v-3.5425c0-.3669,.2046-.5789,.5434-.5789h1.1859c1.2067,0,1.8773,.5365,1.8773,1.5454,0,1.0168-.6494,1.5385-1.8704,1.5385h-.6918v1.0375c0,.2969-.1553,.4734-.4586,.4734h-.1484c-.2821,0-.4374-.1627-.4374-.4734Zm2.5903-2.5691c0-.4872-.3038-.7407-.8822-.7407h-.6775v1.4892h.6844c.5715,0,.8753-.2614,.8753-.7485Z" style="fill:#eaf6fe;"/><path d="M19.6134,25.9506c0-1.3906,.9882-2.3857,2.3571-2.3857,1.3763,0,2.3433,.9803,2.3433,2.3778s-.9739,2.3857-2.3502,2.3857c-1.3832,0-2.3502-.9813-2.3502-2.3778Zm3.6698,0c0-.862-.5434-1.4616-1.3196-1.4616-.7836,0-1.3127,.5789-1.3127,1.4537,0,.8689,.5365,1.4616,1.3196,1.4616,.7767,0,1.3127-.5858,1.3127-1.4537Z" style="fill:#eaf6fe;"/><path d="M25.116,27.6578v-3.4153c0-.3669,.2046-.5789,.5434-.5789h2.541c.3245,0,.4798,.141,.4798,.4162v.0355c0,.2821-.1553,.4162-.4798,.4162h-2.0469v.9675h1.4961c.3388,0,.4803,.1262,.4803,.3876v.0217c0,.2752-.1484,.4024-.4803,.4024h-1.4961v1.0651h2.0819c.325,0,.4729,.1203,.4729,.3886v.0345c0,.29-.1479,.431-.4729,.431h-2.576c-.3388,0-.5434-.2051-.5434-.572Z" style="fill:#eaf6fe;"/><path d="M29.4613,27.785v-3.6767c0-.3176,.1553-.4734,.4379-.4734h.1479c.3038,0,.4586,.1558,.4586,.4734v1.3906h1.9695v-1.3906c0-.3176,.1479-.4734,.4305-.4734h.1553c.2964,0,.4517,.1558,.4517,.4734v3.6767c0,.3107-.1553,.4734-.4517,.4734h-.1553c-.2826,0-.4305-.1627-.4305-.4734v-1.4044h-1.9695v1.4044c0,.3107-.1548,.4734-.4586,.4734h-.1479c-.2826,0-.4379-.1627-.4379-.4734Z" style="fill:#eaf6fe;"/><path d="M34.5483,24.1084c0-.3176,.1548-.4734,.4443-.4734h.1415c.3033,0,.4586,.1558,.4586,.4734v3.6767c0,.3107-.1553,.4734-.4586,.4734h-.1415c-.2895,0-.4443-.1627-.4443-.4734v-3.6767Z" style="fill:#eaf6fe;"/><path d="M36.6199,27.785v-3.6343c0-.3324,.1622-.5158,.4517-.5158h.1272c.2683,0,.3669,.0917,.5291,.2969l1.969,2.7171v-2.5405c0-.3107,.1415-.4734,.4448-.4734h.0986c.2826,0,.4305,.1627,.4305,.4734v3.6343c0,.3393-.1691,.5158-.4443,.5158h-.0848c-.2683,0-.3457-.071-.4941-.2614l-2.0464-2.8167v2.6046c0,.3107-.1553,.4734-.4517,.4734h-.0991c-.2895,0-.4305-.1627-.4305-.4734Z" style="fill:#eaf6fe;"/><path d="M41.6753,27.785v-3.6343c0-.3324,.1622-.5158,.4517-.5158h.1272c.2683,0,.3669,.0917,.5291,.2969l1.969,2.7171v-2.5405c0-.3107,.1415-.4734,.4448-.4734h.0986c.2826,0,.4305,.1627,.4305,.4734v3.6343c0,.3393-.1691,.5158-.4443,.5158h-.0848c-.2683,0-.3457-.071-.4941-.2614l-2.0464-2.8167v2.6046c0,.3107-.1553,.4734-.4517,.4734h-.0991c-.2895,0-.4305-.1627-.4305-.4734Z" style="fill:#eaf6fe;"/><path d="M46.314,27.9616l1.5528-4.0297c.0636-.1903,.2115-.3107,.6844-.3107s.607,.1203,.6706,.3107l1.5878,4.0228c.0355,.0848-.254,.3245-.5646,.3245-.2258,0-.4586-.1203-.5996-.4941l-.2757-.713h-1.6583l-.2821,.7269c-.1272,.36-.3462,.4803-.5651,.4803-.2964,0-.5784-.2258-.5503-.3176Zm2.8374-1.6726l-.6213-1.6588-.6208,1.6588h1.2422Z" style="fill:#eaf6fe;"/><path d="M51.2156,27.4043c0-.29,.36-.5503,.3955-.5158,.2752,.3255,.7974,.6144,1.3551,.6144,.5434,0,.8324-.1972,.8324-.5503,0-.4093-.4586-.4941-.9951-.6144-.7269-.1617-1.4749-.43-1.4749-1.3689,0-.8472,.6775-1.4044,1.7787-1.4044,.6139,0,1.0513,.1479,1.3127,.3383,.2189,.1489,.3176,.3324,.3176,.501,0,.3245-.3881,.5651-.4093,.5434-.2683-.3176-.7269-.5572-1.214-.5572-.4941,0-.7905,.2051-.7905,.5365,0,.3955,.4093,.4517,.9739,.5789,.826,.1834,1.5459,.5217,1.5459,1.3827,0,.9103-.6706,1.4399-1.8704,1.4399-.7056,0-1.1954-.1887-1.4749-.4162-.1948-.1585-.2826-.3393-.2826-.5079Z" style="fill:#eaf6fe;"/><path d="M56.7907,24.5739h-1.0306c-.3107,0-.4798-.1548-.4798-.4448v-.0355c0-.2821,.1691-.43,.4798-.43h3.0839c.3181,0,.4803,.1479,.4803,.43v.0355c0,.29-.1622,.4448-.4803,.4448h-1.0089v3.2112c0,.3107-.1696,.4734-.466,.4734h-.1479c-.2826,0-.4305-.1627-.4305-.4734v-3.2112Z" style="fill:#eaf6fe;"/></g><g><path d="M10.761,50.5176v-.932c0-3.726,3.185-5.5288,5.9494-6.8809,2.434-1.1421,4.4474-1.9231,4.4474-3.6057,0-1.6529-1.1716-2.5849-3.2753-2.5849-2.4641,0-3.756,1.6233-4.1767,3.3956,0,.0602-2.8847,.1805-2.8847-2.0425,0-1.2022,.6608-2.434,1.8931-3.366,1.2318-.932,3.0948-1.5928,5.439-1.5928,4.6575,0,7.3015,2.2841,7.3015,6.0101,0,3.6057-2.6742,4.8976-5.4987,6.1304-2.254,.931-4.2072,1.7723-4.9282,3.3946-.1203,.2111-.2106,.4517-.2702,.6913h8.8642c1.5025,0,2.1036,.6016,2.1036,1.6529v.2101c0,1.1421-.6011,1.7732-2.1036,1.7732H13.4351c-2.0129,0-2.6742-.4507-2.6742-2.2535Z" style="fill:#fff;"/><path d="M29.093,51.9299c-1.2323-.7515-1.9231-1.6825-1.9231-2.5839,0-1.2929,1.6825-2.2239,1.8329-2.074,1.2318,1.6529,3.0948,2.6145,5.3488,2.6145,2.4942,0,4.0263-1.2318,4.0263-3.1855,0-1.9527-1.3822-3.0948-3.8759-3.0948-1.9231,0-3.1254,.5405-3.9967,1.2022-1.7432-.0602-2.6145-.8117-2.6145-2.5849v-6.4302c0-1.5622,.6613-2.4636,2.1337-2.4636h9.4052c1.3822,0,2.0735,.571,2.0735,1.7427v.1499c0,1.1726-.6613,1.7131-2.0735,1.7131h-7.8425v4.3572c1.0513-.4211,2.2235-.7209,3.5455-.7209,4.3271,0,7.1817,2.3433,7.1817,6.16,0,3.936-3.0346,6.4608-7.9026,6.4608-2.254,0-4.0568-.5109-5.3187-1.2624Z" style="fill:#fff;"/><path d="M43.2242,37.9264v-.2397c0-2.7348,2.043-4.658,4.868-4.658,2.7945,0,4.8079,1.8936,4.8079,4.6274v.2406c0,2.7348-2.0435,4.658-4.8379,4.658s-4.8379-1.8936-4.8379-4.6284Zm1.5326,13.7934c0-.5109,.2101-.9014,.8112-1.5326l15.1144-17.2186c.1504-.1805,1.8033,.2702,1.8033,1.3521,0,.4211-.2406,.932-.8117,1.5928l-15.1144,17.188c-.1504,.1805-1.8028-.3304-1.8028-1.3817Zm5.3182-13.6731v-.4803c0-1.4429-.8713-2.2841-2.0129-2.2841-1.1721,0-2.0134,.8117-2.0134,2.2841v.4803c0,1.3827,.8713,2.2239,2.0435,2.2239,1.1416,0,1.9828-.8117,1.9828-2.2239Zm4.3572,10.3672v-.2406c0-2.7338,2.0735-4.657,4.868-4.657s4.8079,1.863,4.8079,4.6274v.2406c0,2.7338-2.043,4.657-4.8079,4.657-2.8246,0-4.868-1.8926-4.868-4.6274Zm6.8814,.0897v-.4803c0-1.4123-.8713-2.2841-2.0134-2.2841-1.2017,0-2.0134,.8413-2.0134,2.2841v.4803c0,1.4123,.8417,2.2545,2.0134,2.2545,1.1421,0,2.0134-.8422,2.0134-2.2545Z" style="fill:#fff;"/></g></g></g></svg>