<?xml version="1.0" encoding="utf-8"?>
<!-- Generator: Adobe Illustrator 27.0.1, SVG Export Plug-In . SVG Version: 6.00 Build 0)  -->
<svg version="1.1" id="b" xmlns="http://www.w3.org/2000/svg" xmlns:xlink="http://www.w3.org/1999/xlink" x="0px" y="0px"
	 viewBox="0 0 208 64" style="enable-background:new 0 0 208 64;" xml:space="preserve">
<style type="text/css">
	.st0{fill:#016CD1;}
	.st1{fill:#F3F9FF;}
</style>
<g>
	<path class="st0" d="M176,0c29.7,0,32,2.3,32,32s-2.3,32-32,32H32C2.3,64,0,61.7,0,32S2.3,0,32,0H176z"/>
	<g>
		<path class="st1" d="M35.5,41.7c-0.3,0-0.5-0.1-0.7-0.2c-0.2-0.2-0.3-0.3-0.4-0.6l-5.8-17.8v-0.2c0-0.1,0.1-0.3,0.2-0.4
			s0.2-0.2,0.4-0.2h2.9c0.3,0,0.5,0.1,0.7,0.2c0.2,0.2,0.3,0.3,0.3,0.4l4.3,13.6l4.3-13.6c0.1-0.1,0.2-0.3,0.3-0.4
			c0.1-0.2,0.4-0.2,0.6-0.2h2.9c0.2,0,0.3,0.1,0.4,0.2c0.1,0.1,0.2,0.3,0.2,0.4v0.2l-5.8,17.8L40,41.5c-0.1,0.2-0.4,0.2-0.7,0.2
			H35.5z"/>
		<path class="st1" d="M45.7,41.7c-0.2,0-0.3-0.1-0.4-0.2c-0.1-0.1-0.2-0.3-0.2-0.4v-0.3L51.7,23c0.1-0.2,0.2-0.4,0.3-0.5
			c0.2-0.1,0.4-0.2,0.7-0.2h3.6c0.3,0,0.5,0.1,0.7,0.2s0.3,0.3,0.3,0.5l6.6,17.9v0.3c0,0.1-0.1,0.3-0.2,0.4
			c-0.1,0.1-0.2,0.2-0.4,0.2h-2.9c-0.3,0-0.5-0.1-0.6-0.2c-0.1-0.1-0.2-0.2-0.3-0.4l-1.2-3.1h-7.8l-1.2,3.1c0,0.1-0.1,0.2-0.3,0.4
			c-0.1,0.1-0.3,0.2-0.6,0.2h-2.7V41.7z M51.6,34.5h5.7l-2.9-8L51.6,34.5z"/>
		<path class="st1" d="M65.9,41.7c-0.2,0-0.3-0.1-0.4-0.2c-0.1-0.1-0.2-0.3-0.2-0.4v-0.3L72,23c0.1-0.2,0.2-0.4,0.3-0.5
			c0.2-0.1,0.4-0.2,0.7-0.2h3.6c0.3,0,0.5,0.1,0.7,0.2s0.3,0.3,0.3,0.5l6.6,17.9v0.3c0,0.1-0.1,0.3-0.2,0.4
			c-0.1,0.1-0.2,0.2-0.4,0.2h-2.9c-0.3,0-0.5-0.1-0.6-0.2c-0.1-0.1-0.2-0.2-0.3-0.4l-1.2-3.1h-7.8l-1.2,3.1c0,0.1-0.1,0.2-0.3,0.4
			c-0.1,0.1-0.3,0.2-0.6,0.2h-2.8V41.7z M71.9,34.5h5.7l-2.9-8L71.9,34.5z"/>
		<path class="st1" d="M89.3,41.7c-0.2,0-0.4-0.1-0.5-0.2c-0.1-0.1-0.2-0.3-0.2-0.5V26.1h-5.1c-0.2,0-0.3-0.1-0.5-0.2
			s-0.2-0.3-0.2-0.5V23c0-0.2,0.1-0.4,0.2-0.5s0.3-0.2,0.5-0.2h14.6c0.2,0,0.4,0.1,0.5,0.2s0.2,0.3,0.2,0.5v2.5
			c0,0.2-0.1,0.3-0.2,0.5s-0.3,0.2-0.5,0.2h-5V41c0,0.2-0.1,0.4-0.2,0.5s-0.3,0.2-0.5,0.2H89.3z"/>
		<path class="st1" d="M98.1,41.7c-0.2,0-0.3-0.1-0.4-0.2c-0.1-0.1-0.2-0.3-0.2-0.4v-0.3l6.6-17.9c0.1-0.2,0.2-0.4,0.3-0.5
			c0.2-0.1,0.4-0.2,0.7-0.2h3.6c0.3,0,0.5,0.1,0.7,0.2s0.3,0.3,0.3,0.5l6.6,17.9v0.3c0,0.1-0.1,0.3-0.2,0.4
			c-0.1,0.1-0.2,0.2-0.4,0.2h-2.9c-0.3,0-0.5-0.1-0.6-0.2c-0.1-0.1-0.2-0.2-0.3-0.4l-1.2-3.1h-7.8l-1.2,3.1c0,0.1-0.1,0.2-0.3,0.4
			c-0.1,0.1-0.3,0.2-0.6,0.2H98.1z M104.1,34.5h5.7l-2.9-8L104.1,34.5z"/>
		<path class="st1" d="M131.4,42c-1.8,0-3.3-0.3-4.5-0.8s-2.1-1.2-2.7-2s-1-1.7-1-2.7c0-0.1,0.1-0.3,0.2-0.4s0.2-0.2,0.4-0.2h3
			c0.2,0,0.4,0.1,0.6,0.2l0.4,0.4c0.1,0.3,0.3,0.6,0.6,0.9s0.7,0.5,1.2,0.7s1.1,0.3,1.9,0.3c1.2,0,2.1-0.2,2.7-0.6
			c0.6-0.4,0.9-0.9,0.9-1.6c0-0.5-0.2-0.9-0.5-1.2s-0.8-0.6-1.5-0.8s-1.6-0.5-2.8-0.8c-1.4-0.3-2.6-0.7-3.5-1.2
			c-1-0.5-1.7-1.1-2.2-1.8c-0.5-0.8-0.7-1.7-0.7-2.8c0-1.1,0.3-2.1,0.9-3s1.5-1.5,2.6-2c1.1-0.5,2.4-0.7,4-0.7
			c1.2,0,2.3,0.2,3.3,0.5s1.8,0.8,2.4,1.3c0.6,0.5,1.1,1.1,1.5,1.7c0.3,0.6,0.5,1.2,0.5,1.8c0,0.1-0.1,0.3-0.2,0.4
			c-0.1,0.1-0.3,0.2-0.4,0.2h-3.1c-0.2,0-0.4,0-0.5-0.1s-0.3-0.2-0.4-0.4c-0.1-0.5-0.4-0.9-1-1.3c-0.5-0.4-1.3-0.5-2.1-0.5
			c-0.9,0-1.6,0.2-2.2,0.5c-0.5,0.3-0.8,0.8-0.8,1.5c0,0.4,0.1,0.8,0.4,1.1c0.3,0.3,0.7,0.6,1.4,0.8c0.6,0.2,1.5,0.5,2.5,0.8
			c1.6,0.3,3,0.7,4,1.2s1.8,1.1,2.2,1.8s0.7,1.7,0.7,2.8c0,1.2-0.3,2.3-1,3.2s-1.6,1.6-2.9,2C134.4,41.8,133,42,131.4,42z"/>
		<path class="st1" d="M142.8,41.7c-0.2,0-0.4-0.1-0.5-0.2c-0.1-0.1-0.2-0.3-0.2-0.5V23c0-0.2,0.1-0.4,0.2-0.5s0.3-0.2,0.5-0.2h3.1
			c0.2,0,0.4,0.1,0.5,0.2s0.2,0.3,0.2,0.5v18c0,0.2-0.1,0.4-0.2,0.5c-0.1,0.1-0.3,0.2-0.5,0.2H142.8z"/>
		<path class="st1" d="M150.9,41.7c-0.2,0-0.4-0.1-0.5-0.2c-0.1-0.1-0.2-0.3-0.2-0.5V23c0-0.2,0.1-0.4,0.2-0.5s0.3-0.2,0.5-0.2h3.1
			c0.2,0,0.4,0.1,0.5,0.2s0.2,0.3,0.2,0.5v18c0,0.2-0.1,0.4-0.2,0.5c-0.1,0.1-0.3,0.2-0.5,0.2H150.9z"/>
		<path class="st1" d="M163.5,41.7c-0.2,0-0.4-0.1-0.5-0.2c-0.1-0.1-0.2-0.3-0.2-0.5V26.1h-5.1c-0.2,0-0.3-0.1-0.5-0.2
			s-0.2-0.3-0.2-0.5V23c0-0.2,0.1-0.4,0.2-0.5s0.3-0.2,0.5-0.2h14.6c0.2,0,0.4,0.1,0.5,0.2s0.2,0.3,0.2,0.5v2.5
			c0,0.2-0.1,0.3-0.2,0.5c-0.1,0.1-0.3,0.2-0.5,0.2h-5V41c0,0.2-0.1,0.4-0.2,0.5c-0.1,0.1-0.3,0.2-0.5,0.2H163.5z"/>
		<path class="st1" d="M175.7,41.7c-0.2,0-0.3-0.1-0.5-0.2c-0.1-0.1-0.2-0.3-0.2-0.5v-3c0-0.2,0.1-0.4,0.2-0.5
			c0.1-0.1,0.3-0.2,0.5-0.2h3c0.2,0,0.4,0.1,0.5,0.2c0.1,0.1,0.2,0.3,0.2,0.5v3c0,0.2-0.1,0.4-0.2,0.5c-0.1,0.1-0.3,0.2-0.5,0.2
			H175.7z M175.9,36c-0.2,0-0.4-0.1-0.5-0.2c-0.1-0.1-0.2-0.3-0.2-0.5V23c0-0.2,0.1-0.4,0.2-0.5c0.1-0.1,0.3-0.2,0.5-0.2h2.7
			c0.2,0,0.4,0.1,0.5,0.2s0.2,0.3,0.2,0.5v12.3c0,0.2-0.1,0.4-0.2,0.5c-0.1,0.1-0.3,0.2-0.5,0.2H175.9z"/>
	</g>
</g>
</svg>
