<?xml version="1.0" encoding="utf-8"?>
<!-- Generator: Adobe Illustrator 27.0.1, SVG Export Plug-In . SVG Version: 6.00 Build 0)  -->
<svg version="1.1" id="b" xmlns="http://www.w3.org/2000/svg" xmlns:xlink="http://www.w3.org/1999/xlink" x="0px" y="0px"
	 viewBox="0 0 223.7 64" style="enable-background:new 0 0 223.7 64;" xml:space="preserve">
<style type="text/css">
	.st0{fill:#395A72;}
	.st1{fill:#FFC800;}
	.st2{fill:#016CD1;}
	.st3{fill:url(#SVGID_1_);}
</style>
<g id="e">
	<path class="st0" d="M1.2,44.2C0.4,44.2,0,43.8,0,43V21.7c0-0.8,0.4-1.2,1.2-1.2h2.5c0.8,0,1.2,0.4,1.2,1.2v6.6c0,0.7,0,1.3-0.1,2
		h0.1l8-8.8c0.6-0.6,1.1-1,1.5-1h3.3c1.3,0,1.5,0.5,0.6,1.4l-7.5,8.2l8,12.6c0.6,1,0.4,1.4-0.6,1.4h-3.1c-0.6,0-1.2-0.4-1.5-1
		l-6.1-9.5l-2.8,3.1v6.2c0,0.8-0.4,1.2-1.2,1.2H1.2V44.2z"/>
	<path class="st0" d="M24.9,19.5h-1.2c-0.4,0-0.7,0.3-0.9,0.6l-1.3,2.2c-0.2,0.4-0.4,0.9-0.4,1.4v19.5c-0.1,0.5,0.3,0.9,0.7,1h1.4
		c0.4,0,0.7-0.3,0.9-0.6l1.3-2.2c0.2-0.4,0.4-0.9,0.3-1.3V20.5C25.8,20,25.4,19.6,24.9,19.5z"/>
	<path class="st0" d="M30.4,24.3c-0.5,0.1-0.9-0.3-1-0.7v-2.4c-0.1-0.5,0.3-0.9,0.7-1H33c0.5-0.1,0.9,0.3,1,0.8v2.4
		c0.1,0.5-0.3,0.9-0.7,1L30.4,24.3z M30.4,44.2c-0.5,0.1-0.9-0.3-1-0.8V27.8c-0.1-0.5,0.3-0.9,0.7-1H33c0.5-0.1,0.9,0.3,1,0.8v15.6
		c0.1,0.5-0.3,0.9-0.7,1H30.4z"/>
	<path class="st0" d="M36.8,35.5c0-2.8,0.7-5,2.1-6.6s3.4-2.4,5.9-2.4c2.9,0,5.1,0.8,6.5,2.3s2.1,4,2.1,7.3c0,0.7-0.3,1-0.9,1H41.7
		c0.2,1.8,0.6,3,1.3,3.5s1.6,0.7,2.5,0.7c0.7,0,1.4-0.1,2.1-0.4c0.5-0.2,0.9-0.6,1.2-1s0.9-0.6,1.3-0.3h0.1l1.7,1
		c0.6,0.4,0.7,0.9,0.3,1.4c-0.6,0.8-1.4,1.4-2.4,1.8c-0.9,0.4-2.3,0.6-4.3,0.6c-3.1,0-5.4-0.8-6.7-2.4
		C37.5,40.5,36.8,38.3,36.8,35.5z M41.7,33.8h7.2c0-1-0.3-2.1-0.9-2.9c-0.6-0.8-1.5-1.1-2.9-1.1c-0.9,0-1.8,0.4-2.5,1.1
		C42,31.7,41.7,32.8,41.7,33.8z"/>
	<path class="st0" d="M57.1,44.2c-0.5,0-0.9-0.3-1-0.8V27.8c-0.1-0.5,0.3-0.9,0.7-1h2.8c0.5-0.1,0.9,0.3,1,0.8v1.2
		c0.4-0.8,1.1-1.5,1.9-1.8c0.9-0.4,1.9-0.5,2.8-0.5c1.6-0.1,3.1,0.5,4.3,1.6s1.7,3,1.7,5.9v9.2c0.1,0.5-0.3,0.9-0.7,1h-2.9
		c-0.5,0.1-0.9-0.2-1-0.7v-8.3c0-2.4-0.2-3.9-0.5-4.5s-1.1-1-2.1-1c-1.1-0.1-2.1,0.5-2.6,1.4c-0.6,0.9-0.9,2.8-0.9,5.6v6.5
		c0.1,0.5-0.3,0.9-0.7,1H57.1z"/>
	<path class="st0" d="M74.1,35.5c0-2.2,0.5-4.4,1.6-6.3c1.1-1.8,2.9-2.7,5.5-2.7c0.9,0,1.7,0.1,2.6,0.4c0.8,0.4,1.5,1,1.9,1.9h0.1
		c0-0.4-0.1-0.9-0.1-1.3v-6.7c0-0.7,0.3-1,1-1h2.5c0.6,0,1,0.3,1,1v22.4c0.1,0.5-0.3,0.9-0.8,1h-2.9c-0.6,0-0.8-0.3-0.8-1v-1
		c-0.4,0.8-1.1,1.5-1.9,1.8s-1.7,0.4-2.6,0.4c-2.6,0-4.5-0.9-5.5-2.7C74.6,39.9,74.1,37.7,74.1,35.5z M79,35.5
		c-0.1,1.4,0.2,2.9,0.7,4.2c0.5,1,1.5,1.6,3,1.6c0.8,0,1.6-0.5,2.2-1.4c0.7-1.1,1-2.4,0.9-3.6v-1.5c0.1-1.3-0.2-2.5-0.9-3.6
		c-0.6-1-1.3-1.4-2.2-1.4c-1.5,0-2.6,0.5-3,1.6C79.2,32.6,79,34.1,79,35.5z"/>
	<path class="st0" d="M109.4,35.5c0-2.8,0.7-5,2.1-6.6s3.4-2.4,5.9-2.4c2.9,0,5.1,0.8,6.5,2.3s2.1,4,2.1,7.3c0,0.7-0.3,1-0.9,1
		h-10.9c0.2,1.8,0.6,3,1.3,3.5s1.6,0.7,2.5,0.7c0.7,0,1.4-0.1,2.1-0.4c0.5-0.2,0.9-0.6,1.2-1c0.3-0.4,0.9-0.6,1.3-0.3h0.1l1.6,1
		c0.6,0.4,0.7,0.9,0.3,1.4c-0.6,0.8-1.4,1.4-2.4,1.8s-2.3,0.6-4.3,0.6c-3.1,0-5.4-0.8-6.7-2.4C110,40.5,109.3,38.3,109.4,35.5z
		 M114.2,33.8h7.2c0-1-0.3-2.1-0.9-2.9s-1.6-1.1-2.9-1.1c-0.9,0-1.8,0.4-2.5,1.1C114.6,31.7,114.2,32.8,114.2,33.8z"/>
	<path class="st0" d="M129.7,44.2c-0.5,0.1-0.9-0.3-1-0.8V20.8c-0.1-0.5,0.3-0.9,0.7-1h2.9c0.5-0.1,0.9,0.3,1,0.7v7
		c0,0.4,0,0.9-0.1,1.3h0.1c0.4-0.8,1.1-1.5,1.9-1.8c0.9-0.4,1.9-0.5,2.8-0.5c1.6-0.1,3.1,0.5,4.3,1.6c1.1,1.1,1.7,3,1.7,5.9v9.2
		c0.1,0.5-0.3,0.9-0.7,1h-2.9c-0.5,0.1-0.9-0.3-1-0.8v-8.2c0-2.4-0.2-3.9-0.5-4.5s-1-0.9-2.1-1c-1.1,0-2,0.5-2.6,1.4
		s-0.9,2.8-0.9,5.6v6.5c0.1,0.5-0.3,0.9-0.7,1H129.7z"/>
	<path class="st0" d="M146.7,35.5c0-2.8,0.7-5,2.1-6.6c1.4-1.6,3.4-2.4,5.9-2.4c2.9,0,5.1,0.8,6.5,2.3s2.1,4,2.1,7.3
		c0,0.7-0.3,1-0.9,1h-10.9c0.2,1.8,0.6,3,1.4,3.5s1.6,0.7,2.5,0.7c0.7,0,1.4-0.1,2.1-0.4c0.5-0.2,0.9-0.6,1.2-1s0.9-0.6,1.3-0.3h0.1
		l1.7,1c0.6,0.4,0.7,0.9,0.3,1.4c-0.6,0.8-1.4,1.4-2.4,1.8c-0.9,0.4-2.3,0.6-4.3,0.6c-3.2,0-5.4-0.8-6.7-2.4
		C147.3,40.5,146.6,38.3,146.7,35.5z M151.5,33.8h7.2c0-1-0.3-2.1-0.9-2.9c-0.6-0.8-1.5-1.1-2.8-1.1c-0.9,0-1.9,0.3-2.5,1.1
		C151.8,31.7,151.5,32.8,151.5,33.8z"/>
	<path class="st0" d="M165.3,35.5c0-2.2,0.5-4.4,1.6-6.3c1-1.8,2.9-2.7,5.5-2.7c0.9,0,1.8,0.1,2.6,0.4c0.8,0.4,1.5,1,1.9,1.9h0.1
		c0-0.4-0.1-0.9-0.1-1.3v-6.7c0-0.7,0.3-1,1-1h2.5c0.6,0,1,0.3,1,1v22.4c0.1,0.5-0.3,0.9-0.7,1h-2.8c-0.6,0-0.8-0.3-0.8-1v-1
		c-0.4,0.8-1.1,1.5-1.9,1.8c-0.8,0.3-1.7,0.4-2.6,0.4c-2.6,0-4.5-0.9-5.5-2.7C165.7,39.9,165.3,37.7,165.3,35.5z M170.1,35.5
		c-0.1,1.4,0.1,2.9,0.7,4.2c0.4,1,1.5,1.6,3,1.6c0.9,0,1.6-0.5,2.2-1.4c0.7-1.1,1-2.4,0.9-3.6v-1.5c0.1-1.3-0.2-2.5-0.9-3.6
		c-0.6-1-1.3-1.4-2.2-1.4c-1.5,0-2.6,0.5-3,1.6C170.3,32.6,170.1,34.1,170.1,35.5z"/>
	<path class="st0" d="M97.4,20.2h-2.6c-0.5-0.1-0.9,0.3-1,0.8v2.4c-0.1,0.5,0.3,0.9,0.7,1h2.9c0.5,0.1,0.9-0.3,1-0.7v-2.4
		c0.1-0.5-0.3-0.9-0.7-1L97.4,20.2z"/>
	<path class="st0" d="M97.4,26.8h-1.1c-0.4,0-0.7,0.3-0.9,0.6l-1.3,2.2c-0.2,0.4-0.3,0.9-0.3,1.4v12.1c-0.1,0.5,0.3,0.9,0.7,1h2.9
		c0.5,0.1,0.9-0.3,1-0.7V27.8c0.1-0.5-0.3-0.9-0.7-1H97.4z"/>
	<path class="st0" d="M105.6,19.5h-1.2c-0.4,0-0.7,0.3-0.8,0.6l-1.3,2.2c-0.2,0.4-0.3,0.9-0.3,1.4v19.5c-0.1,0.5,0.3,0.9,0.7,1h1.4
		c0.4,0,0.7-0.3,0.9-0.6l1.3-2.2c0.2-0.4,0.3-0.9,0.3-1.3V20.5c0.1-0.5-0.3-0.9-0.7-1H105.6z"/>
	<path class="st1" d="M195.8,53.5l9.5,4.1c0.6,0.3,1.3,0,1.6-0.6c0.1-0.1,0.1-0.3,0.1-0.5v-3H195.8z"/>
	<path class="st2" d="M216.5,12.9h-7.2v21.7c0,2.1-0.9,4.1-2.5,5.4l-12.9,11.1h22.6c6.6,0,7.2-0.5,7.2-7.2V20.1
		C223.7,13.4,223.2,12.9,216.5,12.9z"/>
	<path class="st1" d="M205.3,38.2l-15,12.9V12.9L205,0.3c0.5-0.4,1.3-0.4,1.7,0.1c0.2,0.2,0.3,0.5,0.3,0.8v33.4
		C207,36,206.4,37.3,205.3,38.2z"/>
	
		<linearGradient id="SVGID_1_" gradientUnits="userSpaceOnUse" x1="190.275" y1="1489.8898" x2="206.975" y2="1489.8898" gradientTransform="matrix(1 0 0 1 0 -1457.8898)">
		<stop  offset="1.947293e-07" style="stop-color:#C04100;stop-opacity:0.4"/>
		<stop  offset="0.2" style="stop-color:#C04100;stop-opacity:0.25"/>
		<stop  offset="0.9" style="stop-color:#C04100;stop-opacity:0"/>
	</linearGradient>
	<path class="st3" d="M190.3,12.9v38.2l15-12.9c1.1-0.9,1.7-2.2,1.7-3.6V12.9H190.3z"/>
</g>
</svg>
