<?xml version="1.0" encoding="UTF-8"?><svg id="Layer_2" xmlns="http://www.w3.org/2000/svg" viewBox="0 0 682.14 213.52"><defs><style>.cls-1{fill:#fffa05;}.cls-2{fill:#fff;}</style></defs><g id="Layer_2-2"><g><polygon class="cls-1" points="54.67 49.64 54.67 1.43 64.06 1.43 64.06 24.34 84.32 1.36 94.66 1.36 76.16 22.78 95.81 49.64 85.27 49.64 70.25 28.76 64.06 35.22 64.06 49.64 54.67 49.64"/><path class="cls-1" d="M112,50.32c-2.86,0-5.44-.49-7.75-1.46-2.31-.97-4.28-2.3-5.92-3.98-1.63-1.68-2.89-3.63-3.77-5.85-.88-2.22-1.33-4.56-1.33-7s.43-4.93,1.29-7.17c.86-2.24,2.11-4.22,3.74-5.92,1.63-1.7,3.61-3.05,5.95-4.05,2.33-1,4.95-1.5,7.85-1.5s5.5,.5,7.79,1.5c2.29,1,4.24,2.33,5.85,4.01,1.61,1.68,2.83,3.63,3.67,5.85,.84,2.22,1.26,4.53,1.26,6.94,0,.59-.01,1.16-.03,1.7-.02,.54-.08,1-.17,1.36h-27.54c.14,1.41,.48,2.65,1.02,3.74s1.25,2.02,2.11,2.79c.86,.77,1.84,1.36,2.92,1.77,1.09,.41,2.22,.61,3.4,.61,1.81,0,3.52-.44,5.13-1.33,1.61-.88,2.71-2.05,3.3-3.5l7.82,2.18c-1.32,2.72-3.41,4.95-6.29,6.7-2.88,1.75-6.31,2.62-10.3,2.62Zm9.25-21.49c-.23-2.67-1.21-4.82-2.96-6.43-1.75-1.61-3.87-2.41-6.36-2.41-1.22,0-2.37,.22-3.43,.65-1.07,.43-2.01,1.03-2.82,1.8-.82,.77-1.49,1.7-2.01,2.79-.52,1.09-.83,2.29-.92,3.6h18.5Z"/><path class="cls-1" d="M151.68,50.32c-2.86,0-5.44-.49-7.75-1.46-2.31-.97-4.28-2.3-5.92-3.98-1.63-1.68-2.89-3.63-3.77-5.85-.88-2.22-1.33-4.56-1.33-7s.43-4.93,1.29-7.17,2.11-4.22,3.74-5.92c1.63-1.7,3.62-3.05,5.95-4.05,2.33-1,4.95-1.5,7.85-1.5s5.5,.5,7.79,1.5c2.29,1,4.24,2.33,5.85,4.01,1.61,1.68,2.83,3.63,3.67,5.85,.84,2.22,1.26,4.53,1.26,6.94,0,.59-.01,1.16-.04,1.7s-.08,1-.17,1.36h-27.54c.13,1.41,.48,2.65,1.02,3.74s1.25,2.02,2.11,2.79c.86,.77,1.84,1.36,2.92,1.77,1.09,.41,2.22,.61,3.4,.61,1.81,0,3.52-.44,5.13-1.33,1.61-.88,2.71-2.05,3.3-3.5l7.82,2.18c-1.31,2.72-3.41,4.95-6.29,6.7-2.88,1.75-6.31,2.62-10.3,2.62Zm9.25-21.49c-.23-2.67-1.21-4.82-2.96-6.43-1.75-1.61-3.87-2.41-6.36-2.41-1.22,0-2.37,.22-3.43,.65-1.07,.43-2.01,1.03-2.82,1.8-.82,.77-1.48,1.7-2.01,2.79s-.83,2.29-.92,3.6h18.5Z"/><path class="cls-1" d="M195.75,21.9c-2.77,.05-5.24,.58-7.41,1.6-2.18,1.02-3.74,2.55-4.69,4.59v21.56h-9.11V14.01h8.37v7.62c.63-1.22,1.38-2.32,2.24-3.3,.86-.97,1.79-1.82,2.79-2.55,1-.72,2.01-1.28,3.03-1.67,1.02-.38,2.01-.58,2.96-.58h1.12c.25,0,.49,.02,.71,.07v8.3Z"/><path class="cls-1" d="M209.93,50.32c-3.67,0-6.46-1.18-8.36-3.54-1.9-2.36-2.86-5.85-2.86-10.47V14.01h9.11v20.33c0,5.49,1.97,8.23,5.92,8.23,1.77,0,3.48-.53,5.13-1.6,1.65-1.06,3-2.69,4.05-4.86V14.01h9.11v25.16c0,.95,.17,1.63,.51,2.04,.34,.41,.89,.63,1.67,.68v7.75c-.91,.18-1.67,.29-2.28,.34-.61,.04-1.17,.07-1.67,.07-1.63,0-2.96-.37-3.98-1.12-1.02-.75-1.62-1.78-1.8-3.09l-.2-2.86c-1.59,2.45-3.63,4.28-6.12,5.51-2.49,1.22-5.24,1.84-8.23,1.84Z"/><path class="cls-1" d="M260.11,47.8c-1.22,.54-2.72,1.09-4.49,1.63-1.77,.54-3.63,.82-5.58,.82-1.27,0-2.46-.16-3.57-.48-1.11-.32-2.09-.83-2.92-1.53s-1.51-1.61-2.01-2.72c-.5-1.11-.75-2.46-.75-4.05V21.01h-4.69v-7h4.69V2.45h9.11V14.01h7.48v7h-7.48v17.41c0,1.27,.33,2.17,.99,2.69,.66,.52,1.46,.78,2.41,.78s1.88-.16,2.79-.48c.91-.32,1.63-.59,2.18-.82l1.84,7.21Z"/><path class="cls-1" d="M273.31,50.32c-1.72,0-3.33-.28-4.83-.85s-2.79-1.36-3.88-2.38c-1.09-1.02-1.94-2.21-2.55-3.57-.61-1.36-.92-2.86-.92-4.49s.37-3.23,1.12-4.66c.75-1.43,1.79-2.64,3.13-3.64,1.34-1,2.93-1.78,4.79-2.35,1.86-.57,3.9-.85,6.12-.85,1.59,0,3.14,.14,4.66,.41,1.52,.27,2.87,.66,4.04,1.16v-2.04c0-2.36-.67-4.17-2.01-5.44-1.34-1.27-3.32-1.9-5.95-1.9-1.9,0-3.76,.34-5.58,1.02-1.81,.68-3.67,1.68-5.58,2.99l-2.79-5.78c4.58-3.04,9.52-4.56,14.82-4.56s9.1,1.26,11.93,3.77c2.83,2.52,4.25,6.15,4.25,10.91v11.08c0,.95,.17,1.63,.51,2.04,.34,.41,.89,.63,1.67,.68v7.75c-1.54,.32-2.88,.48-4.01,.48-1.72,0-3.05-.39-3.98-1.16-.93-.77-1.51-1.79-1.73-3.06l-.2-1.97c-1.59,2.09-3.51,3.67-5.78,4.76-2.27,1.09-4.69,1.63-7.28,1.63Zm2.58-6.66c1.54,0,3-.27,4.39-.82,1.38-.54,2.46-1.27,3.23-2.18,1-.77,1.5-1.63,1.5-2.58v-4.08c-1.09-.41-2.27-.74-3.54-.99-1.27-.25-2.49-.37-3.67-.37-2.36,0-4.28,.53-5.78,1.6-1.5,1.07-2.24,2.41-2.24,4.05,0,1.54,.59,2.82,1.77,3.84,1.18,1.02,2.63,1.53,4.35,1.53Z"/><path class="cls-1" d="M318.19,0h9.11V38.22c0,1.32,.32,2.33,.95,3.06,.63,.73,1.54,1.09,2.72,1.09,.54,0,1.14-.09,1.8-.27,.66-.18,1.28-.41,1.87-.68l1.22,6.94c-1.22,.59-2.65,1.04-4.28,1.36-1.63,.32-3.11,.48-4.42,.48-2.86,0-5.07-.76-6.63-2.28-1.56-1.52-2.35-3.68-2.35-6.49V0Z"/><path class="cls-1" d="M354.5,50.32c-2.9,0-5.51-.5-7.82-1.5-2.31-1-4.27-2.35-5.88-4.05-1.61-1.7-2.85-3.66-3.71-5.88-.86-2.22-1.29-4.56-1.29-7s.43-4.85,1.29-7.07c.86-2.22,2.1-4.18,3.71-5.88,1.61-1.7,3.57-3.05,5.88-4.05,2.31-1,4.92-1.5,7.82-1.5s5.5,.5,7.79,1.5c2.29,1,4.24,2.35,5.85,4.05,1.61,1.7,2.84,3.66,3.71,5.88,.86,2.22,1.29,4.58,1.29,7.07s-.43,4.78-1.29,7c-.86,2.22-2.09,4.18-3.67,5.88-1.59,1.7-3.54,3.05-5.85,4.05-2.31,1-4.92,1.5-7.82,1.5Zm-9.32-18.43c0,1.59,.24,3.03,.71,4.32s1.13,2.41,1.97,3.37c.84,.95,1.82,1.69,2.96,2.21,1.13,.52,2.36,.78,3.67,.78s2.54-.26,3.67-.78c1.13-.52,2.12-1.26,2.96-2.21,.84-.95,1.5-2.08,1.97-3.4,.48-1.31,.71-2.76,.71-4.35s-.24-2.97-.71-4.28c-.48-1.31-1.13-2.45-1.97-3.4-.84-.95-1.83-1.69-2.96-2.21-1.13-.52-2.36-.78-3.67-.78s-2.54,.27-3.67,.82c-1.13,.54-2.12,1.29-2.96,2.24-.84,.95-1.5,2.08-1.97,3.4-.48,1.32-.71,2.74-.71,4.28Z"/><path class="cls-1" d="M394.35,50.32c-2.9,0-5.51-.5-7.82-1.5-2.31-1-4.27-2.35-5.88-4.05-1.61-1.7-2.85-3.66-3.71-5.88-.86-2.22-1.29-4.56-1.29-7s.43-4.85,1.29-7.07c.86-2.22,2.1-4.18,3.71-5.88,1.61-1.7,3.57-3.05,5.88-4.05,2.31-1,4.92-1.5,7.82-1.5s5.5,.5,7.79,1.5c2.29,1,4.24,2.35,5.85,4.05,1.61,1.7,2.84,3.66,3.71,5.88,.86,2.22,1.29,4.58,1.29,7.07s-.43,4.78-1.29,7c-.86,2.22-2.09,4.18-3.67,5.88-1.59,1.7-3.54,3.05-5.85,4.05-2.31,1-4.92,1.5-7.82,1.5Zm-9.32-18.43c0,1.59,.24,3.03,.71,4.32s1.13,2.41,1.97,3.37c.84,.95,1.82,1.69,2.96,2.21,1.13,.52,2.36,.78,3.67,.78s2.54-.26,3.67-.78c1.13-.52,2.12-1.26,2.96-2.21,.84-.95,1.5-2.08,1.97-3.4,.48-1.31,.71-2.76,.71-4.35s-.24-2.97-.71-4.28c-.48-1.31-1.13-2.45-1.97-3.4-.84-.95-1.83-1.69-2.96-2.21-1.13-.52-2.36-.78-3.67-.78s-2.54,.27-3.67,.82c-1.13,.54-2.12,1.29-2.96,2.24-.84,.95-1.5,2.08-1.97,3.4-.48,1.32-.71,2.74-.71,4.28Z"/><path class="cls-1" d="M430.65,50.32c-2.99,0-5.92-.48-8.77-1.43-2.86-.95-5.3-2.31-7.34-4.08l3.4-5.71c2.18,1.54,4.29,2.71,6.36,3.5,2.06,.79,4.11,1.19,6.15,1.19,1.81,0,3.24-.34,4.28-1.02,1.04-.68,1.56-1.65,1.56-2.92s-.61-2.2-1.84-2.79c-1.22-.59-3.22-1.27-5.98-2.04-2.31-.63-4.28-1.25-5.92-1.84-1.63-.59-2.95-1.26-3.94-2.01-1-.75-1.72-1.61-2.18-2.58-.45-.97-.68-2.14-.68-3.5,0-1.81,.35-3.44,1.05-4.9,.7-1.45,1.69-2.69,2.96-3.71,1.27-1.02,2.75-1.8,4.45-2.35,1.7-.54,3.55-.82,5.54-.82,2.67,0,5.18,.38,7.51,1.16,2.33,.77,4.48,2.02,6.43,3.74l-3.67,5.51c-1.81-1.36-3.57-2.36-5.27-2.99-1.7-.63-3.39-.95-5.07-.95-1.54,0-2.83,.32-3.88,.95-1.04,.64-1.56,1.66-1.56,3.06,0,.63,.12,1.16,.37,1.56,.25,.41,.65,.77,1.19,1.09,.54,.32,1.26,.62,2.14,.92s1.99,.59,3.3,.92c2.45,.61,4.54,1.27,6.29,1.9,1.75,.64,3.17,1.36,4.28,2.18,1.11,.82,1.93,1.76,2.45,2.82,.52,1.07,.78,2.35,.78,3.84,0,3.49-1.29,6.25-3.88,8.26-2.58,2.02-6.1,3.03-10.54,3.03Z"/><path class="cls-1" d="M449.58,9.04V0h9.11V9.04h-9.11Zm0,40.6V14.01h9.11V49.64h-9.11Z"/><path class="cls-1" d="M486.58,21.9c-2.77,.05-5.24,.58-7.41,1.6-2.18,1.02-3.74,2.55-4.69,4.59v21.56h-9.11V14.01h8.36v7.62c.63-1.22,1.38-2.32,2.24-3.3,.86-.97,1.79-1.82,2.79-2.55,1-.72,2.01-1.28,3.03-1.67,1.02-.38,2.01-.58,2.96-.58h1.12c.25,0,.49,.02,.71,.07v8.3Z"/><path class="cls-1" d="M499.67,50.32c-1.72,0-3.33-.28-4.83-.85s-2.79-1.36-3.88-2.38c-1.09-1.02-1.94-2.21-2.55-3.57s-.92-2.86-.92-4.49,.37-3.23,1.12-4.66c.75-1.43,1.79-2.64,3.13-3.64,1.34-1,2.93-1.78,4.79-2.35,1.86-.57,3.9-.85,6.12-.85,1.59,0,3.14,.14,4.66,.41,1.52,.27,2.87,.66,4.05,1.16v-2.04c0-2.36-.67-4.17-2.01-5.44-1.34-1.27-3.32-1.9-5.95-1.9-1.9,0-3.76,.34-5.58,1.02-1.81,.68-3.67,1.68-5.58,2.99l-2.79-5.78c4.58-3.04,9.52-4.56,14.82-4.56s9.1,1.26,11.93,3.77c2.83,2.52,4.25,6.15,4.25,10.91v11.08c0,.95,.17,1.63,.51,2.04,.34,.41,.89,.63,1.67,.68v7.75c-1.54,.32-2.88,.48-4.01,.48-1.72,0-3.05-.39-3.98-1.16-.93-.77-1.51-1.79-1.73-3.06l-.2-1.97c-1.59,2.09-3.51,3.67-5.78,4.76-2.27,1.09-4.69,1.63-7.28,1.63Zm2.58-6.66c1.54,0,3-.27,4.39-.82s2.46-1.27,3.23-2.18c1-.77,1.5-1.63,1.5-2.58v-4.08c-1.09-.41-2.27-.74-3.54-.99-1.27-.25-2.49-.37-3.67-.37-2.36,0-4.28,.53-5.78,1.6-1.5,1.07-2.24,2.41-2.24,4.05,0,1.54,.59,2.82,1.77,3.84,1.18,1.02,2.63,1.53,4.35,1.53Z"/><path class="cls-1" d="M547.9,47.8c-1.22,.54-2.72,1.09-4.49,1.63-1.77,.54-3.63,.82-5.58,.82-1.27,0-2.46-.16-3.57-.48-1.11-.32-2.09-.83-2.92-1.53-.84-.7-1.51-1.61-2.01-2.72-.5-1.11-.75-2.46-.75-4.05V21.01h-4.69v-7h4.69V2.45h9.11V14.01h7.48v7h-7.48v17.41c0,1.27,.33,2.17,.99,2.69,.66,.52,1.46,.78,2.41,.78s1.88-.16,2.79-.48c.91-.32,1.63-.59,2.18-.82l1.84,7.21Z"/><path class="cls-1" d="M561.11,50.32c-1.72,0-3.33-.28-4.83-.85s-2.79-1.36-3.88-2.38c-1.09-1.02-1.94-2.21-2.55-3.57s-.92-2.86-.92-4.49,.37-3.23,1.12-4.66c.75-1.43,1.79-2.64,3.13-3.64,1.34-1,2.93-1.78,4.79-2.35,1.86-.57,3.9-.85,6.12-.85,1.59,0,3.14,.14,4.66,.41,1.52,.27,2.87,.66,4.05,1.16v-2.04c0-2.36-.67-4.17-2.01-5.44-1.34-1.27-3.32-1.9-5.95-1.9-1.9,0-3.76,.34-5.58,1.02-1.81,.68-3.67,1.68-5.58,2.99l-2.79-5.78c4.58-3.04,9.52-4.56,14.82-4.56s9.1,1.26,11.93,3.77c2.83,2.52,4.25,6.15,4.25,10.91v11.08c0,.95,.17,1.63,.51,2.04,.34,.41,.89,.63,1.67,.68v7.75c-1.54,.32-2.88,.48-4.01,.48-1.72,0-3.05-.39-3.98-1.16-.93-.77-1.51-1.79-1.73-3.06l-.2-1.97c-1.59,2.09-3.51,3.67-5.78,4.76-2.27,1.09-4.69,1.63-7.28,1.63Zm2.58-6.66c1.54,0,3-.27,4.39-.82s2.46-1.27,3.23-2.18c1-.77,1.5-1.63,1.5-2.58v-4.08c-1.09-.41-2.27-.74-3.54-.99-1.27-.25-2.49-.37-3.67-.37-2.36,0-4.28,.53-5.78,1.6-1.5,1.07-2.24,2.41-2.24,4.05,0,1.54,.59,2.82,1.77,3.84,1.18,1.02,2.63,1.53,4.35,1.53Z"/><path class="cls-1" d="M602.67,50.32c-2.99,0-5.92-.48-8.77-1.43-2.86-.95-5.3-2.31-7.34-4.08l3.4-5.71c2.18,1.54,4.29,2.71,6.36,3.5,2.06,.79,4.11,1.19,6.15,1.19,1.81,0,3.24-.34,4.28-1.02,1.04-.68,1.56-1.65,1.56-2.92s-.61-2.2-1.84-2.79c-1.22-.59-3.22-1.27-5.98-2.04-2.31-.63-4.28-1.25-5.92-1.84-1.63-.59-2.95-1.26-3.94-2.01-1-.75-1.72-1.61-2.18-2.58-.45-.97-.68-2.14-.68-3.5,0-1.81,.35-3.44,1.05-4.9,.7-1.45,1.69-2.69,2.96-3.71,1.27-1.02,2.75-1.8,4.45-2.35,1.7-.54,3.55-.82,5.54-.82,2.67,0,5.18,.38,7.51,1.16,2.33,.77,4.48,2.02,6.43,3.74l-3.67,5.51c-1.81-1.36-3.57-2.36-5.27-2.99-1.7-.63-3.39-.95-5.07-.95-1.54,0-2.83,.32-3.88,.95-1.04,.64-1.56,1.66-1.56,3.06,0,.63,.12,1.16,.37,1.56,.25,.41,.65,.77,1.19,1.09,.54,.32,1.26,.62,2.14,.92s1.99,.59,3.3,.92c2.45,.61,4.54,1.27,6.29,1.9,1.75,.64,3.17,1.36,4.28,2.18,1.11,.82,1.93,1.76,2.45,2.82,.52,1.07,.78,2.35,.78,3.84,0,3.49-1.29,6.25-3.88,8.26-2.58,2.02-6.1,3.03-10.54,3.03Z"/><path class="cls-1" d="M642.63,47.8c-1.22,.54-2.72,1.09-4.49,1.63-1.77,.54-3.63,.82-5.58,.82-1.27,0-2.46-.16-3.57-.48-1.11-.32-2.09-.83-2.92-1.53-.84-.7-1.51-1.61-2.01-2.72-.5-1.11-.75-2.46-.75-4.05V21.01h-4.69v-7h4.69V2.45h9.11V14.01h7.48v7h-7.48v17.41c0,1.27,.33,2.17,.99,2.69,.66,.52,1.46,.78,2.41,.78s1.88-.16,2.79-.48c.91-.32,1.63-.59,2.18-.82l1.84,7.21Z"/><path class="cls-2" d="M8.16,143.89c-1.59,0-3.07-.23-4.45-.68-1.38-.45-2.62-1.18-3.71-2.18l2.79-4.01c.64,.59,1.37,1,2.21,1.22,.84,.23,1.67,.34,2.48,.34,.72,0,1.43-.15,2.11-.44,.68-.3,1.29-.69,1.84-1.19,.54-.5,.97-1.11,1.29-1.84,.32-.73,.48-1.5,.48-2.31v-37.06h5.98v36.65c0,1.68-.31,3.22-.92,4.62-.61,1.4-1.43,2.62-2.45,3.64s-2.19,1.81-3.5,2.38c-1.32,.57-2.7,.85-4.15,.85Zm5.03-54.81v-7.48h5.98v7.48h-5.98Z"/><path class="cls-2" d="M36.25,131.92c-1.68,0-3.24-.28-4.69-.85s-2.71-1.35-3.77-2.35c-1.07-1-1.9-2.17-2.52-3.5-.61-1.34-.92-2.8-.92-4.39s.36-3.12,1.09-4.45c.72-1.34,1.76-2.48,3.09-3.43,1.34-.95,2.92-1.7,4.76-2.24s3.84-.82,6.02-.82c1.72,0,3.47,.16,5.24,.48,1.77,.32,3.33,.75,4.69,1.29v-2.86c0-2.9-.82-5.18-2.45-6.83-1.63-1.65-3.94-2.48-6.94-2.48-3.58,0-7.34,1.38-11.29,4.15l-1.97-3.88c4.58-3.08,9.18-4.62,13.8-4.62s8.31,1.25,10.91,3.74c2.61,2.49,3.91,6.01,3.91,10.54v14.48c0,1.41,.63,2.13,1.9,2.18v5.17c-.63,.09-1.16,.16-1.56,.2-.41,.04-.84,.07-1.29,.07-1.18,0-2.12-.35-2.82-1.05-.7-.7-1.12-1.55-1.26-2.55l-.14-2.52c-1.59,2.13-3.59,3.75-6.02,4.86-2.43,1.11-5.02,1.67-7.79,1.67Zm1.56-4.49c2.13,0,4.12-.4,5.95-1.19,1.84-.79,3.23-1.85,4.18-3.16,.86-.86,1.29-1.74,1.29-2.65v-5.24c-2.9-1.13-5.92-1.7-9.04-1.7s-5.43,.64-7.31,1.9c-1.88,1.27-2.82,2.92-2.82,4.96,0,1,.19,1.93,.58,2.79,.38,.86,.93,1.61,1.63,2.24,.7,.63,1.53,1.13,2.48,1.5,.95,.36,1.97,.54,3.06,.54Z"/><path class="cls-2" d="M93.78,131.92c-2.86,0-5.67-.44-8.43-1.33-2.77-.88-5.15-2.16-7.14-3.84l2.58-4.01c2.08,1.59,4.17,2.78,6.26,3.57,2.08,.79,4.29,1.19,6.6,1.19,2.58,0,4.63-.51,6.15-1.53,1.52-1.02,2.28-2.46,2.28-4.32,0-.86-.2-1.6-.61-2.21s-1.02-1.14-1.84-1.6c-.82-.45-1.86-.86-3.13-1.22-1.27-.36-2.74-.75-4.42-1.16-2.13-.54-3.97-1.06-5.51-1.56-1.54-.5-2.81-1.09-3.81-1.77-1-.68-1.72-1.5-2.18-2.45-.45-.95-.68-2.13-.68-3.54,0-1.77,.35-3.34,1.05-4.73,.7-1.38,1.67-2.54,2.89-3.47,1.22-.93,2.66-1.63,4.32-2.11,1.65-.48,3.43-.71,5.34-.71,2.67,0,5.17,.43,7.48,1.29,2.31,.86,4.26,2,5.85,3.4l-2.72,3.6c-1.5-1.31-3.17-2.3-5.03-2.96-1.86-.66-3.76-.99-5.71-.99-2.18,0-4.02,.46-5.54,1.39-1.52,.93-2.28,2.41-2.28,4.45,0,.82,.15,1.5,.44,2.04,.29,.54,.78,1.02,1.46,1.43,.68,.41,1.55,.77,2.62,1.09s2.35,.66,3.84,1.02c2.36,.54,4.41,1.1,6.15,1.67,1.75,.57,3.2,1.24,4.35,2.01,1.16,.77,2.02,1.68,2.58,2.72,.57,1.04,.85,2.31,.85,3.81,0,3.31-1.27,5.94-3.81,7.89-2.54,1.95-5.96,2.92-10.27,2.92Z"/><path class="cls-2" d="M122.96,131.92c-1.68,0-3.24-.28-4.69-.85-1.45-.57-2.71-1.35-3.77-2.35-1.07-1-1.9-2.17-2.52-3.5-.61-1.34-.92-2.8-.92-4.39s.36-3.12,1.09-4.45c.72-1.34,1.76-2.48,3.09-3.43,1.34-.95,2.92-1.7,4.76-2.24s3.84-.82,6.02-.82c1.72,0,3.47,.16,5.24,.48,1.77,.32,3.33,.75,4.69,1.29v-2.86c0-2.9-.82-5.18-2.45-6.83-1.63-1.65-3.94-2.48-6.94-2.48-3.58,0-7.34,1.38-11.29,4.15l-1.97-3.88c4.58-3.08,9.18-4.62,13.8-4.62s8.31,1.25,10.91,3.74c2.61,2.49,3.91,6.01,3.91,10.54v14.48c0,1.41,.63,2.13,1.9,2.18v5.17c-.64,.09-1.16,.16-1.56,.2-.41,.04-.84,.07-1.29,.07-1.18,0-2.12-.35-2.82-1.05-.7-.7-1.12-1.55-1.26-2.55l-.13-2.52c-1.59,2.13-3.59,3.75-6.02,4.86-2.43,1.11-5.02,1.67-7.79,1.67Zm1.56-4.49c2.13,0,4.11-.4,5.95-1.19,1.84-.79,3.23-1.85,4.18-3.16,.86-.86,1.29-1.74,1.29-2.65v-5.24c-2.9-1.13-5.92-1.7-9.04-1.7s-5.43,.64-7.31,1.9c-1.88,1.27-2.82,2.92-2.82,4.96,0,1,.19,1.93,.58,2.79,.38,.86,.93,1.61,1.63,2.24s1.53,1.13,2.48,1.5c.95,.36,1.97,.54,3.06,.54Z"/><path class="cls-2" d="M158.72,131.92c-1.68,0-3.24-.28-4.69-.85-1.45-.57-2.71-1.35-3.77-2.35-1.07-1-1.9-2.17-2.52-3.5s-.92-2.8-.92-4.39,.36-3.12,1.09-4.45c.72-1.34,1.76-2.48,3.09-3.43,1.34-.95,2.92-1.7,4.76-2.24s3.84-.82,6.02-.82c1.72,0,3.47,.16,5.24,.48,1.77,.32,3.33,.75,4.69,1.29v-2.86c0-2.9-.82-5.18-2.45-6.83-1.63-1.65-3.94-2.48-6.94-2.48-3.58,0-7.34,1.38-11.29,4.15l-1.97-3.88c4.58-3.08,9.18-4.62,13.8-4.62s8.31,1.25,10.91,3.74c2.61,2.49,3.91,6.01,3.91,10.54v14.48c0,1.41,.63,2.13,1.9,2.18v5.17c-.63,.09-1.16,.16-1.56,.2-.41,.04-.84,.07-1.29,.07-1.18,0-2.12-.35-2.82-1.05-.7-.7-1.12-1.55-1.26-2.55l-.14-2.52c-1.59,2.13-3.59,3.75-6.02,4.86-2.43,1.11-5.02,1.67-7.79,1.67Zm1.56-4.49c2.13,0,4.11-.4,5.95-1.19,1.84-.79,3.23-1.85,4.18-3.16,.86-.86,1.29-1.74,1.29-2.65v-5.24c-2.9-1.13-5.92-1.7-9.04-1.7s-5.43,.64-7.31,1.9c-1.88,1.27-2.82,2.92-2.82,4.96,0,1,.19,1.93,.58,2.79,.38,.86,.93,1.61,1.63,2.24s1.53,1.13,2.48,1.5c.95,.36,1.97,.54,3.06,.54Z"/><path class="cls-2" d="M199.25,143.89c-1.59,0-3.07-.23-4.45-.68s-2.62-1.18-3.71-2.18l2.79-4.01c.63,.59,1.37,1,2.21,1.22,.84,.23,1.67,.34,2.48,.34,.72,0,1.43-.15,2.11-.44,.68-.3,1.29-.69,1.84-1.19,.54-.5,.97-1.11,1.29-1.84,.32-.73,.48-1.5,.48-2.31v-37.06h5.98v36.65c0,1.68-.31,3.22-.92,4.62-.61,1.4-1.43,2.62-2.45,3.64-1.02,1.02-2.19,1.81-3.5,2.38-1.32,.57-2.7,.85-4.15,.85Zm5.03-54.81v-7.48h5.98v7.48h-5.98Z"/><path class="cls-2" d="M227.34,131.92c-1.68,0-3.24-.28-4.69-.85-1.45-.57-2.71-1.35-3.77-2.35-1.07-1-1.9-2.17-2.52-3.5s-.92-2.8-.92-4.39,.36-3.12,1.09-4.45c.72-1.34,1.76-2.48,3.09-3.43,1.34-.95,2.92-1.7,4.76-2.24s3.84-.82,6.02-.82c1.72,0,3.47,.16,5.24,.48,1.77,.32,3.33,.75,4.69,1.29v-2.86c0-2.9-.82-5.18-2.45-6.83-1.63-1.65-3.94-2.48-6.94-2.48-3.58,0-7.34,1.38-11.29,4.15l-1.97-3.88c4.58-3.08,9.18-4.62,13.8-4.62s8.31,1.25,10.91,3.74c2.61,2.49,3.91,6.01,3.91,10.54v14.48c0,1.41,.63,2.13,1.9,2.18v5.17c-.63,.09-1.16,.16-1.56,.2-.41,.04-.84,.07-1.29,.07-1.18,0-2.12-.35-2.82-1.05-.7-.7-1.12-1.55-1.26-2.55l-.14-2.52c-1.59,2.13-3.59,3.75-6.02,4.86-2.43,1.11-5.02,1.67-7.79,1.67Zm1.56-4.49c2.13,0,4.11-.4,5.95-1.19,1.84-.79,3.23-1.85,4.18-3.16,.86-.86,1.29-1.74,1.29-2.65v-5.24c-2.9-1.13-5.92-1.7-9.04-1.7s-5.43,.64-7.31,1.9c-1.88,1.27-2.82,2.92-2.82,4.96,0,1,.19,1.93,.58,2.79,.38,.86,.93,1.61,1.63,2.24s1.53,1.13,2.48,1.5c.95,.36,1.97,.54,3.06,.54Zm-5.44-38.62v-6.94h5.03v6.94h-5.03Zm11.02,0v-6.94h5.03v6.94h-5.03Z"/><path class="cls-2" d="M272.99,100.98c-2.99,.09-5.63,.86-7.92,2.31-2.29,1.45-3.91,3.47-4.86,6.05v21.9h-5.98v-35.5h5.58v8.23c1.22-2.45,2.83-4.43,4.83-5.95,1.99-1.52,4.12-2.37,6.39-2.55h1.16c.32,0,.59,.02,.82,.07v5.44Z"/><path class="cls-2" d="M290.42,131.65c-2.4,0-4.61-.5-6.63-1.5-2.02-1-3.75-2.33-5.2-4.01-1.45-1.68-2.57-3.6-3.37-5.78s-1.19-4.44-1.19-6.8c0-2.49,.4-4.86,1.19-7.11s1.91-4.2,3.37-5.88c1.45-1.68,3.18-3,5.2-3.98,2.02-.97,4.25-1.46,6.7-1.46,2.99,0,5.58,.73,7.75,2.18,2.18,1.45,4.01,3.29,5.51,5.51v-7.07h5.3v35.09c0,2.54-.48,4.77-1.43,6.7-.95,1.93-2.24,3.55-3.88,4.86-1.63,1.31-3.55,2.31-5.75,2.99-2.2,.68-4.55,1.02-7.04,1.02-4.04,0-7.31-.69-9.83-2.07s-4.61-3.3-6.29-5.75l3.47-3.06c1.4,2.08,3.22,3.65,5.44,4.69,2.22,1.04,4.62,1.56,7.21,1.56,1.63,0,3.18-.23,4.66-.68,1.47-.45,2.75-1.13,3.84-2.04,1.09-.91,1.96-2.04,2.62-3.4s.99-2.97,.99-4.83v-6.26c-.68,1.09-1.48,2.07-2.41,2.96s-1.94,1.63-3.03,2.24-2.24,1.08-3.47,1.39c-1.22,.32-2.47,.48-3.74,.48Zm1.84-4.9c1.27,0,2.49-.23,3.67-.68,1.18-.45,2.27-1.05,3.26-1.8,1-.75,1.84-1.6,2.52-2.55,.68-.95,1.13-1.93,1.36-2.92v-10.2c-.5-1.22-1.14-2.33-1.94-3.33-.79-1-1.69-1.87-2.69-2.62-1-.75-2.07-1.33-3.23-1.73s-2.32-.61-3.5-.61c-1.81,0-3.43,.39-4.86,1.16-1.43,.77-2.64,1.79-3.64,3.06-1,1.27-1.77,2.71-2.31,4.32-.54,1.61-.82,3.23-.82,4.86,0,1.77,.32,3.45,.95,5.03,.63,1.59,1.5,2.97,2.58,4.15,1.09,1.18,2.37,2.12,3.84,2.82,1.47,.7,3.07,1.05,4.79,1.05Z"/><path class="cls-2" d="M370.34,131.24h-5.98v-19.86c0-3.72-.6-6.46-1.8-8.23s-2.98-2.65-5.34-2.65-4.63,.87-6.56,2.62c-1.93,1.75-3.3,4-4.12,6.77v21.35h-5.98v-19.86c0-3.81-.59-6.57-1.77-8.3-1.18-1.72-2.95-2.58-5.3-2.58s-4.58,.85-6.53,2.55c-1.95,1.7-3.33,3.96-4.15,6.77v21.42h-5.98v-35.5h5.44v7.62c1.45-2.63,3.33-4.66,5.64-6.09,2.31-1.43,4.92-2.14,7.82-2.14s5.36,.81,7.11,2.41c1.74,1.61,2.82,3.68,3.23,6.22,3.17-5.76,7.68-8.64,13.53-8.64,2.04,0,3.75,.37,5.13,1.12,1.38,.75,2.48,1.79,3.3,3.13,.82,1.34,1.4,2.91,1.77,4.73,.36,1.81,.54,3.79,.54,5.92v21.22Z"/><path class="cls-2" d="M377.92,89.08v-7.48h5.98v7.48h-5.98Zm0,42.16v-35.5h5.98v35.5h-5.98Z"/><path class="cls-2" d="M404.31,131.92c-2.86,0-5.67-.44-8.43-1.33-2.77-.88-5.15-2.16-7.14-3.84l2.58-4.01c2.08,1.59,4.17,2.78,6.26,3.57,2.08,.79,4.28,1.19,6.6,1.19,2.58,0,4.63-.51,6.15-1.53,1.52-1.02,2.28-2.46,2.28-4.32,0-.86-.2-1.6-.61-2.21s-1.02-1.14-1.84-1.6c-.82-.45-1.86-.86-3.13-1.22-1.27-.36-2.74-.75-4.42-1.16-2.13-.54-3.97-1.06-5.51-1.56-1.54-.5-2.81-1.09-3.81-1.77-1-.68-1.72-1.5-2.18-2.45-.45-.95-.68-2.13-.68-3.54,0-1.77,.35-3.34,1.05-4.73,.7-1.38,1.67-2.54,2.89-3.47,1.22-.93,2.66-1.63,4.32-2.11,1.65-.48,3.43-.71,5.34-.71,2.67,0,5.17,.43,7.48,1.29,2.31,.86,4.26,2,5.85,3.4l-2.72,3.6c-1.5-1.31-3.17-2.3-5.03-2.96-1.86-.66-3.76-.99-5.71-.99-2.18,0-4.02,.46-5.54,1.39-1.52,.93-2.28,2.41-2.28,4.45,0,.82,.15,1.5,.44,2.04,.29,.54,.78,1.02,1.46,1.43,.68,.41,1.55,.77,2.62,1.09,1.06,.32,2.35,.66,3.84,1.02,2.36,.54,4.41,1.1,6.15,1.67,1.75,.57,3.2,1.24,4.35,2.01,1.16,.77,2.02,1.68,2.58,2.72,.57,1.04,.85,2.31,.85,3.81,0,3.31-1.27,5.94-3.81,7.89-2.54,1.95-5.96,2.92-10.27,2.92Z"/><path class="cls-2" d="M439.48,131.92c-2.68,0-5.12-.49-7.34-1.46-2.22-.97-4.13-2.3-5.71-3.98-1.59-1.68-2.82-3.64-3.71-5.88-.88-2.24-1.33-4.61-1.33-7.11s.44-4.85,1.33-7.07c.88-2.22,2.13-4.17,3.74-5.85,1.61-1.68,3.52-3,5.75-3.98,2.22-.97,4.67-1.46,7.34-1.46s5.11,.5,7.31,1.5c2.2,1,4.07,2.32,5.61,3.98,1.54,1.66,2.73,3.58,3.57,5.78s1.26,4.48,1.26,6.83c0,.5-.01,.95-.03,1.36-.02,.41-.06,.73-.1,.95h-29.44c.14,1.77,.54,3.38,1.22,4.83,.68,1.45,1.56,2.7,2.65,3.74,1.09,1.04,2.32,1.86,3.71,2.45,1.38,.59,2.84,.88,4.39,.88,1.09,0,2.15-.15,3.2-.44,1.04-.29,2.02-.69,2.92-1.19,.91-.5,1.71-1.11,2.41-1.84,.7-.72,1.23-1.54,1.6-2.45l5.17,1.43c-.59,1.32-1.39,2.52-2.41,3.6-1.02,1.09-2.2,2.03-3.54,2.82-1.34,.79-2.82,1.42-4.45,1.87s-3.33,.68-5.1,.68Zm12.17-20.81c-.14-1.68-.56-3.23-1.26-4.66-.7-1.43-1.59-2.64-2.65-3.64-1.07-1-2.3-1.78-3.71-2.35-1.41-.57-2.9-.85-4.49-.85s-3.08,.28-4.49,.85c-1.41,.57-2.64,1.36-3.71,2.38-1.07,1.02-1.93,2.23-2.58,3.64-.66,1.41-1.05,2.95-1.19,4.62h24.07Z"/><path class="cls-2" d="M495.99,131.92c-2.68,0-5.11-.5-7.31-1.5-2.2-1-4.08-2.33-5.64-4.01-1.56-1.68-2.78-3.63-3.64-5.85-.86-2.22-1.29-4.56-1.29-7s.44-4.85,1.33-7.07c.88-2.22,2.11-4.17,3.67-5.85,1.56-1.68,3.44-3.01,5.64-4.01,2.2-1,4.61-1.5,7.24-1.5s5.05,.5,7.28,1.5c2.22,1,4.11,2.34,5.68,4.01,1.56,1.68,2.79,3.63,3.67,5.85,.88,2.22,1.33,4.58,1.33,7.07s-.43,4.78-1.29,7c-.86,2.22-2.09,4.17-3.67,5.85-1.59,1.68-3.48,3.02-5.68,4.01-2.2,1-4.64,1.5-7.31,1.5Zm-11.76-18.29c0,1.86,.31,3.58,.92,5.17,.61,1.59,1.45,2.97,2.52,4.15,1.06,1.18,2.31,2.11,3.74,2.79,1.43,.68,2.96,1.02,4.59,1.02s3.16-.34,4.59-1.02c1.43-.68,2.69-1.62,3.77-2.82,1.09-1.2,1.94-2.61,2.55-4.22,.61-1.61,.92-3.34,.92-5.2s-.31-3.52-.92-5.13c-.61-1.61-1.46-3.01-2.55-4.22s-2.35-2.14-3.77-2.82-2.96-1.02-4.59-1.02-3.16,.35-4.59,1.05c-1.43,.7-2.68,1.66-3.74,2.86-1.07,1.2-1.9,2.61-2.52,4.22-.61,1.61-.92,3.34-.92,5.2Z"/><path class="cls-2" d="M531.63,131.92c-2.86,0-5.67-.44-8.43-1.33-2.77-.88-5.15-2.16-7.14-3.84l2.58-4.01c2.08,1.59,4.17,2.78,6.26,3.57,2.08,.79,4.28,1.19,6.6,1.19,2.58,0,4.63-.51,6.15-1.53,1.52-1.02,2.28-2.46,2.28-4.32,0-.86-.2-1.6-.61-2.21s-1.02-1.14-1.84-1.6c-.82-.45-1.86-.86-3.13-1.22-1.27-.36-2.74-.75-4.42-1.16-2.13-.54-3.97-1.06-5.51-1.56-1.54-.5-2.81-1.09-3.81-1.77-1-.68-1.72-1.5-2.18-2.45-.45-.95-.68-2.13-.68-3.54,0-1.77,.35-3.34,1.05-4.73,.7-1.38,1.67-2.54,2.89-3.47,1.22-.93,2.66-1.63,4.32-2.11,1.65-.48,3.43-.71,5.34-.71,2.67,0,5.17,.43,7.48,1.29,2.31,.86,4.26,2,5.85,3.4l-2.72,3.6c-1.5-1.31-3.17-2.3-5.03-2.96-1.86-.66-3.76-.99-5.71-.99-2.18,0-4.02,.46-5.54,1.39-1.52,.93-2.28,2.41-2.28,4.45,0,.82,.15,1.5,.44,2.04,.29,.54,.78,1.02,1.46,1.43,.68,.41,1.55,.77,2.62,1.09,1.06,.32,2.35,.66,3.84,1.02,2.36,.54,4.41,1.1,6.15,1.67,1.75,.57,3.2,1.24,4.35,2.01,1.16,.77,2.02,1.68,2.58,2.72,.57,1.04,.85,2.31,.85,3.81,0,3.31-1.27,5.94-3.81,7.89-2.54,1.95-5.96,2.92-10.27,2.92Z"/><path class="cls-2" d="M569.65,129.47c-.36,.18-.84,.4-1.43,.65-.59,.25-1.26,.5-2.01,.75-.75,.25-1.56,.45-2.45,.61-.88,.16-1.8,.24-2.75,.24-2.18,0-4.06-.6-5.64-1.8-1.59-1.2-2.38-3.07-2.38-5.61v-23.87h-4.83v-4.69h4.83v-11.83h5.98v11.83h7.96v4.69h-7.96v22.03c.09,1.32,.52,2.27,1.29,2.86,.77,.59,1.68,.88,2.72,.88,1.18,0,2.25-.19,3.23-.58,.97-.38,1.64-.69,2.01-.92l1.43,4.76Z"/><path class="cls-2" d="M583.43,131.92c-3.72,0-6.53-1.25-8.43-3.74-1.9-2.49-2.86-6.21-2.86-11.15v-21.28h5.98v20.13c0,7.25,2.52,10.88,7.55,10.88,2.45,0,4.75-.78,6.9-2.35,2.15-1.56,3.75-3.71,4.79-6.43v-22.24h5.98v28.15c0,1.41,.63,2.13,1.9,2.18v5.17c-.68,.09-1.21,.15-1.6,.17-.39,.02-.76,.03-1.12,.03-1.18,0-2.17-.35-2.96-1.05-.79-.7-1.21-1.58-1.26-2.62l-.14-4.15c-1.59,2.68-3.67,4.73-6.26,6.15s-5.42,2.14-8.5,2.14Z"/><path class="cls-2" d="M625.55,131.65c-2.4,0-4.61-.5-6.63-1.5-2.02-1-3.75-2.33-5.2-4.01-1.45-1.68-2.57-3.6-3.37-5.78-.79-2.18-1.19-4.44-1.19-6.8,0-2.49,.4-4.86,1.19-7.11,.79-2.24,1.91-4.2,3.37-5.88,1.45-1.68,3.18-3,5.2-3.98,2.02-.97,4.25-1.46,6.7-1.46,2.99,0,5.58,.73,7.75,2.18,2.18,1.45,4.01,3.29,5.51,5.51v-7.07h5.3v35.09c0,2.54-.48,4.77-1.43,6.7-.95,1.93-2.24,3.55-3.88,4.86-1.63,1.31-3.55,2.31-5.75,2.99-2.2,.68-4.54,1.02-7.04,1.02-4.04,0-7.31-.69-9.83-2.07-2.52-1.38-4.61-3.3-6.29-5.75l3.47-3.06c1.4,2.08,3.22,3.65,5.44,4.69,2.22,1.04,4.62,1.56,7.21,1.56,1.63,0,3.18-.23,4.66-.68,1.47-.45,2.75-1.13,3.84-2.04,1.09-.91,1.96-2.04,2.62-3.4s.99-2.97,.99-4.83v-6.26c-.68,1.09-1.49,2.07-2.41,2.96-.93,.88-1.94,1.63-3.03,2.24s-2.24,1.08-3.47,1.39c-1.22,.32-2.47,.48-3.74,.48Zm1.84-4.9c1.27,0,2.49-.23,3.67-.68,1.18-.45,2.27-1.05,3.26-1.8,1-.75,1.84-1.6,2.52-2.55,.68-.95,1.13-1.93,1.36-2.92v-10.2c-.5-1.22-1.15-2.33-1.94-3.33s-1.69-1.87-2.69-2.62c-1-.75-2.07-1.33-3.23-1.73-1.16-.41-2.32-.61-3.5-.61-1.81,0-3.43,.39-4.86,1.16-1.43,.77-2.64,1.79-3.64,3.06-1,1.27-1.77,2.71-2.31,4.32-.54,1.61-.82,3.23-.82,4.86,0,1.77,.32,3.45,.95,5.03,.63,1.59,1.5,2.97,2.58,4.15,1.09,1.18,2.37,2.12,3.84,2.82,1.47,.7,3.07,1.05,4.79,1.05Z"/><path class="cls-2" d="M661.26,131.92c-1.68,0-3.24-.28-4.69-.85-1.45-.57-2.71-1.35-3.77-2.35s-1.9-2.17-2.52-3.5-.92-2.8-.92-4.39,.36-3.12,1.09-4.45c.72-1.34,1.76-2.48,3.09-3.43s2.92-1.7,4.76-2.24,3.84-.82,6.02-.82c1.72,0,3.47,.16,5.24,.48,1.77,.32,3.33,.75,4.69,1.29v-2.86c0-2.9-.82-5.18-2.45-6.83-1.63-1.65-3.94-2.48-6.94-2.48-3.58,0-7.34,1.38-11.29,4.15l-1.97-3.88c4.58-3.08,9.18-4.62,13.8-4.62s8.31,1.25,10.91,3.74c2.61,2.49,3.91,6.01,3.91,10.54v14.48c0,1.41,.63,2.13,1.9,2.18v5.17c-.64,.09-1.16,.16-1.56,.2-.41,.04-.84,.07-1.29,.07-1.18,0-2.12-.35-2.82-1.05-.7-.7-1.12-1.55-1.26-2.55l-.14-2.52c-1.59,2.13-3.59,3.75-6.02,4.86s-5.02,1.67-7.79,1.67Zm1.56-4.49c2.13,0,4.11-.4,5.95-1.19,1.84-.79,3.23-1.85,4.18-3.16,.86-.86,1.29-1.74,1.29-2.65v-5.24c-2.9-1.13-5.92-1.7-9.04-1.7s-5.43,.64-7.31,1.9c-1.88,1.27-2.82,2.92-2.82,4.96,0,1,.19,1.93,.58,2.79,.38,.86,.93,1.61,1.63,2.24,.7,.63,1.53,1.13,2.48,1.5,.95,.36,1.97,.54,3.06,.54Z"/><polygon class="cls-2" points="72.41 212.84 60.17 195.5 53.37 201.89 53.37 212.84 47.38 212.84 47.38 163.2 53.37 163.2 53.37 195.84 71.59 177.41 78.19 177.41 64.04 192.1 78.87 212.84 72.41 212.84"/><path class="cls-2" d="M90.91,213.52c-1.68,0-3.24-.28-4.69-.85-1.45-.57-2.71-1.35-3.77-2.35-1.07-1-1.9-2.17-2.52-3.5-.61-1.34-.92-2.8-.92-4.39s.36-3.12,1.09-4.45c.72-1.34,1.76-2.48,3.09-3.43,1.34-.95,2.92-1.7,4.76-2.24s3.84-.82,6.02-.82c1.72,0,3.47,.16,5.24,.48,1.77,.32,3.33,.75,4.69,1.29v-2.86c0-2.9-.82-5.18-2.45-6.83-1.63-1.65-3.94-2.48-6.94-2.48-3.58,0-7.34,1.38-11.29,4.15l-1.97-3.88c4.58-3.08,9.18-4.62,13.8-4.62s8.31,1.25,10.91,3.74c2.61,2.49,3.91,6.01,3.91,10.54v14.48c0,1.41,.63,2.13,1.9,2.18v5.17c-.64,.09-1.16,.16-1.56,.2-.41,.04-.84,.07-1.29,.07-1.18,0-2.12-.35-2.82-1.05-.7-.7-1.12-1.55-1.26-2.55l-.13-2.52c-1.59,2.13-3.59,3.75-6.02,4.86-2.43,1.11-5.02,1.67-7.79,1.67Zm1.56-4.49c2.13,0,4.11-.4,5.95-1.19,1.84-.79,3.23-1.85,4.18-3.16,.86-.86,1.29-1.74,1.29-2.65v-5.24c-2.9-1.13-5.92-1.7-9.04-1.7s-5.43,.64-7.31,1.9c-1.88,1.27-2.82,2.92-2.82,4.96,0,1,.19,1.93,.58,2.79,.38,.86,.93,1.61,1.63,2.24s1.53,1.13,2.48,1.5c.95,.36,1.97,.54,3.06,.54Z"/><path class="cls-2" d="M126.67,213.52c-1.68,0-3.24-.28-4.69-.85s-2.71-1.35-3.77-2.35c-1.07-1-1.9-2.17-2.52-3.5-.61-1.34-.92-2.8-.92-4.39s.36-3.12,1.09-4.45c.72-1.34,1.76-2.48,3.09-3.43,1.34-.95,2.92-1.7,4.76-2.24s3.84-.82,6.02-.82c1.72,0,3.47,.16,5.24,.48,1.77,.32,3.33,.75,4.69,1.29v-2.86c0-2.9-.82-5.18-2.45-6.83-1.63-1.65-3.94-2.48-6.94-2.48-3.58,0-7.34,1.38-11.29,4.15l-1.97-3.88c4.58-3.08,9.18-4.62,13.8-4.62s8.31,1.25,10.91,3.74c2.61,2.49,3.91,6.01,3.91,10.54v14.48c0,1.41,.63,2.13,1.9,2.18v5.17c-.63,.09-1.16,.16-1.56,.2-.41,.04-.84,.07-1.29,.07-1.18,0-2.12-.35-2.82-1.05-.7-.7-1.12-1.55-1.26-2.55l-.14-2.52c-1.59,2.13-3.59,3.75-6.02,4.86-2.43,1.11-5.02,1.67-7.79,1.67Zm1.56-4.49c2.13,0,4.12-.4,5.95-1.19,1.84-.79,3.23-1.85,4.18-3.16,.86-.86,1.29-1.74,1.29-2.65v-5.24c-2.9-1.13-5.92-1.7-9.04-1.7s-5.43,.64-7.31,1.9c-1.88,1.27-2.82,2.92-2.82,4.96,0,1,.19,1.93,.58,2.79,.38,.86,.93,1.61,1.63,2.24,.7,.63,1.53,1.13,2.48,1.5,.95,.36,1.97,.54,3.06,.54Z"/><path class="cls-2" d="M166.41,213.52c-2.86,0-5.67-.44-8.43-1.33-2.77-.88-5.14-2.16-7.14-3.84l2.58-4.01c2.08,1.59,4.17,2.78,6.26,3.57,2.08,.79,4.28,1.19,6.6,1.19,2.58,0,4.63-.51,6.15-1.53,1.52-1.02,2.28-2.46,2.28-4.32,0-.86-.2-1.6-.61-2.21-.41-.61-1.02-1.14-1.84-1.6-.82-.45-1.86-.86-3.13-1.22-1.27-.36-2.74-.75-4.42-1.16-2.13-.54-3.97-1.06-5.51-1.56-1.54-.5-2.81-1.09-3.81-1.77-1-.68-1.72-1.5-2.18-2.45s-.68-2.13-.68-3.54c0-1.77,.35-3.34,1.05-4.73,.7-1.38,1.67-2.54,2.89-3.47,1.22-.93,2.66-1.63,4.32-2.11,1.65-.48,3.43-.71,5.34-.71,2.67,0,5.17,.43,7.48,1.29,2.31,.86,4.26,2,5.85,3.4l-2.72,3.6c-1.5-1.31-3.17-2.3-5.03-2.96-1.86-.66-3.76-.99-5.71-.99-2.18,0-4.02,.46-5.54,1.39-1.52,.93-2.28,2.41-2.28,4.45,0,.82,.15,1.5,.44,2.04s.78,1.02,1.46,1.43c.68,.41,1.55,.77,2.62,1.09,1.06,.32,2.35,.66,3.84,1.02,2.36,.54,4.41,1.1,6.15,1.67,1.74,.57,3.2,1.24,4.35,2.01,1.16,.77,2.02,1.68,2.58,2.72,.57,1.04,.85,2.31,.85,3.81,0,3.31-1.27,5.94-3.81,7.89-2.54,1.95-5.96,2.92-10.27,2.92Z"/><path class="cls-2" d="M195.59,213.52c-1.68,0-3.24-.28-4.69-.85-1.45-.57-2.71-1.35-3.77-2.35-1.07-1-1.9-2.17-2.52-3.5s-.92-2.8-.92-4.39,.36-3.12,1.09-4.45c.72-1.34,1.76-2.48,3.09-3.43,1.34-.95,2.92-1.7,4.76-2.24s3.84-.82,6.02-.82c1.72,0,3.47,.16,5.24,.48,1.77,.32,3.33,.75,4.69,1.29v-2.86c0-2.9-.82-5.18-2.45-6.83-1.63-1.65-3.94-2.48-6.94-2.48-3.58,0-7.34,1.38-11.29,4.15l-1.97-3.88c4.58-3.08,9.18-4.62,13.8-4.62s8.31,1.25,10.91,3.74c2.61,2.49,3.91,6.01,3.91,10.54v14.48c0,1.41,.63,2.13,1.9,2.18v5.17c-.63,.09-1.16,.16-1.56,.2-.41,.04-.84,.07-1.29,.07-1.18,0-2.12-.35-2.82-1.05-.7-.7-1.12-1.55-1.26-2.55l-.14-2.52c-1.59,2.13-3.59,3.75-6.02,4.86-2.43,1.11-5.02,1.67-7.79,1.67Zm1.56-4.49c2.13,0,4.11-.4,5.95-1.19,1.84-.79,3.23-1.85,4.18-3.16,.86-.86,1.29-1.74,1.29-2.65v-5.24c-2.9-1.13-5.92-1.7-9.04-1.7s-5.43,.64-7.31,1.9c-1.88,1.27-2.82,2.92-2.82,4.96,0,1,.19,1.93,.58,2.79,.38,.86,.93,1.61,1.63,2.24s1.53,1.13,2.48,1.5c.95,.36,1.97,.54,3.06,.54Z"/><path class="cls-2" d="M259.03,211.07c-.36,.18-.84,.4-1.43,.65-.59,.25-1.26,.5-2.01,.75-.75,.25-1.56,.45-2.45,.61-.88,.16-1.8,.24-2.75,.24-2.18,0-4.06-.6-5.64-1.8-1.59-1.2-2.38-3.07-2.38-5.61v-23.87h-4.83v-4.69h4.83v-11.83h5.98v11.83h7.96v4.69h-7.96v22.03c.09,1.32,.52,2.27,1.29,2.86,.77,.59,1.68,.88,2.72,.88,1.18,0,2.26-.19,3.23-.58,.97-.38,1.64-.69,2.01-.92l1.43,4.76Z"/><path class="cls-2" d="M272.52,213.52c-1.68,0-3.24-.28-4.69-.85-1.45-.57-2.71-1.35-3.77-2.35-1.07-1-1.9-2.17-2.52-3.5s-.92-2.8-.92-4.39,.36-3.12,1.09-4.45c.72-1.34,1.76-2.48,3.09-3.43,1.34-.95,2.92-1.7,4.76-2.24s3.84-.82,6.02-.82c1.72,0,3.47,.16,5.24,.48,1.77,.32,3.33,.75,4.69,1.29v-2.86c0-2.9-.82-5.18-2.45-6.83-1.63-1.65-3.94-2.48-6.94-2.48-3.58,0-7.34,1.38-11.29,4.15l-1.97-3.88c4.58-3.08,9.18-4.62,13.8-4.62s8.31,1.25,10.91,3.74c2.61,2.49,3.91,6.01,3.91,10.54v14.48c0,1.41,.63,2.13,1.9,2.18v5.17c-.64,.09-1.16,.16-1.56,.2-.41,.04-.84,.07-1.29,.07-1.18,0-2.12-.35-2.82-1.05-.7-.7-1.12-1.55-1.26-2.55l-.14-2.52c-1.59,2.13-3.59,3.75-6.02,4.86-2.43,1.11-5.02,1.67-7.79,1.67Zm1.56-4.49c2.13,0,4.11-.4,5.95-1.19,1.84-.79,3.23-1.85,4.18-3.16,.86-.86,1.29-1.74,1.29-2.65v-5.24c-2.9-1.13-5.92-1.7-9.04-1.7s-5.43,.64-7.31,1.9c-1.88,1.27-2.82,2.92-2.82,4.96,0,1,.19,1.93,.58,2.79,.38,.86,.93,1.61,1.63,2.24,.7,.63,1.53,1.13,2.48,1.5,.95,.36,1.97,.54,3.06,.54Z"/><path class="cls-2" d="M312.26,213.52c-2.86,0-5.67-.44-8.43-1.33-2.77-.88-5.15-2.16-7.14-3.84l2.58-4.01c2.08,1.59,4.17,2.78,6.26,3.57,2.08,.79,4.28,1.19,6.6,1.19,2.58,0,4.63-.51,6.15-1.53,1.52-1.02,2.28-2.46,2.28-4.32,0-.86-.21-1.6-.61-2.21-.41-.61-1.02-1.14-1.84-1.6-.82-.45-1.86-.86-3.13-1.22-1.27-.36-2.74-.75-4.42-1.16-2.13-.54-3.97-1.06-5.51-1.56-1.54-.5-2.81-1.09-3.81-1.77-1-.68-1.72-1.5-2.18-2.45s-.68-2.13-.68-3.54c0-1.77,.35-3.34,1.05-4.73,.7-1.38,1.67-2.54,2.89-3.47,1.22-.93,2.66-1.63,4.32-2.11,1.65-.48,3.43-.71,5.34-.71,2.67,0,5.17,.43,7.48,1.29,2.31,.86,4.26,2,5.85,3.4l-2.72,3.6c-1.5-1.31-3.17-2.3-5.03-2.96-1.86-.66-3.76-.99-5.71-.99-2.18,0-4.02,.46-5.54,1.39-1.52,.93-2.28,2.41-2.28,4.45,0,.82,.15,1.5,.44,2.04,.29,.54,.78,1.02,1.46,1.43,.68,.41,1.55,.77,2.62,1.09,1.06,.32,2.35,.66,3.84,1.02,2.36,.54,4.41,1.1,6.15,1.67,1.74,.57,3.2,1.24,4.35,2.01,1.16,.77,2.02,1.68,2.58,2.72,.57,1.04,.85,2.31,.85,3.81,0,3.31-1.27,5.94-3.81,7.89-2.54,1.95-5.96,2.92-10.27,2.92Z"/><path class="cls-2" d="M342.44,213.52c-3.72,0-6.53-1.25-8.43-3.74s-2.86-6.21-2.86-11.15v-21.28h5.98v20.13c0,7.25,2.52,10.88,7.55,10.88,2.45,0,4.75-.78,6.9-2.35,2.15-1.56,3.75-3.71,4.79-6.43v-22.24h5.98v28.15c0,1.41,.63,2.13,1.9,2.18v5.17c-.68,.09-1.21,.15-1.6,.17-.39,.02-.76,.03-1.12,.03-1.18,0-2.17-.35-2.96-1.05-.79-.7-1.21-1.58-1.26-2.62l-.14-4.15c-1.59,2.68-3.67,4.73-6.26,6.15s-5.42,2.14-8.5,2.14Z"/><path class="cls-2" d="M388.28,211.07c-.36,.18-.84,.4-1.43,.65-.59,.25-1.26,.5-2.01,.75-.75,.25-1.56,.45-2.45,.61-.88,.16-1.8,.24-2.75,.24-2.18,0-4.06-.6-5.64-1.8-1.59-1.2-2.38-3.07-2.38-5.61v-23.87h-4.83v-4.69h4.83v-11.83h5.98v11.83h7.96v4.69h-7.96v22.03c.09,1.32,.52,2.27,1.29,2.86,.77,.59,1.68,.88,2.72,.88,1.18,0,2.25-.19,3.23-.58,.97-.38,1.64-.69,2.01-.92l1.43,4.76Z"/><path class="cls-2" d="M401.77,213.52c-1.68,0-3.24-.28-4.69-.85-1.45-.57-2.71-1.35-3.77-2.35s-1.9-2.17-2.52-3.5-.92-2.8-.92-4.39,.36-3.12,1.09-4.45c.72-1.34,1.76-2.48,3.09-3.43s2.92-1.7,4.76-2.24,3.84-.82,6.02-.82c1.72,0,3.47,.16,5.24,.48,1.77,.32,3.33,.75,4.69,1.29v-2.86c0-2.9-.82-5.18-2.45-6.83-1.63-1.65-3.94-2.48-6.94-2.48-3.58,0-7.34,1.38-11.29,4.15l-1.97-3.88c4.58-3.08,9.18-4.62,13.8-4.62s8.31,1.25,10.91,3.74c2.61,2.49,3.91,6.01,3.91,10.54v14.48c0,1.41,.63,2.13,1.9,2.18v5.17c-.64,.09-1.16,.16-1.56,.2-.41,.04-.84,.07-1.29,.07-1.18,0-2.12-.35-2.82-1.05-.7-.7-1.12-1.55-1.26-2.55l-.14-2.52c-1.59,2.13-3.59,3.75-6.02,4.86s-5.02,1.67-7.79,1.67Zm1.56-4.49c2.13,0,4.11-.4,5.95-1.19,1.84-.79,3.23-1.85,4.18-3.16,.86-.86,1.29-1.74,1.29-2.65v-5.24c-2.9-1.13-5.92-1.7-9.04-1.7s-5.43,.64-7.31,1.9c-1.88,1.27-2.82,2.92-2.82,4.96,0,1,.19,1.93,.58,2.79,.38,.86,.93,1.61,1.63,2.24,.7,.63,1.53,1.13,2.48,1.5,.95,.36,1.97,.54,3.06,.54Z"/><path class="cls-2" d="M455.96,213.52c-1.68,0-3.24-.28-4.69-.85-1.45-.57-2.71-1.35-3.77-2.35s-1.9-2.17-2.52-3.5-.92-2.8-.92-4.39,.36-3.12,1.09-4.45c.72-1.34,1.76-2.48,3.09-3.43s2.92-1.7,4.76-2.24,3.84-.82,6.02-.82c1.72,0,3.47,.16,5.24,.48,1.77,.32,3.33,.75,4.69,1.29v-2.86c0-2.9-.82-5.18-2.45-6.83-1.63-1.65-3.94-2.48-6.94-2.48-3.58,0-7.34,1.38-11.29,4.15l-1.97-3.88c4.58-3.08,9.18-4.62,13.8-4.62s8.31,1.25,10.91,3.74c2.61,2.49,3.91,6.01,3.91,10.54v14.48c0,1.41,.63,2.13,1.9,2.18v5.17c-.64,.09-1.16,.16-1.56,.2-.41,.04-.84,.07-1.29,.07-1.18,0-2.12-.35-2.82-1.05-.7-.7-1.12-1.55-1.26-2.55l-.14-2.52c-1.59,2.13-3.59,3.75-6.02,4.86s-5.02,1.67-7.79,1.67Zm1.56-4.49c2.13,0,4.11-.4,5.95-1.19,1.84-.79,3.23-1.85,4.18-3.16,.86-.86,1.29-1.74,1.29-2.65v-5.24c-2.9-1.13-5.92-1.7-9.04-1.7s-5.43,.64-7.31,1.9c-1.88,1.27-2.82,2.92-2.82,4.96,0,1,.19,1.93,.58,2.79,.38,.86,.93,1.61,1.63,2.24,.7,.63,1.53,1.13,2.48,1.5,.95,.36,1.97,.54,3.06,.54Z"/><path class="cls-2" d="M493.49,213.52c-3.72,0-6.53-1.25-8.43-3.74-1.9-2.49-2.86-6.21-2.86-11.15v-21.28h5.98v20.13c0,7.25,2.52,10.88,7.55,10.88,2.45,0,4.75-.78,6.9-2.35,2.15-1.56,3.75-3.71,4.79-6.43v-22.24h5.98v28.15c0,1.41,.63,2.13,1.9,2.18v5.17c-.68,.09-1.21,.15-1.6,.17-.39,.02-.76,.03-1.12,.03-1.18,0-2.17-.35-2.96-1.05-.79-.7-1.21-1.58-1.26-2.62l-.14-4.15c-1.59,2.68-3.67,4.73-6.26,6.15s-5.42,2.14-8.5,2.14Z"/><path class="cls-2" d="M552.56,212.84h-5.98v-19.86c0-3.67-.64-6.4-1.9-8.19-1.27-1.79-3.13-2.69-5.58-2.69-1.18,0-2.36,.24-3.54,.71-1.18,.48-2.28,1.12-3.3,1.94s-1.93,1.79-2.72,2.92c-.79,1.13-1.39,2.38-1.8,3.74v21.42h-5.98v-49.64h5.98v21.76c1.41-2.58,3.31-4.6,5.71-6.05,2.4-1.45,5.03-2.18,7.89-2.18,2.08,0,3.85,.39,5.3,1.16,1.45,.77,2.61,1.81,3.47,3.13,.86,1.32,1.48,2.89,1.87,4.73,.38,1.84,.58,3.8,.58,5.88v21.22Z"/><path class="cls-2" d="M560.13,170.68v-7.48h5.98v7.48h-5.98Zm0,42.16v-35.5h5.98v35.5h-5.98Z"/><path class="cls-2" d="M604.7,212.84h-5.98v-19.86c0-3.81-.58-6.57-1.73-8.3-1.16-1.72-2.91-2.58-5.27-2.58-1.22,0-2.45,.24-3.67,.71-1.22,.48-2.38,1.12-3.47,1.94s-2.04,1.79-2.86,2.92c-.82,1.13-1.43,2.38-1.84,3.74v21.42h-5.98v-35.5h5.44v7.62c1.41-2.49,3.43-4.49,6.09-5.98,2.65-1.5,5.54-2.24,8.67-2.24,2.04,0,3.74,.37,5.1,1.12s2.45,1.79,3.26,3.13c.82,1.34,1.39,2.91,1.73,4.73,.34,1.81,.51,3.79,.51,5.92v21.22Z"/><path class="cls-2" d="M627,213.52c-2.45,0-4.72-.5-6.8-1.5-2.09-1-3.88-2.33-5.37-4.01-1.5-1.68-2.66-3.63-3.5-5.85-.84-2.22-1.26-4.56-1.26-7s.4-4.86,1.19-7.11c.79-2.24,1.9-4.2,3.33-5.88,1.43-1.68,3.13-3,5.1-3.98,1.97-.97,4.14-1.46,6.49-1.46,2.86,0,5.41,.75,7.65,2.24s4.02,3.31,5.34,5.44v-21.22h5.98v42.3c0,1.41,.63,2.13,1.9,2.18v5.17c-.63,.09-1.15,.16-1.53,.2-.38,.04-.76,.07-1.12,.07-1.18,0-2.21-.4-3.09-1.19-.88-.79-1.33-1.71-1.33-2.75v-2.99c-1.41,2.31-3.28,4.11-5.61,5.41-2.34,1.29-4.79,1.94-7.38,1.94Zm1.43-5.17c1.09,0,2.21-.2,3.37-.61,1.16-.41,2.24-.97,3.26-1.7,1.02-.72,1.9-1.58,2.65-2.55s1.23-2.01,1.46-3.09v-10.2c-.41-1.13-1.02-2.21-1.84-3.23-.82-1.02-1.73-1.9-2.75-2.65-1.02-.75-2.11-1.34-3.26-1.77-1.16-.43-2.3-.65-3.43-.65-1.77,0-3.37,.37-4.79,1.12s-2.65,1.75-3.67,2.99c-1.02,1.25-1.8,2.68-2.35,4.28-.54,1.61-.82,3.25-.82,4.93,0,1.77,.32,3.46,.95,5.07,.63,1.61,1.5,3,2.58,4.18,1.09,1.18,2.37,2.12,3.84,2.82,1.47,.7,3.07,1.05,4.79,1.05Z"/></g></g></svg>