<?xml version="1.0" encoding="UTF-8"?>
<svg id="Layer_2" data-name="Layer 2" xmlns="http://www.w3.org/2000/svg" viewBox="0 0 265.71 265.73">
  <defs>
    <style>
      .cls-1 {
        fill: #f9ca00;
      }

      .cls-2 {
        fill: #fff;
      }

      .cls-3 {
        fill: #e2050d;
      }
    </style>
  </defs>
  <g id="Layer_1-2" data-name="Layer 1">
    <g>
      <ellipse class="cls-3" cx="132.86" cy="132.86" rx="132.86" ry="132.86" transform="translate(-21.06 240.63) rotate(-80)"/>
      <g>
        <polygon class="cls-1" points="90.83 178.61 70.07 178.61 70.07 98.58 45.29 106.27 45.29 89.39 88.6 73.87 90.83 73.87 90.83 178.61"/>
        <path class="cls-1" d="M199.13,141.54h-24.06c.24,7.04,2.12,12.33,5.64,15.88,3.52,3.54,8.99,5.32,16.42,5.32,5.03,0,9.58-.74,13.65-2.23l2.58,17.38c-5.94,1.39-12.07,2.08-18.39,2.08-12.6,0-22.57-3.39-29.92-10.17-7.35-6.78-11.22-16.2-11.6-28.27h-12.14v-10.92h12.14v-8.91h-12.14v-10.92h12.28c.81-12.07,5.02-21.44,12.61-28.12,7.59-6.68,17.66-10.02,30.21-10.02,5.03,0,10.68,.74,16.95,2.23l-2.59,17.46c-4.5-1.53-8.93-2.3-13.29-2.3-13.55,0-20.98,6.92-22.27,20.76h23.92v10.92h-24.06v8.91h24.06v10.92Z"/>
        <polygon class="cls-2" points="91.97 222.68 89.02 222.68 100.29 193.38 103.22 193.38 91.97 222.68"/>
        <polygon class="cls-2" points="112.08 211.08 109.93 213.32 109.93 220.36 106.5 220.36 106.5 191.89 109.93 191.89 109.93 209.11 111.76 206.91 118.01 200.31 122.18 200.31 114.37 208.69 123.08 220.36 119.06 220.36 112.08 211.08"/>
        <path class="cls-2" d="M137.54,218.38c-1.33,1.57-3.29,2.35-5.88,2.35-2.14,0-3.77-.62-4.88-1.86-1.12-1.24-1.68-3.08-1.7-5.51v-13.05h3.43v12.96c0,3.04,1.24,4.56,3.71,4.56,2.62,0,4.36-.98,5.23-2.93v-14.59h3.43v20.06h-3.26l-.07-1.98Z"/>
        <path class="cls-2" d="M157.96,218.38c-1.33,1.57-3.29,2.35-5.88,2.35-2.14,0-3.77-.62-4.88-1.86-1.12-1.24-1.68-3.08-1.7-5.51v-13.05h3.43v12.96c0,3.04,1.24,4.56,3.71,4.56,2.62,0,4.36-.98,5.23-2.93v-14.59h3.43v20.06h-3.26l-.07-1.98Z"/>
      </g>
    </g>
  </g>
</svg>