<?xml version="1.0" encoding="UTF-8"?>
<svg id="b" data-name="Layer 2" xmlns="http://www.w3.org/2000/svg" viewBox="0 0 170.7644 32">
  <g id="c" data-name="main">
    <g>
      <path d="M170.7644,15.1139h-3.1307l2.3871-7.1701-10.2784,2.2019c-.4892,1.4546-1.0833,3.2499-1.6556,4.9682h-4.3973c-.1077.2516-.1476.5082-.1476.7853,0,1.3428.9093,2.4762,2.4465,2.9371.2103.0622.4813.1174.802.1666-.1597.4753-.3026.9-.4173,1.2472-1.0369,3.107-1.4695,5.3437-1.4695,6.6089,0,3.2276,1.994,5.1408,5.1394,5.1408,1.554,0,3.0053-.4757,5.1395-2.2024-.5003-1.0183-.7329-2.052-.7329-3.6746,0-.9524.2636-2.2562.7329-3.6677.2752-.8355.66-1.9921,1.1028-3.3047h3.132l1.3469-4.0366Z" style="fill: #fff; stroke-width: 0px;"/>
      <path d="M152.3528,18.7826c0-2.7672-1.2249-4.0399-4.0413-4.0399-3.0578,0-7.1761,2.79-7.4365,3.2666l4.3922-13.177-10.0979,2.2024-8.0779,24.2305h9.365s2.1996-6.6089,2.9385-8.8099c.7705-2.317,1.4648-2.9373,2.563-2.938,1.0703-.0007,1.4681.9937.7737,3.0828-.1481.4395-.6396,1.9174-1.0615,3.1798-.4168,1.2504-.5245,1.845-.5245,2.6837,0,1.9475,1.3892,3.5363,4.1754,3.5363,1.6361,0,3.9902-.8006,5.6189-2.1267-.3407-.6916-.5245-1.6124-.5245-2.6373,0-.5797.2237-1.6709.9139-3.7447.861-2.5839,1.0234-3.6208,1.0234-4.7087Z" style="fill: #fff; stroke-width: 0px;"/>
      <path d="M117.1746,25.7573c7.3283,0,11.9995-2.4363,11.9995-6.6795,0-2.5022-2.1601-4.6999-8.0835-4.6999-9.8491,0-14.3179,5.0471-14.3179,11.3794,0,3.7122,2.7236,6.2427,8.4441,6.2427,4.2557,0,7.7962-1.0448,10.2292-2.9492l-.544-1.5006c-2.634,1.198-4.1884,1.5099-6.5054,1.5099-2.3695,0-3.2068-.8471-2.776-3.3028h1.554ZM120.1117,17.3118c1.0995,0,1.417,1.2485.6108,3.6732-.5379,1.6106-2.7092,2.9352-4.6386,2.9352.0719-.2311.1462-.4767.2339-.7315,1.7405-5.2244,2.4678-5.877,3.7939-5.877Z" style="fill: #fff; stroke-width: 0px;"/>
      <path d="M110.5528,4.8323l-5.8709,17.623c-.4725,1.4115-.7343,2.7152-.7343,3.669,0,1.6212.2321,2.6581.7343,3.6746-2.1416,1.7252-3.5883,2.201-5.1427,2.201-3.1436,0-5.1408-1.9132-5.1408-5.1408,0-1.2653.434-3.502,1.4695-6.6089l4.4075-13.2155,10.2775-2.2024Z" style="fill: #fff; stroke-width: 0px;"/>
      <path d="M94.4837,15.1139h-9.1789l-2.2037,6.6052c-1.8092,5.4305-2.2892,5.8728-3.669,5.8728-.964,0-1.3739-1.0165,0-5.1367.5379-1.6208,1.4467-4.4353,2.4186-7.3413h-9.1715l-1.7108,5.1362c-1.0355,3.107-1.4481,5.3437-1.4481,6.6089,0,3.2276,1.9967,5.1408,5.1395,5.1408,2.181,0,4.808-1.4801,6.6187-2.5825.7213,1.6004,2.064,2.5825,4.1815,2.5825,1.5484,0,4.1986-.4757,6.3239-2.201-.4043-.8313-.6544-1.7002-.6544-3.1204,0-1.2653.2878-2.2961.6855-3.4899.5361-1.6226,1.7002-5.1687,2.6688-8.0747Z" style="fill: #fff; stroke-width: 0px;"/>
      <path d="M71.0386,15.1139h-3.1325l2.3875-7.1701-10.2775,2.2019c-.4887,1.4546-1.0833,3.2499-1.6584,4.9682h-4.3945c-.1054.2516-.1485.5082-.1485.7853,0,1.3428.9102,2.4762,2.4479,2.9371.2089.0622.4785.1174.7988.1666-.1564.4753-.2966.9-.4159,1.2472-1.0369,3.107-1.4662,5.3437-1.4662,6.6089,0,3.2276,1.9926,5.1408,5.1353,5.1408,1.5581,0,3.0067-.4757,5.1436-2.2024-.5022-1.0183-.7347-2.052-.7347-3.6746,0-.9524.265-2.2562.7347-3.6677.2757-.8355.6614-1.9921,1.0996-3.3047h3.1339l1.3469-4.0366Z" style="fill: #fff; stroke-width: 0px;"/>
      <path d="M52.5151,18.7826c0-2.7672-1.2235-4.0399-4.0366-4.0399-3.0592,0-7.1775,2.79-7.4383,3.2666l4.3926-13.177-10.0969,2.2024-8.0761,24.2305h9.3608l2.938-8.8099c.7723-2.317,1.4667-2.9373,2.563-2.938,1.0666-.0007,1.4709.9937.7737,3.0828l-1.0596,3.1798c-.4187,1.2504-.5212,1.845-.5212,2.6837,0,1.9475,1.3841,3.5363,4.1708,3.5363,1.6342,0,3.9888-.8006,5.6217-2.1267-.3439-.6916-.5245-1.6124-.5245-2.6373,0-.5797.2219-1.6709.9106-3.7447.8628-2.5839,1.022-3.6208,1.022-4.7087Z" style="fill: #fff; stroke-width: 0px;"/>
      <path d="M18.8005,6.2998c5.2717,0,10.2306,3.4959,10.2306,8.9036,0,11.0146-9.2545,16.7964-18.7973,16.7964-5.275,0-10.2339-3.4927-10.2339-8.9069C0,12.0788,9.2531,6.2998,18.8005,6.2998ZM11.4244,28.4306c1.8343,0,2.6168-.9399,5.397-9.2801,2.7793-8.3416,2.3318-9.2847.79-9.2847-1.8375,0-2.6317.9431-5.4091,9.2847-2.7807,8.3402-2.3216,9.2801-.7779,9.2801ZM8.4771,6.5384c3.0768-1.4704,6.6173-2.2543,10.3235-2.2543,3.1232,0,6.0974,1.0174,8.3694,2.8758.1077.0863.2089.1787.3101.2669,1.6454-.8257,2.809-2.2455,2.809-4.7983,0-.8805-.5291-2.0905-1.1877-2.6284-.5333.3992-1.0801.6749-1.9369.9283-.5008.1504-1.1877.2325-1.9313.2325h-11.3204c-1.6375,0-2.8146.149-3.4806.3472-1.9935.6006-2.7222,1.6421-2.7222,2.9547,0,.8731.2947,1.6092.7672,2.0756Z" style="fill: #fff; stroke-width: 0px;"/>
    </g>
  </g>
</svg>