<?xml version="1.0" encoding="UTF-8"?>
<svg id="b" xmlns="http://www.w3.org/2000/svg" version="1.1" viewBox="0 0 138.1 64">
  <defs>
    <style>
      .cls-1 {
        fill: #fff;
        stroke-width: 0px;
      }
    </style>
  </defs>
  <path class="cls-1" d="M35.5,17.6h1c.6,0,1,.4,1,1.4v4c-.8,3.6-2.7,6.6-4.6,6.6s-1.2-.3-1.2-1.1v-9.5c0-1,.2-1.4,1-1.4h.8v-1.4h-4.4c-.8,0-1.4.4-1.7,1.1-.9-.7-2.2-1.3-4.1-1.3-4.4,0-8.4,2.7-8.4,8.4h0c0,4.6,3.1,7.7,7.6,7.7s3.8-1,5-2.3c.5,1.3,1.9,2.3,3.6,2.3,3.1,0,5.3-2.4,6.3-5.5v5.2h6.2v-1.4h-.8c-.8,0-1-.4-1-1.4v-5.4c0-2.8,2.4-5.8,5-5.8s1.2.4,1.2,1-.3.9-.9.9-.7-.6-.9-.6c-.8,0-1.8.7-1.8,2.2s1.2,2.4,2.8,2.4,3.7-1.8,3.7-4.1-1.7-3.7-3.7-3.7-4.4,1.4-5.4,3v-.7c0-1.2-.6-2-1.8-2h-4.6v1.4ZM27.3,27.4c-.9,1.6-2.1,2.3-3.6,2.3-2.3,0-3.9-2.3-3.9-5.6s1.9-5.6,4.3-5.6,2.4.5,3.2,1.6v7.3Z"/>
  <path class="cls-1" d="M37.3,35.1l-.7-.7c-2,1.8-5.8,4.4-11.6,4.4-10.1,0-15.4-7.5-15.4-15.2s7.1-14.5,13.5-14.5,6.3,1,8.7,3c2.3-4.1,4.6-8.1,6.9-12.1H10.7C6.1,2.4,0,10.1,0,19.6s9.1,21.8,22.2,21.8,13.1-4,15.1-6.3Z"/>
  <path class="cls-1" d="M72.8,6.7c.8,0,1.1.4,1.1,1.2v19c0,3.2,1.9,5.3,6.5,5.3s6.2-2,6.2-5.5v-2.4c.7.2,1.3.4,2.1.6,0,3.7,2.8,7.2,7.9,7.2s6.4-2.7,7.6-5.7l-.7-.6c-1.6,2.4-3.5,3.7-5.7,3.7s-4.1-1.4-4.4-4.3c7.3-.3,10.2-6.4,12.3-6.4s.8.2.8,1v12h6.2v-1.4h-.9c-.6,0-.9-.4-.9-1.4v-5.6c0-1.5,1.2-3.6,2-3.8.2.7,1.1,1.7,2.7,1.7,3,0,5.1-3.4,5.1-5.9s-1.5-4.1-2.2-4.1-1,.6-1,1c2,0,1.8,4,.2,4s-1.2-1.4-2.8-1.4-2.5.8-2.5,2.7c-.6.4-1.4,1.3-1.6,1.5v-.2c0-1.8-1.2-3-3.1-3-2.7,0-4.3,2-6.4,4v-.6c0-2.1-1.8-3.4-4.3-3.4-4.7,0-7.8,3.1-8.4,7.3-.9-.2-1.6-.5-2.2-.7v-6.3h-5.1v2.7c0,1.3,1,3,3,4.3v3c0,2.6-1.2,3.6-3.2,3.6s-3.1-1.2-3.1-3.2V5.3h-6.2v1.4h1ZM93.4,23.7c.2-3.8,2.5-5.2,4.1-5.2s1.8.6,1.8,1.6c0,2.2-2.7,3.6-5.9,3.7h0Z"/>
  <path class="cls-1" d="M105.5,3.7c.5.3.5.5.2.9-.4.6-.2,1.3.4,1.7.6.4,1,.2,1.2,0,.7-.3,1.2-.8,1.9-.5s.4.4.4.6c0,.8-.8,1-1.4,1.4-.6.4-.6.6-.6,1.1s.5,1.2,1.2,1.2.7.3.7.7.4,1.2,1.3,1.2,1.2-.7,1.2-1.2.2-.7.7-.7,1.2-.5,1.2-1.2-.3-.9-.6-1.1c-.6-.4-1.4-.6-1.4-1.4s.2-.5.4-.6c.7-.4,1.3.1,1.9.5.6.4.8.2,1.2,0,.4-.2.8-1.1.4-1.7-.4-.6,0-.7.2-.9.5-.3.9-1,.5-1.7-.4-.7-1.2-.7-1.7-.5s-.7.2-.9-.2c-.4-.6-1.1-.8-1.7-.5-.6.3-.7.7-.7,1.1,0,.7,0,1.5-.5,1.9-.6.4-.5.1-.7,0-.7-.4-.5-1.2-.5-1.9s-.2-.8-.7-1.1-1.3-.2-1.7.5c-.4.7-.6.4-.9.2-.5-.3-1.3-.3-1.7.5h.2c-.4.7,0,1.4.5,1.7Z"/>
  <path class="cls-1" d="M128.6,40.6c4.9,0,7.6-4,7.6-8.4v-13.3c0-1,.2-1.4,1-1.4h.8v-1.4h-4.4c-1.1,0-1.6.5-1.7,1.2-.9-.8-2.3-1.5-4.2-1.5-4.4,0-8.4,2.7-8.4,8.4s3.1,7.7,7.6,7.7,3.9-1,5-2.4v3c0,4.2-1.7,5.8-4.4,5.8s-4.7-1.8-4.7-4.1h-1.3c.1,6.8-3.4,10.6-13.1,10.6-14.4,0-27.4-10.1-49.1-10.1s-30.9,11.2-30.9,11.2v.3c4.6-.3,9.6,1,13,5.1,2.2-2.2,10-9,25.4-9s29.1,5.6,40.8,5.6,14.4-4.7,15.2-10c1.1,1.5,3.3,2.8,5.8,2.7ZM128.1,29.7c-1.6,0-3.9-2.3-3.9-5.6h-.1c0-3.7,1.9-5.6,4.3-5.6s2.7.7,3.5,2v6.3c-.8,2-2.2,2.9-3.8,2.9Z"/>
  <path class="cls-1" d="M52.4,7.9v20.6c0,1.8,1,3.4,3.4,3.4h11c3.2,0,5.2-1.7,5.2-4.7s-1.8-3.7-3.7-4.7c-1.9-1-4-1.7-4-2.7s.5-1.1,1.5-1.1c1.5,0,3.3.9,4.4,2l2.5-4.4h-8.3c-2.6,0-4.2,1.6-4.2,3.7s2,3.7,5.5,5.5,2.4,1.2,2.4,2.4-.6,1.7-2,1.7c-3.1,0-5.1-4.6-5.1-4.6h-1v5.2h-2.2c-.8,0-1-.4-1-1.2V5.3h-6.2v1.4h.7c.8,0,1.1.4,1.1,1.2Z"/>
  <path class="cls-1" d="M51.8,55.1l-3.3,8.8h1.6l.7-2.1h3.4l.7,2.1h1.6l-3.3-8.8h-1.4ZM51.2,60.6l1.3-3.7,1.3,3.7h-2.6Z"/>
  <polygon class="cls-1" points="59.1 55.1 57.5 55.1 57.5 63.9 63.1 63.9 63.1 62.7 59.1 62.7 59.1 55.1"/>
  <polygon class="cls-1" points="71 55.1 69.2 55.1 65.8 59.2 65.8 55.1 64.2 55.1 64.2 63.9 65.8 63.9 65.8 61.1 66.8 60.1 69.4 63.9 71.2 63.9 67.8 59 71 55.1"/>
  <path class="cls-1" d="M76.9,55.5c-.6-.3-1.2-.5-1.9-.5s-1.4.2-1.9.5c-.6.3-1,.9-1.3,1.5-.3.7-.5,1.4-.5,2.3v.5c0,.8.2,1.6.5,2.2.3.6.7,1.1,1.3,1.5.6.3,1.2.5,1.9.5s1.4-.2,1.9-.5c.6-.3,1-.8,1.3-1.5.3-.7.4-1.4.4-2.3v-.5c0-.9-.2-1.6-.5-2.3-.3-.6-.7-1.1-1.3-1.5ZM77.1,59.7c0,1-.2,1.7-.5,2.3-.4.5-.9.8-1.6.8s-1.2-.3-1.6-.8c-.4-.5-.6-1.3-.6-2.2v-.5c0-.9.2-1.7.6-2.2.4-.5.9-.8,1.6-.8s1.2.3,1.6.8c.4.5.6,1.3.6,2.2v.5Z"/>
  <polygon class="cls-1" points="85.6 58.7 81.7 58.7 81.7 55.1 80.1 55.1 80.1 63.9 81.7 63.9 81.7 60 85.6 60 85.6 63.9 87.1 63.9 87.1 55.1 85.6 55.1 85.6 58.7"/>
  <path class="cls-1" d="M94.2,55.5c-.6-.3-1.2-.5-1.9-.5s-1.4.2-1.9.5c-.6.3-1,.9-1.3,1.5-.3.7-.5,1.4-.5,2.3v.5c0,.8.2,1.6.5,2.2.3.6.7,1.1,1.3,1.5.6.3,1.2.5,1.9.5s1.4-.2,1.9-.5c.6-.3,1-.8,1.3-1.5.3-.7.4-1.4.4-2.3v-.5c0-.9-.2-1.6-.5-2.3-.3-.6-.7-1.1-1.3-1.5ZM94.4,59.7c0,1-.2,1.7-.5,2.3-.4.5-.9.8-1.6.8s-1.2-.3-1.6-.8c-.4-.5-.6-1.3-.6-2.2v-.5c0-.9.2-1.7.6-2.2s.9-.8,1.6-.8,1.2.3,1.6.8c.4.5.6,1.3.6,2.2v.5Z"/>
  <polygon class="cls-1" points="99 55.1 97.5 55.1 97.5 63.9 103 63.9 103 62.7 99 62.7 99 55.1"/>
  <rect class="cls-1" x="104.2" y="55.1" width="1.5" height="8.8"/>
  <polygon class="cls-1" points="112.9 55.1 110.7 62 108.5 55.1 106.8 55.1 110 63.9 111.4 63.9 114.6 55.1 112.9 55.1"/>
  <path class="cls-1" d="M117.4,55.1l-3.3,8.8h1.6l.7-2.1h3.4l.7,2.1h1.6l-3.3-8.8h-1.4ZM116.8,60.6l1.3-3.7,1.3,3.7h-2.6Z"/>
  <path class="cls-1" d="M128,59.3c.4-.2.7-.4,1-.8.2-.3.3-.7.3-1.1,0-.8-.3-1.4-.8-1.8-.5-.4-1.3-.6-2.3-.6h-3v8.8h3.2c1,0,1.7-.2,2.3-.7.5-.4.8-1.1.8-1.9s-.1-.9-.4-1.3c-.3-.4-.6-.6-1.1-.7ZM124.7,56.3h1.5c.5,0,.9,0,1.2.3.2.2.4.5.4.9s-.1.7-.4.9c-.3.2-.6.3-1.1.3h-1.5v-2.5ZM127.5,62.3c-.3.2-.6.4-1.1.4h-1.7v-2.8h1.8c.9,0,1.4.5,1.4,1.4s-.1.8-.4,1Z"/>
  <path class="cls-1" d="M134.8,55.1h-1.4l-3.3,8.8h1.6l.7-2.1h3.4l.7,2.1h1.6l-3.3-8.8ZM132.8,60.6l1.3-3.7,1.3,3.7h-2.6Z"/>
</svg>