<?xml version="1.0" encoding="UTF-8"?>
<svg id="b" data-name="Layer 2" xmlns="http://www.w3.org/2000/svg" viewBox="0 0 135.1242 48">
  <g id="c" data-name="main">
    <g>
      <path d="M89.018,34.017c-3.8229,0-6.9221,3.1301-6.9221,6.9915s3.0992,6.9915,6.9221,6.9915,6.921-3.1297,6.921-6.9915-3.0992-6.9915-6.921-6.9915Z" style="fill: #3aaa35; isolation: isolate; opacity: .95; stroke-width: 0px;"/>
      <path d="M103.3198,34.0168c-3.8227,0-6.9217,3.1301-6.9217,6.9915s3.099,6.9917,6.9217,6.9917,6.9221-3.1299,6.9221-6.9917-3.0994-6.9915-6.9221-6.9915Z" style="fill: #3aaa35; stroke-width: 0px;"/>
      <path d="M31.8075,34.017c-3.8219,0-6.9208,3.1302-6.9208,6.9915s3.0989,6.9915,6.9208,6.9915,6.9218-3.1297,6.9218-6.9915-3.099-6.9915-6.9218-6.9915Z" style="fill: #3aaa35; isolation: isolate; opacity: .55; stroke-width: 0px;"/>
      <path d="M46.1102,34.017c-3.8229,0-6.9216,3.1297-6.9216,6.9909s3.0988,6.9921,6.9216,6.9921,6.9221-3.1301,6.9221-6.9921-3.0994-6.9909-6.9221-6.9909Z" style="fill: #3aaa35; isolation: isolate; opacity: .65; stroke-width: 0px;"/>
      <path d="M74.7155,34.017c-3.8229,0-6.9223,3.1301-6.9223,6.9911s3.0994,6.9919,6.9223,6.9919,6.9216-3.1301,6.9216-6.9919-3.099-6.9911-6.9216-6.9911Z" style="fill: #3aaa35; isolation: isolate; opacity: .85; stroke-width: 0px;"/>
      <path d="M60.3926,34.0174c-3.8233,0-6.9221,3.1297-6.9221,6.9911s3.0989,6.9915,6.9221,6.9915,6.9211-3.1294,6.9211-6.9915-3.0992-6.9911-6.9211-6.9911Z" style="fill: #3aaa35; isolation: isolate; opacity: .75; stroke-width: 0px;"/>
      <path d="M110.0596,20.7628h-12.0235v-4.661h6.4333c.1413,0,.277-.0488.3771-.1488.1-.0999.1581-.2356.1581-.3774v-5.0173c.0003-.2945-.237-.5374-.5315-.5379h-6.4274v-3.925h11.3047c.2945,0,.5366-.2301.5371-.5246V.5546c.0003-.1418-.0524-.2775-.1525-.3776-.1001-.1003-.2359-.1652-.3774-.1655h-17.9741c-.1415,0-.277.0475-.3771.1475-.1.0999-.1673.2356-.1673.3771v25.7699c-.0003.2948.2278.5425.5225.5427h18.694c.1415,0,.277-.0476.3771-.1476.1001-.1001.1583-.2356.1583-.3774v-5.0212c.0003-.2945-.2368-.5395-.5315-.5397Z" style="fill: #fff; stroke-width: 0px;"/>
      <path d="M47.4856.0014h-6.0501c-.1415,0-.2774.0548-.3774.1547-.1001.1-.1581.2359-.1581.3774v13.4455L35.0208.3255c-.0842-.1957-.277-.3227-.4902-.3227h-7.7689c-.2948,0-.5344.239-.5344.5338v25.784c0,.2948.2381.5348.5328.5348h6.1343c.1415,0,.2773-.0553.3774-.1553.1001-.1001.1572-.2359.1572-.3774v-15.2423l6.7705,15.4529c.085.1939.2768.3215.4887.3217h6.7971c.1415,0,.2774-.054.3774-.1539.1001-.1.1565-.2361.1565-.3776V.5366c0-.2948-.2386-.5349-.5334-.5352Z" style="fill: #fff; stroke-width: 0px;"/>
      <path d="M20.9871.0011h-6.8162c-.0677,0-.1339.0263-.1817.074-.0485.0484-.0751.1127-.0751.1808v16.5546c0,1.8154-1.4769,3.2924-3.2923,3.2924s-3.2925-1.4769-3.2925-3.2924V.2579C7.3293.1169,7.2143.0011,7.073.0011H.2568C.1882.0011.1236.0266.0752.0751c-.0485.0485-.0752.1127-.0752.1808v16.5546c0,5.8568,4.7649,10.6217,10.6218,10.6217s10.6216-4.7649,10.6216-10.6217V.2579c0-.141-.115-.2568-.2564-.2568Z" style="fill: #fff; stroke-width: 0px;"/>
      <path d="M60.2144.5455c.0003-.2948-.2372-.5395-.5319-.5398h-6.1429c-.2945,0-.5353.233-.5356.5275v25.761c0,.1418.0543.2775.1543.3776.1001.1003.2356.1613.3774.1613h6.1437c.1415,0,.277-.0514.3771-.1514.1003-.1001.1579-.2359.1579-.3774V.5455Z" style="fill: #fff; stroke-width: 0px;"/>
      <path d="M83.9295,12.3166c1.3898-1.2994,2.2636-3.1439,2.2636-5.1966,0-3.9323-3.1877-7.12-7.1199-7.12-.0525,0-.1032.003-.1553.0041h-13.1729c-.2946,0-.5397.2375-.5399.5322v25.7652c0,.1416.0496.2774.1498.3777.1.1002.2361.1574.3778.1574h13.2114c4.4848,0,8.1206-3.6343,8.1206-8.1192,0-2.6034-1.2298-4.9147-3.1351-6.4008ZM72.2518,5.3724h5.3763c1.0577,0,1.9155.8575,1.9155,1.9154s-.8578,1.9154-1.9155,1.9154h-5.3763v-3.8308ZM77.5504,20.4386h-5.2986v-5.6008h5.2986c1.5468,0,2.8006,1.2539,2.8006,2.8005s-1.2539,2.8003-2.8006,2.8003Z" style="fill: #fff; stroke-width: 0px;"/>
      <path d="M134.973.1973c-.0999-.1002-.2356-.1754-.3774-.1757h-20.1536c-.2942,0-.5375.2197-.5381.5139v4.9703c-.0005.295.2336.5408.5284.5413h6.3258v20.2593c-.0003.1415.0225.2772.1225.3776.0999.1003.2356.1608.3771.1611h6.3751c.2945,0,.5491-.2343.5496-.5288V6.0642h6.4035c.2942,0,.5377-.226.5382-.5202V.5752c.0003-.1418-.0512-.2777-.1512-.3779Z" style="fill: #fff; stroke-width: 0px;"/>
    </g>
  </g>
</svg>