<?xml version="1.0" encoding="UTF-8"?>
<svg id="b" data-name="Layer 2" xmlns="http://www.w3.org/2000/svg" viewBox="0 0 160 160">
  <g id="c" data-name="main">
    <g>
      <circle cx="80" cy="80" r="80" style="fill: #e3000f; stroke-width: 0px;"/>
      <g>
        <path d="M61.3756,42.9033h-10.29v5.9648c1.3159-.6152,2.7158-.9238,4.2002-.9238,1.5679,0,2.9678.3633,4.2002,1.0918,1.2314.7285,2.1978,1.792,2.8979,3.1914.6992,1.4004,1.0498,3.0527,1.0498,4.9561,0,1.9893-.4556,3.7451-1.3647,5.2705-.9106,1.5273-2.2124,2.709-3.9062,3.5498-1.6943.8398-3.6475,1.2598-5.8589,1.2598-3.8364,0-6.9863-1.4277-9.4502-4.2842l3.6963-3.4434c1.5396,1.8203,3.3735,2.7295,5.502,2.7295,1.4556,0,2.583-.4336,3.3809-1.3018.7979-.8672,1.1968-2.1133,1.1968-3.7383,0-3.1641-1.3301-4.7461-3.9897-4.7461-.5605,0-1.1064.0781-1.6382.2314-.5322.1543-1.1201.4131-1.7637.7764h-4.4941v-15.3301h17.3882l-.7563,4.7461Z" style="fill: #ffce1f; stroke-width: 0px;"/>
        <polygon points="85.2736 45.1299 88.9274 48.7842 84.0558 53.5713 88.9274 58.5693 85.2736 62.2236 80.4435 57.1416 75.4874 62.2236 71.8336 58.5693 76.6637 53.7822 71.8336 48.7842 75.4874 45.1299 80.2755 50.2119 85.2736 45.1299" style="fill: #ffce1f; stroke-width: 0px;"/>
        <path d="M111.2086,38.6611c1.4697.7285,2.5894,1.709,3.3599,2.9404.77,1.2334,1.1553,2.5908,1.1553,4.0742,0,1.5127-.3086,2.9541-.9243,4.3262-.6162,1.3721-1.708,2.9473-3.2759,4.7246-1.5684,1.7783-3.8501,4.0264-6.8462,6.7412h11.6343l-.6719,5.082h-18.4805v-4.7041c3.4443-3.3877,5.9497-5.9424,7.5181-7.665,1.5679-1.7217,2.667-3.1562,3.2974-4.3047.6299-1.1484.9448-2.3242.9448-3.5283,0-1.1475-.3296-2.0508-.9868-2.709-.6582-.6572-1.5479-.9873-2.667-.9873-1.0083,0-1.9048.2314-2.688.6934-.7847.4619-1.6108,1.2109-2.478,2.2471l-3.9062-3.1084c1.1763-1.5391,2.583-2.7432,4.2212-3.6113,1.6377-.8672,3.4785-1.3027,5.5229-1.3027s3.8008.3652,5.271,1.0918Z" style="fill: #ffce1f; stroke-width: 0px;"/>
        <polygon points="22.0846 85.3721 21.1354 86.3467 21.1354 89.4502 18.9996 89.4502 18.9996 75.9502 21.1354 75.9502 21.1354 83.7373 21.8034 82.9014 24.4313 79.9404 26.9977 79.9404 23.4645 83.9033 27.3756 89.4502 24.9059 89.4502 22.0846 85.3721" style="fill: #fff; stroke-width: 0px;"/>
        <path d="M33.7887,89.4502c-.0938-.1816-.1758-.4785-.2461-.8887-.6797.709-1.5117,1.0645-2.4961,1.0645-.9551,0-1.7344-.2734-2.3379-.8184s-.9053-1.2188-.9053-2.0215c0-1.0137.3765-1.791,1.1294-2.333s1.8296-.8135,3.23-.8135h1.3096v-.623c0-.4922-.1377-.8867-.4131-1.1826s-.6943-.4443-1.2568-.4443c-.4863,0-.8848.1221-1.1953.3652s-.4658.5527-.4658.9277h-2.1357c0-.5215.1729-1.0098.5186-1.4639s.8159-.8096,1.4106-1.0674,1.2583-.3867,1.9907-.3867c1.1133,0,2.001.2793,2.6631.8389s1.002,1.3467,1.0195,2.3604v4.2891c0,.8555.1201,1.5371.3604,2.0469v.1504h-2.1797ZM31.442,87.9111c.4219,0,.8188-.1016,1.1909-.3066s.6519-.4805.8394-.8262v-1.793h-1.1514c-.791,0-1.3857.1367-1.7842.4121s-.5977.666-.5977,1.1699c0,.4102.1362.7363.4087.9795s.6372.3643,1.0942.3643Z" style="fill: #fff; stroke-width: 0px;"/>
        <path d="M42.9503,86.8662c0-.3809-.1567-.6719-.4702-.8711s-.8335-.375-1.5601-.5273-1.3332-.3454-1.8193-.5801c-1.0667-.5149-1.5996-1.2617-1.5996-2.2402,0-.8203.3457-1.5059,1.0371-2.0566s1.5703-.8262,2.6367-.8262c1.1367,0,2.0552.2812,2.7554.8438s1.0503,1.291,1.0503,2.1875h-2.1357c0-.4102-.1523-.751-.457-1.0234s-.709-.4082-1.2129-.4082c-.4688,0-.8511.1074-1.147.3242s-.4438.5078-.4438.8711c0,.3281.1377.582.4131.7637s.832.3652,1.6699.5498,1.4956.4043,1.9731.6592.832.5605,1.0635.918.3472.791.3472,1.3008c0,.8555-.3545,1.5488-1.0635,2.0791s-1.6377.7959-2.7861.7959c-.7793,0-1.4736-.1406-2.083-.4219s-1.084-.668-1.4238-1.1602-.5098-1.0234-.5098-1.5918h2.0742c.0293.5039.2197.8926.5713,1.165s.8174.4092,1.3975.4092c.5625,0,.9902-.1074,1.2832-.3213s.4395-.4932.4395-.8389Z" style="fill: #fff; stroke-width: 0px;"/>
        <path d="M49.6163,77.6279v2.3125h1.6787v1.582h-1.6787v5.3086c0,.3633.0718.625.2153.7861s.3999.2412.769.2412c.2461,0,.4951-.0293.7471-.0879v1.6523c-.4863.1348-.9551.2031-1.4062.2031-1.6406,0-2.4609-.9062-2.4609-2.7168v-5.3867h-1.5645v-1.582h1.5645v-2.3125h2.1357Z" style="fill: #fff; stroke-width: 0px;"/>
        <path d="M52.671,77.4697c0-.3281.104-.5996.312-.8164s.5054-.3262.8921-.3262.6855.1094.8965.3262.3164.4883.3164.8164c0,.3223-.1055.5908-.3164.8047s-.5098.3203-.8965.3203-.6841-.1064-.8921-.3203-.312-.4824-.312-.8047ZM54.9386,89.4502h-2.1357v-9.5098h2.1357v9.5098Z" style="fill: #fff; stroke-width: 0px;"/>
        <path d="M71.5368,85.2842c-.1289,1.3652-.6328,2.4297-1.5117,3.1943s-2.0479,1.1475-3.5068,1.1475c-1.0195,0-1.9175-.2422-2.6938-.7256s-1.3755-1.1709-1.7974-2.0615-.6416-1.9238-.6592-3.1016v-1.1953c0-1.207.2139-2.2715.6416-3.1914s1.0415-1.6289,1.8413-2.127,1.7241-.7461,2.7729-.7461c1.4121,0,2.5488.3818,3.4102,1.1465s1.3623,1.8477,1.5029,3.248h-2.2148c-.1055-.9199-.3735-1.584-.8042-1.9912s-1.062-.6104-1.894-.6104c-.9668,0-1.7095.3535-2.228,1.0596s-.7837,1.7432-.7954,3.1104v1.1348c0,1.3838.2476,2.4395.7427,3.166.4951.7285,1.2202,1.0918,2.1753,1.0918.873,0,1.5293-.1973,1.9688-.5898s.7178-1.0449.835-1.959h2.2148Z" style="fill: #fff; stroke-width: 0px;"/>
        <path d="M78.8781,89.4502c-.0938-.1816-.1758-.4785-.2461-.8887-.6797.709-1.5117,1.0645-2.4961,1.0645-.9551,0-1.7344-.2734-2.3379-.8184s-.9053-1.2188-.9053-2.0215c0-1.0137.3765-1.791,1.1294-2.333s1.8296-.8135,3.23-.8135h1.3096v-.623c0-.4922-.1377-.8867-.4131-1.1826s-.6943-.4443-1.2568-.4443c-.4863,0-.8848.1221-1.1953.3652s-.4658.5527-.4658.9277h-2.1357c0-.5215.1729-1.0098.5186-1.4639s.8159-.8096,1.4106-1.0674,1.2583-.3867,1.9907-.3867c1.1133,0,2.001.2793,2.6631.8389s1.002,1.3467,1.0195,2.3604v4.2891c0,.8555.1201,1.5371.3604,2.0469v.1504h-2.1797ZM76.5314,87.9111c.4219,0,.8188-.1016,1.1909-.3066s.6519-.4805.8394-.8262v-1.793h-1.1514c-.791,0-1.3857.1367-1.7842.4121s-.5977.666-.5977,1.1699c0,.4102.1362.7363.4087.9795s.6372.3643,1.0942.3643Z" style="fill: #fff; stroke-width: 0px;"/>
        <path d="M87.797,81.8916c-.2812-.0469-.5757-.0703-.8745-.0703-.9785,0-1.6377.375-1.9775,1.125v6.5039h-2.1357v-9.5098h2.0391l.0527,1.0625c.5156-.8262,1.2305-1.2383,2.1445-1.2383.3047,0,.5522.041.7515.123v2.0039Z" style="fill: #fff; stroke-width: 0px;"/>
        <rect x="89.1144" y="75.9502" width="2.1357" height="13.5" style="fill: #fff; stroke-width: 0px;"/>
        <path d="M98.7106,86.8662c0-.3809-.1567-.6719-.4702-.8711s-.8335-.375-1.5601-.5273-1.3332-.3454-1.8193-.5801c-1.0667-.5149-1.5996-1.2617-1.5996-2.2402,0-.8203.3457-1.5059,1.0371-2.0566s1.5703-.8262,2.6367-.8262c1.1367,0,2.0552.2812,2.7554.8438s1.0503,1.291,1.0503,2.1875h-2.1357c0-.4102-.1523-.751-.457-1.0234s-.709-.4082-1.2129-.4082c-.4688,0-.8511.1074-1.147.3242s-.4438.5078-.4438.8711c0,.3281.1377.582.4131.7637s.832.3652,1.6699.5498,1.4956.4043,1.9731.6592.832.5605,1.0635.918.3472.791.3472,1.3008c0,.8555-.3545,1.5488-1.0635,2.0791s-1.6377.7959-2.7861.7959c-.7793,0-1.4736-.1406-2.083-.4219s-1.084-.668-1.4238-1.1602-.5098-1.0234-.5098-1.5918h2.0742c.0293.5039.2197.8926.5713,1.165s.8174.4092,1.3975.4092c.5625,0,.9902-.1074,1.2832-.3213s.4395-.4932.4395-.8389Z" style="fill: #fff; stroke-width: 0px;"/>
        <path d="M110.9254,84.792c0,1.4766-.3296,2.6504-.9888,3.5234s-1.5659,1.3105-2.7202,1.3105c-1.1133,0-1.9805-.4023-2.6016-1.2051l-.1055,1.0293h-1.9336v-13.5h2.1357v4.9043c.6152-.7266,1.4443-1.0898,2.4873-1.0898,1.1602,0,2.0713.4297,2.7334,1.291s.9932,2.0664.9932,3.6133v.123ZM108.7897,84.6064c0-1.0312-.1816-1.8047-.5449-2.3203s-.8906-.7734-1.582-.7734c-.9258,0-1.5762.4043-1.9512,1.2129v3.9199c.3809.8262,1.0371,1.2402,1.9688,1.2402.668,0,1.1836-.25,1.5469-.748s.5508-1.25.5625-2.2578v-.2734Z" style="fill: #fff; stroke-width: 0px;"/>
        <path d="M116.8121,89.626c-1.3535,0-2.4507-.4268-3.2915-1.2793s-1.2612-1.9883-1.2612-3.4062v-.2637c0-.9492.1831-1.7969.5493-2.5439s.8804-1.3291,1.5425-1.7451,1.4004-.623,2.2148-.623c1.2949,0,2.2954.4121,3.0015,1.2383s1.0591,1.9961,1.0591,3.5078v.8613h-6.2139c.0645.7852.3267,1.4062.7866,1.8633s1.0386.6855,1.7358.6855c.9785,0,1.7754-.3965,2.3906-1.1875l1.1514,1.0996c-.3809.5684-.8892,1.0088-1.5249,1.3223s-1.3491.4707-2.1401.4707ZM116.5573,81.4775c-.5859,0-1.0591.2051-1.4194.6152s-.5903.9824-.6899,1.7148h4.0693v-.1582c-.0469-.7148-.2373-1.2559-.5713-1.6221s-.7969-.5498-1.3887-.5498Z" style="fill: #fff; stroke-width: 0px;"/>
        <path d="M127.2575,81.8916c-.2812-.0469-.5757-.0703-.8745-.0703-.9785,0-1.6377.375-1.9775,1.125v6.5039h-2.1357v-9.5098h2.0391l.0527,1.0625c.5156-.8262,1.2305-1.2383,2.1445-1.2383.3047,0,.5522.041.7515.123v2.0039Z" style="fill: #fff; stroke-width: 0px;"/>
        <path d="M128.13,84.624c0-1.4766.3472-2.6553,1.0415-3.5371s1.6157-1.3223,2.7642-1.3223c1.084,0,1.9365.377,2.5576,1.1328l.0967-.957h1.9248v9.2188c0,1.248-.3882,2.2324-1.1646,2.9531s-1.8237,1.082-3.1421,1.082c-.6973,0-1.3784-.1455-2.0435-.4355s-1.1704-.6699-1.5161-1.1387l1.0107-1.2832c.6562.7793,1.4648,1.1699,2.4258,1.1699.709,0,1.2686-.1924,1.6787-.5762s.6152-.9473.6152-1.6914v-.6426c-.6152.6855-1.4355,1.0293-2.4609,1.0293-1.1133,0-2.0229-.4434-2.729-1.3281s-1.0591-2.1094-1.0591-3.6738ZM130.257,84.8096c0,.9551.1948,1.7061.5845,2.2539s.9302.8223,1.6216.8223c.8613,0,1.5-.3691,1.916-1.1074v-4.1836c-.4043-.7207-1.0371-1.082-1.8984-1.082-.7031,0-1.2495.2793-1.6392.8359s-.5845,1.377-.5845,2.4609Z" style="fill: #fff; stroke-width: 0px;"/>
        <path d="M138.5641,77.4697c0-.3281.104-.5996.312-.8164s.5054-.3262.8921-.3262.6855.1094.8965.3262.3164.4883.3164.8164c0,.3223-.1055.5908-.3164.8047s-.5098.3203-.8965.3203-.6841-.1064-.8921-.3203-.312-.4824-.312-.8047ZM140.8317,89.4502h-2.1357v-9.5098h2.1357v9.5098Z" style="fill: #fff; stroke-width: 0px;"/>
        <path d="M36.924,108.3496c-.0938-.1816-.1758-.4775-.2461-.8877-.6797.709-1.5117,1.0635-2.4961,1.0635-.9551,0-1.7344-.2725-2.3379-.8174s-.9053-1.2188-.9053-2.0215c0-1.0137.3765-1.791,1.1294-2.334.7529-.541,1.8296-.8125,3.23-.8125h1.3096v-.624c0-.4922-.1377-.8857-.4131-1.1826-.2754-.2949-.6943-.4434-1.2568-.4434-.4863,0-.8848.1211-1.1953.3652-.3105.2422-.4658.5518-.4658.9268h-2.1357c0-.5215.1729-1.0088.5186-1.4639.3457-.4531.8159-.8096,1.4106-1.0674s1.2583-.3867,1.9907-.3867c1.1133,0,2.001.2803,2.6631.8389.6621.5605,1.002,1.3467,1.0195,2.3604v4.2891c0,.8555.1201,1.5381.3604,2.0479v.1494h-2.1797ZM34.5773,106.8115c.4219,0,.8188-.1025,1.1909-.3076s.6519-.4805.8394-.8262v-1.793h-1.1514c-.791,0-1.3857.1377-1.7842.4131s-.5977.665-.5977,1.1689c0,.4102.1362.7373.4087.9795.2725.2441.6372.3652,1.0942.3652Z" style="fill: #fff; stroke-width: 0px;"/>
        <rect x="40.9362" y="94.8496" width="2.1357" height="13.5" style="fill: #fff; stroke-width: 0px;"/>
        <polygon points="48.3312 104.2715 47.382 105.2471 47.382 108.3496 45.2462 108.3496 45.2462 94.8496 47.382 94.8496 47.382 102.6367 48.0499 101.8017 50.6779 98.8398 53.2443 98.8398 49.7111 102.8037 53.6222 108.3496 51.1525 108.3496 48.3312 104.2715" style="fill: #fff; stroke-width: 0px;"/>
        <path d="M53.712,103.5068c0-.9316.1846-1.7715.5537-2.5176.3691-.748.8877-1.3223,1.5557-1.7227.668-.4023,1.4355-.6025,2.3027-.6025,1.2832,0,2.3247.4131,3.1245,1.2393s1.2319,1.9219,1.2964,3.2871l.0088.501c0,.9375-.1802,1.7754-.5405,2.5137s-.876,1.3096-1.5469,1.7139-1.4458.6064-2.3247.6064c-1.3418,0-2.4155-.4463-3.2212-1.3408-.8057-.8926-1.2085-2.084-1.2085-3.5723v-.1055ZM55.8478,103.6914c0,.9785.2021,1.7451.6064,2.2979.4043.5547.9668.8311,1.6875.8311s1.2817-.2812,1.6831-.8438.6021-1.3857.6021-2.4697c0-.9609-.2065-1.7227-.6196-2.2852s-.9741-.8438-1.6831-.8438c-.6973,0-1.251.2773-1.6611.8301-.4102.5547-.6152,1.3818-.6152,2.4834Z" style="fill: #fff; stroke-width: 0px;"/>
        <path d="M66.3859,99.8769c.6973-.8086,1.5791-1.2129,2.6455-1.2129,2.0273,0,3.0557,1.1572,3.085,3.4717v6.2139h-2.1357v-6.1348c0-.6562-.1421-1.1201-.4263-1.3936-.2842-.2715-.7017-.4082-1.2524-.4082-.8555,0-1.4941.3809-1.916,1.1426v6.7939h-2.1357v-13.5h2.1357v5.0273Z" style="fill: #fff; stroke-width: 0px;"/>
        <path d="M73.755,103.5068c0-.9316.1846-1.7715.5537-2.5176.3691-.748.8877-1.3223,1.5557-1.7227.668-.4023,1.4355-.6025,2.3027-.6025,1.2832,0,2.3247.4131,3.1245,1.2393s1.2319,1.9219,1.2964,3.2871l.0088.501c0,.9375-.1802,1.7754-.5405,2.5137s-.876,1.3096-1.5469,1.7139-1.4458.6064-2.3247.6064c-1.3418,0-2.4155-.4463-3.2212-1.3408-.8057-.8926-1.2085-2.084-1.2085-3.5723v-.1055ZM75.8908,103.6914c0,.9785.2021,1.7451.6064,2.2979.4043.5547.9668.8311,1.6875.8311s1.2817-.2812,1.6831-.8438.6021-1.3857.6021-2.4697c0-.9609-.2065-1.7227-.6196-2.2852s-.9741-.8438-1.6831-.8438c-.6973,0-1.251.2773-1.6611.8301-.4102.5547-.6152,1.3818-.6152,2.4834Z" style="fill: #fff; stroke-width: 0px;"/>
        <rect x="84.3683" y="94.8496" width="2.1357" height="13.5" style="fill: #fff; stroke-width: 0px;"/>
        <path d="M88.6315,96.3701c0-.3281.104-.6006.312-.8174s.5054-.3252.8921-.3252.6855.1084.8965.3252.3164.4893.3164.8174c0,.3223-.1055.5898-.3164.8047-.2109.2129-.5098.3203-.8965.3203s-.6841-.1074-.8921-.3203c-.208-.2148-.312-.4824-.312-.8047ZM90.8991,108.3496h-2.1357v-9.5098h2.1357v9.5098Z" style="fill: #fff; stroke-width: 0px;"/>
        <polygon points="96.4528 105.6426 98.4655 98.8398 100.6715 98.8398 97.3756 108.3496 95.5211 108.3496 92.1989 98.8398 94.4137 98.8398 96.4528 105.6426" style="fill: #fff; stroke-width: 0px;"/>
        <path d="M107.3019,108.3496c-.0938-.1816-.1758-.4775-.2461-.8877-.6797.709-1.5117,1.0635-2.4961,1.0635-.9551,0-1.7344-.2725-2.3379-.8174s-.9053-1.2188-.9053-2.0215c0-1.0137.3765-1.791,1.1294-2.334.7529-.541,1.8296-.8125,3.23-.8125h1.3096v-.624c0-.4922-.1377-.8857-.4131-1.1826-.2754-.2949-.6943-.4434-1.2568-.4434-.4863,0-.8848.1211-1.1953.3652-.3105.2422-.4658.5518-.4658.9268h-2.1357c0-.5215.1729-1.0088.5186-1.4639.3457-.4531.8159-.8096,1.4106-1.0674s1.2583-.3867,1.9907-.3867c1.1133,0,2.001.2803,2.6631.8389.6621.5605,1.002,1.3467,1.0195,2.3604v4.2891c0,.8555.1201,1.5381.3604,2.0479v.1494h-2.1797ZM104.9552,106.8115c.4219,0,.8188-.1025,1.1909-.3076s.6519-.4805.8394-.8262v-1.793h-1.1514c-.791,0-1.3857.1377-1.7842.4131s-.5977.665-.5977,1.1689c0,.4102.1362.7373.4087.9795.2725.2441.6372.3652,1.0942.3652Z" style="fill: #fff; stroke-width: 0px;"/>
        <path d="M119.5807,103.6914c0,1.4766-.3296,2.6514-.9888,3.5244s-1.5659,1.3096-2.7202,1.3096c-1.1133,0-1.9805-.4014-2.6016-1.2041l-.1055,1.0283h-1.9336v-13.5h2.1357v4.9043c.6152-.7266,1.4443-1.0898,2.4873-1.0898,1.1602,0,2.0713.4307,2.7334,1.292s.9932,2.0654.9932,3.6123v.123ZM117.445,103.5068c0-1.0312-.1816-1.8047-.5449-2.3203s-.8906-.7734-1.582-.7734c-.9258,0-1.5762.4043-1.9512,1.2129v3.9199c.3809.8262,1.0371,1.2393,1.9688,1.2393.668,0,1.1836-.249,1.5469-.7471s.5508-1.251.5625-2.2588v-.2725Z" style="fill: #fff; stroke-width: 0px;"/>
        <path d="M126.8536,108.3496c-.0938-.1816-.1758-.4775-.2461-.8877-.6797.709-1.5117,1.0635-2.4961,1.0635-.9551,0-1.7344-.2725-2.3379-.8174s-.9053-1.2188-.9053-2.0215c0-1.0137.3765-1.791,1.1294-2.334.7529-.541,1.8296-.8125,3.23-.8125h1.3096v-.624c0-.4922-.1377-.8857-.4131-1.1826-.2754-.2949-.6943-.4434-1.2568-.4434-.4863,0-.8848.1211-1.1953.3652-.3105.2422-.4658.5518-.4658.9268h-2.1357c0-.5215.1729-1.0088.5186-1.4639.3457-.4531.8159-.8096,1.4106-1.0674s1.2583-.3867,1.9907-.3867c1.1133,0,2.001.2803,2.6631.8389.6621.5605,1.002,1.3467,1.0195,2.3604v4.2891c0,.8555.1201,1.5381.3604,2.0479v.1494h-2.1797ZM124.507,106.8115c.4219,0,.8188-.1025,1.1909-.3076s.6519-.4805.8394-.8262v-1.793h-1.1514c-.791,0-1.3857.1377-1.7842.4131s-.5977.665-.5977,1.1689c0,.4102.1362.7373.4087.9795.2725.2441.6372.3652,1.0942.3652Z" style="fill: #fff; stroke-width: 0px;"/>
        <path d="M65.4083,122.4072c0-.9316.1846-1.7715.5537-2.5176.3691-.748.8877-1.3223,1.5557-1.7227.668-.4023,1.4355-.6025,2.3027-.6025,1.2832,0,2.3247.4131,3.1245,1.2393s1.2319,1.9219,1.2964,3.2871l.0088.501c0,.9375-.1802,1.7754-.5405,2.5137s-.876,1.3096-1.5469,1.7139-1.4458.6064-2.3247.6064c-1.3418,0-2.4155-.4463-3.2212-1.3408-.8057-.8926-1.2085-2.084-1.2085-3.5723v-.1055ZM73.0021,113.9433c0,.6445-.186,1.1807-.5581,1.6084s-.8394.6416-1.4019.6416c-.2285,0-.4263-.0244-.5933-.0752-.167-.0488-.4043-.1621-.7119-.3379s-.5244-.2812-.6504-.3164-.2651-.0527-.4175-.0527c-.2227,0-.4116.084-.5669.25-.1553.168-.2329.3857-.2329.6553l-1.3096-.0703c0-.6445.186-1.1865.5581-1.626s.8364-.6592,1.3931-.6592c.334,0,.7368.1318,1.2085.3955s.8599.3955,1.1646.3955c.2227,0,.4131-.083.5713-.251.1582-.166.2373-.3877.2373-.6631l1.3096.1055ZM67.5441,122.5918c0,.9785.2021,1.7451.6064,2.2979.4043.5547.9668.8311,1.6875.8311s1.2817-.2812,1.6831-.8438.6021-1.3857.6021-2.4697c0-.9609-.2065-1.7227-.6196-2.2852s-.9741-.8438-1.6831-.8438c-.6973,0-1.251.2773-1.6611.8301-.4102.5547-.6152,1.3818-.6152,2.4834Z" style="fill: #fff; stroke-width: 0px;"/>
        <rect x="76.0216" y="113.75" width="2.1357" height="13.5" style="fill: #fff; stroke-width: 0px;"/>
        <path d="M86.108,126.3183c-.627.7383-1.5176,1.1074-2.6719,1.1074-1.0312,0-1.812-.3018-2.3423-.9053s-.7954-1.4766-.7954-2.6191v-6.1611h2.1357v6.1348c0,1.207.501,1.8105,1.5029,1.8105,1.0371,0,1.7373-.3721,2.1006-1.1162v-6.8291h2.1357v9.5098h-2.0127l-.0527-.9316Z" style="fill: #fff; stroke-width: 0px;"/>
        <path d="M93.0343,115.4287v2.3115h1.6787v1.582h-1.6787v5.3086c0,.3633.0718.626.2153.7861.1436.1621.3999.2422.769.2422.2461,0,.4951-.0293.7471-.0879v1.6523c-.4863.1348-.9551.2021-1.4062.2021-1.6406,0-2.4609-.9053-2.4609-2.7158v-5.3877h-1.5645v-1.582h1.5645v-2.3115h2.1357Z" style="fill: #fff; stroke-width: 0px;"/>
      </g>
    </g>
  </g>
</svg>