<?xml version="1.0" encoding="UTF-8"?>
<svg id="b" data-name="Layer 2" xmlns="http://www.w3.org/2000/svg" viewBox="0 0 160 160">
  <g id="c" data-name="main">
    <g>
      <circle cx="80" cy="80" r="80" style="fill: #e3000f; stroke-width: 0px;"/>
      <g>
        <path d="M32.7669,49.5957c1.0767.4912,1.8984,1.1523,2.4639,1.9844.5649.832.8481,1.7598.8481,2.7832,0,1.3018-.3682,2.3896-1.104,3.2646-.7363.875-1.7764,1.5039-3.1201,1.8877,1.4507.1494,2.6343.667,3.5518,1.5518.917.8857,1.376,2.1396,1.376,3.7607,0,1.2158-.3198,2.3311-.96,3.3438-.6396,1.0137-1.584,1.8184-2.832,2.416-1.2476.5967-2.7358.8955-4.4639.8955-3.1572,0-5.6318-1.0879-7.4238-3.2637l2.7197-2.6562c.7251.7256,1.4346,1.2539,2.1284,1.584.6929.3311,1.4556.4961,2.2876.4961,1.0029,0,1.813-.2773,2.4321-.832.6187-.5547.9282-1.3223.9282-2.3037,0-1.1094-.2935-1.9043-.8804-2.3838-.5869-.4805-1.4668-.7207-2.6396-.7207h-1.792l.5439-3.4873h1.248c.96,0,1.7168-.2451,2.272-.7363.5542-.4902.832-1.1836.832-2.0801,0-.7891-.2563-1.4023-.7681-1.8398-.5122-.4375-1.2163-.6562-2.1123-.6562-1.5146,0-2.9229.6299-4.2236,1.8877l-2.4961-2.7197c2.0479-1.9404,4.48-2.9121,7.2959-2.9121,1.5146,0,2.8105.2461,3.8882.7363Z" style="fill: #ffce1f; stroke-width: 0px;"/>
        <polygon points="53.4544 54.6201 56.2381 57.4033 52.5262 61.0518 56.2381 64.8594 53.4544 67.6436 49.7743 63.7715 45.9984 67.6436 43.2142 64.8594 46.8944 61.2119 43.2142 57.4033 45.9984 54.6201 49.6463 58.4912 53.4544 54.6201" style="fill: #ffce1f; stroke-width: 0px;"/>
        <polygon points="73.8065 49.3076 73.8065 70.9395 68.8465 70.9395 68.8465 54.2354 64.2064 57.084 61.9984 53.7236 69.2943 49.3076 73.8065 49.3076" style="fill: #ffce1f; stroke-width: 0px;"/>
        <path d="M91.2108,51.7715c1.397,1.9414,2.0962,4.7363,2.0962,8.3838,0,3.627-.6992,6.4219-2.0962,8.3848-1.3975,1.9629-3.4189,2.9434-6.064,2.9434s-4.667-.9805-6.064-2.9434c-1.3975-1.9629-2.0962-4.7578-2.0962-8.3848,0-3.6475.6987-6.4424,2.0962-8.3838,1.397-1.9404,3.4185-2.9121,6.064-2.9121s4.6665.9717,6.064,2.9121ZM83.4188,53.3076c-.4268.4697-.7412,1.248-.9438,2.3359-.2031,1.0879-.3042,2.5918-.3042,4.5117,0,1.9209.1011,3.4297.3042,4.5283.2026,1.0986.5171,1.8828.9438,2.3525.4268.4688,1.0024.7031,1.728.7031.7251,0,1.3008-.2285,1.728-.6875.4263-.459.7412-1.2373.9438-2.3359s.3042-2.6182.3042-4.5605c0-1.9404-.1016-3.4609-.3042-4.5596s-.5176-1.8721-.9438-2.3203c-.4272-.4473-1.0029-.6719-1.728-.6719-.7256,0-1.3013.2354-1.728.7041Z" style="fill: #ffce1f; stroke-width: 0px;"/>
        <path d="M109.5882,51.7715c1.397,1.9414,2.0962,4.7363,2.0962,8.3838,0,3.627-.6992,6.4219-2.0962,8.3848-1.3975,1.9629-3.4189,2.9434-6.064,2.9434s-4.667-.9805-6.064-2.9434c-1.3975-1.9629-2.0962-4.7578-2.0962-8.3848,0-3.6475.6987-6.4424,2.0962-8.3838,1.397-1.9404,3.4185-2.9121,6.064-2.9121s4.6665.9717,6.064,2.9121ZM101.7962,53.3076c-.4268.4697-.7412,1.248-.9438,2.3359-.2031,1.0879-.3042,2.5918-.3042,4.5117,0,1.9209.1011,3.4297.3042,4.5283.2026,1.0986.5171,1.8828.9438,2.3525.4268.4688,1.0024.7031,1.728.7031.7251,0,1.3008-.2285,1.728-.6875.4263-.459.7412-1.2373.9438-2.3359s.3042-2.6182.3042-4.5605c0-1.9404-.1016-3.4609-.3042-4.5596s-.5176-1.8721-.9438-2.3203c-.4272-.4473-1.0029-.6719-1.728-.6719-.7256,0-1.3013.2354-1.728.7041Z" style="fill: #ffce1f; stroke-width: 0px;"/>
        <path d="M129.9237,66.8594c.7681.6299,1.7812.9443,3.04.9443,1.5361,0,3.0928-.459,4.6719-1.376v3.8721c-.896.4053-1.7441.7041-2.5439.8955-.7998.1924-1.6694.2881-2.6079.2881-2.4751,0-4.5176-.6611-6.1279-1.9834-1.6113-1.3232-2.6724-3.1895-3.1841-5.6006h-2.752l.7041-2.624h1.9199v-2.2715h-2.624l.7041-2.6562h2.1118c.6187-2.3252,1.7759-4.1543,3.4722-5.4883,1.6958-1.333,3.6743-2,5.936-2,2.2397,0,4.2769.6191,6.1118,1.8564l-1.792,3.0723c-.6616-.4482-1.3232-.7734-1.9839-.9766-.6616-.2021-1.376-.3037-2.144-.3037-1.0454,0-1.9575.3203-2.7363.96s-1.3599,1.5996-1.7437,2.8799h7.7759l-.7041,2.6562h-7.2959v2.2715h6.8159l-.6719,2.624h-5.9839c.3198,1.3447.8638,2.3311,1.6318,2.96Z" style="fill: #ffce1f; stroke-width: 0px;"/>
        <path d="M31.4071,81.7207v9.502c0,1.5107-.4834,2.707-1.4502,3.5889-.9668.8828-2.2544,1.3232-3.8623,1.3232-1.6274,0-2.9199-.4346-3.877-1.3037s-1.4355-2.0752-1.4355-3.6182v-9.4922h2.4609v9.5117c0,.9512.2407,1.6768.7227,2.1777.4819.502,1.1914.752,2.1289.752,1.9009,0,2.8516-1.002,2.8516-3.0078v-9.4336h2.4609Z" style="fill: #fff; stroke-width: 0px;"/>
        <path d="M36.0526,85.3731l.0684,1.2207c.7812-.9434,1.8066-1.416,3.0762-1.416,2.2007,0,3.3203,1.2598,3.3594,3.7793v6.9824h-2.373v-6.8457c0-.6699-.145-1.167-.4346-1.4893s-.7632-.4834-1.4209-.4834c-.957,0-1.6699.4336-2.1387,1.2988v7.5195h-2.373v-10.5664h2.2363Z" style="fill: #fff; stroke-width: 0px;"/>
        <path d="M44.7865,82.6289c0-.3643.1157-.667.3467-.9082.231-.2402.5615-.3613.9912-.3613s.7617.1211.9961.3613c.2344.2412.3516.5439.3516.9082,0,.3584-.1172.6562-.3516.8936-.2344.2383-.5664.3564-.9961.3564s-.7603-.1182-.9912-.3564c-.231-.2373-.3467-.5352-.3467-.8936ZM47.306,95.9395h-2.373v-10.5664h2.373v10.5664Z" style="fill: #fff; stroke-width: 0px;"/>
        <path d="M59.013,90.7637c0,1.6406-.3662,2.9463-1.0986,3.916-.7324.9707-1.7397,1.4551-3.0225,1.4551-1.2368,0-2.2007-.4453-2.8906-1.3379l-.1172,1.1426h-2.1484v-15h2.373v5.4492c.6836-.8066,1.605-1.2109,2.7637-1.2109,1.2891,0,2.3013.4785,3.0371,1.4355s1.1035,2.2949,1.1035,4.0137v.1367ZM56.64,90.5586c0-1.1455-.2017-2.0049-.6055-2.5781-.4038-.5723-.9897-.8594-1.7578-.8594-1.0288,0-1.7515.4492-2.168,1.3477v4.3555c.4233.918,1.1523,1.377,2.1875,1.377.7422,0,1.3149-.2764,1.7188-.8301.4038-.5527.6118-1.3896.625-2.5098v-.3027Z" style="fill: #fff; stroke-width: 0px;"/>
        <path d="M65.5418,96.1348c-1.5039,0-2.7231-.4736-3.6572-1.4209s-1.4014-2.208-1.4014-3.7842v-.293c0-1.0547.2036-1.9971.6104-2.8271s.978-1.4756,1.7139-1.9385c.7358-.4619,1.5562-.6934,2.4609-.6934,1.439,0,2.5503.459,3.335,1.377s1.1768,2.2168,1.1768,3.8965v.957h-6.9043c.0718.873.3628,1.5625.874,2.0703s1.1538.7617,1.9287.7617c1.0874,0,1.9727-.4395,2.6562-1.3184l1.2793,1.2207c-.4233.6318-.9878,1.1221-1.6943,1.4697-.7065.3486-1.499.5225-2.3779.5225ZM65.2586,87.082c-.6509,0-1.1768.2285-1.5771.6836-.4004.4561-.6558,1.0908-.7666,1.9043h4.5215v-.1758c-.0522-.7939-.2637-1.3945-.6348-1.8018-.3711-.4062-.8853-.6104-1.543-.6104Z" style="fill: #fff; stroke-width: 0px;"/>
        <path d="M74.5545,82.8047v2.5684h1.8652v1.7578h-1.8652v5.8984c0,.4043.0796.6953.2393.874.1597.1797.4443.2686.8545.2686.2734,0,.5503-.0322.8301-.0977v1.8359c-.5405.1504-1.061.2246-1.5625.2246-1.8228,0-2.7344-1.0059-2.7344-3.0176v-5.9863h-1.7383v-1.7578h1.7383v-2.5684h2.373Z" style="fill: #fff; stroke-width: 0px;"/>
        <path d="M90.6732,92.2774c0-.625-.2197-1.1064-.6592-1.4453-.4395-.3379-1.2319-.6797-2.3779-1.0254-1.146-.3447-2.0575-.728-2.7344-1.1523-1.296-.8125-1.9434-1.875-1.9434-3.1836,0-1.1455.4673-2.0898,1.4014-2.832s2.147-1.1133,3.6377-1.1133c.9897,0,1.8716.1826,2.6465.5469.7749.3652,1.3833.8838,1.8262,1.5576s.6641,1.4209.6641,2.2412h-2.4609c0-.7422-.2329-1.3232-.6982-1.7432s-1.1313-.6299-1.9971-.6299c-.8071,0-1.4341.1729-1.8799.5176-.4458.3457-.6689.8271-.6689,1.4453,0,.5215.2407.9561.7227,1.3037.4819.3486,1.2759.6875,2.3828,1.0156,1.1069.3291,1.9956.7031,2.666,1.123s1.1621.9023,1.4746,1.4453c.3125.5439.4688,1.1807.4688,1.9092,0,1.1855-.4541,2.1279-1.3623,2.8271-.9082.7002-2.1401,1.0498-3.6963,1.0498-1.0288,0-1.9741-.1904-2.8369-.5713s-1.5332-.9062-2.0117-1.5771c-.4785-.6699-.7178-1.4512-.7178-2.3438h2.4707c0,.8076.2671,1.4326.8008,1.875.5337.4434,1.2988.6641,2.2949.6641.8594,0,1.5054-.1738,1.9385-.5225.4331-.3477.6494-.8086.6494-1.3818Z" style="fill: #fff; stroke-width: 0px;"/>
        <path d="M104.3871,90.7637c0,1.6348-.3711,2.9385-1.1133,3.9111-.7422.9736-1.7383,1.46-2.9883,1.46-1.1587,0-2.0864-.3809-2.7832-1.1426v5.0098h-2.373v-14.6289h2.1875l.0977,1.0742c.6968-.8457,1.644-1.2695,2.8418-1.2695,1.2891,0,2.2998.4805,3.0322,1.4404.7324.9609,1.0986,2.2939,1.0986,3.999v.1465ZM102.0238,90.5586c0-1.0547-.21-1.8906-.6299-2.5098-.4199-.6182-1.0205-.9277-1.8018-.9277-.9702,0-1.6665.4004-2.0898,1.2012v4.6875c.4297.8203,1.1328,1.2305,2.1094,1.2305.7554,0,1.3462-.3037,1.7725-.9131.4263-.6084.6396-1.5312.6396-2.7686Z" style="fill: #fff; stroke-width: 0px;"/>
        <path d="M105.8495,90.5586c0-1.0352.2051-1.9678.6152-2.7979s.9863-1.4678,1.7285-1.9141c.7422-.4453,1.5952-.6689,2.5586-.6689,1.4258,0,2.583.459,3.4717,1.377s1.3687,2.1357,1.4404,3.6523l.0098.5566c0,1.042-.2002,1.9727-.6006,2.793s-.9731,1.4551-1.7188,1.9043-1.6064.6738-2.583.6738c-1.4907,0-2.6841-.4961-3.5791-1.4893-.895-.9922-1.3428-2.3154-1.3428-3.9697v-.1172ZM108.2225,90.7637c0,1.0879.2246,1.9385.6738,2.5537s1.0742.9229,1.875.9229,1.4243-.3125,1.8701-.9375.6689-1.5391.6689-2.7441c0-1.0674-.2295-1.9141-.6885-2.5391s-1.0825-.9375-1.8701-.9375c-.7749,0-1.3901.3076-1.8457.9229s-.6836,1.5352-.6836,2.7588Z" style="fill: #fff; stroke-width: 0px;"/>
        <path d="M123.1078,87.541c-.3125-.0518-.6396-.0781-.9717-.0781-1.0874,0-1.8198.417-2.1973,1.25v7.2266h-2.373v-10.5664h2.2656l.0586,1.1816c.5728-.918,1.3672-1.377,2.3828-1.377.3384,0,.6138.0459.835.1367v2.2266Z" style="fill: #fff; stroke-width: 0px;"/>
        <path d="M128.0414,82.8047v2.5684h1.8652v1.7578h-1.8652v5.8984c0,.4043.0796.6953.2393.874.1597.1797.4443.2686.8545.2686.2734,0,.5503-.0322.8301-.0977v1.8359c-.5405.1504-1.061.2246-1.5625.2246-1.8228,0-2.7344-1.0059-2.7344-3.0176v-5.9863h-1.7383v-1.7578h1.7383v-2.5684h2.373Z" style="fill: #fff; stroke-width: 0px;"/>
        <path d="M137.5292,93.0684c0-.4229-.1743-.7451-.5225-.9668-.3481-.2207-.9263-.416-1.7334-.5859-.8071-.1689-1.481-.3837-2.0215-.6445-1.1852-.572-1.7773-1.4023-1.7773-2.4902,0-.9111.3843-1.6729,1.1523-2.2852.7681-.6113,1.7446-.918,2.9297-.918,1.2632,0,2.2837.3125,3.0615.9375s1.167,1.4355,1.167,2.4316h-2.373c0-.4551-.1694-.835-.5078-1.1377s-.7876-.4541-1.3477-.4541c-.521,0-.9458.1211-1.2744.3613-.3286.2412-.4932.5635-.4932.9668,0,.3652.1528.6484.459.8496.3062.2021.9243.4053,1.8555.6104s1.6616.4492,2.1924.7324.9243.624,1.1816,1.0205c.2573.3975.3857.8789.3857,1.4453,0,.9512-.394,1.7207-1.1816,2.3096-.7876.5898-1.8198.8838-3.0957.8838-.8657,0-1.6372-.1562-2.3145-.4688s-1.2046-.7422-1.582-1.2891-.5664-1.1357-.5664-1.7676h2.3047c.0327.5605.2441.9912.6348,1.2939s.9082.4541,1.5527.4541c.625,0,1.1001-.1182,1.4258-.3564.3257-.2373.4883-.5479.4883-.9326Z" style="fill: #fff; stroke-width: 0px;"/>
        <path d="M29.1136,116.9395v-14.2188h4.873c1.6079,0,2.832.3223,3.6719.9668s1.2598,1.6055,1.2598,2.8809c0,.6514-.1758,1.2373-.5273,1.7578-.3516.5215-.8657.9248-1.543,1.2109.7681.209,1.3623.6006,1.7822,1.1768s.6299,1.2686.6299,2.0752c0,1.335-.4282,2.3604-1.2842,3.0762-.856.7168-2.0815,1.0742-3.6768,1.0742h-5.1855ZM31.5843,108.707h2.4219c.7681,0,1.3687-.1738,1.8018-.5225.4331-.3477.6494-.8408.6494-1.4795,0-.7031-.2002-1.2109-.6006-1.5234s-1.0239-.4688-1.8701-.4688h-2.4023v3.9941ZM31.5843,110.5234v4.4434h2.7441c.7749,0,1.3804-.1914,1.8164-.5762.436-.3838.6543-.918.6543-1.6016,0-1.4775-.7554-2.2324-2.2656-2.2656h-2.9492Z" style="fill: #fff; stroke-width: 0px;"/>
        <path d="M47.6087,116.9395c-.104-.2012-.1953-.5303-.2734-.9863-.7554.7881-1.6797,1.1816-2.7734,1.1816-1.061,0-1.9272-.3027-2.5977-.9082s-1.0059-1.3535-1.0059-2.2461c0-1.126.4185-1.9902,1.2549-2.5928.8364-.6016,2.0327-.9033,3.5889-.9033h1.4551v-.6934c0-.5469-.1528-.9844-.459-1.3135-.3062-.3281-.7715-.4932-1.3965-.4932-.5405,0-.9829.1357-1.3281.4053-.3452.2705-.5176.6143-.5176,1.0303h-2.373c0-.5791.1919-1.1211.5762-1.626.3843-.5039.9067-.8994,1.5674-1.1865.6606-.2861,1.3979-.4297,2.2119-.4297,1.2368,0,2.2231.3115,2.959.9326.7358.6221,1.1133,1.4961,1.1328,2.6221v4.7656c0,.9512.1333,1.709.4004,2.2754v.166h-2.4219ZM45.0013,115.2305c.4688,0,.9097-.1133,1.3232-.3418.4136-.2275.7241-.5332.9326-.918v-1.9922h-1.2793c-.8789,0-1.5396.1533-1.9824.459-.4429.3066-.6641.7393-.6641,1.2988,0,.4561.1514.8193.4541,1.0889.3027.2705.708.4053,1.2158.4053Z" style="fill: #fff; stroke-width: 0px;"/>
        <path d="M57.5047,108.541c-.3125-.0518-.6396-.0781-.9717-.0781-1.0874,0-1.8198.417-2.1973,1.25v7.2266h-2.373v-10.5664h2.2656l.0586,1.1816c.5728-.918,1.3672-1.377,2.3828-1.377.3384,0,.6138.0459.835.1367v2.2266Z" style="fill: #fff; stroke-width: 0px;"/>
        <path d="M59.8539,106.9395l-1.2109-.752c.5859-.8525.8887-1.7539.9082-2.7051v-1.543h2.0801v1.3477c0,.6709-.1709,1.3467-.5127,2.0264-.3418.6807-.7632,1.2227-1.2646,1.626Z" style="fill: #fff; stroke-width: 0px;"/>
        <path d="M63.4037,103.6289c0-.3643.1157-.667.3467-.9082.231-.2402.5615-.3613.9912-.3613s.7617.1211.9961.3613c.2344.2412.3516.5439.3516.9082,0,.3584-.1172.6562-.3516.8936-.2344.2383-.5664.3564-.9961.3564s-.7603-.1182-.9912-.3564c-.231-.2373-.3467-.5352-.3467-.8936ZM65.9232,116.9395h-2.373v-10.5664h2.373v10.5664Z" style="fill: #fff; stroke-width: 0px;"/>
        <polygon points="76.7191 112.4082 75.6644 113.4922 75.6644 116.9395 73.2914 116.9395 73.2914 101.9395 75.6644 101.9395 75.6644 110.5918 76.4066 109.6641 79.3265 106.3731 82.1781 106.3731 78.2523 110.7774 82.598 116.9395 79.8539 116.9395 76.7191 112.4082" style="fill: #fff; stroke-width: 0px;"/>
        <path d="M89.3412,108.541c-.3125-.0518-.6396-.0781-.9717-.0781-1.0874,0-1.8198.417-2.1973,1.25v7.2266h-2.373v-10.5664h2.2656l.0586,1.1816c.5728-.918,1.3672-1.377,2.3828-1.377.3384,0,.6138.0459.835.1367v2.2266Z" style="fill: #fff; stroke-width: 0px;"/>
        <path d="M95.3065,117.1348c-1.5039,0-2.7231-.4736-3.6572-1.4209s-1.4014-2.208-1.4014-3.7842v-.293c0-1.0547.2036-1.9971.6104-2.8271s.978-1.4756,1.7139-1.9385c.7358-.4619,1.5562-.6934,2.4609-.6934,1.439,0,2.5503.459,3.335,1.377s1.1768,2.2168,1.1768,3.8965v.957h-6.9043c.0718.873.3628,1.5625.874,2.0703s1.1538.7617,1.9287.7617c1.0874,0,1.9727-.4395,2.6562-1.3184l1.2793,1.2207c-.4233.6318-.9878,1.1221-1.6943,1.4697-.7065.3486-1.499.5225-2.3779.5225ZM95.0233,108.082c-.6509,0-1.1768.2285-1.5771.6836-.4004.4561-.6558,1.0908-.7666,1.9043h4.5215v-.1758c-.0522-.7939-.2637-1.3945-.6348-1.8018-.3711-.4062-.8853-.6104-1.543-.6104Z" style="fill: #fff; stroke-width: 0px;"/>
        <path d="M100.9237,111.5781c0-1.627.3774-2.9346,1.1328-3.9209s1.7676-1.4795,3.0371-1.4795c1.1196,0,2.0249.3906,2.7148,1.1719v-5.4102h2.373v15h-2.1484l-.1172-1.0938c-.7095.8594-1.6567,1.2891-2.8418,1.2891-1.2368,0-2.2378-.498-3.0029-1.4941s-1.1475-2.3496-1.1475-4.0625ZM103.2967,111.7832c0,1.0742.2065,1.9131.6201,2.5146.4136.6025,1.001.9033,1.7627.9033.9702,0,1.6797-.4326,2.1289-1.2988v-4.5117c-.436-.8457-1.1392-1.2695-2.1094-1.2695-.7681,0-1.3608.3047-1.7773.9131-.4165.6094-.625,1.5254-.625,2.749Z" style="fill: #fff; stroke-width: 0px;"/>
        <path d="M112.472,103.6289c0-.3643.1157-.667.3467-.9082.231-.2402.5615-.3613.9912-.3613s.7617.1211.9961.3613c.2344.2412.3516.5439.3516.9082,0,.3584-.1172.6562-.3516.8936-.2344.2383-.5664.3564-.9961.3564s-.7603-.1182-.9912-.3564c-.231-.2373-.3467-.5352-.3467-.8936ZM114.9916,116.9395h-2.373v-10.5664h2.373v10.5664Z" style="fill: #fff; stroke-width: 0px;"/>
        <path d="M117.3392,103.6289c0-.3643.1157-.667.3467-.9082.231-.2402.5615-.3613.9912-.3613s.7617.1211.9961.3613c.2344.2412.3516.5439.3516.9082,0,.3584-.1172.6562-.3516.8936-.2344.2383-.5664.3564-.9961.3564s-.7603-.1182-.9912-.3564c-.231-.2373-.3467-.5352-.3467-.8936ZM119.8587,116.9395h-2.373v-10.5664h2.373v10.5664Z" style="fill: #fff; stroke-width: 0px;"/>
        <path d="M125.3353,103.8047v2.5684h1.8652v1.7578h-1.8652v5.8984c0,.4043.0796.6953.2393.874.1597.1797.4443.2686.8545.2686.2734,0,.5503-.0322.8301-.0977v1.8359c-.5405.1504-1.061.2246-1.5625.2246-1.8228,0-2.7344-1.0059-2.7344-3.0176v-5.9863h-1.7383v-1.7578h1.7383v-2.5684h2.373Z" style="fill: #fff; stroke-width: 0px;"/>
        <path d="M128.7191,103.6289c0-.3643.1157-.667.3467-.9082.231-.2402.5615-.3613.9912-.3613s.7617.1211.9961.3613c.2344.2412.3516.5439.3516.9082,0,.3584-.1172.6562-.3516.8936-.2344.2383-.5664.3564-.9961.3564s-.7603-.1182-.9912-.3564c-.231-.2373-.3467-.5352-.3467-.8936ZM131.2386,116.9395h-2.373v-10.5664h2.373v10.5664Z" style="fill: #fff; stroke-width: 0px;"/>
      </g>
    </g>
  </g>
</svg>