<?xml version="1.0" encoding="UTF-8"?><svg id="b" xmlns="http://www.w3.org/2000/svg" viewBox="0 0 210.5306 104.1047"><g id="c"><g><polygon points="88.3986 16.1214 0 16.1214 2.0002 0 90.3987 0 88.3986 16.1214" style="fill:#e2050d;"/><polygon points="123.6543 101.9161 74.5655 101.9161 76.5657 90.3535 125.6544 90.3535 123.6543 101.9161" style="fill:#e2050d;"/><g><polygon points="3.9569 4.9804 4.3407 2.9001 8.1811 2.9001 6.1651 14.2612 3.8607 14.2612 5.4929 4.9804 3.9569 4.9804" style="fill:#fff;"/><polygon points="9.7493 4.9804 10.1332 2.9001 13.9736 2.9001 11.9575 14.2612 9.6531 14.2612 11.2854 4.9804 9.7493 4.9804" style="fill:#fff;"/><path d="M26.8704,6.1885c.6614,.6241,.9923,1.4642,.9923,2.5202,0,.3416-.0269,.6456-.0801,.9122-.064,.3199-.1336,.5975-.208,.8319h-6.4805c-.0107,.075-.0161,.1817-.0161,.3201,0,.5547,.1626,.9896,.4881,1.3041,.3255,.315,.7547,.4722,1.2882,.4722,.448,0,.8345-.0986,1.16-.2962,.3255-.1973,.5894-.4561,.7921-.7759h2.4162c-.3948,.8536-1.0055,1.5548-1.8322,2.1042s-1.7628,.824-2.8081,.824c-1.131,0-2.0378-.3201-2.7202-.96-.6829-.6402-1.0243-1.5094-1.0243-2.6084,0-.3199,.0334-.6558,.0962-1.0079,.1636-.9169,.4878-1.7228,.984-2.4162s1.1122-1.2267,1.8481-1.6002c.7361-.3733,1.5414-.5601,2.4162-.5601,1.1307,0,2.0268,.312,2.6882,.9361Zm-1.2799,2.5363c0-.5122-.1655-.9122-.4961-1.2003-.3308-.2879-.7628-.4319-1.296-.4319-.5657,0-1.0721,.1787-1.5201,.5359-.448,.3577-.763,.8455-.9442,1.4642h4.2245c.0212-.1704,.032-.2932,.032-.3679Z" style="fill:#fff;"/><path d="M33.4788,5.7165c.512-.2986,1.0667-.448,1.6642-.448l-.416,2.3522h-.5921c-.6614,0-1.192,.1438-1.5922,.4319-.3999,.2881-.6907,.7789-.8719,1.472l-.8321,4.7365h-2.2563l1.5682-8.8647h2.256l-.272,1.5682c.3841-.5335,.8321-.9495,1.3441-1.2481Z" style="fill:#fff;"/><path d="M38.8711,5.3964l-1.568,8.8647h-2.2563l1.5682-8.8647h2.256Zm-1.776-1.3602c-.2136-.2024-.3201-.4585-.3201-.7679,0-.4265,.1626-.7921,.4881-1.096,.3252-.3042,.7066-.4561,1.1441-.4561,.3411,0,.6185,.1016,.8321,.304,.2132,.2027,.3199,.4588,.3199,.7681,0,.4268-.1599,.7921-.48,1.096s-.6988,.4561-1.1361,.4561c-.3521,0-.6348-.1013-.848-.3042Z" style="fill:#fff;"/><path d="M48.16,6.0124c.5281,.4961,.7921,1.203,.7921,2.1203,0,.3413-.0269,.6507-.0801,.9281l-.9281,5.2004h-2.2241l.8641-4.8964c.032-.1919,.0479-.3784,.0479-.5601,0-.5332-.1414-.9386-.4241-1.2162-.2827-.2771-.6854-.4158-1.2081-.4158-.5975,0-1.1068,.1787-1.528,.5359-.4217,.3575-.7017,.8721-.8402,1.5441l-.88,5.0085h-2.2563l1.5682-8.8647h2.256l-.1919,1.0882c.3626-.3733,.7945-.6695,1.296-.8883,.5013-.2185,1.0243-.3279,1.5682-.3279,.9173,0,1.64,.2481,2.1681,.744Z" style="fill:#fff;"/><path d="M58.2326,6.1885c.6614,.6241,.9923,1.4642,.9923,2.5202,0,.3416-.0269,.6456-.0801,.9122-.064,.3199-.1336,.5975-.208,.8319h-6.4805c-.0107,.075-.0161,.1817-.0161,.3201,0,.5547,.1626,.9896,.4881,1.3041,.3255,.315,.7547,.4722,1.2882,.4722,.448,0,.8345-.0986,1.16-.2962,.3255-.1973,.5894-.4561,.7921-.7759h2.4162c-.3948,.8536-1.0055,1.5548-1.8322,2.1042s-1.7628,.824-2.8081,.824c-1.131,0-2.0378-.3201-2.7202-.96-.6829-.6402-1.0243-1.5094-1.0243-2.6084,0-.3199,.0334-.6558,.0962-1.0079,.1636-.9169,.4878-1.7228,.984-2.4162s1.1122-1.2267,1.8481-1.6002c.7361-.3733,1.5414-.5601,2.4162-.5601,1.1307,0,2.0268,.312,2.6882,.9361Zm-1.2799,2.5363c0-.5122-.1655-.9122-.4961-1.2003-.3308-.2879-.7628-.4319-1.296-.4319-.5657,0-1.0721,.1787-1.5201,.5359-.448,.3577-.763,.8455-.9442,1.4642h4.2245c.0212-.1704,.032-.2932,.032-.3679Z" style="fill:#fff;"/><polygon points="64.0089 12.197 67.4491 5.3964 69.8653 5.3964 65.017 14.2612 62.2649 14.2612 60.5687 5.3964 62.9688 5.3964 64.0089 12.197" style="fill:#fff;"/><path d="M70.7055,7.4127c.4746-.6934,1.0533-1.2267,1.7362-1.6002,.6824-.3733,1.4025-.5601,2.1601-.5601,.6614,0,1.2186,.1336,1.6723,.4002,.4532,.2666,.7864,.6026,1.0001,1.0079l.2239-1.264h2.2563l-1.5682,8.8647h-2.256l.24-1.296c-.3521,.416-.8082,.7601-1.3683,1.0321s-1.1707,.408-1.8322,.408c-.6507,0-1.2267-.1465-1.7282-.44s-.8907-.7095-1.1681-1.2481-.416-1.1654-.416-1.8803c0-.3303,.0317-.6773,.0962-1.0401,.1593-.8962,.4771-1.6906,.952-2.384Zm6.0725,1.808c0-.6292-.1841-1.12-.552-1.472s-.8297-.5281-1.3841-.5281c-.416,0-.8189,.1016-1.2081,.304-.3894,.2029-.7281,.4988-1.016,.8883-.2881,.3894-.4861,.8496-.5762,1.3839-.0342,.2025-.0479,.3948-.0479,.5762,0,.6399,.1812,1.1441,.544,1.5121,.3626,.3679,.8214,.552,1.3761,.552,.416,0,.8214-.104,1.2162-.312,.3946-.208,.7332-.5093,1.016-.9041,.2825-.3946,.4722-.8585,.5682-1.392,.0425-.2774,.064-.4803,.064-.6082Z" style="fill:#fff;"/><path d="M83.4824,11.5249c-.0107,.064-.0159,.1497-.0159,.2561,0,.2134,.061,.3655,.1839,.4561,.1226,.0906,.3282,.136,.616,.136h1.0562l-.3362,1.8881h-1.4239c-1.6002,0-2.4003-.6666-2.4003-2.0002,0-.2561,.0212-.5066,.0642-.752l.752-4.2723h-1.0562l.3201-1.8402h1.0721l.3841-2.1921h2.256l-.3838,2.1921h1.9679l-.3199,1.8402h-1.9843l-.752,4.2882Z" style="fill:#fff;"/><path d="M92.6267,7.4606c.4854-.6824,1.0802-1.2132,1.7841-1.5922,.7042-.3784,1.4454-.5679,2.2243-.5679,.576,0,1.12,.1255,1.6322,.376,.512,.2508,.9012,.584,1.1681,1.0001l.752-4.2565h1.8402l-2.0964,11.8411h-1.84l.24-1.328c-.3841,.4375-.8616,.7921-1.4322,1.0641-.5708,.272-1.1976,.408-1.88,.408-.6722,0-1.2696-.1494-1.7921-.448-.5227-.2986-.931-.7227-1.2242-1.2721-.2935-.5494-.44-1.1815-.44-1.8962,0-.3201,.034-.6449,.096-.9762,.1655-.8843,.4827-1.6693,.9681-2.3522Zm6.3125,1.7282c0-.7147-.2107-1.2774-.6321-1.6881-.4214-.4104-.9466-.616-1.5761-.616-.4695,0-.9281,.1148-1.3761,.344-.448,.2295-.8375,.5655-1.1681,1.0081-.3308,.4427-.5391,.97-.6561,1.5761-.0392,.2034-.064,.4214-.064,.6561,0,.7256,.2105,1.2989,.6319,1.7201,.4214,.4217,.9466,.6321,1.5763,.6321,.4693,0,.9281-.1172,1.3761-.3521,.448-.2346,.8372-.5787,1.1681-1.0321,.3306-.4534,.5393-.9861,.6561-1.5922,.0391-.2031,.064-.4212,.064-.6561Z" style="fill:#242424;"/><path d="M105.7076,5.4445l-1.5521,8.8166h-1.8241l1.5521-8.8166h1.8241Zm-1.392-1.4403c-.1817-.1812-.272-.4104-.272-.688,0-.3731,.1411-.6959,.4239-.9681,.2827-.272,.6053-.408,.9681-.408,.2881,0,.5201,.0908,.6961,.272,.176,.1817,.2639,.4109,.2639,.688,0,.3736-.1387,.6961-.4158,.9681-.2776,.272-.5977,.4082-.9603,.4082-.2879,0-.5227-.0906-.7039-.2722Z" style="fill:#242424;"/><path d="M113.4443,5.7085c.4851,.272,.8345,.6109,1.0479,1.0162l.2241-1.2801h1.84l-1.568,8.9607c-.1497,.8106-.448,1.5333-.8961,2.1681-.448,.6346-1.0296,1.1334-1.7443,1.4962-.7147,.3623-1.5201,.544-2.4162,.544-.7786,0-1.4615-.1255-2.048-.376-.587-.2508-1.0296-.6109-1.3282-1.0802-.2986-.4695-.4265-1.024-.3841-1.6642h1.8083c.0532,.4585,.2825,.8294,.688,1.1122,.4053,.2825,.9227,.4241,1.5521,.4241,.7361,0,1.3707-.2241,1.9042-.6722,.5332-.448,.8746-1.0987,1.024-1.9521l.2561-1.472c-.3841,.4158-.8641,.7654-1.4403,1.0479-.576,.2825-1.2,.4241-1.872,.4241s-1.2696-.1494-1.7921-.448c-.5227-.2986-.931-.7227-1.2242-1.2721-.2935-.5494-.44-1.1815-.44-1.8962,0-.3201,.034-.6449,.096-.9762,.1655-.8843,.4827-1.6693,.9681-2.3522,.4854-.6824,1.0802-1.2132,1.7841-1.5922,.7042-.3784,1.4403-.5679,2.2082-.5679,.6827,0,1.2667,.136,1.7523,.408Zm.5679,3.4803c0-.7147-.2107-1.2774-.6321-1.6881-.4214-.4104-.9466-.616-1.5761-.616-.4695,0-.9281,.1148-1.3761,.344-.448,.2295-.8375,.5655-1.1681,1.0081-.3308,.4427-.5391,.97-.6561,1.5761-.0392,.2034-.064,.4214-.064,.6561,0,.7256,.2105,1.2989,.6319,1.7201,.4214,.4217,.9466,.6321,1.5763,.6321,.4693,0,.9281-.1172,1.3761-.3521,.448-.2346,.8372-.5787,1.1681-1.0321,.3306-.4534,.5393-.9861,.6561-1.5922,.0391-.2031,.064-.4212,.064-.6561Z" style="fill:#242424;"/><path d="M120.7806,5.4445l-1.5521,8.8166h-1.8241l1.5521-8.8166h1.8241Zm-1.392-1.4403c-.1817-.1812-.272-.4104-.272-.688,0-.3731,.1411-.6959,.4239-.9681,.2827-.272,.6053-.408,.9681-.408,.2881,0,.5201,.0908,.6961,.272,.176,.1817,.2639,.4109,.2639,.688,0,.3736-.1387,.6961-.4158,.9681-.2776,.272-.5977,.4082-.9603,.4082-.2879,0-.5227-.0906-.7039-.2722Z" style="fill:#242424;"/><polygon points="125.325 12.629 129.0853 5.4445 131.0534 5.4445 126.1409 14.2612 123.933 14.2612 122.1406 5.4445 124.0929 5.4445 125.325 12.629" style="fill:#242424;"/><path d="M131.9893,7.4606c.4854-.6824,1.0802-1.2132,1.7841-1.5922,.7042-.3784,1.4403-.5679,2.2082-.5679,.6934,0,1.2748,.136,1.7443,.408,.4693,.272,.8214,.6109,1.056,1.0162l.2241-1.2801h1.84l-1.5521,8.8166h-1.84l.24-1.3121c-.3841,.416-.8668,.7628-1.4481,1.0401-.5816,.2774-1.2137,.416-1.8962,.416-.6617,0-1.2508-.1494-1.7682-.448-.5176-.2986-.9229-.7227-1.2162-1.2721-.2935-.5494-.44-1.1815-.44-1.8962,0-.3201,.034-.6449,.096-.9762,.1655-.8843,.4827-1.6693,.9681-2.3522Zm6.3125,1.7282c0-.7147-.2107-1.2774-.6321-1.6881-.4214-.4104-.9466-.616-1.5761-.616-.4695,0-.9281,.1148-1.3761,.344-.448,.2295-.8375,.5655-1.1681,1.0081-.3308,.4427-.5391,.97-.6561,1.5761-.0392,.2034-.064,.4214-.064,.6561,0,.7256,.2105,1.2989,.6319,1.7201,.4214,.4217,.9466,.6321,1.5763,.6321,.4693,0,.9281-.1172,1.3761-.3521,.448-.2346,.8372-.5787,1.1681-1.0321,.3306-.4534,.5393-.9861,.6561-1.5922,.0391-.2031,.064-.4212,.064-.6561Zm-3.4322-5.0724c-.1548-.1492-.2322-.336-.2322-.5601,0-.2984,.1145-.5625,.344-.7921,.2293-.2293,.4986-.344,.8082-.344,.2344,0,.4265,.075,.576,.2241,.1494,.1494,.2241,.336,.2241,.5601,0,.3094-.1148,.576-.344,.7999-.2295,.2241-.4937,.3362-.7921,.3362-.2349,0-.4297-.0745-.584-.2241Zm2.7522,0c-.1548-.1492-.232-.336-.232-.5601,0-.2984,.1145-.5625,.344-.7921,.2293-.2293,.4983-.344,.8079-.344,.2346,0,.4265,.075,.576,.2241,.1494,.1494,.2241,.336,.2241,.5601,0,.3094-.1148,.576-.344,.7999-.2295,.2241-.4934,.3362-.7921,.3362-.2349,0-.4295-.0745-.584-.2241Z" style="fill:#242424;"/><polygon points="145.6145 2.4201 143.5181 14.2612 141.694 14.2612 143.7903 2.4201 145.6145 2.4201" style="fill:#242424;"/><path d="M147.4383,15.9893c-.1494,.8641-.4746,1.4906-.9759,1.88-.5017,.3894-1.1627,.584-1.9843,.584h-.9442l.2722-1.536h.6238c.3736,0,.6509-.072,.8321-.2161,.1817-.1441,.2986-.3814,.3521-.712l1.8561-10.5448h1.8241l-1.8561,10.5448Zm.4641-11.9851c-.1817-.1812-.272-.4104-.272-.688,0-.3731,.1411-.6959,.4239-.9681,.2827-.272,.6053-.408,.9681-.408,.2881,0,.5201,.0908,.6961,.272,.176,.1817,.2639,.4109,.2639,.688,0,.3736-.1387,.6961-.4158,.9681-.2776,.272-.5977,.4082-.9603,.4082-.2879,0-.5227-.0906-.7039-.2722Z" style="fill:#242424;"/><path d="M151.2865,7.4606c.4854-.6824,1.0802-1.2132,1.7841-1.5922,.7042-.3784,1.4403-.5679,2.2082-.5679,.6934,0,1.2748,.136,1.7443,.408,.4693,.272,.8214,.6109,1.056,1.0162l.2241-1.2801h1.84l-1.5521,8.8166h-1.84l.24-1.3121c-.3841,.416-.8668,.7628-1.4481,1.0401-.5816,.2774-1.2137,.416-1.8962,.416-.6617,0-1.2508-.1494-1.7682-.448-.5176-.2986-.9229-.7227-1.2162-1.2721-.2935-.5494-.44-1.1815-.44-1.8962,0-.3201,.034-.6449,.096-.9762,.1655-.8843,.4827-1.6693,.9681-2.3522Zm6.3125,1.7282c0-.7147-.2107-1.2774-.6321-1.6881-.4214-.4104-.9466-.616-1.5761-.616-.4695,0-.9281,.1148-1.3761,.344-.448,.2295-.8375,.5655-1.1681,1.0081-.3308,.4427-.5391,.97-.6561,1.5761-.0392,.2034-.064,.4214-.064,.6561,0,.7256,.2105,1.2989,.6319,1.7201,.4214,.4217,.9466,.6321,1.5763,.6321,.4693,0,.9281-.1172,1.3761-.3521,.448-.2346,.8372-.5787,1.1681-1.0321,.3306-.4534,.5393-.9861,.6561-1.5922,.0391-.2031,.064-.4212,.064-.6561Z" style="fill:#242424;"/><path d="M162.1353,7.4606c.4854-.6824,1.0802-1.2132,1.7841-1.5922,.7042-.3784,1.4403-.5679,2.2082-.5679,.6934,0,1.2748,.136,1.7443,.408,.4693,.272,.8214,.6109,1.056,1.0162l.2241-1.2801h1.84l-1.5521,8.8166h-1.84l.24-1.3121c-.3841,.416-.8668,.7628-1.4481,1.0401-.5816,.2774-1.2137,.416-1.8962,.416-.6617,0-1.2508-.1494-1.7682-.448-.5176-.2986-.9229-.7227-1.2162-1.2721-.2935-.5494-.44-1.1815-.44-1.8962,0-.3201,.034-.6449,.096-.9762,.1655-.8843,.4827-1.6693,.9681-2.3522Zm6.3125,1.7282c0-.7147-.2107-1.2774-.6321-1.6881-.4214-.4104-.9466-.616-1.5761-.616-.4695,0-.9281,.1148-1.3761,.344-.448,.2295-.8375,.5655-1.1681,1.0081-.3308,.4427-.5391,.97-.6561,1.5761-.0392,.2034-.064,.4214-.064,.6561,0,.7256,.2105,1.2989,.6319,1.7201,.4214,.4217,.9466,.6321,1.5763,.6321,.4693,0,.9281-.1172,1.3761-.3521,.448-.2346,.8372-.5787,1.1681-1.0321,.3306-.4534,.5393-.9861,.6561-1.5922,.0391-.2031,.064-.4212,.064-.6561Z" style="fill:#242424;"/><path d="M180.0887,6.0444c.5494,.4961,.824,1.2081,.824,2.1362,0,.2349-.0266,.5281-.0798,.8802l-.9283,5.2004h-1.808l.88-4.9284c.0425-.2986,.0642-.512,.0642-.6402,0-.5865-.1629-1.0345-.4881-1.3441-.3257-.3091-.7762-.4639-1.3522-.4639-.6937,0-1.2777,.2107-1.7521,.6321-.4749,.4214-.7762,1.0267-.9041,1.8161v-.0481l-.8802,4.9765h-1.8241l1.5521-8.8166h1.8241l-.1758,1.024c.3623-.3626,.7921-.648,1.2879-.856,.4961-.208,1.0106-.312,1.5441-.312,.9281,0,1.6666,.2481,2.2162,.744Z" style="fill:#242424;"/><path d="M190.4733,6.0444c.5494,.4961,.824,1.2081,.824,2.1362,0,.2349-.0266,.5281-.0798,.8802l-.9283,5.2004h-1.808l.88-4.9284c.0425-.2986,.0642-.512,.0642-.6402,0-.5865-.1629-1.0345-.4881-1.3441-.3257-.3091-.7762-.4639-1.3522-.4639-.6937,0-1.2777,.2107-1.7521,.6321-.4749,.4214-.7762,1.0267-.9041,1.8161v-.0481l-.8802,4.9765h-1.8241l1.5521-8.8166h1.8241l-.1758,1.024c.3623-.3626,.7921-.648,1.2879-.856,.4961-.208,1.0106-.312,1.5441-.312,.9281,0,1.6666,.2481,2.2162,.744Z" style="fill:#242424;"/><path d="M200.618,6.2285c.6561,.6187,.9842,1.4508,.9842,2.4963,0,.2454-.0269,.5386-.0801,.88-.0427,.2349-.1174,.5227-.2241,.8641h-6.7364c-.0107,.0747-.0161,.1868-.0161,.336,0,.6297,.1946,1.131,.584,1.5043s.8988,.5599,1.5282,.5599c.992,0,1.7545-.4104,2.2883-1.232h1.9682c-.4056,.8109-1.003,1.475-1.7924,1.9921-.7894,.5176-1.7016,.7762-2.7361,.7762-.7361,0-1.3817-.1441-1.9362-.4322-.5547-.2879-.9869-.7012-1.296-1.2401-.3096-.5384-.4641-1.1705-.4641-1.8962,0-.3091,.0328-.6398,.096-.992,.1624-.9062,.4854-1.7042,.9762-2.3923,.4905-.688,1.1014-1.2186,1.8322-1.5919,.7305-.3733,1.528-.5601,2.392-.5601,1.0987,0,1.9762,.3096,2.6323,.9281Zm-.888,2.5122c0-.5865-.1948-1.0506-.584-1.3922-.3897-.3411-.8936-.512-1.5121-.512-.6509,0-1.2376,.208-1.7602,.6241-.523,.416-.8802,.9815-1.0721,1.6962h4.8964c.0212-.1919,.032-.3306,.032-.416Z" style="fill:#242424;"/><path d="M205.0422,11.813c-.0215,.1494-.032,.2456-.032,.2881,0,.2239,.0693,.3868,.208,.4878,.1384,.1016,.3679,.1521,.688,.1521h1.1202l-.2722,1.5201h-1.4401c-.7039,0-1.2428-.1414-1.6161-.4241-.3736-.2825-.5601-.7332-.5601-1.3519,0-.2346,.0212-.4588,.064-.6722l.8641-4.8803h-1.0399l.2559-1.4882h1.0562l.3838-2.1923h1.8402l-.3841,2.1923h2.1281l-.2559,1.4882h-2.1442l-.8641,4.8803Z" style="fill:#242424;"/><path d="M208.4504,14.1012c-.1817-.1814-.272-.4107-.272-.688,0-.3733,.1411-.6961,.4239-.9681s.6055-.4082,.9681-.4082c.2881,0,.5201,.0908,.6961,.2722s.2642,.4107,.2642,.688c0,.3736-.1389,.6959-.416,.9681-.2776,.272-.5977,.408-.9603,.408-.2879,0-.5227-.0908-.7039-.272Z" style="fill:#242424;"/><path d="M6.7091,24.742l-1.2481,7.0567c-.0427,.2134-.064,.4319-.064,.6561,0,.6294,.1841,1.1017,.552,1.4161,.3679,.3147,.8934,.472,1.5761,.472,.8001,0,1.4586-.2132,1.9762-.6399,.5174-.4265,.8507-1.0614,1.0001-1.9042l1.2481-7.0567h1.8241l-1.2481,7.0567c-.1599,.9068-.4934,1.6749-1.0001,2.3041-.5069,.6294-1.1175,1.099-1.8322,1.4081-.7149,.3096-1.472,.4641-2.2722,.4641-1.088,0-1.9709-.2774-2.6482-.8321-.6775-.5545-1.0162-1.3602-1.0162-2.4162,0-.3521,.0266-.6614,.0801-.9281l1.2481-7.0567h1.8241Zm.7601-1.3441c-.1548-.1492-.232-.336-.232-.5599,0-.2986,.1145-.5625,.344-.7921,.2293-.2293,.4983-.344,.8079-.344,.2346,0,.4265,.0747,.576,.2239,.1494,.1494,.2241,.336,.2241,.5601,0,.3096-.1148,.576-.344,.8001-.2295,.2239-.4934,.336-.7921,.336-.2349,0-.4295-.0745-.584-.2241Zm2.7522,0c-.1548-.1492-.232-.336-.232-.5599,0-.2986,.1145-.5625,.344-.7921,.2293-.2293,.4986-.344,.8079-.344,.2346,0,.4265,.0747,.5762,.2239,.1492,.1494,.2239,.336,.2239,.5601,0,.3096-.1148,.576-.344,.8001-.2295,.2239-.4934,.336-.7921,.336-.2346,0-.4295-.0745-.584-.2241Z" style="fill:#242424;"/><polygon points="17.8938 24.022 15.7975 35.863 13.9733 35.863 16.0697 24.022 17.8938 24.022" style="fill:#242424;"/><path d="M26.2063,27.8304c.6561,.6187,.9842,1.4508,.9842,2.4963,0,.2454-.0269,.5386-.0801,.88-.0427,.2349-.1174,.5227-.2241,.8641h-6.7364c-.0107,.0747-.0161,.1868-.0161,.336,0,.6297,.1946,1.131,.584,1.5043s.8988,.5599,1.5282,.5599c.992,0,1.7545-.4104,2.2883-1.232h1.9682c-.4056,.8109-1.003,1.475-1.7924,1.9921-.7894,.5176-1.7016,.7762-2.7361,.7762-.7361,0-1.3817-.1441-1.9362-.4322-.5547-.2879-.9869-.7012-1.296-1.2401-.3096-.5384-.4641-1.1705-.4641-1.8962,0-.3091,.0328-.6398,.096-.992,.1624-.9062,.4854-1.7042,.9762-2.3923,.4905-.688,1.1014-1.2186,1.8322-1.5919,.7305-.3733,1.528-.5601,2.392-.5601,1.0987,0,1.9762,.3096,2.6323,.9281Zm-.888,2.5122c0-.5865-.1948-1.0506-.584-1.3922-.3897-.3411-.8936-.512-1.5121-.512-.6509,0-1.2376,.208-1.7602,.6241-.523,.416-.8802,.9815-1.0721,1.6962h4.8964c.0212-.1919,.032-.3306,.032-.416Z" style="fill:#242424;"/><path d="M34.1666,33.3189c1.1624-.8641,2.0854-1.5763,2.768-2.1362,.6827-.5601,1.2723-1.1415,1.7682-1.7443,.4961-.6026,.788-1.198,.888-1.7841,.031-.1814,.0481-.3521,.0481-.512,0-.4585-.1279-.816-.3841-1.0721-.2559-.2561-.6614-.3841-1.2162-.3841-.6187,0-1.1361,.2-1.5521,.6001-.4158,.3999-.6988,.9361-.848,1.608h-1.7602c.2454-1.2162,.7733-2.1467,1.5841-2.7922,.8106-.6453,1.7602-.9681,2.8484-.9681,1.0133,0,1.7946,.2456,2.3442,.7361,.5491,.4908,.824,1.1519,.824,1.984,0,.2561-.0232,.4958-.064,.72-.1337,.7352-.448,1.451-.9603,2.1442-.512,.6937-1.0829,1.3177-1.7121,1.8722-.6294,.5547-1.4296,1.2-2.4001,1.9362l-.8482,.6561h5.0724l-.272,1.5201h-7.7765l.24-1.3282,1.4081-1.056Z" style="fill:#242424;"/><path d="M44.5913,25.7501c.8052-1.0345,1.9706-1.5521,3.4964-1.5521,1.1839,0,2.0373,.3228,2.5603,.9681,.5225,.6456,.784,1.5441,.784,2.6963,0,.6187-.0696,1.3336-.208,2.1442-.3201,1.8136-.8829,3.2378-1.6881,4.2723-.8057,1.0348-1.9709,1.5521-3.4964,1.5521-1.1839,0-2.0375-.3225-2.5603-.9681-.5227-.6453-.784-1.5494-.784-2.7121,0-.5975,.0693-1.3121,.208-2.1442,.3201-1.8026,.8826-3.2215,1.6881-4.2565Zm5.0485,2.2722c0-.6824-.1389-1.2132-.416-1.5919-.2776-.3787-.752-.5682-1.4242-.5682s-1.2135,.1868-1.6242,.5601c-.4107,.3736-.7227,.8536-.9361,1.4401-.2134,.5867-.3948,1.3016-.544,2.1442-.1494,.8216-.2239,1.4828-.2239,1.984,0,.6937,.1384,1.2296,.416,1.6083,.2771,.3787,.7571,.5679,1.4401,.5679,.6719,0,1.2132-.1865,1.6242-.5601,.4104-.3731,.7225-.8531,.9361-1.4401,.2132-.5865,.3943-1.3065,.544-2.1601,.1384-.8533,.208-1.5148,.208-1.9843Z" style="fill:#242424;"/><path d="M54.848,25.7501c.8052-1.0345,1.9706-1.5521,3.4964-1.5521,1.1839,0,2.0373,.3228,2.5603,.9681,.5225,.6456,.784,1.5441,.784,2.6963,0,.6187-.0696,1.3336-.208,2.1442-.3201,1.8136-.8829,3.2378-1.6881,4.2723-.8057,1.0348-1.9709,1.5521-3.4964,1.5521-1.1839,0-2.0375-.3225-2.5603-.9681-.5227-.6453-.784-1.5494-.784-2.7121,0-.5975,.0693-1.3121,.208-2.1442,.3201-1.8026,.8826-3.2215,1.6881-4.2565Zm5.0485,2.2722c0-.6824-.1389-1.2132-.416-1.5919-.2776-.3787-.752-.5682-1.4242-.5682s-1.2135,.1868-1.6242,.5601c-.4107,.3736-.7227,.8536-.9361,1.4401-.2134,.5867-.3948,1.3016-.544,2.1442-.1494,.8216-.2239,1.4828-.2239,1.984,0,.6937,.1384,1.2296,.416,1.6083,.2771,.3787,.7571,.5679,1.4401,.5679,.6719,0,1.2132-.1865,1.6242-.5601,.4104-.3731,.7225-.8531,.9361-1.4401,.2132-.5865,.3943-1.3065,.544-2.1601,.1384-.8533,.208-1.5148,.208-1.9843Z" style="fill:#242424;"/><path d="M65.1047,25.7501c.8052-1.0345,1.9706-1.5521,3.4964-1.5521,1.1839,0,2.0373,.3228,2.5603,.9681,.5225,.6456,.784,1.5441,.784,2.6963,0,.6187-.0696,1.3336-.208,2.1442-.3201,1.8136-.8829,3.2378-1.6881,4.2723-.8057,1.0348-1.9709,1.5521-3.4964,1.5521-1.1839,0-2.0375-.3225-2.5603-.9681-.5227-.6453-.784-1.5494-.784-2.7121,0-.5975,.0693-1.3121,.208-2.1442,.3201-1.8026,.8826-3.2215,1.6881-4.2565Zm5.0485,2.2722c0-.6824-.1389-1.2132-.416-1.5919-.2776-.3787-.752-.5682-1.4242-.5682s-1.2135,.1868-1.6242,.5601c-.4107,.3736-.7227,.8536-.9361,1.4401-.2134,.5867-.3948,1.3016-.544,2.1442-.1494,.8216-.2239,1.4828-.2239,1.984,0,.6937,.1384,1.2296,.416,1.6083,.2771,.3787,.7571,.5679,1.4401,.5679,.6719,0,1.2132-.1865,1.6242-.5601,.4104-.3731,.7225-.8531,.9361-1.4401,.2132-.5865,.3943-1.3065,.544-2.1601,.1384-.8533,.208-1.5148,.208-1.9843Z" style="fill:#242424;"/><path d="M78.8175,29.0624c.4854-.6824,1.0802-1.2132,1.7841-1.5922,.7042-.3784,1.4403-.5679,2.2082-.5679,.6934,0,1.2748,.136,1.7443,.408,.4693,.272,.8214,.6109,1.056,1.0162l.2241-1.2801h1.84l-1.5521,8.8166h-1.84l.24-1.3121c-.3841,.416-.8668,.7628-1.4481,1.0401-.5816,.2774-1.2137,.416-1.8962,.416-.6617,0-1.2508-.1494-1.7682-.448-.5176-.2986-.9229-.7227-1.2162-1.2721-.2935-.5494-.44-1.1815-.44-1.8962,0-.3201,.034-.6449,.096-.9762,.1655-.8843,.4827-1.6693,.9681-2.3522Zm6.3125,1.7282c0-.7147-.2107-1.2774-.6321-1.6881-.4214-.4104-.9466-.616-1.5761-.616-.4695,0-.9281,.1148-1.3761,.344-.448,.2295-.8375,.5655-1.1681,1.0081-.3308,.4427-.5391,.97-.6561,1.5761-.0392,.2034-.064,.4214-.064,.6561,0,.7256,.2105,1.2989,.6319,1.7201,.4214,.4217,.9466,.6321,1.5763,.6321,.4693,0,.9281-.1172,1.3761-.3521,.448-.2346,.8372-.5787,1.1681-1.0321,.3306-.4534,.5393-.9861,.6561-1.5922,.0391-.2031,.064-.4212,.064-.6561Z" style="fill:#242424;"/><path d="M92.9146,27.3504c.4961-.2986,1.0482-.448,1.6561-.448l-.336,1.8881h-.4641c-.7039,0-1.2696,.176-1.6962,.5281-.4268,.3521-.7254,.96-.8961,1.8241l-.8321,4.7204h-1.8241l1.5521-8.8166h1.8241l-.272,1.5521c.3626-.5335,.7921-.9493,1.2882-1.2481Z" style="fill:#242424;"/><path d="M97.2267,33.4148c-.0215,.1494-.032,.2456-.032,.2881,0,.2239,.0693,.3868,.208,.4878,.1384,.1016,.3679,.1521,.688,.1521h1.1202l-.2722,1.5201h-1.4401c-.7039,0-1.2428-.1414-1.6161-.4241-.3736-.2825-.5601-.7332-.5601-1.3519,0-.2346,.0212-.4588,.064-.6722l.8641-4.8803h-1.0399l.2559-1.4882h1.0562l.3838-2.1923h1.8402l-.3841,2.1923h2.1281l-.2559,1.4882h-2.1442l-.8641,4.8803Z" style="fill:#242424;"/><path d="M103.9951,27.0464l-1.5521,8.8166h-1.8241l1.5521-8.8166h1.8241Zm-1.392-1.4403c-.1817-.1812-.272-.4104-.272-.688,0-.3731,.1411-.6959,.4239-.9681,.2827-.272,.6053-.408,.9681-.408,.2881,0,.5201,.0908,.6961,.272,.176,.1817,.2639,.4109,.2639,.688,0,.3736-.1387,.6961-.4158,.9681-.2776,.272-.5977,.4082-.9603,.4082-.2879,0-.5227-.0906-.7039-.2722Z" style="fill:#242424;"/><polygon points="109.0995 31.4628 112.3957 35.863 109.9316 35.863 107.3394 32.0707 106.6672 35.863 104.8431 35.863 106.9394 24.022 108.7635 24.022 107.5474 30.8865 111.4198 27.0464 113.9478 27.0464 109.0995 31.4628" style="fill:#242424;"/><polygon points="117.628 24.022 115.5317 35.863 113.7075 35.863 115.8039 24.022 117.628 24.022" style="fill:#242424;"/><path d="M121.308,27.0464l-1.5521,8.8166h-1.8241l1.5521-8.8166h1.8241Zm-1.392-1.4403c-.1817-.1812-.272-.4104-.272-.688,0-.3731,.1411-.6959,.4239-.9681,.2827-.272,.6053-.408,.9681-.408,.2881,0,.5201,.0908,.6961,.272,.176,.1817,.2639,.4109,.2639,.688,0,.3736-.1387,.6961-.4158,.9681-.2776,.272-.5977,.4082-.9603,.4082-.2879,0-.5227-.0906-.7039-.2722Z" style="fill:#242424;"/><polygon points="131.2126 31.4628 134.5088 35.863 132.0447 35.863 129.4525 32.0707 128.7803 35.863 126.9562 35.863 129.0526 24.022 130.8767 24.022 129.6605 30.8865 133.5329 27.0464 136.0609 27.0464 131.2126 31.4628" style="fill:#242424;"/><path d="M145.3576,27.0464l-1.5521,8.8166h-1.8241l.176-1.0401c-.3521,.3628-.7762,.648-1.2723,.856-.4959,.208-1.0055,.312-1.528,.312-.9281,0-1.6696-.2505-2.2243-.752-.5547-.5013-.8321-1.2105-.8321-2.1281,0-.2454,.0266-.5386,.0801-.8802l.9122-5.1843h1.808l-.8641,4.9123c-.0427,.2989-.064,.512-.064,.6402,0,.5867,.1626,1.0348,.4881,1.3441,.3252,.3094,.7759,.4639,1.3522,.4639,.6719,0,1.2425-.2,1.7121-.5999,.4693-.4002,.7786-.9786,.9281-1.7362l.8802-5.0243h1.8241Z" style="fill:#242424;"/><path d="M155.7422,27.0464l-1.5521,8.8166h-1.8241l.176-1.0401c-.3521,.3628-.7762,.648-1.2723,.856-.4959,.208-1.0055,.312-1.528,.312-.9281,0-1.6696-.2505-2.2243-.752-.5547-.5013-.8321-1.2105-.8321-2.1281,0-.2454,.0266-.5386,.0801-.8802l.9122-5.1843h1.808l-.8641,4.9123c-.0427,.2989-.064,.512-.064,.6402,0,.5867,.1626,1.0348,.4881,1.3441,.3252,.3094,.7759,.4639,1.3522,.4639,.6719,0,1.2425-.2,1.7121-.5999,.4693-.4002,.7786-.9786,.9281-1.7362l.8802-5.0243h1.8241Z" style="fill:#242424;"/><path d="M158.1741,35.695c-.5015-.208-.8961-.5013-1.1839-.8802-.2881-.3784-.4322-.8133-.4322-1.3041,0-.0852,.0105-.2024,.032-.3521h1.7763c-.0427,.4056,.0801,.7418,.3679,1.0081,.2881,.2669,.6934,.4002,1.2162,.4002,.512,0,.9332-.0906,1.264-.2722,.3306-.1812,.4961-.448,.4961-.7999,0-.2986-.136-.5386-.408-.72s-.7068-.3841-1.3043-.6082c-.5655-.2239-1.024-.4319-1.3761-.6241-.3518-.1919-.6561-.4558-.9119-.7921-.2561-.336-.3841-.7545-.3841-1.256,0-.512,.1465-.9627,.44-1.3522,.2932-.3892,.7042-.6934,1.232-.9122,.5281-.2185,1.1334-.3279,1.8163-.3279,.6185,0,1.1705,.104,1.6561,.312,.4851,.208,.8641,.5015,1.1361,.88,.272,.3789,.408,.8135,.408,1.3041,0,.1497-.0054,.2617-.0161,.3362h-1.7279c.0425-.416-.0776-.752-.3601-1.0081-.2827-.2561-.6856-.3841-1.2081-.3841-.4588,0-.8297,.096-1.1122,.2881-.2827,.1919-.4239,.4534-.4239,.784,0,.3308,.1438,.5948,.4319,.7921,.2881,.1975,.7305,.4136,1.3282,.648,.544,.2136,.9864,.416,1.328,.6082,.3413,.1919,.6346,.448,.8802,.7679,.2451,.3201,.3679,.72,.3679,1.2003,0,.5227-.1575,.9786-.472,1.368-.315,.3894-.7496,.688-1.3043,.8961s-1.1839,.312-1.8881,.312c-.608,0-1.1627-.104-1.6642-.312Z" style="fill:#242424;"/><path d="M165.1507,35.7031c-.1817-.1814-.272-.4107-.272-.688,0-.3733,.1411-.6961,.4239-.9681s.6055-.4082,.9681-.4082c.2881,0,.5201,.0908,.6961,.2722s.2642,.4107,.2642,.688c0,.3736-.1389,.6959-.416,.9681-.2776,.272-.5977,.408-.9603,.408-.2879,0-.5227-.0908-.7039-.272Z" style="fill:#242424;"/><path d="M10.9653,46.3436l-1.4081,8.0168c-.1814,.992-.6268,1.7763-1.336,2.3522-.7095,.576-1.5497,.8641-2.5202,.8641-.8536,0-1.5282-.2212-2.0241-.6641-.4961-.4424-.7442-1.0533-.7442-1.8322,0-.2559,.0212-.4959,.064-.72h1.8402c-.0215,.096-.032,.2349-.032,.416,0,.3628,.0984,.6507,.2959,.8641,.1973,.2134,.4934,.3201,.8883,.3201,.4693,0,.8504-.1465,1.1441-.4402,.2932-.2932,.4878-.68,.584-1.16l1.4081-8.0168h1.84Z" style="fill:#242424;"/><path d="M13.1014,50.664c.4854-.6824,1.0802-1.2132,1.7841-1.5922,.7042-.3784,1.4403-.5679,2.2082-.5679,.6934,0,1.2748,.136,1.7443,.408,.4693,.272,.8214,.6109,1.056,1.0162l.2241-1.2801h1.84l-1.5521,8.8166h-1.84l.24-1.3121c-.3841,.416-.8668,.7628-1.4481,1.0401-.5816,.2774-1.2137,.416-1.8962,.416-.6617,0-1.2508-.1494-1.7682-.448-.5176-.2986-.9229-.7227-1.2162-1.2721-.2935-.5494-.44-1.1815-.44-1.8962,0-.3201,.034-.6449,.096-.9762,.1655-.8843,.4827-1.6693,.9681-2.3522Zm6.3125,1.7282c0-.7147-.2107-1.2774-.6321-1.6881-.4214-.4104-.9466-.616-1.5761-.616-.4695,0-.9281,.1148-1.3761,.344-.448,.2295-.8375,.5655-1.1681,1.0081-.3308,.4427-.5391,.97-.6561,1.5761-.0392,.2034-.064,.4214-.064,.6561,0,.7256,.2105,1.2989,.6319,1.7201,.4214,.4217,.9466,.6321,1.5763,.6321,.4693,0,.9281-.1172,1.3761-.3521,.448-.2346,.8372-.5787,1.1681-1.0321,.3306-.4534,.5393-.9861,.6561-1.5922,.0391-.2031,.064-.4212,.064-.6561Z" style="fill:#242424;"/><path d="M29.6948,48.9119c.4851,.272,.8345,.6109,1.0479,1.0162l.2241-1.2801h1.84l-1.568,8.9607c-.1497,.8106-.448,1.5333-.8961,2.1681-.448,.6346-1.0296,1.1334-1.7443,1.4962-.7147,.3623-1.5201,.544-2.4162,.544-.7786,0-1.4615-.1255-2.048-.376-.587-.2508-1.0296-.6109-1.3282-1.0802-.2986-.4695-.4265-1.024-.3841-1.6642h1.8083c.0532,.4585,.2825,.8294,.688,1.1122,.4053,.2825,.9227,.4241,1.5521,.4241,.7361,0,1.3707-.2241,1.9042-.6722,.5332-.448,.8746-1.0987,1.024-1.9521l.2561-1.472c-.3841,.4158-.8641,.7654-1.4403,1.0479-.576,.2825-1.2,.4241-1.872,.4241s-1.2696-.1494-1.7921-.448c-.5227-.2986-.931-.7227-1.2242-1.2721-.2935-.5494-.44-1.1815-.44-1.8962,0-.3201,.034-.6449,.096-.9762,.1655-.8843,.4827-1.6693,.9681-2.3522,.4854-.6824,1.0802-1.2132,1.7841-1.5922,.7042-.3784,1.4403-.5679,2.2082-.5679,.6827,0,1.2667,.136,1.7523,.408Zm.5679,3.4803c0-.7147-.2107-1.2774-.6321-1.6881-.4214-.4104-.9466-.616-1.5761-.616-.4695,0-.9281,.1148-1.3761,.344-.448,.2295-.8375,.5655-1.1681,1.0081-.3308,.4427-.5391,.97-.6561,1.5761-.0392,.2034-.064,.4214-.064,.6561,0,.7256,.2105,1.2989,.6319,1.7201,.4214,.4217,.9466,.6321,1.5763,.6321,.4693,0,.9281-.1172,1.3761-.3521,.448-.2346,.8372-.5787,1.1681-1.0321,.3306-.4534,.5393-.9861,.6561-1.5922,.0391-.2031,.064-.4212,.064-.6561Z" style="fill:#242424;"/><path d="M34.799,50.664c.4854-.6824,1.0802-1.2132,1.7841-1.5922,.7042-.3784,1.4403-.5679,2.2082-.5679,.6934,0,1.2748,.136,1.7443,.408,.4693,.272,.8214,.6109,1.056,1.0162l.2241-1.2801h1.84l-1.5521,8.8166h-1.84l.24-1.3121c-.3841,.416-.8668,.7628-1.4481,1.0401-.5816,.2774-1.2137,.416-1.8962,.416-.6617,0-1.2508-.1494-1.7682-.448-.5176-.2986-.9229-.7227-1.2162-1.2721-.2935-.5494-.44-1.1815-.44-1.8962,0-.3201,.034-.6449,.096-.9762,.1655-.8843,.4827-1.6693,.9681-2.3522Zm6.3125,1.7282c0-.7147-.2107-1.2774-.6321-1.6881-.4214-.4104-.9466-.616-1.5761-.616-.4695,0-.9281,.1148-1.3761,.344-.448,.2295-.8375,.5655-1.1681,1.0081-.3308,.4427-.5391,.97-.6561,1.5761-.0392,.2034-.064,.4214-.064,.6561,0,.7256,.2105,1.2989,.6319,1.7201,.4214,.4217,.9466,.6321,1.5763,.6321,.4693,0,.9281-.1172,1.3761-.3521,.448-.2346,.8372-.5787,1.1681-1.0321,.3306-.4534,.5393-.9861,.6561-1.5922,.0391-.2031,.064-.4212,.064-.6561Z" style="fill:#242424;"/><path d="M58.9848,49.256c.5547,.5015,.8321,1.2108,.8321,2.1281,0,.2456-.0266,.5389-.0798,.8802l-.9281,5.2004h-1.8083l.88-4.9284c.0427-.2986,.0642-.512,.0642-.6402,0-.5865-.1629-1.0345-.4881-1.3441-.3257-.3091-.7762-.4639-1.3522-.4639-.6937,0-1.2777,.2107-1.7521,.6321-.4749,.4214-.7762,1.0267-.9041,1.8161l-.8802,4.9284h-1.808l.88-4.9284c.0425-.2986,.0642-.512,.0642-.6402,0-.5865-.1629-1.0345-.4881-1.3441-.3257-.3091-.7762-.4639-1.3522-.4639-.6937,0-1.2777,.2107-1.7521,.6321-.4749,.4214-.7762,1.0267-.9041,1.8161v-.0481l-.8802,4.9765h-1.8241l1.5521-8.8166h1.8241l-.1758,1.024c.3518-.3626,.7759-.648,1.2721-.856,.4959-.208,1.0106-.312,1.5441-.312,.7039,0,1.3094,.1494,1.8161,.448,.5066,.2989,.8614,.7308,1.0641,1.296,.3521-.5332,.8375-.9574,1.4562-1.2721,.6185-.3145,1.2533-.472,1.9042-.472,.9281,0,1.6693,.2508,2.2241,.752Z" style="fill:#242424;"/><path d="M64.505,48.648l-1.5521,8.8166h-1.8241l1.5521-8.8166h1.8241Zm-1.392-1.4403c-.1817-.1812-.272-.4104-.272-.688,0-.3731,.1411-.6959,.4239-.9681,.2827-.272,.6053-.408,.9681-.408,.2881,0,.5201,.0908,.6961,.272,.176,.1817,.2639,.4109,.2639,.688,0,.3736-.1387,.6961-.4158,.9681-.2776,.272-.5977,.4082-.9603,.4082-.2879,0-.5227-.0906-.7039-.2722Z" style="fill:#242424;"/><path d="M66.9371,57.2967c-.5015-.208-.8961-.5013-1.1839-.8802-.2881-.3784-.4322-.8133-.4322-1.3041,0-.0852,.0105-.2024,.032-.3521h1.7763c-.0427,.4056,.0801,.7418,.3679,1.0081,.2881,.2669,.6934,.4002,1.2162,.4002,.512,0,.9332-.0906,1.264-.2722,.3306-.1812,.4961-.448,.4961-.7999,0-.2986-.136-.5386-.408-.72s-.7068-.3841-1.3043-.6082c-.5655-.2239-1.024-.4319-1.3761-.6241-.3518-.1919-.6561-.4558-.9119-.7921-.2561-.336-.3841-.7545-.3841-1.256,0-.512,.1465-.9627,.44-1.3522,.2932-.3892,.7042-.6934,1.232-.9122,.5281-.2185,1.1334-.3279,1.8163-.3279,.6185,0,1.1705,.104,1.6561,.312,.4851,.208,.8641,.5015,1.1361,.88,.272,.3789,.408,.8135,.408,1.3041,0,.1497-.0054,.2617-.0161,.3362h-1.7279c.0425-.416-.0776-.752-.3601-1.0081-.2827-.2561-.6856-.3841-1.2081-.3841-.4588,0-.8297,.096-1.1122,.2881-.2827,.1919-.4239,.4534-.4239,.784,0,.3308,.1438,.5948,.4319,.7921,.2881,.1975,.7305,.4136,1.3282,.648,.544,.2136,.9864,.416,1.328,.6082,.3413,.1919,.6346,.448,.8802,.7679,.2451,.3201,.3679,.72,.3679,1.2003,0,.5227-.1575,.9786-.472,1.368-.315,.3894-.7496,.688-1.3043,.8961s-1.1839,.312-1.8881,.312c-.608,0-1.1627-.104-1.6642-.312Z" style="fill:#242424;"/><path d="M75.786,57.1446c-.5657-.3091-1.0057-.7464-1.3202-1.3121-.3147-.5652-.472-1.2105-.472-1.9362,0-.992,.232-1.8986,.6959-2.7202,.4641-.8211,1.1041-1.472,1.9203-1.9521,.816-.48,1.7252-.72,2.7283-.72,.7464,0,1.4081,.1575,1.984,.472,.576,.3147,1.0267,.752,1.3522,1.3121,.3252,.5601,.4881,1.2081,.4881,1.9443,0,.992-.24,1.8988-.72,2.7202-.4803,.8216-1.131,1.4696-1.9523,1.944-.8216,.4749-1.7335,.7122-2.7361,.7122-.7469,0-1.4029-.1546-1.9682-.4641Zm3.8643-1.5922c.5064-.3465,.9039-.8052,1.192-1.3761,.2881-.5704,.4319-1.1812,.4319-1.8322,0-.7359-.208-1.3041-.6238-1.704-.416-.4002-.939-.6001-1.5682-.6001-.6187,0-1.1707,.1736-1.6561,.5201-.4856,.347-.8641,.8109-1.1361,1.3922-.272,.5816-.408,1.2027-.408,1.8642,0,.7147,.1944,1.2696,.584,1.6642,.3892,.3946,.8934,.5918,1.5121,.5918,.608,0,1.1654-.1731,1.6723-.5201Zm-1.9042-9.3606c.3784-.3145,.8079-.472,1.2879-.472,.2027,0,.3682,.0293,.4961,.0879,.1279,.0588,.2986,.1575,.512,.2959,.1384,.1069,.2586,.1868,.3601,.24,.1011,.0537,.2212,.0801,.3599,.0801,.1814,0,.3467-.0559,.4961-.168,.1492-.1121,.2559-.2801,.3201-.5039h1.024c-.1922,.6187-.4776,1.0855-.856,1.4-.3789,.3147-.8082,.472-1.2882,.472-.2027,0-.3736-.032-.512-.096-.1387-.064-.304-.1653-.4961-.304-.1599-.1172-.2879-.2-.3841-.2481-.096-.0479-.208-.072-.336-.072-.1814,0-.3416,.0588-.48,.176-.1387,.1174-.2454,.2881-.3201,.512h-1.024c.1812-.6185,.4612-1.0853,.8402-1.4Z" style="fill:#242424;"/><path d="M87.4825,48.648l-1.5521,8.8166h-1.8241l1.5521-8.8166h1.8241Zm-1.392-1.4403c-.1817-.1812-.272-.4104-.272-.688,0-.3731,.1411-.6959,.4239-.9681,.2827-.272,.6053-.408,.9681-.408,.2881,0,.5201,.0908,.6961,.272,.176,.1817,.2639,.4109,.2639,.688,0,.3736-.1387,.6961-.4158,.9681-.2776,.272-.5977,.4082-.9603,.4082-.2879,0-.5227-.0906-.7039-.2722Z" style="fill:#242424;"/><path d="M95.2192,48.9119c.4851,.272,.8345,.6109,1.0479,1.0162l.2241-1.2801h1.84l-1.568,8.9607c-.1497,.8106-.448,1.5333-.8961,2.1681-.448,.6346-1.0296,1.1334-1.7443,1.4962-.7147,.3623-1.5201,.544-2.4162,.544-.7786,0-1.4615-.1255-2.048-.376-.587-.2508-1.0296-.6109-1.3282-1.0802-.2986-.4695-.4265-1.024-.3841-1.6642h1.8083c.0532,.4585,.2825,.8294,.688,1.1122,.4053,.2825,.9227,.4241,1.5521,.4241,.7361,0,1.3707-.2241,1.9042-.6722,.5332-.448,.8746-1.0987,1.024-1.9521l.2561-1.472c-.3841,.4158-.8641,.7654-1.4403,1.0479-.576,.2825-1.2,.4241-1.872,.4241s-1.2696-.1494-1.7921-.448c-.5227-.2986-.931-.7227-1.2242-1.2721-.2935-.5494-.44-1.1815-.44-1.8962,0-.3201,.034-.6449,.096-.9762,.1655-.8843,.4827-1.6693,.9681-2.3522,.4854-.6824,1.0802-1.2132,1.7841-1.5922,.7042-.3784,1.4403-.5679,2.2082-.5679,.6827,0,1.2667,.136,1.7523,.408Zm.5679,3.4803c0-.7147-.2107-1.2774-.6321-1.6881-.4214-.4104-.9466-.616-1.5761-.616-.4695,0-.9281,.1148-1.3761,.344-.448,.2295-.8375,.5655-1.1681,1.0081-.3308,.4427-.5391,.97-.6561,1.5761-.0392,.2034-.064,.4214-.064,.6561,0,.7256,.2105,1.2989,.6319,1.7201,.4214,.4217,.9466,.6321,1.5763,.6321,.4693,0,.9281-.1172,1.3761-.3521,.448-.2346,.8372-.5787,1.1681-1.0321,.3306-.4534,.5393-.9861,.6561-1.5922,.0391-.2031,.064-.4212,.064-.6561Z" style="fill:#242424;"/><path d="M108.7162,48.648l-1.5521,8.8166h-1.8241l.176-1.0401c-.3521,.3628-.7762,.648-1.2723,.856-.4959,.208-1.0055,.312-1.528,.312-.9281,0-1.6696-.2505-2.2243-.752-.5547-.5013-.8321-1.2105-.8321-2.1281,0-.2454,.0266-.5386,.0801-.8802l.9122-5.1843h1.808l-.8641,4.9123c-.0427,.2989-.064,.512-.064,.6402,0,.5867,.1626,1.0348,.4881,1.3441,.3252,.3094,.7759,.4639,1.3522,.4639,.6719,0,1.2425-.2,1.7121-.5999,.4693-.4002,.7786-.9786,.9281-1.7362l.8802-5.0243h1.8241Z" style="fill:#242424;"/><path d="M111.148,57.2967c-.5015-.208-.8961-.5013-1.1839-.8802-.2881-.3784-.4322-.8133-.4322-1.3041,0-.0852,.0105-.2024,.032-.3521h1.7763c-.0427,.4056,.0801,.7418,.3679,1.0081,.2881,.2669,.6934,.4002,1.2162,.4002,.512,0,.9332-.0906,1.264-.2722,.3306-.1812,.4961-.448,.4961-.7999,0-.2986-.136-.5386-.408-.72s-.7068-.3841-1.3043-.6082c-.5655-.2239-1.024-.4319-1.3761-.6241-.3518-.1919-.6561-.4558-.9119-.7921-.2561-.336-.3841-.7545-.3841-1.256,0-.512,.1465-.9627,.44-1.3522,.2932-.3892,.7042-.6934,1.232-.9122,.5281-.2185,1.1334-.3279,1.8163-.3279,.6185,0,1.1705,.104,1.6561,.312,.4851,.208,.8641,.5015,1.1361,.88,.272,.3789,.408,.8135,.408,1.3041,0,.1497-.0054,.2617-.0161,.3362h-1.7279c.0425-.416-.0776-.752-.3601-1.0081-.2827-.2561-.6856-.3841-1.2081-.3841-.4588,0-.8297,.096-1.1122,.2881-.2827,.1919-.4239,.4534-.4239,.784,0,.3308,.1438,.5948,.4319,.7921,.2881,.1975,.7305,.4136,1.3282,.648,.544,.2136,.9864,.416,1.328,.6082,.3413,.1919,.6346,.448,.8802,.7679,.2451,.3201,.3679,.72,.3679,1.2003,0,.5227-.1575,.9786-.472,1.368-.315,.3894-.7496,.688-1.3043,.8961s-1.1839,.312-1.8881,.312c-.608,0-1.1627-.104-1.6642-.312Z" style="fill:#242424;"/><path d="M122.8768,55.0326l.24-1.3763,6.7366-7.7125h2.2082l-1.3121,7.5045h1.4882l-.2881,1.5844h-1.4882l-.4319,2.4321h-1.7921l.4319-2.4321h-5.7925Zm7.1527-7.2328l-4.7685,5.6484h3.7764l.992-5.6484Z" style="fill:#242424;"/><path d="M139.6457,57.2967c-.5015-.208-.8961-.5013-1.1839-.8802-.2881-.3784-.4322-.8133-.4322-1.3041,0-.0852,.0105-.2024,.032-.3521h1.7763c-.0427,.4056,.0801,.7418,.3679,1.0081,.2881,.2669,.6934,.4002,1.2162,.4002,.512,0,.9332-.0906,1.264-.2722,.3306-.1812,.4961-.448,.4961-.7999,0-.2986-.136-.5386-.408-.72s-.7068-.3841-1.3043-.6082c-.5655-.2239-1.024-.4319-1.3761-.6241-.3518-.1919-.6561-.4558-.9119-.7921-.2561-.336-.3841-.7545-.3841-1.256,0-.512,.1465-.9627,.44-1.3522,.2932-.3892,.7042-.6934,1.232-.9122,.5281-.2185,1.1334-.3279,1.8163-.3279,.6185,0,1.1705,.104,1.6561,.312,.4851,.208,.8641,.5015,1.1361,.88,.272,.3789,.408,.8135,.408,1.3041,0,.1497-.0054,.2617-.0161,.3362h-1.7279c.0425-.416-.0776-.752-.3601-1.0081-.2827-.2561-.6856-.3841-1.2081-.3841-.4588,0-.8297,.096-1.1122,.2881-.2827,.1919-.4239,.4534-.4239,.784,0,.3308,.1438,.5948,.4319,.7921,.2881,.1975,.7305,.4136,1.3282,.648,.544,.2136,.9864,.416,1.328,.6082,.3413,.1919,.6346,.448,.8802,.7679,.2451,.3201,.3679,.72,.3679,1.2003,0,.5227-.1575,.9786-.472,1.368-.315,.3894-.7496,.688-1.3043,.8961s-1.1839,.312-1.8881,.312c-.608,0-1.1627-.104-1.6642-.312Z" style="fill:#242424;"/><path d="M148.4946,57.1446c-.5657-.3091-1.0057-.7464-1.3202-1.3121-.3147-.5652-.472-1.2105-.472-1.9362,0-.992,.232-1.8986,.6959-2.7202,.4641-.8211,1.1041-1.472,1.9203-1.9521,.816-.48,1.7252-.72,2.7283-.72,.7464,0,1.4081,.1575,1.984,.472,.576,.3147,1.0267,.752,1.3522,1.3121,.3252,.5601,.4881,1.2081,.4881,1.9443,0,.992-.24,1.8988-.72,2.7202-.4803,.8216-1.131,1.4696-1.9523,1.944-.8216,.4749-1.7335,.7122-2.7361,.7122-.7469,0-1.4029-.1546-1.9682-.4641Zm3.8643-1.5922c.5064-.3465,.9039-.8052,1.192-1.3761,.2881-.5704,.4319-1.1812,.4319-1.8322,0-.7359-.208-1.3041-.6238-1.704-.416-.4002-.939-.6001-1.5682-.6001-.6187,0-1.1707,.1736-1.6561,.5201-.4856,.347-.8641,.8109-1.1361,1.3922-.272,.5816-.408,1.2027-.408,1.8642,0,.7147,.1944,1.2696,.584,1.6642,.3892,.3946,.8934,.5918,1.5121,.5918,.608,0,1.1654-.1731,1.6723-.5201Zm-1.9042-9.3606c.3784-.3145,.8079-.472,1.2879-.472,.2027,0,.3682,.0293,.4961,.0879,.1279,.0588,.2986,.1575,.512,.2959,.1384,.1069,.2586,.1868,.3601,.24,.1011,.0537,.2212,.0801,.3599,.0801,.1814,0,.3467-.0559,.4961-.168,.1492-.1121,.2559-.2801,.3201-.5039h1.024c-.1922,.6187-.4776,1.0855-.856,1.4-.3789,.3147-.8082,.472-1.2882,.472-.2027,0-.3736-.032-.512-.096-.1387-.064-.304-.1653-.4961-.304-.1599-.1172-.2879-.2-.3841-.2481-.096-.0479-.208-.072-.336-.072-.1814,0-.3416,.0588-.48,.176-.1387,.1174-.2454,.2881-.3201,.512h-1.024c.1812-.6185,.4612-1.0853,.8402-1.4Z" style="fill:#242424;"/><path d="M161.4234,48.9119c.5865-.272,1.2105-.408,1.872-.408,.6827,0,1.2828,.1441,1.8002,.4319,.5174,.2881,.9202,.6961,1.2081,1.2242,.2881,.5281,.4322,1.1495,.4322,1.8642,0,.3094-.0323,.6399-.0962,.992-.1607,.8854-.4827,1.6776-.9679,2.3762-.4856,.6988-1.0777,1.2428-1.7763,1.6322-.6988,.3894-1.432,.584-2.2001,.584-.6829,0-1.2643-.1336-1.7443-.4002-.48-.2664-.8428-.608-1.088-1.024l-.2241,1.2801h-1.8241l2.0964-11.8411h1.8241l-.7681,4.3365c.3841-.4265,.8692-.7762,1.4562-1.0482Zm3.4241,3.4483c0-.7147-.2107-1.2721-.6319-1.672-.4217-.4002-.9522-.6001-1.5922-.6001-.4588,0-.9149,.1174-1.368,.3521-.4537,.2346-.8458,.576-1.1761,1.024-.3308,.448-.5392,.9781-.6561,1.5841-.0393,.2036-.064,.4217-.064,.6561,0,.7149,.2105,1.2801,.6319,1.6962s.9466,.6241,1.5763,.6241c.4693,0,.9305-.1201,1.3839-.3601s.8455-.5892,1.1761-1.0479c.3306-.4585,.5393-.9941,.6561-1.6002,.0391-.2031,.064-.4212,.064-.6561Z" style="fill:#242424;"/><path d="M172.0561,48.952c.4961-.2986,1.0482-.448,1.6561-.448l-.336,1.8881h-.4641c-.7039,0-1.2696,.176-1.6962,.5281-.4268,.3521-.7254,.96-.8961,1.8241l-.8321,4.7204h-1.8241l1.5521-8.8166h1.8241l-.272,1.5521c.3626-.5335,.7921-.9493,1.2882-1.2481Z" style="fill:#242424;"/><path d="M174.9521,50.664c.4854-.6824,1.0802-1.2132,1.7841-1.5922,.7042-.3784,1.4403-.5679,2.2082-.5679,.6934,0,1.2748,.136,1.7443,.408,.4693,.272,.8214,.6109,1.056,1.0162l.2241-1.2801h1.84l-1.5521,8.8166h-1.84l.24-1.3121c-.3841,.416-.8668,.7628-1.4481,1.0401-.5816,.2774-1.2137,.416-1.8962,.416-.6617,0-1.2508-.1494-1.7682-.448-.5176-.2986-.9229-.7227-1.2162-1.2721-.2935-.5494-.44-1.1815-.44-1.8962,0-.3201,.034-.6449,.096-.9762,.1655-.8843,.4827-1.6693,.9681-2.3522Zm6.3125,1.7282c0-.7147-.2107-1.2774-.6321-1.6881-.4214-.4104-.9466-.616-1.5761-.616-.4695,0-.9281,.1148-1.3761,.344-.448,.2295-.8375,.5655-1.1681,1.0081-.3308,.4427-.5391,.97-.6561,1.5761-.0392,.2034-.064,.4214-.064,.6561,0,.7256,.2105,1.2989,.6319,1.7201,.4214,.4217,.9466,.6321,1.5763,.6321,.4693,0,.9281-.1172,1.3761-.3521,.448-.2346,.8372-.5787,1.1681-1.0321,.3306-.4534,.5393-.9861,.6561-1.5922,.0391-.2031,.064-.4212,.064-.6561Z" style="fill:#242424;"/><path d="M191.5455,48.9119c.4851,.272,.8345,.6109,1.0479,1.0162l.2241-1.2801h1.84l-1.568,8.9607c-.1497,.8106-.448,1.5333-.8961,2.1681-.448,.6346-1.0296,1.1334-1.7443,1.4962-.7147,.3623-1.5201,.544-2.4162,.544-.7786,0-1.4615-.1255-2.048-.376-.587-.2508-1.0296-.6109-1.3282-1.0802-.2986-.4695-.4265-1.024-.3841-1.6642h1.8083c.0532,.4585,.2825,.8294,.688,1.1122,.4053,.2825,.9227,.4241,1.5521,.4241,.7361,0,1.3707-.2241,1.9042-.6722,.5332-.448,.8746-1.0987,1.024-1.9521l.2561-1.472c-.3841,.4158-.8641,.7654-1.4403,1.0479-.576,.2825-1.2,.4241-1.872,.4241s-1.2696-.1494-1.7921-.448c-.5227-.2986-.931-.7227-1.2242-1.2721-.2935-.5494-.44-1.1815-.44-1.8962,0-.3201,.034-.6449,.096-.9762,.1655-.8843,.4827-1.6693,.9681-2.3522,.4854-.6824,1.0802-1.2132,1.7841-1.5922,.7042-.3784,1.4403-.5679,2.2082-.5679,.6827,0,1.2667,.136,1.7523,.408Zm.5679,3.4803c0-.7147-.2107-1.2774-.6321-1.6881-.4214-.4104-.9466-.616-1.5761-.616-.4695,0-.9281,.1148-1.3761,.344-.448,.2295-.8375,.5655-1.1681,1.0081-.3308,.4427-.5391,.97-.6561,1.5761-.0392,.2034-.064,.4214-.064,.6561,0,.7256,.2105,1.2989,.6319,1.7201,.4214,.4217,.9466,.6321,1.5763,.6321,.4693,0,.9281-.1172,1.3761-.3521,.448-.2346,.8372-.5787,1.1681-1.0321,.3306-.4534,.5393-.9861,.6561-1.5922,.0391-.2031,.064-.4212,.064-.6561Z" style="fill:#242424;"/><path d="M196.6496,50.664c.4854-.6824,1.0802-1.2132,1.7841-1.5922,.7042-.3784,1.4403-.5679,2.2082-.5679,.6934,0,1.2748,.136,1.7443,.408,.4693,.272,.8214,.6109,1.056,1.0162l.2241-1.2801h1.84l-1.5521,8.8166h-1.84l.24-1.3121c-.3841,.416-.8668,.7628-1.4481,1.0401-.5816,.2774-1.2137,.416-1.8962,.416-.6617,0-1.2508-.1494-1.7682-.448-.5176-.2986-.9229-.7227-1.2162-1.2721-.2935-.5494-.44-1.1815-.44-1.8962,0-.3201,.034-.6449,.096-.9762,.1655-.8843,.4827-1.6693,.9681-2.3522Zm6.3125,1.7282c0-.7147-.2107-1.2774-.6321-1.6881-.4214-.4104-.9466-.616-1.5761-.616-.4695,0-.9281,.1148-1.3761,.344-.448,.2295-.8375,.5655-1.1681,1.0081-.3308,.4427-.5391,.97-.6561,1.5761-.0392,.2034-.064,.4214-.064,.6561,0,.7256,.2105,1.2989,.6319,1.7201,.4214,.4217,.9466,.6321,1.5763,.6321,.4693,0,.9281-.1172,1.3761-.3521,.448-.2346,.8372-.5787,1.1681-1.0321,.3306-.4534,.5393-.9861,.6561-1.5922,.0391-.2031,.064-.4212,.064-.6561Z" style="fill:#242424;"/><path d="M206.3704,57.3047c-.1817-.1814-.272-.4107-.272-.688,0-.3733,.1411-.6961,.4239-.9681s.6055-.4082,.9681-.4082c.2881,0,.5201,.0908,.6961,.2722s.2642,.4107,.2642,.688c0,.3736-.1389,.6959-.416,.9681-.2776,.272-.5977,.408-.9603,.408-.2879,0-.5227-.0908-.7039-.272Z" style="fill:#242424;"/><path d="M9.7479,77.9727c-.2906,.4073-.6956,.7388-1.2157,.9947-.5201,.2554-1.1529,.3833-1.8981,.3833h-1.6383l-.65,3.6663h-1.4821l1.599-9.0359h3.1204c.91,0,1.599,.2017,2.0671,.6045,.4681,.4034,.7022,.9298,.7022,1.5797,0,.1128-.0176,.2818-.052,.5069-.0781,.4595-.2625,.8931-.5525,1.3004Zm-1.5731-.1821c.325-.2686,.5182-.6426,.6045-1.1183,.0236-.1303,.0388-.2554,.0388-.377,0-.3638-.1192-.6475-.3575-.8511-.2385-.2036-.6004-.3057-1.0855-.3057h-1.6381l-.5332,3.0549h1.6383c.5633,0,1.0074-.1338,1.3326-.4029Z" style="fill:#242424;"/><path d="M14.1679,76.1004c.4031-.2427,.8516-.3638,1.3456-.3638l-.273,1.5338h-.377c-.5721,0-1.0316,.1431-1.378,.4292-.3467,.2862-.5896,.7798-.7281,1.4821l-.6761,3.8353h-1.4821l1.2611-7.1637h1.4821l-.221,1.2613c.2945-.4336,.6436-.7715,1.0465-1.0142Z" style="fill:#242424;"/><path d="M17.1257,82.7572c-.4595-.2515-.817-.607-1.0726-1.0665-.2556-.459-.3836-.9835-.3836-1.5729,0-.8062,.1885-1.5426,.5655-2.2101,.3772-.6675,.8973-1.1964,1.5602-1.5861,.6631-.3902,1.402-.585,2.2167-.585,.6065,0,1.1441,.1279,1.6122,.3833,.4681,.2559,.8341,.6109,1.0985,1.066s.3965,.9815,.3965,1.5797c0,.8062-.1948,1.5426-.585,2.2101-.3899,.6675-.9188,1.1939-1.5861,1.5797-.6675,.3858-1.4086,.5787-2.2233,.5787-.6067,0-1.1397-.1255-1.599-.377Zm3.1397-1.2941c.4117-.2813,.7347-.6544,.9686-1.1178,.2341-.4639,.3511-.96,.3511-1.4889,0-.5977-.169-1.0597-.5071-1.3844-.3379-.3252-.7628-.4878-1.274-.4878-.5027,0-.9512,.1411-1.3456,.4229-.3946,.2818-.7022,.6587-.9232,1.131-.221,.4727-.3316,.9771-.3316,1.5148,0,.5806,.1582,1.0313,.4746,1.3522,.3162,.3203,.7259,.481,1.2286,.481,.4939,0,.9469-.1411,1.3585-.4229Z" style="fill:#242424;"/><path d="M25.4201,82.7572c-.4595-.2515-.817-.607-1.0726-1.0665-.2556-.459-.3836-.9835-.3836-1.5729,0-.8062,.1885-1.5426,.5655-2.2101,.3772-.6675,.8973-1.1964,1.5602-1.5861,.6631-.3902,1.402-.585,2.2167-.585,.6065,0,1.1441,.1279,1.6122,.3833,.4681,.2559,.8341,.6109,1.0985,1.066s.3965,.9815,.3965,1.5797c0,.8062-.1948,1.5426-.585,2.2101-.3899,.6675-.9188,1.1939-1.5861,1.5797-.6675,.3858-1.4086,.5787-2.2233,.5787-.6067,0-1.1397-.1255-1.599-.377Zm3.1397-1.2941c.4117-.2813,.7347-.6544,.9686-1.1178,.2341-.4639,.3511-.96,.3511-1.4889,0-.5977-.169-1.0597-.5071-1.3844-.3379-.3252-.7628-.4878-1.274-.4878-.5027,0-.9512,.1411-1.3456,.4229-.3946,.2818-.7022,.6587-.9232,1.131-.221,.4727-.3316,.9771-.3316,1.5148,0,.5806,.1582,1.0313,.4746,1.3522,.3162,.3203,.7259,.481,1.2286,.481,.4939,0,.9469-.1411,1.3585-.4229Z" style="fill:#242424;"/><polygon points="35.1836 81.6907 38.2387 75.8534 39.838 75.8534 35.8467 83.017 34.0524 83.017 32.5964 75.8534 34.1825 75.8534 35.1836 81.6907" style="fill:#242424;"/><path d="M42.4119,75.8534l-1.2611,7.1637h-1.4821l1.2611-7.1637h1.4821Zm-1.1312-1.17c-.1475-.1475-.221-.3335-.221-.5591,0-.3032,.1148-.5655,.3445-.7867,.2295-.2207,.492-.3311,.7867-.3311,.2339,0,.4224,.0737,.5655,.2207,.1431,.1475,.2146,.334,.2146,.5591,0,.3032-.1128,.5655-.3382,.7867-.2254,.2207-.4854,.3316-.7801,.3316-.2339,0-.4246-.0737-.5721-.2212Z" style="fill:#242424;"/><path d="M49.1464,82.6269c-.5809-.3203-1.0316-.7711-1.3522-1.3522-.3208-.5806-.481-1.2394-.481-1.9757,0-1.0313,.2317-1.9611,.6954-2.7888s1.1053-1.4757,1.9242-1.944c.8192-.4678,1.7357-.7017,2.7497-.7017,.7713,0,1.4474,.1602,2.0282,.481,.5806,.3208,1.0313,.7691,1.3522,1.3453,.3203,.5767,.481,1.233,.481,1.9699,0,1.0313-.232,1.9631-.6956,2.7952s-1.1051,1.4821-1.9242,1.9504c-.8189,.4678-1.7401,.7017-2.7627,.7017-.7628,0-1.4347-.1602-2.0151-.481Zm4.1148-1.4039c.5503-.3643,.9793-.8516,1.287-1.4625,.3076-.6114,.4615-1.2765,.4615-1.9958,0-.7886-.2232-1.4108-.6695-1.8659-.4466-.4546-1.0682-.6822-1.8656-.6822-.7108,0-1.3414,.1797-1.8915,.5391-.5506,.3599-.9774,.8433-1.2806,1.4498-.3035,.607-.4551,1.274-.4551,2.0021,0,.7886,.2229,1.4127,.6695,1.8722,.4463,.4595,1.0638,.689,1.8527,.689,.7105,0,1.3412-.1821,1.8918-.5459Zm-1.8722-9.2371c.3076-.2559,.6565-.3838,1.0465-.3838,.1646,0,.2991,.0239,.4031,.0718,.104,.0474,.2425,.1279,.416,.2403,.1126,.0869,.21,.1519,.2925,.1948,.0823,.0435,.1797,.0654,.2925,.0654,.1472,0,.2815-.0459,.4031-.1367,.1213-.0908,.208-.2276,.26-.4097h.8321c-.156,.503-.388,.8824-.6956,1.1378-.3079,.2559-.6565,.3833-1.0467,.3833-.1646,0-.3035-.0259-.4158-.0776-.1128-.0523-.2471-.1343-.4031-.2471-.1301-.0952-.2341-.1626-.312-.2017-.0781-.0391-.169-.0586-.273-.0586-.1475,0-.2776,.0479-.3902,.1431-.1128,.0957-.1995,.2339-.26,.416h-.8321c.1475-.5025,.3748-.8819,.6827-1.1373Z" style="fill:#242424;"/><path d="M63.9154,76.3412c.4334,.4029,.65,.9771,.65,1.7223,0,.1997-.0217,.4419-.0649,.7281l-.754,4.2254h-1.4691l.7149-4.0042c.0347-.2427,.052-.416,.052-.5201,0-.4766-.1321-.8409-.3965-1.0924-.2644-.251-.6304-.377-1.0985-.377-.5635,0-1.0382,.1714-1.4237,.5137-.3858,.3423-.6304,.8341-.7344,1.4757v-.0259l-.7151,4.0301h-1.4821l1.703-9.6209h1.4821l-.585,3.2893c.3032-.3032,.6631-.5372,1.0792-.7022,.416-.1646,.8536-.2466,1.3131-.2466,.7193,0,1.2955,.2012,1.7291,.6045Z" style="fill:#242424;"/><path d="M67.7114,81.0281c-.0173,.1211-.0259,.1992-.0259,.2339,0,.1817,.0562,.314,.169,.3965,.1126,.0825,.2991,.1235,.5591,.1235h.91l-.221,1.235h-1.17c-.5721,0-1.0098-.1148-1.3131-.3448-.3035-.2295-.4551-.5958-.4551-1.0982,0-.1904,.0173-.3726,.052-.5459l.702-3.9657h-.845l.208-1.2091h.858l.312-1.7809h1.4952l-.312,1.7809h1.7291l-.208,1.2091h-1.7421l-.7022,3.9657Z" style="fill:#242424;"/><path d="M78.2164,75.8534l-1.2613,7.1637h-1.4821l.1431-.8453c-.2862,.2949-.6307,.5269-1.0335,.6959-.4031,.169-.8172,.2534-1.2416,.2534-.7542,0-1.3568-.2036-1.8073-.6109-.4507-.4073-.6761-.984-.6761-1.7291,0-.1992,.0215-.4375,.0649-.7154l.7413-4.2123h1.4691l-.7022,3.9915c-.0347,.2427-.052,.416-.052,.5201,0,.4766,.1321,.8409,.3965,1.0919,.2644,.2515,.6307,.377,1.0987,.377,.5459,0,1.0096-.1626,1.391-.4873,.3814-.3252,.6326-.795,.7542-1.4108l.7149-4.0824h1.4823Z" style="fill:#242424;"/><polygon points="82.0902 73.3961 80.3872 83.017 78.9051 83.017 80.6082 73.3961 82.0902 73.3961" style="fill:#242424;"/><path d="M88.8442,76.4906c.533,.5025,.7996,1.1788,.7996,2.028,0,.1997-.0217,.438-.0649,.7149-.0347,.1909-.0955,.4248-.1821,.7022h-5.4733c-.0088,.0606-.0129,.1519-.0129,.273,0,.5118,.158,.919,.4744,1.2223s.73,.4551,1.2416,.4551c.8062,0,1.4257-.3335,1.8593-1.0011h1.599c-.3294,.6587-.8148,1.1983-1.4559,1.6183-.6417,.4204-1.3827,.6309-2.2233,.6309-.5979,0-1.1224-.1172-1.5731-.3511s-.8018-.5699-1.0531-1.0079c-.2515-.4375-.377-.9508-.377-1.5407,0-.251,.0266-.5194,.0779-.8057,.132-.7366,.3943-1.3849,.7933-1.944,.3985-.5586,.8948-.9898,1.4884-1.2936,.5938-.3032,1.2418-.4546,1.9438-.4546,.8927,0,1.6056,.2515,2.1386,.754Zm-.7215,2.0412c0-.4766-.1582-.8536-.4744-1.1314-.3167-.2769-.7261-.416-1.2286-.416-.5289,0-1.0057,.1694-1.4303,.5074s-.7149,.7974-.8709,1.378h3.9784c.0171-.1563,.0259-.2686,.0259-.3379Z" style="fill:#242424;"/><path d="M97.0802,76.3412c.4334,.4029,.65,.9771,.65,1.7223,0,.1997-.0217,.4419-.0649,.7281l-.754,4.2254h-1.4691l.7149-4.0042c.0347-.2427,.052-.416,.052-.5201,0-.4766-.1321-.8409-.3965-1.0924-.2644-.251-.6304-.377-1.0985-.377-.5635,0-1.0382,.1714-1.4237,.5137-.3858,.3423-.6304,.8341-.7344,1.4757v-.0259l-.7151,4.0301h-1.4821l1.703-9.6209h1.4821l-.585,3.2893c.3032-.3032,.6631-.5372,1.0792-.7022,.416-.1646,.8536-.2466,1.3131-.2466,.7193,0,1.2955,.2012,1.7291,.6045Z" style="fill:#242424;"/><path d="M100.8762,81.0281c-.0173,.1211-.0259,.1992-.0259,.2339,0,.1817,.0562,.314,.169,.3965,.1126,.0825,.2991,.1235,.5591,.1235h.91l-.221,1.235h-1.17c-.5721,0-1.0098-.1148-1.3131-.3448-.3035-.2295-.4551-.5958-.4551-1.0982,0-.1904,.0173-.3726,.052-.5459l.702-3.9657h-.845l.208-1.2091h.858l.312-1.7809h1.4952l-.312,1.7809h1.7291l-.208,1.2091h-1.7421l-.7022,3.9657Z" style="fill:#242424;"/><polygon points="111.251 78.5054 114.4493 83.017 112.5121 83.017 109.7299 78.9737 109.0148 83.017 107.5327 83.017 109.1317 73.9811 110.6138 73.9811 109.8859 78.1026 114.1241 73.9811 115.9834 73.9811 111.251 78.5054" style="fill:#242424;"/><path d="M118.5055,75.8534l-1.2611,7.1637h-1.4821l1.2611-7.1637h1.4821Zm-1.1312-1.17c-.1475-.1475-.221-.3335-.221-.5591,0-.3032,.1148-.5655,.3445-.7867,.2295-.2207,.492-.3311,.7867-.3311,.2339,0,.4224,.0737,.5655,.2207,.1431,.1475,.2146,.334,.2146,.5591,0,.3032-.1128,.5655-.3382,.7867-.2254,.2207-.4854,.3316-.7801,.3316-.2339,0-.4246-.0737-.5721-.2212Z" style="fill:#242424;"/><path d="M122.7632,76.1004c.4031-.2427,.8516-.3638,1.3456-.3638l-.273,1.5338h-.377c-.5721,0-1.0316,.1431-1.378,.4292-.3467,.2862-.5896,.7798-.7281,1.4821l-.6761,3.8353h-1.4821l1.2611-7.1637h1.4821l-.221,1.2613c.2945-.4336,.6436-.7715,1.0465-1.0142Z" style="fill:#242424;"/><path d="M125.4219,84.421c-.1213,.7022-.3858,1.2115-.793,1.528-.4075,.3159-.9447,.4742-1.6122,.4742h-.7669l.221-1.2477h.5071c.3035,0,.5286-.0586,.6761-.1758,.1475-.1167,.2425-.3101,.2859-.5787l1.5082-8.5676h1.4821l-1.5082,8.5676Zm.377-9.7376c-.1475-.1475-.221-.3335-.221-.5591,0-.3032,.1148-.5655,.3445-.7867,.2295-.2207,.492-.3311,.7867-.3311,.2339,0,.4224,.0737,.5655,.2207,.1431,.1475,.2146,.334,.2146,.5591,0,.3032-.1128,.5655-.3382,.7867-.2254,.2207-.4854,.3316-.7801,.3316-.2339,0-.4246-.0737-.5721-.2212Z" style="fill:#242424;"/><path d="M128.5486,77.4917c.3943-.5547,.8775-.9859,1.4496-1.2936s1.17-.4615,1.7941-.4615c.5633,0,1.0357,.1104,1.4171,.3311,.3814,.2212,.6673,.4966,.8582,.8258l.1819-1.0401h1.4952l-1.2611,7.1637h-1.4952l.1951-1.066c-.312,.3379-.7044,.6197-1.1766,.8448-.4725,.2256-.9862,.3384-1.5407,.3384-.5374,0-1.0162-.1216-1.4366-.3643s-.7498-.587-.9881-1.0333c-.2385-.4463-.3575-.96-.3575-1.5407,0-.2603,.0275-.5241,.0779-.793,.1346-.719,.3921-1.3566,.7867-1.9113Zm5.1288,1.4039c0-.5806-.1712-1.0377-.5135-1.3717-.3426-.3335-.7693-.5005-1.2806-.5005-.3814,0-.754,.0933-1.118,.2798s-.6805,.4595-.9491,.8189c-.2688,.3599-.4382,.7882-.5332,1.2809-.0319,.1651-.052,.3423-.052,.5328,0,.5894,.1712,1.0553,.5137,1.3976,.3423,.3428,.7691,.5137,1.2806,.5137,.3811,0,.754-.0952,1.118-.2862,.364-.1904,.6802-.4703,.9491-.8384,.2686-.3682,.438-.8014,.533-1.2936,.0319-.1651,.052-.3423,.052-.5332Z" style="fill:#242424;"/><path d="M137.7207,82.8803c-.4075-.169-.7281-.4073-.962-.7149-.2341-.3076-.3511-.6607-.3511-1.0597,0-.0693,.0085-.1646,.0261-.2857h1.443c-.0347,.3291,.0649,.6021,.2991,.8189,.2339,.2168,.5633,.3247,.9881,.3247,.416,0,.7584-.0732,1.0269-.2207s.4031-.3643,.4031-.65c0-.2427-.1106-.4375-.3316-.585s-.5743-.312-1.0594-.4942c-.4595-.1821-.8321-.3511-1.1183-.5069-.2859-.1563-.533-.3706-.741-.6436s-.312-.6133-.312-1.0206c0-.416,.1192-.7823,.3575-1.0987s.5721-.5635,1.0013-.7413c.429-.1773,.9207-.2661,1.4755-.2661,.5027,0,.9512,.0845,1.3456,.2534s.7022,.4073,.9232,.7149,.3316,.6612,.3316,1.0597c0,.1216-.0046,.2124-.0129,.273h-1.4042c.0344-.3379-.063-.6109-.2925-.8189-.2298-.208-.5572-.312-.9818-.312-.3726,0-.6739,.0776-.9034,.2339-.2298,.1558-.3445,.3687-.3445,.6373s.117,.4829,.3509,.6431c.2341,.1607,.5936,.336,1.0792,.5269,.4419,.1734,.8016,.3379,1.0789,.4937,.2774,.1563,.5157,.3643,.7151,.6241,.1992,.2603,.2991,.585,.2991,.9752,0,.4248-.1279,.7955-.3836,1.1119s-.6089,.5586-1.0597,.7276c-.4507,.1694-.962,.2539-1.5341,.2539-.4939,0-.9449-.0845-1.3522-.2539Z" style="fill:#242424;"/><path d="M145.4562,81.0281c-.0173,.1211-.0259,.1992-.0259,.2339,0,.1817,.0562,.314,.169,.3965,.1126,.0825,.2991,.1235,.5591,.1235h.91l-.221,1.235h-1.17c-.5721,0-1.0098-.1148-1.3131-.3448-.3035-.2295-.4551-.5958-.4551-1.0982,0-.1904,.0173-.3726,.052-.5459l.702-3.9657h-.845l.208-1.2091h.858l.312-1.7809h1.4952l-.312,1.7809h1.7291l-.208,1.2091h-1.7421l-.7022,3.9657Z" style="fill:#242424;"/><path d="M155.9612,75.8534l-1.2613,7.1637h-1.4821l.1431-.8453c-.2862,.2949-.6307,.5269-1.0335,.6959-.4031,.169-.8172,.2534-1.2416,.2534-.7542,0-1.3568-.2036-1.8073-.6109-.4507-.4073-.6761-.984-.6761-1.7291,0-.1992,.0215-.4375,.0649-.7154l.7413-4.2123h1.4691l-.7022,3.9915c-.0347,.2427-.052,.416-.052,.5201,0,.4766,.1321,.8409,.3965,1.0919,.2644,.2515,.6307,.377,1.0987,.377,.5459,0,1.0096-.1626,1.391-.4873,.3814-.3252,.6326-.795,.7542-1.4108l.7149-4.0824h1.4823Z" style="fill:#242424;"/><path d="M157.937,82.8803c-.4075-.169-.7281-.4073-.962-.7149-.2341-.3076-.3511-.6607-.3511-1.0597,0-.0693,.0085-.1646,.0261-.2857h1.443c-.0347,.3291,.0649,.6021,.2991,.8189,.2339,.2168,.5633,.3247,.9881,.3247,.416,0,.7584-.0732,1.0269-.2207s.4031-.3643,.4031-.65c0-.2427-.1106-.4375-.3316-.585s-.5743-.312-1.0594-.4942c-.4595-.1821-.8321-.3511-1.1183-.5069-.2859-.1563-.533-.3706-.741-.6436s-.312-.6133-.312-1.0206c0-.416,.1192-.7823,.3575-1.0987s.5721-.5635,1.0013-.7413c.429-.1773,.9207-.2661,1.4755-.2661,.5027,0,.9512,.0845,1.3456,.2534s.7022,.4073,.9232,.7149,.3316,.6612,.3316,1.0597c0,.1216-.0046,.2124-.0129,.273h-1.4042c.0344-.3379-.063-.6109-.2925-.8189-.2298-.208-.5572-.312-.9818-.312-.3726,0-.6739,.0776-.9034,.2339-.2298,.1558-.3445,.3687-.3445,.6373s.117,.4829,.3509,.6431c.2341,.1607,.5936,.336,1.0792,.5269,.4419,.1734,.8016,.3379,1.0789,.4937,.2774,.1563,.5157,.3643,.7151,.6241,.1992,.2603,.2991,.585,.2991,.9752,0,.4248-.1279,.7955-.3836,1.1119s-.6089,.5586-1.0597,.7276c-.4507,.1694-.962,.2539-1.5341,.2539-.4939,0-.9449-.0845-1.3522-.2539Z" style="fill:#242424;"/><path d="M170.0994,76.4906c.533,.5025,.7996,1.1788,.7996,2.028,0,.1997-.0217,.438-.0649,.7149-.0347,.1909-.0955,.4248-.1821,.7022h-5.4733c-.0088,.0606-.0129,.1519-.0129,.273,0,.5118,.158,.919,.4744,1.2223s.73,.4551,1.2416,.4551c.8062,0,1.4257-.3335,1.8593-1.0011h1.599c-.3294,.6587-.8148,1.1983-1.4559,1.6183-.6417,.4204-1.3827,.6309-2.2233,.6309-.5979,0-1.1224-.1172-1.5731-.3511s-.8018-.5699-1.0531-1.0079c-.2515-.4375-.377-.9508-.377-1.5407,0-.251,.0266-.5194,.0779-.8057,.132-.7366,.3943-1.3849,.7933-1.944,.3985-.5586,.8948-.9898,1.4884-1.2936,.5938-.3032,1.2418-.4546,1.9438-.4546,.8927,0,1.6056,.2515,2.1386,.754Zm-.7215,2.0412c0-.4766-.1582-.8536-.4744-1.1314-.3167-.2769-.7261-.416-1.2286-.416-.5289,0-1.0057,.1694-1.4303,.5074s-.7149,.7974-.8709,1.378h3.9784c.0171-.1563,.0259-.2686,.0259-.3379Z" style="fill:#242424;"/><path d="M3.7933,95.0429c.3943-.5547,.8775-.9859,1.4496-1.2936s1.1744-.4615,1.8073-.4615c.4678,0,.91,.1016,1.326,.3052s.7322,.4746,.9491,.8126l.6111-3.4583h1.495l-1.703,9.6209h-1.4952l.1951-1.0792c-.312,.3555-.7,.6436-1.1637,.8648-.4637,.2207-.973,.3316-1.5275,.3316-.5462,0-1.0316-.1216-1.4562-.3643-.4248-.2427-.7564-.587-.9947-1.0333-.2385-.4463-.3575-.96-.3575-1.5407,0-.2603,.0275-.5241,.0779-.793,.1346-.719,.3921-1.3566,.7867-1.9113Zm5.1288,1.4039c0-.5806-.1712-1.0377-.5135-1.3717-.3426-.3335-.7693-.5005-1.2806-.5005-.3814,0-.754,.0933-1.118,.2798s-.6805,.4595-.9491,.8189c-.2688,.3599-.4382,.7882-.5332,1.2809-.0319,.1651-.052,.3423-.052,.5328,0,.5894,.1712,1.0553,.5137,1.3976,.3423,.3428,.7691,.5137,1.2806,.5137,.3811,0,.754-.0952,1.118-.2862,.364-.1904,.6802-.4703,.9491-.8384,.2686-.3682,.438-.8014,.533-1.2936,.0319-.1651,.052-.3423,.052-.5332Z" style="fill:#242424;"/><path d="M14.4216,93.4046l-1.2611,7.1637h-1.4821l1.2611-7.1637h1.4821Zm-1.1312-1.17c-.1475-.1475-.221-.3335-.221-.5591,0-.3032,.1148-.5655,.3445-.7867,.2295-.2207,.492-.3311,.7867-.3311,.2339,0,.4224,.0737,.5655,.2207,.1431,.1475,.2146,.334,.2146,.5591,0,.3032-.1128,.5655-.3382,.7867-.2254,.2207-.4854,.3316-.7801,.3316-.2339,0-.4246-.0737-.5721-.2212Z" style="fill:#242424;"/><path d="M20.7075,93.619c.3943,.2212,.678,.4966,.8516,.8258l.1819-1.0401h1.4952l-1.2743,7.2809c-.1213,.6583-.364,1.2457-.7278,1.7614-.364,.5157-.8367,.921-1.4174,1.2159-.5806,.2945-1.235,.4419-1.9631,.4419-.6329,0-1.1876-.1021-1.6642-.3057s-.8365-.4961-1.0789-.8775c-.2429-.3814-.3467-.8321-.312-1.3522h1.4691c.0432,.3726,.2295,.6739,.5589,.9034s.7498,.3448,1.2611,.3448c.5982,0,1.1139-.1821,1.5472-.5459,.4334-.3643,.7105-.8931,.8321-1.5861l.208-1.1964c-.312,.3379-.7022,.6221-1.17,.8516-.4681,.2295-.9752,.3448-1.5211,.3448s-1.0316-.1216-1.4562-.3643c-.4248-.2427-.7564-.587-.9947-1.0333-.2385-.4463-.3575-.96-.3575-1.5407,0-.2603,.0275-.5241,.0779-.793,.1346-.719,.3921-1.3566,.7867-1.9113,.3943-.5547,.8775-.9859,1.4496-1.2936s1.17-.4615,1.7941-.4615c.5547,0,1.0291,.1104,1.4237,.3311Zm.4615,2.8279c0-.5806-.1712-1.0377-.5135-1.3717-.3426-.3335-.7693-.5005-1.2806-.5005-.3814,0-.754,.0933-1.118,.2798s-.6805,.4595-.9491,.8189c-.2688,.3599-.4382,.7882-.5332,1.2809-.0319,.1651-.052,.3423-.052,.5328,0,.5894,.1712,1.0553,.5137,1.3976,.3423,.3428,.7691,.5137,1.2806,.5137,.3811,0,.754-.0952,1.118-.2862,.364-.1904,.6802-.4703,.9491-.8384,.2686-.3682,.438-.8014,.533-1.2936,.0319-.1651,.052-.3423,.052-.5332Z" style="fill:#242424;"/><path d="M26.6685,93.4046l-1.2611,7.1637h-1.4821l1.2611-7.1637h1.4821Zm-1.1312-1.17c-.1475-.1475-.221-.3335-.221-.5591,0-.3032,.1148-.5655,.3445-.7867,.2295-.2207,.492-.3311,.7867-.3311,.2339,0,.4224,.0737,.5655,.2207,.1431,.1475,.2146,.334,.2146,.5591,0,.3032-.1128,.5655-.3382,.7867-.2254,.2207-.4854,.3316-.7801,.3316-.2339,0-.4246-.0737-.5721-.2212Z" style="fill:#242424;"/><path d="M31.0953,93.6258c.4722-.2256,.9815-.3379,1.5275-.3379s1.0313,.1167,1.4562,.3506c.4246,.2344,.754,.5679,.9881,1.0011,.2339,.4336,.3509,.941,.3509,1.5211,0,.2515-.0268,.516-.0779,.7935-.1324,.7189-.3924,1.3629-.7867,1.9303-.3943,.5679-.8753,1.0098-1.443,1.3263s-1.1637,.4746-1.7877,.4746c-.5459,0-1.012-.1108-1.3976-.3316-.3858-.2212-.6871-.4961-.9036-.8258l-.7798,4.4462h-1.4823l1.8593-10.5697h1.4821l-.1819,1.0533c.312-.3296,.7039-.6065,1.1766-.8321Zm2.7886,2.7952c0-.5806-.1712-1.0338-.5135-1.3585-.3426-.3252-.7735-.4878-1.2936-.4878-.3728,0-.7435,.0957-1.1117,.2862-.3684,.1909-.6871,.4683-.9556,.8321s-.4379,.7946-.533,1.2872c-.0319,.1651-.052,.3423-.052,.5328,0,.5811,.1712,1.0401,.5135,1.3785,.3423,.3379,.7691,.5069,1.2806,.5069,.3814,0,.7562-.0977,1.1246-.2925,.3684-.1953,.6868-.479,.9556-.8516,.2686-.3726,.438-.8078,.533-1.2999,.0319-.1651,.052-.3423,.052-.5332Z" style="fill:#242424;"/><path d="M37.1017,95.0429c.3943-.5547,.8775-.9859,1.4496-1.2936s1.17-.4615,1.7941-.4615c.5633,0,1.0357,.1104,1.4171,.3311,.3814,.2212,.6673,.4966,.8582,.8258l.1819-1.0401h1.4952l-1.2611,7.1637h-1.4952l.1951-1.066c-.312,.3379-.7044,.6197-1.1766,.8448-.4725,.2256-.9862,.3384-1.5407,.3384-.5374,0-1.0162-.1216-1.4366-.3643s-.7498-.587-.9881-1.0333c-.2385-.4463-.3575-.96-.3575-1.5407,0-.2603,.0275-.5241,.0779-.793,.1346-.719,.3921-1.3566,.7867-1.9113Zm5.1288,1.4039c0-.5806-.1712-1.0377-.5135-1.3717-.3426-.3335-.7693-.5005-1.2806-.5005-.3814,0-.754,.0933-1.118,.2798s-.6805,.4595-.9491,.8189c-.2688,.3599-.4382,.7882-.5332,1.2809-.0319,.1651-.052,.3423-.052,.5328,0,.5894,.1712,1.0553,.5137,1.3976,.3423,.3428,.7691,.5137,1.2806,.5137,.3811,0,.754-.0952,1.118-.2862,.364-.1904,.6802-.4703,.9491-.8384,.2686-.3682,.438-.8014,.533-1.2936,.0319-.1651,.052-.3423,.052-.5332Z" style="fill:#242424;"/><polygon points="48.4451 96.9928 51.1233 100.5683 49.1212 100.5683 47.0148 97.487 46.4689 100.5683 44.9868 100.5683 46.6899 90.9474 48.1719 90.9474 47.184 96.525 50.3303 93.4046 52.3844 93.4046 48.4451 96.9928" style="fill:#242424;"/><path d="M58.6962,94.0419c.533,.5025,.7996,1.1788,.7996,2.028,0,.1997-.0217,.438-.0649,.7149-.0347,.1909-.0955,.4248-.1821,.7022h-5.4733c-.0088,.0606-.0129,.1519-.0129,.273,0,.5118,.158,.919,.4744,1.2223s.73,.4551,1.2416,.4551c.8062,0,1.4257-.3335,1.8593-1.0011h1.599c-.3294,.6587-.8148,1.1983-1.4559,1.6183-.6417,.4204-1.3827,.6309-2.2233,.6309-.5979,0-1.1224-.1172-1.5731-.3511s-.8018-.5699-1.0531-1.0079c-.2515-.4375-.377-.9508-.377-1.5407,0-.251,.0266-.5194,.0779-.8057,.132-.7366,.3943-1.3849,.7933-1.944,.3985-.5586,.8948-.9898,1.4884-1.2936,.5938-.3032,1.2418-.4546,1.9438-.4546,.8927,0,1.6056,.2515,2.1386,.754Zm-.7215,2.0412c0-.4766-.1582-.8536-.4744-1.1314-.3167-.2769-.7261-.416-1.2286-.416-.5289,0-1.0057,.1694-1.4303,.5074s-.7149,.7974-.8709,1.378h3.9784c.0171-.1563,.0259-.2686,.0259-.3379Z" style="fill:#242424;"/><path d="M62.2908,98.5793c-.0173,.1211-.0259,.1992-.0259,.2339,0,.1817,.0562,.314,.169,.3965,.1126,.0825,.2991,.1235,.5591,.1235h.91l-.221,1.235h-1.17c-.5721,0-1.0098-.1148-1.3131-.3448-.3035-.2295-.4551-.5958-.4551-1.0982,0-.1904,.0173-.3726,.052-.5459l.702-3.9657h-.845l.208-1.2091h.858l.312-1.7809h1.4952l-.312,1.7809h1.7291l-.208,1.2091h-1.7421l-.7022,3.9657Z" style="fill:#242424;"/><path d="M67.1271,98.5793c-.0173,.1211-.0259,.1992-.0259,.2339,0,.1817,.0562,.314,.169,.3965,.1126,.0825,.2991,.1235,.5591,.1235h.91l-.221,1.235h-1.17c-.5721,0-1.0098-.1148-1.3131-.3448-.3035-.2295-.4551-.5958-.4551-1.0982,0-.1904,.0173-.3726,.052-.5459l.702-3.9657h-.845l.208-1.2091h.858l.312-1.7809h1.4952l-.312,1.7809h1.7291l-.208,1.2091h-1.7421l-.7022,3.9657Z" style="fill:#242424;"/><path d="M72.6266,93.4046l-1.2611,7.1637h-1.4821l1.2611-7.1637h1.4821Zm-1.1312-1.17c-.1475-.1475-.221-.3335-.221-.5591,0-.3032,.1148-.5655,.3445-.7867,.2295-.2207,.492-.3311,.7867-.3311,.2339,0,.4224,.0737,.5655,.2207,.1431,.1475,.2146,.334,.2146,.5591,0,.3032-.1128,.5655-.3382,.7867-.2254,.2207-.4854,.3316-.7801,.3316-.2339,0-.4246-.0737-.5721-.2212Z" style="fill:#242424;"/><path d="M79.6598,98.3449c-.0085,.0523-.0129,.1216-.0129,.208,0,.1738,.0498,.2969,.1494,.3706s.2666,.1104,.5005,.1104h.8582l-.273,1.5343h-1.1571c-1.3002,0-1.9504-.5415-1.9504-1.6251,0-.208,.0173-.4117,.052-.6109l.6111-3.4715h-.858l.26-1.4952h.8709l.312-1.7809h1.8332l-.312,1.7809h1.5993l-.26,1.4952h-1.6122l-.6111,3.4842Z" style="fill:#fff;"/><path d="M83.1374,95.0038c.3855-.5635,.8558-.9967,1.4105-1.2999,.5547-.3037,1.1397-.4551,1.7553-.4551,.5372,0,.9901,.1084,1.3585,.3247,.3684,.2168,.6392,.4898,.8126,.8194l.1821-1.0274h1.8332l-1.2743,7.2027h-1.8332l.1951-1.0533c-.2859,.3384-.6565,.6177-1.1117,.8389-.4549,.2207-.9512,.3316-1.4884,.3316-.5289,0-.9969-.1192-1.4042-.3579-.4075-.2383-.7239-.5762-.9491-1.0138-.2256-.4375-.3382-.9469-.3382-1.528,0-.2681,.0258-.5499,.0781-.8448,.1292-.7282,.3877-1.3736,.7735-1.9372Zm4.934,1.4689c0-.5113-.1497-.9097-.4485-1.1959-.2991-.2862-.6741-.4292-1.1246-.4292-.3382,0-.6653,.0825-.9818,.2471-.3164,.1651-.5914,.4053-.8255,.7217-.2339,.3164-.3948,.6906-.4681,1.1246-.0277,.1643-.0391,.3208-.0391,.4678,0,.5201,.1475,.9298,.4422,1.2286,.2945,.2993,.6673,.4488,1.118,.4488,.3382,0,.6673-.0845,.9881-.2534,.3206-.169,.5958-.4141,.8255-.7349,.2295-.3203,.3836-.6973,.4617-1.131,.0344-.2251,.052-.3902,.052-.4942Z" style="fill:#fff;"/><path d="M92.3811,100.4188c-.429-.1777-.7672-.4248-1.014-.7413-.2471-.3159-.3706-.6778-.3706-1.0855,0-.0606,.0085-.1602,.0261-.2989h1.768c-.0259,.3032,.0652,.5484,.2732,.7344,.208,.1865,.5025,.2793,.8841,.2793,.3465,0,.6348-.0625,.8646-.1885,.2295-.1255,.3445-.3096,.3445-.5523,0-.2168-.1065-.3902-.3186-.5201-.2124-.1299-.5484-.2774-1.0077-.4419-.4595-.1646-.8406-.3252-1.1441-.481-.3035-.1563-.5635-.3726-.7798-.6504-.2168-.2769-.3252-.628-.3252-1.0528s.1235-.8018,.3706-1.131c.2471-.3296,.5916-.585,1.0335-.7672,.4422-.1821,.9491-.273,1.5211-.273,.5462,0,1.0272,.0908,1.4432,.273s.7388,.4356,.9686,.7603c.2295,.3252,.3445,.6959,.3445,1.1119,0,.104-.0046,.1817-.0129,.2339h-1.6903c.0261-.3032-.0608-.5459-.26-.7281-.1995-.1821-.4898-.273-.8709-.273-.312,0-.5679,.0674-.7672,.2017-.1995,.1343-.2991,.314-.2991,.5391,0,.2256,.1126,.4097,.3382,.5528,.2251,.1431,.5721,.3013,1.0401,.4746,.4681,.1817,.8428,.3487,1.1246,.5005,.2815,.1514,.5264,.3594,.7344,.6241,.208,.2642,.312,.5958,.312,.9942,0,.4424-.1345,.8282-.4031,1.1573-.2686,.3296-.637,.5806-1.1051,.754s-.9967,.2603-1.5861,.2603c-.5289,0-1.0077-.0894-1.4366-.2666Z" style="fill:#fff;"/><path d="M106.1557,93.3655l-1.274,7.2027h-1.8202l.156-.9102c-.2774,.312-.6197,.5572-1.0269,.7349-.4075,.1773-.8367,.2661-1.2872,.2661-.7454,0-1.3348-.2012-1.7682-.6045-.4334-.4029-.65-.9771-.65-1.7223,0-.2774,.0215-.5245,.0649-.7413l.741-4.2254h1.8202l-.702,3.9657c-.0261,.1558-.0391,.3076-.0391,.4546,0,.4248,.117,.752,.3511,.982,.2339,.2295,.5633,.3443,.9879,.3443,.4942,0,.9144-.1538,1.2611-.4615s.5677-.7476,.6631-1.3194l.7022-3.9657h1.82Z" style="fill:#fff;"/><path d="M109.1979,98.3449c-.0085,.0523-.0129,.1216-.0129,.208,0,.1738,.0498,.2969,.1494,.3706s.2666,.1104,.5005,.1104h.8582l-.273,1.5343h-1.1571c-1.3002,0-1.9504-.5415-1.9504-1.6251,0-.208,.0173-.4117,.052-.6109l.6111-3.4715h-.858l.26-1.4952h.8709l.312-1.7809h1.8332l-.312,1.7809h1.5993l-.26,1.4952h-1.6122l-.6111,3.4842Z" style="fill:#fff;"/><path d="M112.6755,95.0038c.3855-.5635,.8558-.9967,1.4105-1.2999,.5547-.3037,1.1397-.4551,1.7553-.4551,.5372,0,.9901,.1084,1.3585,.3247,.3684,.2168,.6392,.4898,.8126,.8194l.1821-1.0274h1.8332l-1.2743,7.2027h-1.8332l.1951-1.0533c-.2859,.3384-.6565,.6177-1.1117,.8389-.4549,.2207-.9512,.3316-1.4884,.3316-.5289,0-.9969-.1192-1.4042-.3579-.4075-.2383-.7239-.5762-.9491-1.0138-.2256-.4375-.3382-.9469-.3382-1.528,0-.2681,.0258-.5499,.0781-.8448,.1292-.7282,.3877-1.3736,.7735-1.9372Zm4.934,1.4689c0-.5113-.1497-.9097-.4485-1.1959-.2991-.2862-.6741-.4292-1.1246-.4292-.3382,0-.6653,.0825-.9818,.2471-.3164,.1651-.5914,.4053-.8255,.7217-.2339,.3164-.3948,.6906-.4681,1.1246-.0277,.1643-.0391,.3208-.0391,.4678,0,.5201,.1475,.9298,.4422,1.2286,.2945,.2993,.6673,.4488,1.118,.4488,.3382,0,.6673-.0845,.9881-.2534,.3206-.169,.5958-.4141,.8255-.7349,.2295-.3203,.3836-.6973,.4617-1.131,.0344-.2251,.052-.3902,.052-.4942Z" style="fill:#fff;"/><path d="M120.6385,100.4125c-.1734-.1646-.26-.3726-.26-.6241,0-.3467,.1321-.6436,.3965-.8907s.5743-.3706,.9298-.3706c.2859,0,.5135,.0801,.6824,.2407,.169,.1602,.2534,.3701,.2534,.6304,0,.3467-.1299,.6436-.3899,.8907-.26,.2466-.5677,.3701-.9232,.3701-.2859,0-.5157-.0825-.689-.2466Z" style="fill:#fff;"/></g></g></g></svg>