<?xml version="1.0" encoding="UTF-8"?><svg id="Layer_2" xmlns="http://www.w3.org/2000/svg" viewBox="0 0 250.41 70.73"><defs><style>.cls-1{fill:#fff;}</style></defs><g id="main"><g><path class="cls-1" d="M202.42,35.7h38.91l9.07-14.5h-13.61c-16.18,0-28.48,3.36-34.37,14.5Z"/><path class="cls-1" d="M153.69,35.7h40.75l9.07-14.5h-15.44c-16.18,0-28.48,3.36-34.38,14.5Z"/><path class="cls-1" d="M168.35,52.28l-2.24,3.9h-24.11l-9.04,14.47h23.55c17.35,0,25.72-4.8,31.67-16.18,1.14-2.2,5.63-14.36-9.17-14.36h-27.67c-2.84,5.39-1.02,12.17,17.01,12.17Z"/><path class="cls-1" d="M217.08,52.28l-2.24,3.9h-20.83l-9.04,14.47h20.26c17.34,0,25.72-4.8,31.67-16.18,1.14-2.2,5.63-14.36-9.18-14.36h-27.65c-2.84,5.39-1.02,12.17,17.01,12.17Z"/><path class="cls-1" d="M117.64,35.7h29.7l9.07-14.5h-4.39c-16.18,0-28.48,3.36-34.38,14.5Z"/><path class="cls-1" d="M74.22,0c-19.84,0-31.84,3.52-40.17,16.63h58.08L102.6,0h-28.38Z"/><polygon class="cls-1" points="136.22 40.12 115.01 40.12 95.93 70.73 116.88 70.73 136.22 40.12"/><path class="cls-1" d="M97.83,56.69l11.42-18.02c6.13-9.84-.7-17.46-10.73-17.46H31.44L0,70.65H24.07l22.2-34.92h44.2l-13.08,20.57h-11.31l10.33-16.18h-20.54l-8.32,13.1c-6.13,9.84,.71,17.48,10.73,17.48h9.14c16.18,0,24.56-4.22,30.44-14.01Z"/></g></g></svg>