<!-- Generator: Adobe Illustrator 24.1.0, SVG Export Plug-In  -->
<svg version="1.1" xmlns="http://www.w3.org/2000/svg" xmlns:xlink="http://www.w3.org/1999/xlink" x="0px" y="0px" width="163.9px"
	 height="163.9px" viewBox="0 0 163.9 163.9" style="enable-background:new 0 0 163.9 163.9;" xml:space="preserve">
<style type="text/css">
	.st0{fill:#FFED00;}
</style>
<defs>
</defs>
<g id="Layer_2_2_">
	<g id="Layer_1-2_1_">
		<path class="st0" d="M86.3,2.3L86.3,2.3c1.7-2.4,5-3,7.4-1.3c0.8,0.6,1.5,1.4,1.9,2.3l0,0c1.1,2.7,4.1,4.1,6.8,3
			c0.6-0.2,1.2-0.6,1.6-1l0,0c2.2-2,5.5-1.8,7.4,0.4c0.7,0.8,1.1,1.7,1.3,2.7l0,0c0.5,2.9,3.2,4.8,6.1,4.3c0.6-0.1,1.1-0.3,1.7-0.6
			l0,0c2.5-1.4,5.7-0.5,7.2,2c0.5,0.9,0.8,2,0.7,3l0,0c-0.2,2.9,2,5.4,4.9,5.6c0.6,0,1.2,0,1.8-0.2l0,0c2.8-0.8,5.7,0.8,6.6,3.6
			c0.3,1,0.3,2,0,3l0,0c-0.8,2.8,0.8,5.7,3.6,6.5c0.6,0.2,1.2,0.2,1.7,0.2l0,0c2.9-0.2,5.4,1.9,5.7,4.8c0.1,1-0.1,2.1-0.7,3l0,0
			c-1.4,2.5-0.5,5.8,2,7.2c0.5,0.3,1.1,0.5,1.7,0.6l0,0c2.9,0.5,4.8,3.2,4.3,6.1c-0.2,1-0.6,1.9-1.3,2.6l0,0c-2,2.2-1.8,5.5,0.4,7.4
			c0.5,0.4,1,0.8,1.6,1l0,0c2.7,1.1,4,4.2,2.9,6.9c-0.4,0.9-1,1.7-1.9,2.3l0,0c-2.4,1.7-3,4.9-1.3,7.3c0.4,0.5,0.8,1,1.3,1.3l0,0
			c2.4,1.7,3,5,1.3,7.4c-0.6,0.8-1.4,1.5-2.3,1.9l0,0c-2.7,1.1-4,4.2-2.9,6.9c0.2,0.6,0.6,1.1,1,1.6l0,0c2,2.2,1.8,5.5-0.4,7.4
			c-0.8,0.7-1.7,1.1-2.7,1.3l0,0c-2.9,0.5-4.8,3.2-4.4,6c0.1,0.6,0.3,1.2,0.6,1.7l0,0c1.4,2.5,0.5,5.7-2,7.2
			c-0.9,0.5-1.9,0.7-2.9,0.7l0,0c-2.9-0.2-5.4,2-5.6,4.9c0,0.6,0,1.2,0.2,1.8l0,0c0.8,2.8-0.8,5.7-3.6,6.6c-1,0.3-2,0.3-3,0l0,0
			c-2.8-0.8-5.7,0.8-6.6,3.6c-0.2,0.6-0.2,1.2-0.2,1.8l0,0c0.2,2.9-2,5.4-4.9,5.6c-1,0.1-2-0.2-2.9-0.7l0,0c-2.5-1.4-5.8-0.5-7.2,2
			c-0.3,0.5-0.5,1.1-0.6,1.7l0,0c-0.5,2.9-3.2,4.8-6,4.4c-1-0.2-2-0.6-2.7-1.3l0,0c-2.2-2-5.5-1.8-7.4,0.4c-0.4,0.5-0.8,1-1,1.6l0,0
			c-1.1,2.7-4.2,4-6.9,2.9c-0.9-0.4-1.7-1-2.3-1.9l0,0c-1.7-2.4-4.9-3-7.3-1.3c-0.5,0.4-1,0.8-1.3,1.3l0,0c-1.7,2.4-5,3-7.4,1.3
			c-0.8-0.6-1.5-1.4-1.9-2.3l0,0c-1.1-2.7-4.2-4-6.9-2.9c-0.6,0.2-1.1,0.6-1.6,1l0,0c-2.2,2-5.5,1.8-7.4-0.4
			c-0.7-0.8-1.1-1.7-1.3-2.7l0,0c-0.5-2.9-3.2-4.8-6.1-4.3c-0.6,0.1-1.1,0.3-1.7,0.6l0,0c-2.5,1.4-5.7,0.5-7.2-2
			c-0.5-0.9-0.8-2-0.7-3l0,0c0.2-2.9-2-5.4-4.9-5.6c-0.6,0-1.2,0-1.8,0.2l0,0c-2.8,0.8-5.7-0.8-6.6-3.6c-0.3-1-0.3-2,0-3l0,0
			c0.8-2.8-0.8-5.7-3.6-6.5c-0.6-0.2-1.2-0.2-1.7-0.2l0,0c-2.9,0.2-5.4-1.9-5.7-4.8c-0.1-1,0.1-2.1,0.7-3l0,0c1.4-2.5,0.5-5.8-2-7.2
			c-0.5-0.3-1.1-0.5-1.7-0.6l0,0c-2.9-0.5-4.8-3.2-4.3-6.1c0.2-1,0.6-1.9,1.3-2.6l0,0c2-2.2,1.8-5.5-0.4-7.4c-0.5-0.4-1-0.8-1.6-1
			l0,0c-2.7-1.1-4-4.2-2.9-6.9c0.4-0.9,1-1.7,1.9-2.3l0,0c2.4-1.7,3-4.9,1.3-7.3c-0.4-0.5-0.8-1-1.3-1.3l0,0c-2.4-1.7-3-5-1.3-7.4
			c0.6-0.8,1.4-1.5,2.3-1.9l0,0c2.7-1.1,4.1-4.1,3-6.8C6,61.1,5.6,60.5,5.2,60l0,0c-2-2.2-1.8-5.5,0.4-7.4c0.8-0.7,1.7-1.1,2.7-1.3
			l0,0c2.9-0.5,4.8-3.2,4.3-6.1c-0.1-0.6-0.3-1.1-0.6-1.7l0,0c-1.4-2.5-0.5-5.7,2-7.2c0.9-0.5,2-0.8,3-0.7l0,0
			c2.9,0.2,5.4-2,5.6-4.9c0-0.6,0-1.2-0.2-1.8l0,0c-0.8-2.8,0.8-5.7,3.6-6.6c1-0.3,2-0.3,3,0l0,0c2.8,0.8,5.7-0.8,6.5-3.6
			c0.2-0.6,0.2-1.2,0.2-1.7l0,0c-0.2-2.9,1.9-5.4,4.8-5.7c1-0.1,2.1,0.1,3,0.7l0,0c2.5,1.4,5.8,0.5,7.2-2c0.3-0.5,0.5-1.1,0.6-1.7
			l0,0c0.5-2.9,3.2-4.8,6.1-4.3c1,0.2,1.9,0.6,2.6,1.3l0,0c2.2,2,5.5,1.8,7.4-0.4c0.4-0.5,0.8-1,1-1.6l0,0c1.1-2.7,4.2-4,6.9-2.9
			c0.9,0.4,1.7,1,2.3,1.9l0,0c1.7,2.4,4.9,3,7.3,1.3C85.5,3.3,85.9,2.8,86.3,2.3z"/>
	</g>
</g>
</svg>
