<?xml version="1.0" encoding="UTF-8"?><svg id="Layer_2" xmlns="http://www.w3.org/2000/svg" viewBox="0 0 480.32 190.96"><defs><style>.cls-1{fill:#fff;}</style></defs><g id="bg"><g><polygon class="cls-1" points="42.75 44 31 44 17.5 24.89 13.14 29.37 13.14 44 4.15 44 4.15 .27 13.14 .27 13.14 18.28 30.03 .27 41.83 .27 23.91 18.28 42.75 44"/><path class="cls-1" d="M48.42,15.16c2.22-2.86,6.07-4.27,11.51-4.27,3.54,0,6.69,.7,9.43,2.11,2.75,1.41,4.12,4.06,4.12,7.95,0,0,.02,17.11,.06,18.57,.06,1.11,.23,1.86,.5,2.25,.28,.4,.69,.72,1.25,.98v1.25h-9.2c-.26-.65-.44-1.27-.53-1.84-.1-.57-.18-1.23-.24-1.96-1.17,1.27-2.51,2.34-4.03,3.23-1.82,1.05-3.88,1.57-6.17,1.57-2.93,0-5.35-.84-7.25-2.51-1.91-1.67-2.86-4.04-2.86-7.11,0-3.98,1.53-6.86,4.6-8.63,1.68-.97,4.15-1.66,7.42-2.08l2.88-.36c1.56-.2,2.68-.45,3.35-.74,1.2-.52,1.81-1.32,1.81-2.4,0-1.33-.46-2.24-1.38-2.75-.92-.5-2.27-.76-4.05-.76-2,0-3.41,.49-4.24,1.48-.59,.73-.99,1.72-1.19,2.97h-8.16c.18-2.83,.96-5.16,2.37-6.97Zm6.29,22.73c.79,.65,1.76,.98,2.91,.98,1.82,0,3.5-.53,5.03-1.6,1.53-1.07,2.33-3.02,2.39-5.84v-3.14c-.53,.34-1.07,.61-1.62,.82-.54,.21-1.29,.4-2.24,.58l-1.9,.36c-1.78,.32-3.06,.7-3.83,1.16-1.31,.77-1.96,1.97-1.96,3.59,0,1.44,.41,2.48,1.22,3.12Z"/><path class="cls-1" d="M95.8,37.98v6.32l-4.01,.15c-4,.14-6.72-.56-8.19-2.08-.94-.97-1.42-2.46-1.42-4.48V17.98h-4.51v-6.02h4.51V2.94h8.37V11.96h5.25v6.02h-5.25v17.09c0,1.33,.17,2.15,.5,2.48,.34,.33,1.36,.49,3.09,.49,.26,0,.53,0,.82-.01,.29,0,.57-.02,.85-.04Z"/><path class="cls-1" d="M123.51,13.14c2.53,1.62,3.99,4.41,4.36,8.37h-8.46c-.12-1.09-.42-1.95-.92-2.58-.92-1.16-2.51-1.72-4.75-1.72-1.84,0-3.15,.29-3.93,.86-.78,.57-1.17,1.25-1.17,2.02,0,.97,.42,1.67,1.25,2.11,.83,.46,3.77,1.24,8.81,2.34,3.36,.79,5.88,1.99,7.57,3.59,1.66,1.62,2.49,3.65,2.49,6.08,0,3.2-1.19,5.82-3.58,7.85-2.38,2.03-6.07,3.04-11.05,3.04s-8.84-1.07-11.26-3.22c-2.42-2.15-3.63-4.88-3.63-8.2h8.57c.18,1.5,.57,2.57,1.16,3.2,1.05,1.13,2.99,1.69,5.81,1.69,1.66,0,2.98-.25,3.96-.74s1.47-1.24,1.47-2.23-.4-1.67-1.19-2.17c-.79-.49-3.73-1.34-8.81-2.55-3.66-.91-6.24-2.05-7.74-3.41-1.5-1.35-2.25-3.28-2.25-5.82,0-2.99,1.17-5.55,3.52-7.7s5.64-3.22,9.89-3.22,7.33,.8,9.88,2.4Z"/><path class="cls-1" d="M162.71,34.51c-.22,1.92-1.23,3.86-3,5.84-2.79,3.13-6.65,4.72-11.63,4.72-4.11,0-7.74-1.33-10.89-3.98s-4.72-6.96-4.72-12.94c0-5.6,1.42-9.89,4.26-12.88s6.52-4.48,11.05-4.48c2.69,0,5.11,.5,7.27,1.51s3.94,2.6,5.34,4.78c1.27,1.92,2.09,4.14,2.46,6.68,.22,1.48,.31,3.62,.27,6.41h-22.13c.12,3.24,1.14,5.51,3.06,6.82,1.17,.81,2.57,1.22,4.21,1.22,1.74,0,3.15-.5,4.24-1.48,.59-.54,1.12-1.28,1.57-2.23h8.63Zm-8.37-9.91c-.14-2.24-.82-3.93-2.03-5.09-1.22-1.16-2.73-1.74-4.52-1.74-1.96,0-3.48,.61-4.55,1.84s-1.76,2.89-2.03,4.98h13.14Z"/><path class="cls-1" d="M183.62,37.98v6.32l-4.01,.15c-4,.14-6.72-.56-8.19-2.08-.94-.97-1.42-2.46-1.42-4.48V17.98h-4.51v-6.02h4.51V2.94h8.37V11.96h5.25v6.02h-5.25v17.09c0,1.33,.17,2.15,.5,2.48,.34,.33,1.36,.49,3.09,.49,.26,0,.53,0,.82-.01,.29,0,.57-.02,.85-.04Z"/><path class="cls-1" d="M190.27,15.16c2.22-2.86,6.07-4.27,11.51-4.27,3.54,0,6.69,.7,9.43,2.11,2.75,1.41,4.12,4.06,4.12,7.95,0,0,.02,17.11,.06,18.57,.06,1.11,.23,1.86,.5,2.25,.28,.4,.69,.72,1.25,.98v1.25h-9.2c-.26-.65-.44-1.27-.53-1.84-.1-.57-.18-1.23-.24-1.96-1.17,1.27-2.51,2.34-4.03,3.23-1.82,1.05-3.88,1.57-6.17,1.57-2.93,0-5.35-.84-7.25-2.51-1.91-1.67-2.86-4.04-2.86-7.11,0-3.98,1.53-6.86,4.6-8.63,1.68-.97,4.15-1.66,7.42-2.08l2.88-.36c1.56-.2,2.68-.45,3.35-.74,1.2-.52,1.81-1.32,1.81-2.4,0-1.33-.46-2.24-1.38-2.75-.92-.5-2.27-.76-4.05-.76-2,0-3.41,.49-4.24,1.48-.59,.73-.99,1.72-1.19,2.97h-8.16c.18-2.83,.96-5.16,2.37-6.97Zm6.29,22.73c.79,.65,1.76,.98,2.91,.98,1.82,0,3.5-.53,5.03-1.6,1.53-1.07,2.33-3.02,2.39-5.84v-3.14c-.53,.34-1.07,.61-1.62,.82-.54,.21-1.29,.4-2.24,.58l-1.9,.36c-1.78,.32-3.06,.7-3.83,1.16-1.31,.77-1.96,1.97-1.96,3.59,0,1.44,.41,2.48,1.22,3.12Z"/><path class="cls-1" d="M231,47.03c-.36,1.46-1.02,2.73-1.99,3.8-1.05,1.15-2.28,2.01-3.69,2.6-1.41,.58-2.39,.88-2.92,.88v-3.26c1.7-.47,2.95-1.27,3.75-2.37,.8-1.11,1.26-2.66,1.38-4.66h-5.13v-8.84h9.14v7.66c0,1.34-.18,2.75-.53,4.21Z"/><path class="cls-1" d="M274.77,20.56c-.71-1.56-2.11-2.34-4.18-2.34-2.41,0-4.05,.77-4.87,2.34-.46,.89-.68,2.21-.68,3.98v19.46h-8.57V11.72h8.22v4.72c1.05-1.68,2.04-2.88,2.97-3.59,1.64-1.26,3.77-1.9,6.38-1.9,2.47,0,4.47,.54,5.99,1.63,1.23,1.01,2.16,2.3,2.79,3.89,1.11-1.9,2.48-3.29,4.12-4.18,1.74-.89,3.68-1.33,5.81-1.33,1.42,0,2.83,.28,4.21,.83,1.38,.55,2.64,1.52,3.77,2.91,.91,1.13,1.52,2.51,1.84,4.15,.2,1.09,.27,2.68,.27,4.78v20.38h-8.69V23.41c0-1.23-.2-2.23-.59-3.03-.75-1.5-2.14-2.25-4.15-2.25-2.33,0-3.96,.96-4.84,2.91-.46,1.03-.68,2.26-.68,3.71v19.25h-8.52V24.75c0-1.92-.2-3.31-.59-4.18Z"/><path class="cls-1" d="M319.33,0V7.8h-8.57V0h8.57Zm0,11.66V44h-8.57V11.66h8.57Z"/><path class="cls-1" d="M349.8,13.14c2.53,1.62,3.99,4.41,4.36,8.37h-8.46c-.12-1.09-.42-1.95-.92-2.58-.92-1.16-2.51-1.72-4.75-1.72-1.84,0-3.15,.29-3.93,.86-.78,.57-1.17,1.25-1.17,2.02,0,.97,.42,1.67,1.25,2.11,.83,.46,3.77,1.24,8.81,2.34,3.36,.79,5.88,1.99,7.57,3.59,1.66,1.62,2.49,3.65,2.49,6.08,0,3.2-1.19,5.82-3.58,7.85-2.38,2.03-6.07,3.04-11.05,3.04s-8.84-1.07-11.26-3.22c-2.42-2.15-3.63-4.88-3.63-8.2h8.57c.18,1.5,.57,2.57,1.16,3.2,1.05,1.13,2.99,1.69,5.81,1.69,1.66,0,2.98-.25,3.96-.74s1.47-1.24,1.47-2.23-.4-1.67-1.19-2.17c-.79-.49-3.73-1.34-8.81-2.55-3.66-.91-6.24-2.05-7.74-3.41-1.5-1.35-2.25-3.28-2.25-5.82,0-2.99,1.17-5.55,3.52-7.7s5.64-3.22,9.89-3.22,7.33,.8,9.88,2.4Z"/><path class="cls-1" d="M18.13,110.89v6.32l-4.01,.15c-4,.14-6.72-.56-8.19-2.08-.94-.97-1.42-2.46-1.42-4.48v-19.91H0v-6.02H4.51v-9.02H12.88v9.02h5.25v6.02h-5.25v17.09c0,1.33,.17,2.15,.5,2.48,.34,.33,1.36,.49,3.09,.49,.26,0,.53,0,.82-.01,.29,0,.57-.02,.85-.04Z"/><path class="cls-1" d="M44.3,112.35c-.08,.1-.28,.4-.59,.89s-.7,.93-1.13,1.3c-1.34,1.17-2.61,2-3.84,2.43-1.24,.43-2.69,.65-4.35,.65-4.79,0-8-1.73-9.67-5.16-.92-1.9-1.39-4.7-1.39-8.4v-19.49h8.66v19.49c0,1.84,.22,3.22,.65,4.15,.77,1.64,2.28,2.46,4.54,2.46,2.89,0,4.89-1.16,5.93-3.5,.56-1.26,.83-2.94,.83-5.01v-17.59h8.57v32.34h-8.22v-4.57Z"/><path class="cls-1" d="M75.89,90.84c-2.87,0-4.84,1.21-5.9,3.65-.56,1.28-.83,2.93-.83,4.92v17.5h-8.43v-32.28h8.16v4.72c1.09-1.66,2.12-2.86,3.09-3.59,1.74-1.31,3.95-1.96,6.62-1.96,3.34,0,6.08,.88,8.2,2.63,2.13,1.75,3.19,4.65,3.19,8.71v21.78h-8.66v-19.67c0-1.7-.23-3.01-.68-3.92-.83-1.66-2.41-2.49-4.75-2.49Z"/><path class="cls-1" d="M113.01,90.84c-2.87,0-4.84,1.21-5.9,3.65-.56,1.28-.83,2.93-.83,4.92v17.5h-8.43v-32.28h8.16v4.72c1.09-1.66,2.12-2.86,3.09-3.59,1.74-1.31,3.95-1.96,6.62-1.96,3.34,0,6.08,.88,8.2,2.63,2.13,1.75,3.19,4.65,3.19,8.71v21.78h-8.66v-19.67c0-1.7-.23-3.01-.68-3.92-.83-1.66-2.41-2.49-4.75-2.49Z"/><path class="cls-1" d="M162.59,107.42c-.22,1.92-1.23,3.86-3,5.84-2.79,3.13-6.65,4.72-11.63,4.72-4.11,0-7.74-1.33-10.89-3.98s-4.72-6.96-4.72-12.94c0-5.6,1.42-9.89,4.26-12.88s6.52-4.48,11.05-4.48c2.69,0,5.11,.5,7.27,1.51s3.94,2.6,5.34,4.78c1.27,1.92,2.09,4.14,2.46,6.68,.22,1.48,.31,3.62,.27,6.41h-22.13c.12,3.24,1.14,5.51,3.06,6.82,1.17,.81,2.57,1.22,4.21,1.22,1.74,0,3.15-.5,4.24-1.48,.59-.54,1.12-1.28,1.57-2.23h8.63Zm-8.37-9.91c-.14-2.24-.82-3.93-2.03-5.09-1.22-1.16-2.73-1.74-4.52-1.74-1.96,0-3.48,.61-4.55,1.84s-1.76,2.89-2.03,4.98h13.14Z"/><path class="cls-1" d="M212.55,88.67c2.73,3.42,4.09,7.47,4.09,12.13s-1.36,8.81-4.09,12.18c-2.73,3.37-6.87,5.06-12.43,5.06s-9.7-1.69-12.43-5.06c-2.73-3.37-4.09-7.43-4.09-12.18s1.36-8.71,4.09-12.13c2.73-3.42,6.87-5.13,12.43-5.13s9.7,1.71,12.43,5.13Zm-12.46,2.02c-2.47,0-4.38,.88-5.71,2.63-1.34,1.75-2,4.25-2,7.49s.67,5.75,2,7.51c1.33,1.76,3.24,2.64,5.71,2.64s4.37-.88,5.7-2.64c1.32-1.76,1.99-4.26,1.99-7.51s-.66-5.74-1.99-7.49c-1.33-1.75-3.22-2.63-5.7-2.63Z"/><rect class="cls-1" x="222.88" y="73.18" width="8.46" height="43.73"/><path class="cls-1" d="M267.26,107.42c-.22,1.92-1.23,3.86-3,5.84-2.79,3.13-6.65,4.72-11.63,4.72-4.11,0-7.74-1.33-10.89-3.98s-4.72-6.96-4.72-12.94c0-5.6,1.42-9.89,4.26-12.88s6.52-4.48,11.05-4.48c2.69,0,5.11,.5,7.27,1.51s3.94,2.6,5.34,4.78c1.27,1.92,2.09,4.14,2.46,6.68,.22,1.48,.31,3.62,.27,6.41h-22.13c.12,3.24,1.14,5.51,3.06,6.82,1.17,.81,2.57,1.22,4.21,1.22,1.74,0,3.15-.5,4.24-1.48,.59-.54,1.12-1.28,1.57-2.23h8.63Zm-8.37-9.91c-.14-2.24-.82-3.93-2.03-5.09-1.22-1.16-2.73-1.74-4.52-1.74-1.96,0-3.48,.61-4.55,1.84s-1.76,2.89-2.03,4.98h13.14Z"/><polygon class="cls-1" points="303.04 116.92 292.84 116.92 285.09 103.09 281.59 106.74 281.59 116.92 273.28 116.92 273.28 73.33 281.59 73.33 281.59 96.89 292.12 84.72 302.6 84.72 291.29 97.1 303.04 116.92"/><path class="cls-1" d="M329.45,86.06c2.53,1.62,3.99,4.41,4.36,8.37h-8.46c-.12-1.09-.42-1.95-.92-2.58-.92-1.16-2.51-1.72-4.75-1.72-1.84,0-3.15,.29-3.93,.86-.78,.57-1.17,1.25-1.17,2.02,0,.97,.42,1.67,1.25,2.11,.83,.46,3.77,1.24,8.81,2.34,3.36,.79,5.88,1.99,7.57,3.59,1.66,1.62,2.49,3.65,2.49,6.08,0,3.2-1.19,5.82-3.58,7.85-2.38,2.03-6.07,3.04-11.05,3.04s-8.84-1.07-11.26-3.22c-2.42-2.15-3.63-4.88-3.63-8.2h8.57c.18,1.5,.57,2.57,1.16,3.2,1.05,1.13,2.99,1.69,5.81,1.69,1.66,0,2.98-.25,3.96-.74s1.47-1.24,1.47-2.23-.4-1.67-1.19-2.17c-.79-.49-3.73-1.34-8.81-2.55-3.66-.91-6.24-2.05-7.74-3.41-1.5-1.35-2.25-3.28-2.25-5.82,0-2.99,1.17-5.55,3.52-7.7s5.64-3.22,9.89-3.22,7.33,.8,9.88,2.4Z"/><path class="cls-1" d="M387.27,73.24v43.67h-8.22v-4.48c-1.21,1.92-2.58,3.31-4.12,4.18-1.54,.87-3.46,1.31-5.76,1.31-3.78,0-6.96-1.53-9.54-4.58-2.58-3.06-3.87-6.98-3.87-11.76,0-5.52,1.27-9.86,3.81-13.03,2.54-3.16,5.94-4.75,10.19-4.75,1.96,0,3.7,.43,5.22,1.29,1.52,.86,2.76,2.05,3.71,3.58v-15.43h8.57Zm-22.79,27.71c0,2.99,.59,5.37,1.78,7.15,1.17,1.8,2.95,2.7,5.34,2.7s4.21-.89,5.46-2.67,1.87-4.08,1.87-6.91c0-3.96-.99-6.79-3-8.49-1.22-1.03-2.65-1.54-4.27-1.54-2.47,0-4.29,.93-5.44,2.8s-1.74,4.19-1.74,6.96Z"/><path class="cls-1" d="M403.65,72.92v7.8h-8.57v-7.8h8.57Zm0,11.66v32.34h-8.57v-32.34h8.57Z"/><path class="cls-1" d="M420.98,122.58c.92,.76,2.44,1.16,4.6,1.16,3.05,0,5.07-1.02,6.11-3.06,.67-1.31,1.01-3.5,1.01-6.59v-2.08c-.81,1.38-1.69,2.42-2.61,3.12-1.69,1.28-3.87,1.93-6.56,1.93-4.15,0-7.47-1.46-9.95-4.38-2.48-2.92-3.72-6.87-3.72-11.85s1.2-8.85,3.59-12.12c2.39-3.27,5.79-4.91,10.18-4.91,1.62,0,3.04,.25,4.24,.74,2.06,.85,3.72,2.41,4.98,4.69v-4.66h8.22v30.68c0,4.17-.7,7.32-2.11,9.43-2.41,3.64-7.04,5.46-13.89,5.46-4.13,0-7.51-.81-10.12-2.43-2.61-1.62-4.06-4.04-4.33-7.27h9.2c.24,.99,.63,1.7,1.16,2.14Zm-1.42-16.7c1.16,2.72,3.2,4.09,6.17,4.09,1.98,0,3.65-.75,5.01-2.24s2.05-3.87,2.05-7.14c0-3.07-.65-5.4-1.94-7-1.3-1.6-3.03-2.4-5.21-2.4-2.97,0-5.02,1.39-6.14,4.18-.6,1.48-.89,3.31-.89,5.49,0,1.88,.32,3.55,.95,5.01Z"/><path class="cls-1" d="M457.65,72.92v7.8h-8.57v-7.8h8.57Zm0,11.66v32.34h-8.57v-32.34h8.57Z"/><rect class="cls-1" x="463.29" y="95.97" width="17.03" height="8.01"/><rect class="cls-1" x="3.5" y="146.1" width="8.46" height="43.73"/><path class="cls-1" d="M47.89,180.34c-.22,1.92-1.23,3.86-3,5.84-2.79,3.13-6.65,4.72-11.63,4.72-4.11,0-7.74-1.33-10.89-3.98s-4.72-6.96-4.72-12.94c0-5.6,1.42-9.89,4.26-12.88s6.52-4.48,11.05-4.48c2.69,0,5.11,.5,7.27,1.51s3.94,2.6,5.34,4.78c1.27,1.92,2.09,4.14,2.46,6.68,.22,1.48,.31,3.62,.27,6.41H26.17c.12,3.24,1.14,5.51,3.06,6.82,1.17,.81,2.57,1.22,4.21,1.22,1.74,0,3.15-.5,4.24-1.48,.59-.54,1.12-1.28,1.57-2.23h8.63Zm-8.37-9.91c-.14-2.24-.82-3.93-2.03-5.09-1.22-1.16-2.73-1.74-4.52-1.74-1.96,0-3.48,.61-4.55,1.84s-1.76,2.89-2.03,4.98h13.14Z"/><path class="cls-1" d="M83.22,170.84v18.99h-8.63v-19.67c0-1.74-.3-3.14-.89-4.21-.77-1.5-2.24-2.25-4.39-2.25s-3.93,.75-5.09,2.24-1.74,3.62-1.74,6.39v17.5h-8.43v-43.58h8.43v15.46c1.23-1.88,2.65-3.19,4.26-3.93,1.61-.74,3.31-1.11,5.09-1.11,2,0,3.81,.35,5.44,1.04s2.97,1.75,4.02,3.17c.89,1.21,1.43,2.45,1.63,3.72,.2,1.28,.3,3.36,.3,6.25Z"/><path class="cls-1" d="M109.27,166.39c-.71-1.56-2.11-2.34-4.18-2.34-2.41,0-4.05,.77-4.87,2.34-.46,.89-.68,2.21-.68,3.98v19.46h-8.57v-32.28h8.22v4.72c1.05-1.68,2.04-2.88,2.97-3.59,1.64-1.26,3.77-1.9,6.38-1.9,2.47,0,4.47,.54,5.99,1.63,1.23,1.01,2.16,2.3,2.79,3.89,1.11-1.9,2.48-3.29,4.12-4.18,1.74-.89,3.68-1.33,5.81-1.33,1.42,0,2.83,.28,4.21,.83,1.38,.55,2.64,1.52,3.77,2.91,.91,1.13,1.52,2.51,1.84,4.15,.2,1.09,.27,2.68,.27,4.78v20.38h-8.69v-20.59c0-1.23-.2-2.23-.59-3.03-.75-1.5-2.14-2.25-4.15-2.25-2.33,0-3.96,.96-4.84,2.91-.46,1.03-.68,2.26-.68,3.71v19.25h-8.52v-19.25c0-1.92-.2-3.31-.59-4.18Z"/><path class="cls-1" d="M146.36,160.99c2.22-2.86,6.07-4.27,11.51-4.27,3.54,0,6.69,.7,9.43,2.11,2.75,1.41,4.12,4.06,4.12,7.95,0,0,.02,17.11,.06,18.57,.06,1.11,.23,1.86,.5,2.25,.28,.4,.69,.72,1.25,.98v1.25h-9.2c-.26-.65-.44-1.27-.53-1.84-.1-.57-.18-1.23-.24-1.96-1.17,1.27-2.51,2.34-4.03,3.23-1.82,1.05-3.88,1.57-6.17,1.57-2.93,0-5.35-.84-7.25-2.51-1.91-1.67-2.86-4.04-2.86-7.11,0-3.98,1.53-6.86,4.6-8.63,1.68-.97,4.15-1.66,7.42-2.08l2.88-.36c1.56-.2,2.68-.45,3.35-.74,1.2-.52,1.81-1.32,1.81-2.4,0-1.33-.46-2.24-1.38-2.75-.92-.5-2.27-.76-4.05-.76-2,0-3.41,.49-4.24,1.48-.59,.73-.99,1.72-1.19,2.97h-8.16c.18-2.83,.96-5.16,2.37-6.97Zm6.29,22.73c.79,.65,1.76,.98,2.91,.98,1.82,0,3.5-.53,5.03-1.6,1.53-1.07,2.33-3.02,2.39-5.84v-3.14c-.53,.34-1.07,.61-1.62,.82-.54,.21-1.29,.4-2.24,.58l-1.9,.36c-1.78,.32-3.06,.7-3.83,1.16-1.31,.77-1.96,1.97-1.96,3.59,0,1.44,.41,2.48,1.22,3.12Z"/><path class="cls-1" d="M222.79,161.58c2.73,3.42,4.09,7.47,4.09,12.13s-1.36,8.81-4.09,12.18c-2.73,3.37-6.87,5.06-12.43,5.06s-9.7-1.69-12.43-5.06c-2.73-3.37-4.09-7.43-4.09-12.18s1.36-8.71,4.09-12.13c2.73-3.42,6.87-5.13,12.43-5.13s9.7,1.71,12.43,5.13Zm-12.46,2.02c-2.47,0-4.38,.88-5.71,2.63-1.34,1.75-2,4.25-2,7.49s.67,5.75,2,7.51c1.33,1.76,3.24,2.64,5.71,2.64s4.37-.88,5.7-2.64c1.32-1.76,1.99-4.26,1.99-7.51s-.66-5.74-1.99-7.49c-1.33-1.75-3.22-2.63-5.7-2.63Z"/><path class="cls-1" d="M251.09,166.39c-.71-1.56-2.11-2.34-4.18-2.34-2.41,0-4.05,.77-4.87,2.34-.46,.89-.68,2.21-.68,3.98v19.46h-8.57v-32.28h8.22v4.72c1.05-1.68,2.04-2.88,2.97-3.59,1.64-1.26,3.77-1.9,6.38-1.9,2.47,0,4.47,.54,5.99,1.63,1.23,1.01,2.16,2.3,2.79,3.89,1.11-1.9,2.48-3.29,4.12-4.18,1.74-.89,3.68-1.33,5.81-1.33,1.42,0,2.83,.28,4.21,.83,1.38,.55,2.64,1.52,3.77,2.91,.91,1.13,1.52,2.51,1.84,4.15,.2,1.09,.27,2.68,.27,4.78v20.38h-8.69v-20.59c0-1.23-.2-2.23-.59-3.03-.75-1.5-2.14-2.25-4.15-2.25-2.33,0-3.96,.96-4.84,2.91-.46,1.03-.68,2.26-.68,3.71v19.25h-8.52v-19.25c0-1.92-.2-3.31-.59-4.18Z"/><path class="cls-1" d="M288.18,160.99c2.22-2.86,6.07-4.27,11.51-4.27,3.54,0,6.69,.7,9.43,2.11,2.75,1.41,4.12,4.06,4.12,7.95,0,0,.02,17.11,.06,18.57,.06,1.11,.23,1.86,.5,2.25,.28,.4,.69,.72,1.25,.98v1.25h-9.2c-.26-.65-.44-1.27-.53-1.84-.1-.57-.18-1.23-.24-1.96-1.17,1.27-2.51,2.34-4.03,3.23-1.82,1.05-3.88,1.57-6.17,1.57-2.93,0-5.35-.84-7.25-2.51-1.91-1.67-2.86-4.04-2.86-7.11,0-3.98,1.53-6.86,4.6-8.63,1.68-.97,4.15-1.66,7.42-2.08l2.88-.36c1.56-.2,2.68-.45,3.35-.74,1.2-.52,1.81-1.32,1.81-2.4,0-1.33-.46-2.24-1.38-2.75-.92-.5-2.27-.76-4.05-.76-2,0-3.41,.49-4.24,1.48-.59,.73-.99,1.72-1.19,2.97h-8.16c.18-2.83,.96-5.16,2.37-6.97Zm6.29,22.73c.79,.65,1.76,.98,2.91,.98,1.82,0,3.5-.53,5.03-1.6,1.53-1.07,2.33-3.02,2.39-5.84v-3.14c-.53,.34-1.07,.61-1.62,.82-.54,.21-1.29,.4-2.24,.58l-1.9,.36c-1.78,.32-3.06,.7-3.83,1.16-1.31,.77-1.96,1.97-1.96,3.59,0,1.44,.41,2.48,1.22,3.12Z"/><path class="cls-1" d="M350.19,146.16v43.67h-8.22v-4.48c-1.21,1.92-2.58,3.31-4.12,4.18-1.54,.87-3.46,1.31-5.76,1.31-3.78,0-6.96-1.53-9.54-4.58-2.58-3.06-3.87-6.98-3.87-11.76,0-5.52,1.27-9.86,3.81-13.03,2.54-3.16,5.94-4.75,10.19-4.75,1.96,0,3.7,.43,5.22,1.29,1.52,.86,2.76,2.05,3.71,3.58v-15.43h8.57Zm-22.79,27.71c0,2.99,.59,5.37,1.78,7.15,1.17,1.8,2.95,2.7,5.34,2.7s4.21-.89,5.46-2.67,1.87-4.08,1.87-6.91c0-3.96-.99-6.79-3-8.49-1.22-1.03-2.65-1.54-4.27-1.54-2.47,0-4.29,.93-5.44,2.8s-1.74,4.19-1.74,6.96Z"/><path class="cls-1" d="M359.09,160.99c2.22-2.86,6.07-4.27,11.51-4.27,3.54,0,6.69,.7,9.43,2.11,2.75,1.41,4.12,4.06,4.12,7.95,0,0,.02,17.11,.06,18.57,.06,1.11,.23,1.86,.5,2.25,.28,.4,.69,.72,1.25,.98v1.25h-9.2c-.26-.65-.44-1.27-.53-1.84-.1-.57-.18-1.23-.24-1.96-1.17,1.27-2.51,2.34-4.03,3.23-1.82,1.05-3.88,1.57-6.17,1.57-2.93,0-5.35-.84-7.25-2.51-1.91-1.67-2.86-4.04-2.86-7.11,0-3.98,1.53-6.86,4.6-8.63,1.68-.97,4.15-1.66,7.42-2.08l2.88-.36c1.56-.2,2.68-.45,3.35-.74,1.2-.52,1.81-1.32,1.81-2.4,0-1.33-.46-2.24-1.38-2.75-.92-.5-2.27-.76-4.05-.76-2,0-3.41,.49-4.24,1.48-.59,.73-.99,1.72-1.19,2.97h-8.16c.18-2.83,.96-5.16,2.37-6.97Zm6.29,22.73c.79,.65,1.76,.98,2.91,.98,1.82,0,3.5-.53,5.03-1.6,1.53-1.07,2.33-3.02,2.39-5.84v-3.14c-.53,.34-1.07,.61-1.62,.82-.54,.21-1.29,.4-2.24,.58l-1.9,.36c-1.78,.32-3.06,.7-3.83,1.16-1.31,.77-1.96,1.97-1.96,3.59,0,1.44,.41,2.48,1.22,3.12Z"/><path class="cls-1" d="M403.68,157.34l-2.4,20.41h-4.42l-2.46-20.41v-11.1h9.29v11.1Zm-.24,23.91v8.57h-8.84v-8.57h8.84Z"/></g></g></svg>