<svg xmlns="http://www.w3.org/2000/svg" viewBox="0 0 30 20"><path d="M0,2.5v15C0,18.8807,6.7156,20,15,20s15-1.1193,15-2.5V2.5Z" style="fill:#be1e28"/><ellipse cx="15" cy="2.5" rx="15" ry="2.5" style="fill:#464646"/><path d="M7.4893,13.2575H6.3271v2.3086H5.2842V9.5632h2.11a2.4582,2.4582,0,0,1,1.6045.4658,1.6521,1.6521,0,0,1,.5645,1.35,1.6857,1.6857,0,0,1-.291,1.0088,1.8429,1.8429,0,0,1-.81.625l1.3476,2.5v.0537H8.6934Zm-1.1622-.8418H7.3994a1.19,1.19,0,0,0,.8242-.2656.9267.9267,0,0,0,.2969-.7276.9877.9877,0,0,0-.2744-.746,1.166,1.166,0,0,0-.8184-.2725H6.3271Z" style="fill:#fff"/><path d="M13.9141,14.1686H11.5879l-.4863,1.3975h-1.084l2.2676-6.0029h.9355l2.2725,6.0029H14.4043ZM11.3076,8.6559a.4724.4724,0,0,1,.1387-.3466.5117.5117,0,0,1,.3808-.14.5217.5217,0,0,1,.3838.14.4987.4987,0,0,1,0,.6923.5182.5182,0,0,1-.3838.1407.5083.5083,0,0,1-.3808-.1407A.4687.4687,0,0,1,11.3076,8.6559Zm.5733,4.6709h1.74l-.87-2.49ZM13.1924,8.66a.4757.4757,0,0,1,.1377-.3467.5929.5929,0,0,1,.7646,0,.4974.4974,0,0,1,0,.6933.5929.5929,0,0,1-.7646,0A.4756.4756,0,0,1,13.1924,8.66Z" style="fill:#fff"/><rect x="16.2344" y="9.5632" width="1.0391" height="6.0029" style="fill:#fff"/><polygon points="19.908 9.563 21.641 14.164 23.368 9.563 24.716 9.563 24.716 15.566 23.677 15.566 23.677 13.587 23.78 10.94 22.007 15.566 21.261 15.566 19.492 10.944 19.596 13.587 19.596 15.566 18.557 15.566 18.557 9.563 19.908 9.563" style="fill:#fff"/></svg>