<?xml version="1.0" encoding="utf-8"?>
<!-- Generator: Adobe Illustrator 27.0.1, SVG Export Plug-In . SVG Version: 6.00 Build 0)  -->
<svg version="1.1" id="b" xmlns="http://www.w3.org/2000/svg" xmlns:xlink="http://www.w3.org/1999/xlink" x="0px" y="0px"
	 viewBox="0 0 300 200" style="enable-background:new 0 0 300 200;" xml:space="preserve">
<style type="text/css">
	.st0{fill:#016CD1;}
	.st1{fill:#F3F9FF;}
	.st2{fill:#F7F8FA;}
</style>
<g>
	<g>
		<path class="st0" d="M203,57.8c65.1,5.7,69.8,11.2,64.1,76.4s-11.2,69.8-76.4,64.1L65.9,187.3c-65.1-5.7-69.8-11.2-64.1-76.4
			S13,41.2,78.2,46.8L203,57.8z"/>
		<g>
			<path class="st1" d="M60.5,141.5c-0.5,0-0.9-0.2-1.1-0.6c-0.3-0.4-0.4-0.8-0.4-1.3l0.7-8.4l-22.1-1.9c-0.5,0-0.9-0.2-1.1-0.6
				c-0.3-0.4-0.4-0.8-0.4-1.3l0.5-5.7c0-0.3,0.1-0.7,0.3-1c0.2-0.4,0.4-0.7,0.7-1l23-26.4c0.7-0.7,1.6-1.1,2.7-1l8.9,0.8
				c0.5,0,0.8,0.2,1.1,0.6c0.3,0.4,0.4,0.8,0.4,1.3l-2.4,27.8l6.2,0.5c0.6,0,1,0.3,1.3,0.6c0.3,0.4,0.4,0.8,0.4,1.2l-0.5,5.9
				c0,0.5-0.2,0.9-0.6,1.2c-0.4,0.3-0.8,0.4-1.2,0.4l-6.3-0.6l-0.7,8.4c0,0.5-0.2,0.9-0.6,1.2c-0.4,0.3-0.8,0.4-1.2,0.4L60.5,141.5z
				 M47.6,121.1l13.1,1.1l1.6-18.4L47.6,121.1z"/>
			<path class="st1" d="M88.5,144c-0.4,0-0.8-0.2-1-0.5c-0.3-0.3-0.4-0.7-0.3-1.1c0-0.2,0.1-0.4,0.2-0.6c0.1-0.1,0.2-0.2,0.2-0.3
				l11.4-13c-0.9,0.1-1.7,0.1-2.5,0c-2.2-0.3-4.3-0.9-6.3-1.9c-1.9-1-3.6-2.3-5.1-3.9c-1.5-1.6-2.5-3.4-3.3-5.4
				c-0.7-2-1-4.2-0.8-6.6c0.2-2.1,0.8-4.2,1.8-6.2c1-2,2.4-3.7,4.2-5.2c1.8-1.5,3.9-2.6,6.4-3.4c2.5-0.8,5.4-1,8.6-0.7
				c3.2,0.3,6,1,8.4,2.1s4.3,2.5,5.9,4.2c1.5,1.7,2.6,3.6,3.3,5.7c0.7,2.1,0.9,4.3,0.7,6.6c-0.2,2.1-0.7,3.9-1.6,5.7
				c-0.9,1.7-1.9,3.3-3,4.7c-1.2,1.5-16.7,19.4-16.7,19.4c-0.2,0.2-0.5,0.5-0.9,0.8c-0.4,0.3-1,0.4-1.7,0.4L88.5,144z M99.9,120.4
				c1.5,0.1,3-0.1,4.3-0.6c1.3-0.5,2.4-1.4,3.2-2.5c0.8-1.2,1.3-2.6,1.5-4.2c0.2-1.7-0.1-3.2-0.7-4.5c-0.6-1.3-1.5-2.3-2.7-3.1
				c-1.2-0.8-2.6-1.2-4.1-1.3c-1.5-0.1-2.9,0.1-4.2,0.6c-1.3,0.5-2.4,1.4-3.2,2.5c-0.8,1.2-1.3,2.6-1.5,4.3
				c-0.1,1.7,0.1,3.2,0.7,4.4c0.6,1.3,1.5,2.3,2.7,3.1C97,119.8,98.4,120.3,99.9,120.4z"/>
			<path class="st1" d="M131.7,147.8c-0.4,0-0.8-0.2-1-0.5c-0.3-0.3-0.4-0.7-0.3-1.1c0-0.2,0.1-0.4,0.2-0.6c0.1-0.1,0.2-0.2,0.2-0.3
				l11.4-13c-0.9,0.1-1.7,0.1-2.5,0c-2.2-0.3-4.3-0.9-6.3-1.9c-1.9-1-3.6-2.3-5.1-3.9c-1.5-1.6-2.5-3.4-3.3-5.4
				c-0.7-2-1-4.2-0.8-6.6c0.2-2.1,0.8-4.2,1.8-6.2c1-2,2.4-3.7,4.2-5.2c1.8-1.5,3.9-2.6,6.4-3.4c2.5-0.8,5.4-1,8.6-0.7
				c3.2,0.3,6,1,8.4,2.1c2.4,1.1,4.3,2.5,5.9,4.2c1.5,1.7,2.6,3.6,3.3,5.7c0.7,2.1,0.9,4.3,0.7,6.6c-0.2,2.1-0.7,3.9-1.6,5.7
				c-0.9,1.7-1.9,3.3-3,4.7s-16.7,19.4-16.7,19.4c-0.2,0.2-0.5,0.5-0.9,0.8s-1,0.4-1.7,0.4L131.7,147.8z M143,124.2
				c1.5,0.1,3-0.1,4.3-0.6c1.3-0.5,2.4-1.4,3.2-2.5c0.8-1.2,1.3-2.6,1.5-4.2c0.2-1.7-0.1-3.2-0.7-4.5c-0.6-1.3-1.5-2.3-2.7-3.1
				c-1.2-0.8-2.6-1.2-4.1-1.3c-1.5-0.1-2.9,0.1-4.2,0.6c-1.3,0.5-2.4,1.4-3.2,2.5c-0.8,1.2-1.3,2.6-1.5,4.3
				c-0.1,1.7,0.1,3.2,0.7,4.4c0.6,1.3,1.5,2.3,2.7,3.1C140.2,123.6,141.5,124.1,143,124.2z"/>
			<path class="st1" d="M183.3,131.7c-0.5,0-0.9-0.2-1.1-0.6s-0.4-0.8-0.4-1.3l0.4-4.7c0-0.5,0.2-0.9,0.6-1.2
				c0.4-0.3,0.8-0.4,1.2-0.4l26.8,2.3c0.5,0,0.9,0.2,1.2,0.6c0.3,0.4,0.4,0.8,0.4,1.3l-0.4,4.7c0,0.5-0.2,0.9-0.6,1.2
				c-0.4,0.3-0.8,0.4-1.3,0.4L183.3,131.7z M206.9,155.1c-4.5-0.4-8.2-1.5-11.3-3.3c-3-1.8-5.2-4.3-6.6-7.4
				c-1.4-3.1-1.9-6.8-1.5-11.1l0.9-10.5c0.4-4.3,1.6-7.9,3.5-10.7c1.9-2.8,4.5-4.9,7.7-6.1c3.3-1.2,7.1-1.7,11.6-1.3
				c3.2,0.3,6.1,0.9,8.6,2c2.5,1,4.7,2.3,6.4,3.9c1.7,1.6,3,3.3,3.9,5.3s1.2,4.1,1,6.3c0,0.4-0.1,0.8-0.5,1
				c-0.3,0.3-0.7,0.4-1.1,0.3l-8-0.7c-0.6,0-1-0.2-1.3-0.5c-0.3-0.3-0.6-0.8-0.8-1.4c-0.5-2.3-1.5-4.1-3-5.1c-1.6-1.1-3.5-1.7-6-1.9
				c-3-0.3-5.5,0.4-7.3,2c-1.8,1.6-2.9,4.4-3.2,8.5l-0.9,9.7c-0.4,4.1,0.2,7.1,1.7,9c1.5,1.9,3.8,2.9,6.8,3.2
				c2.4,0.2,4.5-0.1,6.2-0.9c1.7-0.8,3-2.3,3.9-4.5c0.3-0.6,0.6-1.1,1-1.3c0.4-0.2,0.8-0.3,1.4-0.3l8,0.7c0.4,0,0.8,0.2,1,0.5
				c0.3,0.3,0.4,0.7,0.3,1.1c-0.2,2.2-0.9,4.2-2,6c-1.2,1.8-2.8,3.3-4.7,4.6c-2,1.2-4.3,2.1-7,2.7S210.1,155.3,206.9,155.1z"/>
		</g>
	</g>
	<g>
		<path class="st2" d="M258.8,0.9c34.4-3,37.3-0.6,40.3,33.8s0.6,37.3-33.8,40.3l-62.4,5.5c-34.4,3-37.3,0.6-40.3-33.8
			c-3-34.4-0.6-37.3,33.8-40.3L258.8,0.9z"/>
		<g>
			<path class="st0" d="M177.2,50.2c-0.3,0-0.6-0.1-0.8-0.2c-0.2-0.2-0.4-0.4-0.4-0.7l-0.3-3.6c0-0.3,0.1-0.6,0.2-0.8
				c0.2-0.2,0.4-0.4,0.7-0.4l13.9-1.2c0.3,0,0.6,0.1,0.8,0.2c0.2,0.2,0.4,0.4,0.4,0.7l0.3,3.6c0,0.3-0.1,0.6-0.2,0.8
				c-0.2,0.2-0.4,0.4-0.7,0.4L177.2,50.2z"/>
			<path class="st0" d="M212.6,57.7c-0.3,0-0.6-0.1-0.8-0.2c-0.2-0.2-0.4-0.4-0.4-0.8l-0.5-5.3l-14,1.2c-0.3,0-0.6-0.1-0.8-0.2
				c-0.2-0.2-0.4-0.4-0.4-0.8l-0.3-3.6c0-0.2,0-0.4,0.1-0.7c0.1-0.2,0.2-0.5,0.3-0.7l11.5-19.1c0.3-0.5,0.9-0.8,1.6-0.9l5.7-0.5
				c0.3,0,0.6,0.1,0.8,0.2c0.2,0.2,0.4,0.4,0.4,0.8l1.5,17.7l4-0.3c0.4,0,0.6,0,0.9,0.2c0.2,0.2,0.3,0.4,0.4,0.7l0.3,3.7
				c0,0.3-0.1,0.6-0.2,0.8c-0.2,0.2-0.4,0.4-0.7,0.4l-4,0.4l0.5,5.3c0,0.3-0.1,0.6-0.2,0.8s-0.4,0.4-0.7,0.4L212.6,57.7z
				 M202.2,46.3l8.3-0.7l-1-11.7L202.2,46.3z"/>
			<path class="st0" d="M239.2,55.8c-2.1,0.2-4,0-5.6-0.4c-1.6-0.5-2.9-1.2-4-2.2c-1.1-1-1.9-2.2-2.6-3.6c-0.6-1.4-1-2.9-1.3-4.5
				c-0.1-0.8-0.2-1.7-0.3-2.7c-0.1-1-0.2-2-0.3-3c-0.1-1-0.1-1.9-0.2-2.8c-0.1-1.6,0.1-3.2,0.5-4.7c0.4-1.5,1.1-2.8,2-3.9
				c0.9-1.2,2.1-2.1,3.6-2.9c1.5-0.7,3.3-1.2,5.3-1.4s3.9,0,5.5,0.4s2.9,1.2,4,2.2c1.1,1,2,2.2,2.6,3.5c0.6,1.4,1.1,2.9,1.3,4.5
				c0.1,0.8,0.2,1.8,0.3,2.8c0.1,1,0.2,2,0.3,3c0.1,1,0.1,1.9,0.2,2.7c0.1,1.6-0.1,3.2-0.5,4.7c-0.4,1.5-1,2.8-1.9,4
				c-0.9,1.2-2.1,2.1-3.6,2.9C243.1,55.1,241.3,55.6,239.2,55.8z M238.7,50c1.7-0.2,2.9-0.8,3.6-2c0.7-1.2,1-2.8,0.9-4.7
				c0-0.9-0.1-1.8-0.2-2.7c-0.1-0.9-0.1-1.8-0.2-2.8c-0.1-0.9-0.2-1.8-0.3-2.6c-0.2-1.8-0.8-3.3-1.7-4.4c-0.9-1.1-2.2-1.6-3.9-1.5
				c-1.8,0.2-3,0.9-3.7,2.1c-0.7,1.2-1,2.8-0.9,4.6c0,0.8,0.1,1.7,0.2,2.6c0.1,0.9,0.1,1.8,0.2,2.8s0.2,1.8,0.3,2.7
				c0.2,1.9,0.8,3.4,1.7,4.5C235.6,49.7,236.9,50.1,238.7,50z"/>
			<path class="st0" d="M260.3,37.9c-2,0.2-3.7-0.2-4.9-1.2s-2-2.3-2.3-4.1c-0.1-0.8-0.2-1.4-0.2-2c0-0.6-0.1-1.3-0.1-2.1
				c-0.1-1.8,0.4-3.3,1.5-4.5c1-1.2,2.6-1.9,4.7-2.1c2.1-0.2,3.8,0.2,5,1.2s2,2.4,2.2,4.2c0.1,0.8,0.2,1.5,0.3,2.1s0.1,1.3,0.1,2
				c0.1,1.8-0.4,3.3-1.5,4.4C263.9,37,262.4,37.7,260.3,37.9z M258.1,53.7c-0.7,0.1-1-0.2-1.1-0.8c0-0.2,0-0.3,0.1-0.5l19.5-30.9
				c0.2-0.3,0.4-0.5,0.6-0.7c0.2-0.2,0.5-0.3,0.9-0.3l2.8-0.2c0.7-0.1,1,0.2,1.1,0.8c0,0.2,0,0.3-0.1,0.5l-19.5,30.9
				c-0.2,0.3-0.4,0.5-0.5,0.7c-0.2,0.2-0.5,0.3-0.9,0.3L258.1,53.7z M260,34.3c0.6,0,1-0.2,1.3-0.5c0.3-0.3,0.5-0.6,0.7-1
				c0.1-0.4,0.2-0.8,0.2-1.2c0-0.7,0-1.4-0.1-1.9c0-0.5-0.1-1.1-0.2-1.8c-0.1-0.6-0.3-1.2-0.7-1.7c-0.4-0.5-1-0.7-1.9-0.6
				c-0.8,0.1-1.4,0.4-1.7,0.9c-0.3,0.5-0.4,1.1-0.5,1.8c0,0.7,0.1,1.3,0.1,1.8c0,0.6,0.1,1.2,0.2,1.9c0.1,0.4,0.2,0.8,0.4,1.1
				c0.2,0.4,0.4,0.7,0.8,0.9C259,34.3,259.5,34.3,260,34.3z M280,52c-2,0.2-3.7-0.2-4.9-1.2s-2-2.3-2.3-4.1c-0.1-0.8-0.2-1.5-0.2-2
				c0-0.6-0.1-1.3-0.1-2.1c-0.1-1.8,0.4-3.3,1.5-4.5c1-1.2,2.6-1.9,4.7-2.1c2.1-0.2,3.8,0.2,5,1.2c1.2,1,2,2.4,2.2,4.2
				c0.1,0.8,0.2,1.5,0.3,2.1c0.1,0.6,0.1,1.3,0.1,2.1c0.1,1.8-0.5,3.3-1.6,4.4C283.6,51.1,282,51.8,280,52z M279.7,48.3
				c0.6,0,1-0.2,1.3-0.5c0.3-0.3,0.5-0.6,0.7-1c0.1-0.4,0.2-0.8,0.2-1.2c0-0.7,0-1.3-0.1-1.9c0-0.5-0.1-1.2-0.3-1.8
				c-0.1-0.6-0.3-1.2-0.7-1.6s-1-0.7-1.8-0.6c-0.8,0.1-1.4,0.4-1.7,0.9c-0.3,0.5-0.4,1.1-0.5,1.7c0,0.7,0.1,1.3,0.1,1.9
				s0.1,1.2,0.2,1.8c0.1,0.4,0.2,0.8,0.4,1.2c0.2,0.4,0.4,0.7,0.8,0.9C278.7,48.3,279.2,48.4,279.7,48.3z"/>
		</g>
	</g>
</g>
</svg>
