<?xml version="1.0" encoding="UTF-8"?>
<svg id="Layer_2" data-name="Layer 2" xmlns="http://www.w3.org/2000/svg" viewBox="0 0 153.51 95.02">
  <defs>
    <style>
      .cls-1 {
        fill: #f7fcfa;
      }

      .cls-2 {
        fill: #fff;
      }

      .cls-3 {
        fill: #47b881;
      }
    </style>
  </defs>
  <g id="main">
    <g>
      <g>
        <path class="cls-3" d="M101.78,22.78c33.36,1.46,35.85,4.18,34.4,37.54-1.46,33.36-4.18,35.85-37.54,34.4l-63.94-2.79C1.35,90.46-1.15,87.74,.31,54.39,1.76,21.03,4.49,18.53,37.84,19.99l63.94,2.79Z"/>
        <g>
          <path class="cls-1" d="M33,55.71c-1.03-.57-2.21-.95-3.55-1.15l-.34-.05,5.82-5.27c.14-.09,.26-.21,.36-.38,.1-.17,.15-.38,.16-.63l.11-2.47c.01-.25-.06-.46-.21-.63-.15-.17-.36-.26-.61-.27l-15.21-.66c-.25-.01-.46,.06-.63,.21s-.25,.35-.27,.61l-.12,2.74c-.01,.23,.06,.43,.21,.59,.15,.17,.36,.26,.61,.27l9.66,.42-6.13,5.15c-.12,.09-.23,.22-.34,.4-.11,.18-.17,.4-.18,.68l-.07,1.68c0,.23,.06,.43,.21,.59,.15,.17,.34,.26,.57,.27l3.67,.16c1.26,.05,2.22,.34,2.88,.85,.66,.51,.97,1.31,.93,2.41s-.45,1.89-1.21,2.45c-.76,.56-1.77,.81-3.05,.76-.64-.03-1.24-.12-1.79-.27-.55-.15-1.03-.39-1.43-.73-.4-.34-.68-.77-.84-1.31-.13-.26-.27-.44-.42-.55-.16-.11-.36-.17-.61-.18l-3.77-.16c-.21,0-.38,.05-.52,.18s-.22,.3-.23,.5c-.02,.71,.16,1.45,.52,2.24,.35,.78,.91,1.51,1.65,2.18,.75,.67,1.72,1.24,2.91,1.71,1.19,.46,2.63,.73,4.32,.81,1.87,.08,3.55-.15,5.04-.69s2.68-1.35,3.57-2.44,1.37-2.4,1.44-3.95-.18-2.72-.75-3.72c-.56-1-1.36-1.78-2.39-2.35Z"/>
          <path class="cls-1" d="M43.58,63.73l-3.84-.17c-.25-.01-.46,.06-.63,.21s-.26,.36-.27,.61l-.17,3.84c-.01,.25,.06,.46,.21,.63,.15,.17,.35,.26,.61,.27l3.84,.17c.25,.01,.46-.06,.63-.21,.17-.15,.26-.35,.27-.61l.17-3.84c.01-.25-.06-.46-.21-.63-.15-.17-.36-.26-.61-.27Z"/>
          <path class="cls-1" d="M62.37,48.19c-.79-.8-1.77-1.44-2.95-1.93-1.18-.49-2.56-.76-4.13-.83s-2.97,.11-4.18,.54c-1.21,.43-2.23,1.02-3.06,1.79s-1.47,1.64-1.92,2.63c-.44,.99-.69,2.01-.73,3.06-.05,1.16,.12,2.24,.51,3.21,.39,.98,.96,1.84,1.71,2.58,.75,.74,1.6,1.33,2.57,1.78,.96,.44,1.99,.71,3.09,.8,.41,.04,.82,.02,1.24-.05l-5.26,6.56s-.06,.1-.09,.17-.06,.16-.06,.27c0,.2,.05,.39,.18,.54,.13,.15,.3,.24,.5,.24l3.87,.17c.34,.01,.61-.06,.8-.22,.19-.16,.33-.3,.43-.41,0,0,7.17-9.09,7.7-9.82,.53-.73,.99-1.52,1.37-2.38,.38-.85,.59-1.78,.64-2.79,.05-1.12-.11-2.18-.48-3.2-.37-1.01-.95-1.92-1.73-2.72Zm-4,7.94c-.38,.58-.88,1.01-1.52,1.31s-1.32,.42-2.08,.39-1.4-.22-2-.57-1.07-.82-1.4-1.43c-.33-.61-.47-1.32-.44-2.15s.24-1.56,.62-2.13,.88-1.01,1.52-1.31c.63-.29,1.31-.42,2.04-.39s1.43,.22,2.03,.57c.6,.35,1.07,.82,1.4,1.43s.47,1.34,.44,2.18-.24,1.52-.62,2.1Z"/>
          <path class="cls-1" d="M82.68,58.23c.82-.49,1.47-1.14,1.94-1.94,.47-.8,.73-1.74,.77-2.81,.06-1.3-.22-2.47-.84-3.5s-1.57-1.87-2.84-2.51-2.9-1-4.86-1.09-3.65,.14-4.99,.67-2.36,1.29-3.07,2.27c-.71,.98-1.09,2.11-1.14,3.42-.05,1.07,.13,2.03,.54,2.86,.41,.83,1,1.52,1.78,2.09-1.01,.48-1.85,1.19-2.53,2.12s-1.05,2.05-1.11,3.35c-.05,1.07,.12,2.07,.49,2.99,.37,.92,.95,1.74,1.75,2.44s1.79,1.28,3,1.71,2.61,.68,4.21,.75c2.12,.09,3.93-.15,5.42-.74,1.49-.59,2.62-1.42,3.4-2.51,.78-1.09,1.2-2.34,1.26-3.76,.06-1.3-.2-2.46-.78-3.46s-1.37-1.79-2.4-2.34Zm-9.39-6.61c.34-.43,.81-.76,1.4-.98,.59-.23,1.26-.32,1.99-.29s1.38,.19,1.94,.46c.56,.28,1,.64,1.31,1.1,.31,.46,.45,1,.43,1.61s-.22,1.11-.58,1.54c-.36,.43-.83,.76-1.42,.99-.58,.23-1.23,.35-1.94,.33s-1.38-.19-1.95-.46c-.57-.28-1.01-.64-1.31-1.1-.3-.46-.44-1-.41-1.61s.21-1.14,.55-1.57Zm6.48,13.99c-.4,.51-.94,.89-1.61,1.15s-1.41,.37-2.21,.33-1.55-.21-2.19-.52-1.14-.74-1.51-1.28c-.37-.54-.53-1.17-.5-1.88s.25-1.34,.66-1.84,.95-.87,1.61-1.13c.66-.26,1.41-.37,2.23-.33s1.52,.21,2.17,.52c.65,.31,1.15,.74,1.51,1.27,.35,.53,.52,1.16,.48,1.89s-.25,1.32-.65,1.83Z"/>
          <path class="cls-1" d="M118.58,64.57l-3.91-.17c-.27-.01-.5,.04-.68,.16-.18,.12-.33,.33-.46,.65-.37,1.11-.96,1.87-1.78,2.29s-1.82,.61-3.01,.55c-1.48-.06-2.62-.54-3.4-1.42s-1.12-2.33-1.01-4.33l.02-.38,5.34,.23c.25,.01,.46-.06,.63-.21,.17-.15,.26-.35,.27-.61l.1-2.3c.01-.25-.06-.46-.21-.63-.15-.17-.36-.26-.61-.27l-5.34-.23,.02-.38c.06-1.99,.53-3.39,1.38-4.19s2.03-1.18,3.51-1.12c1.19,.05,2.17,.32,2.95,.81s1.3,1.3,1.58,2.44c.1,.32,.23,.55,.4,.69,.17,.13,.38,.21,.66,.22l3.91,.17c.2,0,.38-.05,.54-.18,.15-.13,.22-.3,.21-.51,.05-1.07-.16-2.08-.61-3.03s-1.12-1.78-2-2.51c-.88-.72-1.95-1.31-3.2-1.75s-2.66-.7-4.24-.77c-2.19-.1-4.07,.19-5.63,.87-1.56,.68-2.77,1.72-3.64,3.14-.86,1.42-1.35,3.18-1.47,5.31l-.02,.55-2.12-.09c-.23-.01-.43,.06-.59,.21s-.26,.36-.27,.61l-.1,2.3c-.01,.25,.06,.46,.21,.63,.15,.17,.34,.26,.57,.27l2.12,.09-.03,.58c-.09,2.1,.23,3.9,.97,5.4s1.86,2.65,3.37,3.46c1.51,.81,3.36,1.26,5.55,1.36,1.58,.07,3.01-.06,4.29-.4,1.28-.33,2.4-.82,3.34-1.47,.94-.65,1.68-1.42,2.21-2.32s.82-1.89,.87-2.96c.03-.2-.02-.38-.17-.52-.14-.14-.32-.22-.52-.23Z"/>
        </g>
      </g>
      <g>
        <path class="cls-2" d="M133.54,.16c17.6-.77,19.04,.55,19.81,18.15s-.55,19.04-18.15,19.81l-31.97,1.4c-17.6,.77-19.04-.55-19.81-18.15-.77-17.6,.55-19.04,18.15-19.81L133.54,.16Z"/>
        <g>
          <path class="cls-3" d="M98.81,20.38l-7.1,.31c-.15,0-.28,.07-.38,.18s-.15,.24-.14,.4l.08,1.83c0,.15,.07,.28,.18,.38,.11,.1,.24,.15,.4,.14l7.1-.31c.15,0,.28-.06,.38-.18,.1-.11,.15-.24,.14-.4l-.08-1.83c0-.15-.07-.28-.18-.38s-.24-.15-.4-.14Z"/>
          <path class="cls-3" d="M111.48,19.41c-.72-.32-1.52-.51-2.43-.56h-.23s3.56-3.85,3.56-3.85c.09-.06,.16-.16,.22-.27,.06-.12,.08-.26,.07-.43l-.07-1.64c0-.17-.07-.3-.18-.4s-.25-.15-.42-.14l-10.14,.44c-.17,0-.3,.07-.4,.18-.1,.11-.15,.25-.14,.42l.08,1.83c0,.15,.06,.28,.18,.38,.11,.1,.25,.15,.42,.14l6.44-.28-3.77,3.78c-.07,.06-.14,.16-.21,.28-.06,.12-.09,.28-.08,.46l.05,1.12c0,.15,.06,.28,.18,.38,.11,.1,.24,.15,.4,.14l2.44-.11c.84-.04,1.49,.1,1.96,.4,.47,.3,.72,.81,.75,1.55s-.19,1.28-.66,1.7c-.47,.42-1.13,.64-1.98,.68-.43,.02-.83,0-1.2-.07s-.71-.2-.99-.4c-.28-.2-.49-.47-.63-.82-.1-.16-.2-.28-.31-.34-.11-.06-.25-.09-.42-.09l-2.51,.11c-.14,0-.25,.06-.34,.15-.09,.09-.13,.21-.12,.35,.03,.47,.19,.96,.48,1.46,.28,.5,.69,.95,1.23,1.35s1.21,.73,2.03,.96c.82,.24,1.79,.33,2.92,.28,1.25-.05,2.35-.3,3.31-.75,.96-.45,1.7-1.05,2.23-1.82,.53-.77,.77-1.67,.73-2.71s-.28-1.8-.71-2.43c-.43-.63-1.01-1.1-1.72-1.42Z"/>
          <path class="cls-3" d="M125.58,12.93c-.57-.49-1.26-.86-2.07-1.11-.81-.25-1.74-.36-2.79-.31s-1.96,.25-2.74,.6c-.78,.35-1.42,.81-1.93,1.37s-.88,1.18-1.12,1.86c-.24,.68-.34,1.37-.31,2.07,.03,.78,.21,1.48,.53,2.1,.32,.63,.74,1.17,1.28,1.61,.54,.45,1.14,.79,1.81,1.03s1.37,.36,2.1,.36c.27,0,.55-.03,.82-.11l-3.11,4.67s-.03,.07-.05,.12c-.02,.05-.03,.11-.03,.18,0,.14,.06,.25,.15,.35,.1,.1,.21,.14,.35,.13l2.58-.11c.23-.01,.4-.08,.52-.19s.2-.22,.26-.3c0,0,4.23-6.45,4.55-6.97,.31-.52,.57-1.07,.77-1.66s.29-1.22,.26-1.89c-.03-.75-.2-1.44-.5-2.09-.3-.65-.74-1.22-1.31-1.71Zm-2.2,5.51c-.22,.41-.53,.72-.93,.96-.4,.23-.85,.36-1.36,.38s-.94-.07-1.36-.26c-.42-.19-.76-.49-1.01-.87s-.39-.85-.42-1.4,.07-1.05,.29-1.45c.22-.41,.53-.72,.93-.96,.4-.23,.85-.36,1.33-.38s.96,.07,1.38,.26c.42,.2,.76,.49,1.01,.87,.25,.39,.39,.86,.42,1.42s-.07,1.02-.29,1.43Z"/>
          <path class="cls-3" d="M145.68,21.6c-.09-.91-.43-1.64-1.04-2.17-.61-.54-1.46-.78-2.54-.74s-1.9,.37-2.46,.95c-.56,.59-.85,1.34-.85,2.26,0,.43,0,.79,.01,1.1s.03,.65,.08,1.05c.1,.91,.46,1.63,1.09,2.15,.62,.52,1.45,.76,2.49,.72s1.83-.35,2.42-.93c.59-.57,.89-1.32,.9-2.24,.01-.4,.01-.75,0-1.05s-.04-.67-.09-1.09Zm-2.15,2.11c0,.21-.05,.42-.12,.62s-.19,.37-.36,.5c-.16,.13-.39,.2-.68,.21s-.52-.04-.7-.15c-.18-.11-.31-.27-.39-.46-.08-.2-.14-.4-.18-.61-.03-.35-.05-.66-.06-.95s-.03-.6-.02-.95c0-.32,.11-.61,.27-.88s.46-.41,.89-.43,.74,.1,.93,.35,.3,.54,.33,.85c.04,.35,.07,.66,.09,.95s.01,.6,0,.95Z"/>
          <path class="cls-3" d="M135.15,18.37c.59-.57,.88-1.31,.89-2.22,.01-.4,.01-.74,0-1.04s-.04-.66-.09-1.08c-.09-.93-.43-1.65-1.03-2.19-.6-.53-1.45-.77-2.55-.72s-1.9,.36-2.46,.94c-.56,.58-.85,1.34-.85,2.27,0,.43,0,.79,.01,1.09,0,.3,.03,.64,.08,1.04,.1,.91,.46,1.62,1.09,2.14,.62,.51,1.45,.75,2.49,.7s1.84-.35,2.43-.92Zm-3.59-1.55c-.08-.19-.15-.39-.19-.59-.03-.37-.05-.69-.06-.97s-.03-.59-.02-.93,.11-.62,.27-.89c.16-.27,.46-.42,.89-.44s.74,.1,.93,.36,.3,.55,.33,.87c.04,.34,.07,.64,.09,.92s.01,.61,0,.97c0,.2-.05,.4-.12,.6s-.19,.37-.36,.5-.39,.2-.68,.21-.52-.04-.69-.15c-.17-.11-.3-.27-.39-.46Z"/>
          <path class="cls-3" d="M144.1,11.17c-.01-.3-.19-.45-.52-.43l-1.42,.06c-.2,0-.35,.05-.45,.13s-.21,.19-.31,.33l-10.63,15.33c-.06,.08-.08,.16-.08,.26,.01,.3,.19,.45,.52,.43l1.42-.06c.21,0,.37-.05,.46-.13,.1-.08,.19-.19,.29-.33l10.63-15.33c.06-.08,.08-.16,.08-.26Z"/>
        </g>
      </g>
    </g>
  </g>
</svg>