<?xml version="1.0" encoding="UTF-8"?>
<svg id="Layer_2" data-name="Layer 2" xmlns="http://www.w3.org/2000/svg" viewBox="0 0 153.51 95.02">
  <defs>
    <style>
      .cls-1 {
        fill: #f7fcfa;
      }

      .cls-2 {
        fill: #fff;
      }

      .cls-3 {
        fill: #47b881;
      }
    </style>
  </defs>
  <g id="main">
    <g>
      <g>
        <path class="cls-3" d="M101.78,22.78c33.36,1.46,35.85,4.18,34.4,37.54-1.46,33.36-4.18,35.85-37.54,34.4l-63.94-2.79C1.35,90.46-1.15,87.74,.31,54.39,1.76,21.03,4.49,18.53,37.84,19.99l63.94,2.79Z"/>
        <g>
          <path class="cls-1" d="M32.77,44.79l-3.63-.16c-.16,0-.3,0-.43,.03-.13,.03-.26,.09-.4,.17l-8.07,5.69c-.21,.13-.34,.31-.38,.53-.05,.23,0,.45,.13,.66l1.62,2.3c.15,.21,.33,.35,.55,.4s.43,0,.64-.14l5.1-3.59-.74,17.02c-.01,.25,.07,.46,.23,.63,.16,.17,.36,.26,.59,.27l3.77,.16c.23,0,.43-.06,.59-.21s.26-.35,.27-.61l.97-22.26c.01-.25-.06-.46-.21-.63-.15-.17-.34-.26-.57-.27Z"/>
          <path class="cls-1" d="M41.41,63.63l-3.84-.17c-.25-.01-.46,.06-.63,.21s-.26,.36-.27,.61l-.17,3.84c-.01,.25,.06,.46,.21,.63,.15,.17,.35,.26,.61,.27l3.84,.17c.25,.01,.46-.06,.63-.21,.17-.15,.26-.35,.27-.61l.17-3.84c.01-.25-.06-.46-.21-.63-.15-.17-.36-.26-.61-.27Z"/>
          <path class="cls-1" d="M60.2,48.1c-.79-.8-1.77-1.44-2.95-1.93-1.18-.49-2.56-.76-4.13-.83s-2.97,.11-4.18,.54c-1.21,.43-2.23,1.02-3.06,1.79s-1.47,1.64-1.92,2.63c-.44,.99-.69,2.01-.73,3.06-.05,1.16,.12,2.24,.51,3.21,.39,.98,.96,1.84,1.71,2.58,.75,.74,1.6,1.33,2.57,1.78,.96,.44,1.99,.71,3.09,.8,.41,.04,.82,.02,1.24-.05l-5.26,6.56s-.06,.1-.09,.17-.06,.16-.06,.27c0,.2,.05,.39,.18,.54,.13,.15,.3,.24,.5,.24l3.87,.17c.34,.01,.61-.06,.8-.22,.19-.16,.33-.3,.43-.41,0,0,7.17-9.09,7.7-9.82,.53-.73,.99-1.52,1.37-2.38,.38-.85,.59-1.78,.64-2.79,.05-1.12-.11-2.18-.48-3.2-.37-1.01-.95-1.92-1.73-2.72Zm-4,7.94c-.38,.58-.88,1.01-1.52,1.31s-1.32,.42-2.08,.39-1.4-.22-2-.57-1.07-.82-1.4-1.43c-.33-.61-.47-1.32-.44-2.15s.24-1.56,.62-2.13,.88-1.01,1.52-1.31c.63-.29,1.31-.42,2.04-.39s1.43,.22,2.03,.57c.6,.35,1.07,.82,1.4,1.43s.47,1.34,.44,2.18-.24,1.52-.62,2.1Z"/>
          <path class="cls-1" d="M81.69,49.04c-.79-.8-1.77-1.44-2.95-1.93-1.18-.49-2.56-.76-4.13-.83s-2.97,.11-4.18,.54c-1.21,.43-2.23,1.02-3.06,1.79s-1.47,1.64-1.92,2.63c-.44,.99-.69,2.01-.73,3.06-.05,1.16,.12,2.24,.51,3.21,.39,.98,.96,1.84,1.71,2.58,.75,.74,1.6,1.33,2.57,1.78,.96,.44,1.99,.71,3.09,.8,.41,.04,.82,.02,1.24-.05l-5.26,6.56s-.06,.1-.09,.17-.06,.16-.06,.27c0,.2,.05,.39,.18,.54,.13,.15,.3,.24,.5,.24l3.87,.17c.34,.01,.61-.06,.8-.22,.19-.16,.33-.3,.43-.41,0,0,7.17-9.09,7.7-9.82,.53-.73,.99-1.52,1.37-2.38,.38-.85,.59-1.78,.64-2.79,.05-1.12-.11-2.18-.48-3.2-.37-1.01-.95-1.92-1.73-2.72Zm-4,7.94c-.38,.58-.88,1.01-1.52,1.31s-1.32,.42-2.08,.39-1.4-.22-2-.57-1.07-.82-1.4-1.43c-.33-.61-.47-1.32-.44-2.15s.24-1.56,.62-2.13,.88-1.01,1.52-1.31c.63-.29,1.31-.42,2.04-.39s1.43,.22,2.03,.57c.6,.35,1.07,.82,1.4,1.43s.47,1.34,.44,2.18-.24,1.52-.62,2.1Z"/>
          <path class="cls-1" d="M115.88,64.45l-3.91-.17c-.27-.01-.5,.04-.68,.16-.18,.12-.33,.33-.46,.65-.37,1.11-.96,1.87-1.78,2.29s-1.82,.61-3.01,.55c-1.48-.06-2.62-.54-3.4-1.42s-1.12-2.33-1.01-4.33l.02-.38,5.34,.23c.25,.01,.46-.06,.63-.21,.17-.15,.26-.35,.27-.61l.1-2.3c.01-.25-.06-.46-.21-.63-.15-.17-.36-.26-.61-.27l-5.34-.23,.02-.38c.06-1.99,.53-3.39,1.38-4.19s2.03-1.18,3.51-1.12c1.19,.05,2.17,.32,2.95,.81s1.3,1.3,1.58,2.44c.1,.32,.23,.55,.4,.69,.17,.13,.38,.21,.66,.22l3.91,.17c.2,0,.38-.05,.54-.18,.15-.13,.22-.3,.21-.51,.05-1.07-.16-2.08-.61-3.03s-1.12-1.78-2-2.51c-.88-.72-1.95-1.31-3.2-1.75s-2.66-.7-4.24-.77c-2.19-.1-4.07,.19-5.63,.87-1.56,.68-2.77,1.72-3.64,3.14-.86,1.42-1.35,3.18-1.47,5.31l-.02,.55-2.12-.09c-.23-.01-.43,.06-.59,.21s-.26,.36-.27,.61l-.1,2.3c-.01,.25,.06,.46,.21,.63,.15,.17,.34,.26,.57,.27l2.12,.09-.03,.58c-.09,2.1,.23,3.9,.97,5.4s1.86,2.65,3.37,3.46c1.51,.81,3.36,1.26,5.55,1.36,1.58,.07,3.01-.06,4.29-.4,1.28-.33,2.4-.82,3.34-1.47,.94-.65,1.68-1.42,2.21-2.32s.82-1.89,.87-2.96c.03-.2-.02-.38-.17-.52-.14-.14-.32-.22-.52-.23Z"/>
        </g>
      </g>
      <g>
        <path class="cls-2" d="M133.54,.16c17.6-.77,19.04,.55,19.81,18.15s-.55,19.04-18.15,19.81l-31.97,1.4c-17.6,.77-19.04-.55-19.81-18.15-.77-17.6,.55-19.04,18.15-19.81L133.54,.16Z"/>
        <g>
          <path class="cls-3" d="M100.78,20.23l-7.1,.31c-.15,0-.28,.07-.38,.18s-.15,.24-.14,.4l.08,1.83c0,.15,.07,.28,.18,.38,.11,.1,.24,.15,.4,.14l7.1-.31c.15,0,.28-.06,.38-.18,.1-.11,.15-.24,.14-.4l-.08-1.83c0-.15-.07-.28-.18-.38s-.24-.15-.4-.14Z"/>
          <path class="cls-3" d="M113.46,19.27c-.72-.32-1.52-.51-2.43-.56h-.23s3.56-3.85,3.56-3.85c.09-.06,.16-.16,.22-.27,.06-.12,.08-.26,.07-.43l-.07-1.64c0-.17-.07-.3-.18-.4s-.25-.15-.42-.14l-10.14,.44c-.17,0-.3,.07-.4,.18-.1,.11-.15,.25-.14,.42l.08,1.83c0,.15,.06,.28,.18,.38,.11,.1,.25,.15,.42,.14l6.44-.28-3.77,3.78c-.07,.06-.14,.16-.21,.28-.06,.12-.09,.28-.08,.46l.05,1.12c0,.15,.06,.28,.18,.38,.11,.1,.24,.15,.4,.14l2.44-.11c.84-.04,1.49,.1,1.96,.4,.47,.3,.72,.81,.75,1.55s-.19,1.28-.66,1.7c-.47,.42-1.13,.64-1.98,.68-.43,.02-.83,0-1.2-.07s-.71-.2-.99-.4c-.28-.2-.49-.47-.63-.82-.1-.16-.2-.28-.31-.34-.11-.06-.25-.09-.42-.09l-2.51,.11c-.14,0-.25,.06-.34,.15-.09,.09-.13,.21-.12,.35,.03,.47,.19,.96,.48,1.46,.28,.5,.69,.95,1.23,1.35s1.21,.73,2.03,.96c.82,.24,1.79,.33,2.92,.28,1.25-.05,2.35-.3,3.31-.75,.96-.45,1.7-1.05,2.23-1.82,.53-.77,.77-1.67,.73-2.71s-.28-1.8-.71-2.43c-.43-.63-1.01-1.1-1.72-1.42Z"/>
          <path class="cls-3" d="M124.29,11.52l-2.42,.11c-.11,0-.2,.02-.28,.05-.08,.03-.17,.07-.26,.14l-5.03,4.25c-.13,.1-.21,.22-.22,.38s.02,.3,.12,.43l1.21,1.44c.11,.13,.24,.21,.39,.23,.15,.02,.28-.02,.42-.13l3.18-2.68,.5,11.35c0,.17,.07,.3,.19,.4,.12,.1,.25,.15,.41,.14l2.51-.11c.15,0,.28-.06,.38-.18,.1-.11,.15-.25,.14-.42l-.65-14.84c0-.17-.07-.3-.18-.4s-.24-.15-.4-.14Z"/>
          <path class="cls-3" d="M133.17,18.4c.59-.57,.88-1.31,.89-2.22,.01-.4,.01-.74,0-1.04s-.04-.66-.09-1.08c-.09-.93-.43-1.65-1.03-2.19-.6-.53-1.45-.77-2.55-.72s-1.9,.36-2.46,.94c-.56,.58-.85,1.34-.85,2.27,0,.43,0,.79,.01,1.09,0,.3,.03,.64,.08,1.04,.1,.91,.46,1.62,1.09,2.14,.62,.51,1.45,.75,2.49,.7s1.84-.35,2.43-.92Zm-3.59-1.55c-.08-.19-.15-.39-.19-.59-.03-.37-.05-.69-.06-.97s-.03-.59-.02-.93,.11-.62,.27-.89c.16-.27,.46-.42,.89-.44s.74,.1,.93,.36,.3,.55,.33,.87c.04,.34,.07,.64,.09,.92s.01,.61,0,.97c0,.2-.05,.4-.12,.6s-.19,.37-.36,.5-.39,.2-.68,.21-.52-.04-.69-.15c-.17-.11-.3-.27-.39-.46Z"/>
          <path class="cls-3" d="M143.69,21.63c-.09-.91-.43-1.64-1.04-2.17-.61-.54-1.46-.78-2.54-.74s-1.9,.37-2.46,.95c-.56,.59-.85,1.34-.85,2.26,0,.43,0,.79,.01,1.1s.03,.65,.08,1.05c.1,.91,.46,1.63,1.09,2.15,.62,.52,1.45,.76,2.49,.72s1.83-.35,2.42-.93c.59-.57,.89-1.32,.9-2.24,.01-.4,.01-.75,0-1.05s-.04-.67-.09-1.09Zm-2.15,2.11c0,.21-.05,.42-.12,.62s-.19,.37-.36,.5c-.16,.13-.39,.2-.68,.21s-.52-.04-.7-.15c-.18-.11-.31-.27-.39-.46-.08-.2-.14-.4-.18-.61-.03-.35-.05-.66-.06-.95s-.03-.6-.02-.95c0-.32,.11-.61,.27-.88s.46-.41,.89-.43,.74,.1,.93,.35,.3,.54,.33,.85c.04,.35,.07,.66,.09,.95s.01,.6,0,.95Z"/>
          <path class="cls-3" d="M142.12,11.2c-.01-.3-.19-.45-.52-.43l-1.42,.06c-.2,0-.35,.05-.45,.13s-.21,.19-.31,.33l-10.63,15.33c-.06,.08-.08,.16-.08,.26,.01,.3,.19,.45,.52,.43l1.42-.06c.21,0,.37-.05,.46-.13,.1-.08,.19-.19,.29-.33l10.63-15.33c.06-.08,.08-.16,.08-.26Z"/>
        </g>
      </g>
    </g>
  </g>
</svg>