<?xml version="1.0" encoding="UTF-8"?><svg id="Layer_2" xmlns="http://www.w3.org/2000/svg" xmlns:xlink="http://www.w3.org/1999/xlink" viewBox="0 0 601.2 70.48"><defs><style>.cls-1{fill:#fff;}.cls-2{fill:#624f15;}.cls-3{filter:url(#drop-shadow-1);}</style><filter id="drop-shadow-1" filterUnits="userSpaceOnUse"><feOffset dx="0" dy="1"/><feGaussianBlur result="blur" stdDeviation="1"/><feFlood flood-color="#624f15" flood-opacity=".5"/><feComposite in2="blur" operator="in"/><feComposite in="SourceGraphic"/></filter></defs><g id="backup"><g><g><path class="cls-2" d="M18.91,1.09h-2.67c-.82,0-1.23,.44-1.23,1.32V11H5.55V2.41c0-.88-.41-1.32-1.23-1.32H1.65C.83,1.09,.42,1.53,.42,2.41V24.98c0,.88,.41,1.32,1.23,1.32h2.67c.82,0,1.23-.44,1.23-1.32V15.36H15.01v9.62c0,.88,.41,1.32,1.23,1.32h2.67c.82,0,1.23-.44,1.23-1.32V2.41c0-.88-.41-1.32-1.23-1.32Z"/><rect class="cls-2" x="24.7" y=".77" width="4.92" height="4.36" rx="1.05" ry="1.05"/><rect class="cls-2" x="24.7" y="7.84" width="4.92" height="18.46" rx="1.05" ry="1.05"/><path class="cls-2" d="M43.75,7.49c-1.18,0-2.19,.17-3.02,.52-.84,.35-1.53,.98-2.07,1.91v-1.02c0-.7-.35-1.05-1.05-1.05h-2.78c-.7,0-1.05,.35-1.05,1.05V25.24c0,.7,.35,1.05,1.05,1.05h2.79c.7,0,1.05-.35,1.05-1.05v-6.93c0-3.01,.31-5,.94-5.95,.62-.96,1.56-1.43,2.79-1.43,1.17,0,1.93,.33,2.28,1s.53,2.28,.53,4.83v8.47c0,.7,.35,1.05,1.05,1.05h2.81c.7,0,1.05-.35,1.05-1.05V15.5c0-3.05-.6-5.14-1.8-6.29-1.2-1.15-2.72-1.72-4.56-1.72Z"/><path class="cls-2" d="M64.18,7.49c-1.18,0-2.19,.17-3.02,.52-.84,.35-1.53,.98-2.07,1.91v-1.02c0-.7-.35-1.05-1.05-1.05h-2.78c-.7,0-1.05,.35-1.05,1.05V25.24c0,.7,.35,1.05,1.05,1.05h2.79c.7,0,1.05-.35,1.05-1.05v-6.93c0-3.01,.31-5,.94-5.95,.62-.96,1.56-1.43,2.79-1.43,1.17,0,1.93,.33,2.28,1s.53,2.28,.53,4.83v8.47c0,.7,.35,1.05,1.05,1.05h2.81c.7,0,1.05-.35,1.05-1.05V15.5c0-3.05-.6-5.14-1.8-6.29-1.2-1.15-2.72-1.72-4.56-1.72Z"/><path class="cls-2" d="M87.57,9.18c-1.31-1.12-3.18-1.69-5.62-1.69-1.44,0-2.61,.12-3.52,.36s-1.63,.5-2.17,.76-1.02,.59-1.43,.95c-.54,.47-.63,.93-.26,1.37l1.46,1.79c.35,.42,.79,.39,1.34-.07,.3-.26,.65-.51,1.03-.76s.83-.47,1.35-.67,1.12-.29,1.8-.29c.96,0,1.71,.22,2.25,.67s.81,1.21,.81,2.29v.7c-2.87,.07-5.43,.63-7.66,1.69s-3.36,2.75-3.36,5.1c0,1.63,.5,2.92,1.49,3.86s2.46,1.42,4.38,1.42c.81,0,1.7-.16,2.66-.47s1.8-.8,2.49-1.47v.53c0,.7,.32,1.05,.96,1.05h2.9c.71,0,1.06-.35,1.06-1.05V14.15c0-2.19-.65-3.85-1.96-4.97Zm-2.96,12.62c-.69,.61-1.32,1-1.88,1.16s-1.14,.25-1.74,.25c-.43,0-.83-.07-1.18-.21s-.61-.36-.77-.66-.25-.65-.25-1.06c0-.52,.14-.96,.43-1.34s.76-.74,1.43-1.09,1.99-.64,3.96-.86v3.81Z"/><path class="cls-2" d="M107.42,7.84h-2.9c-.51,0-.85,.3-1.04,.9l-3.27,10.3c-.09,.57-.16,1.14-.21,1.71s-.09,1.02-.1,1.37h-.06c-.01-.35-.05-.81-.1-1.37s-.13-1.13-.21-1.71l-3.27-10.3c-.18-.6-.53-.9-1.04-.9h-2.9c-.63,0-.8,.46-.51,1.37l5.04,15.91c.24,.79,.67,1.18,1.28,1.18h3.48c.61,0,1.04-.39,1.28-1.18l5.04-15.91c.29-.91,.12-1.37-.51-1.37Z"/><path class="cls-2" d="M118.22,7.49c-3.05,0-5.34,.85-6.88,2.55s-2.31,4.04-2.31,7.03,.77,5.33,2.31,7.03,3.83,2.55,6.88,2.55,5.34-.85,6.88-2.55,2.31-4.04,2.31-7.03-.77-5.33-2.31-7.03-3.83-2.55-6.88-2.55Zm2.96,14.32c-.69,.93-1.67,1.4-2.96,1.4s-2.28-.47-2.96-1.4-1.03-2.51-1.03-4.74,.34-3.81,1.03-4.74,1.67-1.4,2.96-1.4,2.28,.47,2.96,1.4,1.03,2.51,1.03,4.74-.34,3.81-1.03,4.74Z"/><path class="cls-2" d="M112.61,5.48l.74,.33c.39,.18,.7,.01,.95-.49,.18-.35,.39-.61,.64-.76s.56-.24,.92-.24c.41,0,1.06,.3,1.95,.91s1.73,.91,2.53,.91c.94,0,1.73-.26,2.38-.77s1.1-1.14,1.36-1.88c.19-.55,.1-.91-.26-1.07l-.74-.33c-.39-.18-.7-.01-.95,.49-.18,.35-.39,.61-.64,.76s-.56,.24-.92,.24c-.41,0-1.06-.3-1.95-.91s-1.73-.91-2.53-.91c-.94,0-1.73,.26-2.38,.77s-1.1,1.14-1.36,1.88c-.19,.55-.1,.91,.26,1.07Z"/><path class="cls-2" d="M141.32,7.73c-.44-.16-1-.25-1.67-.25-.98,0-1.84,.29-2.56,.86-.72,.57-1.24,1.24-1.55,1.99v-1.44c0-.7-.35-1.05-1.05-1.05h-2.78c-.7,0-1.05,.35-1.05,1.05V25.24c0,.7,.35,1.05,1.05,1.05h2.79c.7,0,1.05-.35,1.05-1.05v-6.4c0-2.58,.37-4.54,1.11-5.89s1.68-2.02,2.81-2.02c.28,0,.58,.05,.88,.16,.53,.18,.84,.05,.95-.42l.49-2.09c.09-.41-.07-.69-.47-.84Z"/><path class="cls-2" d="M158.92,.35h-2.69c-.67,0-1.01,.35-1.01,1.05v7.1c0,.47,.02,.94,.07,1.41h-.07c-.62-1.01-1.31-1.66-2.07-1.97-.76-.3-1.68-.46-2.75-.46-2.8,0-4.77,.95-5.91,2.86-1.14,1.9-1.71,4.15-1.71,6.72s.57,4.82,1.71,6.72c1.14,1.9,3.11,2.86,5.91,2.86,1.07,0,1.99-.15,2.75-.46,.76-.3,1.45-.96,2.07-1.97v1.02c0,.7,.29,1.05,.88,1.05h2.78c.7,0,1.05-.35,1.05-1.05V1.41c0-.7-.34-1.05-1.01-1.05Zm-3.7,17.51c0,1.58-.32,2.87-.97,3.86s-1.42,1.49-2.33,1.49c-1.63,0-2.7-.55-3.2-1.66s-.75-2.6-.75-4.47,.25-3.37,.75-4.47,1.57-1.66,3.2-1.66c.91,0,1.68,.5,2.33,1.49s.97,2.28,.97,3.86v1.58Z"/><path class="cls-2" d="M167.94,0h-1.23c-.35,0-.66,.22-.91,.67l-1.35,2.37c-.25,.43-.37,.91-.37,1.44V25.24c0,.7,.35,1.05,1.05,1.05h2.81c.7,0,1.05-.35,1.05-1.05V1.05c0-.7-.35-1.05-1.05-1.05Z"/><path class="cls-2" d="M188.28,7.84h-2.79c-.7,0-1.05,.35-1.05,1.05v6.93c0,3.01-.31,5-.94,5.95s-1.54,1.43-2.75,1.43c-1.12,0-1.86-.33-2.21-1s-.53-2.28-.53-4.83V8.89c0-.7-.35-1.05-1.05-1.05h-2.81c-.7,0-1.05,.35-1.05,1.05v9.74c0,3.05,.6,5.14,1.79,6.29s2.69,1.72,4.48,1.72c1.15,0,2.15-.17,3-.52s1.54-.98,2.08-1.91v1.02c0,.7,.35,1.05,1.05,1.05h2.78c.7,0,1.05-.35,1.05-1.05V8.89c0-.7-.35-1.05-1.05-1.05Z"/><path class="cls-2" d="M206.09,16.86c-.56-.43-1.14-.77-1.74-1-.69-.27-1.37-.5-2.04-.69s-1.33-.39-1.99-.61c-.32-.1-.65-.22-.99-.33s-.65-.3-.91-.55-.4-.6-.4-1.05c0-.42,.14-.76,.43-1.02s.64-.43,1.05-.53,.84-.14,1.28-.14c.66,0,1.25,.09,1.78,.28s1.08,.43,1.63,.74c.73,.4,1.25,.36,1.58-.11l1.07-1.56c.35-.5,.18-.98-.53-1.42-.45-.28-1.19-.58-2.23-.9s-2.12-.47-3.22-.47c-1.63,0-2.99,.17-4.08,.51s-1.98,.96-2.66,1.85-1.03,1.93-1.03,3.11c0,.88,.14,1.62,.41,2.22s.71,1.15,1.3,1.64,1.2,.87,1.82,1.15c.75,.32,1.53,.6,2.35,.85s1.44,.41,1.87,.52c.33,.08,.64,.19,.93,.31s.53,.31,.72,.56,.28,.54,.28,.89c0,.59-.16,1.03-.47,1.34s-.7,.51-1.16,.62-.95,.16-1.48,.16c-.75,0-1.58-.11-2.49-.32s-1.7-.54-2.36-.98-1.16-.38-1.48,.21l-.9,1.63c-.26,.47-.1,.91,.47,1.32,.82,.59,1.81,1,2.97,1.23s2.57,.35,4.22,.35c1.48,0,2.77-.21,3.88-.62s2.01-1.1,2.69-2.07,1.02-2.03,1.02-3.16c0-.86-.13-1.62-.39-2.28s-.67-1.22-1.23-1.65Z"/><path class="cls-2" d="M212.54,18.91h1.98c.72,0,1.09-.38,1.11-1.14l.46-15.36c.02-.88-.38-1.32-1.2-1.32h-2.74c-.82,0-1.22,.44-1.2,1.32l.46,15.36c.02,.76,.39,1.14,1.11,1.14Z"/><path class="cls-2" d="M214.87,21.3h-2.67c-.82,0-1.23,.44-1.23,1.32v2.36c0,.88,.41,1.32,1.23,1.32h2.67c.82,0,1.23-.44,1.23-1.32v-2.36c0-.88-.41-1.32-1.23-1.32Z"/></g><g class="cls-3"><path class="cls-1" d="M234.43,24.42c1.15,.87,2.36,1.5,3.64,1.89s2.94,.59,4.97,.59c1.38,0,2.8-.18,4.26-.54s2.79-1.15,3.98-2.37,1.79-2.77,1.79-4.65c0-1.27-.2-2.36-.61-3.27s-.92-1.63-1.54-2.16-1.52-1.05-2.69-1.58c-.84-.38-1.76-.72-2.76-1.03s-2.13-.68-3.39-1.08c-.41-.13-.81-.29-1.21-.48s-.76-.49-1.09-.88-.49-.91-.49-1.54,.22-1.21,.67-1.65,.96-.73,1.54-.84,1.22-.18,1.91-.18c.97,0,1.91,.22,2.8,.65s1.6,.83,2.12,1.18c.81,.55,1.45,.5,1.93-.16l1.42-1.92c.38-.5,.19-1.07-.54-1.69-.75-.63-1.86-1.16-3.33-1.58s-2.9-.63-4.28-.63-2.78,.16-4.15,.49-2.58,1.07-3.64,2.23-1.58,2.55-1.58,4.18c0,1.37,.22,2.46,.67,3.26s1.07,1.53,1.88,2.17c.81,.64,1.7,1.15,2.67,1.51,1.09,.44,2.19,.82,3.31,1.14,1.12,.31,2.05,.64,2.79,.95,.42,.18,.83,.39,1.23,.65s.69,.59,.86,.98,.26,.86,.26,1.39c0,.74-.2,1.38-.6,1.92s-.98,.9-1.74,1.09-1.55,.28-2.37,.28c-1.17,0-2.29-.24-3.35-.73s-1.92-.96-2.58-1.42c-.86-.6-1.51-.56-1.95,.11l-1.35,2.04c-.38,.56-.2,1.12,.53,1.67Z"/><path class="cls-1" d="M264.6,26.65c3.05,0,5.34-.85,6.88-2.55s2.31-4.04,2.31-7.03-.77-5.33-2.31-7.03-3.83-2.55-6.88-2.55-5.34,.85-6.88,2.55-2.31,4.04-2.31,7.03,.77,5.33,2.31,7.03,3.83,2.55,6.88,2.55Zm-2.96-14.32c.69-.93,1.67-1.4,2.96-1.4s2.28,.47,2.96,1.4,1.03,2.51,1.03,4.74-.34,3.81-1.03,4.74-1.67,1.4-2.96,1.4-2.28-.47-2.96-1.4-1.03-2.51-1.03-4.74,.34-3.81,1.03-4.74Z"/><path class="cls-1" d="M292.23,10.04c-1.54-1.7-3.83-2.55-6.88-2.55s-5.34,.85-6.88,2.55-2.31,4.04-2.31,7.03,.77,5.33,2.31,7.03,3.83,2.55,6.88,2.55,5.34-.85,6.88-2.55,2.31-4.04,2.31-7.03-.77-5.33-2.31-7.03Zm-3.92,11.77c-.69,.93-1.67,1.4-2.96,1.4s-2.28-.47-2.96-1.4-1.03-2.51-1.03-4.74,.34-3.81,1.03-4.74,1.67-1.4,2.96-1.4,2.28,.47,2.96,1.4,1.03,2.51,1.03,4.74-.34,3.81-1.03,4.74Z"/><path class="cls-1" d="M307.35,26.19c.76-.3,1.45-.96,2.07-1.97v1.02c0,.7,.29,1.05,.88,1.05h2.78c.7,0,1.05-.35,1.05-1.05V1.41c0-.7-.34-1.05-1.01-1.05h-2.69c-.67,0-1.01,.35-1.01,1.05v7.1c0,.47,.02,.94,.07,1.41h-.07c-.62-1.01-1.31-1.66-2.07-1.97-.76-.3-1.68-.46-2.75-.46-2.8,0-4.77,.95-5.91,2.86s-1.71,4.15-1.71,6.72,.57,4.82,1.71,6.72,3.11,2.86,5.91,2.86c1.07,0,1.99-.15,2.75-.46Zm-4.42-4.65c-.5-1.11-.75-2.6-.75-4.47s.25-3.37,.75-4.47,1.57-1.66,3.2-1.66c.91,0,1.68,.5,2.33,1.49s.97,2.28,.97,3.86v1.58c0,1.58-.32,2.87-.97,3.86s-1.42,1.49-2.33,1.49c-1.63,0-2.7-.55-3.2-1.66Z"/><path class="cls-1" d="M328.82,26.03c1.11-.41,2.01-1.1,2.69-2.07s1.02-2.03,1.02-3.16c0-.86-.13-1.62-.39-2.28s-.67-1.22-1.23-1.65-1.14-.77-1.74-1c-.69-.27-1.37-.5-2.04-.69s-1.33-.39-1.99-.61c-.32-.1-.65-.22-.99-.33s-.65-.3-.91-.55-.4-.6-.4-1.05c0-.42,.14-.76,.43-1.02s.64-.43,1.05-.53,.84-.14,1.28-.14c.66,0,1.25,.09,1.78,.28s1.08,.43,1.63,.74c.73,.4,1.25,.36,1.58-.11l1.07-1.56c.35-.5,.18-.98-.53-1.42-.45-.28-1.19-.58-2.23-.9s-2.12-.47-3.22-.47c-1.63,0-2.99,.17-4.08,.51s-1.98,.96-2.66,1.85-1.03,1.93-1.03,3.11c0,.88,.14,1.62,.41,2.22s.71,1.15,1.3,1.64,1.2,.87,1.82,1.15c.75,.32,1.53,.6,2.35,.85s1.44,.41,1.87,.52c.33,.08,.64,.19,.93,.31s.53,.31,.72,.56,.28,.54,.28,.89c0,.59-.16,1.03-.47,1.34s-.7,.51-1.16,.62-.95,.16-1.48,.16c-.75,0-1.58-.11-2.49-.32s-1.7-.54-2.36-.98-1.16-.38-1.48,.21l-.9,1.63c-.26,.47-.1,.91,.47,1.32,.82,.59,1.81,1,2.97,1.23s2.57,.35,4.22,.35c1.48,0,2.77-.21,3.88-.62Z"/><path class="cls-1" d="M348.61,9.18c-1.31-1.12-3.18-1.69-5.62-1.69-1.44,0-2.61,.12-3.52,.36s-1.63,.5-2.17,.76-1.02,.59-1.43,.95c-.54,.47-.63,.93-.26,1.37l1.46,1.79c.35,.42,.79,.39,1.34-.07,.3-.26,.65-.51,1.03-.76s.83-.47,1.35-.67,1.12-.29,1.8-.29c.96,0,1.71,.22,2.25,.67s.81,1.21,.81,2.29v.7c-2.87,.07-5.43,.63-7.66,1.69s-3.36,2.75-3.36,5.1c0,1.63,.5,2.92,1.49,3.86s2.46,1.42,4.38,1.42c.81,0,1.7-.16,2.66-.47s1.8-.8,2.49-1.47v.53c0,.7,.32,1.05,.96,1.05h2.9c.71,0,1.06-.35,1.06-1.05V14.15c0-2.19-.65-3.85-1.96-4.97Zm-2.96,12.62c-.69,.61-1.32,1-1.88,1.16s-1.14,.25-1.74,.25c-.43,0-.83-.07-1.18-.21s-.61-.36-.77-.66-.25-.65-.25-1.06c0-.52,.14-.96,.43-1.34s.76-.74,1.43-1.09,1.99-.64,3.96-.86v3.81Z"/><path class="cls-1" d="M373.74,10.93c.91,0,1.55,.33,1.91,1,.36,.67,.54,2.28,.54,4.83v8.47c0,.7,.35,1.05,1.05,1.05h2.81c.7,0,1.05-.35,1.05-1.05V15.5c0-3.05-.61-5.14-1.82-6.29s-2.7-1.72-4.46-1.72c-1.31,0-2.39,.15-3.23,.46s-1.78,.96-2.82,1.97h-.07c-.3-.62-.86-1.17-1.66-1.68s-1.93-.75-3.38-.75c-.72,0-1.5,.22-2.34,.65s-1.43,1.03-1.78,1.78v-1.02c0-.7-.35-1.05-1.05-1.05h-2.78c-.7,0-1.05,.35-1.05,1.05V25.24c0,.7,.35,1.05,1.05,1.05h2.79c.7,0,1.05-.35,1.05-1.05v-6.93c0-3.01,.35-5,1.06-5.95,.71-.96,1.49-1.43,2.35-1.43,.92,0,1.56,.33,1.92,1,.36,.67,.54,2.28,.54,4.83v8.47c0,.7,.35,1.05,1.05,1.05h2.81c.7,0,1.05-.35,1.05-1.05v-6.93c0-3,.35-4.98,1.06-5.94s1.48-1.44,2.33-1.44Z"/><path class="cls-1" d="M394.97,24.71v.53c0,.7,.32,1.05,.96,1.05h2.9c.71,0,1.06-.35,1.06-1.05V14.15c0-2.19-.65-3.85-1.96-4.97s-3.18-1.69-5.62-1.69c-1.44,0-2.61,.12-3.52,.36s-1.63,.5-2.17,.76-1.02,.59-1.43,.95c-.54,.47-.63,.93-.26,1.37l1.46,1.79c.35,.42,.79,.39,1.34-.07,.3-.26,.65-.51,1.03-.76s.83-.47,1.35-.67,1.12-.29,1.8-.29c.96,0,1.71,.22,2.25,.67s.81,1.21,.81,2.29v.7c-2.87,.07-5.43,.63-7.66,1.69s-3.36,2.75-3.36,5.1c0,1.63,.5,2.92,1.49,3.86s2.46,1.42,4.38,1.42c.81,0,1.7-.16,2.66-.47s1.8-.8,2.49-1.47Zm-4.8-1.72c-.35-.14-.61-.36-.77-.66s-.25-.65-.25-1.06c0-.52,.14-.96,.43-1.34s.76-.74,1.43-1.09,1.99-.64,3.96-.86v3.81c-.69,.61-1.32,1-1.88,1.16s-1.14,.25-1.74,.25c-.43,0-.83-.07-1.18-.21Z"/><path class="cls-1" d="M415.57,24.22v1.02c0,.7,.29,1.05,.88,1.05h2.78c.7,0,1.05-.35,1.05-1.05V1.41c0-.7-.34-1.05-1.01-1.05h-2.69c-.67,0-1.01,.35-1.01,1.05v7.1c0,.47,.02,.94,.07,1.41h-.07c-.62-1.01-1.31-1.66-2.07-1.97-.76-.3-1.68-.46-2.75-.46-2.8,0-4.77,.95-5.91,2.86s-1.71,4.15-1.71,6.72,.57,4.82,1.71,6.72,3.11,2.86,5.91,2.86c1.07,0,1.99-.15,2.75-.46,.76-.3,1.45-.96,2.07-1.97Zm-6.49-2.68c-.5-1.11-.75-2.6-.75-4.47s.25-3.37,.75-4.47,1.57-1.66,3.2-1.66c.91,0,1.68,.5,2.33,1.49s.97,2.28,.97,3.86v1.58c0,1.58-.32,2.87-.97,3.86s-1.42,1.49-2.33,1.49c-1.63,0-2.7-.55-3.2-1.66Z"/><rect class="cls-1" x="437.34" y=".77" width="4.92" height="4.36" rx="1.05" ry="1.05"/><path class="cls-1" d="M442.26,8.89c0-.7-.35-1.05-1.05-1.05h-2.81c-.7,0-1.05,.35-1.05,1.05V25.84c0,1.38-.14,2.46-.42,3.23s-.79,1.16-1.53,1.16c-.63,0-1.05-.04-1.27-.12-.49-.19-.79-.01-.9,.53l-.39,1.93c-.11,.53,.06,.83,.51,.91,.71,.13,1.6,.19,2.65,.19,1.9,0,3.42-.49,4.55-1.48s1.71-2.93,1.71-5.84V8.89Z"/><path class="cls-1" d="M453.84,26.18c.97-.31,1.8-.8,2.49-1.47v.53c0,.7,.32,1.05,.96,1.05h2.9c.71,0,1.06-.35,1.06-1.05V14.15c0-2.19-.65-3.85-1.96-4.97s-3.18-1.69-5.62-1.69c-1.44,0-2.61,.12-3.52,.36s-1.63,.5-2.17,.76-1.02,.59-1.43,.95c-.54,.47-.63,.93-.26,1.37l1.46,1.79c.35,.42,.79,.39,1.34-.07,.3-.26,.65-.51,1.03-.76s.83-.47,1.35-.67,1.12-.29,1.8-.29c.96,0,1.71,.22,2.25,.67s.81,1.21,.81,2.29v.7c-2.87,.07-5.43,.63-7.66,1.69s-3.36,2.75-3.36,5.1c0,1.63,.5,2.92,1.49,3.86s2.46,1.42,4.38,1.42c.81,0,1.7-.16,2.66-.47Zm-3.08-3.85c-.16-.3-.25-.65-.25-1.06,0-.52,.14-.96,.43-1.34s.76-.74,1.43-1.09,1.99-.64,3.96-.86v3.81c-.69,.61-1.32,1-1.88,1.16s-1.14,.25-1.74,.25c-.43,0-.83-.07-1.18-.21s-.61-.36-.77-.66Z"/><path class="cls-1" d="M475.33,24.71v.53c0,.7,.32,1.05,.96,1.05h2.9c.71,0,1.06-.35,1.06-1.05V14.15c0-2.19-.65-3.85-1.96-4.97s-3.18-1.69-5.62-1.69c-1.44,0-2.61,.12-3.52,.36s-1.63,.5-2.17,.76-1.02,.59-1.43,.95c-.54,.47-.63,.93-.26,1.37l1.46,1.79c.35,.42,.79,.39,1.34-.07,.3-.26,.65-.51,1.03-.76s.83-.47,1.35-.67,1.12-.29,1.8-.29c.96,0,1.71,.22,2.25,.67s.81,1.21,.81,2.29v.7c-2.87,.07-5.43,.63-7.66,1.69s-3.36,2.75-3.36,5.1c0,1.63,.5,2.92,1.49,3.86s2.46,1.42,4.38,1.42c.81,0,1.7-.16,2.66-.47s1.8-.8,2.49-1.47Zm-4.8-1.72c-.35-.14-.61-.36-.77-.66s-.25-.65-.25-1.06c0-.52,.14-.96,.43-1.34s.76-.74,1.43-1.09,1.99-.64,3.96-.86v3.81c-.69,.61-1.32,1-1.88,1.16s-1.14,.25-1.74,.25c-.43,0-.83-.07-1.18-.21Z"/><path class="cls-1" d="M492.97,10.93c1.17,0,1.93,.33,2.28,1s.53,2.28,.53,4.83v8.47c0,.7,.35,1.05,1.05,1.05h2.81c.7,0,1.05-.35,1.05-1.05V15.5c0-3.05-.6-5.14-1.8-6.29-1.2-1.15-2.72-1.72-4.56-1.72-1.18,0-2.19,.17-3.02,.52s-1.53,.98-2.07,1.91v-1.02c0-.7-.35-1.05-1.05-1.05h-2.78c-.7,0-1.05,.35-1.05,1.05V25.24c0,.7,.35,1.05,1.05,1.05h2.79c.7,0,1.05-.35,1.05-1.05v-6.93c0-3.01,.31-5,.94-5.95,.62-.96,1.56-1.43,2.79-1.43Z"/><rect class="cls-1" x="504.78" y="7.84" width="4.92" height="18.46" rx="1.05" ry="1.05"/><rect class="cls-1" x="504.78" y=".77" width="4.92" height="4.36" rx="1.05" ry="1.05"/><path class="cls-1" d="M522.14,7.49c-3.05,0-5.34,.85-6.88,2.55s-2.31,4.04-2.31,7.03,.77,5.33,2.31,7.03,3.83,2.55,6.88,2.55,5.34-.85,6.88-2.55,2.31-4.04,2.31-7.03-.77-5.33-2.31-7.03-3.83-2.55-6.88-2.55Zm2.96,14.32c-.69,.93-1.67,1.4-2.96,1.4s-2.28-.47-2.96-1.4-1.03-2.51-1.03-4.74,.34-3.81,1.03-4.74,1.67-1.4,2.96-1.4,2.28,.47,2.96,1.4,1.03,2.51,1.03,4.74-.34,3.81-1.03,4.74Z"/><path class="cls-1" d="M547.01,16.86c-.56-.43-1.14-.77-1.74-1-.69-.27-1.37-.5-2.04-.69s-1.33-.39-1.99-.61c-.32-.1-.65-.22-.99-.33s-.65-.3-.91-.55-.39-.6-.39-1.05c0-.42,.14-.76,.43-1.02s.64-.43,1.05-.53,.84-.14,1.28-.14c.66,0,1.25,.09,1.78,.28s1.08,.43,1.63,.74c.73,.4,1.25,.36,1.58-.11l1.07-1.56c.35-.5,.18-.98-.53-1.42-.45-.28-1.19-.58-2.23-.9s-2.12-.47-3.22-.47c-1.63,0-2.99,.17-4.08,.51s-1.98,.96-2.66,1.85c-.69,.89-1.03,1.93-1.03,3.11,0,.88,.14,1.62,.41,2.22s.71,1.15,1.3,1.64c.59,.49,1.2,.87,1.82,1.15,.75,.32,1.53,.6,2.35,.85s1.44,.41,1.87,.52c.33,.08,.64,.19,.93,.31s.53,.31,.72,.56,.28,.54,.28,.89c0,.59-.16,1.03-.47,1.34s-.7,.51-1.16,.62-.95,.16-1.48,.16c-.75,0-1.58-.11-2.49-.32s-1.7-.54-2.36-.98-1.16-.38-1.48,.21l-.9,1.63c-.26,.47-.1,.91,.47,1.32,.82,.59,1.81,1,2.97,1.23s2.57,.35,4.22,.35c1.48,0,2.77-.21,3.88-.62s2.01-1.1,2.69-2.07,1.02-2.03,1.02-3.16c0-.86-.13-1.62-.39-2.28s-.67-1.22-1.23-1.65Z"/><path class="cls-1" d="M561.91,23.29c-.13-.46-.4-.59-.81-.4-.26,.12-.62,.24-1.07,.36s-.87,.18-1.23,.18c-.71,0-1.16-.26-1.33-.78s-.25-1.38-.25-2.58V11.36h2.85c.69,0,1.04-.29,1.04-.88v-1.76c0-.59-.35-.88-1.04-.88h-2.85V3.8c0-.7-.35-1.05-1.05-1.05h-1.23c-.35,0-.66,.22-.91,.67l-1.35,2.37c-.25,.43-.37,.91-.37,1.44v.62h-1.2c-.69,0-1.04,.29-1.04,.88v1.76c0,.59,.35,.88,1.04,.88h1.2v10.21c0,2.16,.59,3.58,1.78,4.27s2.61,1.04,4.29,1.04c.68,0,1.36-.07,2.03-.22s1.2-.31,1.59-.48c.41-.19,.56-.48,.46-.88l-.53-2Z"/><path class="cls-1" d="M579.71,7.84h-2.79c-.7,0-1.05,.35-1.05,1.05v6.93c0,3.01-.31,5-.94,5.95s-1.54,1.43-2.75,1.43c-1.12,0-1.86-.33-2.21-1s-.53-2.28-.53-4.83V8.89c0-.7-.35-1.05-1.05-1.05h-2.81c-.7,0-1.05,.35-1.05,1.05v9.74c0,3.05,.6,5.14,1.79,6.29s2.69,1.72,4.48,1.72c1.15,0,2.15-.17,2.99-.52s1.54-.98,2.09-1.91v1.02c0,.7,.35,1.05,1.05,1.05h2.78c.7,0,1.05-.35,1.05-1.05V8.89c0-.7-.35-1.05-1.05-1.05Z"/><path class="cls-1" d="M600.19,.35h-2.69c-.67,0-1.01,.35-1.01,1.05v7.1c0,.47,.02,.94,.07,1.41h-.07c-.62-1.01-1.31-1.66-2.07-1.97s-1.68-.46-2.75-.46c-2.8,0-4.77,.95-5.91,2.86-1.14,1.9-1.71,4.15-1.71,6.72s.57,4.82,1.71,6.72c1.14,1.9,3.11,2.86,5.91,2.86,1.07,0,1.99-.15,2.75-.46s1.45-.96,2.07-1.97v1.02c0,.7,.29,1.05,.88,1.05h2.78c.7,0,1.05-.35,1.05-1.05V1.41c0-.7-.34-1.05-1.01-1.05Zm-3.7,17.51c0,1.58-.32,2.87-.97,3.86s-1.42,1.49-2.33,1.49c-1.63,0-2.7-.55-3.2-1.66s-.75-2.6-.75-4.47,.25-3.37,.75-4.47,1.57-1.66,3.2-1.66c.91,0,1.68,.5,2.33,1.49s.97,2.28,.97,3.86v1.58Z"/><path class="cls-1" d="M3.87,39.6h-1.23c-.35,0-.66,.22-.91,.67l-1.35,2.37c-.25,.43-.37,.91-.37,1.44v20.76c0,.7,.35,1.05,1.05,1.05H3.87c.7,0,1.05-.35,1.05-1.05v-24.19c0-.7-.35-1.05-1.05-1.05Z"/><path class="cls-1" d="M16.73,47.09c-2.71,0-4.8,.86-6.28,2.57s-2.22,4.05-2.22,7.01,.71,5.3,2.14,7.01,3.83,2.57,7.19,2.57c2.07,0,3.59-.21,4.55-.63,.96-.42,1.8-1.06,2.51-1.92,.49-.59,.39-1.09-.3-1.51l-1.76-1.07c-.59-.35-1.08-.27-1.48,.25-.35,.45-.79,.8-1.3,1.06s-1.26,.39-2.23,.39-1.92-.25-2.69-.76-1.25-1.73-1.44-3.67h11.6c.66,0,.98-.35,.98-1.05,0-3.59-.76-6.19-2.29-7.8s-3.86-2.43-7-2.43Zm-3.3,7.77c.06-1.34,.41-2.4,1.06-3.17,.65-.77,1.52-1.16,2.62-1.16,1.39,0,2.4,.4,3.03,1.21,.63,.81,.95,1.84,.95,3.12h-7.66Z"/><rect class="cls-1" x="29.17" y="40.37" width="4.92" height="4.36" rx="1.05" ry="1.05"/><rect class="cls-1" x="29.17" y="47.44" width="4.92" height="18.46" rx="1.05" ry="1.05"/><path class="cls-1" d="M51.2,48.78c-1.31-1.12-3.18-1.69-5.62-1.69-1.44,0-2.61,.12-3.52,.36s-1.63,.5-2.17,.76-1.02,.59-1.43,.95c-.54,.47-.63,.93-.26,1.37l1.46,1.79c.35,.42,.79,.39,1.34-.07,.3-.26,.65-.51,1.03-.76s.83-.47,1.35-.67,1.12-.29,1.8-.29c.96,0,1.71,.22,2.25,.67s.81,1.21,.81,2.29v.7c-2.87,.07-5.43,.63-7.66,1.69s-3.36,2.75-3.36,5.1c0,1.63,.5,2.92,1.49,3.86s2.46,1.42,4.38,1.42c.81,0,1.7-.16,2.66-.47s1.8-.8,2.49-1.47v.53c0,.7,.32,1.05,.96,1.05h2.9c.71,0,1.06-.35,1.06-1.05v-11.09c0-2.19-.65-3.85-1.96-4.97Zm-2.96,12.62c-.69,.61-1.32,1-1.88,1.16s-1.14,.25-1.74,.25c-.43,0-.83-.07-1.18-.21s-.61-.36-.77-.66-.25-.65-.25-1.06c0-.52,.14-.96,.43-1.34s.76-.74,1.43-1.09,1.99-.64,3.96-.86v3.81Z"/><path class="cls-1" d="M72.54,39.95h-2.69c-.67,0-1.01,.35-1.01,1.05v7.1c0,.47,.02,.94,.07,1.41h-.07c-.62-1.01-1.31-1.66-2.07-1.97-.76-.3-1.68-.46-2.75-.46-2.8,0-4.77,.95-5.91,2.86s-1.71,4.15-1.71,6.72,.57,4.82,1.71,6.72,3.11,2.86,5.91,2.86c1.07,0,1.99-.15,2.75-.46,.76-.3,1.45-.96,2.07-1.97v1.02c0,.7,.29,1.05,.88,1.05h2.78c.7,0,1.05-.35,1.05-1.05v-23.84c0-.7-.34-1.05-1.01-1.05Zm-3.7,17.51c0,1.58-.32,2.87-.97,3.86s-1.42,1.49-2.33,1.49c-1.63,0-2.7-.55-3.2-1.66s-.75-2.6-.75-4.47,.25-3.37,.75-4.47,1.57-1.66,3.2-1.66c.91,0,1.68,.5,2.33,1.49s.97,2.28,.97,3.86v1.58Z"/><path class="cls-1" d="M102.23,50.98l8-8.78c.93-1.01,.7-1.52-.67-1.52h-3.53c-.45,0-.99,.35-1.62,1.04l-8.58,9.39h-.09c.06-.7,.09-1.41,.09-2.11v-7c0-.88-.41-1.32-1.23-1.32h-2.67c-.82,0-1.23,.44-1.23,1.32v22.57c0,.88,.41,1.32,1.23,1.32h2.67c.82,0,1.23-.44,1.23-1.32v-6.57l2.95-3.27,6.48,10.13c.45,.69,.97,1.04,1.58,1.04h3.29c1.09,0,1.31-.5,.67-1.51l-8.57-13.4Z"/><path class="cls-1" d="M117.56,39.6h-1.23c-.35,0-.66,.22-.91,.67l-1.35,2.37c-.25,.43-.37,.91-.37,1.44v20.76c0,.7,.35,1.05,1.05,1.05h2.81c.7,0,1.05-.35,1.05-1.05v-24.19c0-.7-.35-1.05-1.05-1.05Z"/><rect class="cls-1" x="122.76" y="40.37" width="4.92" height="4.36" rx="1.05" ry="1.05"/><rect class="cls-1" x="122.76" y="47.44" width="4.92" height="18.46" rx="1.05" ry="1.05"/><path class="cls-1" d="M139.5,47.09c-2.71,0-4.8,.86-6.28,2.57s-2.22,4.05-2.22,7.01,.71,5.3,2.14,7.01,3.83,2.57,7.19,2.57c2.07,0,3.59-.21,4.55-.63,.96-.42,1.8-1.06,2.51-1.92,.49-.59,.39-1.09-.3-1.51l-1.76-1.07c-.59-.35-1.08-.27-1.48,.25-.35,.45-.79,.8-1.3,1.06s-1.26,.39-2.23,.39-1.92-.25-2.69-.76-1.25-1.73-1.44-3.67h11.6c.66,0,.98-.35,.98-1.05,0-3.59-.76-6.19-2.29-7.8s-3.86-2.43-7-2.43Zm-3.3,7.77c.06-1.34,.41-2.4,1.06-3.17,.65-.77,1.52-1.16,2.62-1.16,1.39,0,2.4,.4,3.03,1.21,.63,.81,.95,1.84,.95,3.12h-7.66Z"/><path class="cls-1" d="M161.91,47.09c-1.18,0-2.19,.17-3.02,.52-.84,.35-1.53,.98-2.07,1.91v-1.02c0-.7-.35-1.05-1.05-1.05h-2.78c-.7,0-1.05,.35-1.05,1.05v16.35c0,.7,.35,1.05,1.05,1.05h2.79c.7,0,1.05-.35,1.05-1.05v-6.93c0-3.01,.31-5,.94-5.95,.62-.96,1.56-1.43,2.79-1.43,1.17,0,1.93,.33,2.28,1s.53,2.28,.53,4.83v8.47c0,.7,.35,1.05,1.05,1.05h2.81c.7,0,1.05-.35,1.05-1.05v-9.74c0-3.05-.6-5.14-1.8-6.29-1.2-1.15-2.72-1.72-4.56-1.72Z"/><path class="cls-1" d="M187.65,39.95h-2.69c-.67,0-1.01,.35-1.01,1.05v7.1c0,.47,.02,.94,.07,1.41h-.07c-.62-1.01-1.31-1.66-2.07-1.97-.76-.3-1.68-.46-2.75-.46-2.8,0-4.77,.95-5.91,2.86s-1.71,4.15-1.71,6.72,.57,4.82,1.71,6.72,3.11,2.86,5.91,2.86c1.07,0,1.99-.15,2.75-.46,.76-.3,1.45-.96,2.07-1.97v1.02c0,.7,.29,1.05,.88,1.05h2.78c.7,0,1.05-.35,1.05-1.05v-23.84c0-.7-.34-1.05-1.01-1.05Zm-3.7,17.51c0,1.58-.32,2.87-.97,3.86s-1.42,1.49-2.33,1.49c-1.63,0-2.7-.55-3.2-1.66s-.75-2.6-.75-4.47,.25-3.37,.75-4.47,1.57-1.66,3.2-1.66c.91,0,1.68,.5,2.33,1.49s.97,2.28,.97,3.86v1.58Z"/><rect class="cls-1" x="192.8" y="47.44" width="4.92" height="18.46" rx="1.05" ry="1.05"/><rect class="cls-1" x="192.8" y="40.37" width="4.92" height="4.36" rx="1.05" ry="1.05"/><path class="cls-1" d="M205.73,39.6h-1.23c-.35,0-.66,.22-.91,.67l-1.35,2.37c-.25,.43-.37,.91-.37,1.44v20.76c0,.7,.35,1.05,1.05,1.05h2.81c.7,0,1.05-.35,1.05-1.05v-24.19c0-.7-.35-1.05-1.05-1.05Z"/><path class="cls-1" d="M218.6,47.09c-2.71,0-4.8,.86-6.28,2.57s-2.22,4.05-2.22,7.01,.71,5.3,2.14,7.01,3.83,2.57,7.19,2.57c2.07,0,3.59-.21,4.55-.63,.96-.42,1.8-1.06,2.51-1.92,.49-.59,.39-1.09-.3-1.51l-1.76-1.07c-.59-.35-1.08-.27-1.48,.25-.35,.45-.79,.8-1.3,1.06s-1.26,.39-2.23,.39-1.92-.25-2.69-.76-1.25-1.73-1.44-3.67h11.6c.66,0,.98-.35,.98-1.05,0-3.59-.76-6.19-2.29-7.8s-3.86-2.43-7-2.43Zm-3.3,7.77c.06-1.34,.41-2.4,1.06-3.17,.65-.77,1.52-1.16,2.62-1.16,1.39,0,2.4,.4,3.03,1.21,.63,.81,.95,1.84,.95,3.12h-7.66Z"/><path class="cls-1" d="M241.03,47.09c-1.18,0-2.18,.17-3.02,.52-.83,.35-1.52,.98-2.06,1.91h-.07c.05-.47,.07-.94,.07-1.41v-7.1c0-.7-.35-1.05-1.05-1.05h-2.81c-.7,0-1.05,.35-1.05,1.05v23.84c0,.7,.35,1.05,1.05,1.05h2.81c.7,0,1.05-.35,1.05-1.05v-6.93c0-3.01,.31-5,.93-5.95s1.55-1.43,2.78-1.43c1.16,0,1.92,.33,2.27,1s.53,2.28,.53,4.83v8.47c0,.7,.35,1.05,1.05,1.05h2.81c.7,0,1.05-.35,1.05-1.05v-9.74c0-3.05-.6-5.14-1.8-6.29s-2.72-1.72-4.55-1.72Z"/><path class="cls-1" d="M259.06,47.09c-2.71,0-4.8,.86-6.28,2.57s-2.22,4.05-2.22,7.01,.71,5.3,2.14,7.01,3.83,2.57,7.19,2.57c2.07,0,3.59-.21,4.55-.63,.96-.42,1.8-1.06,2.51-1.92,.49-.59,.39-1.09-.3-1.51l-1.76-1.07c-.59-.35-1.08-.27-1.48,.25-.35,.45-.79,.8-1.3,1.06s-1.26,.39-2.23,.39-1.92-.25-2.69-.76-1.25-1.73-1.44-3.67h11.6c.66,0,.98-.35,.98-1.05,0-3.59-.76-6.19-2.29-7.8s-3.86-2.43-7-2.43Zm-3.3,7.77c.06-1.34,.41-2.4,1.06-3.17,.65-.77,1.52-1.16,2.62-1.16,1.39,0,2.4,.4,3.03,1.21,.63,.81,.95,1.84,.95,3.12h-7.66Z"/><path class="cls-1" d="M286.88,39.95h-2.69c-.67,0-1.01,.35-1.01,1.05v7.1c0,.47,.02,.94,.07,1.41h-.07c-.62-1.01-1.31-1.66-2.07-1.97-.76-.3-1.68-.46-2.75-.46-2.8,0-4.77,.95-5.91,2.86s-1.71,4.15-1.71,6.72,.57,4.82,1.71,6.72,3.11,2.86,5.91,2.86c1.07,0,1.99-.15,2.75-.46,.76-.3,1.45-.96,2.07-1.97v1.02c0,.7,.29,1.05,.88,1.05h2.78c.7,0,1.05-.35,1.05-1.05v-23.84c0-.7-.34-1.05-1.01-1.05Zm-3.7,17.51c0,1.58-.32,2.87-.97,3.86s-1.42,1.49-2.33,1.49c-1.63,0-2.7-.55-3.2-1.66s-.75-2.6-.75-4.47,.25-3.37,.75-4.47,1.57-1.66,3.2-1.66c.91,0,1.68,.5,2.33,1.49s.97,2.28,.97,3.86v1.58Z"/><path class="cls-1" d="M296.37,60.9h-2.67c-.82,0-1.23,.44-1.23,1.32v2.36c0,.88,.41,1.32,1.23,1.32h2.67c.82,0,1.23-.44,1.23-1.32v-2.36c0-.88-.41-1.32-1.23-1.32Z"/><path class="cls-1" d="M309.36,47.09c-2.71,0-4.8,.86-6.28,2.57s-2.22,4.05-2.22,7.01,.71,5.3,2.14,7.01,3.83,2.57,7.19,2.57c2.07,0,3.59-.21,4.55-.63,.96-.42,1.8-1.06,2.51-1.92,.49-.59,.39-1.09-.3-1.51l-1.76-1.07c-.59-.35-1.08-.27-1.48,.25-.35,.45-.79,.8-1.3,1.06s-1.26,.39-2.23,.39-1.92-.25-2.69-.76-1.25-1.73-1.44-3.67h11.6c.66,0,.98-.35,.98-1.05,0-3.59-.76-6.19-2.29-7.8s-3.86-2.43-7-2.43Zm-3.3,7.77c.06-1.34,.41-2.4,1.06-3.17,.65-.77,1.52-1.16,2.62-1.16,1.39,0,2.4,.4,3.03,1.21,.63,.81,.95,1.84,.95,3.12h-7.66Z"/><path class="cls-1" d="M329.54,47.09c-2.71,0-4.8,.86-6.28,2.57s-2.22,4.05-2.22,7.01,.71,5.3,2.14,7.01,3.83,2.57,7.19,2.57c2.07,0,3.59-.21,4.55-.63,.96-.42,1.8-1.06,2.51-1.92,.49-.59,.39-1.09-.3-1.51l-1.76-1.07c-.59-.35-1.08-.27-1.48,.25-.35,.45-.79,.8-1.3,1.06s-1.26,.39-2.23,.39-1.92-.25-2.69-.76-1.25-1.73-1.44-3.67h11.6c.66,0,.98-.35,.98-1.05,0-3.59-.76-6.19-2.29-7.8s-3.86-2.43-7-2.43Zm-3.3,7.77c.06-1.34,.41-2.4,1.06-3.17,.65-.77,1.52-1.16,2.62-1.16,1.39,0,2.4,.4,3.03,1.21,.63,.81,.95,1.84,.95,3.12h-7.66Z"/><path class="cls-1" d="M368.98,47.44h-2.9c-.51,0-.85,.3-1.04,.9l-3.27,10.3c-.08,.57-.16,1.14-.21,1.71s-.09,1.02-.1,1.37h-.06c-.01-.35-.05-.81-.1-1.37s-.13-1.13-.21-1.71l-3.27-10.3c-.18-.6-.53-.9-1.04-.9h-2.9c-.63,0-.8,.46-.51,1.37l5.04,15.91c.24,.79,.67,1.18,1.28,1.18h3.48c.61,0,1.04-.39,1.28-1.18l5.04-15.91c.29-.91,.12-1.37-.51-1.37Z"/><path class="cls-1" d="M379.1,47.09c-2.71,0-4.8,.86-6.28,2.57s-2.22,4.05-2.22,7.01,.71,5.3,2.14,7.01,3.83,2.57,7.19,2.57c2.07,0,3.59-.21,4.55-.63,.96-.42,1.8-1.06,2.51-1.92,.49-.59,.39-1.09-.3-1.51l-1.76-1.07c-.59-.35-1.08-.27-1.48,.25-.35,.45-.79,.8-1.3,1.06s-1.26,.39-2.23,.39-1.92-.25-2.69-.76-1.25-1.73-1.44-3.67h11.6c.66,0,.98-.35,.98-1.05,0-3.59-.76-6.19-2.29-7.8s-3.86-2.43-7-2.43Zm-3.3,7.77c.06-1.34,.41-2.4,1.06-3.17,.65-.77,1.52-1.16,2.62-1.16,1.39,0,2.4,.4,3.03,1.21,.63,.81,.95,1.84,.95,3.12h-7.66Z"/><path class="cls-1" d="M399.28,47.09c-2.71,0-4.8,.86-6.28,2.57s-2.22,4.05-2.22,7.01,.71,5.3,2.14,7.01,3.83,2.57,7.19,2.57c2.07,0,3.59-.21,4.55-.63,.96-.42,1.8-1.06,2.51-1.92,.49-.59,.39-1.09-.3-1.51l-1.76-1.07c-.59-.35-1.08-.27-1.48,.25-.35,.45-.79,.8-1.3,1.06s-1.26,.39-2.23,.39-1.92-.25-2.69-.76-1.25-1.73-1.44-3.67h11.6c.66,0,.98-.35,.98-1.05,0-3.59-.76-6.19-2.29-7.8s-3.86-2.43-7-2.43Zm-3.3,7.77c.06-1.34,.41-2.4,1.06-3.17,.65-.77,1.52-1.16,2.62-1.16,1.39,0,2.4,.4,3.03,1.21,.63,.81,.95,1.84,.95,3.12h-7.66Z"/><path class="cls-1" d="M421.38,47.09c-1.05,0-1.96,.15-2.71,.46s-1.43,.96-2.04,1.97h-.07c.05-.47,.07-.94,.07-1.41v-7.1c0-.7-.35-1.05-1.05-1.05h-2.81c-.7,0-1.05,.35-1.05,1.05v23.84c0,.7,.37,1.05,1.1,1.05h2.9c.61,0,.92-.35,.92-1.05v-1.02c.61,1.01,1.29,1.66,2.04,1.97s1.65,.46,2.71,.46c2.75,0,4.69-.95,5.81-2.86s1.68-4.15,1.68-6.72-.56-4.82-1.68-6.72-3.06-2.86-5.81-2.86Zm1.56,14.05c-.49,1.11-1.52,1.66-3.1,1.66-.88,0-1.63-.5-2.26-1.49s-.94-2.28-.94-3.86v-1.58c0-1.58,.31-2.87,.94-3.86s1.38-1.49,2.26-1.49c1.58,0,2.62,.55,3.1,1.66s.73,2.6,.73,4.47-.24,3.37-.73,4.47Z"/><rect class="cls-1" x="432.16" y="40.37" width="4.92" height="4.36" rx="1.05" ry="1.05"/><rect class="cls-1" x="432.16" y="47.44" width="4.92" height="18.46" rx="1.05" ry="1.05"/><path class="cls-1" d="M445.1,39.6h-1.23c-.35,0-.66,.22-.91,.67l-1.35,2.37c-.25,.43-.37,.91-.37,1.44v20.76c0,.7,.35,1.05,1.05,1.05h2.81c.7,0,1.05-.35,1.05-1.05v-24.19c0-.7-.35-1.05-1.05-1.05Z"/><path class="cls-1" d="M457.96,47.09c-2.71,0-4.8,.86-6.28,2.57s-2.22,4.05-2.22,7.01,.71,5.3,2.14,7.01,3.83,2.57,7.19,2.57c2.07,0,3.59-.21,4.55-.63,.96-.42,1.8-1.06,2.51-1.92,.49-.59,.39-1.09-.3-1.51l-1.76-1.07c-.59-.35-1.08-.27-1.48,.25-.35,.45-.79,.8-1.3,1.06s-1.26,.39-2.23,.39-1.92-.25-2.69-.76-1.25-1.73-1.44-3.67h11.6c.66,0,.98-.35,.98-1.05,0-3.59-.76-6.19-2.29-7.8s-3.86-2.43-7-2.43Zm-3.3,7.77c.06-1.34,.41-2.4,1.06-3.17,.65-.77,1.52-1.16,2.62-1.16,1.39,0,2.4,.4,3.03,1.21,.63,.81,.95,1.84,.95,3.12h-7.66Z"/><path class="cls-1" d="M480.4,47.09c-1.17,0-2.18,.17-3.01,.52-.83,.35-1.52,.98-2.06,1.91h-.07c.05-.47,.07-.94,.07-1.41v-7.1c0-.7-.35-1.05-1.05-1.05h-2.81c-.7,0-1.05,.35-1.05,1.05v23.84c0,.7,.35,1.05,1.05,1.05h2.81c.7,0,1.05-.35,1.05-1.05v-6.93c0-3.01,.31-5,.93-5.95s1.55-1.43,2.78-1.43c1.16,0,1.92,.33,2.27,1s.53,2.28,.53,4.83v8.47c0,.7,.35,1.05,1.05,1.05h2.81c.7,0,1.05-.35,1.05-1.05v-9.74c0-3.05-.6-5.14-1.8-6.29-1.2-1.15-2.72-1.72-4.55-1.72Z"/><path class="cls-1" d="M498.42,47.09c-2.71,0-4.8,.86-6.28,2.57s-2.22,4.05-2.22,7.01,.71,5.3,2.14,7.01,3.83,2.57,7.19,2.57c2.07,0,3.59-.21,4.55-.63,.96-.42,1.8-1.06,2.51-1.92,.49-.59,.39-1.09-.3-1.51l-1.76-1.07c-.59-.35-1.08-.27-1.48,.25-.35,.45-.79,.8-1.3,1.06s-1.26,.39-2.23,.39-1.92-.25-2.69-.76-1.25-1.73-1.44-3.67h11.6c.66,0,.98-.35,.98-1.05,0-3.59-.76-6.19-2.29-7.8s-3.86-2.43-7-2.43Zm-3.3,7.77c.06-1.34,.41-2.4,1.06-3.17,.65-.77,1.52-1.16,2.62-1.16,1.39,0,2.4,.4,3.03,1.21,.63,.81,.95,1.84,.95,3.12h-7.66Z"/><path class="cls-1" d="M514.72,39.6h-1.23c-.35,0-.66,.22-.91,.67l-1.35,2.37c-.25,.43-.37,.91-.37,1.44v20.76c0,.7,.35,1.05,1.05,1.05h2.81c.7,0,1.05-.35,1.05-1.05v-24.19c0-.7-.35-1.05-1.05-1.05Z"/><path class="cls-1" d="M530.16,62.89c-.13-.46-.4-.59-.81-.4-.26,.12-.62,.24-1.07,.36s-.87,.18-1.23,.18c-.71,0-1.16-.26-1.33-.78s-.25-1.38-.25-2.58v-8.72h2.85c.69,0,1.04-.29,1.04-.88v-1.76c0-.59-.35-.88-1.04-.88h-2.85v-4.04c0-.7-.35-1.05-1.05-1.05h-1.23c-.35,0-.66,.22-.91,.67l-1.35,2.37c-.25,.43-.37,.91-.37,1.44v.62h-1.2c-.69,0-1.04,.29-1.04,.88v1.76c0,.59,.35,.88,1.04,.88h1.2v10.21c0,2.16,.59,3.58,1.78,4.27s2.61,1.04,4.29,1.04c.68,0,1.36-.07,2.03-.22s1.2-.31,1.59-.48c.41-.19,.56-.48,.46-.88l-.53-2Z"/><path class="cls-1" d="M537.73,60.9h-2.67c-.82,0-1.23,.44-1.23,1.32v2.36c0,.88,.41,1.32,1.23,1.32h2.67c.82,0,1.23-.44,1.23-1.32v-2.36c0-.88-.41-1.32-1.23-1.32Z"/><path class="cls-1" d="M537.76,40.69h-2.74c-.82,0-1.22,.44-1.2,1.32l.46,15.36c.02,.76,.39,1.14,1.11,1.14h1.98c.72,0,1.09-.38,1.11-1.14l.46-15.36c.02-.88-.38-1.32-1.2-1.32Z"/></g></g></g></svg>