<?xml version="1.0" encoding="UTF-8"?><svg id="b" xmlns="http://www.w3.org/2000/svg" viewBox="0 0 80.0065 26.0021"><g id="c"><g><rect width="80.0065" height="26.0021" rx="4.0003" ry="4.0003" style="fill:#f9ca00;"/><g><path d="M19.8463,12.69c-.2742,.3838-.6522,.6929-1.1339,.9283-.4817,.2349-1.0594,.3521-1.7331,.3521h-1.3749l-.552,3.1492h-1.6569l1.4569-8.2014h3.0198c.8382,0,1.4728,.1861,1.9035,.5582s.6463,.8673,.6463,1.4864c0,.1802-.0179,.3443-.0469,.4932-.0851,.4377-.2547,.8502-.5289,1.234Zm-1.6449-.3408c.2586-.2193,.4167-.5184,.4934-.8931,.0145-.0706,.0234-.1724,.0234-.3052,0-.6192-.3838-.9283-1.1515-.9283h-1.2926l-.4346,2.4558h1.3043c.4463,0,.7989-.1099,1.0575-.3291Z" style="fill:#635222;"/><path d="M26.9785,9.4881c.4307,.3799,.6463,.8751,.6463,1.4864,0,.1484-.0097,.3016-.0352,.458-.087,.5339-.335,1.0162-.7227,1.4513-.3877,.4346-.9068,.7383-1.557,.9102l1.3749,3.3255h-1.9152l-1.222-3.1961h-.7872l-.564,3.1961h-1.6569l1.4569-8.2014h3.0786c.8382,0,1.4725,.19,1.9035,.5699Zm-1.0575,1.6979c0-.2979-.094-.5288-.282-.6934-.188-.1646-.4742-.2466-.8577-.2466h-1.3749l-.4346,2.4558h1.3746c.4388,0,.7891-.1099,1.0516-.3291s.429-.521,.4996-.9049c.0156-.1411,.0234-.2349,.0234-.2818Z" style="fill:#635222;"/><path d="M30.0862,16.7611c-.5286-.2935-.9381-.7007-1.2279-1.2218s-.4346-1.1183-.4346-1.7921c0-.94,.2095-1.7858,.6285-2.5378s.9989-1.3414,1.7392-1.7687c.7403-.4268,1.5724-.6402,2.4968-.6402,.6971,0,1.3102,.145,1.839,.4346,.5286,.2901,.9378,.6954,1.2279,1.2164,.2896,.521,.4346,1.1143,.4346,1.7799,0,.9561-.2075,1.8097-.6226,2.5617-.4153,.752-.995,1.3414-1.7392,1.7682-.7442,.4273-1.5824,.6402-2.5144,.6402-.6895,0-1.2984-.1465-1.8273-.4405Zm3.6192-1.5216c.4502-.2974,.7989-.6993,1.0457-1.2042,.2466-.5054,.3701-1.0558,.3701-1.651,0-.6421-.1804-1.1476-.5406-1.5157-.3604-.3682-.8658-.5523-1.5157-.5523-.5799,0-1.0948,.1489-1.545,.4463-.4507,.2979-.7991,.6973-1.046,1.1988-.2466,.5015-.3699,1.0499-.3699,1.6447,0,.6426,.178,1.15,.5345,1.5216,.3565,.3726,.8597,.5582,1.5099,.5582,.5875,0,1.1063-.1484,1.557-.4463Z" style="fill:#635222;"/><path d="M39.3099,16.7611c-.5286-.2935-.9381-.7007-1.2279-1.2218s-.4346-1.1183-.4346-1.7921c0-.94,.2095-1.7858,.6285-2.5378s.9989-1.3414,1.7392-1.7687c.7403-.4268,1.5724-.6402,2.4968-.6402,.6971,0,1.3102,.145,1.839,.4346,.5286,.2901,.9378,.6954,1.2279,1.2164,.2896,.521,.4346,1.1143,.4346,1.7799,0,.9561-.2075,1.8097-.6226,2.5617-.4153,.752-.995,1.3414-1.7392,1.7682-.7442,.4273-1.5824,.6402-2.5144,.6402-.6895,0-1.2984-.1465-1.8273-.4405Zm3.6192-1.5216c.4502-.2974,.7989-.6993,1.0457-1.2042,.2466-.5054,.3701-1.0558,.3701-1.651,0-.6421-.1804-1.1476-.5406-1.5157-.3604-.3682-.8658-.5523-1.5157-.5523-.5799,0-1.0948,.1489-1.545,.4463-.4507,.2979-.7991,.6973-1.046,1.1988-.2466,.5015-.3699,1.0499-.3699,1.6447,0,.6426,.178,1.15,.5345,1.5216,.3565,.3726,.8597,.5582,1.5099,.5582,.5875,0,1.1063-.1484,1.557-.4463Z" style="fill:#635222;"/><polygon points="49.0914 8.9182 50.1843 15.4392 53.5918 8.9182 55.3424 8.9182 50.8892 17.1196 48.8917 17.1196 47.3291 8.9182 49.0914 8.9182" style="fill:#635222;"/><polygon points="57.9745 8.9182 56.5293 17.1196 54.8724 17.1196 56.3293 8.9182 57.9745 8.9182" style="fill:#635222;"/><polygon points="65.1655 17.1196 63.5089 17.1196 60.7945 11.4912 59.7959 17.1196 58.139 17.1196 59.5959 8.9065 61.2411 8.9065 63.9671 14.5461 64.9658 8.9065 66.6109 8.9065 65.1655 17.1196" style="fill:#635222;"/></g></g></g></svg>