<?xml version="1.0" encoding="UTF-8"?><svg id="Layer_2" xmlns="http://www.w3.org/2000/svg" viewBox="0 0 550.39 212.32"><defs><style>.cls-1{fill:#fff;}</style></defs><g id="bg"><g><path class="cls-1" d="M22.78,26.93H10.39l-2.33,6.92H.71L12.71,.21h7.94l11.92,33.64h-7.62l-2.17-6.92Zm-1.96-5.8l-4.2-13.24-4.34,13.24h8.54Z"/><path class="cls-1" d="M48.02,13.79c-2.21,0-3.73,.93-4.54,2.81-.43,.99-.64,2.25-.64,3.79v13.47h-6.48V9.02h6.28v3.63c.84-1.28,1.63-2.2,2.37-2.76,1.34-1.01,3.04-1.51,5.09-1.51,2.57,0,4.68,.67,6.31,2.02s2.45,3.58,2.45,6.7v16.75h-6.67v-15.13c0-1.31-.17-2.31-.52-3.01-.64-1.28-1.86-1.92-3.65-1.92Z"/><path class="cls-1" d="M76.58,13.79c-2.21,0-3.73,.93-4.54,2.81-.43,.99-.64,2.25-.64,3.79v13.47h-6.48V9.02h6.28v3.63c.84-1.28,1.63-2.2,2.37-2.76,1.34-1.01,3.04-1.51,5.09-1.51,2.57,0,4.68,.67,6.31,2.02s2.45,3.58,2.45,6.7v16.75h-6.67v-15.13c0-1.31-.17-2.31-.52-3.01-.64-1.28-1.86-1.92-3.65-1.92Z"/><path class="cls-1" d="M94.36,11.66c1.71-2.2,4.67-3.29,8.86-3.29,2.72,0,5.14,.54,7.26,1.62,2.11,1.08,3.17,3.12,3.17,6.12,0,0,.02,13.16,.05,14.29,.05,.85,.17,1.43,.39,1.74,.21,.3,.53,.56,.96,.75v.96h-7.08c-.2-.5-.33-.97-.41-1.42s-.14-.94-.18-1.51c-.9,.97-1.93,1.8-3.1,2.49-1.4,.81-2.98,1.21-4.75,1.21-2.25,0-4.11-.64-5.58-1.93-1.47-1.29-2.2-3.11-2.2-5.47,0-3.06,1.18-5.28,3.54-6.64,1.29-.75,3.2-1.28,5.71-1.6l2.21-.27c1.2-.15,2.06-.35,2.58-.57,.93-.4,1.39-1.01,1.39-1.85,0-1.02-.35-1.72-1.06-2.11s-1.75-.58-3.12-.58c-1.54,0-2.62,.38-3.26,1.14-.46,.56-.76,1.32-.91,2.28h-6.28c.14-2.18,.74-3.97,1.83-5.36Zm4.84,17.48c.61,.5,1.35,.75,2.24,.75,1.4,0,2.69-.41,3.87-1.23,1.18-.82,1.79-2.32,1.84-4.5v-2.42c-.41,.26-.83,.47-1.24,.63s-.99,.31-1.72,.45l-1.46,.27c-1.37,.24-2.35,.54-2.94,.89-1,.59-1.51,1.51-1.51,2.76,0,1.11,.31,1.91,.94,2.4Z"/><path class="cls-1" d="M153.25,11.64c2.01,2.15,3.01,5.29,3.01,9.45,0,4.38-.99,7.72-2.96,10.02-1.97,2.3-4.51,3.45-7.61,3.45-1.98,0-3.63-.49-4.93-1.48-.72-.55-1.42-1.35-2.1-2.4v12.96h-6.44V8.97h6.23v3.67c.7-1.08,1.44-1.94,2.24-2.56,1.44-1.12,3.17-1.67,5.16-1.67,2.91,0,5.37,1.07,7.4,3.22Zm-3.7,9.77c0-1.92-.44-3.61-1.31-5.09-.88-1.48-2.29-2.21-4.26-2.21-2.36,0-3.99,1.12-4.86,3.36-.46,1.19-.69,2.69-.69,4.52,0,2.89,.76,4.93,2.31,6.09,.91,.69,1.99,1.03,3.24,1.03,1.81,0,3.19-.7,4.14-2.1,.95-1.4,1.43-3.26,1.43-5.59Z"/><path class="cls-1" d="M161.9,11.66c1.71-2.2,4.67-3.29,8.86-3.29,2.72,0,5.14,.54,7.26,1.62,2.11,1.08,3.17,3.12,3.17,6.12,0,0,.02,13.16,.05,14.29,.05,.85,.17,1.43,.39,1.74,.21,.3,.53,.56,.96,.75v.96h-7.08c-.2-.5-.33-.97-.41-1.42s-.14-.94-.18-1.51c-.9,.97-1.93,1.8-3.1,2.49-1.4,.81-2.98,1.21-4.75,1.21-2.25,0-4.11-.64-5.58-1.93-1.47-1.29-2.2-3.11-2.2-5.47,0-3.06,1.18-5.28,3.54-6.64,1.29-.75,3.2-1.28,5.71-1.6l2.21-.27c1.2-.15,2.06-.35,2.58-.57,.93-.4,1.39-1.01,1.39-1.85,0-1.02-.35-1.72-1.06-2.11s-1.75-.58-3.12-.58c-1.54,0-2.62,.38-3.26,1.14-.46,.56-.76,1.32-.91,2.28h-6.28c.14-2.18,.74-3.97,1.83-5.36Zm4.84,17.48c.61,.5,1.35,.75,2.24,.75,1.4,0,2.69-.41,3.87-1.23,1.18-.82,1.79-2.32,1.84-4.5v-2.42c-.41,.26-.83,.47-1.24,.63s-.99,.31-1.72,.45l-1.46,.27c-1.37,.24-2.35,.54-2.94,.89-1,.59-1.51,1.51-1.51,2.76,0,1.11,.31,1.91,.94,2.4Z"/><path class="cls-1" d="M198.67,13.79c-2.21,0-3.73,.93-4.54,2.81-.43,.99-.64,2.25-.64,3.79v13.47h-6.48V9.02h6.28v3.63c.84-1.28,1.63-2.2,2.37-2.76,1.34-1.01,3.04-1.51,5.09-1.51,2.57,0,4.68,.67,6.31,2.02s2.45,3.58,2.45,6.7v16.75h-6.67v-15.13c0-1.31-.17-2.31-.52-3.01-.64-1.28-1.86-1.92-3.65-1.92Z"/><path class="cls-1" d="M231.47,30.33c-.06,.08-.21,.3-.46,.69-.24,.38-.54,.71-.87,1-1.03,.9-2.01,1.54-2.96,1.87-.95,.34-2.07,.5-3.34,.5-3.68,0-6.16-1.33-7.44-3.97-.71-1.46-1.07-3.61-1.07-6.46V8.97h6.67v15c0,1.41,.17,2.48,.5,3.2,.59,1.26,1.76,1.89,3.49,1.89,2.22,0,3.76-.89,4.56-2.69,.43-.97,.64-2.26,.64-3.86V8.97h6.6v24.88h-6.32v-3.52Z"/><path class="cls-1" d="M261.21,10.11c1.95,1.25,3.07,3.39,3.35,6.44h-6.5c-.09-.84-.32-1.5-.71-1.99-.71-.89-1.93-1.32-3.65-1.32-1.42,0-2.42,.22-3.02,.66s-.9,.96-.9,1.55c0,.75,.32,1.29,.96,1.62,.64,.35,2.9,.95,6.78,1.8,2.59,.61,4.53,1.53,5.82,2.76,1.28,1.25,1.92,2.81,1.92,4.68,0,2.46-.92,4.48-2.75,6.04-1.83,1.56-4.67,2.34-8.5,2.34s-6.8-.83-8.66-2.48c-1.86-1.65-2.8-3.75-2.8-6.31h6.6c.14,1.16,.43,1.98,.89,2.46,.81,.87,2.3,1.3,4.47,1.3,1.28,0,2.29-.19,3.05-.57,.75-.38,1.13-.95,1.13-1.71s-.3-1.29-.91-1.67c-.61-.38-2.87-1.03-6.78-1.96-2.81-.7-4.8-1.58-5.96-2.62-1.16-1.03-1.73-2.53-1.73-4.47,0-2.3,.9-4.27,2.7-5.92,1.8-1.65,4.34-2.48,7.61-2.48s5.64,.62,7.6,1.85Z"/><path class="cls-1" d="M301.57,26.93h-12.39l-2.33,6.92h-7.35L291.5,.21h7.94l11.92,33.64h-7.62l-2.17-6.92Zm-1.96-5.8l-4.2-13.24-4.34,13.24h8.54Z"/><path class="cls-1" d="M326.81,13.79c-2.21,0-3.73,.93-4.54,2.81-.43,.99-.64,2.25-.64,3.79v13.47h-6.48V9.02h6.28v3.63c.84-1.28,1.63-2.2,2.37-2.76,1.34-1.01,3.04-1.51,5.09-1.51,2.57,0,4.68,.67,6.31,2.02s2.45,3.58,2.45,6.7v16.75h-6.67v-15.13c0-1.31-.17-2.31-.52-3.01-.64-1.28-1.86-1.92-3.65-1.92Z"/><path class="cls-1" d="M366.3,.25V33.85h-6.32v-3.45c-.93,1.48-1.99,2.55-3.17,3.22-1.19,.67-2.66,1-4.43,1-2.91,0-5.35-1.17-7.34-3.53-1.99-2.35-2.98-5.37-2.98-9.05,0-4.25,.98-7.59,2.93-10.02,1.96-2.44,4.57-3.65,7.84-3.65,1.51,0,2.85,.33,4.02,.99,1.17,.66,2.12,1.58,2.85,2.75V.25h6.6Zm-17.53,21.32c0,2.3,.46,4.13,1.37,5.5,.9,1.38,2.27,2.08,4.11,2.08s3.24-.68,4.2-2.05c.96-1.37,1.44-3.14,1.44-5.32,0-3.04-.76-5.23-2.31-6.53-.94-.79-2.04-1.19-3.29-1.19-1.9,0-3.3,.72-4.19,2.16s-1.34,3.22-1.34,5.35Z"/><path class="cls-1" d="M384.72,14.97c-2.62,0-4.38,.85-5.27,2.56-.5,.96-.75,2.44-.75,4.43v11.89h-6.55V8.97h6.21v4.34c1-1.66,1.88-2.79,2.62-3.4,1.22-1.01,2.8-1.53,4.75-1.53,.12,0,.22,0,.31,.01,.08,0,.27,.02,.56,.03v6.67c-.41-.05-.78-.08-1.1-.09-.32-.02-.58-.02-.78-.02Z"/><path class="cls-1" d="M411.7,26.54c-.17,1.48-.94,2.97-2.31,4.5-2.14,2.41-5.11,3.63-8.95,3.63-3.17,0-5.96-1.02-8.38-3.06s-3.63-5.36-3.63-9.95c0-4.31,1.09-7.61,3.28-9.91s5.02-3.45,8.5-3.45c2.07,0,3.93,.39,5.59,1.16,1.66,.78,3.03,2,4.11,3.67,.97,1.48,1.61,3.19,1.89,5.14,.17,1.14,.24,2.78,.21,4.93h-17.03c.09,2.5,.88,4.24,2.35,5.25,.9,.62,1.98,.94,3.24,.94,1.34,0,2.43-.38,3.26-1.14,.46-.41,.86-.98,1.21-1.71h6.64Zm-6.44-7.62c-.11-1.72-.63-3.02-1.56-3.91-.94-.89-2.1-1.34-3.48-1.34-1.51,0-2.67,.47-3.5,1.42-.83,.94-1.35,2.22-1.56,3.83h10.11Z"/><polygon class="cls-1" points="453.77 6.16 436.9 6.16 436.9 13.9 451.67 13.9 451.67 19.74 436.9 19.74 436.9 33.85 429.92 33.85 429.92 .25 453.77 .25 453.77 6.16"/><path class="cls-1" d="M458.88,11.66c1.71-2.2,4.67-3.29,8.86-3.29,2.72,0,5.14,.54,7.26,1.62,2.11,1.08,3.17,3.12,3.17,6.12,0,0,.02,13.16,.05,14.29,.05,.85,.17,1.43,.39,1.74,.21,.3,.53,.56,.96,.75v.96h-7.08c-.2-.5-.33-.97-.41-1.42s-.14-.94-.18-1.51c-.9,.97-1.93,1.8-3.1,2.49-1.4,.81-2.98,1.21-4.75,1.21-2.25,0-4.11-.64-5.58-1.93-1.47-1.29-2.2-3.11-2.2-5.47,0-3.06,1.18-5.28,3.54-6.64,1.29-.75,3.2-1.28,5.71-1.6l2.21-.27c1.2-.15,2.06-.35,2.58-.57,.93-.4,1.39-1.01,1.39-1.85,0-1.02-.35-1.72-1.06-2.11s-1.75-.58-3.12-.58c-1.54,0-2.62,.38-3.26,1.14-.46,.56-.76,1.32-.91,2.28h-6.28c.14-2.18,.74-3.97,1.83-5.36Zm4.84,17.48c.61,.5,1.35,.75,2.24,.75,1.4,0,2.69-.41,3.87-1.23,1.18-.82,1.79-2.32,1.84-4.5v-2.42c-.41,.26-.83,.47-1.24,.63s-.99,.31-1.72,.45l-1.46,.27c-1.37,.24-2.35,.54-2.94,.89-1,.59-1.51,1.51-1.51,2.76,0,1.11,.31,1.91,.94,2.4Z"/><path class="cls-1" d="M496.45,14.97c-2.62,0-4.38,.85-5.27,2.56-.5,.96-.75,2.44-.75,4.43v11.89h-6.55V8.97h6.21v4.34c1-1.66,1.88-2.79,2.62-3.4,1.22-1.01,2.8-1.53,4.75-1.53,.12,0,.22,0,.31,.01,.08,0,.27,.02,.56,.03v6.67c-.41-.05-.78-.08-1.1-.09-.32-.02-.58-.02-.78-.02Z"/><path class="cls-1" d="M516.11,15.82c-.55-1.2-1.62-1.8-3.22-1.8-1.86,0-3.11,.6-3.74,1.8-.36,.68-.52,1.7-.52,3.06v14.97h-6.6V9.02h6.32v3.63c.81-1.29,1.57-2.21,2.28-2.76,1.26-.97,2.9-1.46,4.91-1.46,1.9,0,3.44,.42,4.61,1.26,.94,.78,1.66,1.77,2.15,2.99,.85-1.46,1.91-2.53,3.17-3.22,1.34-.68,2.83-1.03,4.47-1.03,1.1,0,2.18,.21,3.24,.64,1.06,.43,2.03,1.17,2.9,2.24,.7,.87,1.17,1.93,1.42,3.2,.15,.84,.21,2.06,.21,3.67v15.68h-6.69v-15.84c0-.94-.15-1.72-.46-2.33-.58-1.16-1.64-1.74-3.2-1.74-1.8,0-3.05,.74-3.72,2.24-.36,.79-.52,1.74-.52,2.85v14.81h-6.55v-14.81c0-1.48-.15-2.55-.46-3.22Z"/><path class="cls-1" d="M550.39,0V6h-6.6V0h6.6Zm0,8.97v24.88h-6.6V8.97h6.6Z"/><path class="cls-1" d="M23.4,67.74c2.01,2.15,3.01,5.29,3.01,9.45,0,4.38-.99,7.72-2.96,10.02-1.97,2.3-4.51,3.45-7.61,3.45-1.98,0-3.63-.49-4.93-1.48-.72-.55-1.42-1.35-2.1-2.4v12.96H2.37v-34.67h6.23v3.67c.7-1.08,1.44-1.94,2.24-2.56,1.44-1.12,3.17-1.67,5.16-1.67,2.91,0,5.37,1.07,7.4,3.22Zm-3.7,9.77c0-1.92-.44-3.61-1.31-5.09-.88-1.48-2.29-2.21-4.26-2.21-2.36,0-3.99,1.12-4.86,3.36-.46,1.19-.69,2.69-.69,4.52,0,2.89,.76,4.93,2.31,6.09,.91,.69,1.99,1.03,3.24,1.03,1.81,0,3.19-.7,4.14-2.1,.95-1.4,1.43-3.26,1.43-5.59Z"/><path class="cls-1" d="M37.8,56.1v6h-6.6v-6h6.6Zm0,8.97v24.88h-6.6v-24.88h6.6Z"/><path class="cls-1" d="M50.79,56.1v6h-6.6v-6h6.6Zm0,8.97v24.88h-6.6v-24.88h6.6Z"/><path class="cls-1" d="M71.06,71.91c-.55-1.2-1.62-1.8-3.22-1.8-1.86,0-3.11,.6-3.74,1.8-.36,.68-.52,1.7-.52,3.06v14.97h-6.6v-24.83h6.32v3.63c.81-1.29,1.57-2.21,2.28-2.76,1.26-.97,2.9-1.46,4.91-1.46,1.9,0,3.44,.42,4.61,1.26,.94,.78,1.66,1.77,2.15,2.99,.85-1.46,1.91-2.53,3.17-3.22,1.34-.68,2.83-1.03,4.47-1.03,1.1,0,2.18,.21,3.24,.64,1.06,.43,2.03,1.17,2.9,2.24,.7,.87,1.17,1.93,1.42,3.2,.15,.84,.21,2.06,.21,3.67v15.68h-6.69v-15.84c0-.94-.15-1.72-.46-2.33-.58-1.16-1.64-1.74-3.2-1.74-1.8,0-3.05,.74-3.72,2.24-.36,.79-.52,1.74-.52,2.85v14.81h-6.55v-14.81c0-1.48-.15-2.55-.46-3.22Z"/><path class="cls-1" d="M99.59,67.76c1.71-2.2,4.67-3.29,8.86-3.29,2.72,0,5.14,.54,7.26,1.62,2.11,1.08,3.17,3.12,3.17,6.12,0,0,.02,13.16,.05,14.29,.05,.85,.17,1.43,.39,1.74,.21,.3,.53,.56,.96,.75v.96h-7.08c-.2-.5-.33-.97-.41-1.42s-.14-.94-.18-1.51c-.9,.97-1.93,1.8-3.1,2.49-1.4,.81-2.98,1.21-4.75,1.21-2.25,0-4.11-.64-5.58-1.93-1.47-1.29-2.2-3.11-2.2-5.47,0-3.06,1.18-5.28,3.54-6.64,1.29-.75,3.2-1.28,5.71-1.6l2.21-.27c1.2-.15,2.06-.35,2.58-.57,.93-.4,1.39-1.01,1.39-1.85,0-1.02-.35-1.72-1.06-2.11s-1.75-.58-3.12-.58c-1.54,0-2.62,.38-3.26,1.14-.46,.56-.76,1.32-.91,2.28h-6.28c.14-2.18,.74-3.97,1.83-5.36Zm4.84,17.48c.61,.5,1.35,.75,2.24,.75,1.4,0,2.69-.41,3.87-1.23,1.18-.82,1.79-2.32,1.84-4.5v-2.42c-.41,.26-.83,.47-1.24,.63s-.99,.31-1.72,.45l-1.46,.27c-1.37,.24-2.35,.54-2.94,.89-1,.59-1.51,1.51-1.51,2.76,0,1.11,.31,1.91,.94,2.4Z"/><rect class="cls-1" x="122.69" y="73.83" width="13.1" height="6.16"/><path class="cls-1" d="M153.5,65.18h6.51v27.44c0,2.51-.49,4.37-1.48,5.57-.99,1.2-2.93,1.8-5.82,1.8-.2,0-.49,0-.88-.02-.39-.02-.87-.03-1.45-.05v-5.2c.37,.03,.62,.05,.78,.06,.15,0,.29,.01,.41,.01,.64,0,1.12-.16,1.45-.47,.33-.31,.49-.92,.49-1.81v-27.32Zm0-9.08h6.51v6h-6.51v-6Z"/><path class="cls-1" d="M167.13,67.76c1.71-2.2,4.67-3.29,8.86-3.29,2.72,0,5.14,.54,7.26,1.62,2.11,1.08,3.17,3.12,3.17,6.12,0,0,.02,13.16,.05,14.29,.05,.85,.17,1.43,.39,1.74,.21,.3,.53,.56,.96,.75v.96h-7.08c-.2-.5-.33-.97-.41-1.42s-.14-.94-.18-1.51c-.9,.97-1.93,1.8-3.1,2.49-1.4,.81-2.98,1.21-4.75,1.21-2.25,0-4.11-.64-5.58-1.93-1.47-1.29-2.2-3.11-2.2-5.47,0-3.06,1.18-5.28,3.54-6.64,1.29-.75,3.2-1.28,5.71-1.6l2.21-.27c1.2-.15,2.06-.35,2.58-.57,.93-.4,1.39-1.01,1.39-1.85,0-1.02-.35-1.72-1.06-2.11s-1.75-.58-3.12-.58c-1.54,0-2.62,.38-3.26,1.14-.46,.56-.76,1.32-.91,2.28h-6.28c.14-2.18,.74-3.97,1.83-5.36Zm4.84,17.48c.61,.5,1.35,.75,2.24,.75,1.4,0,2.69-.41,3.87-1.23,1.18-.82,1.79-2.32,1.84-4.5v-2.42c-.41,.26-.83,.47-1.24,.63s-.99,.31-1.72,.45l-1.46,.27c-1.37,.24-2.35,.54-2.94,.89-1,.59-1.51,1.51-1.51,2.76,0,1.11,.31,1.91,.94,2.4Z"/><path class="cls-1" d="M205.47,65.18h6.51v27.44c0,2.51-.49,4.37-1.48,5.57-.99,1.2-2.93,1.8-5.82,1.8-.2,0-.49,0-.88-.02-.39-.02-.87-.03-1.45-.05v-5.2c.37,.03,.62,.05,.78,.06,.15,0,.29,.01,.41,.01,.64,0,1.12-.16,1.45-.47,.33-.31,.49-.92,.49-1.81v-27.32Zm0-9.08h6.51v6h-6.51v-6Z"/><path class="cls-1" d="M234.12,86.43c-.06,.08-.21,.3-.46,.69-.24,.38-.54,.71-.87,1-1.03,.9-2.01,1.54-2.96,1.87-.95,.34-2.07,.5-3.34,.5-3.68,0-6.16-1.33-7.44-3.97-.71-1.46-1.07-3.61-1.07-6.46v-15h6.67v15c0,1.41,.17,2.48,.5,3.2,.59,1.26,1.76,1.89,3.49,1.89,2.22,0,3.76-.89,4.56-2.69,.43-.97,.64-2.26,.64-3.86v-13.54h6.6v24.88h-6.32v-3.52Z"/><path class="cls-1" d="M262.68,86.43c-.06,.08-.21,.3-.46,.69-.24,.38-.54,.71-.87,1-1.03,.9-2.01,1.54-2.96,1.87-.95,.34-2.07,.5-3.34,.5-3.68,0-6.16-1.33-7.44-3.97-.71-1.46-1.07-3.61-1.07-6.46v-15h6.67v15c0,1.41,.17,2.48,.5,3.2,.59,1.26,1.76,1.89,3.49,1.89,2.22,0,3.76-.89,4.56-2.69,.43-.97,.64-2.26,.64-3.86v-13.54h6.6v24.88h-6.32v-3.52Z"/><path class="cls-1" d="M292.42,66.21c1.95,1.25,3.07,3.39,3.35,6.44h-6.5c-.09-.84-.32-1.5-.71-1.99-.71-.89-1.93-1.32-3.65-1.32-1.42,0-2.42,.22-3.02,.66s-.9,.96-.9,1.55c0,.75,.32,1.29,.96,1.62,.64,.35,2.9,.95,6.78,1.8,2.59,.61,4.53,1.53,5.82,2.76,1.28,1.25,1.92,2.81,1.92,4.68,0,2.46-.92,4.48-2.75,6.04-1.83,1.56-4.67,2.34-8.5,2.34s-6.8-.83-8.66-2.48c-1.86-1.65-2.8-3.75-2.8-6.31h6.6c.14,1.16,.43,1.98,.89,2.46,.81,.87,2.3,1.3,4.47,1.3,1.28,0,2.29-.19,3.05-.57,.75-.38,1.13-.95,1.13-1.71s-.3-1.29-.91-1.67c-.61-.38-2.87-1.03-6.78-1.96-2.81-.7-4.8-1.58-5.96-2.62-1.16-1.03-1.73-2.53-1.73-4.47,0-2.3,.9-4.27,2.7-5.92,1.8-1.65,4.34-2.48,7.61-2.48s5.64,.62,7.6,1.85Z"/><path class="cls-1" d="M312.66,85.31v4.86l-3.08,.11c-3.07,.11-5.17-.43-6.3-1.6-.73-.75-1.1-1.89-1.1-3.45v-15.32h-3.47v-4.63h3.47v-6.94h6.44v6.94h4.04v4.63h-4.04v13.15c0,1.02,.13,1.66,.39,1.91,.26,.25,1.05,.38,2.37,.38,.2,0,.41,0,.63-.01s.44-.02,.65-.03Z"/><path class="cls-1" d="M332.79,86.43c-.06,.08-.21,.3-.46,.69-.24,.38-.54,.71-.87,1-1.03,.9-2.01,1.54-2.96,1.87-.95,.34-2.07,.5-3.34,.5-3.68,0-6.16-1.33-7.44-3.97-.71-1.46-1.07-3.61-1.07-6.46v-15h6.67v15c0,1.41,.17,2.48,.5,3.2,.59,1.26,1.76,1.89,3.49,1.89,2.22,0,3.76-.89,4.56-2.69,.43-.97,.64-2.26,.64-3.86v-13.54h6.6v24.88h-6.32v-3.52Z"/><rect class="cls-1" x="343.43" y="73.83" width="13.1" height="6.16"/><path class="cls-1" d="M13.95,141.41v4.86l-3.08,.11c-3.07,.11-5.17-.43-6.3-1.6-.73-.75-1.1-1.89-1.1-3.45v-15.32H0v-4.63H3.47v-6.94h6.44v6.94h4.04v4.63h-4.04v13.15c0,1.02,.13,1.66,.39,1.91,.26,.25,1.05,.38,2.37,.38,.2,0,.41,0,.63-.01s.44-.02,.65-.03Z"/><path class="cls-1" d="M38.87,124.31c2.1,2.63,3.15,5.74,3.15,9.33s-1.05,6.78-3.15,9.37c-2.1,2.59-5.29,3.89-9.56,3.89s-7.46-1.3-9.56-3.89c-2.1-2.59-3.15-5.72-3.15-9.37s1.05-6.7,3.15-9.33c2.1-2.63,5.29-3.95,9.56-3.95s7.46,1.32,9.56,3.95Zm-17.12-12.35h5.96v5.41h-5.96v-5.41Zm7.53,13.9c-1.9,0-3.37,.67-4.39,2.02-1.03,1.35-1.54,3.27-1.54,5.76s.51,4.42,1.54,5.78c1.03,1.35,2.49,2.03,4.39,2.03s3.36-.68,4.38-2.03c1.02-1.35,1.53-3.28,1.53-5.78s-.51-4.42-1.53-5.76c-1.02-1.35-2.48-2.02-4.38-2.02Zm1.6-13.9h5.96v5.41h-5.96v-5.41Z"/><path class="cls-1" d="M67.43,124.31c2.1,2.63,3.15,5.74,3.15,9.33s-1.05,6.78-3.15,9.37c-2.1,2.59-5.29,3.89-9.56,3.89s-7.46-1.3-9.56-3.89c-2.1-2.59-3.15-5.72-3.15-9.37s1.05-6.7,3.15-9.33c2.1-2.63,5.29-3.95,9.56-3.95s7.46,1.32,9.56,3.95Zm-17.12-12.35h5.96v5.41h-5.96v-5.41Zm7.53,13.9c-1.9,0-3.37,.67-4.39,2.02-1.03,1.35-1.54,3.27-1.54,5.76s.51,4.42,1.54,5.78c1.03,1.35,2.49,2.03,4.39,2.03s3.36-.68,4.38-2.03c1.02-1.35,1.53-3.28,1.53-5.78s-.51-4.42-1.53-5.76c-1.02-1.35-2.48-2.02-4.38-2.02Zm1.6-13.9h5.96v5.41h-5.96v-5.41Z"/><path class="cls-1" d="M92.37,122.3c1.95,1.25,3.07,3.39,3.35,6.44h-6.5c-.09-.84-.32-1.5-.71-1.99-.71-.89-1.93-1.32-3.65-1.32-1.42,0-2.42,.22-3.02,.66s-.9,.96-.9,1.55c0,.75,.32,1.29,.96,1.62,.64,.35,2.9,.95,6.78,1.8,2.59,.61,4.53,1.53,5.82,2.76,1.28,1.25,1.92,2.81,1.92,4.68,0,2.46-.92,4.48-2.75,6.04-1.83,1.56-4.67,2.34-8.5,2.34s-6.8-.83-8.66-2.48c-1.86-1.65-2.8-3.75-2.8-6.31h6.6c.14,1.16,.43,1.98,.89,2.46,.81,.87,2.3,1.3,4.47,1.3,1.28,0,2.29-.19,3.05-.57,.75-.38,1.13-.95,1.13-1.71s-.3-1.29-.91-1.67c-.61-.38-2.87-1.03-6.78-1.96-2.81-.7-4.8-1.58-5.96-2.62-1.16-1.03-1.73-2.53-1.73-4.47,0-2.3,.9-4.27,2.7-5.92,1.8-1.65,4.34-2.48,7.61-2.48s5.64,.62,7.6,1.85Z"/><path class="cls-1" d="M112.62,141.41v4.86l-3.08,.11c-3.07,.11-5.17-.43-6.3-1.6-.73-.75-1.1-1.89-1.1-3.45v-15.32h-3.47v-4.63h3.47v-6.94h6.44v6.94h4.04v4.63h-4.04v13.15c0,1.02,.13,1.66,.39,1.91,.26,.25,1.05,.38,2.37,.38,.2,0,.41,0,.63-.01s.44-.02,.65-.03Z"/><path class="cls-1" d="M132.75,142.53c-.06,.08-.21,.3-.46,.69-.24,.38-.54,.71-.87,1-1.03,.9-2.01,1.54-2.96,1.87-.95,.34-2.07,.5-3.34,.5-3.68,0-6.16-1.33-7.44-3.97-.71-1.46-1.07-3.61-1.07-6.46v-15h6.67v15c0,1.41,.17,2.48,.5,3.2,.59,1.26,1.76,1.89,3.49,1.89,2.22,0,3.76-.89,4.56-2.69,.43-.97,.64-2.26,.64-3.86v-13.54h6.6v24.88h-6.32v-3.52Z"/><path class="cls-1" d="M162.49,122.3c1.95,1.25,3.07,3.39,3.35,6.44h-6.5c-.09-.84-.32-1.5-.71-1.99-.71-.89-1.93-1.32-3.65-1.32-1.42,0-2.42,.22-3.02,.66s-.9,.96-.9,1.55c0,.75,.32,1.29,.96,1.62,.64,.35,2.9,.95,6.78,1.8,2.59,.61,4.53,1.53,5.82,2.76,1.28,1.25,1.92,2.81,1.92,4.68,0,2.46-.92,4.48-2.75,6.04-1.83,1.56-4.67,2.34-8.5,2.34s-6.8-.83-8.66-2.48c-1.86-1.65-2.8-3.75-2.8-6.31h6.6c.14,1.16,.43,1.98,.89,2.46,.81,.87,2.3,1.3,4.47,1.3,1.28,0,2.29-.19,3.05-.57,.75-.38,1.13-.95,1.13-1.71s-.3-1.29-.91-1.67c-.61-.38-2.87-1.03-6.78-1.96-2.81-.7-4.8-1.58-5.96-2.62-1.16-1.03-1.73-2.53-1.73-4.47,0-2.3,.9-4.27,2.7-5.92,1.8-1.65,4.34-2.48,7.61-2.48s5.64,.62,7.6,1.85Z"/><path class="cls-1" d="M192.65,138.74c-.17,1.48-.94,2.97-2.31,4.5-2.14,2.41-5.11,3.63-8.95,3.63-3.17,0-5.96-1.02-8.38-3.06s-3.63-5.36-3.63-9.95c0-4.31,1.09-7.61,3.28-9.91s5.02-3.45,8.5-3.45c2.07,0,3.93,.39,5.59,1.16,1.66,.78,3.03,2,4.11,3.67,.97,1.48,1.61,3.19,1.89,5.14,.17,1.14,.24,2.78,.21,4.93h-17.03c.09,2.5,.88,4.24,2.35,5.25,.9,.62,1.98,.94,3.24,.94,1.34,0,2.43-.38,3.26-1.14,.46-.41,.86-.98,1.21-1.71h6.64Zm-6.44-7.62c-.11-1.72-.63-3.02-1.56-3.91-.94-.89-2.1-1.34-3.48-1.34-1.51,0-2.67,.47-3.5,1.42-.83,.94-1.35,2.22-1.56,3.83h10.11Z"/><path class="cls-1" d="M214.49,122.3c1.95,1.25,3.07,3.39,3.35,6.44h-6.5c-.09-.84-.32-1.5-.71-1.99-.71-.89-1.93-1.32-3.65-1.32-1.42,0-2.42,.22-3.02,.66s-.9,.96-.9,1.55c0,.75,.32,1.29,.96,1.62,.64,.35,2.9,.95,6.78,1.8,2.59,.61,4.53,1.53,5.82,2.76,1.28,1.25,1.92,2.81,1.92,4.68,0,2.46-.92,4.48-2.75,6.04-1.83,1.56-4.67,2.34-8.5,2.34s-6.8-.83-8.66-2.48c-1.86-1.65-2.8-3.75-2.8-6.31h6.6c.14,1.16,.43,1.98,.89,2.46,.81,.87,2.3,1.3,4.47,1.3,1.28,0,2.29-.19,3.05-.57,.75-.38,1.13-.95,1.13-1.71s-.3-1.29-.91-1.67c-.61-.38-2.87-1.03-6.78-1.96-2.81-.7-4.8-1.58-5.96-2.62-1.16-1.03-1.73-2.53-1.73-4.47,0-2.3,.9-4.27,2.7-5.92,1.8-1.65,4.34-2.48,7.61-2.48s5.64,.62,7.6,1.85Z"/><path class="cls-1" d="M240.49,122.3c1.95,1.25,3.07,3.39,3.35,6.44h-6.5c-.09-.84-.32-1.5-.71-1.99-.71-.89-1.93-1.32-3.65-1.32-1.42,0-2.42,.22-3.02,.66s-.9,.96-.9,1.55c0,.75,.32,1.29,.96,1.62,.64,.35,2.9,.95,6.78,1.8,2.59,.61,4.53,1.53,5.82,2.76,1.28,1.25,1.92,2.81,1.92,4.68,0,2.46-.92,4.48-2.75,6.04-1.83,1.56-4.67,2.34-8.5,2.34s-6.8-.83-8.66-2.48c-1.86-1.65-2.8-3.75-2.8-6.31h6.6c.14,1.16,.43,1.98,.89,2.46,.81,.87,2.3,1.3,4.47,1.3,1.28,0,2.29-.19,3.05-.57,.75-.38,1.13-.95,1.13-1.71s-.3-1.29-.91-1.67c-.61-.38-2.87-1.03-6.78-1.96-2.81-.7-4.8-1.58-5.96-2.62-1.16-1.03-1.73-2.53-1.73-4.47,0-2.3,.9-4.27,2.7-5.92,1.8-1.65,4.34-2.48,7.61-2.48s5.64,.62,7.6,1.85Z"/><path class="cls-1" d="M270.64,138.74c-.17,1.48-.94,2.97-2.31,4.5-2.14,2.41-5.11,3.63-8.95,3.63-3.17,0-5.96-1.02-8.38-3.06s-3.63-5.36-3.63-9.95c0-4.31,1.09-7.61,3.28-9.91s5.02-3.45,8.5-3.45c2.07,0,3.93,.39,5.59,1.16,1.66,.78,3.03,2,4.11,3.67,.97,1.48,1.61,3.19,1.89,5.14,.17,1.14,.24,2.78,.21,4.93h-17.03c.09,2.5,.88,4.24,2.35,5.25,.9,.62,1.98,.94,3.24,.94,1.34,0,2.43-.38,3.26-1.14,.46-.41,.86-.98,1.21-1.71h6.64Zm-6.44-7.62c-.11-1.72-.63-3.02-1.56-3.91-.94-.89-2.1-1.34-3.48-1.34-1.51,0-2.67,.47-3.5,1.42-.83,.94-1.35,2.22-1.56,3.83h10.11Z"/><path class="cls-1" d="M300.04,125.98c-2.21,0-3.73,.93-4.54,2.81-.43,.99-.64,2.25-.64,3.79v13.47h-6.48v-24.83h6.28v3.63c.84-1.28,1.63-2.2,2.37-2.76,1.34-1.01,3.04-1.51,5.09-1.51,2.57,0,4.68,.67,6.31,2.02s2.45,3.58,2.45,6.7v16.75h-6.67v-15.13c0-1.31-.17-2.31-.52-3.01-.64-1.28-1.86-1.92-3.65-1.92Z"/><path class="cls-1" d="M323.57,112.19v6h-6.6v-6h6.6Zm0,8.97v24.88h-6.6v-24.88h6.6Z"/><path class="cls-1" d="M341.58,125.98c-2.21,0-3.73,.93-4.54,2.81-.43,.99-.64,2.25-.64,3.79v13.47h-6.48v-24.83h6.28v3.63c.84-1.28,1.63-2.2,2.37-2.76,1.34-1.01,3.04-1.51,5.09-1.51,2.57,0,4.68,.67,6.31,2.02s2.45,3.58,2.45,6.7v16.75h-6.67v-15.13c0-1.31-.17-2.31-.52-3.01-.64-1.28-1.86-1.92-3.65-1.92Z"/><path class="cls-1" d="M365.46,150.4c.71,.59,1.88,.89,3.54,.89,2.34,0,3.9-.79,4.7-2.35,.51-1.01,.78-2.69,.78-5.07v-1.6c-.62,1.06-1.3,1.86-2.01,2.4-1.3,.98-2.98,1.48-5.04,1.48-3.2,0-5.75-1.12-7.66-3.37-1.91-2.25-2.86-5.29-2.86-9.12s.92-6.81,2.76-9.32c1.84-2.52,4.45-3.78,7.83-3.78,1.25,0,2.34,.19,3.26,.57,1.58,.65,2.86,1.86,3.83,3.61v-3.58h6.32v23.6c0,3.21-.54,5.63-1.62,7.26-1.86,2.8-5.42,4.2-10.68,4.2-3.18,0-5.77-.62-7.78-1.87-2.01-1.25-3.12-3.11-3.33-5.59h7.08c.18,.76,.48,1.3,.89,1.64Zm-1.1-12.85c.89,2.1,2.47,3.15,4.75,3.15,1.52,0,2.81-.57,3.86-1.72,1.05-1.15,1.57-2.98,1.57-5.49,0-2.36-.5-4.15-1.5-5.39-1-1.23-2.33-1.85-4.01-1.85-2.28,0-3.86,1.07-4.72,3.22-.46,1.14-.69,2.55-.69,4.22,0,1.45,.25,2.73,.73,3.86Z"/><path class="cls-1" d="M9.24,168.29v6H2.65v-6h6.6Zm0,8.97v24.88H2.65v-24.88h6.6Z"/><path class="cls-1" d="M27.25,182.07c-2.21,0-3.73,.93-4.54,2.81-.43,.99-.64,2.25-.64,3.79v13.47h-6.48v-24.83h6.28v3.63c.84-1.28,1.63-2.2,2.37-2.76,1.34-1.01,3.04-1.51,5.09-1.51,2.57,0,4.68,.67,6.31,2.02s2.45,3.58,2.45,6.7v16.75h-6.67v-15.13c0-1.31-.17-2.31-.52-3.01-.64-1.28-1.86-1.92-3.65-1.92Z"/><polygon class="cls-1" points="41.66 177.26 48.96 177.26 54.14 195.61 59.44 177.26 66.42 177.26 57.45 202.14 50.58 202.14 41.66 177.26"/><path class="cls-1" d="M91.39,194.83c-.17,1.48-.94,2.97-2.31,4.5-2.14,2.41-5.11,3.63-8.95,3.63-3.17,0-5.96-1.02-8.38-3.06s-3.63-5.36-3.63-9.95c0-4.31,1.09-7.61,3.28-9.91s5.02-3.45,8.5-3.45c2.07,0,3.93,.39,5.59,1.16,1.66,.78,3.03,2,4.11,3.67,.97,1.48,1.61,3.19,1.89,5.14,.17,1.14,.24,2.78,.21,4.93h-17.03c.09,2.5,.88,4.24,2.35,5.25,.9,.62,1.98,.94,3.24,.94,1.34,0,2.43-.38,3.26-1.14,.46-.41,.86-.98,1.21-1.71h6.64Zm-6.44-7.62c-.11-1.72-.63-3.02-1.56-3.91-.94-.89-2.1-1.34-3.48-1.34-1.51,0-2.67,.47-3.5,1.42-.83,.94-1.35,2.22-1.56,3.83h10.11Z"/><path class="cls-1" d="M113.24,178.4c1.95,1.25,3.07,3.39,3.35,6.44h-6.5c-.09-.84-.32-1.5-.71-1.99-.71-.89-1.93-1.32-3.65-1.32-1.42,0-2.42,.22-3.02,.66s-.9,.96-.9,1.55c0,.75,.32,1.29,.96,1.62,.64,.35,2.9,.95,6.78,1.8,2.59,.61,4.53,1.53,5.82,2.76,1.28,1.25,1.92,2.81,1.92,4.68,0,2.46-.92,4.48-2.75,6.04-1.83,1.56-4.67,2.34-8.5,2.34s-6.8-.83-8.66-2.48c-1.86-1.65-2.8-3.75-2.8-6.31h6.6c.14,1.16,.43,1.98,.89,2.46,.81,.87,2.3,1.3,4.47,1.3,1.28,0,2.29-.19,3.05-.57,.75-.38,1.13-.95,1.13-1.71s-.3-1.29-.91-1.67c-.61-.38-2.87-1.03-6.78-1.96-2.81-.7-4.8-1.58-5.96-2.62-1.16-1.03-1.73-2.53-1.73-4.47,0-2.3,.9-4.27,2.7-5.92,1.8-1.65,4.34-2.48,7.61-2.48s5.64,.62,7.6,1.85Z"/><path class="cls-1" d="M133.48,197.5v4.86l-3.08,.11c-3.07,.11-5.17-.43-6.3-1.6-.73-.75-1.1-1.89-1.1-3.45v-15.32h-3.47v-4.63h3.47v-6.94h6.44v6.94h4.04v4.63h-4.04v13.15c0,1.02,.13,1.66,.39,1.91,.26,.25,1.05,.38,2.37,.38,.2,0,.41,0,.63-.01s.44-.02,.65-.03Z"/><path class="cls-1" d="M158.96,194.83c-.17,1.48-.94,2.97-2.31,4.5-2.14,2.41-5.11,3.63-8.95,3.63-3.17,0-5.96-1.02-8.38-3.06s-3.63-5.36-3.63-9.95c0-4.31,1.09-7.61,3.28-9.91s5.02-3.45,8.5-3.45c2.07,0,3.93,.39,5.59,1.16,1.66,.78,3.03,2,4.11,3.67,.97,1.48,1.61,3.19,1.89,5.14,.17,1.14,.24,2.78,.21,4.93h-17.03c.09,2.5,.88,4.24,2.35,5.25,.9,.62,1.98,.94,3.24,.94,1.34,0,2.43-.38,3.26-1.14,.46-.41,.86-.98,1.21-1.71h6.64Zm-6.44-7.62c-.11-1.72-.63-3.02-1.56-3.91-.94-.89-2.1-1.34-3.48-1.34-1.51,0-2.67,.47-3.5,1.42-.83,.94-1.35,2.22-1.56,3.83h10.11Z"/><path class="cls-1" d="M184.95,194.83c-.17,1.48-.94,2.97-2.31,4.5-2.14,2.41-5.11,3.63-8.95,3.63-3.17,0-5.96-1.02-8.38-3.06s-3.63-5.36-3.63-9.95c0-4.31,1.09-7.61,3.28-9.91s5.02-3.45,8.5-3.45c2.07,0,3.93,.39,5.59,1.16,1.66,.78,3.03,2,4.11,3.67,.97,1.48,1.61,3.19,1.89,5.14,.17,1.14,.24,2.78,.21,4.93h-17.03c.09,2.5,.88,4.24,2.35,5.25,.9,.62,1.98,.94,3.24,.94,1.34,0,2.43-.38,3.26-1.14,.46-.41,.86-.98,1.21-1.71h6.64Zm-6.44-7.62c-.11-1.72-.63-3.02-1.56-3.91-.94-.89-2.1-1.34-3.48-1.34-1.51,0-2.67,.47-3.5,1.42-.83,.94-1.35,2.22-1.56,3.83h10.11Z"/><path class="cls-1" d="M202.16,183.26c-2.62,0-4.38,.85-5.27,2.56-.5,.96-.75,2.44-.75,4.43v11.89h-6.55v-24.88h6.21v4.34c1-1.66,1.88-2.79,2.62-3.4,1.22-1.01,2.8-1.53,4.75-1.53,.12,0,.22,0,.31,.01,.08,0,.27,.02,.56,.03v6.67c-.41-.05-.78-.08-1.1-.09-.32-.02-.58-.02-.78-.02Z"/><path class="cls-1" d="M214.54,168.29v6h-6.6v-6h6.6Zm0,8.97v24.88h-6.6v-24.88h6.6Z"/><path class="cls-1" d="M256.47,168.54v33.6h-6.32v-3.45c-.93,1.48-1.99,2.55-3.17,3.22-1.19,.67-2.66,1-4.43,1-2.91,0-5.35-1.17-7.34-3.53-1.99-2.35-2.98-5.37-2.98-9.05,0-4.25,.98-7.59,2.93-10.02,1.96-2.44,4.57-3.65,7.84-3.65,1.51,0,2.85,.33,4.02,.99,1.17,.66,2.12,1.58,2.85,2.75v-11.87h6.6Zm-17.53,21.32c0,2.3,.46,4.13,1.37,5.5,.9,1.38,2.27,2.08,4.11,2.08s3.24-.68,4.2-2.05c.96-1.37,1.44-3.14,1.44-5.32,0-3.04-.76-5.23-2.31-6.53-.94-.79-2.04-1.19-3.29-1.19-1.9,0-3.3,.72-4.19,2.16s-1.34,3.22-1.34,5.35Z"/><path class="cls-1" d="M269.07,168.29v6h-6.6v-6h6.6Zm0,8.97v24.88h-6.6v-24.88h6.6Z"/><path class="cls-1" d="M282.4,206.5c.71,.59,1.88,.89,3.54,.89,2.34,0,3.9-.79,4.7-2.35,.51-1.01,.78-2.69,.78-5.07v-1.6c-.62,1.06-1.3,1.86-2.01,2.4-1.3,.98-2.98,1.48-5.04,1.48-3.2,0-5.75-1.12-7.66-3.37-1.91-2.25-2.86-5.29-2.86-9.12s.92-6.81,2.76-9.32c1.84-2.52,4.45-3.78,7.83-3.78,1.25,0,2.34,.19,3.26,.57,1.58,.65,2.86,1.86,3.83,3.61v-3.58h6.32v23.6c0,3.21-.54,5.63-1.62,7.26-1.86,2.8-5.42,4.2-10.68,4.2-3.18,0-5.77-.62-7.78-1.87-2.01-1.25-3.12-3.11-3.33-5.59h7.08c.18,.76,.48,1.3,.89,1.64Zm-1.1-12.85c.89,2.1,2.47,3.15,4.75,3.15,1.52,0,2.81-.57,3.86-1.72,1.05-1.15,1.57-2.98,1.57-5.49,0-2.36-.5-4.15-1.5-5.39-1-1.23-2.33-1.85-4.01-1.85-2.28,0-3.86,1.07-4.72,3.22-.46,1.14-.69,2.55-.69,4.22,0,1.45,.25,2.73,.73,3.86Z"/><path class="cls-1" d="M310.61,168.29v6h-6.6v-6h6.6Zm0,8.97v24.88h-6.6v-24.88h6.6Z"/><rect class="cls-1" x="317.05" y="168.49" width="6.5" height="33.64"/><path class="cls-1" d="M351.19,194.83c-.17,1.48-.94,2.97-2.31,4.5-2.14,2.41-5.11,3.63-8.95,3.63-3.17,0-5.96-1.02-8.38-3.06s-3.63-5.36-3.63-9.95c0-4.31,1.09-7.61,3.28-9.91s5.02-3.45,8.5-3.45c2.07,0,3.93,.39,5.59,1.16,1.66,.78,3.03,2,4.11,3.67,.97,1.48,1.61,3.19,1.89,5.14,.17,1.14,.24,2.78,.21,4.93h-17.03c.09,2.5,.88,4.24,2.35,5.25,.9,.62,1.98,.94,3.24,.94,1.34,0,2.43-.38,3.26-1.14,.46-.41,.86-.98,1.21-1.71h6.64Zm-6.44-7.62c-.11-1.72-.63-3.02-1.56-3.91-.94-.89-2.1-1.34-3.48-1.34-1.51,0-2.67,.47-3.5,1.42-.83,.94-1.35,2.22-1.56,3.83h10.11Z"/><path class="cls-1" d="M378.38,187.53v14.61h-6.64v-15.13c0-1.34-.23-2.42-.68-3.24-.59-1.16-1.72-1.73-3.38-1.73s-3.02,.57-3.91,1.72-1.33,2.79-1.33,4.92v13.47h-6.48v-33.53h6.48v11.89c.94-1.45,2.03-2.45,3.28-3.02,1.24-.57,2.54-.86,3.91-.86,1.54,0,2.93,.27,4.19,.8s2.29,1.35,3.09,2.44c.68,.93,1.1,1.88,1.26,2.86,.15,.98,.23,2.58,.23,4.8Z"/><path class="cls-1" d="M398.42,184.1c-.55-1.2-1.62-1.8-3.22-1.8-1.86,0-3.11,.6-3.74,1.8-.36,.68-.52,1.7-.52,3.06v14.97h-6.6v-24.83h6.32v3.63c.81-1.29,1.57-2.21,2.28-2.76,1.26-.97,2.9-1.46,4.91-1.46,1.9,0,3.44,.42,4.61,1.26,.94,.78,1.66,1.77,2.15,2.99,.85-1.46,1.91-2.53,3.17-3.22,1.34-.68,2.83-1.03,4.47-1.03,1.1,0,2.18,.21,3.24,.64,1.06,.43,2.03,1.17,2.9,2.24,.7,.87,1.17,1.93,1.42,3.2,.15,.84,.21,2.06,.21,3.67v15.68h-6.69v-15.84c0-.94-.15-1.72-.46-2.33-.58-1.16-1.64-1.74-3.2-1.74-1.8,0-3.05,.74-3.72,2.24-.36,.79-.52,1.74-.52,2.85v14.81h-6.55v-14.81c0-1.48-.15-2.55-.46-3.22Z"/><path class="cls-1" d="M426.95,179.95c1.71-2.2,4.67-3.29,8.86-3.29,2.72,0,5.14,.54,7.26,1.62,2.11,1.08,3.17,3.12,3.17,6.12,0,0,.02,13.16,.05,14.29,.05,.85,.17,1.43,.39,1.74,.21,.3,.53,.56,.96,.75v.96h-7.08c-.2-.5-.33-.97-.41-1.42s-.14-.94-.18-1.51c-.9,.97-1.93,1.8-3.1,2.49-1.4,.81-2.98,1.21-4.75,1.21-2.25,0-4.11-.64-5.58-1.93-1.47-1.29-2.2-3.11-2.2-5.47,0-3.06,1.18-5.28,3.54-6.64,1.29-.75,3.2-1.28,5.71-1.6l2.21-.27c1.2-.15,2.06-.35,2.58-.57,.93-.4,1.39-1.01,1.39-1.85,0-1.02-.35-1.72-1.06-2.11s-1.75-.58-3.12-.58c-1.54,0-2.62,.38-3.26,1.14-.46,.56-.76,1.32-.91,2.28h-6.28c.14-2.18,.74-3.97,1.83-5.36Zm4.84,17.48c.61,.5,1.35,.75,2.24,.75,1.4,0,2.69-.41,3.87-1.23,1.18-.82,1.79-2.32,1.84-4.5v-2.42c-.41,.26-.83,.47-1.24,.63s-.99,.31-1.72,.45l-1.46,.27c-1.37,.24-2.35,.54-2.94,.89-1,.59-1.51,1.51-1.51,2.76,0,1.11,.31,1.91,.94,2.4Z"/><path class="cls-1" d="M461.26,177.14l-1.85,15.7h-3.4l-1.89-15.7v-8.54h7.14v8.54Zm-.18,18.4v6.6h-6.8v-6.6h6.8Z"/></g></g></svg>