<?xml version="1.0" encoding="UTF-8"?>
<svg id="Layer_2" data-name="Layer 2" xmlns="http://www.w3.org/2000/svg" viewBox="0 0 210.29 64">
  <defs>
    <style>
      .cls-1 {
        fill: #f7fcfa;
      }

      .cls-2 {
        fill: #47b881;
      }
    </style>
  </defs>
  <g id="main">
    <g>
      <path class="cls-2" d="M175.24,0H35.05C2.54,0,0,2.32,0,32s2.54,32,35.05,32H175.24c32.5,0,35.05-2.32,35.05-32S207.74,0,175.24,0Z"/>
      <g>
        <path class="cls-1" d="M47.98,22.98c0-.15-.05-.28-.16-.4-.11-.12-.25-.18-.41-.18h-2.88c-.27,0-.48,.08-.63,.23-.15,.16-.25,.3-.3,.42l-4.25,13.41-4.28-13.41c-.04-.13-.13-.27-.29-.42-.16-.16-.37-.23-.64-.23h-2.88c-.16,0-.3,.06-.41,.18-.11,.12-.16,.25-.16,.4,0,.07,0,.16,.03,.25l5.76,17.58c.07,.22,.2,.41,.37,.56,.17,.16,.41,.23,.7,.23h3.59c.31,0,.55-.08,.73-.23,.17-.16,.29-.34,.34-.56l5.76-17.58c.02-.09,.03-.17,.03-.25Z"/>
        <path class="cls-1" d="M59.07,23.14c-.05-.2-.16-.38-.33-.52-.16-.15-.39-.22-.69-.22h-3.51c-.29,0-.52,.07-.69,.22-.16,.15-.27,.32-.33,.52l-6.53,17.64c-.02,.07-.03,.16-.03,.25,0,.15,.05,.28,.16,.4,.11,.12,.25,.18,.41,.18h2.85c.27,0,.48-.06,.6-.19,.13-.13,.21-.25,.25-.36l1.18-3.07h7.73l1.18,3.07c.04,.11,.12,.23,.25,.36,.13,.13,.33,.19,.6,.19h2.85c.16,0,.3-.06,.41-.18,.11-.12,.16-.25,.16-.4,0-.09,0-.17-.03-.25l-6.53-17.64Zm-5.62,11.3l2.85-7.9,2.82,7.9h-5.68Z"/>
        <path class="cls-1" d="M79.06,23.14c-.05-.2-.16-.38-.33-.52-.16-.15-.39-.22-.69-.22h-3.51c-.29,0-.52,.07-.69,.22-.16,.15-.27,.32-.33,.52l-6.53,17.64c-.02,.07-.03,.16-.03,.25,0,.15,.05,.28,.16,.4,.11,.12,.25,.18,.41,.18h2.85c.27,0,.48-.06,.6-.19,.13-.13,.21-.25,.25-.36l1.18-3.07h7.73l1.18,3.07c.04,.11,.12,.23,.25,.36,.13,.13,.33,.19,.6,.19h2.85c.16,0,.3-.06,.41-.18,.11-.12,.16-.25,.16-.4,0-.09,0-.17-.03-.25l-6.53-17.64Zm-5.62,11.3l2.85-7.9,2.82,7.9h-5.68Z"/>
        <path class="cls-1" d="M99.85,26.02c.13-.13,.19-.28,.19-.47v-2.47c0-.2-.06-.36-.19-.49-.13-.13-.29-.19-.49-.19h-14.37c-.18,0-.34,.06-.47,.19-.13,.13-.19,.29-.19,.49v2.47c0,.18,.06,.34,.19,.47,.13,.13,.28,.19,.47,.19h4.99v14.7c0,.2,.06,.37,.19,.49,.13,.13,.29,.19,.49,.19h3.04c.2,0,.37-.06,.49-.19,.13-.13,.19-.29,.19-.49v-14.7h4.96c.2,0,.37-.06,.49-.19Z"/>
        <path class="cls-1" d="M110.85,23.14c-.05-.2-.16-.38-.33-.52-.16-.15-.39-.22-.69-.22h-3.51c-.29,0-.52,.07-.69,.22-.16,.15-.27,.32-.33,.52l-6.53,17.64c-.02,.07-.03,.16-.03,.25,0,.15,.05,.28,.16,.4,.11,.12,.25,.18,.41,.18h2.85c.27,0,.48-.06,.6-.19,.13-.13,.21-.25,.25-.36l1.18-3.07h7.73l1.18,3.07c.04,.11,.12,.23,.25,.36,.13,.13,.33,.19,.6,.19h2.85c.16,0,.3-.06,.41-.18,.11-.12,.16-.25,.16-.4,0-.09,0-.17-.03-.25l-6.53-17.64Zm-5.62,11.3l2.85-7.9,2.82,7.9h-5.68Z"/>
        <path class="cls-1" d="M137.29,31.51c-1.01-.46-2.31-.85-3.92-1.18-1.04-.27-1.88-.53-2.51-.75-.63-.23-1.08-.49-1.34-.8-.27-.3-.4-.67-.4-1.11,0-.68,.26-1.18,.78-1.51,.52-.33,1.23-.49,2.13-.49s1.56,.18,2.1,.53c.54,.36,.86,.77,.97,1.25,.09,.18,.21,.31,.36,.38,.15,.07,.31,.11,.49,.11h3.07c.16,0,.3-.06,.41-.18,.11-.12,.17-.25,.16-.4,0-.57-.19-1.15-.52-1.76-.33-.6-.81-1.17-1.44-1.7-.63-.53-1.42-.96-2.36-1.29-.94-.33-2.03-.49-3.25-.49-1.52,0-2.83,.24-3.92,.73s-1.95,1.15-2.55,2c-.6,.85-.91,1.82-.91,2.92s.24,2.02,.73,2.76c.48,.74,1.21,1.34,2.17,1.81,.96,.47,2.13,.85,3.5,1.14,1.13,.27,2.04,.53,2.73,.77,.69,.24,1.19,.5,1.51,.79,.32,.29,.48,.68,.48,1.15,0,.66-.3,1.18-.89,1.56-.59,.38-1.49,.58-2.67,.58-.73,0-1.34-.1-1.84-.29-.49-.19-.88-.44-1.17-.73-.28-.29-.49-.59-.62-.91-.11-.15-.23-.27-.36-.37-.13-.1-.31-.15-.55-.15h-2.93c-.16,0-.3,.06-.41,.18s-.17,.25-.16,.4c.02,.93,.36,1.81,.96,2.63,.6,.82,1.49,1.49,2.67,2,1.18,.51,2.65,.77,4.4,.77,1.59,0,2.98-.23,4.18-.7,1.2-.47,2.14-1.14,2.83-2.02,.69-.88,1.03-1.93,1.03-3.15,0-1.1-.24-2.01-.71-2.73-.48-.72-1.22-1.31-2.22-1.77Z"/>
        <path class="cls-1" d="M146.51,22.4h-3.1c-.2,0-.37,.06-.49,.19-.13,.13-.19,.29-.19,.49v17.83c0,.2,.06,.37,.19,.49,.13,.13,.29,.19,.49,.19h3.1c.2,0,.37-.06,.49-.19,.13-.13,.19-.29,.19-.49V23.09c0-.2-.06-.36-.19-.49-.13-.13-.29-.19-.49-.19Z"/>
        <path class="cls-1" d="M154.54,22.4h-3.1c-.2,0-.37,.06-.49,.19-.13,.13-.19,.29-.19,.49v17.83c0,.2,.06,.37,.19,.49,.13,.13,.29,.19,.49,.19h3.1c.2,0,.37-.06,.49-.19,.13-.13,.19-.29,.19-.49V23.09c0-.2-.06-.36-.19-.49-.13-.13-.29-.19-.49-.19Z"/>
        <path class="cls-1" d="M172.56,22.4h-14.37c-.18,0-.34,.06-.47,.19-.13,.13-.19,.29-.19,.49v2.47c0,.18,.06,.34,.19,.47,.13,.13,.28,.19,.47,.19h4.99v14.7c0,.2,.06,.37,.19,.49,.13,.13,.29,.19,.49,.19h3.05c.2,0,.36-.06,.49-.19,.13-.13,.19-.29,.19-.49v-14.7h4.96c.2,0,.37-.06,.49-.19,.13-.13,.19-.28,.19-.47v-2.47c0-.2-.06-.36-.19-.49-.13-.13-.29-.19-.49-.19Z"/>
        <path class="cls-1" d="M176.13,35.92h2.66c.2,0,.37-.06,.49-.19,.13-.13,.19-.29,.19-.49v-12.15c0-.2-.06-.36-.19-.49-.13-.13-.29-.19-.49-.19h-2.66c-.2,0-.37,.06-.49,.19-.13,.13-.19,.29-.19,.49v12.15c0,.2,.06,.37,.19,.49,.13,.13,.29,.19,.49,.19Z"/>
        <path class="cls-1" d="M179.42,37.49c-.13-.13-.29-.19-.49-.19h-2.96c-.18,0-.34,.06-.47,.19-.13,.13-.19,.29-.19,.49v2.94c0,.2,.06,.37,.19,.49,.13,.13,.28,.19,.47,.19h2.96c.2,0,.37-.06,.49-.19,.13-.13,.19-.29,.19-.49v-2.94c0-.2-.06-.37-.19-.49Z"/>
      </g>
    </g>
  </g>
</svg>