<?xml version="1.0" encoding="UTF-8"?>
<svg id="Layer_2" data-name="Layer 2" xmlns="http://www.w3.org/2000/svg" xmlns:xlink="http://www.w3.org/1999/xlink" viewBox="0 0 223.68 64">
  <defs>
    <style>
      .cls-1 {
        fill: none;
      }

      .cls-2 {
        fill: url(#linear-gradient);
      }

      .cls-3 {
        clip-path: url(#clippath);
      }

      .cls-4 {
        fill: #f7c931;
      }

      .cls-5 {
        fill: #435a6f;
      }

      .cls-6 {
        fill: #47b881;
      }
    </style>
    <clipPath id="clippath">
      <rect class="cls-1" width="223.68" height="64"/>
    </clipPath>
    <linearGradient id="linear-gradient" x1="190.28" y1="2482.01" x2="206.98" y2="2482.01" gradientTransform="translate(0 2514) scale(1 -1)" gradientUnits="userSpaceOnUse">
      <stop offset="0" stop-color="#af4c1a" stop-opacity=".4"/>
      <stop offset=".2" stop-color="#af4c1a" stop-opacity=".25"/>
      <stop offset=".9" stop-color="#af4c1a" stop-opacity="0"/>
    </linearGradient>
  </defs>
  <g id="main">
    <g class="cls-3">
      <g id="d">
        <path class="cls-5" d="M1.15,44.19c-.77,0-1.15-.41-1.15-1.25V21.74c0-.83,.38-1.23,1.15-1.23H3.66c.77,0,1.15,.41,1.15,1.24v6.57c0,.67-.03,1.32-.08,1.98h.08l8.03-8.83c.6-.65,1.1-.95,1.52-.95h3.3c1.27,0,1.48,.48,.63,1.43l-7.48,8.23,8.02,12.61c.6,.96,.4,1.44-.63,1.44h-3.07c-.63-.03-1.19-.4-1.48-.96l-6.07-9.54-2.76,3.06v6.17c0,.83-.39,1.24-1.15,1.24H1.15Z"/>
        <path class="cls-5" d="M24.85,19.48h-1.16c-.39,.03-.71,.28-.86,.63l-1.27,2.23c-.24,.41-.35,.89-.35,1.35v19.51c-.07,.48,.27,.92,.75,.99h1.41c.39-.03,.71-.28,.85-.63l1.27-2.22c.24-.42,.35-.88,.34-1.35V20.47c.07-.48-.26-.92-.74-.99-.1-.01-.17-.01-.27,0h.03Z"/>
        <path class="cls-5" d="M30.41,24.3c-.48,.07-.93-.27-.99-.74-.01-.08-.01-.17,0-.25v-2.11c-.07-.48,.27-.92,.75-.99h2.88c.48-.07,.92,.27,.99,.75v2.35c.07,.48-.25,.92-.74,.99-.08,.01-.17,.01-.26,0h-2.64Zm0,19.9c-.48,.07-.92-.27-.99-.76v-15.61c-.07-.48,.27-.92,.75-.99h2.88c.48-.07,.92,.27,.99,.75v15.61c.07,.48-.27,.92-.74,.99h-2.88Z"/>
        <path class="cls-5" d="M36.81,35.52c0-2.8,.71-4.99,2.09-6.6,1.38-1.61,3.35-2.41,5.88-2.41,2.94,0,5.12,.76,6.54,2.28s2.15,3.98,2.15,7.34c0,.67-.31,.99-.92,.99h-10.87c.17,1.83,.63,2.98,1.35,3.46,.72,.48,1.63,.74,2.51,.71,.71,.03,1.44-.07,2.08-.36,.48-.22,.9-.57,1.22-.99,.29-.44,.88-.56,1.31-.28,.03,0,.03,.03,.06,.04l1.65,1.01c.64,.4,.74,.86,.28,1.44-.63,.77-1.44,1.4-2.35,1.79s-2.33,.6-4.26,.6c-3.15,0-5.4-.8-6.74-2.41s-2.01-3.81-2.01-6.6v-.03Zm4.89-1.7h7.15c.04-1.05-.26-2.09-.9-2.92-.59-.76-1.55-1.1-2.87-1.13-.94-.02-1.85,.36-2.46,1.09-.63,.86-.97,1.91-.94,2.98h.01Z"/>
        <path class="cls-5" d="M57.11,44.2c-.48,.04-.92-.31-.97-.78v-15.58c-.07-.48,.27-.92,.74-.99h2.85c.48-.07,.92,.27,.99,.75v1.2c.43-.79,1.1-1.46,1.94-1.8,.9-.36,1.86-.5,2.83-.48,1.6-.06,3.14,.52,4.3,1.62s1.69,3.05,1.69,5.9v9.15c.07,.48-.27,.92-.75,.99h-2.88c-.48,.1-.94-.2-1.04-.67-.02-.1-.03-.21,0-.31v-7.97c0-2.39-.17-3.92-.48-4.55s-1.05-.95-2.14-.95c-1.06-.06-2.06,.46-2.63,1.36s-.86,2.76-.86,5.59v6.51c.07,.48-.25,.92-.74,.99-.08,.01-.17,0-.24,0h-2.61Z"/>
        <path class="cls-5" d="M74.15,35.52c0-2.22,.49-4.41,1.6-6.32,1.05-1.79,2.91-2.67,5.54-2.69,.88,0,1.75,.13,2.57,.43,.82,.4,1.51,1.03,1.94,1.85h.08c-.04-.44-.07-.89-.07-1.32v-6.68c0-.67,.32-.99,.96-.99h2.51c.63,0,.96,.33,.96,.99v22.42c.06,.48-.28,.92-.75,.98h-2.86c-.55,0-.82-.34-.82-.99v-.96c-.43,.81-1.11,1.46-1.94,1.85-.82,.31-1.7,.44-2.57,.43-2.62-.04-4.49-.88-5.54-2.69-1.12-1.91-1.6-4.11-1.6-6.32Zm4.89,.01c-.06,1.44,.18,2.85,.7,4.19,.48,1.03,1.47,1.56,3,1.56,.84,0,1.6-.46,2.18-1.4,.68-1.08,.96-2.35,.91-3.62v-1.48c.06-1.27-.25-2.54-.91-3.62-.58-.97-1.33-1.4-2.18-1.4-1.53,0-2.55,.51-3,1.56-.56,1.33-.75,2.78-.7,4.2h0Z"/>
        <path class="cls-5" d="M109.36,35.52c0-2.8,.71-4.99,2.09-6.6,1.39-1.61,3.36-2.41,5.89-2.41,2.93,0,5.12,.75,6.54,2.28s2.14,3.98,2.14,7.34c0,.67-.31,.99-.92,.99h-10.87c.18,1.83,.63,2.98,1.35,3.46s1.63,.74,2.51,.71c.71,.03,1.44-.07,2.08-.36,.48-.22,.89-.57,1.22-.99,.29-.44,.88-.57,1.32-.28,.03,0,.04,.03,.06,.04l1.64,1.01c.64,.4,.74,.86,.28,1.44-.63,.77-1.43,1.4-2.36,1.79s-2.33,.6-4.26,.6c-3.14,0-5.4-.8-6.74-2.41s-2.01-3.81-2-6.6v-.03Zm4.9-1.7h7.15c.04-1.05-.26-2.09-.89-2.93-.59-.76-1.55-1.1-2.86-1.13-.94-.02-1.85,.36-2.46,1.09-.63,.86-.96,1.91-.94,2.98h.01Z"/>
        <path class="cls-5" d="M129.68,44.2c-.48,.07-.92-.27-.99-.76V20.78c-.07-.48,.25-.92,.74-.99,.08-.01,.16-.01,.26,0h2.63c.48-.07,.93,.27,.99,.75,.01,.08,0,.17,0,.25v6.67c0,.44,0,.89-.07,1.32h.07c.43-.79,1.1-1.46,1.93-1.8,.89-.36,1.87-.5,2.82-.48,1.59-.06,3.12,.52,4.26,1.62s1.69,3.05,1.69,5.91v9.15c.07,.48-.27,.92-.74,.99h-2.88c-.48,.07-.92-.27-.99-.76v-8.22c0-2.39-.16-3.92-.48-4.55s-1.04-.93-2.12-.95c-1.09-.02-2.04,.46-2.6,1.35s-.9,2.77-.9,5.61v6.51c.07,.48-.27,.92-.74,.99h-2.88v.04Z"/>
        <path class="cls-5" d="M146.66,35.52c0-2.8,.7-4.98,2.09-6.59,1.38-1.61,3.35-2.41,5.88-2.41,2.93,0,5.12,.76,6.54,2.28s2.15,3.98,2.15,7.34c0,.67-.32,.99-.92,.99h-10.87c.18,1.83,.63,2.98,1.35,3.46s1.63,.74,2.51,.71c.71,.03,1.44-.07,2.09-.36,.48-.22,.88-.57,1.21-.99,.29-.44,.88-.57,1.32-.28,.02,0,.04,.03,.06,.04l1.66,1.01c.64,.4,.73,.87,.28,1.44-.63,.78-1.43,1.4-2.35,1.79s-2.32,.6-4.26,.6c-3.15,0-5.4-.8-6.74-2.41s-2.02-3.81-2.02-6.6l.03-.03Zm4.88-1.7h7.15c.04-1.05-.25-2.1-.88-2.92-.58-.77-1.54-1.1-2.85-1.13-.94-.02-1.88,.35-2.46,1.09-.67,.84-.99,1.91-.96,2.98h0Z"/>
        <path class="cls-5" d="M165.26,35.51c0-2.22,.48-4.41,1.59-6.32,1.05-1.8,2.91-2.68,5.54-2.69,.88,0,1.76,.13,2.59,.43,.82,.4,1.51,1.05,1.95,1.85h.07c-.04-.44-.07-.89-.07-1.32v-6.68c0-.67,.32-.99,.96-.99h2.51c.63,0,.96,.33,.96,.99v22.42c.07,.48-.27,.92-.74,.99h-2.85c-.55,0-.82-.34-.82-.99v-.96c-.43,.81-1.1,1.46-1.95,1.85-.82,.31-1.7,.44-2.59,.43-2.62-.04-4.48-.89-5.54-2.69-1.12-1.93-1.6-4.11-1.6-6.34Zm4.87,.02c-.06,1.44,.14,2.86,.7,4.19,.44,1.05,1.47,1.56,2.99,1.56,.85,0,1.6-.46,2.18-1.4,.68-1.08,.96-2.35,.91-3.62v-1.48c.06-1.27-.24-2.54-.91-3.62-.59-.97-1.33-1.4-2.18-1.4-1.52,0-2.55,.51-2.99,1.56-.56,1.33-.76,2.78-.7,4.2h0Z"/>
        <path class="cls-5" d="M97.41,20.2h-2.63c-.48-.07-.92,.27-.99,.75v2.35c-.07,.48,.25,.92,.74,.99,.08,.01,.17,.01,.25,0h2.64c.48,.07,.92-.27,.99-.75v-2.35c.07-.48-.27-.92-.75-.99h-.25Z"/>
        <path class="cls-5" d="M97.4,26.84h-1.14c-.39,.03-.71,.28-.86,.63l-1.27,2.24c-.24,.41-.35,.89-.35,1.35v12.14c-.07,.48,.27,.92,.75,.99h2.88c.48,.07,.92-.27,.99-.74v-15.61c.07-.48-.27-.92-.75-.99h-.25Z"/>
        <path class="cls-5" d="M105.61,19.48h-1.17c-.39,.03-.71,.28-.85,.63l-1.27,2.23c-.24,.42-.35,.89-.34,1.35v19.51c-.07,.48,.27,.92,.75,.99h1.4c.39-.03,.71-.28,.86-.63l1.27-2.22c.24-.42,.35-.88,.34-1.35V20.47c.07-.48-.25-.92-.74-.99-.08-.01-.17-.01-.25,0Z"/>
        <path class="cls-4" d="M195.84,53.49l9.49,4.06c.6,.26,1.32-.02,1.56-.63,.06-.15,.1-.31,.1-.47v-2.96h-11.14Z"/>
        <path class="cls-6" d="M216.52,12.91h-7.15v21.65c0,2.08-.91,4.08-2.51,5.44l-12.92,11.08h22.58c6.64,0,7.15-.53,7.15-7.15V20.07c0-6.64-.52-7.16-7.15-7.15Z"/>
        <path class="cls-4" d="M205.32,38.2l-15.04,12.89V12.9L205.01,.29c.5-.43,1.26-.37,1.68,.13,.19,.22,.29,.49,.29,.78V34.59c0,1.38-.62,2.72-1.66,3.61Z"/>
        <path class="cls-2" d="M190.28,12.9V51.08l15.04-12.89c1.06-.91,1.66-2.23,1.66-3.61V12.9h-16.7Z"/>
      </g>
    </g>
  </g>
</svg>