<?xml version="1.0" encoding="UTF-8"?>
<svg id="Layer_2" data-name="Layer 2" xmlns="http://www.w3.org/2000/svg" viewBox="0 0 224 60">
  <defs>
    <style>
      .cls-1 {
        fill: #fff;
      }

      .cls-2 {
        fill: #e2050d;
      }
    </style>
  </defs>
  <g id="Layer_1-2" data-name="Layer 1">
    <g>
      <rect class="cls-2" width="224" height="60" rx="2" ry="2"/>
      <g>
        <path class="cls-1" d="M40.23,32.52v6.01h-3.52V21.47h6.66c1.28,0,2.41,.23,3.38,.7s1.72,1.13,2.24,2,.79,1.85,.79,2.95c0,1.67-.57,2.99-1.71,3.96s-2.73,1.45-4.75,1.45h-3.08Zm0-2.85h3.14c.93,0,1.64-.22,2.13-.66s.73-1.06,.73-1.88-.25-1.51-.74-2.03-1.17-.78-2.04-.8h-3.22v5.36Z"/>
        <path class="cls-1" d="M58.2,32.29h-2.8v6.25h-3.52V21.47h6.34c2.02,0,3.57,.45,4.66,1.35s1.64,2.17,1.64,3.81c0,1.16-.25,2.13-.76,2.91s-1.27,1.4-2.29,1.86l3.69,6.97v.16h-3.77l-3.2-6.25Zm-2.8-2.85h2.84c.88,0,1.57-.22,2.05-.67s.73-1.07,.73-1.86-.23-1.44-.69-1.9-1.16-.69-2.1-.69h-2.82v5.12Z"/>
        <path class="cls-1" d="M80.95,30.39c0,1.68-.3,3.15-.89,4.42s-1.44,2.24-2.55,2.93-2.37,1.03-3.8,1.03-2.68-.34-3.79-1.02-1.97-1.65-2.58-2.91-.92-2.71-.93-4.35v-.84c0-1.68,.3-3.16,.91-4.44s1.46-2.26,2.57-2.94,2.37-1.03,3.79-1.03,2.69,.34,3.79,1.03,1.96,1.66,2.57,2.94,.91,2.75,.91,4.42v.76Zm-3.56-.77c0-1.79-.32-3.15-.96-4.08s-1.55-1.39-2.74-1.39-2.09,.46-2.73,1.38-.96,2.26-.97,4.04v.83c0,1.74,.32,3.09,.96,4.05s1.56,1.44,2.77,1.44,2.09-.46,2.72-1.39,.95-2.28,.96-4.05v-.83Z"/>
        <path class="cls-1" d="M97.4,30.39c0,1.68-.3,3.15-.89,4.42s-1.44,2.24-2.55,2.93-2.37,1.03-3.8,1.03-2.68-.34-3.79-1.02-1.97-1.65-2.58-2.91-.92-2.71-.93-4.35v-.84c0-1.68,.3-3.16,.91-4.44s1.46-2.26,2.57-2.94,2.37-1.03,3.79-1.03,2.69,.34,3.79,1.03,1.96,1.66,2.57,2.94,.91,2.75,.91,4.42v.76Zm-3.56-.77c0-1.79-.32-3.15-.96-4.08s-1.55-1.39-2.74-1.39-2.09,.46-2.73,1.38-.96,2.26-.97,4.04v.83c0,1.74,.32,3.09,.96,4.05s1.56,1.44,2.77,1.44,2.09-.46,2.72-1.39,.95-2.28,.96-4.05v-.83Z"/>
        <polygon class="cls-1" points="105.61 34.3 109.48 21.47 113.4 21.47 107.45 38.53 103.79 38.53 97.87 21.47 101.77 21.47 105.61 34.3"/>
        <rect class="cls-1" x="115.21" y="21.47" width="3.52" height="17.06"/>
        <polygon class="cls-1" points="133.06 31.69 131.23 33.66 131.23 38.53 127.72 38.53 127.72 21.47 131.23 21.47 131.23 29.2 132.78 27.08 137.13 21.47 141.45 21.47 135.39 29.05 141.63 38.53 137.44 38.53 133.06 31.69"/>
        <path class="cls-1" d="M156.2,30.39c0,1.68-.3,3.15-.89,4.42s-1.44,2.24-2.55,2.93-2.37,1.03-3.8,1.03-2.68-.34-3.79-1.02-1.97-1.65-2.58-2.91-.92-2.71-.93-4.35v-.84c0-1.68,.3-3.16,.91-4.44s1.46-2.26,2.57-2.94,2.37-1.03,3.79-1.03,2.69,.34,3.79,1.03,1.96,1.66,2.57,2.94,.91,2.75,.91,4.42v.76Zm-3.56-.77c0-1.79-.32-3.15-.96-4.08s-1.55-1.39-2.74-1.39-2.09,.46-2.73,1.38-.96,2.26-.97,4.04v.83c0,1.74,.32,3.09,.96,4.05s1.56,1.44,2.77,1.44,2.09-.46,2.72-1.39,.95-2.28,.96-4.05v-.83Z"/>
        <polygon class="cls-1" points="172.66 38.53 169.14 38.53 169.14 31.22 162.29 31.22 162.29 38.53 158.77 38.53 158.77 21.47 162.29 21.47 162.29 28.38 169.14 28.38 169.14 21.47 172.66 21.47 172.66 38.53"/>
        <polygon class="cls-1" points="186.11 31.14 179.36 31.14 179.36 35.71 187.28 35.71 187.28 38.53 175.84 38.53 175.84 21.47 187.26 21.47 187.26 24.32 179.36 24.32 179.36 28.38 186.11 28.38 186.11 31.14"/>
      </g>
    </g>
  </g>
</svg>